<svg width="55" height="55" viewBox="0 0 55 55" fill="none" xmlns="http://www.w3.org/2000/svg">
<path d="M50.9269 0H20.5249C18.3581 0 16.5955 1.76275 16.5955 3.92939V13.1519C17.4306 13.1519 33.8212 13.1519 34.4756 13.1519C38.6202 13.1519 41.9921 16.5238 41.9921 20.6684C41.9921 21.4443 41.9921 38.0641 41.9921 38.2611H50.9269C53.0936 38.2611 54.8563 36.4984 54.8563 34.3316V3.92939C54.8562 1.76275 53.0936 0 50.9269 0Z" fill="white"/>
<path d="M34.4753 16.7389H4.07331C1.90667 16.7389 0.143799 18.5016 0.143799 20.6684V51.0705C0.143918 53.2373 1.90655 55 4.07331 55H34.4754C36.6422 55 38.4049 53.2373 38.4049 51.0706V20.6684C38.405 18.5016 36.642 16.7389 34.4753 16.7389Z" fill="white"/>
</svg>
