<svg xmlns="http://www.w3.org/2000/svg" xmlns:xlink="http://www.w3.org/1999/xlink" width="1931.821" height="1065" viewBox="0 0 1931.821 1065"><defs><style>.a{fill:#fff;stroke:#707070;}.b{clip-path:url(#a);}.c{fill:#453890;}.c,.f{fill-rule:evenodd;}.d{fill:#f1d971;stroke:#f1d971;stroke-miterlimit:10;}.e,.f{fill:#ffd000;}.g,.h{fill:none;stroke-linecap:round;stroke-linejoin:round;}.g{stroke:#010101;stroke-width:8px;}.h{stroke:#b1a2fe;stroke-width:15px;}</style><clipPath id="a"><rect class="a" width="1920" height="1065"/></clipPath></defs><g transform="translate(11.821)"><g class="b"><path class="c" d="M392.085,86.193C465.028,66.248,542.369,37.99,612.5,66.283,689.975,97.54,774.4,159.939,781.263,243.2c7,84.928-101.457,130.94-137.012,208.384-29,63.162,8.8,159.147-49.259,197.343-58.614,38.559-133.607-20.5-202.906-31.456-55.073-8.711-111.5-.6-161.077-26.116-55.854-28.751-101.355-72.174-134.065-125.806C56.306,398.919-12.04,319.542,22.571,249.59c35.924-72.606,148.078-49.984,222.166-82.746C297.231,143.633,336.72,101.332,392.085,86.193Z" transform="translate(1754.905 403.161)"/><g transform="translate(845.612 -545.067)"><path class="d" d="M610.311,237.982a2.828,2.828,0,1,0,0,4A2.87,2.87,0,0,0,610.311,237.982Z" transform="translate(439.576 282.584)"/><circle class="d" cx="2.5" cy="2.5" r="2.5" transform="translate(1005.888 598.567)"/><ellipse class="d" cx="2.5" cy="3" rx="2.5" ry="3" transform="translate(1005.888 558.567)"/><path class="d" d="M586.505,273.389a2.828,2.828,0,1,0-4,0A2.87,2.87,0,0,0,586.505,273.389Z" transform="translate(345.383 408.177)"/><path class="d" d="M590.107,261.788a2.828,2.828,0,1,0,4,0A2.87,2.87,0,0,0,590.107,261.788Z" transform="translate(376.781 376.778)"/><path class="d" d="M570.3,276.992a2.828,2.828,0,0,0-4,4,5.109,5.109,0,0,0,2,1c.813-.224,1.192-.766,2-1h0A2.87,2.87,0,0,0,570.3,276.992Z" transform="translate(282.585 439.575)"/><path class="d" d="M606.311,221.779a2.828,2.828,0,1,0,4,0A2.86,2.86,0,0,0,606.311,221.779Z" transform="translate(439.576 219.787)"/><path class="d" d="M610.311,233.381c1.082-1.082,1.082-1.913,0-3a2.87,2.87,0,0,0-4,0c-1.087,1.087-1.087,1.913,0,3A2.865,2.865,0,0,0,610.311,233.381Z" transform="translate(439.576 251.185)"/><ellipse class="d" cx="2.5" cy="3" rx="2.5" ry="3" transform="translate(1005.888 440.567)"/><path class="d" d="M606.311,214.177a2.828,2.828,0,1,0,4,0A2.86,2.86,0,0,0,606.311,214.177Z" transform="translate(439.576 188.389)"/><circle class="d" cx="3" cy="3" r="3" transform="translate(965.888 440.567)"/><path class="d" d="M586.505,245.584a2.828,2.828,0,1,0,0,4A2.865,2.865,0,0,0,586.505,245.584Z" transform="translate(345.383 313.982)"/><circle class="d" cx="3" cy="3" r="3" transform="translate(965.888 519.567)"/><circle class="d" cx="3" cy="3" r="3" transform="translate(965.888 558.567)"/><path class="d" d="M582.505,241.982a2.828,2.828,0,1,0,0-4A2.87,2.87,0,0,0,582.505,241.982Z" transform="translate(345.383 282.584)"/><ellipse class="d" cx="2.5" cy="3" rx="2.5" ry="3" transform="translate(1005.888 519.567)"/><ellipse class="d" cx="3" cy="2.5" rx="3" ry="2.5" transform="translate(965.888 480.567)"/><ellipse class="d" cx="2.5" cy="3" rx="2.5" ry="3" transform="translate(887.888 519.567)"/><circle class="d" cx="2.5" cy="2.5" r="2.5" transform="translate(1005.888 480.567)"/><path class="d" d="M570.3,261.788a2.828,2.828,0,1,0,0,4A2.87,2.87,0,0,0,570.3,261.788Z" transform="translate(282.585 376.778)"/><circle class="d" cx="2.5" cy="2.5" r="2.5" transform="translate(887.888 598.567)"/><path class="d" d="M582.505,265.788a2.828,2.828,0,1,0,0-4A2.866,2.866,0,0,0,582.505,265.788Z" transform="translate(345.383 376.778)"/><path class="d" d="M578.9,261.788a2.828,2.828,0,1,0,0,4A2.87,2.87,0,0,0,578.9,261.788Z" transform="translate(313.984 376.778)"/><path class="d" d="M570.3,257.187a2.828,2.828,0,1,0-4,0A2.87,2.87,0,0,0,570.3,257.187Z" transform="translate(282.585 345.38)"/><path class="d" d="M586.505,253.187a2.828,2.828,0,1,0,0,4A2.861,2.861,0,0,0,586.505,253.187Z" transform="translate(345.383 345.38)"/><ellipse class="d" cx="2.5" cy="3" rx="2.5" ry="3" transform="translate(887.888 558.567)"/><ellipse class="d" cx="3" cy="2.5" rx="3" ry="2.5" transform="translate(808.888 598.567)"/><ellipse class="d" cx="3" cy="2.5" rx="3" ry="2.5" transform="translate(965.888 598.567)"/><circle class="d" cx="3" cy="3" r="3" transform="translate(808.888 676.567)"/><path class="d" d="M558.7,280.992a2.828,2.828,0,1,0,0-4A2.87,2.87,0,0,0,558.7,280.992Z" transform="translate(251.188 439.575)"/><circle class="d" cx="3" cy="3" r="3" transform="translate(769.888 676.567)"/><path class="d" d="M566.3,269.389a2.828,2.828,0,1,0,4,0A2.861,2.861,0,0,0,566.3,269.389Z" transform="translate(282.585 408.177)"/><path class="d" d="M562.7,261.788a2.828,2.828,0,1,0,0,4A2.87,2.87,0,0,0,562.7,261.788Z" transform="translate(251.188 376.778)"/><path class="d" d="M547.5,269.389a2.828,2.828,0,1,0,0,4A2.87,2.87,0,0,0,547.5,269.389Z" transform="translate(188.391 408.177)"/><path class="d" d="M555.1,261.788a2.828,2.828,0,1,0,0,4A2.87,2.87,0,0,0,555.1,261.788Z" transform="translate(219.789 376.778)"/><ellipse class="d" cx="2.5" cy="3" rx="2.5" ry="3" transform="translate(887.888 676.567)"/><path class="d" d="M543.5,276.992a2.828,2.828,0,1,0,4,0A2.86,2.86,0,0,0,543.5,276.992Z" transform="translate(188.391 439.575)"/><path class="d" d="M538.9,276.992a2.828,2.828,0,1,0,0,4A2.865,2.865,0,0,0,538.9,276.992Z" transform="translate(156.992 439.575)"/><path class="d" d="M551.1,280.992a2.828,2.828,0,1,0,0-4A2.87,2.87,0,0,0,551.1,280.992Z" transform="translate(219.789 439.575)"/><path class="d" d="M601.711,197.974c-1.087-1.082-1.918-1.082-3,0a2.86,2.86,0,0,0,0,4c1.082,1.082,1.913,1.087,3,0A2.87,2.87,0,0,0,601.711,197.974Z" transform="translate(408.177 125.593)"/><path class="d" d="M601.711,194.372a2.87,2.87,0,0,0,0-4c-1.087-1.087-1.918-1.087-3,0a2.86,2.86,0,0,0,0,4C599.792,195.459,600.623,195.459,601.711,194.372Z" transform="translate(408.177 94.195)"/><ellipse class="d" cx="3" cy="2.5" rx="3" ry="2.5" transform="translate(965.888 362.567)"/><path class="d" d="M598.711,218.177c1.082,1.082,1.913,1.082,3,0a2.87,2.87,0,0,0,0-4c-1.087-1.087-1.918-1.082-3,0A2.86,2.86,0,0,0,598.711,218.177Z" transform="translate(408.177 188.389)"/><path class="d" d="M590.107,218.177a2.828,2.828,0,1,0,0-4A2.87,2.87,0,0,0,590.107,218.177Z" transform="translate(376.781 188.389)"/><path class="d" d="M582.505,210.576a2.828,2.828,0,1,0,0-4A2.87,2.87,0,0,0,582.505,210.576Z" transform="translate(345.383 156.99)"/><circle class="d" cx="2.5" cy="2.5" r="2.5" transform="translate(1005.888 362.567)"/><path class="d" d="M590.107,201.974a2.828,2.828,0,1,0,0-4A2.865,2.865,0,0,0,590.107,201.974Z" transform="translate(376.781 125.593)"/><path class="d" d="M606.311,210.576a2.828,2.828,0,1,0,0-4A2.87,2.87,0,0,0,606.311,210.576Z" transform="translate(439.576 156.99)"/><path class="d" d="M570.3,230.381a2.87,2.87,0,0,0-4,0c-1.087,1.087-1.087,1.913,0,3a2.865,2.865,0,0,0,4,0C571.385,232.3,571.385,231.468,570.3,230.381Z" transform="translate(282.585 251.185)"/><ellipse class="d" cx="2.5" cy="3" rx="2.5" ry="3" transform="translate(887.888 440.567)"/><path class="d" d="M582.505,233.381a2.865,2.865,0,0,0,4,0c1.082-1.082,1.082-1.913,0-3a2.87,2.87,0,0,0-4,0C581.418,231.468,581.418,232.294,582.505,233.381Z" transform="translate(345.383 251.185)"/><circle class="d" cx="2.5" cy="2.5" r="2.5" transform="translate(887.888 480.567)"/><path class="d" d="M566.3,225.779a2.828,2.828,0,1,0,0-4A2.861,2.861,0,0,0,566.3,225.779Z" transform="translate(282.585 219.787)"/><path class="d" d="M586.505,221.779a2.828,2.828,0,1,0,0,4A2.861,2.861,0,0,0,586.505,221.779Z" transform="translate(345.383 219.787)"/><path class="d" d="M574.9,218.177a2.828,2.828,0,1,0,0-4A2.87,2.87,0,0,0,574.9,218.177Z" transform="translate(313.984 188.389)"/><circle class="d" cx="3" cy="3" r="3" transform="translate(808.888 440.567)"/><path class="d" d="M582.505,218.177a2.828,2.828,0,1,0,0-4A2.87,2.87,0,0,0,582.505,218.177Z" transform="translate(345.383 188.389)"/><circle class="d" cx="3" cy="3" r="3" transform="translate(769.888 558.567)"/><circle class="d" cx="3" cy="3" r="3" transform="translate(808.888 519.567)"/><path class="d" d="M566.3,249.584a2.828,2.828,0,1,0,0-4A2.87,2.87,0,0,0,566.3,249.584Z" transform="translate(282.585 313.982)"/><circle class="d" cx="3" cy="3" r="3" transform="translate(808.888 558.567)"/><circle class="d" cx="3" cy="3" r="3" transform="translate(769.888 519.567)"/><path class="d" d="M570.3,237.982a2.828,2.828,0,1,0,0,4A2.87,2.87,0,0,0,570.3,237.982Z" transform="translate(282.585 282.584)"/><ellipse class="d" cx="3" cy="2.5" rx="3" ry="2.5" transform="translate(808.888 480.567)"/><path class="d" d="M547.5,237.982a2.828,2.828,0,1,0,0,4A2.87,2.87,0,0,0,547.5,237.982Z" transform="translate(188.391 282.584)"/><ellipse class="d" cx="3" cy="2.5" rx="3" ry="2.5" transform="translate(769.888 480.567)"/><path class="d" d="M538.9,261.788a2.828,2.828,0,1,0,0,4A2.87,2.87,0,0,0,538.9,261.788Z" transform="translate(156.992 376.778)"/><path class="d" d="M547.5,253.187a2.828,2.828,0,1,0,0,4A2.861,2.861,0,0,0,547.5,253.187Z" transform="translate(188.391 345.38)"/><path class="d" d="M547.5,261.788a2.828,2.828,0,1,0,0,4A2.87,2.87,0,0,0,547.5,261.788Z" transform="translate(188.391 376.778)"/><circle class="d" cx="2.5" cy="2.5" r="2.5" transform="translate(691.888 598.567)"/><ellipse class="d" cx="3" cy="2.5" rx="3" ry="2.5" transform="translate(769.888 598.567)"/><path class="d" d="M547.5,245.584a2.828,2.828,0,1,0,0,4A2.865,2.865,0,0,0,547.5,245.584Z" transform="translate(188.391 313.982)"/><ellipse class="d" cx="3" cy="2.5" rx="3" ry="2.5" transform="translate(651.888 598.567)"/><ellipse class="d" cx="2.5" cy="3" rx="2.5" ry="3" transform="translate(691.888 558.567)"/><circle class="d" cx="3" cy="3" r="3" transform="translate(651.888 676.567)"/><circle class="d" cx="3" cy="3" r="3" transform="translate(612.888 676.567)"/><ellipse class="d" cx="2.5" cy="3" rx="2.5" ry="3" transform="translate(691.888 676.567)"/><path class="d" d="M531.292,261.788a2.828,2.828,0,1,0,0,4A2.87,2.87,0,0,0,531.292,261.788Z" transform="translate(125.596 376.778)"/><path class="d" d="M523.691,261.788a2.828,2.828,0,1,0,0,4A2.87,2.87,0,0,0,523.691,261.788Z" transform="translate(94.196 376.778)"/><path class="d" d="M586.505,182.77a2.828,2.828,0,1,0,0,4A2.865,2.865,0,0,0,586.505,182.77Z" transform="translate(345.383 62.797)"/><circle class="d" cx="3" cy="3" r="3" transform="translate(965.888 244.567)"/><path class="d" d="M586.505,179.169a2.828,2.828,0,1,0-4,0A2.87,2.87,0,0,0,586.505,179.169Z" transform="translate(345.383 31.398)"/><path class="d" d="M578.9,175.169a2.828,2.828,0,1,0,0,4A2.865,2.865,0,0,0,578.9,175.169Z" transform="translate(313.984 31.398)"/><path class="d" d="M574.9,194.372a2.828,2.828,0,1,0,0-4A2.861,2.861,0,0,0,574.9,194.372Z" transform="translate(313.984 94.195)"/><path class="d" d="M582.505,201.974a2.828,2.828,0,1,0,0-4A2.865,2.865,0,0,0,582.505,201.974Z" transform="translate(345.383 125.593)"/><path class="d" d="M574.9,201.974a2.828,2.828,0,1,0,0-4A2.865,2.865,0,0,0,574.9,201.974Z" transform="translate(313.984 125.593)"/><path class="d" d="M566.3,194.372a2.828,2.828,0,1,0,0-4A2.861,2.861,0,0,0,566.3,194.372Z" transform="translate(282.585 94.195)"/><path class="d" d="M582.505,194.372a2.828,2.828,0,1,0,0-4A2.861,2.861,0,0,0,582.505,194.372Z" transform="translate(345.383 94.195)"/><ellipse class="d" cx="2.5" cy="3" rx="2.5" ry="3" transform="translate(887.888 244.567)"/><path class="d" d="M590.107,194.372a2.828,2.828,0,1,0,0-4A2.861,2.861,0,0,0,590.107,194.372Z" transform="translate(376.781 94.195)"/><path class="d" d="M555.1,214.177a2.828,2.828,0,1,0,0,4A2.865,2.865,0,0,0,555.1,214.177Z" transform="translate(219.789 188.389)"/><ellipse class="d" cx="3" cy="2.5" rx="3" ry="2.5" transform="translate(808.888 362.567)"/><path class="d" d="M566.3,218.177a2.828,2.828,0,1,0,0-4A2.87,2.87,0,0,0,566.3,218.177Z" transform="translate(282.585 188.389)"/><path class="d" d="M558.7,218.177a2.828,2.828,0,1,0,0-4A2.87,2.87,0,0,0,558.7,218.177Z" transform="translate(251.188 188.389)"/><ellipse class="d" cx="3" cy="2.5" rx="3" ry="2.5" transform="translate(769.888 362.567)"/><path class="d" d="M566.3,210.576a2.828,2.828,0,1,0,0-4A2.87,2.87,0,0,0,566.3,210.576Z" transform="translate(282.585 156.99)"/><path class="d" d="M558.7,201.974a2.828,2.828,0,1,0,0-4A2.865,2.865,0,0,0,558.7,201.974Z" transform="translate(251.188 125.593)"/><path class="d" d="M555.1,197.974a2.828,2.828,0,1,0,0,4A2.87,2.87,0,0,0,555.1,197.974Z" transform="translate(219.789 125.593)"/><path class="d" d="M566.3,201.974a2.828,2.828,0,1,0,0-4A2.865,2.865,0,0,0,566.3,201.974Z" transform="translate(282.585 125.593)"/><circle class="d" cx="2.5" cy="2.5" r="2.5" transform="translate(887.888 362.567)"/><circle class="d" cx="2.5" cy="2.5" r="2.5" transform="translate(691.888 480.567)"/><path class="d" d="M547.5,221.779a2.828,2.828,0,1,0,0,4A2.861,2.861,0,0,0,547.5,221.779Z" transform="translate(188.391 219.787)"/><path class="d" d="M547.5,230.381a2.87,2.87,0,0,0-4,0c-1.087,1.087-1.087,1.913,0,3a2.865,2.865,0,0,0,4,0C548.584,232.3,548.584,231.468,547.5,230.381Z" transform="translate(188.391 251.185)"/><ellipse class="d" cx="2.5" cy="3" rx="2.5" ry="3" transform="translate(691.888 440.567)"/><circle class="d" cx="3" cy="3" r="3" transform="translate(769.888 440.567)"/><path class="d" d="M547.5,214.177a2.828,2.828,0,1,0,0,4A2.865,2.865,0,0,0,547.5,214.177Z" transform="translate(188.391 188.389)"/><circle class="d" cx="3" cy="3" r="3" transform="translate(651.888 440.567)"/><path class="d" d="M538.9,214.177a2.828,2.828,0,1,0,0,4A2.865,2.865,0,0,0,538.9,214.177Z" transform="translate(156.992 188.389)"/><circle class="d" cx="3" cy="3" r="3" transform="translate(612.888 558.567)"/><circle class="d" cx="3" cy="3" r="3" transform="translate(651.888 519.567)"/><circle class="d" cx="3" cy="3" r="3" transform="translate(651.888 558.567)"/><circle class="d" cx="3" cy="3" r="3" transform="translate(612.888 519.567)"/><ellipse class="d" cx="2.5" cy="3" rx="2.5" ry="3" transform="translate(691.888 519.567)"/><ellipse class="d" cx="3" cy="2.5" rx="3" ry="2.5" transform="translate(651.888 480.567)"/><path class="d" d="M515.089,237.982c-1.082-1.082-1.918-1.082-3,0a2.861,2.861,0,0,0,0,4c1.082,1.082,1.918,1.082,3,0A2.86,2.86,0,0,0,515.089,237.982Z" transform="translate(62.798 282.584)"/><ellipse class="d" cx="3" cy="2.5" rx="3" ry="2.5" transform="translate(612.888 480.567)"/><path class="d" d="M515.089,253.187c-1.082-1.087-1.918-1.087-3,0a2.861,2.861,0,0,0,0,4c1.082,1.087,1.918,1.087,3,0A2.86,2.86,0,0,0,515.089,253.187Z" transform="translate(62.798 345.38)"/><path class="d" d="M515.089,261.788c-1.082-1.082-1.918-1.082-3,0a2.861,2.861,0,0,0,0,4c1.082,1.082,1.918,1.087,3,0A2.86,2.86,0,0,0,515.089,261.788Z" transform="translate(62.798 376.778)"/><path class="d" d="M507.488,253.187a2.828,2.828,0,1,0,0,4A2.861,2.861,0,0,0,507.488,253.187Z" transform="translate(31.399 345.38)"/><ellipse class="d" cx="3" cy="2.5" rx="3" ry="2.5" transform="translate(612.888 598.567)"/><path class="d" d="M515.089,245.584c-1.082-1.087-1.918-1.082-3,0a2.861,2.861,0,0,0,0,4c1.082,1.082,1.918,1.082,3,0A2.86,2.86,0,0,0,515.089,245.584Z" transform="translate(62.798 313.982)"/><path class="d" d="M507.488,245.584a2.828,2.828,0,1,0,0,4A2.865,2.865,0,0,0,507.488,245.584Z" transform="translate(31.399 313.982)"/><path class="d" d="M570.3,166.567a2.828,2.828,0,1,0,0,4A2.87,2.87,0,0,0,570.3,166.567Z" transform="translate(282.585 0)"/><path class="d" d="M578.9,170.567a2.828,2.828,0,1,0-4,0A2.86,2.86,0,0,0,578.9,170.567Z" transform="translate(313.984 0)"/><path class="d" d="M562.7,175.169a2.828,2.828,0,1,0,0,4A2.865,2.865,0,0,0,562.7,175.169Z" transform="translate(251.188 31.398)"/><path class="d" d="M566.3,186.77a2.828,2.828,0,1,0,0-4A2.87,2.87,0,0,0,566.3,186.77Z" transform="translate(282.585 62.797)"/><circle class="d" cx="3" cy="3" r="3" transform="translate(808.888 244.567)"/><path class="d" d="M551.1,179.169a2.828,2.828,0,1,0,0-4A2.87,2.87,0,0,0,551.1,179.169Z" transform="translate(219.789 31.398)"/><path class="d" d="M566.3,179.169a2.828,2.828,0,1,0,0-4A2.87,2.87,0,0,0,566.3,179.169Z" transform="translate(282.585 31.398)"/><path class="d" d="M558.7,166.567a2.828,2.828,0,1,0,4,0A2.87,2.87,0,0,0,558.7,166.567Z" transform="translate(251.188 0)"/><path class="d" d="M547.5,175.169a2.828,2.828,0,1,0,0,4A2.865,2.865,0,0,0,547.5,175.169Z" transform="translate(188.391 31.398)"/><path class="d" d="M555.1,166.567a2.828,2.828,0,1,0,0,4A2.87,2.87,0,0,0,555.1,166.567Z" transform="translate(219.789 0)"/><path class="d" d="M543.5,194.372a2.828,2.828,0,1,0,0-4A2.861,2.861,0,0,0,543.5,194.372Z" transform="translate(188.391 94.195)"/><path class="d" d="M543.5,201.974a2.828,2.828,0,1,0,0-4A2.865,2.865,0,0,0,543.5,201.974Z" transform="translate(188.391 125.593)"/><path class="d" d="M534.9,194.372a2.828,2.828,0,1,0,0-4A2.861,2.861,0,0,0,534.9,194.372Z" transform="translate(156.992 94.195)"/><path class="d" d="M551.1,190.372a2.828,2.828,0,1,0,4,0A2.87,2.87,0,0,0,551.1,190.372Z" transform="translate(219.789 94.195)"/><path class="d" d="M543.5,186.77a2.828,2.828,0,1,0,0-4A2.87,2.87,0,0,0,543.5,186.77Z" transform="translate(188.391 62.797)"/><path class="d" d="M531.292,190.372a2.828,2.828,0,1,0,0,4A2.861,2.861,0,0,0,531.292,190.372Z" transform="translate(125.596 94.195)"/><ellipse class="d" cx="2.5" cy="3" rx="2.5" ry="3" transform="translate(691.888 244.567)"/><circle class="d" cx="3" cy="3" r="3" transform="translate(769.888 244.567)"/><path class="d" d="M558.7,194.372a2.828,2.828,0,1,0,0-4A2.861,2.861,0,0,0,558.7,194.372Z" transform="translate(251.188 94.195)"/><path class="d" d="M523.691,214.177a2.828,2.828,0,1,0,0,4A2.865,2.865,0,0,0,523.691,214.177Z" transform="translate(94.196 188.389)"/><ellipse class="d" cx="3" cy="2.5" rx="3" ry="2.5" transform="translate(651.888 362.567)"/><path class="d" d="M531.292,214.177a2.828,2.828,0,1,0,0,4A2.865,2.865,0,0,0,531.292,214.177Z" transform="translate(125.596 188.389)"/><ellipse class="d" cx="3" cy="2.5" rx="3" ry="2.5" transform="translate(612.888 362.567)"/><circle class="d" cx="2.5" cy="2.5" r="2.5" transform="translate(691.888 362.567)"/><path class="d" d="M531.292,197.974a2.828,2.828,0,1,0,0,4A2.87,2.87,0,0,0,531.292,197.974Z" transform="translate(125.596 125.593)"/><path class="d" d="M515.089,206.576c-1.082-1.087-1.918-1.082-3,0a2.861,2.861,0,0,0,0,4c1.082,1.082,1.918,1.082,3,0A2.86,2.86,0,0,0,515.089,206.576Z" transform="translate(62.798 156.99)"/><path class="d" d="M523.691,197.974a2.828,2.828,0,1,0,0,4A2.87,2.87,0,0,0,523.691,197.974Z" transform="translate(94.196 125.593)"/><path class="d" d="M534.9,201.974a2.828,2.828,0,1,0,0-4A2.865,2.865,0,0,0,534.9,201.974Z" transform="translate(156.992 125.593)"/><path class="d" d="M543.5,210.576a2.828,2.828,0,1,0,0-4A2.87,2.87,0,0,0,543.5,210.576Z" transform="translate(188.391 156.99)"/><path class="d" d="M507.488,230.381a2.87,2.87,0,0,0-4,0c-1.087,1.087-1.087,1.913,0,3a2.865,2.865,0,0,0,4,0C508.571,232.3,508.571,231.468,507.488,230.381Z" transform="translate(31.399 251.185)"/><path class="d" d="M515.089,221.779c-1.082-1.087-1.918-1.087-3,0a2.861,2.861,0,0,0,0,4c1.082,1.087,1.918,1.087,3,0A2.86,2.86,0,0,0,515.089,221.779Z" transform="translate(62.798 219.787)"/><path class="d" d="M515.089,230.381c-1.082-1.082-1.918-1.082-3,0s-1.087,1.913,0,3,1.918,1.087,3,0S516.177,231.468,515.089,230.381Z" transform="translate(62.798 251.185)"/><path class="d" d="M507.488,221.779a2.828,2.828,0,1,0,0,4A2.861,2.861,0,0,0,507.488,221.779Z" transform="translate(31.399 219.787)"/><circle class="d" cx="3" cy="3" r="3" transform="translate(612.888 440.567)"/><path class="d" d="M515.089,214.177c-1.082-1.087-1.918-1.082-3,0a2.861,2.861,0,0,0,0,4c1.082,1.082,1.918,1.082,3,0A2.86,2.86,0,0,0,515.089,214.177Z" transform="translate(62.798 188.389)"/><path class="d" d="M507.488,214.177a2.828,2.828,0,1,0,0,4A2.865,2.865,0,0,0,507.488,214.177Z" transform="translate(31.399 188.389)"/><path class="d" d="M499.888,237.982a2.828,2.828,0,1,0,0,4A2.87,2.87,0,0,0,499.888,237.982Z" transform="translate(0 282.584)"/><path class="d" d="M503.488,237.982a2.828,2.828,0,1,0,4,0A2.861,2.861,0,0,0,503.488,237.982Z" transform="translate(31.399 282.584)"/><path class="d" d="M495.888,230.381c-1.087,1.087-1.087,1.913,0,3a2.865,2.865,0,0,0,4,0c1.082-1.082,1.082-1.913,0-3A2.87,2.87,0,0,0,495.888,230.381Z" transform="translate(0 251.185)"/><path class="d" d="M538.9,166.567a2.828,2.828,0,1,0,0,4A2.87,2.87,0,0,0,538.9,166.567Z" transform="translate(156.992 0)"/><path class="d" d="M547.5,170.567a2.828,2.828,0,1,0-4,0A2.86,2.86,0,0,0,547.5,170.567Z" transform="translate(188.391 0)"/><path class="d" d="M531.292,175.169a2.828,2.828,0,1,0,0,4A2.865,2.865,0,0,0,531.292,175.169Z" transform="translate(125.596 31.398)"/><circle class="d" cx="3" cy="3" r="3" transform="translate(651.888 244.567)"/><path class="d" d="M523.691,175.169a2.828,2.828,0,1,0,0,4A2.865,2.865,0,0,0,523.691,175.169Z" transform="translate(94.196 31.398)"/><path class="d" d="M534.9,179.169a2.828,2.828,0,1,0,0-4A2.87,2.87,0,0,0,534.9,179.169Z" transform="translate(156.992 31.398)"/><path class="d" d="M531.292,166.567a2.828,2.828,0,1,0,0,4A2.87,2.87,0,0,0,531.292,166.567Z" transform="translate(125.596 0)"/><path class="d" d="M507.488,197.974a2.828,2.828,0,1,0,0,4A2.87,2.87,0,0,0,507.488,197.974Z" transform="translate(31.399 125.593)"/><path class="d" d="M515.089,190.372c-1.082-1.087-1.918-1.087-3,0a2.861,2.861,0,0,0,0,4c1.082,1.087,1.918,1.087,3,0A2.86,2.86,0,0,0,515.089,190.372Z" transform="translate(62.798 94.195)"/><path class="d" d="M515.089,197.974c-1.082-1.082-1.918-1.082-3,0a2.861,2.861,0,0,0,0,4c1.082,1.082,1.918,1.087,3,0A2.86,2.86,0,0,0,515.089,197.974Z" transform="translate(62.798 125.593)"/><path class="d" d="M503.488,194.372a2.828,2.828,0,1,0,0-4A2.861,2.861,0,0,0,503.488,194.372Z" transform="translate(31.399 94.195)"/><path class="d" d="M523.691,190.372a2.828,2.828,0,1,0,0,4A2.861,2.861,0,0,0,523.691,190.372Z" transform="translate(94.196 94.195)"/><path class="d" d="M512.089,182.77a2.861,2.861,0,0,0,0,4c1.082,1.082,1.918,1.082,3,0a2.86,2.86,0,0,0,0-4C514.007,181.683,513.172,181.688,512.089,182.77Z" transform="translate(62.798 62.797)"/><circle class="d" cx="3" cy="3" r="3" transform="translate(612.888 244.567)"/><path class="d" d="M499.888,206.576a2.828,2.828,0,1,0,0,4A2.865,2.865,0,0,0,499.888,206.576Z" transform="translate(0 156.99)"/><path class="d" d="M499.888,214.177a2.828,2.828,0,1,0,0,4A2.865,2.865,0,0,0,499.888,214.177Z" transform="translate(0 188.389)"/><path class="d" d="M507.488,206.576a2.828,2.828,0,1,0,0,4A2.865,2.865,0,0,0,507.488,206.576Z" transform="translate(31.399 156.99)"/><path class="d" d="M499.874,201.974a2.828,2.828,0,0,0-4-4c-.274.678-.731,1.322-1,2a3.29,3.29,0,0,0,1,2A2.865,2.865,0,0,0,499.874,201.974Z" transform="translate(0.014 125.593)"/><path class="d" d="M495.888,225.779a2.828,2.828,0,1,0,0-4A2.861,2.861,0,0,0,495.888,225.779Z" transform="translate(0 219.787)"/></g><path class="e" d="M876.791,306.985c-116.612-10.971-46.63-147.421-157.472-222.853C639.051,29.51,514.785,98.614,476.489,217.976c-29.772,92.8-54.914,141.926-107.074,175.908-67.823,44.191-110.991,87.886-122.373,147.231-10.534,54.959,21.144,140.912,102.17,147.9,170.652,14.717,220.085-115.625,422.65-92.385,151.166,17.34,231.065-31.949,255.283-94.62C1058.342,421.267,997.122,318.312,876.791,306.985Z" transform="translate(-715.212 117.819)"/><path class="f" d="M49.049,57.358c6.92-1.892,14.257-4.573,20.91-1.889,7.35,2.965,15.359,8.885,16.01,16.784.664,8.057-9.625,12.422-13,19.769-2.751,5.992.835,15.1-4.673,18.721-5.56,3.658-12.675-1.944-19.249-2.984-5.225-.826-10.578-.057-15.281-2.478A32.058,32.058,0,0,1,21.05,93.346C17.2,87.025,10.712,79.495,14,72.859c3.408-6.888,14.048-4.742,21.076-7.85C40.051,62.807,43.8,58.794,49.049,57.358Z" transform="translate(1857.664 502.74)"/></g><path class="e" d="M1508.38,776.425a17.2,17.2,0,1,0-17.2-17.2A17.2,17.2,0,0,0,1508.38,776.425Z" transform="translate(-1092.335 209.467)"/><path class="g" d="M1637.22,773.886a13,13,0,1,0-13-13A13,13,0,0,0,1637.22,773.886Z" transform="translate(-561.335 234.467)"/><path class="f" d="M49.049,57.358c6.92-1.892,14.257-4.573,20.91-1.889,7.35,2.965,15.359,8.885,16.01,16.784.664,8.057-9.625,12.422-13,19.769-2.751,5.992.835,15.1-4.673,18.721-5.56,3.658-12.675-1.944-19.249-2.984-5.225-.826-10.578-.057-15.281-2.478A32.058,32.058,0,0,1,21.05,93.346C17.2,87.025,10.712,79.495,14,72.859c3.408-6.888,14.048-4.742,21.076-7.85C40.051,62.807,43.8,58.794,49.049,57.358Z" transform="translate(1288.665 219.74)"/><path class="h" d="M1725.879,677.655a107.984,107.984,0,1,1,152.773,152.651" transform="translate(613.785 -1525.227) rotate(83)"/></g></svg>