<svg width="111" height="224" viewBox="0 0 111 224" fill="none" xmlns="http://www.w3.org/2000/svg">
<path d="M21.1445 107.842L29.9546 199.306H79.291L87.3459 107.842H21.1445Z" fill="url(#paint0_linear)"/>
<path d="M73.7548 199.308H35.2422V206.111H73.7548V199.308Z" fill="#512440"/>
<path d="M84.0708 102.3H24.4141V108.095H84.0708V102.3Z" fill="url(#paint1_radial)"/>
<path d="M21.1445 102.299H87.0942C87.0942 102.299 80.8013 51.1494 54.1194 51.1494C27.4374 51.1494 21.1445 102.299 21.1445 102.299Z" fill="url(#paint2_linear)"/>
<path d="M63.6812 49.3857H44.5508V53.4172H63.6812V49.3857Z" fill="url(#paint3_linear)"/>
<path d="M46.5664 49.3859L47.5733 46.8662H60.1591L61.1659 49.3859H46.5664Z" fill="url(#paint4_linear)"/>
<path d="M51.0977 47.3701L53.1114 31.748H55.8803L57.894 47.3701H51.0977Z" fill="url(#paint5_linear)"/>
<path d="M54.8723 33.2598H54.1172V0H54.6206L54.8723 33.2598Z" fill="url(#paint6_linear)"/>
<path d="M47.3242 49.1339L48.0794 47.3701H52.3585L52.1068 49.1339H47.3242Z" fill="white"/>
<path d="M53.3636 32L51.6016 46.3622H53.1119L54.1187 32H53.3636Z" fill="white"/>
<path d="M52.3555 49.1339L52.6072 47.3701H53.8658V49.1339H52.3555Z" fill="white"/>
<path opacity="0.53" d="M55.375 32L56.1301 46.3622H57.6404L55.6267 32H55.375Z" fill="#3B1544"/>
<path opacity="0.53" d="M56.3828 47.1182H59.9068L60.9137 49.1339H56.3828V47.1182Z" fill="#3B1544"/>
<path d="M54.1172 9.82617H54.6206V15.3695H54.1172V9.82617Z" fill="url(#paint7_linear)"/>
<path d="M59.6558 47.3702H59.1523V30.2363H59.6558V47.3702Z" fill="url(#paint8_linear)"/>
<path d="M49.3355 47.3706H48.832V23.1816H49.0837L49.3355 47.3706Z" fill="url(#paint9_linear)"/>
<path d="M48.832 32.7559H49.0837V38.0472H48.832V32.7559Z" fill="url(#paint10_linear)"/>
<path d="M53.1101 50.1416H45.5586V53.1652H53.1101V50.1416Z" fill="white"/>
<path d="M22.9062 100.283H41.0298C41.0298 100.283 39.2678 75.3381 49.0847 55.1807H44.3021C44.5538 55.1807 33.73 58.7082 22.9062 100.283Z" fill="white"/>
<path opacity="0.35" d="M61.1674 55.1807C61.1674 55.1807 72.2429 67.5271 76.7738 99.0232L21.1445 102.299H84.0736C84.3253 102.299 83.3184 74.5822 61.1674 55.1807Z" fill="#314F74"/>
<path d="M26.9314 78.8663L57.6408 77.8584L65.1923 87.4332L84.3227 87.1812V87.9371L64.9406 88.4411L57.3891 78.8663L26.6797 79.6222L26.9314 78.8663Z" fill="#2EFF98"/>
<path opacity="0.35" d="M84.0732 86.6774H65.4462L57.8947 77.1025L27.1853 78.3624L26.9336 78.8663L57.643 77.8584L65.1945 87.4333L84.3249 87.1813L84.0732 86.6774Z" fill="#314F74"/>
<path opacity="0.35" d="M24.4141 104.064L77.5262 103.308L80.7985 108.095H84.3225V102.3H24.4141V104.064Z" fill="#314F74"/>
<path opacity="0.35" d="M35.2422 201.323L68.7204 200.567L71.4893 206.111H74.0065V199.308H35.2422V201.323Z" fill="#314F74"/>
<path d="M22.9062 108.851L31.7163 193.008H35.2403L28.444 108.851H22.9062Z" fill="white"/>
<path d="M29.9546 199.306L21.1445 107.842H87.3459L22.1514 108.094L29.9546 199.306Z" fill="#FFFFDF"/>
<path d="M67.459 115.654H43.5459L42.5391 110.362H68.4658L67.459 115.654Z" fill="url(#paint11_radial)"/>
<path opacity="0.35" d="M43.5459 115.654L42.5391 110.362H68.4658L68.2141 111.874L44.0494 111.622L45.3079 115.654H43.5459Z" fill="#314F74"/>
<path d="M31.4648 204.599L33.4786 209.134H76.522L78.7875 204.599H31.4648Z" fill="url(#paint12_linear)"/>
<path d="M73.7506 209.134H37V210.898H73.7506V209.134Z" fill="url(#paint13_linear)"/>
<path d="M31.4645 204.599L0 222.74H2.76888L33.4783 209.134L31.4645 204.599Z" fill="#512440"/>
<path d="M78.7889 204.599L110.002 222.74H107.233L76.5234 209.134L78.7889 204.599Z" fill="url(#paint14_linear)"/>
<path d="M50.5938 204.599L55.1246 224H57.8935L60.4107 204.599H50.5938Z" fill="#512440"/>
<path d="M51.3516 205.103L52.1067 208.63H59.1548L59.9099 205.103H51.3516Z" fill="white"/>
<path d="M52.1055 208.882L52.6089 210.142H58.6501L58.9018 208.882H52.1055Z" fill="white"/>
<path d="M0 222.74L31.4645 204.599H78.7872L32.2197 204.851L0 222.74Z" fill="#FFFFDF"/>
<path d="M80.8019 182.174H51.0994V181.922L48.3305 136.819H23.9141V136.315H48.834V136.567L51.6028 181.67H80.8019V182.174Z" fill="url(#paint15_radial)"/>
<path d="M86.0887 122.457H22.6562V123.213H86.0887V122.457Z" fill="url(#paint16_radial)"/>
<path d="M55.1266 199.055L54.8749 187.465H40.2753L38.2616 155.969H25.6758V155.465H38.765L41.0305 186.709H55.3783L55.8817 199.055H55.1266Z" fill="url(#paint17_radial)"/>
<path opacity="0.35" d="M73.248 110.361L69.9757 194.771L31.7148 196.787H75.7652L85.8338 110.361H73.248Z" fill="#56859C"/>
<defs>
<linearGradient id="paint0_linear" x1="54.2452" y1="107.842" x2="54.2452" y2="199.306" gradientUnits="userSpaceOnUse">
<stop stop-color="#679DB0"/>
<stop offset="1" stop-color="#79A4AB"/>
</linearGradient>
<radialGradient id="paint1_radial" cx="0" cy="0" r="1" gradientUnits="userSpaceOnUse" gradientTransform="translate(54.3577 105.146) scale(21.2104 21.2316)">
<stop stop-color="#303030"/>
<stop offset="1" stop-color="#512440"/>
</radialGradient>
<linearGradient id="paint2_linear" x1="18.606" y1="94.9763" x2="79.4474" y2="72.8538" gradientUnits="userSpaceOnUse">
<stop offset="0.0297297" stop-color="#FCF9DB"/>
<stop offset="0.4541" stop-color="#659AAF"/>
<stop offset="0.6522" stop-color="#669CB0"/>
<stop offset="0.7514" stop-color="#6BA4B1"/>
<stop offset="0.8286" stop-color="#74B1B5"/>
<stop offset="0.8945" stop-color="#80C4B9"/>
<stop offset="0.9526" stop-color="#8FDCBF"/>
<stop offset="1" stop-color="#A0F6C6"/>
</linearGradient>
<linearGradient id="paint3_linear" x1="54.116" y1="49.3857" x2="54.116" y2="53.4172" gradientUnits="userSpaceOnUse">
<stop stop-color="#679DB0"/>
<stop offset="1" stop-color="#79A4AB"/>
</linearGradient>
<linearGradient id="paint4_linear" x1="53.8662" y1="46.8662" x2="53.8662" y2="49.3859" gradientUnits="userSpaceOnUse">
<stop stop-color="#679DB0"/>
<stop offset="1" stop-color="#79A4AB"/>
</linearGradient>
<linearGradient id="paint5_linear" x1="54.4958" y1="31.748" x2="54.4958" y2="47.3701" gradientUnits="userSpaceOnUse">
<stop stop-color="#679DB0"/>
<stop offset="1" stop-color="#79A4AB"/>
</linearGradient>
<linearGradient id="paint6_linear" x1="54.4948" y1="0" x2="54.4948" y2="33.2598" gradientUnits="userSpaceOnUse">
<stop stop-color="#679DB0"/>
<stop offset="1" stop-color="#79A4AB"/>
</linearGradient>
<linearGradient id="paint7_linear" x1="54.3538" y1="15.4284" x2="54.3538" y2="9.94183" gradientUnits="userSpaceOnUse">
<stop stop-color="#EFEFA9"/>
<stop offset="1" stop-color="#7FE1A6"/>
</linearGradient>
<linearGradient id="paint8_linear" x1="59.4041" y1="30.2363" x2="59.4041" y2="47.3702" gradientUnits="userSpaceOnUse">
<stop stop-color="#679DB0"/>
<stop offset="1" stop-color="#79A4AB"/>
</linearGradient>
<linearGradient id="paint9_linear" x1="49.0837" y1="23.1816" x2="49.0837" y2="47.3706" gradientUnits="userSpaceOnUse">
<stop stop-color="#679DB0"/>
<stop offset="1" stop-color="#79A4AB"/>
</linearGradient>
<linearGradient id="paint10_linear" x1="48.9808" y1="38.1432" x2="48.9808" y2="32.8337" gradientUnits="userSpaceOnUse">
<stop stop-color="#EFEFA9"/>
<stop offset="1" stop-color="#7FE1A6"/>
</linearGradient>
<radialGradient id="paint11_radial" cx="0" cy="0" r="1" gradientUnits="userSpaceOnUse" gradientTransform="translate(55.5165 113.118) scale(9.32886 9.33821)">
<stop stop-color="#EFEFA9"/>
<stop offset="1" stop-color="#57CBA1"/>
</radialGradient>
<linearGradient id="paint12_linear" x1="55.1262" y1="204.599" x2="55.1262" y2="209.134" gradientUnits="userSpaceOnUse">
<stop stop-color="#679DB0"/>
<stop offset="1" stop-color="#79A4AB"/>
</linearGradient>
<linearGradient id="paint13_linear" x1="55.3753" y1="209.134" x2="55.3753" y2="210.898" gradientUnits="userSpaceOnUse">
<stop stop-color="#512440"/>
<stop offset="1" stop-color="#79A4AB"/>
</linearGradient>
<linearGradient id="paint14_linear" x1="93.2626" y1="204.599" x2="93.2626" y2="222.74" gradientUnits="userSpaceOnUse">
<stop stop-color="#512440"/>
<stop offset="1" stop-color="#79A4AB"/>
</linearGradient>
<radialGradient id="paint15_radial" cx="0" cy="0" r="1" gradientUnits="userSpaceOnUse" gradientTransform="translate(52.3822 159.21) scale(25.8442 25.8701)">
<stop stop-color="#EFEFA9"/>
<stop offset="1" stop-color="#57CBA1"/>
</radialGradient>
<radialGradient id="paint16_radial" cx="0" cy="0" r="1" gradientUnits="userSpaceOnUse" gradientTransform="translate(54.342 122.81) scale(22.3846 22.407)">
<stop stop-color="#EFEFA9"/>
<stop offset="1" stop-color="#57CBA1"/>
</radialGradient>
<radialGradient id="paint17_radial" cx="0" cy="0" r="1" gradientUnits="userSpaceOnUse" gradientTransform="translate(40.8125 177.242) scale(18.7181 18.7369)">
<stop stop-color="#EFEFA9"/>
<stop offset="1" stop-color="#57CBA1"/>
</radialGradient>
</defs>
</svg>
