<svg xmlns="http://www.w3.org/2000/svg" width="96" height="493" viewBox="0 0 96 493"><defs><style>.a{fill:#ffd263;opacity:0.46;}.b{fill:#453890;}.c{fill:#fafafa;}.d{fill:#ffd000;}.e{fill:#b1a2fe;}</style></defs><g transform="translate(-296 -195)"><rect class="a" width="96" height="493" rx="3" transform="translate(296 195)"/><g transform="translate(336 445)"><path class="b" d="M7.684,0a7.684,7.684,0,1,0,7.684,7.684A7.693,7.693,0,0,0,7.684,0Zm0,0"/><path class="c" d="M148.665,166.421l-4.162,4.162a.64.64,0,0,1-.905,0l-2.081-2.081a.64.64,0,0,1,.905-.905l1.628,1.628,3.71-3.71a.64.64,0,0,1,.905.905Zm0,0" transform="translate(-137.086 -160.366)"/></g><g transform="translate(336 242)"><path class="b" d="M7.684,0a7.684,7.684,0,1,0,7.684,7.684A7.693,7.693,0,0,0,7.684,0Zm0,0"/><path class="c" d="M148.665,166.421l-4.162,4.162a.64.64,0,0,1-.905,0l-2.081-2.081a.64.64,0,0,1,.905-.905l1.628,1.628,3.71-3.71a.64.64,0,0,1,.905.905Zm0,0" transform="translate(-137.086 -160.366)"/></g><g transform="translate(336 273)"><path class="b" d="M7.684,0a7.684,7.684,0,1,0,7.684,7.684A7.693,7.693,0,0,0,7.684,0Zm0,0"/><path class="c" d="M148.665,166.421l-4.162,4.162a.64.64,0,0,1-.905,0l-2.081-2.081a.64.64,0,0,1,.905-.905l1.628,1.628,3.71-3.71a.64.64,0,0,1,.905.905Zm0,0" transform="translate(-137.086 -160.366)"/></g><g transform="translate(336 484)"><path class="b" d="M7.684,0a7.684,7.684,0,1,0,7.684,7.684A7.693,7.693,0,0,0,7.684,0Zm0,0"/><path class="c" d="M148.665,166.421l-4.162,4.162a.64.64,0,0,1-.905,0l-2.081-2.081a.64.64,0,0,1,.905-.905l1.628,1.628,3.71-3.71a.64.64,0,0,1,.905.905Zm0,0" transform="translate(-137.086 -160.366)"/></g><g transform="translate(336 548)"><path class="b" d="M7.684,0a7.684,7.684,0,1,0,7.684,7.684A7.693,7.693,0,0,0,7.684,0Zm0,0"/><path class="c" d="M148.665,166.421l-4.162,4.162a.64.64,0,0,1-.905,0l-2.081-2.081a.64.64,0,0,1,.905-.905l1.628,1.628,3.71-3.71a.64.64,0,0,1,.905.905Zm0,0" transform="translate(-137.086 -160.366)"/></g><rect class="d" width="85" height="2" rx="1" transform="translate(302 222)"/><rect class="e" width="6" height="1" rx="0.5" transform="translate(341 310)"/><rect class="e" width="6" height="1" rx="0.5" transform="translate(341 342)"/><rect class="e" width="6" height="1" rx="0.5" transform="translate(341 378)"/><rect class="e" width="6" height="1" rx="0.5" transform="translate(341 412)"/><rect class="e" width="6" height="1" rx="0.5" transform="translate(341 521)"/><rect class="e" width="6" height="1" rx="0.5" transform="translate(341 586)"/><rect class="e" width="6" height="1" rx="0.5" transform="translate(341 618)"/><rect class="e" width="6" height="1" rx="0.5" transform="translate(341 663)"/></g></svg>