<svg xmlns="http://www.w3.org/2000/svg" xmlns:xlink="http://www.w3.org/1999/xlink" width="262" height="197" viewBox="0 0 262 197"><defs><style>.a{fill:#fbdfa9;opacity:0.31;}.b{fill:#37474f;}.c{fill:#fff;}.d{fill:#455a64;}.e{fill:#453890;}.f{fill:#420082;}.g{opacity:0.1;}.h{fill:#f1d971;}.i{fill:#ffd000;}.j{fill:#ffa8a7;}.k{fill:#263238;}.l{fill:#b1a2fe;}.m{opacity:0.2;}.n{fill:#f28f8f;}.o{filter:url(#a);}</style><filter id="a" x="0" y="0" width="262" height="197" filterUnits="userSpaceOnUse"><feOffset input="SourceAlpha"/><feGaussianBlur stdDeviation="6" result="b"/><feFlood flood-opacity="0.102"/><feComposite operator="in" in2="b"/><feComposite in="SourceGraphic"/></filter></defs><g transform="translate(-729 -655)"><g class="o" transform="matrix(1, 0, 0, 1, 729, 655)"><rect class="a" width="226" height="161" rx="12" transform="translate(18 18)"/></g><g transform="translate(778.603 685.935)"><g transform="translate(140.808 95.953)"><path class="b" d="M435.089,319.393l-1.664-.951a28.66,28.66,0,0,1-.2-8.18c.839-5.316,4.459-7.15,5.774-6.622s1.624,2.1-.751,5.175A17.736,17.736,0,0,0,435.089,319.393Z" transform="translate(-433.002 -303.553)"/><g transform="translate(1.228 0.762)"><path class="c" d="M436.675,318.641h.017a.119.119,0,0,0,.1-.134c-.688-4.977,1.314-10.431,3.563-12.628a.119.119,0,0,0-.166-.17c-2.29,2.238-4.33,7.78-3.631,12.83A.118.118,0,0,0,436.675,318.641Z" transform="translate(-436.419 -305.675)"/></g><g transform="translate(0.849 4.565)"><path class="d" d="M441.221,330.2c.263.151.8-.179,1.013-.318a2.51,2.51,0,0,0,.835-.958,2.349,2.349,0,0,0,.209-1.412,5.577,5.577,0,0,0-.179-.751l-.21-.729a1.848,1.848,0,0,1-.107-.735,1.914,1.914,0,0,1,.909-1.149,1.83,1.83,0,0,0,.906-1.373,2.114,2.114,0,0,0-.529-1.257c-.287-.364-.628-.685-.887-1.068a1.477,1.477,0,0,1-.3-.933,1.541,1.541,0,0,1,.2-.583,8.263,8.263,0,0,0,.638-1.169,1.176,1.176,0,0,0-.2-1.242,1.374,1.374,0,0,0-1.033-.257,2.369,2.369,0,0,0-.961.338c-.953.53-1.5,1.659-2.508,2.066a10.157,10.157,0,0,1-1.224.3,1.51,1.51,0,0,0-1.01.691c-.371.741.318,1.655.057,2.442-.231.7-.908.963-1.288,1.591a1.489,1.489,0,0,0-.178.912,4.38,4.38,0,0,0,.384,1.541,10.994,10.994,0,0,0,.846,1.388C436.619,327.55,441.181,330.179,441.221,330.2Z" transform="translate(-435.366 -316.26)"/><g transform="translate(3.023 0.751)"><path class="c" d="M443.91,330.1h0a.119.119,0,0,0,.115-.124c-.2-4.711,2.024-9.912,3.638-11.423a.119.119,0,0,0-.162-.174c-1.646,1.541-3.911,6.829-3.713,11.606A.119.119,0,0,0,443.91,330.1Z" transform="translate(-443.779 -318.35)"/></g><g transform="translate(3.741 6.143)"><path class="c" d="M445.9,334.15a.106.106,0,0,0,.035-.005,15.933,15.933,0,0,1,3.419-.551.119.119,0,0,0,.114-.124.115.115,0,0,0-.124-.114,16.232,16.232,0,0,0-3.479.562.119.119,0,0,0,.035.232Z" transform="translate(-445.777 -333.357)"/></g></g></g><g transform="translate(0 47.225)"><g transform="translate(18.441 9.619)"><path class="e" d="M115.19,203.254l-7.97,4.6,94.311,59.052,15.94-9.2Z" transform="translate(-101.907 -200.183)"/><path class="e" d="M93.761,195.474l-1.328,9.97,18.6-10.737Z" transform="translate(-92.432 -194.707)"/></g><g transform="translate(0 47.967)"><path class="e" d="M181.787,329.889l-11.955,6.9-12.62-7.286c-12.914-7.455-29.187-12.546-47.057-14.722a162.371,162.371,0,0,0-39.853.136l-2.191-5.427,8.154-1.262a165.741,165.741,0,0,1,44.735-.7c18.292,2.227,34.948,7.438,48.166,15.07Z" transform="translate(-58.409 -304.583)"/><path class="e" d="M48.54,301.438l7.3,15.738-14.736-6.133Z" transform="translate(-41.108 -301.438)"/></g><g transform="translate(83.857)"><path class="e" d="M338.521,237.694l-11.954,6.9-12.62-7.286c-13.219-7.632-22.244-17.248-26.1-27.808a33.15,33.15,0,0,1,1.209-25.828l2.184-4.707,10.342-.959a32.389,32.389,0,0,0-1.18,25.232c3.769,10.318,12.586,19.713,25.5,27.169Z" transform="translate(-281.732 -174.389)"/><path class="e" d="M274.5,172.227l27.259,4.217-10.623-8.508Z" transform="translate(-274.498 -167.936)"/></g><path class="f" d="M340.127,354.6l13.283,7.669,29.223-16.872-13.283-7.669Z" transform="translate(-232.689 -276.719)"/></g><g transform="translate(55.315 78.443)"><ellipse class="g" cx="14.001" cy="8.084" rx="14.001" ry="8.084" transform="translate(54.431 30.378)"/><path class="g" d="M201.482,255.457c1.469.848,1.469,2.223,0,3.072a5.881,5.881,0,0,1-5.32,0c-1.469-.848-1.469-2.223,0-3.072A5.879,5.879,0,0,1,201.482,255.457Z" transform="translate(-195.06 -254.821)"/></g><g transform="translate(42.753 0)"><path class="h" d="M198.214,165.069h0l-3.348-1.93h0c-.8-.463-1.935-.358-3.4.489a10,10,0,0,0-4.848,8.662c0,1.753.462,3.047,1.373,3.6l3.345,1.941h0c.806.484,1.962.388,3.462-.478a10.018,10.018,0,0,0,4.792-8.7C199.588,166.886,199.126,165.6,198.214,165.069Z" transform="translate(-177.088 -117.463)"/><path class="h" d="M189.064,39.262l-3.407-1.96c-2.408-1.379-5.912-1.048-10.338,1.508C167.314,43.433,161.79,52.26,160.1,61.58l3.333,1.924,8.907-1.985c1.015-3.893,2.537-6.651,6.032-8.669a8.236,8.236,0,0,1,1.418-.664,6.882,6.882,0,0,1,.1,1.2c0,3.007-2.029,6.433-10.147,14.5V80.669l3.333,1.924,9.527-5.5V70.026c4.736-5.064,10.148-12.624,10.148-21.869C192.746,43.807,191.465,40.674,189.064,39.262Z" transform="translate(-160.098 -36.5)"/><path class="i" d="M179.013,73.24c8.118-8.069,10.147-11.5,10.147-14.5,0-2.631-1.184-4.578-4.848-2.463-3.5,2.018-5.017,4.776-6.032,8.669l-8.907,1.985c1.692-9.32,7.216-18.147,15.222-22.769,8.907-5.142,14.094-1.3,14.094,7.422,0,9.246-5.412,16.805-10.148,21.869v7.066l-9.527,5.5Z" transform="translate(-166.04 -39.925)"/><path class="i" d="M195.891,177.643a10,10,0,0,1,4.848-8.662c3.158-1.823,4.792-.211,4.792,3.1a10.017,10.017,0,0,1-4.792,8.7C197.525,182.637,195.891,180.95,195.891,177.643Z" transform="translate(-183.031 -120.892)"/><path class="h" d="M200.412,82.87c0,3.007-2.03,6.431-10.147,14.5l-3.331-1.924c8.117-8.072,10.143-11.5,10.143-14.5a7.024,7.024,0,0,0-.094-1.2C199.543,78.862,200.412,80.614,200.412,82.87Z" transform="translate(-177.292 -64.057)"/></g><g transform="translate(102.444 48.068)"><g transform="translate(26.781 12.734)"><path class="j" d="M400.765,205.784c1.411-.333,2.962.67,3.871,2.885s2.724,7.865,3.1,9.346c.169.663-4.863,6.531-4.683,6.443.055-.027-1.639-2.862-1.639-2.862l2.442-3.758-1.53-4.081Z" transform="translate(-400.765 -205.722)"/></g><g transform="translate(14.333 27.878)"><g transform="translate(10.205 34.03)"><path class="k" d="M400.018,345.979c.191.072.239.437.268,1.161.022.548.139,1.5-.5,1.7a2.007,2.007,0,0,1-1.993-.423c-.513-.645-.861-1.212-1.593-2a5.556,5.556,0,0,1-1.579-2.276c-.232-.864-.039-1.24.551-1.491.811-.346,2.085.784,2.721.962C398.437,343.761,399.826,345.907,400.018,345.979Z" transform="translate(-394.522 -342.581)"/></g><g transform="translate(13.22 35.907)"><path class="j" d="M405.394,348.656v.889a2.177,2.177,0,0,1-2.247.061c-.039-.086-.234-1.8-.234-1.8Z" transform="translate(-402.914 -347.805)"/></g><g transform="translate(0 42.153)"><path class="k" d="M375.2,365.188a14.994,14.994,0,0,1,.392,1.449,3.918,3.918,0,0,1,.078,1.84c-.188.4-.922.665-2.061.657a6.679,6.679,0,0,0-2.673.934,4.09,4.09,0,0,1-2.553.354,3.2,3.2,0,0,1-2.226-1.125c-.163-.419.047-.621,2.434-1.638a13.7,13.7,0,0,0,3.672-2.411Z" transform="translate(-366.119 -365.188)"/></g><g transform="translate(6.146 41.191)"><path class="j" d="M386.164,362.513s0,.66,0,1.037-.442.939-1.595.9c-.81-.029-1.375-.246-1.343-.913v-.961Z" transform="translate(-383.225 -362.513)"/></g><g transform="translate(3.185)"><path class="b" d="M388.375,272.3a21.051,21.051,0,0,0-1.085-4.573s.5-3.933.793-7.713c.521-6.771.1-8.985-1.229-12.023,0,0-11.364-1.152-11.711,3.571a188.625,188.625,0,0,0,.3,19.325,71.766,71.766,0,0,0,1.084,7.356c.559,3.3,1.423,10.876,1.423,10.876a3.118,3.118,0,0,0,2.937-.06s.929-9.457.831-11.854a20.479,20.479,0,0,0-.909-5.233s.7-9.585.91-11.11c0,0,.355,3.04.511,5.118s.773,4.062,1.374,7.921c.521,3.348,1.49,10.83,1.49,10.83a2.111,2.111,0,0,0,2.471-.089S388.782,275.207,388.375,272.3Z" transform="translate(-374.984 -247.87)"/></g></g><g transform="translate(20.961 10.436)"><path class="j" d="M384.565,200.158l.534,4.391,3.861-.349-.441-4.874Z" transform="translate(-384.565 -199.326)"/></g><g transform="translate(17.373 12.794)"><path class="l" d="M386.8,208.092a3.319,3.319,0,0,0-3.352-2.166c-.387.072-.727.128-1.091.2-.033,1.011-1.94,1.535-3.84.922q-.857.245-1.569.5c-1.359.485-1.9,2.743-1.935,6.519s-.432,13.195-.432,13.195l1.589.5.742-2.755.3,3.3a11.81,11.81,0,0,0,5.487-.027c4.083-.892,5.354-3.1,5.354-3.1a19.9,19.9,0,0,0-2.912-7.138C387.187,212.6,387.429,209.805,386.8,208.092Z" transform="translate(-374.581 -205.888)"/></g><path class="m" d="M375.586,229.019l2.4-2.733-2.462,4.916Z" transform="translate(-357.813 -206.163)"/><path class="j" d="M346.722,209.765s-2.357.185-3.37,1.716-4.968,7.193-4.968,7.193-6.3-3.151-6.607-3.525-.135-1.129-.05-1.545.226-1.339.319-1.6c.162-.453-.508-.331-.9.093s-.57,1.251-.767,1.393-1.7-1.581-2.422-2.413-1.068-1.413-1.556-1.07c-.351.248-.125.741.4,1.454a9.109,9.109,0,0,1,.673.944c.063.128-.13.23-.206.3-.141.126-.392.333-.409.53a1.721,1.721,0,0,1-.02.323c-.068.237-.361.348-.444.581-.06.168.006.356-.028.531-.022.113-.084.215-.1.328a.785.785,0,0,0,.233.612,5.882,5.882,0,0,0,1.878,1.211c.557.308,1.131.443,1.772.728s8.211,6.089,9.387,5.44,7.084-7.527,7.084-7.527A5.069,5.069,0,0,0,346.722,209.765Z" transform="translate(-326.228 -195.578)"/><g transform="translate(17.244)"><g transform="translate(0.737 0.444)"><path class="k" d="M377.082,176.926a3.005,3.005,0,0,1-.408-3.429c1.3-2.035,3.795-2.382,6.756-1.588a5.253,5.253,0,0,1,3.7,4.768c.142,2.171-5.914,3.773-5.775,5.26Z" transform="translate(-376.272 -171.516)"/></g><g transform="translate(0 6.514)"><path class="n" d="M374.939,188.411s-.821,1.318-.706,1.452a2.053,2.053,0,0,0,.664.265Z" transform="translate(-374.222 -188.411)"/></g><g transform="translate(0.63 1.951)"><path class="j" d="M378.568,176.1c-.821.453-2.238,1.286-2.526,4.363-.295,3.158.435,4.233.876,4.634a4.059,4.059,0,0,0,2.568.069,8.114,8.114,0,0,0,4-3.082c1.114-1.943,1.286-4.5-.086-5.46A5.029,5.029,0,0,0,378.568,176.1Z" transform="translate(-375.974 -175.711)"/></g><g transform="translate(2.759 1.248)"><path class="k" d="M382.123,174.986s-.648,2.891.27,4.683c0,0,.479-1.135,1.451-.839s.924,1.593.179,2.274a1.444,1.444,0,0,1-1.5.36,6.485,6.485,0,0,0,1.444,2.181,4.739,4.739,0,0,0,5.37-1.53c2.261-2.552,1.841-7-1.622-8.053A5.9,5.9,0,0,0,382.123,174.986Z" transform="translate(-381.901 -173.755)"/></g><path class="k" d="M383.647,189.234V193.2l4.645-.635a4.125,4.125,0,0,0,3.566-4.087v-2.592l-3.686,2.36-1.743,1.543-1.764-.144Z" transform="translate(-380.261 -180.276)"/><path class="k" d="M374.963,171.529a3.734,3.734,0,0,0,2.514,5.914l2.245-6.713A4.1,4.1,0,0,0,374.963,171.529Z" transform="translate(-374.226 -170.281)"/><path class="k" d="M381.413,190.56a.733.733,0,1,1,.461-1.391Z" transform="translate(-378.507 -182.359)"/></g><path class="k" d="M393.721,277.6l.215-2.3a8.676,8.676,0,0,0,3.467-1.312,4.707,4.707,0,0,1-2.764,1.722l-.211,2.922-.125,4.789Z" transform="translate(-369.471 -236.728)"/></g></g></g></svg>