<svg xmlns="http://www.w3.org/2000/svg" width="96" height="493" viewBox="0 0 96 493"><defs><style>.a{fill:#ffd263;opacity:0.46;}.b{fill:#ffd000;}.c{fill:#b1a2fe;}.d{fill:#453890;}.e{fill:#fafafa;}</style></defs><g transform="translate(-296 -195)"><rect class="a" width="96" height="493" rx="3" transform="translate(296 195)"/><rect class="b" width="85" height="2" rx="1" transform="translate(302 222)"/><rect class="c" width="6" height="1" rx="0.5" transform="translate(341 310)"/><rect class="c" width="6" height="1" rx="0.5" transform="translate(341 281)"/><rect class="c" width="6" height="1" rx="0.5" transform="translate(341 342)"/><rect class="c" width="6" height="1" rx="0.5" transform="translate(341 410)"/><rect class="c" width="6" height="1" rx="0.5" transform="translate(341 376)"/><rect class="c" width="6" height="1" rx="0.5" transform="translate(341 620)"/><rect class="c" width="6" height="1" rx="0.5" transform="translate(341 587)"/><rect class="c" width="6" height="1" rx="0.5" transform="translate(341 555)"/><rect class="c" width="6" height="1" rx="0.5" transform="translate(341 663)"/><g transform="translate(336 443)"><path class="d" d="M7.684,0a7.684,7.684,0,1,0,7.684,7.684A7.693,7.693,0,0,0,7.684,0Zm0,0"/><path class="e" d="M148.665,166.421l-4.162,4.162a.64.64,0,0,1-.905,0l-2.081-2.081a.64.64,0,0,1,.905-.905l1.628,1.628,3.71-3.71a.64.64,0,0,1,.905.905Zm0,0" transform="translate(-137.086 -160.366)"/></g><g transform="translate(336 482)"><path class="d" d="M7.684,0a7.684,7.684,0,1,0,7.684,7.684A7.693,7.693,0,0,0,7.684,0Zm0,0"/><path class="e" d="M148.665,166.421l-4.162,4.162a.64.64,0,0,1-.905,0l-2.081-2.081a.64.64,0,0,1,.905-.905l1.628,1.628,3.71-3.71a.64.64,0,0,1,.905.905Zm0,0" transform="translate(-137.086 -160.366)"/></g><g transform="translate(336 514)"><path class="d" d="M7.684,0a7.684,7.684,0,1,0,7.684,7.684A7.693,7.693,0,0,0,7.684,0Zm0,0"/><path class="e" d="M148.665,166.421l-4.162,4.162a.64.64,0,0,1-.905,0l-2.081-2.081a.64.64,0,0,1,.905-.905l1.628,1.628,3.71-3.71a.64.64,0,0,1,.905.905Zm0,0" transform="translate(-137.086 -160.366)"/></g><g transform="translate(336 242)"><path class="d" d="M7.684,0a7.684,7.684,0,1,0,7.684,7.684A7.693,7.693,0,0,0,7.684,0Zm0,0"/><path class="e" d="M148.665,166.421l-4.162,4.162a.64.64,0,0,1-.905,0l-2.081-2.081a.64.64,0,0,1,.905-.905l1.628,1.628,3.71-3.71a.64.64,0,0,1,.905.905Zm0,0" transform="translate(-137.086 -160.366)"/></g></g></svg>