<svg width="147" height="37" viewBox="0 0 147 37" fill="none" xmlns="http://www.w3.org/2000/svg">
<path d="M51.0381 15.2396C50.2064 15.2396 49.3747 15.3124 48.543 15.4824C47.8825 15.5796 47.2221 15.7982 46.6105 16.1139L46.8551 18.4939C47.4911 18.2996 48.1272 18.1539 48.7876 18.0568C49.3502 17.9596 49.9373 17.9353 50.4999 17.9353C52.7015 17.9353 53.7778 18.7611 53.7778 20.4368V20.9954C53.0684 20.874 52.3346 20.8254 51.6252 20.8497C49.7172 20.8497 48.2005 21.2626 47.0753 22.1126C45.9745 22.9383 45.363 24.2498 45.4119 25.6098C45.4119 28.6698 47.5156 30.1999 51.723 30.1999C53.5332 30.1756 55.3189 29.9327 57.0557 29.4227V20.6554C57.1046 17.061 55.0743 15.2396 51.0381 15.2396ZM53.8267 27.4798C53.1418 27.6498 52.4324 27.747 51.723 27.7227C49.7416 27.7227 48.7387 27.0184 48.7387 25.5855C48.7387 24.0798 49.8395 23.3512 52.0166 23.3512C52.6281 23.3269 53.2152 23.3755 53.8023 23.4969V27.4798H53.8267ZM58.5967 15.6039H62.2415L65.7885 26.6055L69.3843 15.6039H72.8823L67.4519 29.8842H64.0517L58.5967 15.6039ZM79.2424 15.2396C78.4107 15.2396 77.579 15.3124 76.7473 15.4824C76.0868 15.5796 75.4264 15.7982 74.8148 16.1139L75.0594 18.5182C75.6954 18.3239 76.3314 18.1782 76.9919 18.0811C77.5545 17.9839 78.1416 17.9596 78.7042 17.9596C80.9058 17.9596 81.9821 18.7854 81.9821 20.4611V21.0197C81.2727 20.8983 80.5388 20.8497 79.8295 20.874C77.9215 20.874 76.4048 21.2868 75.2796 22.1369C74.1788 22.9626 73.5673 24.274 73.6162 25.6341C73.6162 28.6941 75.7199 30.2242 79.9273 30.2242C81.7375 30.1999 83.5232 29.957 85.26 29.447V20.6797C85.2844 17.061 83.2786 15.2396 79.2424 15.2396ZM82.0065 27.4798C81.3216 27.6498 80.6122 27.747 79.9029 27.7227C77.9215 27.7227 76.9185 27.0184 76.9185 25.5855C76.9185 24.0798 78.0193 23.3512 80.1964 23.3512C80.8079 23.3269 81.395 23.3755 81.9821 23.4969V27.4798H82.0065ZM98.0045 21.4568C98.0045 20.1697 97.7599 19.2711 97.2706 18.7854C96.7814 18.2996 95.9008 18.0568 94.6288 18.0568C94.2618 18.0568 93.8949 18.1054 93.528 18.1539C93.1121 18.2268 92.7208 18.2996 92.3294 18.3968V29.8599H89.0026V16.3082C89.9566 15.9439 90.9351 15.6767 91.9135 15.5067C92.9654 15.3124 94.0172 15.2153 95.0935 15.2153C99.2765 15.2153 101.356 17.0853 101.356 20.8254V29.8356H98.0289V21.4568H98.0045ZM109.55 15.2396C108.719 15.2396 107.887 15.3124 107.055 15.4824C106.395 15.5796 105.734 15.7982 105.123 16.1139L105.367 18.5182C106.003 18.3239 106.639 18.1782 107.3 18.0811C107.863 17.9839 108.45 17.9596 109.012 17.9596C111.214 17.9596 112.29 18.7854 112.29 20.4611V21.0197C111.581 20.8983 110.847 20.8497 110.137 20.874C108.229 20.874 106.713 21.2868 105.588 22.1369C104.487 22.9626 103.875 24.274 103.924 25.6341C103.924 28.6941 106.028 30.2242 110.235 30.2242C112.045 30.1999 113.831 29.957 115.568 29.447V20.6797C115.617 17.061 113.587 15.2396 109.55 15.2396ZM112.315 27.4798C111.63 27.6498 110.92 27.747 110.211 27.7227C108.229 27.7227 107.227 27.0184 107.227 25.5855C107.227 24.0798 108.327 23.3512 110.504 23.3512C111.116 23.3269 111.703 23.3755 112.29 23.4969V27.4798H112.315ZM128.019 10.0909V15.5553C127.236 15.3367 126.429 15.2396 125.597 15.2639C123.396 15.2639 121.634 15.9682 120.265 17.3768C118.895 18.7854 118.21 20.6311 118.21 22.914C118.21 25.2941 118.87 27.1155 120.216 28.3784C121.561 29.6413 123.494 30.2727 126.062 30.2727C127.848 30.2484 129.633 29.9813 131.346 29.4956V10.1152H128.019V10.0909ZM128.019 27.2612C127.358 27.4312 126.649 27.5041 125.964 27.4555C123.127 27.4555 121.708 25.9012 121.708 22.8169C121.708 21.2626 122.075 20.0482 122.809 19.1982C123.542 18.3482 124.57 17.9111 125.915 17.9353C126.625 17.9111 127.358 18.0325 128.019 18.2996V27.2612ZM146.879 21.9669C146.879 19.9025 146.341 18.2511 145.24 17.0368C144.139 15.8224 142.647 15.2153 140.763 15.2153C138.709 15.2153 137.07 15.8953 135.871 17.2553C134.648 18.6154 134.036 20.4611 134.036 22.7926C134.036 25.1241 134.697 26.9455 135.993 28.257C137.29 29.5441 139.149 30.1999 141.546 30.1999C143.087 30.1999 144.604 29.9327 146.023 29.3984L145.656 26.897C144.408 27.3098 143.112 27.5284 141.815 27.5041C139.002 27.5041 137.559 26.2412 137.486 23.7397H146.879V21.9669V21.9669ZM137.486 21.2626C137.535 20.3154 137.877 19.4411 138.489 18.7125C139.051 18.1054 139.834 17.7653 140.666 17.7896C141.497 17.7653 142.28 18.1054 142.818 18.7125C143.356 19.3197 143.65 20.1697 143.65 21.2626H137.486Z" fill="white"/>
<path d="M9.71742 9.23323C8.58577 11.4433 7.65093 13.2114 6.9375 14.5374C6.34707 15.6425 5.70745 16.723 4.99402 17.7543C4.45279 18.5156 3.83777 19.2032 3.09973 19.768C2.2879 20.3819 1.45146 20.9712 0.565825 21.4869L0 20.6029C0.639628 20.1363 1.23005 19.6697 1.74668 19.2032C2.3617 18.6138 2.92753 17.9753 3.39495 17.2632C4.13298 16.2073 4.82181 15.0777 5.46144 13.9481C6.24867 12.5729 7.20811 10.7066 8.33976 8.3492C9.02859 6.90037 9.79122 5.50065 10.6769 4.1746C11.2919 3.24146 12.0053 2.38197 12.8172 1.62072C13.4076 1.08048 14.0718 0.63847 14.8098 0.343793C15.4249 0.0982281 16.0891 0 16.7533 0C17.393 0.0245565 18.0326 0.196454 18.623 0.466575C19.4102 0.884035 20.0991 1.47339 20.6403 2.16097C21.5751 3.29057 22.387 4.49384 23.1004 5.77077C24.0106 7.34239 25.0685 9.40513 26.3231 11.9836C26.9874 13.4078 27.75 14.783 28.5864 16.109C29.2015 17.1159 29.9395 18.0244 30.7759 18.8594C31.4894 19.5715 32.3258 20.1609 33.236 20.6029C34.2201 21.094 35.2287 21.4869 36.2866 21.7816L37 22.9848C35.7453 22.8621 34.4907 22.5919 33.3098 22.1745C32.2028 21.7816 31.1695 21.1677 30.2839 20.4064C29.2507 19.4978 28.3404 18.4665 27.5778 17.3369C26.5691 15.8389 25.6589 14.2428 24.8717 12.622C23.7154 10.3383 22.756 8.44742 21.9687 7.02315C21.3537 5.86899 20.6403 4.7394 19.8531 3.68347C19.4102 3.04501 18.8444 2.50476 18.2048 2.06275C17.762 1.79262 17.2453 1.64528 16.7287 1.62072C16.1875 1.59617 15.6709 1.71895 15.1789 1.93996C14.5638 2.23464 14.0472 2.67666 13.6044 3.19234C12.9402 3.92904 12.3497 4.71484 11.8331 5.54976C11.1443 6.53202 10.4555 7.75984 9.71742 9.23323Z" fill="white"/>
<path d="M26.4004 23.6536C28.0659 23.7009 29.7069 23.63 31.3724 23.4173C32.8419 23.2283 34.3115 22.8976 35.7075 22.4486L35.879 23.3228C33.6257 24.7168 30.4416 25.3311 26.3514 25.213C24.7349 25.1894 23.1429 24.9767 21.5754 24.5987C20.3507 24.2915 19.1506 23.8663 17.9994 23.3465C17.2157 22.9921 16.4564 22.6377 15.7706 22.2596C15.0604 21.8816 14.3501 21.5508 13.5908 21.22C12.856 20.9129 12.1213 20.653 11.362 20.4167C10.5782 20.2041 9.74548 20.0623 8.91273 20.0387C7.61463 19.9914 6.29204 20.0859 5.01843 20.3222C3.69583 20.5585 2.39773 20.8893 1.12412 21.3618L0.560791 20.7239L1.61397 20.2277C2.71613 19.637 3.89177 19.1881 5.1164 18.9046C6.36551 18.5974 7.66362 18.4793 8.96172 18.5029C9.89243 18.5266 10.7987 18.6447 11.7049 18.881C12.5131 19.0936 13.3214 19.3771 14.0806 19.7079C14.8154 20.0387 15.5747 20.3931 16.3095 20.7947C17.0442 21.1964 17.828 21.5508 18.6363 21.9052C19.7139 22.3778 20.8161 22.7558 21.9672 23.0629C23.4123 23.441 24.9063 23.6536 26.4004 23.6536Z" fill="white"/>
<path d="M29.0689 11.6983C28.4781 11.674 27.8874 11.8193 27.3705 12.1099C26.6567 12.5458 26.0167 13.1027 25.4999 13.7323C24.6138 14.7735 23.7769 15.8632 23.0139 17.0013C22.0785 18.3815 20.8971 20.1976 19.4941 22.4012C17.5988 25.4038 15.8266 27.5831 14.2021 28.9149C12.5776 30.2467 10.8793 30.9005 9.08248 30.8279C7.18722 30.7552 5.41503 29.8351 3.76591 28.0432C2.09217 26.2513 0.836868 23.7572 0 20.5851L1.57528 20.8756C2.43676 23.394 3.54438 25.4038 4.89814 26.9051C6.22728 28.4064 7.65488 29.1813 9.15632 29.2297C10.5593 29.2781 11.9623 28.697 13.3653 27.5105C14.7929 26.324 16.3682 24.3626 18.0665 21.6505C19.6172 19.229 20.9217 17.2434 21.9555 15.7179C22.7923 14.483 23.7031 13.2964 24.7122 12.1826C25.3276 11.4803 26.066 10.8992 26.9028 10.4875C27.592 10.1969 28.3551 10.0517 29.0935 10.1001C30.8903 10.1727 32.4656 11.214 33.8685 13.248C35.2469 15.282 36.4776 18.4057 37.5606 22.5949L35.8376 21.8927C34.7546 18.43 33.6716 15.8632 32.5886 14.1924C31.5056 12.5942 30.3242 11.7467 29.0689 11.6983Z" fill="white"/>
<path d="M22.9847 35.4118C23.8711 35.4118 24.7575 35.1194 25.4469 34.5833C26.2594 33.9985 27.2934 32.8776 28.5491 31.2693C29.534 30.0265 30.3219 28.9787 30.9374 28.1746C31.5529 27.3704 32.1438 26.6394 32.7101 26.0059C33.2518 25.3723 33.8427 24.7875 34.409 24.2026C34.9999 23.6422 35.7139 22.9355 36.5756 22.107L37.5605 22.6431C36.7726 23.5447 36.1078 24.3001 35.5662 24.9093C35.0245 25.5429 34.5075 26.1764 33.9904 26.8344C33.4734 27.4923 32.9071 28.2233 32.2669 29.0518C31.6268 29.8803 30.8389 30.9281 29.854 32.1953C28.5245 33.9497 27.3427 35.2169 26.3086 35.9479C25.3237 36.6789 24.1419 37.0444 22.9109 36.9957C22.2953 36.9713 21.6798 36.8739 21.1135 36.6546C20.4241 36.3621 19.8086 35.9723 19.2423 35.5093C18.3559 34.7782 17.5188 33.9741 16.7309 33.0969C15.7707 32.0491 14.5643 30.7088 13.087 29.0518C11.979 27.7847 10.9696 26.7369 10.0586 25.884C9.24609 25.1043 8.33511 24.3976 7.37488 23.8128C6.48852 23.301 5.55291 22.8868 4.56806 22.57C3.43549 22.2532 2.27829 22.0339 1.12109 21.9121L1.51503 20.7424C2.72147 20.8399 3.92791 21.0105 5.13435 21.2542C6.19306 21.4735 7.20253 21.8634 8.13814 22.3994C9.17223 22.9843 10.1325 23.6909 10.9942 24.4951C12.1268 25.5429 13.2101 26.6638 14.2196 27.8578C15.6969 29.5148 16.8787 30.855 17.8143 31.8297C18.7499 32.8044 19.5131 33.5842 20.1287 34.0959C20.5965 34.5346 21.1135 34.8757 21.6798 35.1438C22.0737 35.29 22.5169 35.3874 22.9847 35.4118Z" fill="white"/>
</svg>
