<svg width="194" height="35" viewBox="0 0 194 35" fill="none" xmlns="http://www.w3.org/2000/svg">
<path fill-rule="evenodd" clip-rule="evenodd" d="M59.083 19.0088V18.6777C59.7419 18.6777 59.8243 18.5149 59.8243 18.2675V9.54453L59.7419 9.46205L55.4634 18.6777L51.3489 9.37955H51.2664V18.2675C51.2664 18.5149 51.3489 18.6777 51.9252 18.6777V19.0088H47.7281V18.6777C48.3045 18.6777 48.387 18.5149 48.387 18.2675V7.24144C48.387 6.99397 48.3045 6.82899 47.7281 6.7476V6.50014H53.9819V6.7476C53.5706 6.83009 53.4067 6.91148 53.4067 7.24144C53.4067 7.40531 55.382 11.6848 55.6284 12.3426C56.6986 9.95698 58.014 7.4878 58.014 7.24144C58.014 6.91148 57.7676 6.82899 57.4388 6.7476V6.50014H63.8575V6.7476C63.2812 6.83009 63.1987 6.99507 63.1987 7.24144V18.2686C63.1987 18.516 63.2812 18.6788 63.8575 18.6788V19.0099H59.083V19.0088V19.0088ZM70.439 16.4571C69.8638 18.1036 69.6988 18.35 69.6988 18.516C69.6988 18.5974 69.7813 18.7635 70.1113 18.7635V19.011H66.1606V18.7635C66.4895 18.6799 66.5719 18.5985 66.7369 18.1861C66.9019 17.6944 70.6865 7.90025 70.6865 7.73638C70.6865 7.5714 70.439 7.5714 70.2752 7.5714V7.24254H76.1176V7.5714C75.8712 7.5714 75.7062 7.57139 75.7062 7.81886C75.7062 7.98274 78.4218 14.649 79.8208 18.0233C79.9858 18.5985 80.1496 18.7646 80.396 18.7646V19.0121H76.0351V18.7646C76.3639 18.681 76.4464 18.5996 76.4464 18.4335C76.4464 18.3522 75.7876 16.7057 75.7062 16.4593H70.439V16.4571V16.4571ZM70.934 14.6468H75.1299L72.9907 9.37955L70.934 14.6468ZM83.359 7.89915C83.359 7.73527 83.2765 7.5703 82.7002 7.5703V7.24144H88.0488V7.5703C87.5549 7.5703 87.4725 7.73527 87.4725 7.81776C87.4725 8.06523 91.3407 12.1787 92.8211 13.9077V7.90025C92.8211 7.65388 92.6572 7.5714 92.4097 7.5714V7.24254H96.4418V7.5714C95.9479 7.5714 95.8665 7.73637 95.8665 7.90025V18.3511C95.8665 18.516 95.9479 18.6799 96.4418 18.7635V19.011H92.2458V18.7635C92.6572 18.7635 92.7397 18.5985 92.7397 18.516C92.7397 18.185 92.1633 17.9386 86.3209 11.356V18.35C86.3209 18.5149 86.4034 18.6788 86.8972 18.7624V19.0099H82.7002V18.7624C83.2765 18.6788 83.359 18.5149 83.359 18.35V7.89915V7.89915ZM112.737 18.35C112.737 18.5149 112.737 18.6788 113.312 18.7624V19.0099H108.705V18.7624C109.28 18.6788 109.363 18.5149 109.363 18.35V14.2354H103.52V18.35C103.52 18.5149 103.602 18.6788 104.18 18.7624V19.0099H99.5709V18.7624C100.148 18.6788 100.231 18.5149 100.231 18.35V7.89915C100.231 7.73527 100.149 7.5703 99.5709 7.5703V7.24144H104.18V7.5703C103.603 7.5703 103.52 7.73527 103.52 7.89915V11.5199H109.363V7.89915C109.363 7.73527 109.281 7.5703 108.705 7.5703V7.24144H113.312V7.5703C112.737 7.5703 112.737 7.73527 112.737 7.89915V18.35ZM119.895 16.4571C119.237 18.1036 119.156 18.35 119.156 18.516C119.156 18.5974 119.237 18.7635 119.566 18.7635V19.011H115.616V18.7635C115.947 18.6799 116.028 18.5985 116.191 18.1861C116.356 17.6944 120.141 7.90025 120.141 7.73638C120.141 7.5714 119.894 7.5714 119.731 7.5714V7.24254H125.49V7.5714C125.243 7.5714 125.08 7.57139 125.08 7.81886C125.08 7.98274 127.877 14.649 129.275 18.0233C129.44 18.5985 129.606 18.7646 129.85 18.7646V19.0121H125.489V18.7646C125.736 18.681 125.901 18.5996 125.901 18.4335C125.901 18.3522 125.241 16.7057 125.16 16.4593H119.895V16.4571V16.4571ZM120.389 14.6468H124.586L122.364 9.37955L120.389 14.6468ZM133.968 19.0088V18.7613C134.462 18.6777 134.543 18.5138 134.543 18.3489V9.95588H130.758C130.511 9.95588 130.429 10.1198 130.346 10.6147H130.098V6.66401H130.346C130.429 7.15785 130.511 7.24034 130.758 7.24034H141.703C141.95 7.24034 142.113 7.15785 142.113 6.66401H142.442V10.6147H142.113C142.113 10.1209 141.95 9.95588 141.703 9.95588H137.917V18.3489C137.917 18.5138 137.999 18.6777 138.492 18.7613V19.0088H133.968ZM147.543 19.0088V18.7613C148.121 18.6777 148.203 18.5138 148.203 18.3489V9.95588H144.334C144.089 9.95588 144.005 10.1198 143.924 10.6147H143.676V6.66401H143.924C144.005 7.15785 144.089 7.24034 144.334 7.24034H155.362C155.609 7.24034 155.691 7.15785 155.772 6.66401H156.02V10.6147H155.772C155.691 10.1209 155.609 9.95588 155.362 9.95588H151.493V18.3489C151.493 18.5138 151.574 18.6777 152.153 18.7613V19.0088H147.543V19.0088ZM161.369 16.4571C160.794 18.1036 160.712 18.35 160.712 18.516C160.712 18.5974 160.793 18.7635 161.041 18.7635V19.011H157.171V18.7635C157.419 18.6799 157.584 18.5985 157.747 18.1861C157.911 17.6944 161.697 7.90025 161.697 7.73638C161.697 7.5714 161.45 7.5714 161.203 7.5714V7.24254H167.046V7.5714C166.798 7.5714 166.636 7.57139 166.636 7.81886C166.636 7.98274 169.351 14.649 170.749 18.0233C170.996 18.5985 171.161 18.7646 171.407 18.7646V19.0121H167.046V18.7646C167.293 18.681 167.458 18.5996 167.458 18.4335C167.458 18.3522 166.717 16.7057 166.717 16.4593H161.369V16.4571V16.4571ZM161.945 14.6468H166.058L163.921 9.37955L161.945 14.6468ZM174.288 7.89915C174.288 7.73527 174.207 7.5703 173.713 7.5703V7.24144H179.062V7.5703C178.568 7.5703 178.402 7.73527 178.402 7.81776C178.402 8.06523 182.271 12.1787 183.834 13.9077V7.90025C183.834 7.65388 183.669 7.5714 183.34 7.5714V7.24254H187.454V7.5714C186.878 7.5714 186.796 7.73637 186.796 7.90025V18.3511C186.796 18.516 186.877 18.6799 187.454 18.7635V19.011H183.174V18.7635C183.586 18.7635 183.751 18.5985 183.751 18.516C183.751 18.185 183.174 17.9386 177.249 11.356V18.35C177.249 18.5149 177.333 18.6788 177.909 18.7624V19.0099H173.712V18.7624C174.206 18.6788 174.287 18.5149 174.287 18.35V7.89915H174.288V7.89915ZM51.4303 31.1061C50.855 32.9153 50.6901 33.1617 50.6901 33.3278C50.6901 33.4938 50.7725 33.5752 51.1025 33.5752V33.8227H46.9044V33.5752C47.2332 33.4938 47.3982 33.4103 47.4807 33C47.727 32.5062 51.7602 22.0554 51.7602 21.8893C51.7602 21.7265 51.5127 21.6418 51.2664 21.6418V21.313H57.4377V21.6418C57.1902 21.6418 57.0263 21.7254 57.0263 21.9729C57.0263 22.1357 59.9882 29.2143 61.4697 32.8339C61.7172 33.4092 61.7997 33.5752 62.1285 33.5752V33.8227H57.4377V33.5752C57.7665 33.5752 57.849 33.4103 57.849 33.2464C57.849 33.1628 57.1902 31.436 57.1088 31.1072H51.4303V31.1061ZM52.0066 29.2132H56.45L54.1458 23.6172L52.0066 29.2132ZM64.6791 29.2132L64.9266 29.2946C64.8441 29.4574 64.8441 29.6235 64.8441 29.7884C64.8441 30.3637 67.2308 31.4338 69.6174 31.4338C71.8391 31.4338 72.8268 30.8586 72.8268 29.8698C72.8268 28.2244 63.61 30.0348 63.61 25.7564C63.61 23.5336 65.7493 21.9718 69.0411 21.9718C72.0855 21.9718 74.3083 22.9572 74.8835 22.9572C75.2124 22.9572 75.3774 22.7945 75.5424 22.6284L75.7898 22.7098L74.2269 25.7564L73.9795 25.6728V25.4253C73.9795 24.8501 71.4289 24.1924 69.2886 24.1924C67.3957 24.1924 66.738 24.7676 66.738 25.2625C66.738 27.2368 75.9537 24.8501 75.9537 29.9523C75.9537 31.8452 74.4722 33.9844 69.6174 33.9844C65.9142 33.9844 64.2688 32.9989 63.775 32.9989C63.6111 32.9989 63.4462 33.0803 63.2812 33.2464L63.0348 33.1628L64.6791 29.2132V29.2132ZM78.6681 29.2132L78.9145 29.2946C78.8331 29.4574 78.8331 29.6235 78.8331 29.7884C78.8331 30.3637 81.2187 31.4338 83.5229 31.4338C85.7446 31.4338 86.8147 30.8586 86.8147 29.8698C86.8147 28.2244 77.5991 30.0348 77.5991 25.7564C77.5991 23.5336 79.7383 21.9718 83.0302 21.9718C86.0746 21.9718 88.2974 22.9572 88.8726 22.9572C89.2014 22.9572 89.3664 22.7945 89.4489 22.6284L89.6964 22.7098L88.2149 25.7564L87.8849 25.6728V25.4253C87.8849 24.8501 85.4168 24.1924 83.2776 24.1924C81.3848 24.1924 80.6435 24.7676 80.6435 25.2625C80.6435 27.2368 89.8602 24.8501 89.8602 29.9523C89.8602 31.8452 88.4612 33.9844 83.6054 33.9844C79.9033 33.9844 78.2568 32.9989 77.763 32.9989C77.5166 32.9989 77.4341 33.0803 77.2691 33.2464L77.0216 33.1628L78.6681 29.2132V29.2132ZM105.083 27.9781C105.083 31.9288 101.874 33.9844 98.0894 33.9844C94.3037 33.9844 91.1768 31.9288 91.1768 27.9781C91.1768 24.111 94.3037 21.9718 98.0894 21.9718C101.874 21.9718 105.083 24.111 105.083 27.9781ZM94.4686 27.9781C94.4686 30.1173 96.1965 31.2688 98.0894 31.2688C100.064 31.2688 101.793 30.1173 101.793 27.9781C101.793 25.9203 100.064 24.6873 98.0894 24.6873C96.1954 24.6873 94.4686 25.9203 94.4686 27.9781ZM118.002 26.4141L117.755 26.3327C117.755 26.1677 117.838 26.0852 117.838 26.0038C117.838 25.51 116.109 24.9337 114.217 24.9337C112.406 24.9337 110.022 25.7564 110.022 27.9781C110.022 30.2834 112.406 31.0225 114.217 31.0225C114.958 31.0225 117.92 30.4472 117.92 29.7895C117.92 29.6246 117.838 29.5421 117.838 29.4585L118.086 29.2957L120.307 32.8339L120.06 32.9989C119.979 32.8339 119.895 32.7514 119.731 32.7514C119.319 32.7514 117.261 33.9844 113.889 33.9844C110.351 33.9844 106.566 32.0101 106.566 27.9781C106.566 24.0274 110.351 21.9718 113.889 21.9718C115.699 21.9718 117.017 22.217 117.839 22.4634C118.743 22.7109 119.156 22.8759 119.401 22.8759C119.566 22.8759 119.649 22.7945 119.732 22.7109L119.98 22.7945L118.002 26.4141V26.4141ZM122.528 33.8205V33.573C123.103 33.573 123.188 33.4081 123.188 33.1606V22.7934C123.188 22.6284 123.104 22.4623 122.528 22.3809V22.1335H127.135V22.3809C126.56 22.4623 126.478 22.6284 126.478 22.7934V33.1606C126.478 33.4081 126.559 33.573 127.135 33.573V33.8205H122.528V33.8205ZM133.473 31.3524C132.815 32.9142 132.731 33.2453 132.731 33.3267C132.731 33.4916 132.815 33.5741 133.144 33.5741V33.8216H129.193V33.5741C129.441 33.4927 129.606 33.4092 129.768 33.0803C129.933 32.5865 133.719 22.7109 133.719 22.6295C133.719 22.4645 133.472 22.382 133.307 22.382V22.1346H139.068V22.382C138.82 22.382 138.655 22.4634 138.655 22.7109C138.655 22.8759 141.454 29.5421 142.852 32.9142C143.015 33.4916 143.181 33.5741 143.428 33.5741V33.8216H139.067V33.5741C139.314 33.5741 139.477 33.4927 139.477 33.3267C139.477 33.2453 138.819 31.5999 138.738 31.3524H133.473V31.3524ZM133.968 29.5421H138.163L135.941 24.1935L133.968 29.5421V29.5421ZM147.956 33.8205V33.573C148.531 33.573 148.613 33.4081 148.613 33.1606V24.849H144.746C144.499 24.849 144.417 24.9326 144.334 25.5089H144.089V21.4768H144.334C144.417 22.0521 144.499 22.1346 144.746 22.1346H155.772C156.02 22.1346 156.101 22.0532 156.185 21.4768H156.432V25.5089H156.185C156.101 24.9337 156.02 24.849 155.772 24.849H151.905V33.1606C151.905 33.4081 151.987 33.573 152.563 33.573V33.8205H147.956V33.8205ZM168.363 29.5421H168.116C168.035 29.2946 167.868 29.0482 167.458 29.0482H163.261V31.1061H170.421C170.669 31.1061 170.75 31.0225 170.831 30.4461H171.079V34.3154H170.831C170.75 33.9844 170.669 33.8216 170.421 33.8216H159.31V33.5741C159.888 33.5741 159.97 33.4092 159.97 33.1617V22.7945C159.97 22.6295 159.889 22.4634 159.31 22.382V22.1346H170.421C170.669 22.1346 170.75 22.0532 170.831 21.4768H171.079V25.3439H170.831C170.75 24.8501 170.669 24.7687 170.421 24.7687H163.261V26.5791H167.458C167.868 26.5791 168.033 26.4141 168.116 26.0852H168.363V29.5421V29.5421ZM175.357 29.2132L175.605 29.2946V29.7884C175.605 30.3637 177.992 31.4338 180.297 31.4338C182.519 31.4338 183.506 30.8586 183.506 29.8698C183.506 28.2244 174.288 30.0348 174.288 25.7564C174.288 23.5336 176.428 21.9718 179.72 21.9718C182.765 21.9718 184.985 22.9572 185.643 22.9572C185.891 22.9572 186.056 22.7945 186.221 22.6284L186.468 22.7098L184.904 25.7564L184.657 25.6728V25.4253C184.657 24.8501 182.105 24.1924 179.965 24.1924C178.072 24.1924 177.415 24.7676 177.415 25.2625C177.415 27.2368 186.631 24.8501 186.631 29.9523C186.631 31.8452 185.15 33.9844 180.377 33.9844C176.593 33.9844 174.946 32.9989 174.452 32.9989C174.367 32.997 174.283 33.0193 174.21 33.0631C174.137 33.1068 174.078 33.1704 174.04 33.2464L173.711 33.1628L175.357 29.2132V29.2132ZM42.3796 12.0962V21.3119L33.5741 33.5741H26.744L42.3796 12.0962V12.0962ZM41.9671 0.0813864V9.29817L24.6048 33.5741H17.6922L41.9671 0.0813864ZM24.6048 12.0962V21.3119L15.7994 33.5741H8.88682L24.6048 12.0962V12.0962ZM24.3574 0V9.13319L6.91258 33.4916H0L24.3574 0ZM42.7909 33.5741H35.5495L42.7909 23.6172V33.5741ZM189.184 33.1617V33.0803C189.1 33.0803 189.1 33.0803 189.1 32.9989V31.3535H189.841C189.923 31.3535 189.923 31.3535 189.923 31.5163H190.006V30.6936H189.923C189.923 30.775 189.923 30.775 189.841 30.775H187.702C187.621 30.775 187.621 30.775 187.621 30.6936H187.539V31.5163H187.621C187.621 31.3535 187.621 31.3535 187.702 31.3535H188.443V32.9989C188.443 33.0803 188.443 33.0803 188.278 33.0803V33.1617H189.184V33.1617ZM192.393 33.1617V33.0803C192.556 33.0803 192.556 33.0803 192.556 32.9989V31.3535L191.733 33.0803L190.994 31.3535H190.91V32.9989C190.91 33.0803 190.994 33.0803 191.075 33.0803V33.1617H190.253V33.0803C190.415 33.0803 190.415 33.0803 190.415 32.9989V30.9411C190.415 30.9411 190.415 30.8597 190.253 30.8597V30.7761H191.486V30.8597C191.404 30.8597 191.323 30.8597 191.323 30.9411C191.323 30.9411 191.733 31.7638 191.733 31.9287C191.981 31.4349 192.227 31.0225 192.227 30.9411C192.227 30.8597 192.146 30.8597 192.062 30.8597V30.7761H193.297V30.8597C193.216 30.8597 193.216 30.9411 193.216 30.9411V32.9989C193.216 33.0803 193.216 33.0803 193.297 33.0803V33.1617H192.393V33.1617Z" fill="white"/>
</svg>
