<svg width="206" height="27" viewBox="0 0 206 27" fill="none" xmlns="http://www.w3.org/2000/svg">
<path fill-rule="evenodd" clip-rule="evenodd" d="M48.4927 11.3446V25.1049H46.2912V11.3446H41V9.3049H53.8067V11.3446H48.4927Z" fill="white"/>
<path fill-rule="evenodd" clip-rule="evenodd" d="M58.3268 25.1049V9.3049H69.3922V11.3446H60.5312V15.806H66.18V17.7273H60.5312V23.0648H69.6268V25.1049H58.3268Z" fill="white"/>
<path fill-rule="evenodd" clip-rule="evenodd" d="M117.438 11.4635L114.5 18.7711H120.304L117.438 11.4635ZM122.802 25.1049L121.063 20.7173H113.717L111.953 25.1049H109.553L116.191 9.3049H118.712L125.373 25.1049H122.802Z" fill="white"/>
<path fill-rule="evenodd" clip-rule="evenodd" d="M129.893 25.1049V9.3049H132.163V23.0648H141.193V25.1049H129.893Z" fill="white"/>
<path fill-rule="evenodd" clip-rule="evenodd" d="M151.739 11.094C148.397 11.094 146.396 13.6133 146.396 17.2059C146.396 20.7967 148.397 23.3414 151.739 23.3414C155.057 23.3414 157.08 20.7967 157.08 17.2059C157.08 13.6133 155.057 11.094 151.739 11.094ZM151.739 25.4098C147.054 25.4098 144.091 21.8681 144.091 17.2059C144.091 12.5442 147.054 9.00009 151.739 9.00009C156.422 9.00009 159.411 12.5442 159.411 17.2059C159.411 21.8681 156.422 25.4098 151.739 25.4098Z" fill="white"/>
<path fill-rule="evenodd" clip-rule="evenodd" d="M166.301 17.2061C166.301 20.9155 168.35 23.3901 171.644 23.3901C174.444 23.3901 176.516 21.6769 176.726 18.9409H171.644V16.9912H178.821C178.868 17.3017 178.916 17.6824 178.916 18.1799C178.916 22.0105 176.28 25.41 171.667 25.41C167.007 25.41 163.995 21.9384 163.995 17.1825C163.995 12.4016 167.007 9.00024 171.598 9.00024C174.28 9.00024 176.35 10.1419 177.764 12.1867L176.021 13.4005C175.056 11.9017 173.596 11.0451 171.644 11.0451C168.302 11.0451 166.301 13.5432 166.301 17.2061Z" fill="white"/>
<path fill-rule="evenodd" clip-rule="evenodd" d="M184.3 25.1252H186.488V9.2851H184.3V25.1252Z" fill="white"/>
<path fill-rule="evenodd" clip-rule="evenodd" d="M204.112 13.4007C203.146 11.9019 201.688 11.0453 199.734 11.0453C196.486 11.0453 194.391 13.4964 194.391 17.1827C194.391 20.9158 196.51 23.3903 199.688 23.3903C201.617 23.3903 203.146 22.4612 204.112 20.9393L205.923 22.1295C204.583 24.1748 202.442 25.4097 199.711 25.4097C195.121 25.4097 192.086 21.9617 192.086 17.2063C192.086 12.4715 195.121 9 199.688 9C202.37 9 204.44 10.1416 205.853 12.187L204.112 13.4007Z" fill="white"/>
<path fill-rule="evenodd" clip-rule="evenodd" d="M84.8302 18.3477C86.6895 17.6824 88.0527 16.1346 88.0527 13.9234C88.0527 11.1172 86.0293 9.28481 82.8063 9.28481H75.9342V25.1254H78.1469V19.7604H78.146V15.7534H78.1469V11.3301H82.735C84.5462 11.3301 85.7705 12.4016 85.7705 14.0898C85.7705 15.7073 84.618 16.8023 82.8063 16.8023H80.4352V18.7515H82.6403L85.9831 25.1254H88.4779L84.8302 18.3477Z" fill="white"/>
<path fill-rule="evenodd" clip-rule="evenodd" d="M102.111 18.3477C103.97 17.6824 105.333 16.1346 105.333 13.9234C105.333 11.1172 103.31 9.28481 100.087 9.28481H93.2144V25.1254H95.4275V19.7604H95.4266V15.7534H95.4275V11.3301H100.016C101.826 11.3301 103.051 12.4016 103.051 14.0898C103.051 15.7073 101.898 16.8023 100.087 16.8023H97.7159V18.7515H99.9209L103.263 25.1254H105.758L102.111 18.3477Z" fill="white"/>
<mask id="mask0_1818_10969" style="mask-type:alpha" maskUnits="userSpaceOnUse" x="0" y="9" width="18" height="18">
<path d="M0 17.0791L6.58164 17.0982L3.79224 27H12.1655L17.0347 9.70175L2.16366 9.70074L0 17.0791Z" fill="white"/>
</mask>
<g mask="url(#mask0_1818_10969)">
<path fill-rule="evenodd" clip-rule="evenodd" d="M0 17.0791L6.58164 17.0982L3.79224 27H12.1655L17.0347 9.70175L2.16366 9.70074L0 17.0791Z" fill="white"/>
</g>
<mask id="mask1_1818_10969" style="mask-type:alpha" maskUnits="userSpaceOnUse" x="17" y="0" width="18" height="18">
<path d="M21.9081 0L17.0259 17.0499L31.9372 17.0509L34.1065 9.77836L27.5073 9.75976L30.3042 0H21.9081Z" fill="white"/>
</mask>
<g mask="url(#mask1_1818_10969)">
<path fill-rule="evenodd" clip-rule="evenodd" d="M21.9081 0L17.0259 17.0499L31.9372 17.0509L34.1065 9.77836L27.5073 9.75976L30.3042 0H21.9081Z" fill="white"/>
</g>
</svg>
