<svg xmlns="http://www.w3.org/2000/svg" width="72.904" height="57.631" viewBox="0 0 72.904 57.631">
  <path id="Path_22992" data-name="Path 22992" d="M49.049,57.358c6.92-1.892,14.257-4.573,20.91-1.889,7.35,2.965,15.359,8.885,16.01,16.784.664,8.057-9.625,12.422-13,19.769-2.751,5.992.835,15.1-4.673,18.721-5.56,3.658-12.675-1.944-19.249-2.984-5.225-.826-10.578-.057-15.281-2.478A32.058,32.058,0,0,1,21.05,93.346C17.2,87.025,10.712,79.495,14,72.859c3.408-6.888,14.048-4.742,21.076-7.85C40.051,62.807,43.8,58.794,49.049,57.358Z" transform="translate(-13.096 -54.336)" fill="#ffd000" fill-rule="evenodd"/>
</svg>
