<svg xmlns="http://www.w3.org/2000/svg" xmlns:xlink="http://www.w3.org/1999/xlink" width="216.978" height="43.407" viewBox="0 0 216.978 43.407"><defs><style>.a,.b,.c,.d,.e{opacity:0.5;}.a{fill:url(#a);}.b{fill:url(#b);}.c{fill:url(#c);}.d{fill:url(#d);}.e{fill:url(#e);}.f{fill:url(#f);}</style><linearGradient id="a" x1="0.949" y1="-0.049" x2="0" y2="1" gradientUnits="objectBoundingBox"><stop offset="0" stop-color="#d1c7ff"/><stop offset="1" stop-color="#502eff"/></linearGradient><linearGradient id="b" x1="1.036" y1="-0.043" xlink:href="#a"/><linearGradient id="c" x1="1.129" y1="-0.143" xlink:href="#a"/><linearGradient id="d" x1="1.394" y1="-0.283" xlink:href="#a"/><linearGradient id="e" x1="1.963" y1="-0.777" xlink:href="#a"/><linearGradient id="f" x1="0.168" y1="1" x2="0.195" y2="-0.797" gradientUnits="objectBoundingBox"><stop offset="0" stop-color="#502eff"/><stop offset="1" stop-color="#d1c7ff"/></linearGradient></defs><path class="a" d="M695.43,82.407h-16.9V39h16.9a21.7,21.7,0,0,1,21.7,21.7h0A21.7,21.7,0,0,1,695.43,82.407Z" transform="translate(-678.525 -39)"/><path class="b" d="M694.155,94.135h-15.63V54h15.63a20.067,20.067,0,0,1,20.067,20.067h0A20.067,20.067,0,0,1,694.155,94.135Z" transform="translate(-678.525 -50.728)"/><path class="c" d="M692.74,107.161H678.525V70.66H692.74a18.25,18.25,0,0,1,18.25,18.251h0A18.25,18.25,0,0,1,692.74,107.161Z" transform="translate(-678.525 -63.754)"/><path class="d" d="M691.182,121.5H678.525V89h12.657a16.25,16.25,0,0,1,16.25,16.25h0A16.25,16.25,0,0,1,691.182,121.5Z" transform="translate(-678.525 -78.094)"/><path class="e" d="M689.694,135.2H678.525v-28.68h11.169a14.34,14.34,0,0,1,14.34,14.34h0A14.34,14.34,0,0,1,689.694,135.2Z" transform="translate(-678.525 -91.788)"/><path class="f" d="M1.43-22.05a12.934,12.934,0,0,1,3.64-9.362,12.305,12.305,0,0,1,9.24-3.762,12.305,12.305,0,0,1,9.24,3.762,12.934,12.934,0,0,1,3.64,9.362,12.934,12.934,0,0,1-3.64,9.362,12.305,12.305,0,0,1-9.24,3.762A12.291,12.291,0,0,1,5.07-12.7,12.942,12.942,0,0,1,1.43-22.05Zm12.9,8.225a7,7,0,0,0,5.547-2.362,8.589,8.589,0,0,0,2.065-5.862,8.589,8.589,0,0,0-2.065-5.862,7.036,7.036,0,0,0-5.582-2.362,7,7,0,0,0-5.547,2.362A8.589,8.589,0,0,0,6.679-22.05a8.589,8.589,0,0,0,2.065,5.862A7.036,7.036,0,0,0,14.327-13.825Zm17.009,4.9V-35.174h1.75L44.408-21.42,55.852-35.174H57.6V-8.925h-5.25l-.018-14.087-7.927,8.855-7.822-8.855V-8.925ZM62.484-35.087h5.3V-8.925H62.554ZM73.334-8.925V-35.174h1.75L91.533-16.712V-35.174h5.25V-8.925l-5.2.052L78.338-20.965l.245,12.039Zm27.509,0,20.841-26.039h4.777l.14,26.021-5.11.017.035-4.025-12.144.122-3.255,3.955ZM121.7-27.7l-7.857,9.59h7.8Zm30.169-7.525v4.9l-8.207.052V-8.925h-5.25V-30.274l-8.172-.052v-4.9Zm4.375,21.366,19.249.035v4.9H156.245Zm0-5.95v-4.9l15.767.035v4.882Zm0-10.464v-4.882l19.284-.017v4.9Z" transform="translate(41.449 49.085)"/></svg>