<svg xmlns="http://www.w3.org/2000/svg" width="67.578" height="12.143" viewBox="0 0 67.578 12.143">
  <g id="Group_2462" data-name="Group 2462" transform="translate(67.017 -13.937) rotate(2)">
    <g id="Group_2369" data-name="Group 2369" transform="translate(-66.148 16.255)">
      <path id="Path_19792" data-name="Path 19792" d="M59.183,212.965a.75.75,0,0,0-.4-.081.037.037,0,0,1-.037-.009c-.031-.043-.089-.044-.148-.047-.023,0-.06-.012-.064-.023-.028-.078-.111-.059-.18-.046a1.228,1.228,0,0,1-.183.013l-.085-.032h0c-.02-.035-.152-.028-.082-.1.008-.008-.006-.017-.022-.02a.743.743,0,0,0-.467-.005.659.659,0,0,1-.12.026.284.284,0,0,1,.048.017.668.668,0,0,0,.484.115h0a.7.7,0,0,0,.508.05c0,.015,0,.022-.006.024-.041.015-.071.033-.056.069s.059.024.1.019.038.007.039.03c0,.055.047.079.129.074.066,0,.131.009.195.011s.1.058.167.046a1.218,1.218,0,0,1,.276,0,.46.46,0,0,0,.15-.008C59.327,213.052,59.208,213.048,59.183,212.965Z" transform="translate(-56.457 -206.076)" fill="#ffd000"/>
      <path id="Path_19793" data-name="Path 19793" d="M61.427,201.772l.119-.005c.026,0,.054,0,.066-.019s-.015-.03-.031-.042a.319.319,0,0,0-.323-.017c-.022.011-.056.021-.05.044s.047.027.077.03C61.339,201.768,61.394,201.77,61.427,201.772Z" transform="translate(-59.624 -196.263)" fill="#ffd000"/>
      <path id="Path_19794" data-name="Path 19794" d="M233.889,157.481a.233.233,0,0,1,.235.039.224.224,0,0,0,.066.013c.06,0,.12-.029.131-.072s-.061-.04-.105-.044a.9.9,0,0,0-.325.008c-.032.008-.039.019-.036.037A.025.025,0,0,0,233.889,157.481Z" transform="translate(-202.957 -155.357)" fill="#ffd000"/>
      <path id="Path_19795" data-name="Path 19795" d="M78.4,168.668a.5.5,0,0,0-.288.05.234.234,0,0,1-.169.053c-.079.005-.156.09-.237,0a.04.04,0,0,0-.02,0,.064.064,0,0,1-.089-.008c-.009-.008-.034-.013-.037,0-.025.086-.127.037-.191.052h-.021a.208.208,0,0,0-.032,0c-.092,0-.135.081-.238.074-.013,0,0,.026.024.031a.2.2,0,0,0,.106-.008c.051-.016.053,0,.054.029s-.047.026-.07.042a.18.18,0,0,0,.117.01c.23-.069.481-.088.72-.136a.4.4,0,0,0,.2-.083c.033,0,.059.049.063.03.012-.064.1-.031.133-.06v-.028C78.415,168.7,78.413,168.675,78.4,168.668Zm-.568.155-.043,0a.4.4,0,0,1,.064-.007Z" transform="translate(-72.796 -161.092)" fill="#ffd000"/>
      <path id="Path_19796" data-name="Path 19796" d="M135,155.06l.325-.019c.024,0,.06.006.06-.018s-.038-.035-.063-.029a.983.983,0,0,1-.265,0,.347.347,0,0,0-.075.007c-.028.009-.086,0-.073.04S134.968,155.062,135,155.06Z" transform="translate(-120.814 -154.654)" fill="#ffd000"/>
      <path id="Path_19797" data-name="Path 19797" d="M102.932,161.578c-.022,0-.016-.037-.038-.023a.157.157,0,0,0-.061.074c-.007.018.024.027.054.02a2.31,2.31,0,0,0,.316-.035c.107-.006.075-.042.036-.079h0c-.121-.04-.191-.026-.251.046C102.97,161.6,102.951,161.578,102.932,161.578Z" transform="translate(-94.181 -157.546)" fill="#ffd000"/>
      <path id="Path_19798" data-name="Path 19798" d="M121.445,157.184a3.547,3.547,0,0,0-.482,0c-.028,0-.055,0-.052.025s.026.017.049.018A1.42,1.42,0,0,0,121.445,157.184Z" transform="translate(-109.191 -155.257)" fill="#ffd000"/>
      <path id="Path_19799" data-name="Path 19799" d="M85.113,167.969a2.743,2.743,0,0,0,.388-.063c.057-.043.142-.033.212-.053a2.759,2.759,0,0,1,.546-.075c.033,0,.077,0,.074-.026s0-.051-.07-.059a1.344,1.344,0,0,0-.255.018.3.3,0,0,0-.2.03l-.107.016a.274.274,0,0,0-.139.006c-.027.009-.067,0-.071.036-.007.057-.011.057-.089.033a.237.237,0,0,0-.3.074c-.019.013-.032.033-.066.03C85.04,167.969,85.074,167.974,85.113,167.969Z" transform="translate(-79.408 -160.666)" fill="#ffd000"/>
      <path id="Path_19800" data-name="Path 19800" d="M85.026,169.123h0v0h0Z" transform="translate(-79.397 -161.789)" fill="#ffd000"/>
      <path id="Path_19801" data-name="Path 19801" d="M124.045,154.868c.057-.009.036-.054.057-.081.007-.009-.017-.022-.024-.019a.635.635,0,0,1-.261.019c.027.026.059.029.068.049C123.914,154.9,123.987,154.878,124.045,154.868Z" transform="translate(-111.602 -154.468)" fill="#ffd000"/>
      <path id="Path_19802" data-name="Path 19802" d="M101.106,160.076c.067,0,.14.024.194-.021a.124.124,0,0,1,.133-.04c.02.006.042,0,.036-.025-.062.017-.1-.061-.168-.019a.223.223,0,0,1-.13-.015c-.041-.016,0-.078-.063-.069s-.013.055-.031.082c-.035,0-.072,0-.106.007s-.068.03-.045.037C100.987,160.033,101,160.119,101.106,160.076Z" transform="translate(-92.593 -156.641)" fill="#ffd000"/>
      <path id="Path_19803" data-name="Path 19803" d="M131,156.971a1.092,1.092,0,0,0,.244-.02,1,1,0,0,0-.244-.042c-.029,0-.058.015-.059.037S130.981,156.971,131,156.971Z" transform="translate(-117.522 -156.245)" fill="#ffd000"/>
      <path id="Path_19804" data-name="Path 19804" d="M139.172,154.264c-.02-.02-.028-.051-.074-.045s-.062.041-.055.064,0,.037,0,.055a.111.111,0,0,0,.086-.022C139.15,154.3,139.21,154.3,139.172,154.264Z" transform="translate(-124.242 -154.012)" fill="#ffd000"/>
      <path id="Path_19805" data-name="Path 19805" d="M126.1,157.984c.055,0,.051-.034.057-.055s0-.055-.044-.054-.083.016-.077.049A.062.062,0,0,0,126.1,157.984Z" transform="translate(-113.443 -155.616)" fill="#ffd000"/>
      <path id="Path_19806" data-name="Path 19806" d="M93.833,166.722l-.359.043,0,.02a1.285,1.285,0,0,0,.359-.043Z" transform="translate(-86.412 -160.414)" fill="#ffd000"/>
      <path id="Path_19807" data-name="Path 19807" d="M106.6,156.908a.062.062,0,0,0,.074-.033c-.016-.035-.061-.04-.1-.04s-.073,0-.07.033S106.564,156.9,106.6,156.908Z" transform="translate(-97.226 -156.183)" fill="#ffd000"/>
      <path id="Path_19808" data-name="Path 19808" d="M107.04,159.186c-.025-.007-.063,0-.06.029s.024.038.065.04c.1,0,.08-.049.1-.091C107.1,159.173,107.083,159.2,107.04,159.186Z" transform="translate(-97.625 -156.316)" fill="#ffd000"/>
      <path id="Path_19809" data-name="Path 19809" d="M234.4,156.548c.037-.023.048,0,.07.012s.056.034.1.021c.006,0,.012-.015.008-.019a.165.165,0,0,0-.083-.045.275.275,0,0,0-.055,0H234.4c-.029,0-.069.007-.063.029S234.383,156.561,234.4,156.548Z" transform="translate(-203.357 -155.916)" fill="#ffd000"/>
      <path id="Path_19810" data-name="Path 19810" d="M122.511,155.068c.024,0,.059-.014.048-.031a.118.118,0,0,0-.089-.063c-.022,0-.06.014-.049.021C122.458,155.016,122.447,155.066,122.511,155.068Z" transform="translate(-110.443 -154.639)" fill="#ffd000"/>
      <path id="Path_19811" data-name="Path 19811" d="M149.012,153.809c.025,0,.039-.008.031-.028-.038-.008.035-.067-.053-.054-.031,0-.082,0-.075.028S148.968,153.8,149.012,153.809Z" transform="translate(-132.439 -153.602)" fill="#ffd000"/>
      <path id="Path_19812" data-name="Path 19812" d="M77.17,167.825c-.008-.018-.031-.018-.053-.018-.058,0-.1.017-.093.07.049-.01.079-.032.124-.026C77.167,167.854,77.176,167.838,77.17,167.825Z" transform="translate(-72.755 -160.992)" fill="#ffd000"/>
      <path id="Path_19813" data-name="Path 19813" d="M94.613,162.8c.034,0,.066-.007.069-.037a.039.039,0,0,0-.045-.036c-.039,0-.07.015-.074.044S94.583,162.8,94.613,162.8Z" transform="translate(-87.317 -158.247)" fill="#ffd000"/>
      <path id="Path_19814" data-name="Path 19814" d="M91.853,163.188c.034-.007.048-.023.047-.045s-.033-.029-.063-.029-.052.01-.049.031S91.818,163.183,91.853,163.188Z" transform="translate(-85.013 -158.456)" fill="#ffd000"/>
      <path id="Path_19815" data-name="Path 19815" d="M58.634,189.538c.006-.035-.041-.012-.06-.02-.036,0-.084-.006-.085.028s.043.025.069.024S58.629,189.562,58.634,189.538Z" transform="translate(-57.366 -185.463)" fill="#ffd000"/>
      <path id="Path_19816" data-name="Path 19816" d="M238.747,157.076c.025,0,.052,0,.054-.029-.015-.031-.055-.026-.09-.028s-.046,0-.044.022S238.71,157.077,238.747,157.076Z" transform="translate(-206.953 -155.173)" fill="#ffd000"/>
      <path id="Path_19817" data-name="Path 19817" d="M103.68,159.614a.059.059,0,0,0,.06-.046c0-.016-.006-.029-.033-.032s-.064.015-.068.041S103.651,159.615,103.68,159.614Z" transform="translate(-94.851 -156.523)" fill="#ffd000"/>
      <path id="Path_19818" data-name="Path 19818" d="M126.433,154.8c.024,0,.058-.015.071-.008.038.021.075.053.109.007s-.061-.017-.07-.044a.031.031,0,0,0-.02-.016c-.062-.012-.128-.038-.177.016-.015.006-.039.015-.028.026C126.345,154.811,126.391,154.8,126.433,154.8Z" transform="translate(-113.677 -154.43)" fill="#ffd000"/>
      <path id="Path_19819" data-name="Path 19819" d="M75.074,168.229c.035,0,.062-.014.063-.04s-.024-.023-.048-.023-.065.015-.071.038S75.047,168.227,75.074,168.229Z" transform="translate(-71.089 -161.194)" fill="#ffd000"/>
      <path id="Path_19820" data-name="Path 19820" d="M135.108,154.564a.137.137,0,0,0-.144.051c.07-.011.125.01.161-.028C135.134,154.578,135.122,154.566,135.108,154.564Z" transform="translate(-120.858 -154.296)" fill="#ffd000"/>
      <path id="Path_19821" data-name="Path 19821" d="M241.4,157.329c.018-.007.019-.022,0-.031-.04-.021-.074-.007-.119.016A.109.109,0,0,0,241.4,157.329Z" transform="translate(-209.12 -155.321)" fill="#ffd000"/>
      <path id="Path_19822" data-name="Path 19822" d="M105.642,161.592c.03,0,.065,0,.081-.024,0-.022-.029-.029-.052-.033a.052.052,0,0,0-.062.03C105.6,161.582,105.617,161.594,105.642,161.592Z" transform="translate(-96.486 -157.613)" fill="#ffd000"/>
      <path id="Path_19823" data-name="Path 19823" d="M150.368,154.082c.028.006.041,0,.042-.021s-.022-.035-.058-.034-.045,0-.045.022S150.342,154.076,150.368,154.082Z" transform="translate(-133.595 -153.853)" fill="#ffd000"/>
      <path id="Path_19824" data-name="Path 19824" d="M247.321,158.085c.023,0,.042,0,.046-.023s-.03-.032-.061-.033-.035.008-.032.022A.045.045,0,0,0,247.321,158.085Z" transform="translate(-214.098 -155.72)" fill="#ffd000"/>
      <path id="Path_19825" data-name="Path 19825" d="M250.13,158.749c.026,0,.037-.013.039-.029s-.014-.026-.046-.028-.042.011-.038.033S250.107,158.75,250.13,158.749Z" transform="translate(-216.431 -156.079)" fill="#ffd000"/>
      <path id="Path_19826" data-name="Path 19826" d="M175.743,153.952a.051.051,0,0,0,.061-.017c0-.017-.017-.027-.041-.029s-.054,0-.061.021S175.726,153.948,175.743,153.952Z" transform="translate(-154.678 -153.752)" fill="#ffd000"/>
      <path id="Path_19827" data-name="Path 19827" d="M129.983,157.054a.206.206,0,0,0-.145,0,.013.013,0,0,0,0,.025A.336.336,0,0,0,129.983,157.054Z" transform="translate(-116.595 -156.353)" fill="#ffd000"/>
      <path id="Path_19828" data-name="Path 19828" d="M116.637,156.675c.026,0,.051,0,.063-.025a.053.053,0,0,0-.046-.022c-.028,0-.053.007-.056.028S116.619,156.674,116.637,156.675Z" transform="translate(-105.61 -156.012)" fill="#ffd000"/>
      <path id="Path_19829" data-name="Path 19829" d="M92.723,163.119c.025,0,.039-.009.043-.026a.041.041,0,0,0-.046-.026c-.019,0-.036.009-.037.023S92.7,163.118,92.723,163.119Z" transform="translate(-85.755 -158.448)" fill="#ffd000"/>
      <path id="Path_19830" data-name="Path 19830" d="M127.362,158.085c-.005,0,0,.021,0,.026.032.026.062-.006.1-.006C127.431,158.092,127.4,158.067,127.362,158.085Z" transform="translate(-114.544 -155.752)" fill="#ffd000"/>
      <path id="Path_19831" data-name="Path 19831" d="M156.065,153.223a.03.03,0,0,0,.034-.034c0-.012-.015-.023-.041-.02s-.032.01-.031.024A.035.035,0,0,0,156.065,153.223Z" transform="translate(-138.344 -153.14)" fill="#ffd000"/>
      <path id="Path_19832" data-name="Path 19832" d="M371.6,213.477a1.008,1.008,0,0,0-.227-.044c-.3.012-.591-.053-.888-.065a.51.51,0,0,0-.2-.03c-.044,0-.121-.01-.12.023s.073.021.117.022a1.132,1.132,0,0,0,.126.026c.362.034.723.07,1.088.09A.136.136,0,0,0,371.6,213.477Z" transform="translate(-316.126 -206.663)" fill="#ffd000"/>
      <path id="Path_19833" data-name="Path 19833" d="M403.029,224.821a2.088,2.088,0,0,0-.4-.011,1.227,1.227,0,0,0,.4.056c.022,0,.05,0,.051-.021S403.051,224.824,403.029,224.821Z" transform="translate(-343.075 -222.524)" fill="#ffd000"/>
      <path id="Path_19834" data-name="Path 19834" d="M395.385,216.494a1.575,1.575,0,0,0,.418-.044h-.42c-.023,0-.034.007-.034.022S395.365,216.492,395.385,216.494Z" transform="translate(-337.032 -209.402)" fill="#ffd000"/>
      <path id="Path_19835" data-name="Path 19835" d="M373.746,216.9c.04-.066-.04-.046-.079-.051s-.07-.008-.064.022.021.071.091.07C373.731,216.944,373.785,216.949,373.746,216.9Z" transform="translate(-318.977 -209.771)" fill="#ffd000"/>
      <path id="Path_19836" data-name="Path 19836" d="M391.7,218.1h.143a.277.277,0,0,0,.174.01c.025,0,.066,0,.066-.024s-.04-.023-.064-.031c0-.022-.024-.031-.053-.024a.6.6,0,0,1-.269.026c-.02,0-.044.009-.045.025S391.675,218.1,391.7,218.1Z" transform="translate(-333.959 -210.816)" fill="#ffd000"/>
      <path id="Path_19837" data-name="Path 19837" d="M370.345,228.878a.442.442,0,0,0,.27,0A.63.63,0,0,0,370.345,228.878Z" transform="translate(-316.273 -224.735)" fill="#ffd000"/>
      <path id="Path_19838" data-name="Path 19838" d="M262.131,158.118c.025,0,.039-.008.03-.028-.038-.008.035-.067-.052-.054-.031,0-.082,0-.075.028S262.087,158.111,262.131,158.118Z" transform="translate(-226.351 -155.711)" fill="#ffd000"/>
      <path id="Path_19839" data-name="Path 19839" d="M372.94,217.548c-.068-.033-.136,0-.227,0C372.862,217.589,372.862,217.589,372.94,217.548Z" transform="translate(-318.239 -210.365)" fill="#ffd000"/>
      <path id="Path_19840" data-name="Path 19840" d="M384.043,218.814c-.029.006-.077.01-.05.056.04-.046.1-.032.161-.02A.091.091,0,0,0,384.043,218.814Z" transform="translate(-327.597 -211.504)" fill="#ffd000"/>
      <path id="Path_19841" data-name="Path 19841" d="M263.487,158.391c.028.006.041,0,.042-.021s-.022-.035-.058-.034-.045,0-.045.022S263.461,158.385,263.487,158.391Z" transform="translate(-227.508 -155.886)" fill="#ffd000"/>
      <path id="Path_19842" data-name="Path 19842" d="M269.183,157.533a.03.03,0,0,0,.034-.034c0-.012-.015-.023-.041-.02s-.032.01-.03.024A.035.035,0,0,0,269.183,157.533Z" transform="translate(-232.256 -155.423)" fill="#ffd000"/>
      <path id="Path_19843" data-name="Path 19843" d="M255.89,239.25l-.325.019c-.024,0-.06-.006-.06.018s.038.035.063.029a.992.992,0,0,1,.265,0,.35.35,0,0,0,.075-.006c.028-.009.086,0,.073-.04S255.926,239.248,255.89,239.25Z" transform="translate(-220.932 -229.783)" fill="#ffd000"/>
      <path id="Path_19844" data-name="Path 19844" d="M269.174,237.2a3.544,3.544,0,0,0,.482,0c.028,0,.054,0,.052-.025s-.026-.017-.048-.018A1.416,1.416,0,0,0,269.174,237.2Z" transform="translate(-232.28 -228.05)" fill="#ffd000"/>
      <path id="Path_19845" data-name="Path 19845" d="M267.781,239.245c-.057.009-.036.054-.057.081-.007.009.017.022.024.019a.633.633,0,0,1,.262-.019c-.027-.026-.059-.029-.068-.049C267.912,239.215,267.839,239.235,267.781,239.245Z" transform="translate(-231.075 -229.772)" fill="#ffd000"/>
      <path id="Path_19846" data-name="Path 19846" d="M260.749,237.383a1.1,1.1,0,0,0-.245.02.993.993,0,0,0,.244.042c.029,0,.058-.015.059-.036S260.772,237.383,260.749,237.383Z" transform="translate(-225.082 -228.236)" fill="#ffd000"/>
      <path id="Path_19847" data-name="Path 19847" d="M253.359,239.8c.02.02.028.051.074.045s.063-.041.055-.064,0-.037,0-.055a.111.111,0,0,0-.086.022C253.381,239.764,253.321,239.763,253.359,239.8Z" transform="translate(-219.14 -230.181)" fill="#ffd000"/>
      <path id="Path_19848" data-name="Path 19848" d="M266.534,236.139c-.055,0-.051.034-.057.055s0,.055.044.054.083-.016.077-.049A.062.062,0,0,0,266.534,236.139Z" transform="translate(-230.041 -228.585)" fill="#ffd000"/>
      <path id="Path_19849" data-name="Path 19849" d="M285.779,237.381a.062.062,0,0,0-.074.033c.016.035.061.04.1.04s.073,0,.07-.033S285.815,237.388,285.779,237.381Z" transform="translate(-246.004 -228.233)" fill="#ffd000"/>
      <path id="Path_19850" data-name="Path 19850" d="M285.4,235.022c.025.007.063,0,.059-.029s-.023-.038-.065-.04c-.1,0-.08.049-.1.092C285.342,235.036,285.361,235.01,285.4,235.022Z" transform="translate(-245.671 -227.97)" fill="#ffd000"/>
      <path id="Path_19851" data-name="Path 19851" d="M270.025,239.131c-.024,0-.059.014-.048.031a.118.118,0,0,0,.089.063c.022,0,.06-.014.049-.021C270.078,239.182,270.089,239.132,270.025,239.131Z" transform="translate(-232.945 -229.687)" fill="#ffd000"/>
      <path id="Path_19852" data-name="Path 19852" d="M243.579,240.433c-.025,0-.039.008-.031.028.038.008-.035.067.053.054.031,0,.082,0,.075-.028S243.623,240.44,243.579,240.433Z" transform="translate(-211.003 -230.767)" fill="#ffd000"/>
      <path id="Path_19853" data-name="Path 19853" d="M289.052,234.66a.059.059,0,0,0-.06.046c0,.016.006.029.033.032s.064-.015.068-.041S289.081,234.659,289.052,234.66Z" transform="translate(-248.732 -227.828)" fill="#ffd000"/>
      <path id="Path_19854" data-name="Path 19854" d="M265.309,239.361c-.024,0-.058.015-.07.008-.038-.021-.075-.053-.109-.007s.061.017.07.044a.031.031,0,0,0,.02.016c.062.012.128.038.177-.016.015-.006.039-.015.028-.026C265.4,239.352,265.352,239.358,265.309,239.361Z" transform="translate(-228.917 -229.859)" fill="#ffd000"/>
      <path id="Path_19855" data-name="Path 19855" d="M257.321,239.827a.137.137,0,0,0,.144-.051c-.07.011-.125-.01-.161.028C257.294,239.813,257.306,239.824,257.321,239.827Z" transform="translate(-222.422 -230.222)" fill="#ffd000"/>
      <path id="Path_19856" data-name="Path 19856" d="M242.359,240.3c-.028-.006-.041,0-.042.021s.022.035.058.034.045,0,.045-.022S242.385,240.3,242.359,240.3Z" transform="translate(-209.983 -230.654)" fill="#ffd000"/>
      <path id="Path_19857" data-name="Path 19857" d="M216.984,240.469a.051.051,0,0,0-.061.017c0,.017.017.027.041.029s.053,0,.061-.021S217,240.473,216.984,240.469Z" transform="translate(-188.901 -230.795)" fill="#ffd000"/>
      <path id="Path_19858" data-name="Path 19858" d="M262.5,237.41a.206.206,0,0,0,.145,0,.013.013,0,0,0,0-.025A.336.336,0,0,0,262.5,237.41Z" transform="translate(-226.736 -228.239)" fill="#ffd000"/>
      <path id="Path_19859" data-name="Path 19859" d="M276.095,237.747c-.026,0-.052,0-.064.025a.054.054,0,0,0,.046.022c.028,0,.053-.007.056-.028S276.112,237.748,276.095,237.747Z" transform="translate(-237.973 -228.537)" fill="#ffd000"/>
      <path id="Path_19860" data-name="Path 19860" d="M265.363,236.363c.005,0,0-.021,0-.026-.032-.026-.062.006-.1.006C265.293,236.356,265.321,236.381,265.363,236.363Z" transform="translate(-229.032 -228.774)" fill="#ffd000"/>
      <path id="Path_19861" data-name="Path 19861" d="M236.815,241.167a.03.03,0,0,0-.034.034c0,.012.015.023.041.02s.032-.01.031-.024A.035.035,0,0,0,236.815,241.167Z" transform="translate(-205.387 -231.377)" fill="#ffd000"/>
      <path id="Path_19862" data-name="Path 19862" d="M108.991,235.4a.157.157,0,0,1-.159-.026.152.152,0,0,0-.044-.008c-.04,0-.081.019-.089.049s.041.027.071.03a.608.608,0,0,0,.22-.006c.022-.006.026-.013.025-.025A.017.017,0,0,0,108.991,235.4Z" transform="translate(-99.051 -228.198)" fill="#ffd000"/>
      <path id="Path_19863" data-name="Path 19863" d="M96.976,234.677c-.014,0-.037,0-.033.013.02.055-.04.027-.077.033l.013.011a.083.083,0,0,0,.085.025c.039-.011.012-.045.039-.063C97.01,234.691,96.993,234.678,96.976,234.677Z" transform="translate(-89.228 -227.83)" fill="#ffd000"/>
      <path id="Path_19864" data-name="Path 19864" d="M109.384,236.208c-.025.015-.033,0-.048-.008s-.038-.023-.065-.014c0,0-.008.01-.006.013a.113.113,0,0,0,.056.03.175.175,0,0,0,.038,0h.028c.02,0,.047-.005.042-.02S109.4,236.2,109.384,236.208Z" transform="translate(-99.522 -228.688)" fill="#ffd000"/>
      <path id="Path_19865" data-name="Path 19865" d="M106.776,235.92c.01.021.038.018.061.019s.031,0,.03-.015-.029-.024-.054-.023S106.777,235.9,106.776,235.92Z" transform="translate(-97.456 -228.548)" fill="#ffd000"/>
      <path id="Path_19866" data-name="Path 19866" d="M88.206,233.586c-.015,0-.03,0-.028.017a.041.041,0,0,0,.041.029c.019,0,.03-.01.028-.023S88.228,233.586,88.206,233.586Z" transform="translate(-82.015 -227.286)" fill="#ffd000"/>
      <path id="Path_19867" data-name="Path 19867" d="M105.029,235.748c-.012,0-.013.015,0,.021.027.015.05,0,.08-.011A.074.074,0,0,0,105.029,235.748Z" transform="translate(-95.997 -228.466)" fill="#ffd000"/>
      <path id="Path_19868" data-name="Path 19868" d="M101.144,235.223c-.015,0-.029,0-.031.015s.021.022.041.022.024-.005.022-.015A.031.031,0,0,0,101.144,235.223Z" transform="translate(-92.754 -228.182)" fill="#ffd000"/>
      <path id="Path_19869" data-name="Path 19869" d="M99.273,234.772c-.018,0-.025.009-.026.02s.009.018.031.019.028-.007.026-.022S99.289,234.772,99.273,234.772Z" transform="translate(-91.205 -227.937)" fill="#ffd000"/>
      <path id="Path_19870" data-name="Path 19870" d="M149.538,238.045a.035.035,0,0,0-.041.011c0,.011.011.019.028.019s.036,0,.041-.014S149.55,238.047,149.538,238.045Z" transform="translate(-132.923 -228.783)" fill="#ffd000"/>
      <path id="Path_19871" data-name="Path 19871" d="M162.955,238.517a.02.02,0,0,0-.023.023c0,.008.01.016.028.013s.022-.007.021-.016A.024.024,0,0,0,162.955,238.517Z" transform="translate(-144.077 -229.177)" fill="#ffd000"/>
      <path id="Path_19872" data-name="Path 19872" d="M118.862,155.8h.293a1.184,1.184,0,0,0-.215-.011c-.025,0-.058,0-.059-.012s-.031-.029-.026-.048l.268.008c.014,0,.033,0,.035-.005s-.019-.009-.035-.009l-.22,0c-.048,0-.093,0-.056-.031.008-.007-.006-.017-.009-.025-.013-.03-.066-.055-.075-.082-.018-.053-.1-.078-.186-.1a4.685,4.685,0,0,0-.726-.13c-.012-.011-.045,0-.059-.013h.013c.017,0,.034,0,.05,0a.285.285,0,0,0,.171-.063c.011-.011.046-.018.029-.033s-.046-.008-.072-.007l-.041,0a.208.208,0,0,0-.074-.006.248.248,0,0,0-.092-.012c-.023-.012-.018-.036-.075-.033l-.073-.014c-.056-.031-.142-.014-.21-.025h-.013c.021-.019.005-.035-.023-.049a1.327,1.327,0,0,1,.189-.009.142.142,0,0,0,.086-.02c.086-.02.187-.019.295-.04a.781.781,0,0,0-.128-.008c-.042-.015-.068-.028.013-.034.014,0,.032,0,.036-.009s-.019-.011-.032-.015-.031-.006-.047-.008.028-.01.007-.011a1.091,1.091,0,0,0-.2-.021h0c0-.028.063-.052.023-.084-.009-.007.02-.021.052-.023.015,0,.033,0,.016-.012s-.019-.026,0-.038.006-.017-.017-.019c-.059,0-.044-.03-.066-.045.044-.009.038-.042.088-.043s.036-.015.047-.025-.013-.014.007-.017c.066-.012.016-.021,0-.03a.182.182,0,0,0-.089-.009l-.131-.014c-.012-.01-.057,0-.055-.015s.022-.019.048-.022a.11.11,0,0,0,.026-.006c.031-.013.053-.025-.007-.035-.034-.005-.066-.013-.1-.019a.154.154,0,0,1,.108-.032.35.35,0,0,0,.127-.023.585.585,0,0,0,.07-.007c.026-.006.077,0,.068-.026s-.032-.033-.081-.033h0a1.206,1.206,0,0,0-.268-.067h0a.822.822,0,0,0-.165-.033c-.022,0-.048,0-.053-.014s-.047-.019-.073-.028c-.062-.021-.18-.006-.2-.058,0,0-.011-.006-.017-.005a2.751,2.751,0,0,1-.29-.034c-.118-.01-.236-.018-.352-.035a1.39,1.39,0,0,0-.279-.026c-.044,0-.087-.008-.131-.01-.2-.01-.393-.043-.6-.043a1.254,1.254,0,0,0-.226-.012c-.174-.008-.349-.006-.521-.021a3.938,3.938,0,0,0-.431-.019c-.2-.007-.389-.022-.586-.027-.216-.005-.431-.02-.647-.03-.064,0-.131,0-.191,0a3.258,3.258,0,0,0-.48-.025h0a.36.36,0,0,0-.111-.013c-.182-.008-.366-.007-.544-.027-.074-.006-.149-.005-.223-.012a.732.732,0,0,0-.172,0h0a.1.1,0,0,1-.026-.006.2.2,0,0,0-.147-.018c-.018,0-.039,0-.058,0l-.032,0h-.027c-.07,0-.139,0-.208-.007-.046-.013-.1,0-.149-.012a.508.508,0,0,0-.119-.023c-.068,0-.138,0-.2-.007a.085.085,0,0,0-.065.016c-.106,0-.208-.018-.315-.013a.055.055,0,0,1-.025,0c-.025-.027-.056-.006-.086,0,0-.024.048-.041.038-.064s.02-.06.047-.088a.121.121,0,0,0,.032-.083l.042-.005h.013a.47.47,0,0,0,.2.006h0a.788.788,0,0,1,.164.026,3.517,3.517,0,0,0,.672.039.582.582,0,0,1,.115.009,1.424,1.424,0,0,0,.329.019l.07.008c.173.017.349.029.525.039a.153.153,0,0,0,.118.026h0a.852.852,0,0,0,.214,0,.034.034,0,0,1,.033.008c.018.022.058.02.1.014a.111.111,0,0,1,.056,0,.644.644,0,0,0,.2.012h0c.034,0,.068,0,.1,0,.1,0,.184.026.282.024h0l.269.019h.014a.7.7,0,0,0,.153,0c.015,0,.038,0,.038-.012s-.022-.009-.038-.011-.046,0-.054-.011a.29.29,0,0,0-.154-.044.433.433,0,0,1-.181-.01.537.537,0,0,0-.178-.005s-.008,0-.008,0c.056.04-.034.018-.055.026l-.046-.006h0a1.062,1.062,0,0,0-.322-.03.49.49,0,0,1-.146-.012c.035-.009.069,0,.1-.011h-.12a.1.1,0,0,1-.068-.014.192.192,0,0,0-.165,0,.159.159,0,0,1-.1.007c-.032-.005.033-.011,0-.026a.871.871,0,0,1-.258,0l-.125,0a.716.716,0,0,1,.132-.028.3.3,0,0,0-.142-.022.536.536,0,0,1-.13.006c-.011-.02-.036-.028-.082-.035-.074-.011-.082.023-.127.03h0a.47.47,0,0,1-.12.008.485.485,0,0,0-.15,0h-.117c-.009-.011-.066,0-.046-.027a.124.124,0,0,1,.058-.022c-.065-.006-.124-.013-.185-.016-.029,0-.074-.008-.087.007s.044.009.055.021,0,0-.007.012c-.056-.029-.117.008-.177-.007a.52.52,0,0,0-.137-.013c-.045,0-.085-.008-.029-.031.009,0,.017-.009.009-.014s-.025,0-.037,0c-.061,0-.1.027-.162.024a.341.341,0,0,0-.24-.021.077.077,0,0,1-.053,0,.009.009,0,0,1,0-.015c.055-.024,0-.016-.025-.018-.042-.011-.029-.033-.021-.044.027-.041-.03-.038-.083-.036a1.41,1.41,0,0,1-.259-.014.7.7,0,0,0-.08,0,3.5,3.5,0,0,1-.394,0,.14.14,0,0,0-.057,0,.272.272,0,0,1-.132.007.968.968,0,0,0-.147,0c-.1-.009-.2,0-.3-.007a1.623,1.623,0,0,0-.3.008c-.1-.011-.2-.02-.3-.033-.063-.009-.117.01-.177,0-.013,0-.035-.008-.037-.013,0-.026,0-.026-.054-.032h0l-.043-.007c.009-.021.022-.033.076-.015a.5.5,0,0,0,.219-.025c-.112.006-.211-.011-.316,0a1.9,1.9,0,0,1-.271-.009c-.025,0-.071-.007-.069.005s-.023.013-.036.011c-.032,0-.064,0-.1-.006a1.693,1.693,0,0,1-.407-.039.128.128,0,0,0-.029,0c-.063,0-.127,0-.19-.009-.232-.018-.466-.031-.7-.048-.178-.013-.354-.032-.536-.028a.188.188,0,0,1-.07-.008.73.73,0,0,0-.263-.036,1.747,1.747,0,0,1-.226-.014A1.723,1.723,0,0,0,104.3,153c-.2,0-.4,0-.594,0-.487,0-.975,0-1.461.021-.2.011-.411.012-.613.026-.3.02-.6.047-.9.071a.479.479,0,0,1-.1,0,1.332,1.332,0,0,0-.263.006c-.112-.008-.219.018-.33.01a.483.483,0,0,0-.137.007.543.543,0,0,1-.13.01c-.171,0-.341.006-.511.011-.084,0-.167,0-.251,0a3.332,3.332,0,0,1-.379.027,2.153,2.153,0,0,0-.223.018,2.275,2.275,0,0,0-.267.024.5.5,0,0,0-.122.007.94.94,0,0,1-.247.05,1.626,1.626,0,0,1-.5,0,.127.127,0,0,0-.106.018.164.164,0,0,1-.113.029c-.089,0-.176.009-.262.019l-.367.014c-.073,0-.14.011-.212.012-.015,0-.025,0-.018.014s-.02.03-.055.039l-.123,0v.008l.122,0c.04.012.042.013.029.018a.333.333,0,0,1-.122.036.311.311,0,0,0-.115.018.724.724,0,0,0-.149.013c-.039,0-.078,0-.117,0a2.843,2.843,0,0,0-.405.017h-.013c-.129,0-.257-.009-.384-.014-.178-.007-.355,0-.533-.008a3.545,3.545,0,0,0-.4,0c-.052,0-.1.009-.155.007-.256-.009-.512-.023-.769-.024a7.238,7.238,0,0,0-.915.055,1.16,1.16,0,0,1-.166-.023.313.313,0,0,0-.117-.01c-.034,0-.06.009-.022.026.016.007.038.018.025.025-.044.026,0,.031.04.041a.771.771,0,0,1-.109.013.356.356,0,0,0-.052-.02h0c-.053-.02-.051-.03.023-.03.026,0,.061,0,.063-.013s-.037-.014-.063-.017a1.678,1.678,0,0,0-.224-.01,4.555,4.555,0,0,0-.8.023,1.179,1.179,0,0,0,.422,0c.039.039-.035.074,0,.11.044,0,.044-.016.051-.025.022-.026.079-.038.118-.056.069-.031.08.019.126.025s-.025.028-.016.042c.028.045.1.018.152.016a.5.5,0,0,0,.15.036l-.1,0c-.015,0-.034,0-.035.009s.017.01.032.011c.032,0,.065,0,.1,0a.748.748,0,0,1-.29.036c-.157-.008-.312-.022-.472-.015-.02-.037-.1-.047-.152-.072,0-.037-.069-.05-.121-.053a.459.459,0,0,1-.214-.075.183.183,0,0,0-.121-.037c-.1-.007-.194,0-.287,0-.188-.008-.376,0-.563-.007-.047,0-.091,0-.084.03s-.038.018-.065.024c-.058.012-.032-.011-.041-.019a.081.081,0,0,0-.062-.014l-.066.007a.167.167,0,0,0-.07-.019.273.273,0,0,0-.151.008c-.027.007.024.019.033.03-.02.024-.1.028-.1.056,0,.049-.075.055-.151.063,0-.024-.057-.013-.075-.027-.028-.031.064-.013.066-.032s.027-.022,0-.026c-.065-.009-.037-.009,0-.02s.052-.03.035-.045a.13.13,0,0,0-.1-.005c-.068.023-.162.03-.2.069.011.012-.034.023,0,.036.072.03.022.042-.04.052l-.019,0a.3.3,0,0,0-.113.009c.031.008.072,0,.086.018a.284.284,0,0,1-.216-.019c-.055-.03-.14.019-.2-.018.1-.006.1-.082.238-.053,0,0,.015-.006.023-.009.069-.022,0-.036-.012-.055-.019-.034-.048-.03-.094-.013-.081-.035-.132,0-.2.017.029.016.08.026.063.051l-.017.012c-.027.019-.146.026-.041.063-.013.006-.015.022-.032.025h0a.073.073,0,0,1-.036-.006c-.06-.022-.106-.035-.122.015a.242.242,0,0,1-.057.01.219.219,0,0,0-.072-.007l-.016-.012-.008,0a.158.158,0,0,0,.055-.014.614.614,0,0,0-.138-.005.3.3,0,0,1-.225.008.053.053,0,0,0-.055-.026.376.376,0,0,0-.067-.039l.086-.011a.346.346,0,0,0,.1,0c0-.031-.075-.009-.1-.025a.129.129,0,0,1,.019-.011c.022-.008.052-.015.024-.03a.08.08,0,0,0-.059-.017c-.036.005-.05.023-.039.035s.006.023-.017.031H87.1c.015-.014.045-.033-.009-.038s-.044.023-.06.037-.031.018-.019.031l-.023.048a.148.148,0,0,1-.063.011c-.06-.006-.045.044-.114.03-.032-.011-.085,0-.106-.021s-.064-.029-.107-.036l0,0H86.59l-.013,0c0-.013-.012-.027.018-.037a.032.032,0,0,0,.044.017c.031-.014.066-.032.065-.056s-.026-.024-.064-.02a.711.711,0,0,1-.119.009c-.064,0-.1.013-.036.04-.021,0-.041.008-.048.019a.571.571,0,0,0-.172,0,.212.212,0,0,0-.066-.012h0a.168.168,0,0,0-.126-.024c-.047.009-.031.031-.044.049,0,0,0-.006-.01-.011s-.028-.034-.074-.029-.063.027-.055.042,0,.024,0,.036a.158.158,0,0,0,.086-.014.246.246,0,0,1,.038-.01c-.006,0,.017.016.041.017s.055,0,.049-.012c-.017-.031.006-.035.04-.034a.211.211,0,0,0-.032.013.277.277,0,0,0,.132.013l0,0a.63.63,0,0,1-.08.081.912.912,0,0,0-.133.013.069.069,0,0,1-.019,0c.019-.029.046-.059-.073-.048a.057.057,0,0,1-.045-.018h0l-.03-.014c.012,0,.02-.01.012-.022s-.006-.027-.041-.03-.08.007-.084.016c-.009.027-.078.034-.083.06l-.014.005a.1.1,0,0,0-.048-.005h0c-.038-.022-.085-.006-.129-.005a.01.01,0,0,1,0,.01c-.044,0-.088-.006-.132-.007a.23.23,0,0,1,.015-.029h0s0,0,0,0,.007-.021-.019-.026-.062-.01-.077.006c-.042.043-.08.015-.119,0-.006-.053-.079-.023-.129-.021a.194.194,0,0,0-.089-.017c-.013-.026-.047-.026-.085-.011a.187.187,0,0,1-.07.02,2.015,2.015,0,0,1-.287-.058l.046-.021.041.012a.075.075,0,0,0,.112,0v-.02c0-.012.017-.027-.016-.034-.076-.015-.186.015-.2.055-.069.013.024.032-.009.049a.179.179,0,0,0-.162.02c.006-.01.029-.017.015-.024-.059-.034-.128-.007-.191,0s-.025.021-.008.033,0,.017-.014.02c-.086.014-.038.021.006.03s.046.017.022.034.015.026-.015.022a.369.369,0,0,0-.092,0,.048.048,0,0,0,.012-.006c.031-.028-.061-.011-.07-.029a.031.031,0,0,0-.02-.011l-.047-.007c.016-.011,0-.019-.043-.04s.028-.018.02-.03c.047-.032.079-.063-.039-.08-.055-.017-.1-.022-.09.019,0,.017.008.037-.047.013s-.1-.03-.132.007a.183.183,0,0,1-.1,0,.3.3,0,0,0-.159,0,.361.361,0,0,1-.268.023.183.183,0,0,0-.06-.006.308.308,0,0,1-.228-.011.272.272,0,0,0-.1,0,.978.978,0,0,1-.183.009c.01-.031.061-.029.112-.03.076,0,.1-.027.056-.052a.331.331,0,0,0-.255-.056.208.208,0,0,0-.117-.017c-.089,0-.175,0-.216-.044a.055.055,0,0,0-.052-.006.07.07,0,0,0-.025.058c0,.012.04.02.08.016s.066.007.1,0c.079-.008.109.01.123.04l0,.019-.061.016c.013.01.042.01.059.016.037.012.093-.008.117.016-.064.015-.143,0-.205.023a1.277,1.277,0,0,0-.261-.021c-.066-.023-.014-.052-.021-.078,0,0,0-.009,0-.009a2.662,2.662,0,0,0-.34-.027c-.048,0-.069,0-.093-.021.057,0,.107.008.156.007.03,0,.074.01.089-.007s-.035-.022-.05-.034c0-.009,0-.019,0-.028s.028-.03-.014-.038a.066.066,0,0,0-.074.024.11.11,0,0,1-.029.006c-.058,0-.112-.006-.128.028a2.077,2.077,0,0,0-.221-.011,1.049,1.049,0,0,0-.278-.026.373.373,0,0,1-.186-.021v-.012c.013-.008.03-.015,0-.021a.648.648,0,0,0-.126-.007.75.75,0,0,1-.24-.01h0a.343.343,0,0,0-.2,0c-.032,0,0,.042-.065.018a.054.054,0,0,0-.083-.015.281.281,0,0,1-.16.027.31.31,0,0,0-.108.005c0,.023.068.014.071.036a.322.322,0,0,1-.164.02.651.651,0,0,0-.129-.005c-.053,0-.023-.048-.1-.029-.046.012-.009.038-.042.048a.655.655,0,0,1-.281-.04.213.213,0,0,0-.139-.039c-.059,0-.122,0-.146-.033s-.061-.017-.1-.007c-.143.039-.162.038-.253-.016l-.057.033c-.044.026-.24.021-.253-.009s-.082-.051-.164-.05l-.031,0c-.116.012-.137.024-.083.044.077.029-.088.04-.017.066a.194.194,0,0,0,.079.011c.043,0,.085-.009.128-.01l.033,0s0,0,0,0l-.03,0c-.067,0-.137.008-.089.052,0,0-.014.007-.023.009l-.054.008c-.03,0-.058-.007-.088-.009l-.012-.006a.634.634,0,0,0-.3.023.16.16,0,0,1-.084.006,1.884,1.884,0,0,0-.354-.026c-.046,0-.08-.01-.044-.034a.036.036,0,0,0,.007-.014.633.633,0,0,1,.082-.028h.04c.044,0,.039.013.051.024a.352.352,0,0,0,.336.028.132.132,0,0,1,.085-.012c.042.006.085.008.086-.019s0-.049-.079-.043a.086.086,0,0,1-.108.011.47.47,0,0,0-.172-.026,1.77,1.77,0,0,1-.179-.024.427.427,0,0,1,.067-.009,1.169,1.169,0,0,0,.184.02c.031.007.06,0,.065-.015s-.084-.062-.128-.051a.478.478,0,0,1-.174,0c-.084-.008-.158-.008-.189.038a.409.409,0,0,0-.237-.02c-.032,0,0,.037-.054.02-.011-.019-.058-.029-.161-.036a.333.333,0,0,1-.168-.005c-.028-.013-.079,0-.074.012.015.041-.049.034-.1.038a.2.2,0,0,0-.082-.009h-.366a.16.16,0,0,1-.1-.015.345.345,0,0,1,.08-.009c.035-.006.1.006.1-.023s-.064-.018-.1-.015a3.805,3.805,0,0,0-.551-.012l-.01,0a.574.574,0,0,0-.188-.014c-.117-.012-.234.007-.351,0-.2-.008-.411-.011-.614-.027a1.27,1.27,0,0,0-.168,0,.789.789,0,0,1-.184.01c-.118-.02-.247,0-.365-.018-.026,0-.078.005-.045.018.128.049.058.08-.035.112a1.224,1.224,0,0,0-.24-.007,1.259,1.259,0,0,0-.22-.01c.008-.014.063-.023.026-.041a.171.171,0,0,0-.109,0c-.023,0-.047.007-.07.011l-.021-.01a.266.266,0,0,0-.084-.04c-.053-.019-.051-.03.023-.03.026,0,.061,0,.063-.013s-.037-.014-.063-.017a1.684,1.684,0,0,0-.224-.01,4.566,4.566,0,0,0-.8.023,1.178,1.178,0,0,0,.422,0c.039.039-.035.074,0,.11.045,0,.044-.016.051-.025.022-.026.079-.038.118-.056.069-.031.08.019.126.025s-.025.028-.016.042c.028.045.1.018.152.016a.6.6,0,0,0,.16.038l.02,0s0,0,0,0a.7.7,0,0,1-.328.05c-.157-.008-.312-.022-.472-.015-.02-.037-.1-.047-.152-.072h0c0-.037-.069-.05-.121-.053a.459.459,0,0,1-.214-.075.183.183,0,0,0-.121-.037c-.1-.007-.194,0-.287,0-.188-.008-.376,0-.563-.007-.047,0-.09,0-.084.03s-.038.018-.065.024c-.058.012-.032-.011-.041-.019a.081.081,0,0,0-.062-.014l-.066.008a.165.165,0,0,0-.07-.02.271.271,0,0,0-.151.008c-.027.007.024.019.033.03-.021.024-.1.028-.1.056,0,.049-.075.055-.151.063,0-.024-.057-.014-.075-.027-.028-.031.064-.013.066-.032s.027-.022,0-.026c-.064-.009-.037-.009,0-.02s.052-.03.035-.045a.13.13,0,0,0-.1-.005c-.068.023-.162.03-.2.069.011.012-.034.023,0,.036.072.03.022.042-.04.052l-.019,0a.3.3,0,0,0-.113.009c.031.008.072,0,.086.018a.285.285,0,0,1-.216-.019c-.055-.03-.14.019-.2-.018.1-.005.1-.082.238-.053,0,0,.015-.006.023-.009.069-.022,0-.036-.012-.055-.019-.034-.048-.03-.094-.013-.081-.035-.131,0-.2.018.029.016.079.026.063.051l-.017.012c-.027.019-.146.027-.041.063-.013.006-.015.022-.032.025h0a.074.074,0,0,1-.036-.006c-.06-.022-.106-.035-.122.015a.245.245,0,0,1-.057.01c-.045-.015-.1,0-.166-.012a.843.843,0,0,0,.125-.025.617.617,0,0,0-.138-.005.339.339,0,0,1-.259,0,.247.247,0,0,0-.088-.056l.086-.011a.343.343,0,0,0,.1,0c0-.031-.075-.008-.1-.025a.127.127,0,0,1,.019-.01c.022-.008.052-.015.024-.031a.08.08,0,0,0-.059-.017c-.036.005-.05.023-.039.035s.006.023-.017.031H67.9c.015-.014.045-.033-.009-.038s-.044.023-.06.037-.031.018-.02.031l-.023.048a.15.15,0,0,1-.063.011c-.06-.006-.045.044-.114.03-.032-.011-.085,0-.107-.021s-.087-.027-.13-.041c0-.013-.012-.027.018-.037a.032.032,0,0,0,.044.017c.031-.014.066-.032.065-.056s-.026-.024-.064-.02a.716.716,0,0,1-.119.009c-.063,0-.1.013-.036.04-.021,0-.041.008-.048.019a.57.57,0,0,0-.172,0,.187.187,0,0,0-.155.009.32.32,0,0,0,.157.011l.213,0,.03.007c.013.026.073.032.108.048.008.034-.064.024-.091.026-.165.015-.338-.014-.5.016a.069.069,0,0,1-.019,0c.019-.029.046-.059-.073-.048a.057.057,0,0,1-.045-.018h0c-.028-.014-.059-.035-.1-.013s-.026.039.026.054c.022.006.061.007.048.026-.015,0-.013.012-.02.015-.025.01.056.032-.023.035-.046,0-.071,0-.066-.025s-.028-.013-.05-.016a1.335,1.335,0,0,0-.281.018.481.481,0,0,0-.217.024c-.045,0-.074-.012-.08-.033s-.01-.017-.032-.016-.027.008-.028.018c0,.045-.063.041-.127.029a.267.267,0,0,0-.123,0,.22.22,0,0,1-.136.009c-.017-.006-.042,0-.046.014s.009.015.03.016c.125.007.25.017.376.021.031,0,.108-.006.1-.019-.031-.031.02-.025.048-.031.007.034.092.048.116.037a.247.247,0,0,1,.174-.011,2.763,2.763,0,0,0,.341.014c-.035.026-.08.053.027.067.047.006.032.022.014.035a.085.085,0,0,1-.074,0c-.028-.007-.025-.029-.069-.027a.331.331,0,0,1-.036-.017.072.072,0,0,0-.059-.015c-.019,0-.022.012-.017.021s.038.016.069.012a.07.07,0,0,1,.021.007c-.007.032-.116.018-.119.051s-.076.023-.085.014c-.049-.048-.118-.028-.191-.017-.043.006-.108,0-.094-.021s.019-.054.106-.048c.027,0,.065,0,.055-.021s-.057-.023-.08-.017c-.1.023-.2.006-.3.019-.04.005-.106,0-.1.026s.069.015.11.011.054-.009.082-.009.09-.009.112.017a2.356,2.356,0,0,1-.361.016c-.09.005-.162,0-.123.061a.1.1,0,0,0-.1-.018c-.037.011.009.022.012.034s.032.044.013.043c-.088,0-.141.043-.231.027-.018,0-.051,0-.05-.011s.029-.012.046-.018c.05-.011.126-.016.068-.054a.72.72,0,0,0-.226-.021c-.021.007-.02.016-.015.026s.008.025.012.038c-.075,0-.151.008-.225.014-.044,0-.105-.018-.13.007s.075.015.076.038a.132.132,0,0,1-.072.008.781.781,0,0,0-.206,0,.733.733,0,0,1-.3-.015.4.4,0,0,0-.16-.031.886.886,0,0,0-.319.036c-.02.011-.048,0-.071,0a.523.523,0,0,0-.258.052c.017.014,0,.042.061.037a1.778,1.778,0,0,0,.279-.011.808.808,0,0,1,.185-.013c-.039.01-.092.013-.084.032s.058.015.093.017c.119.007.239-.015.359,0,.029,0,.046-.009.049-.021.005-.027.046-.027.093-.029.1,0,.192.018.292.015.033,0,.037.01.024.024a.241.241,0,0,1-.2.03c.017-.009.043-.016.043-.029s0-.02-.028-.024-.053-.006-.055.006-.042.034-.056.052l-.029.012c-.247.009-.495.007-.742.011-.045,0-.065-.011-.069-.03s-.017-.025-.053-.026a.1.1,0,0,0-.063.016h0c0-.029-.031-.031-.123-.03-.038.008-.079.019-.09-.012-.008-.016.116-.03,0-.047a.03.03,0,0,1,.019-.039c.056-.011.073-.038.034-.05a.407.407,0,0,0-.227.014c.08,0,.106.016.107.046s-.087.023-.134.031-.079.021-.128.02c-.08.015-.07-.012-.07-.031,0-.036-.027-.05-.1-.029-.019-.023-.02-.059-.1-.017a.53.53,0,0,0-.1.042.136.136,0,0,1-.1.022c-.109-.017-.185-.007-.23.042-.084.016-.2,0-.256.042.014.009.051,0,.059.016-.021.016-.077.028-.032.054a.4.4,0,0,1,.161-.026.206.206,0,0,0,.153.012h0l0-.01h0c.116-.01.078.024.07.049s-.03.021-.07.024c-.07.006-.111-.029-.179-.019-.155.023-.322.022-.475.048a1.288,1.288,0,0,0-.18,0c-.041-.005-.062.013-.1.015-.073,0-.072.006-.075.034a1.519,1.519,0,0,0,.257-.015.2.2,0,0,0,.05.005.1.1,0,0,1,.087,0c.045.031.076.06-.036.075,0,0,0,0,0,0-.091.045-.219-.006-.316.024,0,0-.011,0-.018,0s-.041,0-.041.011c0,.044-.073.035-.121.03s-.107.035-.169.008c-.046-.049-.187,0-.238-.046,0,0-.031,0-.034.014-.016.041-.062.022-.1.011.022-.02,0-.021-.037-.019-.094.006-.1.055-.178.069h0a.719.719,0,0,1-.13-.011c-.028-.01-.044-.005-.049.009-.055.025-.149.011-.2.04l-.11,0c.015-.043.1-.034.152-.047.036-.009-.01-.054.1-.034a.745.745,0,0,1-.117-.033c.006-.014.021-.019.05-.01a.333.333,0,0,1,.173.036c0-.023,0-.037.023-.046.037-.026.015-.038-.048-.037-.019,0-.041.012-.06.006a.758.758,0,0,0-.285.012.418.418,0,0,1-.115,0c-.048,0-.087,0-.09.029h0c-.043.012.032.034-.012.042a.124.124,0,0,0-.086.053.341.341,0,0,1-.245.057.108.108,0,0,0-.1,0,.366.366,0,0,1-.071.022c-.043.006-.09.006-.135.009a.152.152,0,0,1,.016-.055c.006-.009.048-.013.029-.027a.114.114,0,0,0-.061-.005c-.031,0-.052.009-.05.026s0,.039-.065.022c-.02-.005-.025,0-.02.009.017.023-.014.022-.045.017a.6.6,0,0,0-.238.017c-.049.013-.115-.018-.144.017a1.089,1.089,0,0,1-.218.021h0c-.136.013-.272.027-.409.037-.069.005-.1.017-.1.049l-.464.049a.186.186,0,0,1-.042,0,.164.164,0,0,0-.171.013.248.248,0,0,1-.129.029c-.031,0-.068,0-.073.019l-.061.012a.218.218,0,0,0-.138.03c.069-.02.156,0,.223-.021l.214-.012c.058.012.088-.018.137-.018v.01c.013.036-.065.074-.162.079a.345.345,0,0,0-.215.05c.043,0,.09-.006.134-.012a2.43,2.43,0,0,0,.309-.045.752.752,0,0,0,.132-.012c.1-.007.2-.015.3-.02s.111.013.075.048c-.053.007-.108.015-.156.024a.737.737,0,0,0-.2.026.57.57,0,0,1-.082.012c-.207,0-.39.046-.59.061a.983.983,0,0,0-.211.035h0l-.14.01a.661.661,0,0,0-.232.031c-.017.008-.056.015-.035.029a.127.127,0,0,0,.08.007c.1-.013.2-.022.29-.039a2.856,2.856,0,0,0,.376-.057c.176,0,.327-.05.5-.047a.19.19,0,0,0,.046-.011c.137-.027.287-.031.429-.049a1.63,1.63,0,0,1,.474-.023.138.138,0,0,0,.084-.017,2.634,2.634,0,0,0,.444-.027h0a.921.921,0,0,0,.263-.02l.217-.021a1.928,1.928,0,0,1,.469.03l-.048.02c-.151.008-.3.016-.45.033a2.137,2.137,0,0,1-.37.026c-.071,0,.017.033-.031.044-.007,0-.028.007.006.009a1.1,1.1,0,0,0,.189.005c.08-.01.167-.01.246-.019a4.119,4.119,0,0,0,.483-.021.12.12,0,0,1,.08.01,1.785,1.785,0,0,1-.306.043.572.572,0,0,0-.221.036,1.447,1.447,0,0,0-.17,0c-.137.005-.272.011-.4.027-.182.023-.372.025-.555.045-.1.011-.1.015-.141.05a2.292,2.292,0,0,1,.389-.034c.269-.02.53-.06.805-.061.029,0,.066,0,.1,0l.022,0c.022,0,.038.014.041.035a2.788,2.788,0,0,0-.425.021,2.569,2.569,0,0,1-.327.019c-.27.015-.536.042-.8.059-.108.022-.237.01-.347.038.017.012.1.007.038.032a.378.378,0,0,1-.109.01c-.106-.037-.123-.036-.206.016a.03.03,0,0,1-.025,0,1.089,1.089,0,0,1-.147-.011.212.212,0,0,0-.219.068.708.708,0,0,0-.206.022c-.025.008-.058.008-.07-.008-.026-.035-.024-.035-.1-.015a1.109,1.109,0,0,0-.285.024c-.028,0-.046.02-.021.036.006.012.035.013.05.02l0,0a1.165,1.165,0,0,1-.245.028.526.526,0,0,0-.2.029c-.11-.041-.109-.041-.191.013-.011.007-.046.021-.06.007-.054-.048-.087,0-.156,0,.068.006.107.011.1.035l-.083.021a.333.333,0,0,0-.182.039.825.825,0,0,0,.2-.02h0l.044,0a.05.05,0,0,1-.021.05h0c-.1.006-.148.051-.242.059h0c-.062.009-.129.015-.155.048-.044.008-.072-.03-.1-.014a2.242,2.242,0,0,1-.251.063h0a.207.207,0,0,0-.159.008.642.642,0,0,1-.234.026c-.05,0-.089-.006-.112.022s-.042.026-.053,0c0-.01-.018-.009-.03,0a.926.926,0,0,1-.256.047.311.311,0,0,0-.152.04c-.034,0-.057.028-.094.02-.182-.037-.285.046-.436.059-.057,0-.127.03-.2.037a.177.177,0,0,0-.1.023c-.088.027-.2.027-.287.059-.041,0-.1.005-.1.03s.062.011.095.016a.851.851,0,0,0,.242-.022c.245-.021.468-.071.7-.1a3.153,3.153,0,0,1,.4-.043c.064,0,.1,0,.131-.026.06-.015.122-.026.188-.036a3.944,3.944,0,0,0,.456-.061,1.87,1.87,0,0,0,.345-.041h.184c.036,0,.092-.021.1,0s-.06.025-.1.034c-.022,0-.051,0-.074.006-.044.008-.1.008-.114.037-.087.016-.18.025-.269.037s-.216.021-.25.059c-.067.075-.242.1-.322.171-.048.04-.16.049-.214.087-.2.079-.378.165-.551.254a.083.083,0,0,0-.071.04c-.031.083-.188.143-.2.228,0,.017-.014.036-.053.046a.056.056,0,0,0-.038.015c-.083.066,0,.125.058.18a.386.386,0,0,0,.2.118,1.271,1.271,0,0,0,.4.118,1.711,1.711,0,0,1,.266.055,4.293,4.293,0,0,0,.572.114,3.161,3.161,0,0,1,.554.123,6.158,6.158,0,0,1-.675.051c.014-.012.083,0,.059-.025s-.06,0-.092,0c-.051,0-.05.013-.035.029a3.258,3.258,0,0,0-.423.008.737.737,0,0,1-.162-.008c-.043,0-.077-.011-.067-.04,0-.008.02-.029-.035-.047a1.382,1.382,0,0,0-.322-.029,3.812,3.812,0,0,0-1.025.077.7.7,0,0,1-.136,0,.816.816,0,0,0-.31,0c.107.009.195.018.284.023a.375.375,0,0,1,.1.017c-.045.016.018.037-.008.048a.214.214,0,0,1-.114,0,.25.25,0,0,0-.15.014c.1.01.183.022.267.025.107,0,.1.037.093.064s-.064.02-.107.02h-.433a1.743,1.743,0,0,0,.317.017c.036,0,.086,0,.086.018s.045.043.039.071l-.4-.011c-.02,0-.048-.006-.052.008s.029.013.052.013l.325.006c.071,0,.138,0,.083.046-.012.01.008.025.014.037.019.045.1.082.111.122.027.078.15.115.276.143a6.907,6.907,0,0,0,1.073.193c.018.016.066.006.087.02h-.019c-.025,0-.051,0-.074,0a.422.422,0,0,0-.253.094c-.016.016-.068.027-.043.049s.068.012.107.01l.06,0a.3.3,0,0,0,.109.009.362.362,0,0,0,.136.018c.034.017.026.054.111.049l.108.021c.083.047.21.021.31.038l.019,0c-.031.027-.008.051.034.073a1.955,1.955,0,0,1-.28.013.209.209,0,0,0-.128.03c-.127.029-.277.027-.435.059a1.148,1.148,0,0,0,.189.011c.062.022.1.042-.019.05-.021,0-.048,0-.053.013s.028.017.047.022.046.008.069.012c0,.006-.041.014-.01.017a1.618,1.618,0,0,0,.3.03h0c0,.041-.093.077-.034.124.013.01-.029.031-.078.033-.022,0-.049.006-.024.018.042.02.028.038,0,.057s-.009.025.024.028c.087.007.066.044.1.067-.065.013-.057.062-.131.063s-.054.023-.07.037.019.02-.011.026c-.1.018-.024.032.007.045a.268.268,0,0,0,.132.013l.193.021c.017.015.084,0,.081.022s-.032.028-.071.033a.162.162,0,0,0-.039.008c-.046.019-.078.037.011.052.05.008.1.019.148.029a.228.228,0,0,1-.16.047.517.517,0,0,0-.188.034.868.868,0,0,0-.1.011c-.039.009-.114,0-.1.038s.047.049.12.049h0a1.783,1.783,0,0,0,.4.1h0a1.212,1.212,0,0,0,.244.048c.032,0,.07,0,.079.021s.07.029.108.042c.092.032.266.008.29.085a.044.044,0,0,0,.026.008,4.1,4.1,0,0,1,.428.05c.175.015.349.027.52.052a2.048,2.048,0,0,0,.413.038c.064.005.129.012.193.015.3.014.58.064.882.064.021,0,.042.006.063.009a.6.6,0,0,0-.1.021.392.392,0,0,0-.165.053l-.127-.016a1.074,1.074,0,0,0-.171-.022,1.878,1.878,0,0,0-.312-.037h0a1.594,1.594,0,0,0-.307-.041.72.72,0,0,0-.278-.018.194.194,0,0,1-.041-.005c-.1-.01-.19-.022-.286-.03-.039,0-.1-.011-.111.015s.047.036.092.04a1.234,1.234,0,0,0,.153,0,.441.441,0,0,1,.307.073.2.2,0,0,0,.122.025,1.29,1.29,0,0,1,.26.011h0c.031.06.138.047.23.047l.065,0c.125-.007.159,0,.18.059,0,.008.012.011.029.011.058,0,.109.013.171.009l.072-.006a1.234,1.234,0,0,1-.181.03.188.188,0,0,0-.152.048.161.161,0,0,1-.128.046c-.024,0-.047,0-.043.016s-.022.033-.032.05c-.094.021-.147.064-.239.086-.018,0-.018.015-.029.022-.041.026-.059.064-.138.073a1.622,1.622,0,0,0-.375.117.843.843,0,0,1-.131.041c-.055.009-.088.031-.074.055.025.041-.013.069-.073.1-.024.011-.046.025-.067.037a.286.286,0,0,1-.137.057c-.046,0-.06.018-.1.024a1.138,1.138,0,0,0-.228.064c-.024.009,0,.049-.075.025a.157.157,0,0,1-.016.006c-.094.013-.1.056-.144.085s-.007.027.035.028c.017,0,.034,0,.051,0,.082,0,.134.009.159.039a.028.028,0,0,0,.016.006.173.173,0,0,1,.095.015.129.129,0,0,1,.081.053.267.267,0,0,0,.156.083h0c.006.014.011.016.057.02.022,0,.055,0,.053.012s.031.05,0,.072c-.056.041.03.058.068.078s.036-.015.061-.02h.022a1.159,1.159,0,0,0,.188-.023,1.207,1.207,0,0,1,.2-.01.57.57,0,0,0,.177,0c.018,0,.04-.006.048.006a.14.14,0,0,1,.031.057c0,.028.027.041.09.04.03.01.084.007.093.031,0,.008.016.007.026,0a.222.222,0,0,1,.194.007.094.094,0,0,1,.019.058c0,.035.075.054.177.037-.067,0-.078-.021-.113-.027.024-.025.061-.014.1-.009s.053.042.077,0c0-.006.021,0,.033,0s.012.006.013.011c.012.047.039.058.146.059a.409.409,0,0,1,.122.015.156.156,0,0,0,.117-.007c.022-.026.061-.024.1-.028.007.011.044.013.038.026-.013.032.039.023.074.023.012,0,.031-.011.037-.005.036.033.079.005.111,0s.068-.008.083-.025-.007-.008-.016-.01a.28.28,0,0,0-.106,0c-.008,0-.012.007-.02.009a.058.058,0,0,1-.046,0c-.026-.017-.079-.022-.1-.043s-.013-.014.014-.014.084,0,.121.014.1,0,.148.013c0,0,.02.008.021.005.016-.022.051-.016.084-.012s.067.007.1.012.032.021,0,.026c-.05.008-.079.021-.084.044,0,.007-.032,0-.022.012a.054.054,0,0,0,.04.005,1.343,1.343,0,0,1,.2-.006.09.09,0,0,0,.077-.01c-.028.029-.015.038.046.029a.041.041,0,0,1,.029.015l.027.02a.037.037,0,0,0,.04.007.339.339,0,0,1,.168-.007c.016.031.031.035.078.018-.005-.016.014-.021.047-.019a.3.3,0,0,0,.115-.013c.026-.006.014-.017.014-.026v-.014c.037-.006.018-.023.034-.033a.268.268,0,0,1,.118.012h.01c0,.006,0,.012-.007.018-.053.025-.053.025.025.036a.328.328,0,0,0,.055.007l-.038.015c-.026.01-.012.021-.006.032.053-.015.062.022.105.018s.05-.025.092-.014c.016,0,.03.02.045,0a.456.456,0,0,1,.056-.056.039.039,0,0,1,.031-.014c.06,0,.125-.027.179.007-.074.027.013.033.032.047-.017.008-.061,0-.049.024s0,.018.028.02.054,0,.056-.01.053-.023.056-.041.025-.013.041,0,.06.005.09,0c-.011-.019.053-.023.041-.042,0,0-.008,0-.012,0-.037-.011-.108,0-.113-.032a.082.082,0,0,1,.035,0c.143.021.161.035.126.095,0,.007-.009.016.011.02s.042.007.052,0c.029-.029.054-.01.081,0,0,.036.054.015.088.014a.131.131,0,0,0,.06.012c.009.017.031.018.057.008a.126.126,0,0,1,.048-.014,1.371,1.371,0,0,1,.194.04h0l-.031.014-.028-.008c-.027-.02-.052-.024-.076,0v.014c0,.008-.012.019.011.023.051.01.126-.01.138-.037.047-.009-.016-.022.006-.033a.121.121,0,0,0,.11-.013c0,.007-.019.011-.01.017.04.023.087,0,.129,0s.017-.014.005-.022,0-.012.01-.014c.058-.01.026-.014,0-.02s-.031-.012-.015-.023-.01-.017.01-.015a.584.584,0,0,0,.148-.012.054.054,0,0,1,.046.013c.008.008,0,.015-.015.02-.051.018-.051.02,0,.041s-.019.012-.013.02c-.032.022-.054.043.027.054.037.012.065.015.061-.013,0-.011-.006-.025.032-.009s.066.02.089-.005a.124.124,0,0,1,.071,0,.2.2,0,0,0,.108,0,.245.245,0,0,1,.181-.015.126.126,0,0,0,.041,0,.208.208,0,0,1,.154.008.188.188,0,0,0,.065,0,.678.678,0,0,1,.123-.006c-.007.021-.041.019-.076.02-.051,0-.071.019-.038.035a.225.225,0,0,0,.173.038.141.141,0,0,0,.079.012c.06,0,.119,0,.146.03a.038.038,0,0,0,.035,0,.047.047,0,0,0,.017-.039c0-.008-.027-.013-.054-.011s-.044,0-.065,0c-.053.005-.074-.007-.083-.027v-.013l.041-.011c-.009-.007-.029-.007-.04-.011s-.063.006-.079-.011c.043-.01.1,0,.139-.015a.861.861,0,0,0,.177.014c.045.015.01.035.014.053,0,0,0,.006,0,.006a1.8,1.8,0,0,0,.23.018c.033,0,.047,0,.062.014-.038,0-.072-.006-.105,0s-.05-.006-.06,0,.024.015.034.023,0,.013,0,.019-.019.02.01.026a.045.045,0,0,0,.05-.016.073.073,0,0,1,.019,0c.04,0,.076,0,.087-.019a1.438,1.438,0,0,0,.15.007.71.71,0,0,0,.188.018.252.252,0,0,1,.126.014v.008c-.009.005-.021.01,0,.014a.444.444,0,0,0,.085,0,.507.507,0,0,1,.163.007h0a.233.233,0,0,0,.134,0c.022,0,0-.028.044-.012a.037.037,0,0,0,.057.01.191.191,0,0,1,.108-.018.209.209,0,0,0,.073,0c0-.015-.046-.009-.048-.024a.218.218,0,0,1,.111-.013.445.445,0,0,0,.088,0c.035,0,.015.033.067.019.031-.008.006-.026.029-.033a.445.445,0,0,1,.19.027.144.144,0,0,0,.094.026c.04,0,.082,0,.1.022s.041.012.067,0c.1-.026.11-.026.171.011l.039-.023c.03-.018.162-.014.171.006s.056.035.111.034l.021,0c.079-.008.093-.016.056-.03s.06-.027.012-.044a.13.13,0,0,0-.054-.008c-.029,0-.057.006-.086.007l-.022,0s0,0,0,0l.02,0c.045,0,.093-.005.061-.035,0,0,.009,0,.016-.006l.037-.005.06.006.008,0a.428.428,0,0,0,.2-.016.108.108,0,0,1,.056,0,1.276,1.276,0,0,0,.239.017c.031,0,.054.006.03.023a.023.023,0,0,0-.005.009.43.43,0,0,1-.056.019h-.027c-.03,0-.026-.009-.034-.016a.238.238,0,0,0-.227-.019.089.089,0,0,1-.058.008c-.028,0-.058-.005-.058.013s0,.033.053.029a.058.058,0,0,1,.073-.008.322.322,0,0,0,.116.017,1.173,1.173,0,0,1,.121.016.313.313,0,0,1-.045.006.777.777,0,0,0-.125-.013c-.021,0-.041,0-.044.01s.057.042.086.035a.322.322,0,0,1,.118,0c.057.006.107.005.128-.026a.277.277,0,0,0,.16.013c.022,0,0-.025.037-.014.008.013.039.02.109.024a.223.223,0,0,1,.114,0c.019.008.053,0,.05-.008-.01-.028.033-.023.066-.026a.135.135,0,0,0,.056.006H66.6a.109.109,0,0,1,.065.01.238.238,0,0,1-.054.006c-.024,0-.07,0-.066.016s.043.012.068.01a2.572,2.572,0,0,0,.373.008H67a.385.385,0,0,0,.127.01c.079.008.158,0,.238,0,.139.006.278.007.415.018a.86.86,0,0,0,.114,0,.532.532,0,0,1,.124-.007c.08.013.167,0,.247.012.018,0,.053,0,.03-.012-.086-.033-.039-.054.024-.076a9.708,9.708,0,0,1,.311.012c-.005.009-.042.016-.017.028a.116.116,0,0,0,.074,0l.048-.008.014.007a.178.178,0,0,0,.057.027c.036.013.035.02-.016.02-.017,0-.041,0-.042.009s.025.009.043.011a1.108,1.108,0,0,0,.151.007,3.076,3.076,0,0,0,.544-.016.8.8,0,0,0-.285,0c-.026-.026.021-.049,0-.073a.289.289,0,0,0,.071.007c.023,0,.046,0,.044-.014s-.043-.024-.08-.023-.052,0-.054.019a.035.035,0,0,0,.015.011c-.026,0-.027.011-.031.016s-.053.026-.08.038c-.047.021-.054-.013-.085-.017s.017-.019.011-.028c-.019-.03-.066-.012-.1-.011a.265.265,0,0,0-.091-.023.4.4,0,0,0,.055-.015.139.139,0,0,0-.03-.009.537.537,0,0,1,.164-.018c.106.005.211.015.319.01.013.025.07.032.1.049h0c0,.025.047.034.082.036a.31.31,0,0,1,.145.051.124.124,0,0,0,.082.025c.066,0,.131,0,.194,0,.127.006.254,0,.381,0,.032,0,.061,0,.057-.02s.026-.012.044-.016c.039-.008.022.007.028.013a.054.054,0,0,0,.042.009l.045,0a.112.112,0,0,0,.047.013.184.184,0,0,0,.1-.005c.018,0-.016-.013-.022-.02.014-.016.07-.019.069-.038,0,0,0-.005,0-.008a.346.346,0,0,1,.1.014s0,.007.006.009l.021,0,0,0-.025.007c-.018.005-.035.02-.024.031a.089.089,0,0,0,.067,0c.046-.015.11-.02.137-.046-.007-.008.023-.016,0-.024-.049-.02-.015-.028.027-.035h.013a.261.261,0,0,0,.061,0,2.077,2.077,0,0,0,.21.018.2.2,0,0,0-.03.014c-.028,0-.063-.007-.077.007a.006.006,0,0,0,0,.009.126.126,0,0,1-.023,0s-.01,0-.016.006c-.047.015,0,.024.008.037s.033.02.064.009a.107.107,0,0,0,.017,0c0,.013-.027.029.015.037a.066.066,0,0,0,.074-.024.115.115,0,0,1,.029-.006c.058,0,.112.006.128-.028l.013,0c0,.007,0,.013.03.01l.039,0a.668.668,0,0,1,.14,0,1.055,1.055,0,0,0,.278.026.373.373,0,0,1,.186.021v.012c-.013.008-.03.015,0,.021a.655.655,0,0,0,.126.007.745.745,0,0,1,.24.01h0a.345.345,0,0,0,.2,0c.032,0,0-.042.065-.018a.054.054,0,0,0,.084.015.281.281,0,0,1,.16-.027.31.31,0,0,0,.108-.005c0-.023-.068-.014-.071-.036a.322.322,0,0,1,.164-.02.65.65,0,0,0,.129.005c.052,0,.023.048.1.029.046-.012.009-.038.042-.048a.656.656,0,0,1,.281.04.212.212,0,0,0,.139.039c.059,0,.122,0,.146.033s.061.017.1.007c.143-.039.162-.038.253.016l.057-.033c.044-.026.24-.021.253.009s.082.051.164.051l.031,0c.116-.012.137-.024.083-.044-.077-.029.088-.04.017-.066a.2.2,0,0,0-.079-.011c-.043,0-.085.009-.128.01l-.033,0s0,0,0,0l.03,0c.067,0,.137-.008.089-.052,0,0,.014-.007.023-.009l.054-.008c.03,0,.058.007.088.009l.012.006a.635.635,0,0,0,.3-.023.16.16,0,0,1,.084-.006,1.869,1.869,0,0,0,.354.026c.046,0,.08.01.044.034a.035.035,0,0,0-.007.014.629.629,0,0,1-.082.028h-.04c-.044,0-.039-.013-.051-.024a.352.352,0,0,0-.335-.028.132.132,0,0,1-.085.012c-.042-.006-.085-.008-.086.019s0,.049.079.043a.086.086,0,0,1,.108-.011.472.472,0,0,0,.172.026,1.735,1.735,0,0,1,.179.024.423.423,0,0,1-.067.009,1.16,1.16,0,0,0-.184-.02c-.031-.007-.06,0-.065.015s.084.062.128.051a.477.477,0,0,1,.174,0c.084.008.158.008.189-.038a.409.409,0,0,0,.237.02c.032,0,0-.037.054-.02.011.019.058.029.161.036a.333.333,0,0,1,.168.005c.028.013.079,0,.074-.012-.015-.041.049-.034.1-.038a.2.2,0,0,0,.082.009h.366a.162.162,0,0,1,.1.015.344.344,0,0,1-.08.009c-.035.006-.1-.006-.1.023s.064.018.1.015a3.819,3.819,0,0,0,.551.012l.01,0a.574.574,0,0,0,.188.014c.117.012.234-.007.351,0,.2.008.411.011.614.027a1.263,1.263,0,0,0,.168,0,.79.79,0,0,1,.184-.01c.118.02.247,0,.366.018.026,0,.078-.005.045-.018-.128-.049-.058-.08.035-.112a14.8,14.8,0,0,1,.46.017c-.008.014-.063.023-.026.041a.171.171,0,0,0,.109,0l.07-.011.021.01a.269.269,0,0,0,.085.04c.053.019.051.03-.023.03-.026,0-.061,0-.063.013s.037.014.063.017a1.682,1.682,0,0,0,.224.01,4.559,4.559,0,0,0,.8-.023,1.176,1.176,0,0,0-.422,0c-.039-.039.035-.074,0-.11-.044,0-.043.016-.051.025-.022.026-.079.038-.118.056-.069.031-.08-.019-.126-.025s.025-.028.016-.042c-.028-.045-.1-.018-.152-.016a.6.6,0,0,0-.16-.038l-.02,0s0,0,0,0a.7.7,0,0,1,.328-.05c.157.008.312.021.472.015.02.037.1.047.153.072h0c0,.037.069.05.121.053a.46.46,0,0,1,.214.075.183.183,0,0,0,.121.037c.1.007.194,0,.287,0,.188.009.376,0,.563.007.047,0,.091,0,.084-.03s.038-.018.065-.024c.058-.012.032.011.041.019a.081.081,0,0,0,.062.014l.066-.008a.163.163,0,0,0,.069.019.271.271,0,0,0,.151-.008c.027-.007-.024-.019-.033-.03.021-.024.1-.028.1-.056,0-.049.075-.054.151-.063,0,.024.057.014.075.027.028.031-.064.013-.066.032s-.027.022,0,.026c.065.01.038.009,0,.02s-.052.03-.035.045a.131.131,0,0,0,.1.005c.068-.023.162-.03.2-.069-.011-.012.034-.023,0-.036-.072-.03-.022-.042.04-.051l.019,0a.3.3,0,0,0,.113-.009c-.031-.008-.072,0-.086-.018a.285.285,0,0,1,.216.019c.055.03.14-.019.2.018-.1.005-.1.082-.238.053,0,0-.015.006-.023.009-.069.022,0,.036.012.055.019.034.048.03.094.013.081.035.132,0,.2-.018-.029-.016-.079-.026-.063-.051l.017-.012c.027-.019.146-.027.041-.063.013-.006.015-.022.032-.025h0a.074.074,0,0,1,.036.006c.06.022.106.035.122-.014a.245.245,0,0,1,.057-.01c.046.015.1,0,.167.012a.839.839,0,0,0-.125.025.619.619,0,0,0,.138.005.339.339,0,0,1,.259,0,.25.25,0,0,0,.088.056l-.086.011a.346.346,0,0,0-.1,0c0,.031.075.009.1.026a.115.115,0,0,1-.019.01c-.022.008-.052.015-.024.031a.08.08,0,0,0,.059.017c.037-.005.05-.023.04-.035s-.006-.023.017-.031h.039c-.015.014-.045.033.009.038s.044-.023.06-.037.031-.018.019-.031l.023-.048a.151.151,0,0,1,.063-.011c.06.006.045-.044.114-.03.032.011.085,0,.107.021s.087.027.13.041c0,.013.012.027-.018.037a.032.032,0,0,0-.044-.017c-.031.015-.066.032-.065.056s.026.024.064.02a.723.723,0,0,1,.119-.009c.063,0,.1-.013.036-.04.021,0,.041-.008.048-.019a.568.568,0,0,0,.171,0,.187.187,0,0,0,.155-.009.32.32,0,0,0-.157-.011l-.213,0-.03-.007c-.013-.026-.073-.032-.108-.048-.008-.033.064-.024.091-.026.165-.015.338.014.5-.016a.076.076,0,0,1,.019,0c-.019.029-.046.059.073.049a.057.057,0,0,1,.045.018h0c.027.014.059.035.1.013s.026-.039-.026-.054c-.022-.006-.061-.007-.048-.026.015,0,.013-.012.02-.015.025-.01-.056-.032.022-.035.046,0,.071,0,.067.026s.027.013.05.016a1.333,1.333,0,0,0,.281-.018.482.482,0,0,0,.217-.024c.045,0,.074.012.08.033s.01.017.032.016.027-.008.028-.018c0-.045.063-.041.127-.029a.268.268,0,0,0,.123,0,.22.22,0,0,1,.136-.009c.017.006.042,0,.046-.014s-.009-.015-.03-.016c-.125-.007-.25-.017-.376-.021-.031,0-.108.006-.1.019.031.031-.02.025-.048.031-.007-.034-.092-.048-.116-.037a.247.247,0,0,1-.174.011,2.772,2.772,0,0,0-.341-.014c.035-.026.08-.053-.027-.067-.047-.006-.032-.022-.014-.035a.085.085,0,0,1,.074,0c.028.007.025.029.069.027a.326.326,0,0,1,.036.017.072.072,0,0,0,.059.015c.02,0,.022-.012.017-.02s-.038-.016-.069-.012a.067.067,0,0,1-.021-.007c.007-.032.116-.018.119-.051s.076-.023.085-.014c.049.048.118.028.191.017.043-.006.108,0,.094.021s-.019.054-.106.048c-.027,0-.066,0-.055.021s.057.023.08.017c.1-.023.2-.006.3-.019.04-.005.106,0,.1-.026s-.069-.015-.11-.011-.055.009-.082.009-.09.009-.112-.017a2.363,2.363,0,0,1,.361-.016c.09,0,.162,0,.123-.061a.1.1,0,0,0,.1.018c.037-.011-.009-.022-.012-.034s-.032-.044-.013-.043c.088,0,.141-.043.231-.027.018,0,.051,0,.05.011s-.03.012-.046.018c-.05.011-.126.016-.068.054a.715.715,0,0,0,.226.021c.021-.007.02-.016.015-.026a.325.325,0,0,1-.012-.038c.075,0,.151-.008.225-.014.044,0,.105.018.13-.007s-.075-.015-.076-.038a.133.133,0,0,1,.072-.008.782.782,0,0,0,.206,0,.731.731,0,0,1,.3.015.4.4,0,0,0,.16.031.883.883,0,0,0,.319-.036c.02-.011.048,0,.071,0a.524.524,0,0,0,.258-.052c-.017-.014,0-.042-.061-.037a1.78,1.78,0,0,0-.279.011.8.8,0,0,1-.185.013c.039-.01.092-.013.084-.032s-.058-.015-.093-.017c-.119-.007-.239.015-.359,0-.029,0-.046.009-.049.021-.005.027-.046.027-.093.029-.1,0-.192-.018-.292-.015-.033,0-.037-.01-.024-.024a.241.241,0,0,1,.2-.03c-.017.009-.043.016-.043.029s0,.02.028.024.053.005.055-.006.042-.034.056-.052l.029-.012c.247-.009.495-.007.742-.011.045,0,.065.011.07.03s.017.025.053.026a.1.1,0,0,0,.063-.016h0c0,.029.031.031.123.03.038-.008.079-.019.09.012.008.016-.116.03,0,.047a.03.03,0,0,1-.019.039c-.056.011-.073.038-.034.05a.405.405,0,0,0,.227-.014c-.08,0-.106-.016-.107-.046s.087-.023.135-.031.079-.021.128-.02c.08-.015.07.012.07.031,0,.036.027.05.1.029.019.023.02.059.1.017a.53.53,0,0,0,.1-.042.136.136,0,0,1,.1-.022c.109.017.186.007.23-.042.084-.016.2,0,.256-.042-.014-.009-.051,0-.059-.016.021-.016.077-.028.032-.054a.4.4,0,0,1-.161.026.206.206,0,0,0-.153-.012h0l0,.01h0c-.116.01-.078-.024-.07-.049s.03-.021.07-.024c.07-.006.11.029.179.019.117-.018.241-.021.361-.033.242.019.482.043.731.037a.279.279,0,0,1,.1.012,1.08,1.08,0,0,0,.388.053l.1,0c.018.015-.006.044.051.039.039,0,.029-.021.026-.037.054,0,.108.008.162.016a2.548,2.548,0,0,0,.346.02c.293,0,.585.006.877,0,.72-.005,1.441.007,2.16-.031.3-.016.607-.018.907-.038.444-.03.884-.07,1.325-.1a.7.7,0,0,1,.141,0,1.979,1.979,0,0,0,.388-.009c.165.012.324-.027.488-.014a.706.706,0,0,0,.2-.011.8.8,0,0,1,.192-.015c.253.007.5-.009.755-.017.124,0,.248.007.371-.005a4.949,4.949,0,0,1,.56-.04,3.2,3.2,0,0,0,.33-.027,3.36,3.36,0,0,0,.394-.035.749.749,0,0,0,.18-.011,1.4,1.4,0,0,1,.365-.074,2.409,2.409,0,0,1,.736-.005.189.189,0,0,0,.157-.026.242.242,0,0,1,.167-.043c.131,0,.26-.013.387-.029l.543-.021c.108.007.207-.016.313-.018.022,0,.037-.006.026-.02-.024-.032.03-.045.081-.058l.182-.006,0-.012-.181,0c-.058-.018-.061-.019-.043-.026a.494.494,0,0,1,.18-.053.462.462,0,0,0,.171-.027,1.07,1.07,0,0,0,.22-.02c.058,0,.115,0,.173.006a4.207,4.207,0,0,0,.6-.025h.01l.009,0c.19,0,.379.014.568.021.263.01.525-.007.787.012a5.287,5.287,0,0,0,.591,0c.076,0,.15-.013.228-.011.379.013.757.033,1.136.035a10.727,10.727,0,0,0,1.352-.081,1.718,1.718,0,0,1,.246.034.46.46,0,0,0,.173.015c.05,0,.089-.014.032-.038-.023-.01-.056-.026-.038-.037.065-.039-.007-.046-.059-.06.051-.018.119-.008.173-.021s.087-.027.048-.033c-.092-.013-.127-.061-.226-.065a1.5,1.5,0,0,1-.338-.03c-.028,0-.051-.01-.061-.025-.047-.07-.078-.079-.236-.086-.126-.006-.245.019-.37.011a.451.451,0,0,0-.128-.008,3.718,3.718,0,0,1-.391-.015.849.849,0,0,1,.3-.032.477.477,0,0,0,.186.007l.421-.029a.076.076,0,0,0,.1,0,.4.4,0,0,1,.159-.034c.055,0,.155.016.163-.036l.025.008c-.006.015-.014.029.038.029-.029.02-.05.036.038.03.067-.005.149-.015.149.043.039-.028.023-.057.051-.079l.007-.005a.01.01,0,0,0,.005-.009c.024-.037.085-.042.17-.03-.046,0-.1,0-.094.033s.066.018.1.025a.152.152,0,0,0,.08-.009.582.582,0,0,0,.26-.019c.04-.016.1.008.141-.012.091.009.188,0,.275.013l.012-.039c.017-.005.016-.013.015-.021a.326.326,0,0,1,.051-.007c.044,0,.091-.005.089-.024s-.041-.027-.089-.028c-.078,0-.157,0-.235,0a.379.379,0,0,1-.091-.02c-.056.037-.085,0-.116-.011-.045.021,0,.037,0,.054a.778.778,0,0,0-.115-.007,2.089,2.089,0,0,1-.458-.021c-.035-.012.029-.039-.038-.048s-.005.029-.06.02c0-.025-.041-.042-.1-.051.014-.008.055-.007.046-.022s-.035-.009-.056-.008l-.191.01-.335,0a1.022,1.022,0,0,0-.24.009h-.037a.334.334,0,0,0-.28-.032.285.285,0,0,1-.052,0h0c-.034-.025-.075-.009-.11,0a.188.188,0,0,1-.079.011.711.711,0,0,0-.251,0,.182.182,0,0,0-.113,0,.162.162,0,0,1-.159,0,.281.281,0,0,0-.179,0c-.053.019.032.025.032.041a2.548,2.548,0,0,1-.32,0c-.055,0-.11,0-.166,0a.334.334,0,0,1-.129-.022,1.065,1.065,0,0,0-.493.02.119.119,0,0,1-.1,0,.318.318,0,0,0-.151-.02.735.735,0,0,1-.281-.057c.021-.014.038,0,.054,0,.372-.02.748-.01,1.122-.028.234-.011.473,0,.709-.01.207,0,.414-.02.621-.019.178,0,.349-.011.54-.026-.035,0-.051-.006-.068-.007-.268,0-.536-.009-.8,0s-.565.009-.848.009a2.787,2.787,0,0,1-.5,0,.59.59,0,0,0-.121,0c-.3.024-.615.014-.921.03-.139.007-.276-.01-.415-.008-.019-.007-.052,0-.067-.01l.018-.017c0-.028.061-.035.091-.052.13-.018.264,0,.4-.009h.174c.058-.005.094-.017.071-.047.118-.008.214.043.341.034-.018-.026-.074-.021-.091-.036l.1-.019.023.009c-.005.015,0,.03.025.04s.088.015.078-.005.045-.031.072-.043l.066-.02a.98.98,0,0,0,.239.022l0-.005h0l-.007,0c.052.04-.079.015-.072.042.073.009.133.006.155-.034.106.049.109.049.205.01a.05.05,0,0,1,.031,0,.267.267,0,0,0,.171-.019.616.616,0,0,0,.2-.007.332.332,0,0,0,.093,0c.026,0,.064,0,.066-.014s-.031-.02-.061-.021a.933.933,0,0,0-.28.013.27.27,0,0,0-.154-.009h0a.648.648,0,0,0-.175-.009l-.019,0a.155.155,0,0,0-.113,0,.159.159,0,0,1-.084.014c-.008-.014.025-.027,0-.041l-.118,0-.02,0a.188.188,0,0,0-.159.029h0c-.022-.018-.039-.043-.091-.011a.07.07,0,0,1-.055.007.423.423,0,0,0-.181.006c-.015,0-.089,0-.12,0s-.107-.022-.059.022c.01.009-.025,0-.037.006a.461.461,0,0,0-.2-.028.141.141,0,0,0-.18,0,.093.093,0,0,1-.057.009c-.072,0-.106-.023-.106-.072a.15.15,0,0,1-.119.035c-.062,0-.057.017-.046.036a1.314,1.314,0,0,0-.28.007c-.016.005-.075,0-.081.018s.04.019.067.026.026.006.021.015a1.4,1.4,0,0,1-.342-.005c-.017-.014-.088-.028,0-.04.021,0,.033-.005.02-.016a.059.059,0,0,0-.041-.014.336.336,0,0,0-.122.028c-.043.017.014.021.032.03s-.022.013-.023.022l-.041.007c0-.018-.058-.027-.043-.047s.034-.035-.016-.046-.059.022-.1.028h0c-.082,0-.164-.009-.243-.021-.072-.032-.082.005-.112.02h-.046a.319.319,0,0,1-.049-.01.345.345,0,0,0-.252,0,.184.184,0,0,1-.125.011.042.042,0,0,0-.036.006c-.01.01,0,.015.023.017l.061.007c.024.058.024.058-.106.057-.007-.018.015-.046-.066-.039a1.426,1.426,0,0,0-.219-.054l-.055,0a2.113,2.113,0,0,0-.288-.008c-.17.027-.346,0-.51.027-.022.044-.069.053-.231.045.119,0,.119,0,.159-.018a4.236,4.236,0,0,0-.5-.061,2.463,2.463,0,0,0,.3-.042,1.872,1.872,0,0,1,.21-.013c.012.021.036.034.089.026a.494.494,0,0,0,.225-.01,2.554,2.554,0,0,0,.4.011c.1.011.2-.015.3-.009.068-.006.137.011.218,0l-.116-.036a1.444,1.444,0,0,1,.265-.009c.059,0,0,.009,0,.014-.014,0-.039,0-.032.007a.109.109,0,0,0,.075.023c.095,0,.189-.005.284,0,.017,0,.04,0,.042-.008s-.015-.014-.034-.017h0c-.006-.01-.043,0-.046-.015l.03-.005c.024,0,.071,0,.064-.017s-.048-.008-.074-.008h-.347a.38.38,0,0,0,.067-.017c.03,0,.041-.01.006-.016a.825.825,0,0,0-.161,0,2.346,2.346,0,0,0-.306.009.854.854,0,0,0-.243,0h-.044a3.43,3.43,0,0,0-.59.015c.028.024.08.009.117.015s.086-.007.152.005a5.863,5.863,0,0,1-1.13.01c.271-.027.53,0,.781-.03a2.667,2.667,0,0,0-.292-.016c-.1.008-.209.008-.313.009-.24,0-.481-.005-.72,0s-.5.019-.749,0c-.053,0-.1.03-.16.015-.034-.044.073-.02.093-.038a1.074,1.074,0,0,1,.2-.008c.02,0,.053.024.063,0s.01-.036-.058-.033a.607.607,0,0,1-.15-.018,1.146,1.146,0,0,0-.26-.021l-.023,0a1.111,1.111,0,0,0-.192-.016c-.033,0-.089,0-.047.028s.041.035-.031.033c-.186-.007-.373-.01-.556-.024-.116-.009-.236-.008-.35-.027a5.359,5.359,0,0,1,.913-.021.138.138,0,0,0-.09-.027c-.14-.012-.28-.024-.421-.033a1.734,1.734,0,0,1-.5-.073c-.011,0-.045,0-.022-.014a.171.171,0,0,1,.041,0c.027.016.047,0,.069,0,.2,0,.4-.02.6-.039.157-.011.316-.018.469-.036a2.125,2.125,0,0,0,.255-.022,2.265,2.265,0,0,0,.508-.058,2.162,2.162,0,0,0,.7-.1c.194,0,.376-.043.573-.029a.057.057,0,0,0,.026-.005c0-.045.073-.025.115-.025a1.038,1.038,0,0,0,.152-.006,3.52,3.52,0,0,1,.52-.015c.288,0,.575.021.865.014.08,0,.16,0,.24,0a2.682,2.682,0,0,0,.37,0,2.548,2.548,0,0,1,.276-.016c.295,0,.587.031.884.016a.773.773,0,0,1,.235.015.637.637,0,0,0,.233.013,1.411,1.411,0,0,1,.229,0c.3.019.6.027.9.018a2.678,2.678,0,0,0,.295-.013c-.04-.007-.062-.013-.085-.015-.157-.012-.315-.022-.471-.036-.12-.011-.235-.032-.356-.039-.3-.018-.595-.031-.892-.045-.026-.015-.1-.011-.094-.034s.074-.01.111-.016l.061-.012c-.035-.013-.064-.025-.1-.035s-.049-.01-.041-.024.037-.015.061-.016a2.593,2.593,0,0,0,.286-.039,1.707,1.707,0,0,1,.2,0c.031.031.094.023.143.019a4.527,4.527,0,0,1,.5-.008,1.706,1.706,0,0,0,.439-.049.365.365,0,0,0-.222-.067c-.171,0-.341-.011-.512-.013a1.018,1.018,0,0,1-.24,0,.387.387,0,0,0-.135-.008.041.041,0,0,1-.019,0c-.022-.07-.088-.121-.264-.127a.5.5,0,0,0-.2-.021.182.182,0,0,1-.124-.032.665.665,0,0,0-.35-.076c-.166,0-.326-.019-.486-.032-.183-.015-.367-.033-.55-.036h-.03c.12,0,.24-.013.359-.022a.8.8,0,0,0-.285,0,.023.023,0,0,1-.006-.024l.443.019.022.011a.124.124,0,0,0,.082.025c.066,0,.131,0,.194,0,.127.006.254,0,.381,0a.132.132,0,0,0,.045,0c.183.014.368.029.56.032a.683.683,0,0,0-.254-.054l-.008-.005c.014-.016.07-.019.069-.038s.051-.037.1-.042c0,.016.039.009.051.018s-.043.009-.045.022-.018.015,0,.017c.044.006.025.006,0,.014s-.035.02-.024.03a.088.088,0,0,0,.067,0c.046-.015.11-.02.137-.046-.007-.008.023-.016,0-.024-.049-.02-.015-.028.027-.035h.013a.2.2,0,0,0,.076-.006c-.021-.005-.049,0-.058-.012a.193.193,0,0,1,.146.013c.037.02.095-.013.136.012-.065,0-.069.055-.161.036,0,0-.01,0-.016.006-.047.015,0,.024.008.037s.033.02.064.009c.055.023.089,0,.133-.012-.019-.011-.054-.018-.043-.034l.012-.008c.018-.013.1-.018.028-.043.009,0,.01-.015.021-.017h0a.049.049,0,0,1,.024,0c.041.015.072.024.083-.01a.163.163,0,0,1,.039-.007c.031.01.07,0,.113.008a.58.58,0,0,0-.085.017.41.41,0,0,0,.093,0,.229.229,0,0,1,.175,0,.165.165,0,0,0,.06.038l-.058.007a.235.235,0,0,0-.07,0c0,.021.051.006.068.017l-.013.007c-.015.006-.035.01-.016.021a.053.053,0,0,0,.04.012c.025,0,.034-.015.027-.024s0-.015.012-.021h.027c-.01.009-.031.023.006.026s.03-.016.041-.025.021-.012.013-.021l.016-.033a.1.1,0,0,1,.043-.008c.04,0,.03-.03.077-.02.022.007.058,0,.072.014s.059.018.088.028c0,.009.008.018-.012.025a.021.021,0,0,0-.03-.012c-.021.01-.045.022-.044.038s.017.016.043.014a.486.486,0,0,1,.08-.006c.043,0,.067-.009.024-.027.014,0,.028-.006.032-.013a.387.387,0,0,0,.116,0,.127.127,0,0,0,.1-.006.216.216,0,0,0-.106-.008h-.144l-.02,0c-.009-.018-.049-.022-.073-.033-.005-.023.043-.016.061-.018.112-.01.229.01.34-.011a.05.05,0,0,1,.013,0c-.012.019-.031.04.049.033a.039.039,0,0,1,.03.012h0c.019.009.04.024.066.009s.017-.027-.018-.036c-.015,0-.041,0-.032-.018s.008-.008.013-.01-.038-.022.015-.023c.031,0,.048,0,.045.017s.019.008.033.011a.9.9,0,0,0,.19-.012.326.326,0,0,0,.147-.016c.031,0,.05.008.054.022s.007.011.022.011.018-.006.019-.012c0-.031.043-.028.086-.02a.181.181,0,0,0,.083,0,.149.149,0,0,1,.092-.006c.012,0,.028,0,.031-.009s-.006-.01-.021-.011c-.085-.005-.169-.011-.254-.014-.021,0-.073,0-.065.013s-.014.017-.033.021c0-.023-.062-.033-.079-.025a.167.167,0,0,1-.118.007,1.874,1.874,0,0,0-.23-.01c.023-.017.054-.036-.019-.045-.032,0-.022-.015-.01-.024a.058.058,0,0,1,.05,0c.019,0,.017.019.047.018a.21.21,0,0,1,.024.011.049.049,0,0,0,.04.01c.013,0,.015-.008.012-.014s-.026-.011-.047-.008c0,0-.009,0-.014,0,0-.022.078-.012.08-.034s.052-.015.058-.01c.033.032.08.019.129.012.03,0,.073,0,.063.014s-.013.037-.072.033c-.018,0-.044,0-.037.014s.039.015.054.012c.066-.015.138,0,.2-.013.027,0,.071,0,.067-.018s-.047-.01-.075-.008-.037.006-.056.006-.061.006-.076-.011a1.584,1.584,0,0,1,.244-.011c.061,0,.11,0,.083-.041a.064.064,0,0,0,.051.014.133.133,0,0,0-.032,0c-.016,0-.009.012,0,.015a.133.133,0,0,0,.1-.011.246.246,0,0,0-.054-.01c.02-.007-.008-.014-.01-.022s-.022-.03-.009-.029a.189.189,0,0,0,.058-.007c.043,0,.087,0,.13,0a.116.116,0,0,1-.029.011c-.034.008-.085.011-.046.037a.487.487,0,0,0,.153.014c.014,0,.013-.011.01-.018a.242.242,0,0,1-.008-.026c.051,0,.1-.005.152-.01.03,0,.071.012.088,0s-.051-.01-.051-.026a.09.09,0,0,1,.049-.005.53.53,0,0,0,.14,0l.081,0,.059.008a.133.133,0,0,0,.041,0l.022.005a.271.271,0,0,0,.108.021h0c.27.043.274.042.351.015-.1-.011-.192-.015-.3-.017a.359.359,0,0,0,.164-.022c.013-.007.032,0,.048,0a.353.353,0,0,0,.174-.035c-.012-.009,0-.028-.041-.025a1.194,1.194,0,0,0-.189.008.551.551,0,0,1-.125.009c.026-.007.062-.009.057-.022s-.039-.01-.063-.012c-.081,0-.162.01-.243,0-.02,0-.031.006-.033.014s-.031.019-.063.02a.592.592,0,0,1-.082,0,.013.013,0,0,1,0-.007c.014,0,.032,0,.032,0s.028-.023.038-.035l.02-.008c.167-.006.335-.005.5-.007.031,0,.044.007.047.02s.012.017.036.018a.072.072,0,0,0,.043-.011h0c0,.019.021.021.083.02.026-.005.053-.013.061.008s-.079.02,0,.032a.02.02,0,0,1-.013.026c-.038.007-.049.025-.023.034a.274.274,0,0,0,.153-.009c-.054,0-.071-.011-.072-.031s.059-.016.091-.021.054-.014.087-.013c.054-.01.047.008.047.021s.018.034.071.02c.013.016.013.04.07.011a.354.354,0,0,0,.066-.028.091.091,0,0,1,.068-.015h.005a.552.552,0,0,0,.109.017.09.09,0,0,0,.1-.051.221.221,0,0,0,.118-.023c-.01-.006-.035,0-.04-.011.014-.011.052-.019.022-.037a.272.272,0,0,1-.109.017.139.139,0,0,0-.1-.008h0v.007h0c-.078.007-.053-.016-.047-.033s.02-.014.047-.016c.047,0,.075.02.121.013.1-.016.218-.015.322-.033a.858.858,0,0,0,.122,0c.027,0,.042-.009.067-.01.049,0,.049,0,.051-.023a1.018,1.018,0,0,0-.174.01.142.142,0,0,0-.034,0,.071.071,0,0,1-.059,0c-.031-.021-.051-.04.025-.051,0,0,0,0,0,0,.061-.031.148,0,.214-.016l.012,0c.015,0,.028,0,.028-.007,0-.03.049-.024.082-.02s.072-.023.114-.005.126,0,.161.031c0,0,.021,0,.023-.009.011-.028.042-.015.07-.007-.015.013,0,.015.025.013.064,0,.069-.037.12-.047h0a.482.482,0,0,1,.088.007c.019.007.03,0,.033-.006.037-.017.1-.007.134-.027l.075,0c-.01.029-.067.023-.1.032s.006.036-.065.023a.509.509,0,0,1,.079.022c0,.009-.014.013-.034.007a.224.224,0,0,1-.117-.024c0,.016,0,.025-.016.031s-.01.026.033.025c.013,0,.028-.008.041,0a.513.513,0,0,0,.193-.008.286.286,0,0,1,.078,0c.033,0,.059,0,.061-.019h0c.029-.008-.022-.023.008-.028a.084.084,0,0,0,.058-.036.231.231,0,0,1,.166-.039.073.073,0,0,0,.067,0,.252.252,0,0,1,.048-.015c.029,0,.061,0,.091-.006a.1.1,0,0,1-.011.037c0,.006-.032.009-.019.018a.076.076,0,0,0,.042,0c.021,0,.035-.006.034-.018s0-.026.044-.015c.013,0,.017,0,.013-.006s.01-.015.031-.012a.4.4,0,0,0,.161-.011c.033-.009.078.013.1-.011a.748.748,0,0,1,.148-.014c.092-.009.184-.018.277-.025.047,0,.07-.012.068-.033l.314-.033a.122.122,0,0,1,.028,0,.111.111,0,0,0,.116-.009.168.168,0,0,1,.088-.02c.021,0,.046,0,.049-.013l.041-.008a.147.147,0,0,0,.094-.02c-.047.013-.106,0-.151.014l-.145.008c-.039-.008-.059.012-.093.012v-.007c-.009-.024.044-.05.11-.053a.233.233,0,0,0,.146-.034c-.029,0-.061,0-.091.008a1.627,1.627,0,0,0-.209.03.517.517,0,0,0-.09.008l-.2.014c-.059,0-.075-.009-.051-.033.036,0,.073-.01.106-.016a.5.5,0,0,0,.134-.017.383.383,0,0,1,.056-.008c.14,0,.264-.031.4-.041a.654.654,0,0,0,.143-.023l.095-.007a.451.451,0,0,0,.157-.021c.012-.006.037-.01.024-.02a.086.086,0,0,0-.054,0c-.066.009-.134.015-.2.026a1.954,1.954,0,0,0-.255.039c-.119,0-.221.034-.341.032a.13.13,0,0,0-.031.008c-.092.018-.194.021-.29.033a1.107,1.107,0,0,1-.321.016.093.093,0,0,0-.057.012,1.793,1.793,0,0,0-.3.018h0a.626.626,0,0,0-.178.014l-.147.014a1.306,1.306,0,0,1-.317-.02l.033-.013c.1-.006.2-.011.3-.022a1.431,1.431,0,0,1,.251-.018c.048,0-.012-.023.021-.03,0,0,.019,0,0-.006a.741.741,0,0,0-.128,0c-.054.007-.113.007-.167.013a2.789,2.789,0,0,0-.327.014.082.082,0,0,1-.054-.007,1.2,1.2,0,0,1,.207-.029.388.388,0,0,0,.149-.024.975.975,0,0,0,.115,0c.092,0,.184-.007.273-.018.123-.015.252-.017.375-.031.066-.007.07-.01.1-.034a1.566,1.566,0,0,1-.263.023c-.182.013-.359.04-.545.041-.02,0-.044,0-.065,0l-.015,0c-.015,0-.026-.01-.028-.023a1.893,1.893,0,0,0,.288-.014,1.739,1.739,0,0,1,.221-.013c.183-.011.363-.028.545-.04.073-.015.16-.007.234-.025-.012-.008-.066,0-.026-.022a.258.258,0,0,1,.074-.007c.071.025.083.024.139-.011a.021.021,0,0,1,.017,0,.744.744,0,0,1,.1.008.144.144,0,0,0,.148-.046.482.482,0,0,0,.139-.015c.017-.005.04-.006.048.005s.016.024.066.01a.745.745,0,0,0,.193-.016c.019,0,.031-.014.014-.024s-.024-.009-.034-.014h0a.8.8,0,0,1,.166-.019.355.355,0,0,0,.135-.02c.075.028.074.027.129-.009.008-.005.031-.014.041-.005.036.032.059,0,.105,0-.046,0-.072-.007-.066-.024l.056-.014a.226.226,0,0,0,.123-.026.554.554,0,0,0-.134.013h-.03a.033.033,0,0,1,.015-.034h0c.066,0,.1-.034.164-.04h0c.042-.006.087-.01.105-.032.03-.006.048.02.069.009a1.561,1.561,0,0,1,.17-.042h0a.14.14,0,0,0,.107-.006.433.433,0,0,1,.158-.017c.034,0,.06,0,.076-.015s.029-.017.036,0,.012.006.021,0a.624.624,0,0,1,.173-.032.21.21,0,0,0,.1-.027c.023,0,.038-.019.064-.014.123.025.193-.031.3-.04.038,0,.086-.02.135-.025a.12.12,0,0,0,.066-.016c.059-.018.138-.018.194-.04.028,0,.067,0,.066-.02s-.042-.007-.064-.011a.58.58,0,0,0-.164.015c-.166.014-.316.048-.476.07a2.123,2.123,0,0,1-.27.029c-.043,0-.069,0-.089.018-.041.01-.082.018-.127.024a2.668,2.668,0,0,0-.309.041,1.258,1.258,0,0,0-.233.028h-.125c-.025,0-.062.014-.071,0s.041-.017.067-.023.035,0,.05,0,.07-.006.077-.025c.059-.011.122-.017.182-.025s.146-.014.169-.04c.046-.051.164-.07.218-.116.032-.027.108-.033.144-.059.133-.054.256-.112.373-.172.031,0,.045-.018.048-.027.021-.056.127-.1.139-.154,0-.012.009-.024.036-.031a.037.037,0,0,0,.026-.01c.056-.045,0-.084-.039-.121a.261.261,0,0,0-.138-.08.863.863,0,0,0-.274-.08,1.155,1.155,0,0,1-.18-.037,2.9,2.9,0,0,0-.387-.077,2.141,2.141,0,0,1-.375-.084,4.126,4.126,0,0,1,.457-.035c-.01.008-.056,0-.04.017s.041,0,.062,0,.034-.009.024-.019a2.2,2.2,0,0,0,.286-.005.492.492,0,0,1,.109.006c.029,0,.052.008.045.027s-.013.02.023.032a.941.941,0,0,0,.218.02,2.577,2.577,0,0,0,.693-.052.483.483,0,0,1,.092,0,.551.551,0,0,0,.21,0c-.073-.006-.132-.012-.192-.015a.253.253,0,0,1-.07-.011c.03-.011-.012-.025.005-.033a.145.145,0,0,1,.077,0,.17.17,0,0,0,.1-.01c-.067-.007-.124-.015-.181-.017s-.065-.025-.063-.043S118.833,155.8,118.862,155.8Zm-1-.5h0Zm-.355-.4h0Zm-4.4-1.221h0Zm-47.872-.137h.014l-.016,0Zm-7.319.972c.041-.016.1-.01.122-.031.04.017.105,0,.147.019C58.1,154.511,58.012,154.52,57.914,154.52Zm.465-.04h.007c.024.015.079.02.078.045A.652.652,0,0,1,58.379,154.48Zm1.067-.14h0Zm.5-.272a.023.023,0,0,1,.008.009h0l-.011-.007h-.011Zm-.076.013,0,0a.219.219,0,0,1,.049,0c-.03,0-.031.017-.025.031s.021.018.046.013c.006,0,.013.007,0,0C59.887,154.119,59.876,154.1,59.873,154.081ZM53.8,158.2h0Zm.525.594h0Zm2.835,1.425h0Zm.158,1.6h0Zm30.363.488h-.014l.016,0Zm22.41-1.619h0Zm-.4,0,.023,0h.007l-.031,0Zm-1.4-.431h0l-.007,0Zm-4.184.949h0Zm-2.019-.108h0l-.008,0Zm-.332.532,0,0h0Zm0-1.572h0Zm-.179-.037h0Zm-.168,1.294.005,0-.016,0Zm-.454.34.006,0h-.006Zm-.46-.382h0Zm6.575-1.927h0Zm3.056-.889h0Zm-4.133.239a.4.4,0,0,0-.044-.006c-.011,0,0-.009,0-.014a.607.607,0,0,0,.12,0,.3.3,0,0,0-.037-.007h.03l.024.006a.126.126,0,0,0,.006.024h0l-.018,0Zm.638-.035h0l0,0Zm5.341-.392a.761.761,0,0,0-.1-.021.125.125,0,0,0,.062,0v0a.363.363,0,0,0,.052.014A.018.018,0,0,0,111.974,158.265Zm.637-3.042a0,0,0,0,1,0,.006H112.6Zm-.234-.118h0Zm-.148-.108h0Zm-.044.033,0,0-.005,0Zm-.345-.87h0Zm-.074.524a.008.008,0,0,0,0,0l-.006,0Zm-25.461-1.019-.006,0h.083A.13.13,0,0,1,86.306,153.666Zm5.708.112a.02.02,0,0,1,.019,0Zm-35.186,5.259h0Zm29.019-5.275.019-.008s0,0,0,.005a.017.017,0,0,0-.011.007Zm-.438,0s.011,0,.017,0a.633.633,0,0,0,.1.01c-.033,0-.066.009-.1.011h-.012c-.046-.012-.071-.025-.078-.043l.082,0C85.409,153.745,85.4,153.751,85.409,153.759Zm14.558-.615a.1.1,0,0,1,.055,0l-.071,0Zm-.7.408h0Zm-.317-.259h0l0,0Zm-.3.228-.007,0,0,0Zm-.242-.21,0,0h0Zm-.223.359h0Zm-1.367-.073h0Zm-6.423.074a.557.557,0,0,1,.214.01c.016,0,0,.013,0,.021a.9.9,0,0,0-.177,0,.455.455,0,0,0,.183.015h0a.1.1,0,0,0,.044,0l.011,0c.019.011.026.022.01.032l-.019,0c-.079-.014-.166-.016-.246-.028h-.009c.006-.016,0-.033-.009-.049Zm-.787.053.006,0-.013,0Zm-3.028.02a.28.28,0,0,0-.052-.005l.055-.022a.045.045,0,0,0,.01-.006l.021.008C86.623,153.738,86.606,153.744,86.585,153.746Zm-2.619-.012c-.027,0-.053.009-.08.012a.08.08,0,0,1-.068-.02s0,0,0,0h.029a.291.291,0,0,1,.071-.005A.469.469,0,0,0,83.966,153.733Zm-8.625-.455a.08.08,0,0,1,.018.009h-.02A.03.03,0,0,1,75.341,153.278Zm-.6-.107,0,0h-.006Zm-.1.128h0Zm-.013,0h0Zm-1.8-.008-.019,0A.02.02,0,0,1,72.826,153.294Zm-1.633-.1a.556.556,0,0,1,.214.01c.016,0,0,.013,0,.021a.9.9,0,0,0-.177,0,.456.456,0,0,0,.183.015h0a.1.1,0,0,0,.044,0l.011,0c.019.011.026.022.01.032l-.019,0c-.079-.014-.166-.016-.246-.028H71.2c.006-.016,0-.033-.009-.049Zm-.787.053.006,0-.013,0Zm-7.019.575a.184.184,0,0,1-.038,0A.027.027,0,0,1,63.387,153.822Zm-.638-.019,0,0h0c0,.009.031.01.038.017A.041.041,0,0,1,62.749,153.8Zm.01-.094a.075.075,0,0,0,.023,0c-.026.021-.027.054-.116.046C62.7,153.74,62.782,153.743,62.759,153.709Zm-.255.117a1.128,1.128,0,0,0,.155.03.186.186,0,0,0-.092,0v0a.548.548,0,0,0-.077-.02A.028.028,0,0,0,62.5,153.826Zm-2.214.453h0Zm-2.705,5.926.015,0h0a.812.812,0,0,0,.12-.019h0a.132.132,0,0,0,.054-.007c.021-.006.043-.008.065-.011h.07c.111,0,.223.007.334.01,0,.007-.017.01-.028.014a.312.312,0,0,0-.1.033.373.373,0,0,1-.065,0,.572.572,0,0,0-.24.032.066.066,0,0,1-.027.025,1.991,1.991,0,0,0-.271-.021c-.042-.01-.086-.016-.13-.022A1.662,1.662,0,0,0,57.584,160.205Zm2.872,1.651h0Zm6.423.492-.012-.006h.014Zm.409.072h0Zm.07-.087h0Zm.009,0h0Zm2.319.074a.375.375,0,0,1-.145-.007c-.011,0,0-.009,0-.014a.608.608,0,0,0,.12,0,.309.309,0,0,0-.124-.01h0a.071.071,0,0,0-.03,0l-.007,0c-.013-.007-.018-.015-.007-.021l.013,0c.053.009.112.01.166.019h.006c0,.011,0,.022.006.033Zm.532-.036,0,0,.008,0Zm.558.03.051-.007s0,.007.008.009a.314.314,0,0,0-.056,0Zm.6.021c.015,0,.03-.009.031-.015a.082.082,0,0,1,.056.021Zm6.2.149a.084.084,0,0,1-.018-.009h.02A.036.036,0,0,1,77.573,162.57Zm.6.107,0,0h.006Zm.1-.128h0Zm.013,0h0Zm1.8.008.019,0A.019.019,0,0,1,80.088,162.554Zm1.633.1a.559.559,0,0,1-.214-.01c-.016,0,0-.013,0-.021a.9.9,0,0,0,.177,0,.456.456,0,0,0-.183-.015h0a.106.106,0,0,0-.044,0l-.011,0c-.019-.011-.026-.022-.01-.032l.019,0c.079.014.166.016.246.028h.009c-.006.016,0,.033.009.049Zm.787-.053-.005,0,.013,0Zm7.019-.575a.184.184,0,0,1,.038,0A.027.027,0,0,1,89.527,162.026Zm.638.019,0,0h0c0-.009-.031-.01-.038-.017A.042.042,0,0,1,90.165,162.046Zm-.01.094a.078.078,0,0,0-.023,0c.026-.021.027-.054.116-.046C90.212,162.108,90.132,162.1,90.155,162.139Zm.255-.117a1.1,1.1,0,0,0-.155-.03.188.188,0,0,0,.092,0v0a.536.536,0,0,0,.077.02A.027.027,0,0,0,90.41,162.023Zm9.048-.149a.147.147,0,0,1-.082,0l.1-.005Zm2.826-2.2h0l.006,0h0Zm2.389-.954c-.016-.01-.019-.019-.012-.028.175,0,.349.01.524.019a.2.2,0,0,0,.029.014c.036.013.035.02-.016.02-.017,0-.041,0-.042.009h0C105,158.741,104.835,158.727,104.673,158.721Zm.825.014c-.038.017-.05,0-.07-.012l.09,0Zm5.112-.442h0Zm.767-.026a.13.13,0,0,1,.025,0A.018.018,0,0,1,111.377,158.268Zm.432.013,0,0h0c0-.006-.021-.007-.026-.012A.028.028,0,0,1,111.808,158.281Zm-.007.063h-.015c.018-.014.018-.036.078-.031C111.84,158.323,111.786,158.321,111.8,158.344Zm1.182-3.618h0Zm.018-.476h0Zm.47,3.708h0Zm1.607-.163c-.028.011-.068.007-.083.021-.027-.011-.071,0-.1-.013C114.955,157.8,115.013,157.8,115.079,157.8Zm-.315.027h0c-.016-.01-.053-.014-.053-.03A.423.423,0,0,1,114.764,157.822Zm-.722.094h0Zm-.34.184a.017.017,0,0,1-.005-.006h0l.007,0h.007Zm.052-.009,0,0a.153.153,0,0,1-.033,0c.02,0,.021-.012.017-.021s-.014-.012-.031-.009-.009,0,0,0C113.745,158.067,113.752,158.079,113.754,158.092Zm0-3.18h0Zm.047-.011,0,0h0Zm.39-.435h0Zm.268-.023,0,0h0Zm.241.363h0Zm.272-.522,0,0h0Zm.569.12v0h0Zm.273.335h0Zm.092-.152h0Z" transform="translate(-51.883 -153)" fill="#ffd000"/>
      <path id="Path_19873" data-name="Path 19873" d="M415.561,159.147c.048.023.1,0,.143,0a.8.8,0,0,0,.08,0,1.834,1.834,0,0,1,.246.028l.239.039a.144.144,0,0,0,.019.014.619.619,0,0,0,.278.028,4.233,4.233,0,0,1,.439.069,1.34,1.34,0,0,0,.245.033,1.39,1.39,0,0,0,.179.041.493.493,0,0,0,.116.023.857.857,0,0,0,.211.039.733.733,0,0,0,.208.043c.062.008.118.047.188.018.006,0,.018,0,.028.005.065.011.129.023.194.031.026,0,.069.012.075-.015s-.032-.037-.062-.042a.566.566,0,0,0-.1,0,.226.226,0,0,1-.208-.076.1.1,0,0,0-.082-.025.579.579,0,0,1-.176-.012h0c-.021-.062-.093-.048-.155-.049l-.044,0c-.085.007-.107,0-.122-.061,0-.008-.008-.012-.019-.012a1.131,1.131,0,0,0-.115-.009,1.188,1.188,0,0,1-.216.019H417.1a.331.331,0,0,0-.149-.031.3.3,0,0,1-.211-.054.07.07,0,0,0-.039-.013c-.114,0-.224-.026-.338-.02-.017,0-.034.008-.042-.008.009-.02.053-.007.062-.034a1.355,1.355,0,0,1-.145-.013c-.017-.012-.041-.024-.022-.042s.039,0,.06,0a.539.539,0,0,0,.241-.022.805.805,0,0,0-.273-.021c-.048.007-.109.014-.134-.008-.047-.042-.11-.025-.163-.037-.01,0-.026,0-.031.008s.007.017.018.018c.056,0,.059.033.071.059a.062.062,0,0,1-.051,0c-.051-.045-.14,0-.194-.042-.013-.009-.021.008-.031.013-.048.023-.067.078-.151.062-.018,0-.047-.006-.053.016S415.543,159.138,415.561,159.147Zm1.928.254h0Zm-1.47-.3a.105.105,0,0,0,0,.034h0C415.981,159.1,415.995,159.1,416.019,159.1Z" transform="translate(-353.782 -155.931)" fill="#ffd000"/>
      <path id="Path_19874" data-name="Path 19874" d="M436.469,163.127h0a.5.5,0,0,0,.272.055.025.025,0,0,1,.025.006c.021.029.06.03.1.032.015,0,.04.008.043.016.019.053.075.04.122.031a.823.823,0,0,1,.124-.009h0l.058.022c.013.024.1.019.055.067-.006.006,0,.011.015.014a.5.5,0,0,0,.316,0,.448.448,0,0,1,.081-.018.2.2,0,0,1-.032-.012.452.452,0,0,0-.327-.078h0a.476.476,0,0,0-.344-.033c0-.01,0-.015,0-.016.028-.01.048-.023.038-.047s-.04-.016-.065-.013-.026,0-.026-.021c0-.038-.032-.053-.087-.05s-.088-.006-.132-.007-.068-.039-.113-.031a.828.828,0,0,1-.187,0,.311.311,0,0,0-.1.006C436.372,163.068,436.452,163.071,436.469,163.127Z" transform="translate(-371.036 -158.167)" fill="#ffd000"/>
      <path id="Path_19875" data-name="Path 19875" d="M440.309,172.037l-.081,0c-.018,0-.036,0-.045.013s.01.02.021.029a.216.216,0,0,0,.219.012c.015-.007.038-.014.034-.03s-.032-.019-.052-.02C440.368,172.04,440.331,172.038,440.309,172.037Z" transform="translate(-374.251 -169.925)" fill="#ffd000"/>
      <path id="Path_19876" data-name="Path 19876" d="M425.713,193.718a.335.335,0,0,0,.195-.034.159.159,0,0,1,.114-.036c.053,0,.106-.061.16,0a.028.028,0,0,0,.013,0,.043.043,0,0,1,.06.005c.006.006.023.009.025,0,.017-.058.086-.025.129-.035h.014a.133.133,0,0,0,.022,0c.062,0,.091-.055.161-.05.009,0,0-.018-.016-.021a.135.135,0,0,0-.072.006c-.034.011-.036,0-.036-.02s.032-.018.048-.028a.12.12,0,0,0-.079-.007c-.156.047-.325.06-.487.092a.271.271,0,0,0-.135.056c-.022,0-.04-.033-.043-.02-.008.043-.068.021-.09.04v.019C425.7,193.7,425.7,193.714,425.713,193.718Zm.384-.1.029,0a.308.308,0,0,1-.043,0Z" transform="translate(-362.226 -189.028)" fill="#ffd000"/>
      <path id="Path_19877" data-name="Path 19877" d="M390.364,203.812c-.008-.022-.037-.016-.061-.014l-.22.013c-.016,0-.04,0-.041.012s.025.024.043.02a.66.66,0,0,1,.179,0,.254.254,0,0,0,.051,0C390.334,203.833,390.373,203.839,390.364,203.812Z" transform="translate(-332.626 -198.154)" fill="#ffd000"/>
      <path id="Path_19878" data-name="Path 19878" d="M412.114,199.162c.015,0,.011.025.026.016a.107.107,0,0,0,.042-.05c0-.012-.016-.019-.036-.013a1.588,1.588,0,0,0-.214.024c-.073,0-.051.028-.025.053h0c.082.027.129.018.169-.031C412.088,199.147,412.1,199.162,412.114,199.162Z" transform="translate(-350.757 -193.999)" fill="#ffd000"/>
      <path id="Path_19879" data-name="Path 19879" d="M399.65,202.4c0-.014-.017-.012-.033-.012a.962.962,0,0,0-.328.027,2.411,2.411,0,0,0,.326,0C399.633,202.415,399.652,202.415,399.65,202.4Z" transform="translate(-340.303 -196.897)" fill="#ffd000"/>
      <path id="Path_19880" data-name="Path 19880" d="M421.352,194.374a1.865,1.865,0,0,0-.262.042c-.038.029-.1.022-.143.036a1.873,1.873,0,0,1-.369.051c-.022,0-.052,0-.05.017s0,.034.047.04a.922.922,0,0,0,.173-.012.2.2,0,0,0,.135-.02l.073-.011a.184.184,0,0,0,.094,0c.018-.006.046,0,.048-.024,0-.039.007-.039.06-.022a.16.16,0,0,0,.2-.05c.013-.009.022-.022.045-.02C421.4,194.374,421.378,194.371,421.352,194.374Z" transform="translate(-357.935 -189.801)" fill="#ffd000"/>
      <path id="Path_19881" data-name="Path 19881" d="M425.688,194.512h0Z" transform="translate(-362.219 -189.893)" fill="#ffd000"/>
      <path id="Path_19882" data-name="Path 19882" d="M398.347,203.794c-.039.006-.024.037-.038.055s.011.015.016.013a.433.433,0,0,1,.177-.013c-.018-.017-.04-.019-.046-.033C398.436,203.773,398.387,203.788,398.347,203.794Z" transform="translate(-339.488 -198.151)" fill="#ffd000"/>
      <path id="Path_19883" data-name="Path 19883" d="M412.993,199.973c-.045,0-.095-.016-.131.014a.084.084,0,0,1-.09.027c-.013,0-.029,0-.024.017.042-.011.068.042.114.013a.152.152,0,0,1,.088.01c.027.011,0,.053.043.047s.009-.037.021-.056c.024,0,.049,0,.072-.005s.046-.02.03-.025C413.074,200,413.064,199.944,412.993,199.973Z" transform="translate(-351.476 -194.765)" fill="#ffd000"/>
      <path id="Path_19884" data-name="Path 19884" d="M393.628,202.551c0-.015-.023-.017-.039-.017a.748.748,0,0,0-.165.013.678.678,0,0,0,.165.028C393.608,202.578,393.628,202.565,393.628,202.551Z" transform="translate(-335.433 -197.031)" fill="#ffd000"/>
      <path id="Path_19885" data-name="Path 19885" d="M388.59,204.17c.013.013.019.035.05.03s.042-.028.037-.043,0-.025,0-.037a.076.076,0,0,0-.058.015C388.6,204.145,388.564,204.145,388.59,204.17Z" transform="translate(-331.413 -198.449)" fill="#ffd000"/>
      <path id="Path_19886" data-name="Path 19886" d="M397.546,201.734a.042.042,0,0,0-.044-.041c-.037,0-.034.023-.039.037s0,.037.03.037S397.55,201.756,397.546,201.734Z" transform="translate(-338.787 -196.29)" fill="#ffd000"/>
      <path id="Path_19887" data-name="Path 19887" d="M418.531,195.933l.243-.029,0-.014a.865.865,0,0,0-.243.029Z" transform="translate(-356.275 -191.126)" fill="#ffd000"/>
      <path id="Path_19888" data-name="Path 19888" d="M410.523,202.533a.042.042,0,0,0-.05.023c.011.024.041.027.071.027s.049,0,.047-.022S410.548,202.538,410.523,202.533Z" transform="translate(-349.588 -197.031)" fill="#ffd000"/>
      <path id="Path_19889" data-name="Path 19889" d="M410.31,200.917c0-.016-.016-.026-.044-.027-.071,0-.054.033-.065.062.026-.006.039-.023.068-.015S410.313,200.936,410.31,200.917Z" transform="translate(-349.363 -195.574)" fill="#ffd000"/>
      <path id="Path_19890" data-name="Path 19890" d="M399.865,203.717c-.016,0-.04.01-.033.021a.08.08,0,0,0,.06.043c.015,0,.041-.009.033-.014C399.9,203.752,399.908,203.718,399.865,203.717Z" transform="translate(-340.753 -198.087)" fill="#ffd000"/>
      <path id="Path_19891" data-name="Path 19891" d="M308.3,156.889a.3.3,0,0,0-.183,0A.428.428,0,0,0,308.3,156.889Z" transform="translate(-264.613 -156.216)" fill="#ffd000"/>
      <path id="Path_19892" data-name="Path 19892" d="M381.988,204.654c.021,0,.056,0,.051-.019s-.036-.032-.066-.037-.027.006-.021.019C381.978,204.623,381.929,204.662,381.988,204.654Z" transform="translate(-325.908 -198.869)" fill="#ffd000"/>
      <path id="Path_19893" data-name="Path 19893" d="M430.517,195.165c.005.012.021.012.036.012.039,0,.065-.012.063-.047-.034.006-.053.021-.084.017C430.519,195.146,430.512,195.156,430.517,195.165Z" transform="translate(-366.227 -190.451)" fill="#ffd000"/>
      <path id="Path_19894" data-name="Path 19894" d="M418.816,198.555c-.023,0-.045,0-.047.025a.026.026,0,0,0,.03.024c.026,0,.048-.01.05-.03S418.837,198.553,418.816,198.555Z" transform="translate(-356.475 -193.495)" fill="#ffd000"/>
      <path id="Path_19895" data-name="Path 19895" d="M420.705,198.29c-.023,0-.033.015-.032.03s.022.02.043.02.035-.006.033-.021S420.729,198.293,420.705,198.29Z" transform="translate(-358.056 -193.26)" fill="#ffd000"/>
      <path id="Path_19896" data-name="Path 19896" d="M443.066,180.531c0,.024.028.008.041.014s.057,0,.058-.019-.029-.017-.047-.017S443.069,180.515,443.066,180.531Z" transform="translate(-376.646 -177.452)" fill="#ffd000"/>
      <path id="Path_19897" data-name="Path 19897" d="M412.738,200.692a.04.04,0,0,0-.041.031c0,.011,0,.02.022.022s.043-.01.046-.028A.023.023,0,0,0,412.738,200.692Z" transform="translate(-351.433 -195.396)" fill="#ffd000"/>
      <path id="Path_19898" data-name="Path 19898" d="M396.6,203.9a.02.02,0,0,0,.014.011c.042.008.087.026.12-.011.01,0,.026-.01.019-.018s-.05-.015-.078-.013-.04.01-.048.005c-.025-.014-.051-.036-.074,0S396.594,203.885,396.6,203.9Z" transform="translate(-338.027 -198.213)" fill="#ffd000"/>
      <path id="Path_19899" data-name="Path 19899" d="M432.033,194.914c-.024,0-.042.01-.042.027s.016.015.032.016.044-.011.048-.025S432.052,194.915,432.033,194.914Z" transform="translate(-367.452 -190.258)" fill="#ffd000"/>
      <path id="Path_19900" data-name="Path 19900" d="M391.27,204.187a.093.093,0,0,0,.1-.034c-.047.008-.085-.007-.109.019C391.252,204.178,391.26,204.186,391.27,204.187Z" transform="translate(-333.634 -198.47)" fill="#ffd000"/>
      <path id="Path_19901" data-name="Path 19901" d="M376.253,154.576s0-.012,0-.014a.113.113,0,0,0-.1.007C376.2,154.577,376.223,154.6,376.253,154.576Z" transform="translate(-321.095 -154.29)" fill="#ffd000"/>
      <path id="Path_19902" data-name="Path 19902" d="M411.363,199.418c-.02,0-.044,0-.055.016s.02.02.035.022a.035.035,0,0,0,.042-.021C411.391,199.424,411.38,199.417,411.363,199.418Z" transform="translate(-350.281 -194.261)" fill="#ffd000"/>
      <path id="Path_19903" data-name="Path 19903" d="M381.12,204.52c0,.016.015.024.039.023s.031,0,.031-.015-.024-.018-.041-.022S381.121,204.508,381.12,204.52Z" transform="translate(-325.219 -198.783)" fill="#ffd000"/>
      <path id="Path_19904" data-name="Path 19904" d="M394.867,202.539a.229.229,0,0,0-.1.014.14.14,0,0,0,.1,0A.009.009,0,0,0,394.867,202.539Z" transform="translate(-336.552 -197.031)" fill="#ffd000"/>
      <path id="Path_19905" data-name="Path 19905" d="M403.971,202.781c-.018,0-.035,0-.043.017a.036.036,0,0,0,.031.015c.019,0,.036,0,.038-.019S403.983,202.782,403.971,202.781Z" transform="translate(-344.154 -197.248)" fill="#ffd000"/>
      <path id="Path_19906" data-name="Path 19906" d="M420.214,198.408c-.017,0-.027.006-.029.018a.027.027,0,0,0,.031.017c.013,0,.024-.006.025-.015S420.23,198.408,420.214,198.408Z" transform="translate(-357.651 -193.362)" fill="#ffd000"/>
      <path id="Path_19907" data-name="Path 19907" d="M396.711,201.844s0-.014,0-.018c-.022-.017-.042,0-.065,0C396.664,201.84,396.683,201.856,396.711,201.844Z" transform="translate(-338.106 -196.394)" fill="#ffd000"/>
    </g>
  </g>
</svg>
