<svg xmlns="http://www.w3.org/2000/svg" xmlns:xlink="http://www.w3.org/1999/xlink" width="50.137" height="50.137" viewBox="0 0 50.137 50.137"><defs><style>.a{fill:#ffde0a;}.b{filter:url(#a);}</style><filter id="a" x="0" y="0" width="50.137" height="50.137" filterUnits="userSpaceOnUse"><feOffset dy="3" input="SourceAlpha"/><feGaussianBlur stdDeviation="3" result="b"/><feFlood flood-opacity="0.161"/><feComposite operator="in" in2="b"/><feComposite in="SourceGraphic"/></filter></defs><g transform="translate(-17.557 -156.557)"><g class="b" transform="matrix(1, 0, 0, 1, 17.56, 156.56)"><circle class="a" cx="16.069" cy="16.069" r="16.069" transform="translate(41.14 6) rotate(90)"/></g><path d="M.718,4.679l-.545.545a.587.587,0,0,0,0,.833l4.772,4.775a.587.587,0,0,0,.833,0L10.55,6.059a.587.587,0,0,0,0-.833l-.545-.545a.59.59,0,0,0-.842.01L6.345,7.648V.589A.588.588,0,0,0,5.756,0H4.97a.588.588,0,0,0-.589.589V7.648l-2.82-2.96a.586.586,0,0,0-.842-.01Z" transform="translate(48.213 173.354) rotate(90)"/></g></svg>