<svg width="1920" height="17664" viewBox="0 0 1920 17664" fill="none" xmlns="http://www.w3.org/2000/svg">
<g clip-path="url(#clip0)">
<rect width="1920" height="17664" fill="white"/>
<g clip-path="url(#clip1)">
<path d="M15.5 11H1931.5V17675H15.5V11Z" fill="white"/>
<path d="M1915.27 14184.4C1915.69 14183.9 1915.99 14183.3 1916.1 14182.7C1916.22 14182.1 1916.16 14181.4 1915.93 14180.8C1915.7 14180.3 1915.31 14179.8 1914.8 14179.4C1914.3 14179 1913.71 14178.9 1913.1 14178.9C1912.5 14178.9 1911.91 14179 1911.4 14179.4C1910.9 14179.8 1910.51 14180.3 1910.28 14180.8C1910.04 14181.4 1909.98 14182.1 1910.1 14182.7C1910.22 14183.3 1910.51 14183.9 1910.94 14184.4C1911.51 14185 1912.29 14185.3 1913.1 14185.3C1913.91 14185.3 1914.69 14185 1915.27 14184.4Z" fill="#F1D971" stroke="#F1D971" stroke-miterlimit="10"/>
<path d="M1828.72 14225.5C1828.14 14224.9 1827.37 14224.6 1826.58 14224.6C1825.79 14224.6 1825.03 14225 1824.47 14225.6C1823.91 14226.2 1823.59 14227 1823.57 14227.8C1823.56 14228.6 1823.85 14229.4 1824.39 14230C1824.83 14230.5 1825.39 14230.8 1826 14230.9C1826.89 14230.6 1827.78 14230.4 1828.67 14230.1L1828.72 14230C1829.29 14229.4 1829.61 14228.6 1829.61 14227.8C1829.61 14226.9 1829.29 14226.1 1828.72 14225.5Z" fill="#F1D971" stroke="#F1D971" stroke-miterlimit="10"/>
<path d="M1915.27 14042.8C1914.84 14042.3 1914.29 14042 1913.7 14041.9C1913.11 14041.7 1912.49 14041.8 1911.93 14042.1C1911.37 14042.3 1910.89 14042.7 1910.56 14043.2C1910.22 14043.8 1910.04 14044.4 1910.04 14045C1910.04 14045.7 1910.22 14046.3 1910.56 14046.8C1910.89 14047.4 1911.37 14047.8 1911.93 14048C1912.49 14048.3 1913.11 14048.3 1913.7 14048.2C1914.29 14048.1 1914.84 14047.8 1915.27 14047.3C1915.55 14047 1915.78 14046.7 1915.93 14046.3C1916.08 14045.9 1916.16 14045.5 1916.16 14045C1916.16 14044.6 1916.08 14044.2 1915.93 14043.8C1915.78 14043.4 1915.55 14043.1 1915.27 14042.8Z" fill="#F1D971" stroke="#F1D971" stroke-miterlimit="10"/>
<path d="M1910.94 14001.6C1911.37 14002.1 1911.92 14002.4 1912.51 14002.5C1913.1 14002.7 1913.72 14002.6 1914.28 14002.3C1914.84 14002.1 1915.31 14001.7 1915.65 14001.2C1915.99 14000.6 1916.17 14000 1916.17 13999.4C1916.17 13998.7 1915.99 13998.1 1915.65 13997.6C1915.31 13997 1914.84 13996.6 1914.28 13996.4C1913.72 13996.1 1913.1 13996.1 1912.51 13996.2C1911.92 13996.3 1911.37 13996.6 1910.94 13997.1C1910.37 13997.7 1910.05 13998.5 1910.05 13999.4C1910.05 14000.2 1910.37 14001 1910.94 14001.6Z" fill="#F1D971" stroke="#F1D971" stroke-miterlimit="10"/>
<path d="M1869.83 14002.6C1871.52 14002.6 1872.89 14001.1 1872.89 13999.4C1872.89 13997.6 1871.52 13996.1 1869.83 13996.1C1868.14 13996.1 1866.77 13997.6 1866.77 13999.4C1866.77 14001.1 1868.14 14002.6 1869.83 14002.6Z" fill="#F1D971" stroke="#F1D971" stroke-miterlimit="10"/>
<path d="M1828.72 14134.1C1828.29 14133.7 1827.75 14133.4 1827.15 14133.2C1826.56 14133.1 1825.94 14133.2 1825.38 14133.4C1824.82 14133.7 1824.34 14134.1 1824.01 14134.6C1823.67 14135.1 1823.49 14135.8 1823.49 14136.4C1823.49 14137 1823.67 14137.7 1824.01 14138.2C1824.34 14138.7 1824.82 14139.1 1825.38 14139.4C1825.94 14139.6 1826.56 14139.7 1827.15 14139.6C1827.75 14139.4 1828.29 14139.1 1828.72 14138.7C1829.29 14138.1 1829.61 14137.3 1829.61 14136.4C1829.61 14135.5 1829.29 14134.7 1828.72 14134.1Z" fill="#F1D971" stroke="#F1D971" stroke-miterlimit="10"/>
<path d="M1869.83 14094C1871.52 14094 1872.89 14092.5 1872.89 14090.7C1872.89 14088.9 1871.52 14087.5 1869.83 14087.5C1868.14 14087.5 1866.77 14088.9 1866.77 14090.7C1866.77 14092.5 1868.14 14094 1869.83 14094Z" fill="#F1D971" stroke="#F1D971" stroke-miterlimit="10"/>
<path d="M1910.94 14138.7C1911.37 14139.1 1911.92 14139.4 1912.51 14139.6C1913.1 14139.7 1913.72 14139.6 1914.28 14139.4C1914.84 14139.1 1915.32 14138.7 1915.65 14138.2C1915.99 14137.7 1916.17 14137 1916.17 14136.4C1916.17 14135.8 1915.99 14135.1 1915.65 14134.6C1915.32 14134.1 1914.84 14133.7 1914.28 14133.4C1913.72 14133.2 1913.1 14133.1 1912.51 14133.2C1911.92 14133.4 1911.37 14133.7 1910.94 14134.1C1910.66 14134.4 1910.43 14134.8 1910.28 14135.2C1910.13 14135.6 1910.05 14136 1910.05 14136.4C1910.05 14136.8 1910.13 14137.2 1910.28 14137.6C1910.43 14138 1910.66 14138.4 1910.94 14138.7Z" fill="#F1D971" stroke="#F1D971" stroke-miterlimit="10"/>
<path d="M1871.98 14134.1C1871.55 14133.7 1871.01 14133.4 1870.41 14133.2C1869.82 14133.1 1869.21 14133.2 1868.65 14133.4C1868.09 14133.7 1867.61 14134.1 1867.27 14134.6C1866.94 14135.1 1866.76 14135.8 1866.76 14136.4C1866.76 14137 1866.94 14137.7 1867.27 14138.2C1867.61 14138.7 1868.09 14139.1 1868.65 14139.4C1869.21 14139.6 1869.82 14139.7 1870.41 14139.6C1871.01 14139.4 1871.55 14139.1 1871.98 14138.7C1872.55 14138.1 1872.88 14137.3 1872.88 14136.4C1872.88 14135.5 1872.55 14134.7 1871.98 14134.1Z" fill="#F1D971" stroke="#F1D971" stroke-miterlimit="10"/>
<path d="M1828.72 14093C1829.15 14092.6 1829.44 14092 1829.56 14091.4C1829.67 14090.7 1829.61 14090.1 1829.38 14089.5C1829.15 14088.9 1828.76 14088.4 1828.26 14088C1827.75 14087.7 1827.16 14087.5 1826.56 14087.5C1825.95 14087.5 1825.36 14087.7 1824.86 14088C1824.35 14088.4 1823.96 14088.9 1823.73 14089.5C1823.5 14090.1 1823.44 14090.7 1823.55 14091.4C1823.67 14092 1823.96 14092.6 1824.39 14093C1824.97 14093.6 1825.74 14093.9 1826.56 14093.9C1827.37 14093.9 1828.15 14093.6 1828.72 14093Z" fill="#F1D971" stroke="#F1D971" stroke-miterlimit="10"/>
<path d="M1915.27 14088.4C1914.84 14088 1914.29 14087.7 1913.7 14087.6C1913.11 14087.4 1912.49 14087.5 1911.93 14087.7C1911.38 14088 1910.9 14088.4 1910.56 14088.9C1910.23 14089.5 1910.05 14090.1 1910.05 14090.7C1910.05 14091.4 1910.23 14092 1910.56 14092.5C1910.9 14093 1911.38 14093.5 1911.93 14093.7C1912.49 14094 1913.11 14094 1913.7 14093.9C1914.29 14093.8 1914.84 14093.5 1915.27 14093C1915.55 14092.7 1915.78 14092.4 1915.93 14092C1916.09 14091.6 1916.17 14091.1 1916.17 14090.7C1916.17 14090.3 1916.09 14089.9 1915.93 14089.5C1915.78 14089.1 1915.55 14088.7 1915.27 14088.4Z" fill="#F1D971" stroke="#F1D971" stroke-miterlimit="10"/>
<path d="M1869.83 14048.3C1871.52 14048.3 1872.89 14046.8 1872.89 14045C1872.89 14043.3 1871.52 14041.8 1869.83 14041.8C1868.14 14041.8 1866.77 14043.3 1866.77 14045C1866.77 14046.8 1868.14 14048.3 1869.83 14048.3Z" fill="#F1D971" stroke="#F1D971" stroke-miterlimit="10"/>
<path d="M1783.28 14094C1784.97 14094 1786.34 14092.5 1786.34 14090.7C1786.34 14088.9 1784.97 14087.5 1783.28 14087.5C1781.59 14087.5 1780.21 14088.9 1780.21 14090.7C1780.21 14092.5 1781.59 14094 1783.28 14094Z" fill="#F1D971" stroke="#F1D971" stroke-miterlimit="10"/>
<path d="M1783.28 14185.3C1784.97 14185.3 1786.34 14183.9 1786.34 14182.1C1786.34 14180.3 1784.97 14178.9 1783.28 14178.9C1781.59 14178.9 1780.21 14180.3 1780.21 14182.1C1780.21 14183.9 1781.59 14185.3 1783.28 14185.3Z" fill="#F1D971" stroke="#F1D971" stroke-miterlimit="10"/>
<path d="M1781.11 14230.1C1781.54 14230.5 1782.08 14230.8 1782.68 14230.9C1783.27 14231.1 1783.89 14231 1784.45 14230.8C1785.01 14230.5 1785.49 14230.1 1785.82 14229.6C1786.16 14229 1786.34 14228.4 1786.34 14227.8C1786.34 14227.1 1786.16 14226.5 1785.82 14226C1785.49 14225.4 1785.01 14225 1784.45 14224.8C1783.89 14224.5 1783.27 14224.5 1782.68 14224.6C1782.08 14224.7 1781.54 14225 1781.11 14225.5C1780.54 14226.1 1780.22 14226.9 1780.22 14227.8C1780.22 14228.6 1780.54 14229.4 1781.11 14230.1Z" fill="#F1D971" stroke="#F1D971" stroke-miterlimit="10"/>
<path d="M1740 14185.3C1741.69 14185.3 1743.06 14183.9 1743.06 14182.1C1743.06 14180.3 1741.69 14178.9 1740 14178.9C1738.31 14178.9 1736.94 14180.3 1736.94 14182.1C1736.94 14183.9 1738.31 14185.3 1740 14185.3Z" fill="#F1D971" stroke="#F1D971" stroke-miterlimit="10"/>
<path d="M1824.39 14179.8C1823.96 14180.2 1823.67 14180.8 1823.55 14181.5C1823.43 14182.1 1823.49 14182.7 1823.72 14183.3C1823.96 14183.9 1824.35 14184.4 1824.85 14184.8C1825.36 14185.1 1825.95 14185.3 1826.55 14185.3C1827.16 14185.3 1827.75 14185.1 1828.25 14184.8C1828.76 14184.4 1829.15 14183.9 1829.38 14183.3C1829.61 14182.7 1829.67 14182.1 1829.56 14181.5C1829.44 14180.8 1829.15 14180.2 1828.72 14179.8C1828.43 14179.5 1828.1 14179.3 1827.72 14179.1C1827.35 14178.9 1826.96 14178.9 1826.55 14178.9C1826.15 14178.9 1825.75 14178.9 1825.38 14179.1C1825.01 14179.3 1824.67 14179.5 1824.39 14179.8Z" fill="#F1D971" stroke="#F1D971" stroke-miterlimit="10"/>
<path d="M1785.44 14134.1C1785.01 14133.7 1784.47 14133.4 1783.87 14133.2C1783.28 14133.1 1782.66 14133.2 1782.1 14133.4C1781.54 14133.7 1781.06 14134.1 1780.73 14134.6C1780.39 14135.1 1780.21 14135.8 1780.21 14136.4C1780.21 14137 1780.39 14137.7 1780.73 14138.2C1781.06 14138.7 1781.54 14139.1 1782.1 14139.4C1782.66 14139.6 1783.28 14139.7 1783.87 14139.6C1784.47 14139.4 1785.01 14139.1 1785.44 14138.7C1786.01 14138.1 1786.33 14137.3 1786.33 14136.4C1786.33 14135.5 1786.01 14134.7 1785.44 14134.1Z" fill="#F1D971" stroke="#F1D971" stroke-miterlimit="10"/>
<path d="M1698.88 14179.8C1698.46 14179.3 1697.91 14179 1697.32 14178.9C1696.72 14178.8 1696.11 14178.9 1695.55 14179.1C1694.99 14179.3 1694.51 14179.8 1694.18 14180.3C1693.84 14180.8 1693.66 14181.4 1693.66 14182.1C1693.66 14182.7 1693.84 14183.3 1694.18 14183.9C1694.51 14184.4 1694.99 14184.8 1695.55 14185.1C1696.11 14185.3 1696.72 14185.4 1697.32 14185.2C1697.91 14185.1 1698.46 14184.8 1698.88 14184.4C1699.46 14183.8 1699.78 14182.9 1699.78 14182.1C1699.78 14181.2 1699.46 14180.4 1698.88 14179.8Z" fill="#F1D971" stroke="#F1D971" stroke-miterlimit="10"/>
<path d="M1742.16 14134.1C1741.73 14133.7 1741.19 14133.4 1740.59 14133.2C1740 14133.1 1739.38 14133.2 1738.82 14133.4C1738.26 14133.7 1737.79 14134.1 1737.45 14134.6C1737.11 14135.1 1736.93 14135.8 1736.93 14136.4C1736.93 14137 1737.11 14137.7 1737.45 14138.2C1737.79 14138.7 1738.26 14139.1 1738.82 14139.4C1739.38 14139.6 1740 14139.7 1740.59 14139.6C1741.19 14139.4 1741.73 14139.1 1742.16 14138.7C1742.73 14138.1 1743.05 14137.3 1743.05 14136.4C1743.05 14135.5 1742.73 14134.7 1742.16 14134.1Z" fill="#F1D971" stroke="#F1D971" stroke-miterlimit="10"/>
<path d="M1869.83 14185.3C1871.52 14185.3 1872.89 14183.9 1872.89 14182.1C1872.89 14180.3 1871.52 14178.9 1869.83 14178.9C1868.14 14178.9 1866.77 14180.3 1866.77 14182.1C1866.77 14183.9 1868.14 14185.3 1869.83 14185.3Z" fill="#F1D971" stroke="#F1D971" stroke-miterlimit="10"/>
<path d="M1694.56 14225.5C1694.13 14225.9 1693.84 14226.5 1693.72 14227.1C1693.6 14227.8 1693.66 14228.4 1693.89 14229C1694.12 14229.6 1694.52 14230.1 1695.02 14230.5C1695.52 14230.8 1696.11 14231 1696.72 14231C1697.33 14231 1697.92 14230.8 1698.42 14230.5C1698.92 14230.1 1699.32 14229.6 1699.55 14229C1699.78 14228.4 1699.84 14227.8 1699.72 14227.1C1699.6 14226.5 1699.31 14225.9 1698.88 14225.5C1698.6 14225.2 1698.26 14224.9 1697.89 14224.8C1697.52 14224.6 1697.12 14224.5 1696.72 14224.5C1696.32 14224.5 1695.92 14224.6 1695.55 14224.8C1695.18 14224.9 1694.84 14225.2 1694.56 14225.5Z" fill="#F1D971" stroke="#F1D971" stroke-miterlimit="10"/>
<path d="M1655.61 14225.5C1655.19 14225 1654.64 14224.7 1654.05 14224.6C1653.45 14224.5 1652.84 14224.5 1652.28 14224.8C1651.72 14225 1651.24 14225.4 1650.9 14226C1650.57 14226.5 1650.39 14227.1 1650.39 14227.8C1650.39 14228.4 1650.57 14229 1650.9 14229.6C1651.24 14230.1 1651.72 14230.5 1652.28 14230.8C1652.84 14231 1653.45 14231.1 1654.05 14230.9C1654.64 14230.8 1655.19 14230.5 1655.61 14230C1656.19 14229.4 1656.51 14228.6 1656.51 14227.8C1656.51 14226.9 1656.19 14226.1 1655.61 14225.5Z" fill="#F1D971" stroke="#F1D971" stroke-miterlimit="10"/>
<path d="M1737.83 14230.1C1738.26 14230.5 1738.8 14230.8 1739.4 14230.9C1739.99 14231.1 1740.61 14231 1741.17 14230.8C1741.73 14230.5 1742.21 14230.1 1742.54 14229.6C1742.88 14229 1743.06 14228.4 1743.06 14227.8C1743.06 14227.1 1742.88 14226.5 1742.54 14226C1742.21 14225.4 1741.73 14225 1741.17 14224.8C1740.61 14224.5 1739.99 14224.5 1739.4 14224.6C1738.8 14224.7 1738.26 14225 1737.83 14225.5C1737.26 14226.1 1736.94 14226.9 1736.94 14227.8C1736.94 14228.6 1737.26 14229.4 1737.83 14230.1Z" fill="#F1D971" stroke="#F1D971" stroke-miterlimit="10"/>
<path d="M1910.94 13818.9C1911.37 13819.4 1911.92 13819.7 1912.51 13819.8C1913.1 13819.9 1913.72 13819.9 1914.28 13819.6C1914.84 13819.4 1915.31 13819 1915.65 13818.4C1915.99 13817.9 1916.17 13817.3 1916.17 13816.6C1916.17 13816 1915.99 13815.4 1915.65 13814.8C1915.31 13814.3 1914.84 13813.9 1914.28 13813.7C1913.72 13813.4 1913.1 13813.3 1912.51 13813.5C1911.92 13813.6 1911.37 13813.9 1910.94 13814.4C1910.37 13815 1910.05 13815.8 1910.05 13816.6C1910.05 13817.5 1910.37 13818.3 1910.94 13818.9Z" fill="#F1D971" stroke="#F1D971" stroke-miterlimit="10"/>
<path d="M1828.72 13951.4C1828.29 13950.9 1827.75 13950.6 1827.15 13950.5C1826.56 13950.4 1825.94 13950.4 1825.38 13950.7C1824.82 13950.9 1824.34 13951.4 1824.01 13951.9C1823.67 13952.4 1823.49 13953 1823.49 13953.7C1823.49 13954.3 1823.67 13954.9 1824.01 13955.5C1824.34 13956 1824.82 13956.4 1825.38 13956.7C1825.94 13956.9 1826.56 13957 1827.15 13956.8C1827.75 13956.7 1828.29 13956.4 1828.72 13956C1829.29 13955.4 1829.61 13954.5 1829.61 13953.7C1829.61 13952.8 1829.29 13952 1828.72 13951.4Z" fill="#F1D971" stroke="#F1D971" stroke-miterlimit="10"/>
<path d="M1869.83 13911.2C1871.52 13911.2 1872.89 13909.8 1872.89 13908C1872.89 13906.2 1871.52 13904.8 1869.83 13904.8C1868.14 13904.8 1866.77 13906.2 1866.77 13908C1866.77 13909.8 1868.14 13911.2 1869.83 13911.2Z" fill="#F1D971" stroke="#F1D971" stroke-miterlimit="10"/>
<path d="M1910.94 13956C1911.37 13956.4 1911.92 13956.7 1912.51 13956.8C1913.1 13957 1913.72 13956.9 1914.28 13956.7C1914.84 13956.4 1915.32 13956 1915.65 13955.5C1915.99 13954.9 1916.17 13954.3 1916.17 13953.7C1916.17 13953 1915.99 13952.4 1915.65 13951.9C1915.32 13951.4 1914.84 13950.9 1914.28 13950.7C1913.72 13950.5 1913.1 13950.4 1912.51 13950.5C1911.92 13950.6 1911.37 13950.9 1910.94 13951.4C1910.66 13951.7 1910.43 13952.1 1910.28 13952.4C1910.13 13952.8 1910.05 13953.3 1910.05 13953.7C1910.05 13954.1 1910.13 13954.5 1910.28 13954.9C1910.43 13955.3 1910.66 13955.7 1910.94 13956Z" fill="#F1D971" stroke="#F1D971" stroke-miterlimit="10"/>
<path d="M1869.83 13956.9C1871.52 13956.9 1872.89 13955.5 1872.89 13953.7C1872.89 13951.9 1871.52 13950.5 1869.83 13950.5C1868.14 13950.5 1866.77 13951.9 1866.77 13953.7C1866.77 13955.5 1868.14 13956.9 1869.83 13956.9Z" fill="#F1D971" stroke="#F1D971" stroke-miterlimit="10"/>
<path d="M1824.39 13910.3C1824.82 13910.7 1825.36 13911 1825.96 13911.2C1826.55 13911.3 1827.16 13911.2 1827.72 13911C1828.28 13910.7 1828.76 13910.3 1829.1 13909.8C1829.43 13909.3 1829.61 13908.6 1829.61 13908C1829.61 13907.4 1829.43 13906.7 1829.1 13906.2C1828.76 13905.7 1828.28 13905.3 1827.72 13905C1827.16 13904.8 1826.55 13904.7 1825.96 13904.8C1825.36 13905 1824.82 13905.3 1824.39 13905.7C1824.1 13906 1823.88 13906.4 1823.73 13906.8C1823.57 13907.2 1823.49 13907.6 1823.49 13908C1823.49 13908.4 1823.57 13908.8 1823.73 13909.2C1823.88 13909.6 1824.1 13910 1824.39 13910.3Z" fill="#F1D971" stroke="#F1D971" stroke-miterlimit="10"/>
<path d="M1915.27 13905.7C1914.84 13905.3 1914.29 13905 1913.7 13904.8C1913.11 13904.7 1912.49 13904.8 1911.93 13905C1911.38 13905.3 1910.9 13905.7 1910.56 13906.2C1910.23 13906.7 1910.05 13907.4 1910.05 13908C1910.05 13908.6 1910.23 13909.3 1910.56 13909.8C1910.9 13910.3 1911.38 13910.7 1911.93 13911C1912.49 13911.2 1913.11 13911.3 1913.7 13911.2C1914.29 13911 1914.84 13910.7 1915.27 13910.3C1915.55 13910 1915.78 13909.6 1915.93 13909.2C1916.09 13908.8 1916.17 13908.4 1916.17 13908C1916.17 13907.6 1916.09 13907.2 1915.93 13906.8C1915.78 13906.4 1915.55 13906 1915.27 13905.7Z" fill="#F1D971" stroke="#F1D971" stroke-miterlimit="10"/>
<path d="M1867.66 13864.6C1868.09 13865.1 1868.64 13865.4 1869.23 13865.5C1869.82 13865.6 1870.44 13865.6 1871 13865.3C1871.56 13865.1 1872.04 13864.6 1872.37 13864.1C1872.71 13863.6 1872.89 13863 1872.89 13862.3C1872.89 13861.7 1872.71 13861.1 1872.37 13860.5C1872.04 13860 1871.56 13859.6 1871 13859.3C1870.44 13859.1 1869.82 13859 1869.23 13859.2C1868.64 13859.3 1868.09 13859.6 1867.66 13860C1867.09 13860.6 1866.77 13861.5 1866.77 13862.3C1866.77 13863.2 1867.09 13864 1867.66 13864.6Z" fill="#F1D971" stroke="#F1D971" stroke-miterlimit="10"/>
<path d="M1783.28 13911.2C1784.97 13911.2 1786.34 13909.8 1786.34 13908C1786.34 13906.2 1784.97 13904.8 1783.28 13904.8C1781.59 13904.8 1780.21 13906.2 1780.21 13908C1780.21 13909.8 1781.59 13911.2 1783.28 13911.2Z" fill="#F1D971" stroke="#F1D971" stroke-miterlimit="10"/>
<path d="M1910.94 13864.6C1911.37 13865.1 1911.92 13865.4 1912.51 13865.5C1913.1 13865.6 1913.72 13865.6 1914.28 13865.3C1914.84 13865.1 1915.31 13864.6 1915.65 13864.1C1915.99 13863.6 1916.17 13863 1916.17 13862.3C1916.17 13861.7 1915.99 13861.1 1915.65 13860.5C1915.31 13860 1914.84 13859.6 1914.28 13859.3C1913.72 13859.1 1913.1 13859 1912.51 13859.2C1911.92 13859.3 1911.37 13859.6 1910.94 13860C1910.37 13860.6 1910.05 13861.5 1910.05 13862.3C1910.05 13863.2 1910.37 13864 1910.94 13864.6Z" fill="#F1D971" stroke="#F1D971" stroke-miterlimit="10"/>
<path d="M1740 14048.3C1741.69 14048.3 1743.06 14046.8 1743.06 14045C1743.06 14043.3 1741.69 14041.8 1740 14041.8C1738.31 14041.8 1736.94 14043.3 1736.94 14045C1736.94 14046.8 1738.31 14048.3 1740 14048.3Z" fill="#F1D971" stroke="#F1D971" stroke-miterlimit="10"/>
<path d="M1783.28 14002.6C1784.97 14002.6 1786.34 14001.1 1786.34 13999.4C1786.34 13997.6 1784.97 13996.1 1783.28 13996.1C1781.59 13996.1 1780.21 13997.6 1780.21 13999.4C1780.21 14001.1 1781.59 14002.6 1783.28 14002.6Z" fill="#F1D971" stroke="#F1D971" stroke-miterlimit="10"/>
<path d="M1824.38 14047.3C1824.81 14047.8 1825.36 14048.1 1825.95 14048.2C1826.55 14048.3 1827.16 14048.3 1827.72 14048C1828.28 14047.8 1828.76 14047.4 1829.1 14046.8C1829.43 14046.3 1829.61 14045.7 1829.61 14045C1829.61 14044.4 1829.43 14043.8 1829.1 14043.2C1828.76 14042.7 1828.28 14042.3 1827.72 14042.1C1827.16 14041.8 1826.55 14041.8 1825.95 14041.9C1825.36 14042 1824.81 14042.3 1824.38 14042.8C1823.81 14043.4 1823.49 14044.2 1823.49 14045C1823.49 14045.9 1823.81 14046.7 1824.38 14047.3Z" fill="#F1D971" stroke="#F1D971" stroke-miterlimit="10"/>
<path d="M1783.28 14048.3C1784.97 14048.3 1786.34 14046.8 1786.34 14045C1786.34 14043.3 1784.97 14041.8 1783.28 14041.8C1781.59 14041.8 1780.21 14043.3 1780.21 14045C1780.21 14046.8 1781.59 14048.3 1783.28 14048.3Z" fill="#F1D971" stroke="#F1D971" stroke-miterlimit="10"/>
<path d="M1740 14002.6C1741.69 14002.6 1743.06 14001.1 1743.06 13999.4C1743.06 13997.6 1741.69 13996.1 1740 13996.1C1738.31 13996.1 1736.94 13997.6 1736.94 13999.4C1736.94 14001.1 1738.31 14002.6 1740 14002.6Z" fill="#F1D971" stroke="#F1D971" stroke-miterlimit="10"/>
<path d="M1828.72 13997.1C1828.29 13996.6 1827.75 13996.3 1827.15 13996.2C1826.56 13996.1 1825.94 13996.1 1825.38 13996.4C1824.82 13996.6 1824.34 13997 1824.01 13997.6C1823.67 13998.1 1823.49 13998.7 1823.49 13999.4C1823.49 14000 1823.67 14000.6 1824.01 14001.2C1824.34 14001.7 1824.82 14002.1 1825.38 14002.3C1825.94 14002.6 1826.56 14002.7 1827.15 14002.5C1827.75 14002.4 1828.29 14002.1 1828.72 14001.6C1829.29 14001 1829.61 14000.2 1829.61 13999.4C1829.61 13998.5 1829.29 13997.7 1828.72 13997.1Z" fill="#F1D971" stroke="#F1D971" stroke-miterlimit="10"/>
<path d="M1783.28 13956.9C1784.97 13956.9 1786.34 13955.5 1786.34 13953.7C1786.34 13951.9 1784.97 13950.5 1783.28 13950.5C1781.59 13950.5 1780.21 13951.9 1780.21 13953.7C1780.21 13955.5 1781.59 13956.9 1783.28 13956.9Z" fill="#F1D971" stroke="#F1D971" stroke-miterlimit="10"/>
<path d="M1698.88 13997.1C1698.46 13996.6 1697.91 13996.3 1697.32 13996.2C1696.72 13996.1 1696.11 13996.1 1695.55 13996.4C1694.99 13996.6 1694.51 13997 1694.18 13997.6C1693.84 13998.1 1693.66 13998.7 1693.66 13999.4C1693.66 14000 1693.84 14000.6 1694.18 14001.2C1694.51 14001.7 1694.99 14002.1 1695.55 14002.3C1696.11 14002.6 1696.72 14002.7 1697.32 14002.5C1697.91 14002.4 1698.46 14002.1 1698.88 14001.6C1699.46 14001 1699.78 14000.2 1699.78 13999.4C1699.78 13998.5 1699.46 13997.7 1698.88 13997.1Z" fill="#F1D971" stroke="#F1D971" stroke-miterlimit="10"/>
<path d="M1740 13956.9C1741.69 13956.9 1743.06 13955.5 1743.06 13953.7C1743.06 13951.9 1741.69 13950.5 1740 13950.5C1738.31 13950.5 1736.94 13951.9 1736.94 13953.7C1736.94 13955.5 1738.31 13956.9 1740 13956.9Z" fill="#F1D971" stroke="#F1D971" stroke-miterlimit="10"/>
<path d="M1655.61 14134.1C1655.19 14133.7 1654.64 14133.4 1654.05 14133.2C1653.45 14133.1 1652.84 14133.2 1652.28 14133.4C1651.72 14133.7 1651.24 14134.1 1650.9 14134.6C1650.57 14135.1 1650.39 14135.8 1650.39 14136.4C1650.39 14137 1650.57 14137.7 1650.9 14138.2C1651.24 14138.7 1651.72 14139.1 1652.28 14139.4C1652.84 14139.6 1653.45 14139.7 1654.05 14139.6C1654.64 14139.4 1655.19 14139.1 1655.61 14138.7C1656.19 14138.1 1656.51 14137.3 1656.51 14136.4C1656.51 14135.5 1656.19 14134.7 1655.61 14134.1Z" fill="#F1D971" stroke="#F1D971" stroke-miterlimit="10"/>
<path d="M1698.88 14088.4C1698.46 14088 1697.91 14087.7 1697.32 14087.6C1696.72 14087.4 1696.11 14087.5 1695.55 14087.7C1694.99 14088 1694.52 14088.4 1694.18 14088.9C1693.84 14089.5 1693.66 14090.1 1693.66 14090.7C1693.66 14091.4 1693.84 14092 1694.18 14092.5C1694.52 14093 1694.99 14093.5 1695.55 14093.7C1696.11 14094 1696.72 14094 1697.32 14093.9C1697.91 14093.8 1698.46 14093.5 1698.88 14093C1699.17 14092.7 1699.39 14092.4 1699.55 14092C1699.7 14091.6 1699.78 14091.1 1699.78 14090.7C1699.78 14090.3 1699.7 14089.9 1699.55 14089.5C1699.39 14089.1 1699.17 14088.7 1698.88 14088.4Z" fill="#F1D971" stroke="#F1D971" stroke-miterlimit="10"/>
<path d="M1698.88 14134.1C1698.46 14133.7 1697.91 14133.4 1697.32 14133.2C1696.72 14133.1 1696.11 14133.2 1695.55 14133.4C1694.99 14133.7 1694.51 14134.1 1694.18 14134.6C1693.84 14135.1 1693.66 14135.8 1693.66 14136.4C1693.66 14137 1693.84 14137.7 1694.18 14138.2C1694.51 14138.7 1694.99 14139.1 1695.55 14139.4C1696.11 14139.6 1696.72 14139.7 1697.32 14139.6C1697.91 14139.4 1698.46 14139.1 1698.88 14138.7C1699.46 14138.1 1699.78 14137.3 1699.78 14136.4C1699.78 14135.5 1699.46 14134.7 1698.88 14134.1Z" fill="#F1D971" stroke="#F1D971" stroke-miterlimit="10"/>
<path d="M1653.44 14094C1655.13 14094 1656.5 14092.5 1656.5 14090.7C1656.5 14088.9 1655.13 14087.5 1653.44 14087.5C1651.75 14087.5 1650.38 14088.9 1650.38 14090.7C1650.38 14092.5 1651.75 14094 1653.44 14094Z" fill="#F1D971" stroke="#F1D971" stroke-miterlimit="10"/>
<path d="M1740 14094C1741.69 14094 1743.06 14092.5 1743.06 14090.7C1743.06 14088.9 1741.69 14087.5 1740 14087.5C1738.31 14087.5 1736.94 14088.9 1736.94 14090.7C1736.94 14092.5 1738.31 14094 1740 14094Z" fill="#F1D971" stroke="#F1D971" stroke-miterlimit="10"/>
<path d="M1698.88 14042.8C1698.46 14042.3 1697.91 14042 1697.32 14041.9C1696.72 14041.7 1696.11 14041.8 1695.55 14042.1C1694.99 14042.3 1694.51 14042.7 1694.18 14043.2C1693.84 14043.8 1693.66 14044.4 1693.66 14045C1693.66 14045.7 1693.84 14046.3 1694.18 14046.8C1694.51 14047.4 1694.99 14047.8 1695.55 14048C1696.11 14048.3 1696.72 14048.3 1697.32 14048.2C1697.91 14048.1 1698.46 14047.8 1698.88 14047.3C1699.17 14047 1699.39 14046.7 1699.55 14046.3C1699.7 14045.9 1699.78 14045.5 1699.78 14045C1699.78 14044.6 1699.7 14044.2 1699.55 14043.8C1699.39 14043.4 1699.17 14043.1 1698.88 14042.8Z" fill="#F1D971" stroke="#F1D971" stroke-miterlimit="10"/>
<path d="M1610.17 14094C1611.86 14094 1613.23 14092.5 1613.23 14090.7C1613.23 14088.9 1611.86 14087.5 1610.17 14087.5C1608.48 14087.5 1607.11 14088.9 1607.11 14090.7C1607.11 14092.5 1608.48 14094 1610.17 14094Z" fill="#F1D971" stroke="#F1D971" stroke-miterlimit="10"/>
<path d="M1653.44 14048.3C1655.13 14048.3 1656.5 14046.8 1656.5 14045C1656.5 14043.3 1655.13 14041.8 1653.44 14041.8C1651.75 14041.8 1650.38 14043.3 1650.38 14045C1650.38 14046.8 1651.75 14048.3 1653.44 14048.3Z" fill="#F1D971" stroke="#F1D971" stroke-miterlimit="10"/>
<path d="M1610.17 14185.3C1611.86 14185.3 1613.23 14183.9 1613.23 14182.1C1613.23 14180.3 1611.86 14178.9 1610.17 14178.9C1608.48 14178.9 1607.11 14180.3 1607.11 14182.1C1607.11 14183.9 1608.48 14185.3 1610.17 14185.3Z" fill="#F1D971" stroke="#F1D971" stroke-miterlimit="10"/>
<path d="M1566.89 14185.3C1568.58 14185.3 1569.95 14183.9 1569.95 14182.1C1569.95 14180.3 1568.58 14178.9 1566.89 14178.9C1565.2 14178.9 1563.83 14180.3 1563.83 14182.1C1563.83 14183.9 1565.2 14185.3 1566.89 14185.3Z" fill="#F1D971" stroke="#F1D971" stroke-miterlimit="10"/>
<path d="M1653.44 14185.3C1655.13 14185.3 1656.5 14183.9 1656.5 14182.1C1656.5 14180.3 1655.13 14178.9 1653.44 14178.9C1651.75 14178.9 1650.38 14180.3 1650.38 14182.1C1650.38 14183.9 1651.75 14185.3 1653.44 14185.3Z" fill="#F1D971" stroke="#F1D971" stroke-miterlimit="10"/>
<path d="M1612.34 14134.1C1611.91 14133.7 1611.36 14133.4 1610.77 14133.2C1610.18 14133.1 1609.56 14133.2 1609 14133.4C1608.44 14133.7 1607.96 14134.1 1607.63 14134.6C1607.29 14135.1 1607.11 14135.8 1607.11 14136.4C1607.11 14137 1607.29 14137.7 1607.63 14138.2C1607.96 14138.7 1608.44 14139.1 1609 14139.4C1609.56 14139.6 1610.18 14139.7 1610.77 14139.6C1611.36 14139.4 1611.91 14139.1 1612.34 14138.7C1612.91 14138.1 1613.23 14137.3 1613.23 14136.4C1613.23 14135.5 1612.91 14134.7 1612.34 14134.1Z" fill="#F1D971" stroke="#F1D971" stroke-miterlimit="10"/>
<path d="M1569.06 14134.1C1568.63 14133.7 1568.08 14133.4 1567.49 14133.2C1566.89 14133.1 1566.28 14133.2 1565.72 14133.4C1565.16 14133.7 1564.68 14134.1 1564.34 14134.6C1564.01 14135.1 1563.83 14135.8 1563.83 14136.4C1563.83 14137 1564.01 14137.7 1564.34 14138.2C1564.68 14138.7 1565.16 14139.1 1565.72 14139.4C1566.28 14139.6 1566.89 14139.7 1567.49 14139.6C1568.08 14139.4 1568.63 14139.1 1569.06 14138.7C1569.63 14138.1 1569.95 14137.3 1569.95 14136.4C1569.95 14135.5 1569.63 14134.7 1569.06 14134.1Z" fill="#F1D971" stroke="#F1D971" stroke-miterlimit="10"/>
<path d="M1915.27 13677.3C1914.84 13676.9 1914.29 13676.6 1913.7 13676.4C1913.11 13676.3 1912.49 13676.4 1911.93 13676.6C1911.37 13676.9 1910.89 13677.3 1910.56 13677.8C1910.22 13678.3 1910.04 13679 1910.04 13679.6C1910.04 13680.2 1910.22 13680.9 1910.56 13681.4C1910.89 13681.9 1911.37 13682.3 1911.93 13682.6C1912.49 13682.8 1913.11 13682.9 1913.7 13682.8C1914.29 13682.6 1914.84 13682.3 1915.27 13681.9C1915.55 13681.6 1915.78 13681.2 1915.93 13680.8C1916.08 13680.4 1916.16 13680 1916.16 13679.6C1916.16 13679.2 1916.08 13678.8 1915.93 13678.4C1915.78 13678 1915.55 13677.6 1915.27 13677.3Z" fill="#F1D971" stroke="#F1D971" stroke-miterlimit="10"/>
<path d="M1915.27 13636.2C1915.69 13635.7 1915.99 13635.2 1916.1 13634.5C1916.22 13633.9 1916.16 13633.3 1915.93 13632.7C1915.7 13632.1 1915.31 13631.6 1914.8 13631.2C1914.3 13630.9 1913.71 13630.7 1913.1 13630.7C1912.5 13630.7 1911.91 13630.9 1911.4 13631.2C1910.9 13631.6 1910.51 13632.1 1910.28 13632.7C1910.04 13633.3 1909.98 13633.9 1910.1 13634.5C1910.22 13635.2 1910.51 13635.7 1910.94 13636.2C1911.51 13636.8 1912.29 13637.1 1913.1 13637.1C1913.91 13637.1 1914.69 13636.8 1915.27 13636.2Z" fill="#F1D971" stroke="#F1D971" stroke-miterlimit="10"/>
<path d="M1871.98 13631.6C1871.55 13631.2 1871.01 13630.9 1870.41 13630.7C1869.82 13630.6 1869.21 13630.7 1868.65 13630.9C1868.09 13631.2 1867.61 13631.6 1867.27 13632.1C1866.94 13632.7 1866.76 13633.3 1866.76 13633.9C1866.76 13634.6 1866.94 13635.2 1867.27 13635.7C1867.61 13636.2 1868.09 13636.7 1868.65 13636.9C1869.21 13637.1 1869.82 13637.2 1870.41 13637.1C1871.01 13637 1871.55 13636.6 1871.98 13636.2C1872.27 13635.9 1872.49 13635.5 1872.65 13635.1C1872.8 13634.8 1872.88 13634.3 1872.88 13633.9C1872.88 13633.5 1872.8 13633.1 1872.65 13632.7C1872.49 13632.3 1872.27 13631.9 1871.98 13631.6Z" fill="#F1D971" stroke="#F1D971" stroke-miterlimit="10"/>
<path d="M1867.67 13727.6C1868.09 13728 1868.64 13728.3 1869.23 13728.4C1869.82 13728.6 1870.44 13728.5 1871 13728.3C1871.56 13728 1872.03 13727.6 1872.37 13727.1C1872.71 13726.5 1872.88 13725.9 1872.88 13725.3C1872.88 13724.6 1872.71 13724 1872.37 13723.5C1872.03 13723 1871.56 13722.5 1871 13722.3C1870.44 13722 1869.82 13722 1869.23 13722.1C1868.64 13722.2 1868.09 13722.5 1867.67 13723C1867.38 13723.3 1867.15 13723.6 1867 13724C1866.85 13724.4 1866.77 13724.9 1866.77 13725.3C1866.77 13725.7 1866.85 13726.1 1867 13726.5C1867.15 13726.9 1867.38 13727.3 1867.67 13727.6Z" fill="#F1D971" stroke="#F1D971" stroke-miterlimit="10"/>
<path d="M1910.94 13773.2C1911.37 13773.7 1911.92 13774 1912.51 13774.1C1913.1 13774.3 1913.72 13774.2 1914.28 13773.9C1914.84 13773.7 1915.32 13773.3 1915.65 13772.8C1915.99 13772.2 1916.17 13771.6 1916.17 13771C1916.17 13770.3 1915.99 13769.7 1915.65 13769.2C1915.32 13768.6 1914.84 13768.2 1914.28 13768C1913.72 13767.7 1913.1 13767.7 1912.51 13767.8C1911.92 13767.9 1911.37 13768.2 1910.94 13768.7C1910.66 13769 1910.43 13769.3 1910.28 13769.7C1910.13 13770.1 1910.05 13770.5 1910.05 13771C1910.05 13771.4 1910.13 13771.8 1910.28 13772.2C1910.43 13772.6 1910.66 13772.9 1910.94 13773.2Z" fill="#F1D971" stroke="#F1D971" stroke-miterlimit="10"/>
<path d="M1867.66 13773.2C1868.09 13773.7 1868.64 13774 1869.23 13774.1C1869.82 13774.3 1870.44 13774.2 1871 13773.9C1871.56 13773.7 1872.03 13773.3 1872.37 13772.8C1872.71 13772.2 1872.89 13771.6 1872.89 13771C1872.89 13770.3 1872.71 13769.7 1872.37 13769.2C1872.03 13768.6 1871.56 13768.2 1871 13768C1870.44 13767.7 1869.82 13767.7 1869.23 13767.8C1868.64 13767.9 1868.09 13768.2 1867.66 13768.7C1867.38 13769 1867.15 13769.3 1867 13769.7C1866.84 13770.1 1866.77 13770.5 1866.77 13771C1866.77 13771.4 1866.84 13771.8 1867 13772.2C1867.15 13772.6 1867.38 13772.9 1867.66 13773.2Z" fill="#F1D971" stroke="#F1D971" stroke-miterlimit="10"/>
<path d="M1824.39 13727.6C1824.82 13728 1825.36 13728.3 1825.96 13728.4C1826.55 13728.6 1827.16 13728.5 1827.72 13728.3C1828.28 13728 1828.76 13727.6 1829.1 13727.1C1829.43 13726.5 1829.61 13725.9 1829.61 13725.3C1829.61 13724.6 1829.43 13724 1829.1 13723.5C1828.76 13722.9 1828.28 13722.5 1827.72 13722.3C1827.16 13722 1826.55 13722 1825.96 13722.1C1825.36 13722.2 1824.82 13722.5 1824.39 13723C1824.1 13723.3 1823.88 13723.6 1823.73 13724C1823.57 13724.4 1823.49 13724.8 1823.49 13725.3C1823.49 13725.7 1823.57 13726.1 1823.73 13726.5C1823.88 13726.9 1824.1 13727.3 1824.39 13727.6Z" fill="#F1D971" stroke="#F1D971" stroke-miterlimit="10"/>
<path d="M1910.94 13727.6C1911.37 13728 1911.92 13728.3 1912.51 13728.4C1913.1 13728.6 1913.72 13728.5 1914.27 13728.3C1914.83 13728 1915.31 13727.6 1915.65 13727.1C1915.98 13726.5 1916.16 13725.9 1916.16 13725.3C1916.16 13724.6 1915.98 13724 1915.65 13723.5C1915.31 13723 1914.83 13722.5 1914.27 13722.3C1913.72 13722 1913.1 13722 1912.51 13722.1C1911.92 13722.2 1911.37 13722.5 1910.94 13723C1910.66 13723.3 1910.43 13723.6 1910.28 13724C1910.12 13724.4 1910.04 13724.9 1910.04 13725.3C1910.04 13725.7 1910.12 13726.1 1910.28 13726.5C1910.43 13726.9 1910.66 13727.3 1910.94 13727.6Z" fill="#F1D971" stroke="#F1D971" stroke-miterlimit="10"/>
<path d="M1869.83 13682.8C1871.52 13682.8 1872.89 13681.4 1872.89 13679.6C1872.89 13677.8 1871.52 13676.4 1869.83 13676.4C1868.14 13676.4 1866.77 13677.8 1866.77 13679.6C1866.77 13681.4 1868.14 13682.8 1869.83 13682.8Z" fill="#F1D971" stroke="#F1D971" stroke-miterlimit="10"/>
<path d="M1742.16 13860C1741.73 13859.6 1741.19 13859.3 1740.59 13859.1C1740 13859 1739.38 13859.1 1738.82 13859.3C1738.26 13859.6 1737.79 13860 1737.45 13860.5C1737.11 13861.1 1736.93 13861.7 1736.93 13862.3C1736.93 13863 1737.11 13863.6 1737.45 13864.1C1737.79 13864.6 1738.26 13865.1 1738.82 13865.3C1739.38 13865.5 1740 13865.6 1740.59 13865.5C1741.19 13865.4 1741.73 13865.1 1742.16 13864.6C1742.73 13864 1743.06 13863.2 1743.06 13862.3C1743.06 13861.5 1742.73 13860.6 1742.16 13860Z" fill="#F1D971" stroke="#F1D971" stroke-miterlimit="10"/>
<path d="M1783.28 13819.9C1784.97 13819.9 1786.34 13818.4 1786.34 13816.6C1786.34 13814.9 1784.97 13813.4 1783.28 13813.4C1781.59 13813.4 1780.21 13814.9 1780.21 13816.6C1780.21 13818.4 1781.59 13819.9 1783.28 13819.9Z" fill="#F1D971" stroke="#F1D971" stroke-miterlimit="10"/>
<path d="M1824.38 13864.6C1824.81 13865.1 1825.36 13865.4 1825.95 13865.5C1826.55 13865.6 1827.16 13865.6 1827.72 13865.3C1828.28 13865.1 1828.76 13864.6 1829.1 13864.1C1829.43 13863.6 1829.61 13863 1829.61 13862.3C1829.61 13861.7 1829.43 13861.1 1829.1 13860.5C1828.76 13860 1828.28 13859.6 1827.72 13859.3C1827.16 13859.1 1826.55 13859 1825.95 13859.2C1825.36 13859.3 1824.81 13859.6 1824.38 13860C1823.81 13860.6 1823.49 13861.5 1823.49 13862.3C1823.49 13863.2 1823.81 13864 1824.38 13864.6Z" fill="#F1D971" stroke="#F1D971" stroke-miterlimit="10"/>
<path d="M1781.11 13864.6C1781.54 13865.1 1782.08 13865.4 1782.68 13865.5C1783.27 13865.6 1783.89 13865.6 1784.45 13865.3C1785.01 13865.1 1785.49 13864.6 1785.82 13864.1C1786.16 13863.6 1786.34 13863 1786.34 13862.3C1786.34 13861.7 1786.16 13861.1 1785.82 13860.5C1785.49 13860 1785.01 13859.6 1784.45 13859.3C1783.89 13859.1 1783.27 13859 1782.68 13859.2C1782.08 13859.3 1781.54 13859.6 1781.11 13860C1780.54 13860.6 1780.22 13861.5 1780.22 13862.3C1780.22 13863.2 1780.54 13864 1781.11 13864.6Z" fill="#F1D971" stroke="#F1D971" stroke-miterlimit="10"/>
<path d="M1740 13819.9C1741.69 13819.9 1743.06 13818.4 1743.06 13816.6C1743.06 13814.9 1741.69 13813.4 1740 13813.4C1738.31 13813.4 1736.94 13814.9 1736.94 13816.6C1736.94 13818.4 1738.31 13819.9 1740 13819.9Z" fill="#F1D971" stroke="#F1D971" stroke-miterlimit="10"/>
<path d="M1824.38 13818.9C1824.81 13819.4 1825.36 13819.7 1825.95 13819.8C1826.55 13819.9 1827.16 13819.9 1827.72 13819.6C1828.28 13819.4 1828.76 13819 1829.1 13818.4C1829.43 13817.9 1829.61 13817.3 1829.61 13816.6C1829.61 13816 1829.43 13815.4 1829.1 13814.8C1828.76 13814.3 1828.28 13813.9 1827.72 13813.7C1827.16 13813.4 1826.55 13813.3 1825.95 13813.5C1825.36 13813.6 1824.81 13813.9 1824.38 13814.4C1823.81 13815 1823.49 13815.8 1823.49 13816.6C1823.49 13817.5 1823.81 13818.3 1824.38 13818.9Z" fill="#F1D971" stroke="#F1D971" stroke-miterlimit="10"/>
<path d="M1781.11 13773.2C1781.54 13773.7 1782.08 13774 1782.68 13774.1C1783.27 13774.3 1783.89 13774.2 1784.45 13773.9C1785.01 13773.7 1785.48 13773.3 1785.82 13772.8C1786.16 13772.2 1786.34 13771.6 1786.34 13771C1786.34 13770.3 1786.16 13769.7 1785.82 13769.2C1785.48 13768.6 1785.01 13768.2 1784.45 13768C1783.89 13767.7 1783.27 13767.7 1782.68 13767.8C1782.08 13767.9 1781.54 13768.2 1781.11 13768.7C1780.54 13769.3 1780.21 13770.1 1780.21 13771C1780.21 13771.8 1780.54 13772.6 1781.11 13773.2Z" fill="#F1D971" stroke="#F1D971" stroke-miterlimit="10"/>
<path d="M1742.16 13768.7C1741.73 13768.2 1741.19 13767.9 1740.59 13767.8C1740 13767.7 1739.38 13767.7 1738.82 13768C1738.26 13768.2 1737.79 13768.6 1737.45 13769.2C1737.11 13769.7 1736.93 13770.3 1736.93 13771C1736.93 13771.6 1737.11 13772.2 1737.45 13772.8C1737.79 13773.3 1738.26 13773.7 1738.82 13773.9C1739.38 13774.2 1740 13774.2 1740.59 13774.1C1741.19 13774 1741.73 13773.7 1742.16 13773.2C1742.73 13772.6 1743.05 13771.8 1743.05 13771C1743.05 13770.1 1742.73 13769.3 1742.16 13768.7Z" fill="#F1D971" stroke="#F1D971" stroke-miterlimit="10"/>
<path d="M1824.39 13773.2C1824.81 13773.7 1825.36 13774 1825.95 13774.1C1826.55 13774.3 1827.16 13774.2 1827.72 13773.9C1828.28 13773.7 1828.76 13773.3 1829.1 13772.8C1829.43 13772.2 1829.61 13771.6 1829.61 13771C1829.61 13770.3 1829.43 13769.7 1829.1 13769.2C1828.76 13768.6 1828.28 13768.2 1827.72 13768C1827.16 13767.7 1826.55 13767.7 1825.95 13767.8C1825.36 13767.9 1824.81 13768.2 1824.39 13768.7C1823.81 13769.3 1823.49 13770.1 1823.49 13771C1823.49 13771.8 1823.81 13772.6 1824.39 13773.2Z" fill="#F1D971" stroke="#F1D971" stroke-miterlimit="10"/>
<path d="M1869.83 13819.9C1871.52 13819.9 1872.89 13818.4 1872.89 13816.6C1872.89 13814.9 1871.52 13813.4 1869.83 13813.4C1868.14 13813.4 1866.77 13814.9 1866.77 13816.6C1866.77 13818.4 1868.14 13819.9 1869.83 13819.9Z" fill="#F1D971" stroke="#F1D971" stroke-miterlimit="10"/>
<path d="M1653.44 13956.9C1655.13 13956.9 1656.5 13955.5 1656.5 13953.7C1656.5 13951.9 1655.13 13950.5 1653.44 13950.5C1651.75 13950.5 1650.38 13951.9 1650.38 13953.7C1650.38 13955.5 1651.75 13956.9 1653.44 13956.9Z" fill="#F1D971" stroke="#F1D971" stroke-miterlimit="10"/>
<path d="M1698.88 13905.7C1698.46 13905.3 1697.91 13905 1697.32 13904.8C1696.72 13904.7 1696.11 13904.8 1695.55 13905C1694.99 13905.3 1694.52 13905.7 1694.18 13906.2C1693.84 13906.7 1693.66 13907.4 1693.66 13908C1693.66 13908.6 1693.84 13909.3 1694.18 13909.8C1694.52 13910.3 1694.99 13910.7 1695.55 13911C1696.11 13911.2 1696.72 13911.3 1697.32 13911.2C1697.91 13911 1698.46 13910.7 1698.88 13910.3C1699.17 13910 1699.39 13909.6 1699.55 13909.2C1699.7 13908.8 1699.78 13908.4 1699.78 13908C1699.78 13907.6 1699.7 13907.2 1699.55 13906.8C1699.39 13906.4 1699.17 13906 1698.88 13905.7Z" fill="#F1D971" stroke="#F1D971" stroke-miterlimit="10"/>
<path d="M1698.88 13951.4C1698.46 13950.9 1697.91 13950.6 1697.32 13950.5C1696.72 13950.4 1696.11 13950.4 1695.55 13950.7C1694.99 13950.9 1694.51 13951.4 1694.18 13951.9C1693.84 13952.4 1693.66 13953 1693.66 13953.7C1693.66 13954.3 1693.84 13954.9 1694.18 13955.5C1694.51 13956 1694.99 13956.4 1695.55 13956.7C1696.11 13956.9 1696.72 13957 1697.32 13956.8C1697.91 13956.7 1698.46 13956.4 1698.88 13956C1699.46 13955.4 1699.78 13954.5 1699.78 13953.7C1699.78 13952.8 1699.46 13952 1698.88 13951.4Z" fill="#F1D971" stroke="#F1D971" stroke-miterlimit="10"/>
<path d="M1653.44 13911.2C1655.13 13911.2 1656.5 13909.8 1656.5 13908C1656.5 13906.2 1655.13 13904.8 1653.44 13904.8C1651.75 13904.8 1650.38 13906.2 1650.38 13908C1650.38 13909.8 1651.75 13911.2 1653.44 13911.2Z" fill="#F1D971" stroke="#F1D971" stroke-miterlimit="10"/>
<path d="M1740 13911.2C1741.69 13911.2 1743.06 13909.8 1743.06 13908C1743.06 13906.2 1741.69 13904.8 1740 13904.8C1738.31 13904.8 1736.94 13906.2 1736.94 13908C1736.94 13909.8 1738.31 13911.2 1740 13911.2Z" fill="#F1D971" stroke="#F1D971" stroke-miterlimit="10"/>
<path d="M1698.88 13860C1698.46 13859.6 1697.91 13859.3 1697.32 13859.2C1696.72 13859 1696.11 13859.1 1695.55 13859.3C1694.99 13859.6 1694.51 13860 1694.18 13860.5C1693.84 13861.1 1693.66 13861.7 1693.66 13862.3C1693.66 13863 1693.84 13863.6 1694.18 13864.1C1694.51 13864.6 1694.99 13865.1 1695.55 13865.3C1696.11 13865.5 1696.72 13865.6 1697.32 13865.5C1697.91 13865.4 1698.46 13865.1 1698.88 13864.6C1699.17 13864.3 1699.39 13863.9 1699.55 13863.6C1699.7 13863.2 1699.78 13862.7 1699.78 13862.3C1699.78 13861.9 1699.7 13861.5 1699.55 13861.1C1699.39 13860.7 1699.17 13860.3 1698.88 13860Z" fill="#F1D971" stroke="#F1D971" stroke-miterlimit="10"/>
<path d="M1610.17 13911.2C1611.86 13911.2 1613.23 13909.8 1613.23 13908C1613.23 13906.2 1611.86 13904.8 1610.17 13904.8C1608.48 13904.8 1607.11 13906.2 1607.11 13908C1607.11 13909.8 1608.48 13911.2 1610.17 13911.2Z" fill="#F1D971" stroke="#F1D971" stroke-miterlimit="10"/>
<path d="M1655.61 13860C1655.19 13859.6 1654.64 13859.3 1654.05 13859.1C1653.45 13859 1652.84 13859.1 1652.28 13859.3C1651.72 13859.6 1651.24 13860 1650.9 13860.5C1650.57 13861.1 1650.39 13861.7 1650.39 13862.3C1650.39 13863 1650.57 13863.6 1650.9 13864.1C1651.24 13864.6 1651.72 13865.1 1652.28 13865.3C1652.84 13865.5 1653.45 13865.6 1654.05 13865.5C1654.64 13865.4 1655.19 13865.1 1655.61 13864.6C1656.19 13864 1656.51 13863.2 1656.51 13862.3C1656.51 13861.5 1656.19 13860.6 1655.61 13860Z" fill="#F1D971" stroke="#F1D971" stroke-miterlimit="10"/>
<path d="M1566.89 14048.3C1568.58 14048.3 1569.95 14046.8 1569.95 14045C1569.95 14043.3 1568.58 14041.8 1566.89 14041.8C1565.2 14041.8 1563.83 14043.3 1563.83 14045C1563.83 14046.8 1565.2 14048.3 1566.89 14048.3Z" fill="#F1D971" stroke="#F1D971" stroke-miterlimit="10"/>
<path d="M1610.17 14002.6C1611.86 14002.6 1613.23 14001.1 1613.23 13999.4C1613.23 13997.6 1611.86 13996.1 1610.17 13996.1C1608.48 13996.1 1607.11 13997.6 1607.11 13999.4C1607.11 14001.1 1608.48 14002.6 1610.17 14002.6Z" fill="#F1D971" stroke="#F1D971" stroke-miterlimit="10"/>
<path d="M1610.17 14048.3C1611.86 14048.3 1613.23 14046.8 1613.23 14045C1613.23 14043.3 1611.86 14041.8 1610.17 14041.8C1608.48 14041.8 1607.11 14043.3 1607.11 14045C1607.11 14046.8 1608.48 14048.3 1610.17 14048.3Z" fill="#F1D971" stroke="#F1D971" stroke-miterlimit="10"/>
<path d="M1566.89 14002.6C1568.58 14002.6 1569.96 14001.1 1569.96 13999.4C1569.96 13997.6 1568.58 13996.1 1566.89 13996.1C1565.2 13996.1 1563.83 13997.6 1563.83 13999.4C1563.83 14001.1 1565.2 14002.6 1566.89 14002.6Z" fill="#F1D971" stroke="#F1D971" stroke-miterlimit="10"/>
<path d="M1653.44 14002.6C1655.14 14002.6 1656.51 14001.1 1656.51 13999.4C1656.51 13997.6 1655.14 13996.1 1653.44 13996.1C1651.75 13996.1 1650.38 13997.6 1650.38 13999.4C1650.38 14001.1 1651.75 14002.6 1653.44 14002.6Z" fill="#F1D971" stroke="#F1D971" stroke-miterlimit="10"/>
<path d="M1610.17 13956.9C1611.86 13956.9 1613.23 13955.5 1613.23 13953.7C1613.23 13951.9 1611.86 13950.5 1610.17 13950.5C1608.48 13950.5 1607.11 13951.9 1607.11 13953.7C1607.11 13955.5 1608.48 13956.9 1610.17 13956.9Z" fill="#F1D971" stroke="#F1D971" stroke-miterlimit="10"/>
<path d="M1525.78 13997.1C1525.35 13996.6 1524.81 13996.3 1524.22 13996.2C1523.62 13996.1 1523.01 13996.1 1522.45 13996.4C1521.89 13996.6 1521.41 13997 1521.07 13997.6C1520.74 13998.1 1520.56 13998.7 1520.56 13999.4C1520.56 14000 1520.74 14000.6 1521.07 14001.2C1521.41 14001.7 1521.89 14002.1 1522.45 14002.3C1523.01 14002.6 1523.62 14002.7 1524.22 14002.5C1524.81 14002.4 1525.35 14002.1 1525.78 14001.6C1526.36 14001 1526.68 14000.2 1526.68 13999.4C1526.68 13998.5 1526.36 13997.7 1525.78 13997.1Z" fill="#F1D971" stroke="#F1D971" stroke-miterlimit="10"/>
<path d="M1566.89 13956.9C1568.58 13956.9 1569.95 13955.5 1569.95 13953.7C1569.95 13951.9 1568.58 13950.5 1566.89 13950.5C1565.2 13950.5 1563.83 13951.9 1563.83 13953.7C1563.83 13955.5 1565.2 13956.9 1566.89 13956.9Z" fill="#F1D971" stroke="#F1D971" stroke-miterlimit="10"/>
<path d="M1525.78 14088.4C1525.35 14088 1524.81 14087.7 1524.22 14087.6C1523.62 14087.4 1523.01 14087.5 1522.45 14087.7C1521.89 14088 1521.41 14088.4 1521.08 14088.9C1520.74 14089.5 1520.56 14090.1 1520.56 14090.7C1520.56 14091.4 1520.74 14092 1521.08 14092.5C1521.41 14093 1521.89 14093.5 1522.45 14093.7C1523.01 14094 1523.62 14094 1524.22 14093.9C1524.81 14093.8 1525.35 14093.5 1525.78 14093C1526.07 14092.7 1526.29 14092.4 1526.45 14092C1526.6 14091.6 1526.68 14091.1 1526.68 14090.7C1526.68 14090.3 1526.6 14089.9 1526.45 14089.5C1526.29 14089.1 1526.07 14088.7 1525.78 14088.4Z" fill="#F1D971" stroke="#F1D971" stroke-miterlimit="10"/>
<path d="M1525.78 14134.1C1525.35 14133.7 1524.81 14133.4 1524.22 14133.2C1523.62 14133.1 1523.01 14133.2 1522.45 14133.4C1521.89 14133.7 1521.41 14134.1 1521.07 14134.6C1520.74 14135.1 1520.56 14135.8 1520.56 14136.4C1520.56 14137 1520.74 14137.7 1521.07 14138.2C1521.41 14138.7 1521.89 14139.1 1522.45 14139.4C1523.01 14139.6 1523.62 14139.7 1524.22 14139.6C1524.81 14139.4 1525.35 14139.1 1525.78 14138.7C1526.36 14138.1 1526.68 14137.3 1526.68 14136.4C1526.68 14135.5 1526.36 14134.7 1525.78 14134.1Z" fill="#F1D971" stroke="#F1D971" stroke-miterlimit="10"/>
<path d="M1482.5 14088.4C1482.08 14088 1481.53 14087.7 1480.94 14087.6C1480.34 14087.4 1479.73 14087.5 1479.17 14087.7C1478.61 14088 1478.13 14088.4 1477.8 14088.9C1477.46 14089.5 1477.28 14090.1 1477.28 14090.7C1477.28 14091.4 1477.46 14092 1477.8 14092.5C1478.13 14093.1 1478.61 14093.5 1479.17 14093.7C1479.73 14094 1480.34 14094 1480.94 14093.9C1481.53 14093.8 1482.08 14093.5 1482.5 14093C1482.79 14092.7 1483.01 14092.4 1483.17 14092C1483.32 14091.6 1483.4 14091.1 1483.4 14090.7C1483.4 14090.3 1483.32 14089.9 1483.17 14089.5C1483.01 14089.1 1482.79 14088.7 1482.5 14088.4Z" fill="#F1D971" stroke="#F1D971" stroke-miterlimit="10"/>
<path d="M1566.89 14094C1568.58 14094 1569.95 14092.5 1569.95 14090.7C1569.95 14088.9 1568.58 14087.5 1566.89 14087.5C1565.2 14087.5 1563.83 14088.9 1563.83 14090.7C1563.83 14092.5 1565.2 14094 1566.89 14094Z" fill="#F1D971" stroke="#F1D971" stroke-miterlimit="10"/>
<path d="M1525.78 14042.8C1525.35 14042.3 1524.81 14042 1524.22 14041.9C1523.62 14041.7 1523.01 14041.8 1522.45 14042.1C1521.89 14042.3 1521.41 14042.7 1521.07 14043.2C1520.74 14043.8 1520.56 14044.4 1520.56 14045C1520.56 14045.7 1520.74 14046.3 1521.07 14046.8C1521.41 14047.4 1521.89 14047.8 1522.45 14048C1523.01 14048.3 1523.62 14048.3 1524.22 14048.2C1524.81 14048.1 1525.35 14047.8 1525.78 14047.3C1526.07 14047 1526.29 14046.7 1526.45 14046.3C1526.6 14045.9 1526.68 14045.5 1526.68 14045C1526.68 14044.6 1526.6 14044.2 1526.45 14043.8C1526.29 14043.4 1526.07 14043.1 1525.78 14042.8Z" fill="#F1D971" stroke="#F1D971" stroke-miterlimit="10"/>
<path d="M1482.51 14042.8C1482.08 14042.3 1481.54 14042 1480.94 14041.9C1480.35 14041.7 1479.73 14041.8 1479.17 14042.1C1478.61 14042.3 1478.13 14042.7 1477.8 14043.2C1477.46 14043.8 1477.28 14044.4 1477.28 14045C1477.28 14045.7 1477.46 14046.3 1477.8 14046.8C1478.13 14047.4 1478.61 14047.8 1479.17 14048C1479.73 14048.3 1480.35 14048.3 1480.94 14048.2C1481.54 14048.1 1482.08 14047.8 1482.51 14047.3C1483.08 14046.7 1483.4 14045.9 1483.4 14045C1483.4 14044.2 1483.08 14043.4 1482.51 14042.8Z" fill="#F1D971" stroke="#F1D971" stroke-miterlimit="10"/>
<path d="M1828.72 13585.9C1828.29 13585.5 1827.75 13585.2 1827.15 13585.1C1826.56 13584.9 1825.94 13585 1825.38 13585.2C1824.82 13585.5 1824.34 13585.9 1824.01 13586.4C1823.67 13587 1823.49 13587.6 1823.49 13588.2C1823.49 13588.9 1823.67 13589.5 1824.01 13590C1824.34 13590.6 1824.82 13591 1825.38 13591.2C1825.94 13591.5 1826.56 13591.5 1827.15 13591.4C1827.75 13591.3 1828.29 13591 1828.72 13590.5C1829.29 13589.9 1829.61 13589.1 1829.61 13588.2C1829.61 13587.4 1829.29 13586.6 1828.72 13585.9Z" fill="#F1D971" stroke="#F1D971" stroke-miterlimit="10"/>
<path d="M1871.98 13590.5C1872.41 13590.1 1872.7 13589.5 1872.82 13588.9C1872.94 13588.2 1872.88 13587.6 1872.64 13587C1872.41 13586.4 1872.02 13585.9 1871.52 13585.5C1871.01 13585.2 1870.42 13585 1869.82 13585C1869.21 13585 1868.62 13585.2 1868.12 13585.5C1867.61 13585.9 1867.22 13586.4 1866.99 13587C1866.76 13587.6 1866.7 13588.2 1866.82 13588.9C1866.93 13589.5 1867.23 13590.1 1867.65 13590.5C1867.94 13590.8 1868.28 13591.1 1868.65 13591.2C1869.02 13591.4 1869.42 13591.5 1869.82 13591.5C1870.22 13591.5 1870.62 13591.4 1870.99 13591.2C1871.36 13591.1 1871.7 13590.8 1871.98 13590.5Z" fill="#F1D971" stroke="#F1D971" stroke-miterlimit="10"/>
<path d="M1785.44 13631.6C1785.01 13631.2 1784.47 13630.9 1783.87 13630.7C1783.28 13630.6 1782.66 13630.7 1782.1 13630.9C1781.54 13631.2 1781.06 13631.6 1780.73 13632.1C1780.39 13632.6 1780.21 13633.3 1780.21 13633.9C1780.21 13634.6 1780.39 13635.2 1780.73 13635.7C1781.06 13636.2 1781.54 13636.7 1782.1 13636.9C1782.66 13637.1 1783.28 13637.2 1783.87 13637.1C1784.47 13637 1785.01 13636.7 1785.44 13636.2C1786.01 13635.6 1786.33 13634.8 1786.33 13633.9C1786.33 13633.1 1786.01 13632.2 1785.44 13631.6Z" fill="#F1D971" stroke="#F1D971" stroke-miterlimit="10"/>
<path d="M1824.38 13681.9C1824.81 13682.3 1825.36 13682.6 1825.95 13682.8C1826.55 13682.9 1827.16 13682.8 1827.72 13682.6C1828.28 13682.3 1828.76 13681.9 1829.1 13681.4C1829.43 13680.9 1829.61 13680.2 1829.61 13679.6C1829.61 13679 1829.43 13678.3 1829.1 13677.8C1828.76 13677.3 1828.28 13676.9 1827.72 13676.6C1827.16 13676.4 1826.55 13676.3 1825.95 13676.4C1825.36 13676.6 1824.81 13676.9 1824.38 13677.3C1823.81 13677.9 1823.49 13678.7 1823.49 13679.6C1823.49 13680.5 1823.81 13681.3 1824.38 13681.9Z" fill="#F1D971" stroke="#F1D971" stroke-miterlimit="10"/>
<path d="M1783.28 13682.8C1784.97 13682.8 1786.34 13681.4 1786.34 13679.6C1786.34 13677.8 1784.97 13676.4 1783.28 13676.4C1781.59 13676.4 1780.21 13677.8 1780.21 13679.6C1780.21 13681.4 1781.59 13682.8 1783.28 13682.8Z" fill="#F1D971" stroke="#F1D971" stroke-miterlimit="10"/>
<path d="M1737.83 13636.2C1738.26 13636.7 1738.8 13637 1739.4 13637.1C1739.99 13637.2 1740.61 13637.1 1741.17 13636.9C1741.73 13636.7 1742.2 13636.2 1742.54 13635.7C1742.88 13635.2 1743.06 13634.6 1743.06 13633.9C1743.06 13633.3 1742.88 13632.7 1742.54 13632.1C1742.2 13631.6 1741.73 13631.2 1741.17 13630.9C1740.61 13630.7 1739.99 13630.6 1739.4 13630.7C1738.8 13630.9 1738.26 13631.2 1737.83 13631.6C1737.26 13632.2 1736.94 13633.1 1736.94 13633.9C1736.94 13634.8 1737.26 13635.6 1737.83 13636.2Z" fill="#F1D971" stroke="#F1D971" stroke-miterlimit="10"/>
<path d="M1824.38 13636.2C1824.81 13636.7 1825.36 13637 1825.95 13637.1C1826.55 13637.2 1827.16 13637.1 1827.72 13636.9C1828.28 13636.7 1828.76 13636.2 1829.1 13635.7C1829.43 13635.2 1829.61 13634.6 1829.61 13633.9C1829.61 13633.3 1829.43 13632.7 1829.1 13632.1C1828.76 13631.6 1828.28 13631.2 1827.72 13630.9C1827.16 13630.7 1826.55 13630.6 1825.95 13630.7C1825.36 13630.9 1824.81 13631.2 1824.38 13631.6C1823.81 13632.2 1823.49 13633.1 1823.49 13633.9C1823.49 13634.8 1823.81 13635.6 1824.38 13636.2Z" fill="#F1D971" stroke="#F1D971" stroke-miterlimit="10"/>
<path d="M1781.11 13585.9C1780.68 13586.4 1780.39 13587 1780.27 13587.6C1780.15 13588.2 1780.21 13588.9 1780.44 13589.5C1780.68 13590.1 1781.07 13590.6 1781.57 13590.9C1782.07 13591.3 1782.67 13591.5 1783.27 13591.5C1783.88 13591.5 1784.47 13591.3 1784.97 13590.9C1785.48 13590.6 1785.87 13590.1 1786.1 13589.5C1786.33 13588.9 1786.39 13588.2 1786.27 13587.6C1786.16 13587 1785.86 13586.4 1785.44 13585.9C1784.86 13585.3 1784.08 13585 1783.27 13585C1782.46 13585 1781.68 13585.3 1781.11 13585.9Z" fill="#F1D971" stroke="#F1D971" stroke-miterlimit="10"/>
<path d="M1698.88 13631.6C1698.46 13631.2 1697.91 13630.9 1697.32 13630.7C1696.72 13630.6 1696.11 13630.7 1695.55 13630.9C1694.99 13631.2 1694.51 13631.6 1694.18 13632.1C1693.84 13632.7 1693.66 13633.3 1693.66 13633.9C1693.66 13634.6 1693.84 13635.2 1694.18 13635.7C1694.51 13636.2 1694.99 13636.7 1695.55 13636.9C1696.11 13637.1 1696.72 13637.2 1697.32 13637.1C1697.91 13637 1698.46 13636.6 1698.88 13636.2C1699.17 13635.9 1699.39 13635.5 1699.55 13635.1C1699.7 13634.8 1699.78 13634.3 1699.78 13633.9C1699.78 13633.5 1699.7 13633.1 1699.55 13632.7C1699.39 13632.3 1699.17 13631.9 1698.88 13631.6Z" fill="#F1D971" stroke="#F1D971" stroke-miterlimit="10"/>
<path d="M1742.16 13585.9C1741.73 13585.5 1741.19 13585.2 1740.59 13585.1C1740 13584.9 1739.38 13585 1738.82 13585.2C1738.26 13585.5 1737.79 13585.9 1737.45 13586.4C1737.11 13587 1736.93 13587.6 1736.93 13588.2C1736.93 13588.9 1737.11 13589.5 1737.45 13590C1737.79 13590.6 1738.26 13591 1738.82 13591.2C1739.38 13591.5 1740 13591.5 1740.59 13591.4C1741.19 13591.3 1741.73 13591 1742.16 13590.5C1742.73 13589.9 1743.05 13589.1 1743.05 13588.2C1743.05 13587.4 1742.73 13586.6 1742.16 13585.9Z" fill="#F1D971" stroke="#F1D971" stroke-miterlimit="10"/>
<path d="M1694.56 13727.6C1694.98 13728 1695.53 13728.3 1696.12 13728.4C1696.71 13728.6 1697.33 13728.5 1697.89 13728.3C1698.45 13728 1698.92 13727.6 1699.26 13727.1C1699.6 13726.5 1699.78 13725.9 1699.78 13725.3C1699.78 13724.6 1699.6 13724 1699.26 13723.5C1698.92 13723 1698.45 13722.5 1697.89 13722.3C1697.33 13722 1696.71 13722 1696.12 13722.1C1695.53 13722.2 1694.98 13722.5 1694.56 13723C1694.27 13723.3 1694.04 13723.6 1693.89 13724C1693.74 13724.4 1693.66 13724.9 1693.66 13725.3C1693.66 13725.7 1693.74 13726.1 1693.89 13726.5C1694.04 13726.9 1694.27 13727.3 1694.56 13727.6Z" fill="#F1D971" stroke="#F1D971" stroke-miterlimit="10"/>
<path d="M1694.56 13773.2C1694.99 13773.7 1695.53 13774 1696.12 13774.1C1696.72 13774.3 1697.33 13774.2 1697.89 13773.9C1698.45 13773.7 1698.93 13773.3 1699.27 13772.8C1699.6 13772.2 1699.78 13771.6 1699.78 13771C1699.78 13770.3 1699.6 13769.7 1699.27 13769.2C1698.93 13768.6 1698.45 13768.2 1697.89 13768C1697.33 13767.7 1696.72 13767.7 1696.12 13767.8C1695.53 13767.9 1694.99 13768.2 1694.56 13768.7C1694.27 13769 1694.05 13769.3 1693.89 13769.7C1693.74 13770.1 1693.66 13770.5 1693.66 13771C1693.66 13771.4 1693.74 13771.8 1693.89 13772.2C1694.05 13772.6 1694.27 13772.9 1694.56 13773.2Z" fill="#F1D971" stroke="#F1D971" stroke-miterlimit="10"/>
<path d="M1651.28 13727.6C1651.71 13728 1652.26 13728.3 1652.85 13728.4C1653.44 13728.6 1654.06 13728.5 1654.62 13728.3C1655.18 13728 1655.65 13727.6 1655.99 13727.1C1656.33 13726.5 1656.51 13725.9 1656.51 13725.3C1656.51 13724.6 1656.33 13724 1655.99 13723.5C1655.65 13722.9 1655.18 13722.5 1654.62 13722.3C1654.06 13722 1653.44 13722 1652.85 13722.1C1652.26 13722.2 1651.71 13722.5 1651.28 13723C1651 13723.3 1650.77 13723.6 1650.62 13724C1650.47 13724.4 1650.39 13724.8 1650.39 13725.3C1650.39 13725.7 1650.47 13726.1 1650.62 13726.5C1650.77 13726.9 1651 13727.3 1651.28 13727.6Z" fill="#F1D971" stroke="#F1D971" stroke-miterlimit="10"/>
<path d="M1737.83 13723C1737.4 13723.4 1737.11 13724 1736.99 13724.6C1736.87 13725.3 1736.93 13725.9 1737.17 13726.5C1737.4 13727.1 1737.79 13727.6 1738.29 13728C1738.8 13728.3 1739.39 13728.5 1739.99 13728.5C1740.6 13728.5 1741.19 13728.3 1741.69 13728C1742.2 13727.6 1742.59 13727.1 1742.82 13726.5C1743.05 13725.9 1743.11 13725.3 1742.99 13724.6C1742.88 13724 1742.58 13723.4 1742.16 13723C1741.58 13722.4 1740.8 13722 1739.99 13722C1739.18 13722 1738.4 13722.4 1737.83 13723Z" fill="#F1D971" stroke="#F1D971" stroke-miterlimit="10"/>
<path d="M1694.56 13681.9C1694.98 13682.3 1695.53 13682.6 1696.12 13682.8C1696.72 13682.9 1697.33 13682.8 1697.89 13682.6C1698.45 13682.3 1698.93 13681.9 1699.26 13681.4C1699.6 13680.9 1699.78 13680.2 1699.78 13679.6C1699.78 13679 1699.6 13678.3 1699.26 13677.8C1698.93 13677.3 1698.45 13676.9 1697.89 13676.6C1697.33 13676.4 1696.72 13676.3 1696.12 13676.4C1695.53 13676.6 1694.98 13676.9 1694.56 13677.3C1693.98 13677.9 1693.66 13678.7 1693.66 13679.6C1693.66 13680.5 1693.98 13681.3 1694.56 13681.9Z" fill="#F1D971" stroke="#F1D971" stroke-miterlimit="10"/>
<path d="M1612.33 13723C1611.91 13722.5 1611.36 13722.2 1610.77 13722.1C1610.17 13722 1609.56 13722 1609 13722.3C1608.44 13722.5 1607.96 13723 1607.63 13723.5C1607.29 13724 1607.11 13724.6 1607.11 13725.3C1607.11 13725.9 1607.29 13726.5 1607.63 13727.1C1607.96 13727.6 1608.44 13728 1609 13728.3C1609.56 13728.5 1610.17 13728.6 1610.77 13728.4C1611.36 13728.3 1611.91 13728 1612.33 13727.6C1612.62 13727.3 1612.84 13726.9 1613 13726.5C1613.15 13726.1 1613.23 13725.7 1613.23 13725.3C1613.23 13724.9 1613.15 13724.4 1613 13724C1612.84 13723.6 1612.62 13723.3 1612.33 13723Z" fill="#F1D971" stroke="#F1D971" stroke-miterlimit="10"/>
<path d="M1653.44 13682.8C1655.13 13682.8 1656.5 13681.4 1656.5 13679.6C1656.5 13677.8 1655.13 13676.4 1653.44 13676.4C1651.75 13676.4 1650.38 13677.8 1650.38 13679.6C1650.38 13681.4 1651.75 13682.8 1653.44 13682.8Z" fill="#F1D971" stroke="#F1D971" stroke-miterlimit="10"/>
<path d="M1740 13682.8C1741.69 13682.8 1743.06 13681.4 1743.06 13679.6C1743.06 13677.8 1741.69 13676.4 1740 13676.4C1738.31 13676.4 1736.94 13677.8 1736.94 13679.6C1736.94 13681.4 1738.31 13682.8 1740 13682.8Z" fill="#F1D971" stroke="#F1D971" stroke-miterlimit="10"/>
<path d="M1781.11 13727.6C1781.54 13728 1782.08 13728.3 1782.68 13728.4C1783.27 13728.6 1783.89 13728.5 1784.45 13728.3C1785.01 13728 1785.48 13727.6 1785.82 13727.1C1786.16 13726.5 1786.34 13725.9 1786.34 13725.3C1786.34 13724.6 1786.16 13724 1785.82 13723.5C1785.48 13722.9 1785.01 13722.5 1784.45 13722.3C1783.89 13722 1783.27 13722 1782.68 13722.1C1782.08 13722.2 1781.54 13722.5 1781.11 13723C1780.83 13723.3 1780.6 13723.6 1780.45 13724C1780.29 13724.4 1780.21 13724.8 1780.21 13725.3C1780.21 13725.7 1780.29 13726.1 1780.45 13726.5C1780.6 13726.9 1780.83 13727.3 1781.11 13727.6Z" fill="#F1D971" stroke="#F1D971" stroke-miterlimit="10"/>
<path d="M1569.06 13860C1568.63 13859.6 1568.08 13859.3 1567.49 13859.1C1566.89 13859 1566.28 13859.1 1565.72 13859.3C1565.16 13859.6 1564.68 13860 1564.34 13860.5C1564.01 13861.1 1563.83 13861.7 1563.83 13862.3C1563.83 13863 1564.01 13863.6 1564.34 13864.1C1564.68 13864.6 1565.16 13865.1 1565.72 13865.3C1566.28 13865.5 1566.89 13865.6 1567.49 13865.5C1568.08 13865.4 1568.63 13865.1 1569.06 13864.6C1569.63 13864 1569.95 13863.2 1569.95 13862.3C1569.95 13861.5 1569.63 13860.6 1569.06 13860Z" fill="#F1D971" stroke="#F1D971" stroke-miterlimit="10"/>
<path d="M1610.17 13819.9C1611.86 13819.9 1613.23 13818.4 1613.23 13816.6C1613.23 13814.9 1611.86 13813.4 1610.17 13813.4C1608.48 13813.4 1607.11 13814.9 1607.11 13816.6C1607.11 13818.4 1608.48 13819.9 1610.17 13819.9Z" fill="#F1D971" stroke="#F1D971" stroke-miterlimit="10"/>
<path d="M1612.34 13860C1611.91 13859.6 1611.36 13859.3 1610.77 13859.1C1610.18 13859 1609.56 13859.1 1609 13859.3C1608.44 13859.6 1607.96 13860 1607.63 13860.5C1607.29 13861.1 1607.11 13861.7 1607.11 13862.3C1607.11 13863 1607.29 13863.6 1607.63 13864.1C1607.96 13864.6 1608.44 13865.1 1609 13865.3C1609.56 13865.5 1610.18 13865.6 1610.77 13865.5C1611.36 13865.4 1611.91 13865.1 1612.34 13864.6C1612.91 13864 1613.23 13863.2 1613.23 13862.3C1613.23 13861.5 1612.91 13860.6 1612.34 13860Z" fill="#F1D971" stroke="#F1D971" stroke-miterlimit="10"/>
<path d="M1566.89 13819.9C1568.58 13819.9 1569.95 13818.4 1569.95 13816.6C1569.95 13814.9 1568.58 13813.4 1566.89 13813.4C1565.2 13813.4 1563.83 13814.9 1563.83 13816.6C1563.83 13818.4 1565.2 13819.9 1566.89 13819.9Z" fill="#F1D971" stroke="#F1D971" stroke-miterlimit="10"/>
<path d="M1653.44 13819.9C1655.13 13819.9 1656.5 13818.4 1656.5 13816.6C1656.5 13814.9 1655.13 13813.4 1653.44 13813.4C1651.75 13813.4 1650.38 13814.9 1650.38 13816.6C1650.38 13818.4 1651.75 13819.9 1653.44 13819.9Z" fill="#F1D971" stroke="#F1D971" stroke-miterlimit="10"/>
<path d="M1612.34 13768.7C1611.91 13768.2 1611.36 13767.9 1610.77 13767.8C1610.18 13767.7 1609.56 13767.7 1609 13768C1608.44 13768.2 1607.96 13768.6 1607.63 13769.2C1607.29 13769.7 1607.11 13770.3 1607.11 13771C1607.11 13771.6 1607.29 13772.2 1607.63 13772.8C1607.96 13773.3 1608.44 13773.7 1609 13773.9C1609.56 13774.2 1610.18 13774.2 1610.77 13774.1C1611.36 13774 1611.91 13773.7 1612.34 13773.2C1612.91 13772.6 1613.23 13771.8 1613.23 13771C1613.23 13770.1 1612.91 13769.3 1612.34 13768.7Z" fill="#F1D971" stroke="#F1D971" stroke-miterlimit="10"/>
<path d="M1525.78 13814.4C1525.35 13813.9 1524.81 13813.6 1524.22 13813.5C1523.62 13813.3 1523.01 13813.4 1522.45 13813.7C1521.89 13813.9 1521.41 13814.3 1521.07 13814.8C1520.74 13815.4 1520.56 13816 1520.56 13816.6C1520.56 13817.3 1520.74 13817.9 1521.07 13818.4C1521.41 13819 1521.89 13819.4 1522.45 13819.6C1523.01 13819.9 1523.62 13819.9 1524.22 13819.8C1524.81 13819.7 1525.35 13819.4 1525.78 13818.9C1526.07 13818.6 1526.29 13818.3 1526.45 13817.9C1526.6 13817.5 1526.68 13817.1 1526.68 13816.6C1526.68 13816.2 1526.6 13815.8 1526.45 13815.4C1526.29 13815 1526.07 13814.7 1525.78 13814.4Z" fill="#F1D971" stroke="#F1D971" stroke-miterlimit="10"/>
<path d="M1569.06 13768.7C1568.63 13768.2 1568.08 13767.9 1567.49 13767.8C1566.89 13767.7 1566.28 13767.7 1565.72 13768C1565.16 13768.2 1564.68 13768.6 1564.34 13769.2C1564.01 13769.7 1563.83 13770.3 1563.83 13771C1563.83 13771.6 1564.01 13772.2 1564.34 13772.8C1564.68 13773.3 1565.16 13773.7 1565.72 13773.9C1566.28 13774.2 1566.89 13774.2 1567.49 13774.1C1568.08 13774 1568.63 13773.7 1569.06 13773.2C1569.63 13772.6 1569.95 13771.8 1569.95 13771C1569.95 13770.1 1569.63 13769.3 1569.06 13768.7Z" fill="#F1D971" stroke="#F1D971" stroke-miterlimit="10"/>
<path d="M1651.29 13773.2C1651.71 13773.7 1652.26 13774 1652.85 13774.1C1653.45 13774.3 1654.06 13774.2 1654.62 13773.9C1655.18 13773.7 1655.66 13773.3 1656 13772.8C1656.33 13772.2 1656.51 13771.6 1656.51 13771C1656.51 13770.3 1656.33 13769.7 1656 13769.2C1655.66 13768.6 1655.18 13768.2 1654.62 13768C1654.06 13767.7 1653.45 13767.7 1652.85 13767.8C1652.26 13767.9 1651.71 13768.2 1651.29 13768.7C1650.71 13769.3 1650.39 13770.1 1650.39 13771C1650.39 13771.8 1650.71 13772.6 1651.29 13773.2Z" fill="#F1D971" stroke="#F1D971" stroke-miterlimit="10"/>
<path d="M1694.56 13818.9C1694.98 13819.4 1695.53 13819.7 1696.12 13819.8C1696.72 13819.9 1697.33 13819.9 1697.89 13819.6C1698.45 13819.4 1698.93 13819 1699.26 13818.4C1699.6 13817.9 1699.78 13817.3 1699.78 13816.6C1699.78 13816 1699.6 13815.4 1699.26 13814.8C1698.93 13814.3 1698.45 13813.9 1697.89 13813.7C1697.33 13813.4 1696.72 13813.3 1696.12 13813.5C1695.53 13813.6 1694.98 13813.9 1694.56 13814.4C1693.98 13815 1693.66 13815.8 1693.66 13816.6C1693.66 13817.5 1693.98 13818.3 1694.56 13818.9Z" fill="#F1D971" stroke="#F1D971" stroke-miterlimit="10"/>
<path d="M1482.51 13951.4C1482.08 13950.9 1481.54 13950.6 1480.94 13950.5C1480.35 13950.4 1479.73 13950.4 1479.17 13950.7C1478.61 13950.9 1478.13 13951.4 1477.8 13951.9C1477.46 13952.4 1477.28 13953 1477.28 13953.7C1477.28 13954.3 1477.46 13954.9 1477.8 13955.5C1478.13 13956 1478.61 13956.4 1479.17 13956.7C1479.73 13956.9 1480.35 13957 1480.94 13956.8C1481.54 13956.7 1482.08 13956.4 1482.51 13956C1483.08 13955.4 1483.4 13954.5 1483.4 13953.7C1483.4 13952.8 1483.08 13952 1482.51 13951.4Z" fill="#F1D971" stroke="#F1D971" stroke-miterlimit="10"/>
<path d="M1525.78 13905.7C1525.35 13905.3 1524.81 13905 1524.22 13904.8C1523.62 13904.7 1523.01 13904.8 1522.45 13905C1521.89 13905.3 1521.41 13905.7 1521.08 13906.2C1520.74 13906.7 1520.56 13907.4 1520.56 13908C1520.56 13908.6 1520.74 13909.3 1521.08 13909.8C1521.41 13910.3 1521.89 13910.7 1522.45 13911C1523.01 13911.2 1523.62 13911.3 1524.22 13911.2C1524.81 13911 1525.35 13910.7 1525.78 13910.3C1526.07 13910 1526.29 13909.6 1526.45 13909.2C1526.6 13908.8 1526.68 13908.4 1526.68 13908C1526.68 13907.6 1526.6 13907.2 1526.45 13906.8C1526.29 13906.4 1526.07 13906 1525.78 13905.7Z" fill="#F1D971" stroke="#F1D971" stroke-miterlimit="10"/>
<path d="M1525.78 13951.4C1525.35 13950.9 1524.81 13950.6 1524.22 13950.5C1523.62 13950.4 1523.01 13950.4 1522.45 13950.7C1521.89 13950.9 1521.41 13951.4 1521.07 13951.9C1520.74 13952.4 1520.56 13953 1520.56 13953.7C1520.56 13954.3 1520.74 13954.9 1521.07 13955.5C1521.41 13956 1521.89 13956.4 1522.45 13956.7C1523.01 13956.9 1523.62 13957 1524.22 13956.8C1524.81 13956.7 1525.35 13956.4 1525.78 13956C1526.36 13955.4 1526.68 13954.5 1526.68 13953.7C1526.68 13952.8 1526.36 13952 1525.78 13951.4Z" fill="#F1D971" stroke="#F1D971" stroke-miterlimit="10"/>
<path d="M1482.5 13905.7C1482.08 13905.3 1481.53 13905 1480.94 13904.8C1480.34 13904.7 1479.73 13904.8 1479.17 13905C1478.61 13905.3 1478.13 13905.7 1477.8 13906.2C1477.46 13906.7 1477.28 13907.4 1477.28 13908C1477.28 13908.6 1477.46 13909.3 1477.8 13909.8C1478.13 13910.3 1478.61 13910.7 1479.17 13911C1479.73 13911.2 1480.34 13911.3 1480.94 13911.2C1481.53 13911 1482.08 13910.7 1482.5 13910.3C1482.79 13910 1483.01 13909.6 1483.17 13909.2C1483.32 13908.8 1483.4 13908.4 1483.4 13908C1483.4 13907.6 1483.32 13907.2 1483.17 13906.8C1483.01 13906.4 1482.79 13906 1482.5 13905.7Z" fill="#F1D971" stroke="#F1D971" stroke-miterlimit="10"/>
<path d="M1566.89 13911.2C1568.58 13911.2 1569.95 13909.8 1569.95 13908C1569.95 13906.2 1568.58 13904.8 1566.89 13904.8C1565.2 13904.8 1563.83 13906.2 1563.83 13908C1563.83 13909.8 1565.2 13911.2 1566.89 13911.2Z" fill="#F1D971" stroke="#F1D971" stroke-miterlimit="10"/>
<path d="M1525.78 13860C1525.35 13859.6 1524.81 13859.3 1524.22 13859.2C1523.62 13859 1523.01 13859.1 1522.45 13859.3C1521.89 13859.6 1521.41 13860 1521.07 13860.5C1520.74 13861.1 1520.56 13861.7 1520.56 13862.3C1520.56 13863 1520.74 13863.6 1521.07 13864.1C1521.41 13864.6 1521.89 13865.1 1522.45 13865.3C1523.01 13865.5 1523.62 13865.6 1524.22 13865.5C1524.81 13865.4 1525.35 13865.1 1525.78 13864.6C1526.07 13864.3 1526.29 13863.9 1526.45 13863.6C1526.6 13863.2 1526.68 13862.7 1526.68 13862.3C1526.68 13861.9 1526.6 13861.5 1526.45 13861.1C1526.29 13860.7 1526.07 13860.3 1525.78 13860Z" fill="#F1D971" stroke="#F1D971" stroke-miterlimit="10"/>
<path d="M1482.51 13860C1482.08 13859.6 1481.54 13859.3 1480.94 13859.1C1480.35 13859 1479.73 13859.1 1479.17 13859.3C1478.61 13859.6 1478.13 13860 1477.8 13860.5C1477.46 13861.1 1477.28 13861.7 1477.28 13862.3C1477.28 13863 1477.46 13863.6 1477.8 13864.1C1478.13 13864.6 1478.61 13865.1 1479.17 13865.3C1479.73 13865.5 1480.35 13865.6 1480.94 13865.5C1481.54 13865.4 1482.08 13865.1 1482.51 13864.6C1483.08 13864 1483.4 13863.2 1483.4 13862.3C1483.4 13861.5 1483.08 13860.6 1482.51 13860Z" fill="#F1D971" stroke="#F1D971" stroke-miterlimit="10"/>
<path d="M1439.23 13997.1C1438.8 13996.6 1438.25 13996.3 1437.66 13996.2C1437.07 13996.1 1436.45 13996.1 1435.89 13996.4C1435.33 13996.6 1434.85 13997 1434.52 13997.6C1434.18 13998.1 1434 13998.7 1434 13999.4C1434 14000 1434.18 14000.6 1434.52 14001.2C1434.85 14001.7 1435.33 14002.1 1435.89 14002.3C1436.45 14002.6 1437.07 14002.7 1437.66 14002.5C1438.25 14002.4 1438.8 14002.1 1439.23 14001.6C1439.8 14001 1440.12 14000.2 1440.12 13999.4C1440.12 13998.5 1439.8 13997.7 1439.23 13997.1Z" fill="#F1D971" stroke="#F1D971" stroke-miterlimit="10"/>
<path d="M1478.18 13997.1C1477.75 13997.5 1477.46 13998.1 1477.34 13998.7C1477.22 13999.4 1477.28 14000 1477.51 14000.6C1477.75 14001.2 1478.14 14001.7 1478.64 14002C1479.14 14002.4 1479.74 14002.6 1480.34 14002.6C1480.95 14002.6 1481.54 14002.4 1482.04 14002C1482.55 14001.7 1482.94 14001.2 1483.17 14000.6C1483.4 14000 1483.46 13999.4 1483.35 13998.7C1483.23 13998.1 1482.93 13997.5 1482.51 13997.1C1482.22 13996.8 1481.88 13996.5 1481.51 13996.4C1481.14 13996.2 1480.74 13996.1 1480.34 13996.1C1479.94 13996.1 1479.54 13996.2 1479.17 13996.4C1478.8 13996.5 1478.46 13996.8 1478.18 13997.1Z" fill="#F1D971" stroke="#F1D971" stroke-miterlimit="10"/>
<path d="M1434.9 13951.4C1434.47 13951.8 1434.18 13952.4 1434.06 13953C1433.94 13953.7 1434 13954.3 1434.23 13954.9C1434.46 13955.5 1434.86 13956 1435.36 13956.4C1435.86 13956.7 1436.46 13956.9 1437.06 13956.9C1437.67 13956.9 1438.26 13956.7 1438.76 13956.4C1439.27 13956 1439.66 13955.5 1439.89 13954.9C1440.12 13954.3 1440.18 13953.7 1440.06 13953C1439.95 13952.4 1439.65 13951.8 1439.22 13951.4C1438.94 13951.1 1438.6 13950.9 1438.23 13950.7C1437.86 13950.5 1437.46 13950.4 1437.06 13950.4C1436.66 13950.4 1436.26 13950.5 1435.89 13950.7C1435.52 13950.9 1435.18 13951.1 1434.9 13951.4Z" fill="#F1D971" stroke="#F1D971" stroke-miterlimit="10"/>
<path d="M1655.61 13585.9C1655.19 13585.5 1654.64 13585.2 1654.05 13585.1C1653.45 13584.9 1652.84 13585 1652.28 13585.2C1651.72 13585.5 1651.24 13585.9 1650.9 13586.4C1650.57 13587 1650.39 13587.6 1650.39 13588.2C1650.39 13588.9 1650.57 13589.5 1650.9 13590C1651.24 13590.6 1651.72 13591 1652.28 13591.2C1652.84 13591.5 1653.45 13591.5 1654.05 13591.4C1654.64 13591.3 1655.19 13591 1655.61 13590.5C1656.19 13589.9 1656.51 13589.1 1656.51 13588.2C1656.51 13587.4 1656.19 13586.6 1655.61 13585.9Z" fill="#F1D971" stroke="#F1D971" stroke-miterlimit="10"/>
<path d="M1698.88 13590.5C1699.31 13590.1 1699.6 13589.5 1699.72 13588.9C1699.84 13588.2 1699.78 13587.6 1699.55 13587C1699.32 13586.4 1698.92 13585.9 1698.42 13585.5C1697.92 13585.2 1697.33 13585 1696.72 13585C1696.11 13585 1695.52 13585.2 1695.02 13585.5C1694.52 13585.9 1694.12 13586.4 1693.89 13587C1693.66 13587.6 1693.6 13588.2 1693.72 13588.9C1693.84 13589.5 1694.13 13590.1 1694.56 13590.5C1694.84 13590.8 1695.18 13591.1 1695.55 13591.2C1695.92 13591.4 1696.32 13591.5 1696.72 13591.5C1697.12 13591.5 1697.52 13591.4 1697.89 13591.2C1698.26 13591.1 1698.6 13590.8 1698.88 13590.5Z" fill="#F1D971" stroke="#F1D971" stroke-miterlimit="10"/>
<path d="M1612.34 13631.6C1611.91 13631.2 1611.36 13630.9 1610.77 13630.7C1610.18 13630.6 1609.56 13630.7 1609 13630.9C1608.44 13631.2 1607.96 13631.6 1607.63 13632.1C1607.29 13632.6 1607.11 13633.3 1607.11 13633.9C1607.11 13634.6 1607.29 13635.2 1607.63 13635.7C1607.96 13636.2 1608.44 13636.7 1609 13636.9C1609.56 13637.1 1610.18 13637.2 1610.77 13637.1C1611.36 13637 1611.91 13636.7 1612.34 13636.2C1612.91 13635.6 1613.23 13634.8 1613.23 13633.9C1613.23 13633.1 1612.91 13632.2 1612.34 13631.6Z" fill="#F1D971" stroke="#F1D971" stroke-miterlimit="10"/>
<path d="M1610.17 13682.8C1611.86 13682.8 1613.23 13681.4 1613.23 13679.6C1613.23 13677.8 1611.86 13676.4 1610.17 13676.4C1608.48 13676.4 1607.11 13677.8 1607.11 13679.6C1607.11 13681.4 1608.48 13682.8 1610.17 13682.8Z" fill="#F1D971" stroke="#F1D971" stroke-miterlimit="10"/>
<path d="M1569.06 13631.6C1568.63 13631.2 1568.08 13630.9 1567.49 13630.7C1566.89 13630.6 1566.28 13630.7 1565.72 13630.9C1565.16 13631.2 1564.68 13631.6 1564.34 13632.1C1564.01 13632.6 1563.83 13633.3 1563.83 13633.9C1563.83 13634.6 1564.01 13635.2 1564.34 13635.7C1564.68 13636.2 1565.16 13636.7 1565.72 13636.9C1566.28 13637.1 1566.89 13637.2 1567.49 13637.1C1568.08 13637 1568.63 13636.7 1569.06 13636.2C1569.63 13635.6 1569.95 13634.8 1569.95 13633.9C1569.95 13633.1 1569.63 13632.2 1569.06 13631.6Z" fill="#F1D971" stroke="#F1D971" stroke-miterlimit="10"/>
<path d="M1651.28 13636.2C1651.71 13636.7 1652.26 13637 1652.85 13637.1C1653.44 13637.2 1654.06 13637.1 1654.62 13636.9C1655.18 13636.7 1655.66 13636.2 1655.99 13635.7C1656.33 13635.2 1656.51 13634.6 1656.51 13633.9C1656.51 13633.3 1656.33 13632.7 1655.99 13632.1C1655.66 13631.6 1655.18 13631.2 1654.62 13630.9C1654.06 13630.7 1653.44 13630.6 1652.85 13630.7C1652.26 13630.9 1651.71 13631.2 1651.28 13631.6C1650.71 13632.2 1650.39 13633.1 1650.39 13633.9C1650.39 13634.8 1650.71 13635.6 1651.28 13636.2Z" fill="#F1D971" stroke="#F1D971" stroke-miterlimit="10"/>
<path d="M1612.33 13585.9C1611.91 13585.5 1611.36 13585.2 1610.77 13585.1C1610.17 13584.9 1609.56 13585 1609 13585.2C1608.44 13585.5 1607.96 13585.9 1607.62 13586.4C1607.29 13587 1607.11 13587.6 1607.11 13588.2C1607.11 13588.9 1607.29 13589.5 1607.62 13590C1607.96 13590.6 1608.44 13591 1609 13591.2C1609.56 13591.5 1610.17 13591.5 1610.77 13591.4C1611.36 13591.3 1611.91 13591 1612.33 13590.5C1612.9 13589.9 1613.23 13589.1 1613.23 13588.2C1613.23 13587.4 1612.9 13586.6 1612.33 13585.9Z" fill="#F1D971" stroke="#F1D971" stroke-miterlimit="10"/>
<path d="M1482.51 13768.7C1482.08 13768.2 1481.54 13767.9 1480.94 13767.8C1480.35 13767.7 1479.73 13767.7 1479.17 13768C1478.61 13768.2 1478.13 13768.6 1477.8 13769.2C1477.46 13769.7 1477.28 13770.3 1477.28 13771C1477.28 13771.6 1477.46 13772.2 1477.8 13772.8C1478.13 13773.3 1478.61 13773.7 1479.17 13773.9C1479.73 13774.2 1480.35 13774.2 1480.94 13774.1C1481.54 13774 1482.08 13773.7 1482.51 13773.2C1483.08 13772.6 1483.4 13771.8 1483.4 13771C1483.4 13770.1 1483.08 13769.3 1482.51 13768.7Z" fill="#F1D971" stroke="#F1D971" stroke-miterlimit="10"/>
<path d="M1525.78 13723C1525.35 13722.5 1524.81 13722.2 1524.22 13722.1C1523.62 13722 1523.01 13722.1 1522.45 13722.3C1521.89 13722.5 1521.41 13723 1521.08 13723.5C1520.74 13724 1520.56 13724.6 1520.56 13725.3C1520.56 13725.9 1520.74 13726.5 1521.08 13727.1C1521.41 13727.6 1521.89 13728 1522.45 13728.3C1523.01 13728.5 1523.62 13728.6 1524.22 13728.4C1524.81 13728.3 1525.35 13728 1525.78 13727.6C1526.07 13727.3 1526.29 13726.9 1526.45 13726.5C1526.6 13726.1 1526.68 13725.7 1526.68 13725.3C1526.68 13724.9 1526.6 13724.4 1526.45 13724C1526.29 13723.6 1526.07 13723.3 1525.78 13723Z" fill="#F1D971" stroke="#F1D971" stroke-miterlimit="10"/>
<path d="M1525.78 13768.7C1525.35 13768.2 1524.81 13767.9 1524.22 13767.8C1523.62 13767.7 1523.01 13767.7 1522.45 13768C1521.89 13768.2 1521.41 13768.6 1521.07 13769.2C1520.74 13769.7 1520.56 13770.3 1520.56 13771C1520.56 13771.6 1520.74 13772.2 1521.07 13772.7C1521.41 13773.3 1521.89 13773.7 1522.45 13773.9C1523.01 13774.2 1523.62 13774.2 1524.22 13774.1C1524.81 13774 1525.35 13773.7 1525.78 13773.2C1526.36 13772.6 1526.68 13771.8 1526.68 13771C1526.68 13770.1 1526.36 13769.3 1525.78 13768.7Z" fill="#F1D971" stroke="#F1D971" stroke-miterlimit="10"/>
<path d="M1478.18 13727.6C1478.61 13728 1479.15 13728.3 1479.74 13728.4C1480.34 13728.6 1480.95 13728.5 1481.51 13728.3C1482.07 13728 1482.55 13727.6 1482.89 13727.1C1483.22 13726.5 1483.4 13725.9 1483.4 13725.3C1483.4 13724.6 1483.22 13724 1482.89 13723.5C1482.55 13722.9 1482.07 13722.5 1481.51 13722.3C1480.95 13722 1480.34 13722 1479.74 13722.1C1479.15 13722.2 1478.61 13722.5 1478.18 13723C1477.89 13723.3 1477.67 13723.6 1477.51 13724C1477.36 13724.4 1477.28 13724.8 1477.28 13725.3C1477.28 13725.7 1477.36 13726.1 1477.51 13726.5C1477.67 13726.9 1477.89 13727.3 1478.18 13727.6Z" fill="#F1D971" stroke="#F1D971" stroke-miterlimit="10"/>
<path d="M1569.06 13723C1568.63 13722.5 1568.08 13722.2 1567.49 13722.1C1566.9 13722 1566.28 13722 1565.72 13722.3C1565.16 13722.5 1564.68 13723 1564.35 13723.5C1564.01 13724 1563.83 13724.6 1563.83 13725.3C1563.83 13725.9 1564.01 13726.5 1564.35 13727.1C1564.68 13727.6 1565.16 13728 1565.72 13728.3C1566.28 13728.5 1566.9 13728.6 1567.49 13728.4C1568.08 13728.3 1568.63 13728 1569.06 13727.6C1569.34 13727.3 1569.57 13726.9 1569.72 13726.5C1569.87 13726.1 1569.95 13725.7 1569.95 13725.3C1569.95 13724.9 1569.87 13724.4 1569.72 13724C1569.57 13723.6 1569.34 13723.3 1569.06 13723Z" fill="#F1D971" stroke="#F1D971" stroke-miterlimit="10"/>
<path d="M1521.46 13677.3C1521.03 13677.8 1520.74 13678.3 1520.62 13679C1520.5 13679.6 1520.56 13680.2 1520.79 13680.8C1521.02 13681.4 1521.42 13681.9 1521.92 13682.3C1522.42 13682.6 1523.01 13682.8 1523.62 13682.8C1524.22 13682.8 1524.82 13682.6 1525.32 13682.3C1525.82 13681.9 1526.21 13681.4 1526.45 13680.8C1526.68 13680.2 1526.74 13679.6 1526.62 13679C1526.5 13678.3 1526.21 13677.8 1525.78 13677.3C1525.5 13677 1525.16 13676.8 1524.79 13676.6C1524.42 13676.4 1524.02 13676.4 1523.62 13676.4C1523.22 13676.4 1522.82 13676.4 1522.45 13676.6C1522.08 13676.8 1521.74 13677 1521.46 13677.3Z" fill="#F1D971" stroke="#F1D971" stroke-miterlimit="10"/>
<path d="M1566.89 13682.8C1568.58 13682.8 1569.95 13681.4 1569.95 13679.6C1569.95 13677.8 1568.58 13676.4 1566.89 13676.4C1565.2 13676.4 1563.83 13677.8 1563.83 13679.6C1563.83 13681.4 1565.2 13682.8 1566.89 13682.8Z" fill="#F1D971" stroke="#F1D971" stroke-miterlimit="10"/>
<path d="M1439.23 13814.4C1438.8 13813.9 1438.25 13813.6 1437.66 13813.5C1437.07 13813.3 1436.45 13813.4 1435.89 13813.7C1435.33 13813.9 1434.85 13814.3 1434.52 13814.8C1434.18 13815.4 1434 13816 1434 13816.6C1434 13817.3 1434.18 13817.9 1434.52 13818.4C1434.85 13819 1435.33 13819.4 1435.89 13819.6C1436.45 13819.9 1437.07 13819.9 1437.66 13819.8C1438.25 13819.7 1438.8 13819.4 1439.23 13818.9C1439.8 13818.3 1440.12 13817.5 1440.12 13816.6C1440.12 13815.8 1439.8 13815 1439.23 13814.4Z" fill="#F1D971" stroke="#F1D971" stroke-miterlimit="10"/>
<path d="M1439.23 13860C1438.8 13859.6 1438.25 13859.3 1437.66 13859.1C1437.07 13859 1436.45 13859.1 1435.89 13859.3C1435.33 13859.6 1434.85 13860 1434.52 13860.5C1434.18 13861.1 1434 13861.7 1434 13862.3C1434 13863 1434.18 13863.6 1434.52 13864.1C1434.85 13864.6 1435.33 13865.1 1435.89 13865.3C1436.45 13865.5 1437.07 13865.6 1437.66 13865.5C1438.25 13865.4 1438.8 13865.1 1439.23 13864.6C1439.8 13864 1440.12 13863.2 1440.12 13862.3C1440.12 13861.5 1439.8 13860.6 1439.23 13860Z" fill="#F1D971" stroke="#F1D971" stroke-miterlimit="10"/>
<path d="M1482.51 13814.4C1482.08 13813.9 1481.54 13813.6 1480.94 13813.5C1480.35 13813.3 1479.73 13813.4 1479.17 13813.7C1478.61 13813.9 1478.13 13814.3 1477.8 13814.8C1477.46 13815.4 1477.28 13816 1477.28 13816.6C1477.28 13817.3 1477.46 13817.9 1477.8 13818.4C1478.13 13819 1478.61 13819.4 1479.17 13819.6C1479.73 13819.9 1480.35 13819.9 1480.94 13819.8C1481.54 13819.7 1482.08 13819.4 1482.51 13818.9C1483.08 13818.3 1483.4 13817.5 1483.4 13816.6C1483.4 13815.8 1483.08 13815 1482.51 13814.4Z" fill="#F1D971" stroke="#F1D971" stroke-miterlimit="10"/>
<path d="M1439.23 13773.2C1439.77 13772.6 1440.06 13771.8 1440.05 13771C1440.03 13770.1 1439.71 13769.3 1439.15 13768.8C1438.59 13768.2 1437.83 13767.8 1437.04 13767.8C1436.25 13767.8 1435.48 13768.1 1434.9 13768.7C1434.6 13769.5 1434.32 13770.3 1434.02 13771C1434.04 13771.7 1434.22 13772.3 1434.56 13772.8C1434.91 13773.3 1435.38 13773.7 1435.94 13774C1436.5 13774.2 1437.1 13774.3 1437.69 13774.1C1438.28 13774 1438.81 13773.7 1439.23 13773.2H1439.23Z" fill="#F1D971" stroke="#F1D971" stroke-miterlimit="10"/>
<path d="M1434.9 13910.3C1435.32 13910.7 1435.87 13911 1436.46 13911.2C1437.06 13911.3 1437.67 13911.2 1438.23 13911C1438.79 13910.7 1439.27 13910.3 1439.6 13909.8C1439.94 13909.3 1440.12 13908.6 1440.12 13908C1440.12 13907.4 1439.94 13906.7 1439.6 13906.2C1439.27 13905.7 1438.79 13905.3 1438.23 13905C1437.67 13904.8 1437.06 13904.7 1436.46 13904.8C1435.87 13905 1435.32 13905.3 1434.9 13905.7C1434.61 13906 1434.39 13906.4 1434.23 13906.8C1434.08 13907.2 1434 13907.6 1434 13908C1434 13908.4 1434.08 13908.8 1434.23 13909.2C1434.39 13909.6 1434.61 13910 1434.9 13910.3Z" fill="#F1D971" stroke="#F1D971" stroke-miterlimit="10"/>
<g opacity="0.4" filter="url(#filter0_f)">
<ellipse cx="-0.0276604" cy="7746.76" rx="248.031" ry="244.094" transform="rotate(-105 -0.0276604 7746.76)" fill="url(#paint0_linear)"/>
</g>
<g opacity="0.4" filter="url(#filter1_f)">
<ellipse cx="251.972" cy="11253.8" rx="248.031" ry="244.094" transform="rotate(-105 251.972 11253.8)" fill="url(#paint1_linear)"/>
</g>
<g opacity="0.4" filter="url(#filter2_f)">
<ellipse cx="1693" cy="11858" rx="378" ry="372" fill="url(#paint2_linear)"/>
</g>
<g opacity="0.4" filter="url(#filter3_f)">
<ellipse rx="378" ry="372" transform="matrix(-1 0 0 1 1194 15796)" fill="url(#paint3_linear)"/>
</g>
<g opacity="0.4" filter="url(#filter4_f)">
<ellipse cx="2243.19" cy="3935.7" rx="172.859" ry="170.115" transform="rotate(127.5 2243.19 3935.7)" fill="#FFE840"/>
</g>
<g opacity="0.4" filter="url(#filter5_f)">
<ellipse cx="865.972" cy="15734.8" rx="248.031" ry="244.094" transform="rotate(-105 865.972 15734.8)" fill="url(#paint4_linear)"/>
</g>
<g opacity="0.4" filter="url(#filter6_f)">
<ellipse cx="316.972" cy="14098.8" rx="248.031" ry="244.094" transform="rotate(-105 316.972 14098.8)" fill="url(#paint5_linear)"/>
</g>
<g opacity="0.4" filter="url(#filter7_f)">
<ellipse rx="248.031" ry="244.094" transform="matrix(0.258819 -0.965926 -0.965926 -0.258819 1850.03 16725.8)" fill="url(#paint6_linear)"/>
</g>
<g opacity="0.4" filter="url(#filter8_f)">
<ellipse cx="729.972" cy="2186.76" rx="248.031" ry="244.094" transform="rotate(-105 729.972 2186.76)" fill="url(#paint7_linear)"/>
</g>
<g opacity="0.4" filter="url(#filter9_f)">
<ellipse cx="1479" cy="12183" rx="378" ry="372" fill="url(#paint8_linear)"/>
</g>
<g opacity="0.4" filter="url(#filter10_f)">
<ellipse cx="2076.5" cy="432" rx="211.5" ry="208" fill="url(#paint9_linear)"/>
</g>
<g opacity="0.82">
<line x1="929.904" y1="1536.08" x2="926.151" y2="1530.14" stroke="#5127AC" stroke-linecap="round"/>
<line x1="925.097" y1="1534.8" x2="932.893" y2="1529.88" stroke="#5127AC" stroke-linecap="round"/>
</g>
<g opacity="0.82">
<line x1="865.284" y1="10397.5" x2="862.371" y2="10392" stroke="#5127AC" stroke-linecap="round"/>
<line x1="861.188" y1="10396" x2="868.322" y2="10392.1" stroke="#5127AC" stroke-linecap="round"/>
</g>
<g opacity="0.77">
<line x1="862.486" y1="13670.8" x2="872.49" y2="13674.8" stroke="#5127AC" stroke-linecap="round"/>
<line x1="869.463" y1="13667.8" x2="864.286" y2="13680.8" stroke="#5127AC" stroke-linecap="round"/>
</g>
<g opacity="0.77">
<line x1="1290.28" y1="11741" x2="1280.17" y2="11741.1" stroke="#5127AC" stroke-linecap="round"/>
<line x1="1285.26" y1="11746.1" x2="1285.19" y2="11733" stroke="#5127AC" stroke-linecap="round"/>
</g>
<g opacity="0.83">
<line x1="1903.11" y1="12033.6" x2="1899.7" y2="12025.3" stroke="#5127AC" stroke-linecap="round"/>
<line x1="1897.26" y1="12031.1" x2="1908.13" y2="12026.6" stroke="#5127AC" stroke-linecap="round"/>
</g>
<g opacity="0.4" filter="url(#filter11_f)">
<ellipse cx="242.192" cy="988.697" rx="172.859" ry="170.115" transform="rotate(127.5 242.192 988.697)" fill="url(#paint10_linear)"/>
</g>
</g>
</g>
<defs>
<filter id="filter0_f" x="-600" y="7144" width="1199.94" height="1205.51" filterUnits="userSpaceOnUse" color-interpolation-filters="sRGB">
<feFlood flood-opacity="0" result="BackgroundImageFix"/>
<feBlend mode="normal" in="SourceGraphic" in2="BackgroundImageFix" result="shape"/>
<feGaussianBlur stdDeviation="150" result="effect1_foregroundBlur"/>
</filter>
<filter id="filter1_f" x="-348" y="10651" width="1199.94" height="1205.51" filterUnits="userSpaceOnUse" color-interpolation-filters="sRGB">
<feFlood flood-opacity="0" result="BackgroundImageFix"/>
<feBlend mode="normal" in="SourceGraphic" in2="BackgroundImageFix" result="shape"/>
<feGaussianBlur stdDeviation="150" result="effect1_foregroundBlur"/>
</filter>
<filter id="filter2_f" x="1015" y="11186" width="1356" height="1344" filterUnits="userSpaceOnUse" color-interpolation-filters="sRGB">
<feFlood flood-opacity="0" result="BackgroundImageFix"/>
<feBlend mode="normal" in="SourceGraphic" in2="BackgroundImageFix" result="shape"/>
<feGaussianBlur stdDeviation="150" result="effect1_foregroundBlur"/>
</filter>
<filter id="filter3_f" x="516" y="15124" width="1356" height="1344" filterUnits="userSpaceOnUse" color-interpolation-filters="sRGB">
<feFlood flood-opacity="0" result="BackgroundImageFix"/>
<feBlend mode="normal" in="SourceGraphic" in2="BackgroundImageFix" result="shape"/>
<feGaussianBlur stdDeviation="150" result="effect1_foregroundBlur"/>
</filter>
<filter id="filter4_f" x="1772.05" y="3463.84" width="942.289" height="943.713" filterUnits="userSpaceOnUse" color-interpolation-filters="sRGB">
<feFlood flood-opacity="0" result="BackgroundImageFix"/>
<feBlend mode="normal" in="SourceGraphic" in2="BackgroundImageFix" result="shape"/>
<feGaussianBlur stdDeviation="150" result="effect1_foregroundBlur"/>
</filter>
<filter id="filter5_f" x="266" y="15132" width="1199.94" height="1205.51" filterUnits="userSpaceOnUse" color-interpolation-filters="sRGB">
<feFlood flood-opacity="0" result="BackgroundImageFix"/>
<feBlend mode="normal" in="SourceGraphic" in2="BackgroundImageFix" result="shape"/>
<feGaussianBlur stdDeviation="150" result="effect1_foregroundBlur"/>
</filter>
<filter id="filter6_f" x="-283" y="13496" width="1199.94" height="1205.51" filterUnits="userSpaceOnUse" color-interpolation-filters="sRGB">
<feFlood flood-opacity="0" result="BackgroundImageFix"/>
<feBlend mode="normal" in="SourceGraphic" in2="BackgroundImageFix" result="shape"/>
<feGaussianBlur stdDeviation="150" result="effect1_foregroundBlur"/>
</filter>
<filter id="filter7_f" x="1250.05" y="16123" width="1199.94" height="1205.51" filterUnits="userSpaceOnUse" color-interpolation-filters="sRGB">
<feFlood flood-opacity="0" result="BackgroundImageFix"/>
<feBlend mode="normal" in="SourceGraphic" in2="BackgroundImageFix" result="shape"/>
<feGaussianBlur stdDeviation="150" result="effect1_foregroundBlur"/>
</filter>
<filter id="filter8_f" x="130" y="1584" width="1199.94" height="1205.51" filterUnits="userSpaceOnUse" color-interpolation-filters="sRGB">
<feFlood flood-opacity="0" result="BackgroundImageFix"/>
<feBlend mode="normal" in="SourceGraphic" in2="BackgroundImageFix" result="shape"/>
<feGaussianBlur stdDeviation="150" result="effect1_foregroundBlur"/>
</filter>
<filter id="filter9_f" x="801" y="11511" width="1356" height="1344" filterUnits="userSpaceOnUse" color-interpolation-filters="sRGB">
<feFlood flood-opacity="0" result="BackgroundImageFix"/>
<feBlend mode="normal" in="SourceGraphic" in2="BackgroundImageFix" result="shape"/>
<feGaussianBlur stdDeviation="150" result="effect1_foregroundBlur"/>
</filter>
<filter id="filter10_f" x="1565" y="-76" width="1023" height="1016" filterUnits="userSpaceOnUse" color-interpolation-filters="sRGB">
<feFlood flood-opacity="0" result="BackgroundImageFix"/>
<feBlend mode="normal" in="SourceGraphic" in2="BackgroundImageFix" result="shape"/>
<feGaussianBlur stdDeviation="150" result="effect1_foregroundBlur"/>
</filter>
<filter id="filter11_f" x="-228.953" y="516.841" width="942.289" height="943.713" filterUnits="userSpaceOnUse" color-interpolation-filters="sRGB">
<feFlood flood-opacity="0" result="BackgroundImageFix"/>
<feBlend mode="normal" in="SourceGraphic" in2="BackgroundImageFix" result="shape"/>
<feGaussianBlur stdDeviation="150" result="effect1_foregroundBlur"/>
</filter>
<linearGradient id="paint0_linear" x1="-183.395" y1="7448.65" x2="253.021" y2="7988.53" gradientUnits="userSpaceOnUse">
<stop stop-color="#FFE840"/>
<stop offset="1" stop-color="#FFE177"/>
</linearGradient>
<linearGradient id="paint1_linear" x1="68.6048" y1="10955.7" x2="505.021" y2="11495.5" gradientUnits="userSpaceOnUse">
<stop stop-color="#FFE840"/>
<stop offset="1" stop-color="#FFE177"/>
</linearGradient>
<linearGradient id="paint2_linear" x1="1413.55" y1="11403.7" x2="2078.65" y2="12226.5" gradientUnits="userSpaceOnUse">
<stop stop-color="#D5DBFE"/>
<stop offset="0.9999" stop-color="#9D6CDD"/>
<stop offset="1" stop-color="#5127AC" stop-opacity="0"/>
</linearGradient>
<linearGradient id="paint3_linear" x1="98.5475" y1="-82.3081" x2="763.647" y2="740.465" gradientUnits="userSpaceOnUse">
<stop stop-color="#D5DBFE"/>
<stop offset="0.9999" stop-color="#9D6CDD"/>
<stop offset="1" stop-color="#5127AC" stop-opacity="0"/>
</linearGradient>
<linearGradient id="paint4_linear" x1="682.605" y1="15436.7" x2="1119.02" y2="15976.5" gradientUnits="userSpaceOnUse">
<stop stop-color="#FFE840"/>
<stop offset="1" stop-color="#FFE177"/>
</linearGradient>
<linearGradient id="paint5_linear" x1="133.605" y1="13800.7" x2="570.021" y2="14340.5" gradientUnits="userSpaceOnUse">
<stop stop-color="#FFE840"/>
<stop offset="1" stop-color="#FFE177"/>
</linearGradient>
<linearGradient id="paint6_linear" x1="64.6637" y1="-54.0079" x2="501.08" y2="485.869" gradientUnits="userSpaceOnUse">
<stop stop-color="#FFE840"/>
<stop offset="1" stop-color="#FFE177"/>
</linearGradient>
<linearGradient id="paint7_linear" x1="546.605" y1="1888.65" x2="983.021" y2="2428.53" gradientUnits="userSpaceOnUse">
<stop stop-color="#FFE840"/>
<stop offset="1" stop-color="#FFE177"/>
</linearGradient>
<linearGradient id="paint8_linear" x1="1199.55" y1="11728.7" x2="1864.65" y2="12551.5" gradientUnits="userSpaceOnUse">
<stop stop-color="#D5DBFE"/>
<stop offset="0.9999" stop-color="#9D6CDD"/>
<stop offset="1" stop-color="#5127AC" stop-opacity="0"/>
</linearGradient>
<linearGradient id="paint9_linear" x1="1920.14" y1="177.978" x2="2291.97" y2="638.273" gradientUnits="userSpaceOnUse">
<stop stop-color="#D5DBFE"/>
<stop offset="0.9999" stop-color="#9D6CDD"/>
<stop offset="1" stop-color="#5127AC" stop-opacity="0"/>
</linearGradient>
<linearGradient id="paint10_linear" x1="114.399" y1="780.943" x2="418.547" y2="1157.2" gradientUnits="userSpaceOnUse">
<stop stop-color="#FFE840"/>
<stop offset="1" stop-color="#FFE177"/>
</linearGradient>
<clipPath id="clip0">
<rect width="1920" height="17664" fill="white"/>
</clipPath>
<clipPath id="clip1">
<rect width="1918" height="17664" fill="white" transform="translate(2 11)"/>
</clipPath>
</defs>
</svg>
