<svg xmlns="http://www.w3.org/2000/svg" xmlns:xlink="http://www.w3.org/1999/xlink" width="101.943" height="30.84" viewBox="0 0 101.943 30.84"><defs><style>.a{fill:#b3b3b3;}.b{fill:#fff;}.c{fill:url(#a);}.d{fill:url(#b);}.e{opacity:0.3;fill:url(#c);}</style><linearGradient id="a" x1="0.38" y1="10.063" x2="0.531" y2="10.754" gradientUnits="objectBoundingBox"><stop offset="0.011" stop-color="#e67417"/><stop offset="0.999" stop-color="#e62f17"/></linearGradient><linearGradient id="b" x1="0.498" y1="11.865" x2="0.498" y2="12.831" gradientUnits="objectBoundingBox"><stop offset="0" stop-color="#f2bb30"/><stop offset="0.309" stop-color="#e67417"/><stop offset="1" stop-color="#e62f17"/></linearGradient><linearGradient id="c" x1="0.414" y1="32.413" x2="0.555" y2="31.528" gradientUnits="objectBoundingBox"><stop offset="0" stop-color="#fff"/><stop offset="1" stop-color="#fff" stop-opacity="0"/></linearGradient></defs><g transform="translate(34.563 3.402)"><path class="a" d="M71.881,20.306A5.882,5.882,0,0,1,76.093,18.2c1.9,0,3.235.719,3.8,2.414,1.695-1.746,3.03-2.414,4.622-2.414,2.722,0,4.109,1.541,4.109,5.084V31.5H85.491v-7.4c0-2.054-.359-2.979-1.849-2.979-1.027,0-2.157.616-3.39,1.952V31.45H77.171V24.106c0-2.054-.462-2.979-1.9-2.979a4.723,4.723,0,0,0-3.39,2V31.5H68.8V18.457h3.081Z" transform="translate(-68.8 -13.013)"/><path class="a" d="M123.05,25.13c0,4.057-2.568,6.676-6.625,6.676S109.8,29.187,109.8,25.13c0-4.211,2.568-6.83,6.625-6.83C120.482,18.248,123.05,20.918,123.05,25.13Zm-3.03,0c0-2.722-1.387-4.263-3.595-4.263-2.157,0-3.544,1.541-3.544,4.263,0,2.619,1.387,4.109,3.544,4.109,2.208,0,3.595-1.489,3.595-4.109Z" transform="translate(-88.744 -13.061)"/><path class="a" d="M138,27.221V9.4h3.081V27.221Z" transform="translate(-102.461 -8.732)"/><path class="a" d="M156.044,28.212a8.942,8.942,0,0,1-3.287.668c-2.876,0-4.057-1.335-4.057-4.571V18.352h-1.9V15.733h1.9V12.6h3.133v3.133h3.595v2.619h-3.595v5.906c0,1.541.565,2,2,2,.616,0,1.233-.051,1.849-.1Z" transform="translate(-106.742 -10.289)"/><path class="a" d="M169,8.1a1.674,1.674,0,1,1-1.8,1.695A1.672,1.672,0,0,1,169,8.1Zm-1.541,18.488V13.544h3.081V26.537Z" transform="translate(-116.665 -8.1)"/><path class="a" d="M179.781,20.354A6.612,6.612,0,0,1,184.4,18.3c2.876,0,4.263,1.541,4.263,5.084V31.6h-3.081V24.155c0-2.106-.308-2.979-2.054-2.979a5.194,5.194,0,0,0-3.749,2V31.5H176.7V18.505h3.081Z" transform="translate(-121.286 -13.062)"/></g><g transform="translate(0 0)"><path class="b" d="M28,8.883,15.418,1.591a.981.981,0,0,0-.924,0L1.962,8.883a.955.955,0,0,0-.462.77V24.187a.847.847,0,0,0,.462.77L14.545,32.2a.981.981,0,0,0,.924,0l12.582-7.241a.955.955,0,0,0,.462-.77V9.654A1.011,1.011,0,0,0,28,8.883Z" transform="translate(-1.5 -1.475)"/><path class="c" d="M5.314,31.954a1.059,1.059,0,0,1-.514-.873v-7.4a8.287,8.287,0,0,1,.359-2.516,4.853,4.853,0,0,1,2.979-2.979c3.235-1.284,6.42.462,8.217,3.03a16.31,16.31,0,0,0,4.314,4.468c1.695,1.284,6.984,3.595,7.755-1.027V31.03a.994.994,0,0,1-.514.873L17.126,38.117a.933.933,0,0,1-1.027,0Z" transform="translate(-3.105 -9.396)"/><path class="d" d="M5.355,34.869,16.14,41.083a.933.933,0,0,0,1.027,0l10.785-6.214A1.059,1.059,0,0,0,28.465,34V27.628c0-4.725-5.238-5.084-7.96-1.335-2.157,2.979-3.081,4.006-5.957,5.084-3.338,1.233-6.368.565-8.114-1.13a5.015,5.015,0,0,1-1.541-3.595v7.4A.88.88,0,0,0,5.355,34.869Z" transform="translate(-3.146 -12.311)"/><path class="e" d="M42.187,27.628c0-4.725-5.238-5.084-7.96-1.335-.359.514-.719.976-1.027,1.387.359.308.77.616,1.233.976C36.127,29.939,41.417,32.25,42.187,27.628Z" transform="translate(-16.92 -12.311)"/></g></svg>