<svg xmlns="http://www.w3.org/2000/svg" width="177.672" height="20.063" viewBox="0 0 177.672 20.063"><defs><style>.a{fill:#3796d3;}.b{opacity:0.5;}.c{fill:#9bcae9;}</style></defs><g transform="translate(0 0.031)"><g transform="translate(0 0)"><path class="a" d="M18.429,11.949V4.512a.313.313,0,0,0-.312-.312H.306a.309.309,0,0,0-.125.594l3.75,1.594h0L17.9,12.293A.381.381,0,0,0,18.429,11.949Z" transform="translate(0.009 -4.2)"/></g><g class="b" transform="translate(12.823 7.768)"><path class="c" d="M46.488,31.26a.235.235,0,0,1,.156.219v9.53a.309.309,0,0,1-.594.125l-5-11.749c-.094-.187.125-.375.312-.312Z" transform="translate(-41.028 -29.061)"/></g></g><g transform="translate(24.063 0)"><g transform="translate(0 0)"><path d="M83.218,24.129a.262.262,0,0,1-.281-.281V6.725a.166.166,0,0,0-.187-.187H77.281A.262.262,0,0,1,77,6.256V4.381a.262.262,0,0,1,.281-.281H91.217a.262.262,0,0,1,.281.281V6.256a.262.262,0,0,1-.281.281h-5.5a.166.166,0,0,0-.187.187V23.848a.262.262,0,0,1-.281.281H83.218Z" transform="translate(-77 -4.1)"/><path d="M150.193,24.129c-.219,0-.281-.094-.375-.281l-4-8.187h-4.437a.166.166,0,0,0-.187.187v8.03a.262.262,0,0,1-.281.281h-2.031a.262.262,0,0,1-.281-.281V4.381a.262.262,0,0,1,.281-.281h7.249c3.75,0,6.281,2.312,6.281,5.781a5.483,5.483,0,0,1-3.937,5.468l4.281,8.468c.125.187.031.344-.187.344h-2.375Zm-.406-14.248c0-2.094-1.375-3.343-3.718-3.343h-4.687a.166.166,0,0,0-.187.187v6.312a.166.166,0,0,0,.187.187h4.687C148.411,13.193,149.786,11.974,149.786,9.881Z" transform="translate(-119.352 -4.1)"/><path d="M199.5,4.381a.262.262,0,0,1,.281-.281h12.061a.262.262,0,0,1,.281.281V6.256a.262.262,0,0,1-.281.281h-9.562a.166.166,0,0,0-.187.187V12.63a.166.166,0,0,0,.187.187h8.093a.262.262,0,0,1,.281.281v1.844a.262.262,0,0,1-.281.281h-8.093a.166.166,0,0,0-.187.187V21.5a.166.166,0,0,0,.187.187h9.562a.262.262,0,0,1,.281.281v1.844a.262.262,0,0,1-.281.281H199.781a.262.262,0,0,1-.281-.281Z" transform="translate(-161.223 -4.1)"/><path d="M255.9,4.381a.262.262,0,0,1,.281-.281h1.875a.483.483,0,0,1,.5.281l9.093,15.03h.125V4.381a.262.262,0,0,1,.281-.281H269.9a.262.262,0,0,1,.281.281V23.848a.262.262,0,0,1-.281.281h-1.875a.508.508,0,0,1-.5-.281L258.431,8.881h-.094V23.848a.262.262,0,0,1-.281.281h-1.844a.262.262,0,0,1-.281-.281V4.381Z" transform="translate(-200 -4.1)"/><path d="M319.2,4.381a.262.262,0,0,1,.281-.281h6.749c3.406,0,5.624,1.437,6.531,4.281.344,1.094.531,2.187.531,5.749s-.187,4.656-.531,5.749c-.906,2.843-3.156,4.281-6.531,4.281h-6.749a.262.262,0,0,1-.281-.281Zm2.812,17.311H325.7c2.406,0,3.906-.781,4.562-2.75.25-.75.406-1.719.406-4.843s-.156-4.093-.406-4.843c-.656-1.937-2.156-2.75-4.562-2.75h-3.687a.166.166,0,0,0-.187.187V21.5A.166.166,0,0,0,322.012,21.692Z" transform="translate(-243.52 -4.1)"/><path d="M381,4.381a.262.262,0,0,1,.281-.281h2.031a.262.262,0,0,1,.281.281V14.818l8.53-10.468a.463.463,0,0,1,.469-.25H395c.188,0,.25.187.125.344l-6.249,7.53,6.874,11.843c.125.187.031.312-.187.312h-2.344c-.219,0-.281-.062-.406-.25l-5.624-9.874-3.562,4.312v5.531a.262.262,0,0,1-.281.281h-2.031a.262.262,0,0,1-.281-.281V4.381Z" transform="translate(-286.01 -4.1)"/><path d="M442.5,4.381a.262.262,0,0,1,.281-.281h2.031a.262.262,0,0,1,.281.281V23.848a.262.262,0,0,1-.281.281h-2.031a.262.262,0,0,1-.281-.281Z" transform="translate(-328.293 -4.1)"/><path d="M472.849,24.129a.262.262,0,0,1-.281-.281V6.725a.166.166,0,0,0-.187-.187h-5.5a.262.262,0,0,1-.281-.281V4.381a.262.262,0,0,1,.281-.281h13.936a.262.262,0,0,1,.281.281V6.256a.262.262,0,0,1-.281.281h-5.468a.166.166,0,0,0-.187.187V23.848a.262.262,0,0,1-.281.281h-2.031Z" transform="translate(-344.863 -4.1)"/><path d="M528.2,4.381a.262.262,0,0,1,.281-.281h12.061a.262.262,0,0,1,.281.281V6.256a.262.262,0,0,1-.281.281h-9.561a.166.166,0,0,0-.187.187V12.63a.166.166,0,0,0,.188.187h8.093a.262.262,0,0,1,.281.281v1.844a.262.262,0,0,1-.281.281h-8.093a.166.166,0,0,0-.187.187V21.5a.166.166,0,0,0,.188.187h9.561a.262.262,0,0,1,.281.281v1.844a.262.262,0,0,1-.281.281H528.481a.262.262,0,0,1-.281-.281Z" transform="translate(-387.215 -4.1)"/></g></g></svg>