<svg xmlns="http://www.w3.org/2000/svg" width="191.793" height="23.67" viewBox="0 0 191.793 23.67"><defs><style>.a{fill:#545454;}</style></defs><path class="a" d="M810.159,978.087a43.338,43.338,0,0,1-8.56-9.353c-.722-1.1-.729-1.123-.432-1.746,1.021-2.141,6.011-7.72,9.119-10.2l1.373-1.093,4.259.052,4.259.052-1.5,1a45.439,45.439,0,0,0-6.791,5.635c-2.486,2.481-4.228,4.568-4.228,5.066,0,.535,1.715,2.552,4.458,5.245a43,43,0,0,0,6.663,5.536,11.33,11.33,0,0,1,1.383,1c0,.044-1.885.081-4.189.081h-4.19Zm17.43,1.092a11.121,11.121,0,0,1-6.487-3.47,11.742,11.742,0,0,1,5.543-19.638,11.866,11.866,0,0,1,8.893,1.326,12.055,12.055,0,0,1,5.167,6.422,8.617,8.617,0,0,1,.506,3.624,8.813,8.813,0,0,1-.528,3.751,12.543,12.543,0,0,1-5.17,6.5A13.289,13.289,0,0,1,827.589,979.179Zm4.532-7.412a4.982,4.982,0,0,0,1.444-7.144,5.142,5.142,0,0,0-5.224-2.014,5.006,5.006,0,0,0-2.536,8.245c1.82,1.709,4.573,2.126,6.317.913Zm6.708,7.513a15.664,15.664,0,0,1,1.724-1.251,44.978,44.978,0,0,0,7.226-6.182c2.62-2.707,3.554-3.849,3.554-4.347,0-.806-4.924-5.988-8.083-8.506-1.006-.8-2.431-1.849-3.165-2.325l-1.336-.865,4.282-.052,4.283-.052,1.479,1.206a41.152,41.152,0,0,1,8.26,8.928c1.242,1.866,1.264,1.654-.431,4.014a42.425,42.425,0,0,1-8.256,8.607l-1.17.912-4.184,0c-2.3,0-4.184-.04-4.184-.089Z" transform="translate(-800.983 -955.7)"/><g transform="translate(62.189 0.974)"><path class="a" d="M699.892,1772.316a7.606,7.606,0,0,0-2.056-4.617c-2.567-2.429-7.4-2.18-9.6.5a8.516,8.516,0,0,0-1.45,7.157,7.814,7.814,0,0,0,4.506,4.8h0a11.038,11.038,0,0,0,5.977-.433c1.28-.652,2.2-1.434,2.2-1.876,0-.171-.374-.6-.831-.945l-.831-.633-1.141.8a3.586,3.586,0,0,1-2.785.8,3.781,3.781,0,0,1-2.626-.649,4.754,4.754,0,0,1-1.9-2.828l-.166-.549h10.834Zm-6.659-.91h-3.788l.349-.671a5.152,5.152,0,0,1,2.026-1.982,4.251,4.251,0,0,1,3.434.212,4.732,4.732,0,0,1,1.766,2.257A19.769,19.769,0,0,1,693.233,1771.406Z" transform="translate(-663.842 -1759.085)"/><path class="a" d="M1106.139,1695.653h-2.928v3.9h-1.951V1702h1.9l.092,4.208c.072,3.3.178,4.367.489,4.941a5.445,5.445,0,0,0,2.274,2.156c.814.429,4.144.561,4.383.174a3.1,3.1,0,0,0-.136-1.342l-.28-1.11h-1.324c-1.08,0-1.434-.11-1.922-.6-.586-.586-.6-.683-.6-4.513V1702h4.391v-2.44h-4.391Z" transform="translate(-1057.103 -1692.359)"/><path class="a" d="M1763.067,1766.247c0,.611.015.613-1.365-.122a7.435,7.435,0,0,0-6.169.032,7.415,7.415,0,0,0,.825,13.465,9.312,9.312,0,0,0,5.435-.385c1.27-.666,1.273-.666,1.273-.06,0,.428.162.488,1.342.488h1.342v-13.906h-1.342C1763.23,1765.759,1763.067,1765.818,1763.067,1766.247Zm-2,10.516a4.769,4.769,0,0,1-5.158-.727,5.075,5.075,0,0,1-1.047-5.227,5.558,5.558,0,0,1,2.735-2.514,8.033,8.033,0,0,1,1.95-.044,3.528,3.528,0,0,1,2.245.848l.913.738.069,2.751C1762.848,1775.669,1762.753,1775.9,1761.064,1776.763Z" transform="translate(-1673.777 -1758.562)"/><path class="a" d="M2081.5,1695.653h-2.927v3.9h-1.952V1702h1.952v3.721a30.2,30.2,0,0,0,.257,4.642,5.557,5.557,0,0,0,2.543,3.013,7.165,7.165,0,0,0,2.566.269l1.83-.056-.052-.732c-.124-1.737-.208-1.83-1.671-1.83-1.106,0-1.456-.108-1.947-.6-.586-.586-.6-.683-.6-4.513V1702h4.392v-2.44H2081.5Z" transform="translate(-1981.961 -1692.359)"/><path class="a" d="M2299.57,1772.158a7.516,7.516,0,0,0-3.95-6.008,7.309,7.309,0,0,0-7.616,1.526,7.855,7.855,0,0,0-1.265,8.265,6.969,6.969,0,0,0,4.361,3.918h0a11.568,11.568,0,0,0,2.255.208,7.058,7.058,0,0,0,4.985-1.728l.813-.788-.78-.805c-.879-.907-1.208-.985-1.692-.4a5.326,5.326,0,0,1-3.263,1.292,4.667,4.667,0,0,1-4.42-3.364l-.155-.772h10.864Zm-6.761-1.1a16.423,16.423,0,0,1-3.659-.207,3.739,3.739,0,0,1,.549-1.012,3.915,3.915,0,0,1,4.8-1.351c.812.42,1.968,1.727,1.968,2.224C2296.469,1771,2295.813,1771.061,2292.81,1771.061Z" transform="translate(-2180.587 -1758.741)"/><path class="a" d="M266.359,1638.737l-3.894,6.174a62.16,62.16,0,0,1-3.93,5.855s-2.223-2.981-4.268-6.234l-3.719-5.916H248.4v20.736h2.92l.065-6.891.065-6.891,3.013,4.7,3.013,4.7h2.059l2.91-4.567,2.91-4.567.122,6.7.122,6.7,1.525.073,1.525.073v-20.787l-1.146.074Z" transform="translate(-248.402 -1638.249)"/><path class="a" d="M1000.31,1632.034h-2.683l-.064,10.552-.063,10.551h2.938l-.064-10.551Z" transform="translate(-958.715 -1632.034)"/><path class="a" d="M1331.138,1770.8l-1.489.072-1.834,4.586c-1.009,2.521-1.868,4.55-1.911,4.507s-.9-2.107-1.9-4.585l-1.819-4.507-1.061-.07-1.061-.069-1.827,4.622a38.352,38.352,0,0,1-1.964,4.537c-.076-.047-.947-2.123-1.936-4.614l-1.8-4.529h-1.448c-1.275,0-1.429.051-1.295.427.083.235,1.331,3.367,2.771,6.959l2.618,6.532,1.061-.067,1.061-.067,1.867-4.7c1.274-3.212,1.934-4.6,2.079-4.377.118.181,1,2.3,1.965,4.7l1.752,4.377h2.11l2.775-6.816c1.526-3.749,2.774-6.856,2.774-6.9A6.44,6.44,0,0,0,1331.138,1770.8Z" transform="translate(-1254.803 -1763.549)"/><path class="a" d="M2601.663,1766.33c-1.33,0-3.062.613-3.435,1.216-.279.452-.612.255-.612-.363,0-.577-.073-.61-1.342-.61h-1.341v13.906h2.927v-9.419l.793-.75a3.588,3.588,0,0,1,2.972-1.3c1.01,0,1.114-.054,1.114-.579a8.437,8.437,0,0,1,.152-1.342l.153-.762Z" transform="translate(-2473.44 -1759.377)"/></g></svg>