<svg xmlns="http://www.w3.org/2000/svg" width="177.672" height="39.896" viewBox="0 0 177.672 39.896"><defs><style>.a{fill:#57b7dd;}.a,.b,.c,.d,.e,.f,.g{fill-rule:evenodd;}.b{fill:#f99132;}.c{fill:#a98bbc;}.d{fill:#ff6d56;}.e{fill:#8ac539;}.f{fill:#ffbe0a;}.g{fill:#1a1a1a;}</style></defs><path class="a" d="M.52,13.882v10.48l12.263,5.791,12.543-13.2L17.111,2a4.4,4.4,0,0,0-.781.341L2.7,10.175A4.288,4.288,0,0,0,.5,13.882" transform="translate(-0.5 -1.777)"/><path class="b" d="M61.8,89.8l14.788,6.973L83.28,92.91,74.343,76.6Z" transform="translate(-49.517 -61.429)"/><path class="c" d="M99.029,8.324,87.007,1.451A4.328,4.328,0,0,0,83.5,1.11l8.215,14.968,7.354-7.714Z" transform="translate(-66.869 -0.888)"/><path class="d" d="M133.337,62.125h.04a4.288,4.288,0,0,0,2.144-3.707V42.749a4.282,4.282,0,0,0-2.144-3.727l-1.623-.922L124.4,45.814l8.957,16.33Z" transform="translate(-99.574 -30.644)"/><path class="e" d="M.6,113.6v5.19A4.311,4.311,0,0,0,2.764,122.5l4.609,2.665,5.49-5.771Z" transform="translate(-0.58 -91.015)"/><path class="f" d="M34.5,148.271l9.017,5.17a4.328,4.328,0,0,0,4.328,0l6.913-3.967L39.97,142.5Z" transform="translate(-27.687 -114.125)"/><g transform="translate(47.949 9.961)"><path class="g" d="M331.411,65.007c0,2.084-1.7,2.805-3.146,2.805-2.585,0-2.865-1.3-2.865-1.863a1.792,1.792,0,0,1,.741-1.543,5.277,5.277,0,0,1,2.765-.441h2.485v1.042Zm-5.49-5.15a1.543,1.543,0,0,1,.621-1.062,4.017,4.017,0,0,1,4.228,0,2.143,2.143,0,0,1,.641,1.663V61.3h-2.545a7.182,7.182,0,0,0-4.328.982,4.3,4.3,0,0,0-1.763,3.607c0,2.785,2.164,4.569,5.49,4.569a5.456,5.456,0,0,0,3.607-1.3l.06,1.062h2.084V60.478a4.559,4.559,0,0,0-1.563-3.687,5.811,5.811,0,0,0-3.807-1.242,5.725,5.725,0,0,0-3.807,1.242,3.965,3.965,0,0,0-1.483,2.845l2.565.2Zm-54.782,5.15c0,2.084-1.683,2.805-3.126,2.805-2.6,0-2.865-1.3-2.865-1.863a1.77,1.77,0,0,1,.721-1.543,5.318,5.318,0,0,1,2.765-.441h2.5Zm-5.49-5.15a1.543,1.543,0,0,1,.621-1.062,3.287,3.287,0,0,1,2.1-.6,3.2,3.2,0,0,1,2.124.6,2.076,2.076,0,0,1,.641,1.663V61.3h-2.525a7.245,7.245,0,0,0-4.348.982,4.285,4.285,0,0,0-1.743,3.607c0,2.785,2.144,4.569,5.49,4.569a5.5,5.5,0,0,0,3.607-1.3l.06,1.062h2.084V60.478a4.559,4.559,0,0,0-1.563-3.687,6.485,6.485,0,0,0-7.634,0,3.872,3.872,0,0,0-1.463,2.845l2.545.2Zm33.4,3.086a6.382,6.382,0,0,1-.862,3.727,2.821,2.821,0,0,1-2.465,1.142,2.858,2.858,0,0,1-2.485-1.142,6.472,6.472,0,0,1-.922-3.727,6.039,6.039,0,0,1,.922-3.607,2.858,2.858,0,0,1,2.485-1.142,2.8,2.8,0,0,1,2.465,1.142A5.91,5.91,0,0,1,299.051,62.943Zm-.4-12.343v6.051a4.188,4.188,0,0,0-2.905-1.1h-.04a5.41,5.41,0,0,0-4.448,2.1,8.155,8.155,0,0,0-1.563,5.29,8.362,8.362,0,0,0,1.563,5.41,5.41,5.41,0,0,0,4.448,2.1h.04a4.9,4.9,0,0,0,3.366-1.463l.08,1.222h2.084V50.6H298.65Zm55.143,14.647a2.4,2.4,0,0,1-.8,1.823,3.244,3.244,0,0,1-2.184.741,2.859,2.859,0,0,1-2.485-1.142A6.151,6.151,0,0,1,347.381,63a6.153,6.153,0,0,1,.942-3.667,2.859,2.859,0,0,1,2.485-1.142,3.334,3.334,0,0,1,2.2.741,2.391,2.391,0,0,1,.8,1.8l2.545-.14a4.776,4.776,0,0,0-1.643-3.687,5.875,5.875,0,0,0-3.907-1.363,5.41,5.41,0,0,0-4.488,2.1A8.4,8.4,0,0,0,344.776,63a8.41,8.41,0,0,0,1.543,5.35,5.41,5.41,0,0,0,4.488,2.1,5.875,5.875,0,0,0,3.907-1.363,4.823,4.823,0,0,0,1.643-3.707Zm-11.081,2.465a1.385,1.385,0,0,1-1.683-.04,1.825,1.825,0,0,1-.7-1.543V58.435h2.545V55.79h-2.545V53.085h-2.645V55.81H336.16v2.645h1.523v7.694a4.222,4.222,0,0,0,2.2,4.007,4.068,4.068,0,0,0,4.308-.461l.08-.08-1.463-1.984Zm-26.069-2-2.805-9.9h-2.465l-2.805,9.9-2.845-9.9H303.2l4.128,14.407h2.445L312.6,60.3l2.825,9.9h2.445l4.128-14.427h-2.525Zm-67.686-8.957a2.3,2.3,0,0,1-.761,1.924,4.786,4.786,0,0,1-2.805.661h-3.006v-5.21h2.905c3.667.06,3.667,1.863,3.667,2.6m-.1,10.039a3.888,3.888,0,0,1-2.665.8h-3.807v-5.61h4.068a3.826,3.826,0,0,1,2.465.822,2.294,2.294,0,0,1,.8,1.843,2.641,2.641,0,0,1-.842,2.144m1.262-6.312a5.009,5.009,0,0,0,1.463-3.667,4.809,4.809,0,0,0-1.763-3.967A7.374,7.374,0,0,0,245.17,51.5H239.8V70.217h6.352a6.484,6.484,0,0,0,4.488-1.483,5.265,5.265,0,0,0,1.7-4.128,4.957,4.957,0,0,0-1.3-3.346,6.793,6.793,0,0,0-.9-.8m31.779-4.909c-3.406,0-5.45,2.2-5.45,5.891v8.776h2.645v-8.8c0-.962.281-3.206,2.845-3.206s2.825,2.244,2.825,3.206v8.816h2.625v-8.8c0-3.687-2.044-5.891-5.45-5.891m82.414,0a4.893,4.893,0,0,0-3.206,1.082V50.62h-2.6v19.6h2.6V61.48a3.049,3.049,0,0,1,3.006-3.286c1.863,0,2.705,1.663,2.705,3.206v8.816h2.645V61.641c0-5.791-4.288-6.091-5.15-6.091m-104.235,0c-3.406,0-5.47,2.2-5.47,5.891v8.776h2.625v-8.8c0-.962.281-3.206,2.845-3.206a3.177,3.177,0,0,1,.962.12l.681-2.585a7.014,7.014,0,0,0-1.643-.2" transform="translate(-239.8 -50.6)"/></g></svg>