<svg xmlns="http://www.w3.org/2000/svg" width="208.23" height="45.815" viewBox="0 0 208.23 45.815"><defs><style>.a{fill:#efe778;}.a,.b{fill-rule:evenodd;}.b{fill:#2c2e31;}</style></defs><path class="a" d="M105.817,39.608,90.55,30.594a5.272,5.272,0,0,0-4.848,0L70.436,39.608A5.525,5.525,0,0,0,68.012,43.9V61.925a5.53,5.53,0,0,0,2.424,4.295L85.7,75.229a5.278,5.278,0,0,0,4.848,0l15.267-9.01a5.53,5.53,0,0,0,2.424-4.295V43.9A5.519,5.519,0,0,0,105.817,39.608Z" transform="translate(-68.012 -30.004)"/><path class="b" d="M122.608,75.112v-2.62c0-3-1.41-4.654-6.16-4.654h-.242c-3.706,0-5.988-.8-5.988-3.8h-1.566c0,3-2.279,3.8-5.988,3.8h-.242c-4.751,0-6.161,1.658-6.161,4.654v2.62h0v.945L121.042,83.4v1.568c0,2.088-1.566,2.73-4.594,2.73h-.192c-7.255,0-6.559,2.78-6.768,3.8h-.1c-.208-1.018.436-3.8-6.822-3.8h-.138c-3.027,0-4.6-.641-4.6-2.73V82.24H96.262v2.623c0,2.995,1.409,4.654,6.161,4.654h.242c3.707,0,5.986.8,5.986,3.8h1.566c0-3,2.281-3.8,5.986-3.8h.242c4.751,0,6.161-1.658,6.161-4.654V82.24H122.6v-.412l-24.774-7.34v-2.1c0-2.085,1.566-2.728,4.595-2.728h.19c7.258,0,6.561-2.781,6.771-3.8h.1c.209,1.016-.434,3.8,6.822,3.8h.138c3.028,0,4.594.642,4.594,2.728v2.728h1.566Z" transform="translate(-89.413 -55.789)"/><path class="b" d="M304.254,90.584c0-2.169,2.341-3.107,4.231-3.107,1.864,0,3.9.567,3.953,2.763H314.2c-.4-3.429-3.525-4.242-5.917-4.242-2.87,0-5.791,1.7-5.791,4.809,0,3.848,4.483,4.759,7.427,5.721,1.537.495,2.846,1.333,2.846,3.108,0,2.27-2.341,3.428-4.381,3.428-2.442,0-4.509-.789-4.557-3.527h-1.763a5.217,5.217,0,0,0,5.414,5.008c3.651,0,7.05-1.185,7.05-5.058C314.526,93.348,304.254,95.641,304.254,90.584ZM336.28,102.03h-.05L326.207,86.366h-1.862v17.809h1.635V88.784h.051l9.822,15.391h2.065V86.366H336.28V102.03h0Zm12.664,2.146h1.636V86.292h-1.636v17.883Zm17.421-17.809h-4.557v17.809h1.637V96.431h2.919c3.5.073,7.431-.79,7.431-5.033s-3.93-5.106-7.431-5.032Zm1.06,8.584h-3.978v-7.1h3.978c2.442,0,4.608.764,4.608,3.552s-2.166,3.553-4.608,3.553Zm21.148,8.114c-4.658,0-6.067-4.143-6.067-7.8s1.409-7.792,6.067-7.792c2.065,0,3.979.888,4.28,3.058h1.764C394.364,87.33,391.543,86,388.572,86c-5.489,0-7.832,4.391-7.832,9.272,0,4.936,2.316,9.277,7.832,9.277,2.922,0,5.716-1.7,6.245-4.687h-1.762C392.6,102.079,390.587,103.064,388.572,103.064Zm18.379-16.7-7.2,17.809h1.686l1.913-4.809h9.039l1.939,4.809h1.786l-7.253-17.808h-1.912ZM403.88,97.883l4-10.037,3.927,10.038H403.88ZM430.771,94.9v-.048c2.115-.517,3.5-1.9,3.5-3.824a4,4,0,0,0-1.863-3.723,7.586,7.586,0,0,0-4.282-.937h-5.94v17.809h1.635V95.691h4.507c3.3,0,3.553.715,3.929,4.784a14.051,14.051,0,0,0,.63,3.7h1.887c-.73-1.086-.629-2.417-.957-5.3-.226-2.071-.73-3.6-3.045-3.973Zm-3.451-.69h-3.5V87.846H427.5c1.736,0,5.011-.247,5.011,3.181,0,3.036-2.874,3.184-5.189,3.184Zm12.941-7.844v1.479h5.866l.027,16.33h1.611l.026-16.33h5.766V86.365Z" transform="translate(-245.327 -72.424)"/></svg>