<svg width="1704" height="218" viewBox="0 0 1704 218" fill="none" xmlns="http://www.w3.org/2000/svg">
<g filter="url(#filter0_d)">
<path d="M1635.16 50H68.8373C58.4338 50 50 51.1264 50 52.516V165.484C50 166.874 58.4338 168 68.8373 168H1635.16C1645.57 168 1654 166.874 1654 165.484V52.516C1654 51.1264 1645.57 50 1635.16 50Z" fill="white"/>
</g>
<path d="M659.273 104.98V103.195H663.515V118H661.499V104.98H659.273ZM666.226 110.503C666.226 112.883 666.618 114.738 667.402 116.068C668.186 117.398 669.544 118.063 671.476 118.063C673.408 118.063 674.766 117.398 675.55 116.068C676.348 114.738 676.747 112.883 676.747 110.503C676.747 108.151 676.348 106.31 675.55 104.98C674.766 103.65 673.408 102.985 671.476 102.985C669.544 102.985 668.186 103.65 667.402 104.98C666.618 106.296 666.226 108.137 666.226 110.503ZM674.857 110.503C674.857 111.721 674.766 112.743 674.584 113.569C674.416 114.381 674.087 115.032 673.597 115.522C673.107 116.012 672.4 116.257 671.476 116.257C670.566 116.257 669.866 116.012 669.376 115.522C668.886 115.032 668.55 114.381 668.368 113.569C668.2 112.743 668.116 111.721 668.116 110.503C668.116 109.299 668.2 108.291 668.368 107.479C668.55 106.667 668.886 106.023 669.376 105.547C669.866 105.057 670.566 104.812 671.476 104.812C672.4 104.812 673.107 105.057 673.597 105.547C674.087 106.023 674.416 106.667 674.584 107.479C674.766 108.291 674.857 109.299 674.857 110.503ZM685.678 98.218L679.924 121.591H678.076L683.809 98.218H685.678ZM686.036 104.98V103.195H690.278V118H688.262V104.98H686.036ZM692.674 116.53C695.054 114.934 696.958 113.352 698.386 111.784C699.814 110.202 700.528 108.732 700.528 107.374C700.528 106.534 700.311 105.862 699.877 105.358C699.457 104.84 698.771 104.581 697.819 104.581C696.839 104.581 696.097 104.896 695.593 105.526C695.089 106.142 694.809 106.996 694.753 108.088H692.863C692.961 106.436 693.472 105.169 694.396 104.287C695.32 103.391 696.51 102.943 697.966 102.943C699.352 102.943 700.451 103.314 701.263 104.056C702.075 104.798 702.481 105.848 702.481 107.206C702.481 108.326 702.117 109.467 701.389 110.629C700.675 111.777 699.772 112.848 698.68 113.842C697.602 114.822 696.489 115.655 695.341 116.341H702.859V117.916H692.674V116.53ZM711.456 98.218L705.702 121.591H703.854L709.587 98.218H711.456ZM712.423 116.53C714.803 114.934 716.707 113.352 718.135 111.784C719.563 110.202 720.277 108.732 720.277 107.374C720.277 106.534 720.06 105.862 719.626 105.358C719.206 104.84 718.52 104.581 717.568 104.581C716.588 104.581 715.846 104.896 715.342 105.526C714.838 106.142 714.558 106.996 714.502 108.088H712.612C712.71 106.436 713.221 105.169 714.145 104.287C715.069 103.391 716.259 102.943 717.715 102.943C719.101 102.943 720.2 103.314 721.012 104.056C721.824 104.798 722.23 105.848 722.23 107.206C722.23 108.326 721.866 109.467 721.138 110.629C720.424 111.777 719.521 112.848 718.429 113.842C717.351 114.822 716.238 115.655 715.09 116.341H722.608V117.916H712.423V116.53ZM724.653 110.503C724.653 112.883 725.045 114.738 725.829 116.068C726.613 117.398 727.971 118.063 729.903 118.063C731.835 118.063 733.193 117.398 733.977 116.068C734.775 114.738 735.174 112.883 735.174 110.503C735.174 108.151 734.775 106.31 733.977 104.98C733.193 103.65 731.835 102.985 729.903 102.985C727.971 102.985 726.613 103.65 725.829 104.98C725.045 106.296 724.653 108.137 724.653 110.503ZM733.284 110.503C733.284 111.721 733.193 112.743 733.011 113.569C732.843 114.381 732.514 115.032 732.024 115.522C731.534 116.012 730.827 116.257 729.903 116.257C728.993 116.257 728.293 116.012 727.803 115.522C727.313 115.032 726.977 114.381 726.795 113.569C726.627 112.743 726.543 111.721 726.543 110.503C726.543 109.299 726.627 108.291 726.795 107.479C726.977 106.667 727.313 106.023 727.803 105.547C728.293 105.057 728.993 104.812 729.903 104.812C730.827 104.812 731.534 105.057 732.024 105.547C732.514 106.023 732.843 106.667 733.011 107.479C733.193 108.291 733.284 109.299 733.284 110.503ZM737.237 116.53C739.617 114.934 741.521 113.352 742.949 111.784C744.377 110.202 745.091 108.732 745.091 107.374C745.091 106.534 744.874 105.862 744.44 105.358C744.02 104.84 743.334 104.581 742.382 104.581C741.402 104.581 740.66 104.896 740.156 105.526C739.652 106.142 739.372 106.996 739.316 108.088H737.426C737.524 106.436 738.035 105.169 738.959 104.287C739.883 103.391 741.073 102.943 742.529 102.943C743.915 102.943 745.014 103.314 745.826 104.056C746.638 104.798 747.044 105.848 747.044 107.206C747.044 108.326 746.68 109.467 745.952 110.629C745.238 111.777 744.335 112.848 743.243 113.842C742.165 114.822 741.052 115.655 739.904 116.341H747.422V117.916H737.237V116.53ZM748.544 104.98V103.195H752.786V118H750.77V104.98H748.544ZM762.385 109.495V111.112H753.985V109.495H762.385ZM770.077 104.98V103.195H774.319V118H772.303V104.98H770.077ZM777.03 110.503C777.03 112.883 777.422 114.738 778.206 116.068C778.99 117.398 780.348 118.063 782.28 118.063C784.212 118.063 785.57 117.398 786.354 116.068C787.152 114.738 787.551 112.883 787.551 110.503C787.551 108.151 787.152 106.31 786.354 104.98C785.57 103.65 784.212 102.985 782.28 102.985C780.348 102.985 778.99 103.65 778.206 104.98C777.422 106.296 777.03 108.137 777.03 110.503ZM785.661 110.503C785.661 111.721 785.57 112.743 785.388 113.569C785.22 114.381 784.891 115.032 784.401 115.522C783.911 116.012 783.204 116.257 782.28 116.257C781.37 116.257 780.67 116.012 780.18 115.522C779.69 115.032 779.354 114.381 779.172 113.569C779.004 112.743 778.92 111.721 778.92 110.503C778.92 109.299 779.004 108.291 779.172 107.479C779.354 106.667 779.69 106.023 780.18 105.547C780.67 105.057 781.37 104.812 782.28 104.812C783.204 104.812 783.911 105.057 784.401 105.547C784.891 106.023 785.22 106.667 785.388 107.479C785.57 108.291 785.661 109.299 785.661 110.503ZM796.481 98.218L790.727 121.591H788.879L794.612 98.218H796.481ZM796.839 104.98V103.195H801.081V118H799.065V104.98H796.839ZM803.478 116.53C805.858 114.934 807.762 113.352 809.19 111.784C810.618 110.202 811.332 108.732 811.332 107.374C811.332 106.534 811.115 105.862 810.681 105.358C810.261 104.84 809.575 104.581 808.623 104.581C807.643 104.581 806.901 104.896 806.397 105.526C805.893 106.142 805.613 106.996 805.557 108.088H803.667C803.765 106.436 804.276 105.169 805.2 104.287C806.124 103.391 807.314 102.943 808.77 102.943C810.156 102.943 811.255 103.314 812.067 104.056C812.879 104.798 813.285 105.848 813.285 107.206C813.285 108.326 812.921 109.467 812.193 110.629C811.479 111.777 810.576 112.848 809.484 113.842C808.406 114.822 807.293 115.655 806.145 116.341H813.663V117.916H803.478V116.53ZM822.26 98.218L816.506 121.591H814.658L820.391 98.218H822.26ZM823.227 116.53C825.607 114.934 827.511 113.352 828.939 111.784C830.367 110.202 831.081 108.732 831.081 107.374C831.081 106.534 830.864 105.862 830.43 105.358C830.01 104.84 829.324 104.581 828.372 104.581C827.392 104.581 826.65 104.896 826.146 105.526C825.642 106.142 825.362 106.996 825.306 108.088H823.416C823.514 106.436 824.025 105.169 824.949 104.287C825.873 103.391 827.063 102.943 828.519 102.943C829.905 102.943 831.004 103.314 831.816 104.056C832.628 104.798 833.034 105.848 833.034 107.206C833.034 108.326 832.67 109.467 831.942 110.629C831.228 111.777 830.325 112.848 829.233 113.842C828.155 114.822 827.042 115.655 825.894 116.341H833.412V117.916H823.227V116.53ZM835.457 110.503C835.457 112.883 835.849 114.738 836.633 116.068C837.417 117.398 838.775 118.063 840.707 118.063C842.639 118.063 843.997 117.398 844.781 116.068C845.579 114.738 845.978 112.883 845.978 110.503C845.978 108.151 845.579 106.31 844.781 104.98C843.997 103.65 842.639 102.985 840.707 102.985C838.775 102.985 837.417 103.65 836.633 104.98C835.849 106.296 835.457 108.137 835.457 110.503ZM844.088 110.503C844.088 111.721 843.997 112.743 843.815 113.569C843.647 114.381 843.318 115.032 842.828 115.522C842.338 116.012 841.631 116.257 840.707 116.257C839.797 116.257 839.097 116.012 838.607 115.522C838.117 115.032 837.781 114.381 837.599 113.569C837.431 112.743 837.347 111.721 837.347 110.503C837.347 109.299 837.431 108.291 837.599 107.479C837.781 106.667 838.117 106.023 838.607 105.547C839.097 105.057 839.797 104.812 840.707 104.812C841.631 104.812 842.338 105.057 842.828 105.547C843.318 106.023 843.647 106.667 843.815 107.479C843.997 108.291 844.088 109.299 844.088 110.503ZM848.041 116.53C850.421 114.934 852.325 113.352 853.753 111.784C855.181 110.202 855.895 108.732 855.895 107.374C855.895 106.534 855.678 105.862 855.244 105.358C854.824 104.84 854.138 104.581 853.186 104.581C852.206 104.581 851.464 104.896 850.96 105.526C850.456 106.142 850.176 106.996 850.12 108.088H848.23C848.328 106.436 848.839 105.169 849.763 104.287C850.687 103.391 851.877 102.943 853.333 102.943C854.719 102.943 855.818 103.314 856.63 104.056C857.442 104.798 857.848 105.848 857.848 107.206C857.848 108.326 857.484 109.467 856.756 110.629C856.042 111.777 855.139 112.848 854.047 113.842C852.969 114.822 851.856 115.655 850.708 116.341H858.226V117.916H848.041V116.53ZM859.347 104.98V103.195H863.589V118H861.573V104.98H859.347Z" fill="#303030"/>
<path d="M168.529 93.947C168.529 94.703 168.34 95.403 167.962 96.047C167.584 96.677 167.024 97.188 166.282 97.58C165.54 97.958 164.637 98.147 163.573 98.147C162.523 98.147 161.585 97.972 160.759 97.622C159.933 97.258 159.268 96.74 158.764 96.068C158.274 95.396 157.994 94.612 157.924 93.716H161.074C161.144 94.318 161.382 94.822 161.788 95.228C162.208 95.62 162.761 95.816 163.447 95.816C164.063 95.816 164.532 95.655 164.854 95.333C165.19 94.997 165.358 94.57 165.358 94.052C165.358 93.59 165.225 93.212 164.959 92.918C164.693 92.61 164.357 92.365 163.951 92.183C163.545 92.001 162.985 91.791 162.271 91.553C161.347 91.245 160.591 90.944 160.003 90.65C159.415 90.342 158.911 89.901 158.491 89.327C158.085 88.753 157.882 88.004 157.882 87.08C157.882 85.806 158.337 84.805 159.247 84.077C160.171 83.335 161.389 82.964 162.901 82.964C164.469 82.964 165.715 83.342 166.639 84.098C167.577 84.854 168.109 85.862 168.235 87.122H165.043C164.959 86.59 164.735 86.156 164.371 85.82C164.007 85.47 163.51 85.295 162.88 85.295C162.334 85.295 161.893 85.442 161.557 85.736C161.221 86.016 161.053 86.429 161.053 86.975C161.053 87.409 161.179 87.773 161.431 88.067C161.697 88.347 162.026 88.578 162.418 88.76C162.824 88.942 163.37 89.145 164.056 89.369C165.008 89.705 165.778 90.02 166.366 90.314C166.968 90.608 167.479 91.049 167.899 91.637C168.319 92.225 168.529 92.995 168.529 93.947ZM175.939 86.219C177.437 86.219 178.683 86.625 179.677 87.437C180.685 88.249 181.315 89.355 181.567 90.755H178.438C178.312 90.139 178.025 89.656 177.577 89.306C177.129 88.942 176.562 88.76 175.876 88.76C175.092 88.76 174.434 89.054 173.902 89.642C173.384 90.216 173.125 91.063 173.125 92.183C173.125 93.303 173.384 94.157 173.902 94.745C174.434 95.319 175.092 95.606 175.876 95.606C176.562 95.606 177.129 95.431 177.577 95.081C178.025 94.717 178.312 94.227 178.438 93.611H181.567C181.315 95.011 180.685 96.117 179.677 96.929C178.683 97.741 177.437 98.147 175.939 98.147C174.805 98.147 173.797 97.909 172.915 97.433C172.033 96.943 171.347 96.25 170.857 95.354C170.367 94.458 170.122 93.401 170.122 92.183C170.122 90.965 170.367 89.908 170.857 89.012C171.347 88.102 172.033 87.409 172.915 86.933C173.797 86.457 174.805 86.219 175.939 86.219ZM190.601 86.198C191.945 86.198 193.016 86.639 193.814 87.521C194.612 88.403 195.011 89.642 195.011 91.238V98H192.071V91.574C192.071 90.65 191.833 89.936 191.357 89.432C190.881 88.914 190.23 88.655 189.404 88.655C188.564 88.655 187.892 88.928 187.388 89.474C186.884 90.02 186.632 90.804 186.632 91.826V98H183.671V82.46H186.632V88.697C186.94 87.913 187.444 87.304 188.144 86.87C188.858 86.422 189.677 86.198 190.601 86.198ZM208.557 91.742C208.557 92.036 208.522 92.372 208.452 92.75H199.926C199.968 93.786 200.248 94.549 200.766 95.039C201.284 95.529 201.928 95.774 202.698 95.774C203.384 95.774 203.951 95.606 204.399 95.27C204.861 94.934 205.155 94.479 205.281 93.905H208.41C208.256 94.717 207.927 95.445 207.423 96.089C206.919 96.733 206.268 97.237 205.47 97.601C204.686 97.965 203.811 98.147 202.845 98.147C201.711 98.147 200.703 97.909 199.821 97.433C198.939 96.943 198.253 96.25 197.763 95.354C197.273 94.458 197.028 93.401 197.028 92.183C197.028 90.965 197.273 89.908 197.763 89.012C198.253 88.102 198.939 87.409 199.821 86.933C200.703 86.457 201.711 86.219 202.845 86.219C203.993 86.219 204.994 86.457 205.848 86.933C206.716 87.409 207.381 88.067 207.843 88.907C208.319 89.733 208.557 90.678 208.557 91.742ZM205.575 91.448C205.617 90.496 205.365 89.775 204.819 89.285C204.287 88.795 203.629 88.55 202.845 88.55C202.047 88.55 201.375 88.795 200.829 89.285C200.283 89.775 199.982 90.496 199.926 91.448H205.575ZM215.216 86.219C216.196 86.219 217.029 86.45 217.715 86.912C218.415 87.374 218.919 87.997 219.227 88.781V82.46H222.167V98H219.227V95.564C218.919 96.348 218.415 96.978 217.715 97.454C217.029 97.916 216.196 98.147 215.216 98.147C214.236 98.147 213.354 97.909 212.57 97.433C211.786 96.957 211.17 96.271 210.722 95.375C210.288 94.465 210.071 93.401 210.071 92.183C210.071 90.965 210.288 89.908 210.722 89.012C211.17 88.102 211.786 87.409 212.57 86.933C213.354 86.457 214.236 86.219 215.216 86.219ZM216.14 88.802C215.216 88.802 214.474 89.103 213.914 89.705C213.354 90.307 213.074 91.133 213.074 92.183C213.074 93.233 213.354 94.059 213.914 94.661C214.474 95.249 215.216 95.543 216.14 95.543C217.036 95.543 217.771 95.242 218.345 94.64C218.933 94.024 219.227 93.205 219.227 92.183C219.227 91.147 218.933 90.328 218.345 89.726C217.771 89.11 217.036 88.802 216.14 88.802ZM235.981 86.366V98H233.02V95.648C232.712 96.432 232.201 97.048 231.487 97.496C230.787 97.93 229.975 98.147 229.051 98.147C227.707 98.147 226.636 97.706 225.838 96.824C225.04 95.942 224.641 94.71 224.641 93.128V86.366H227.581V92.792C227.581 93.716 227.819 94.437 228.295 94.955C228.771 95.459 229.415 95.711 230.227 95.711C231.081 95.711 231.76 95.438 232.264 94.892C232.768 94.346 233.02 93.562 233.02 92.54V86.366H235.981ZM241.634 82.46V98H238.673V82.46H241.634ZM255.254 91.742C255.254 92.036 255.219 92.372 255.149 92.75H246.623C246.665 93.786 246.945 94.549 247.463 95.039C247.981 95.529 248.625 95.774 249.395 95.774C250.081 95.774 250.648 95.606 251.096 95.27C251.558 94.934 251.852 94.479 251.978 93.905H255.107C254.953 94.717 254.624 95.445 254.12 96.089C253.616 96.733 252.965 97.237 252.167 97.601C251.383 97.965 250.508 98.147 249.542 98.147C248.408 98.147 247.4 97.909 246.518 97.433C245.636 96.943 244.95 96.25 244.46 95.354C243.97 94.458 243.725 93.401 243.725 92.183C243.725 90.965 243.97 89.908 244.46 89.012C244.95 88.102 245.636 87.409 246.518 86.933C247.4 86.457 248.408 86.219 249.542 86.219C250.69 86.219 251.691 86.457 252.545 86.933C253.413 87.409 254.078 88.067 254.54 88.907C255.016 89.733 255.254 90.678 255.254 91.742ZM252.272 91.448C252.314 90.496 252.062 89.775 251.516 89.285C250.984 88.795 250.326 88.55 249.542 88.55C248.744 88.55 248.072 88.795 247.526 89.285C246.98 89.775 246.679 90.496 246.623 91.448H252.272ZM276.734 86.198C278.148 86.198 279.261 86.639 280.073 87.521C280.899 88.389 281.312 89.628 281.312 91.238V98H278.372V91.574C278.372 90.678 278.141 89.992 277.679 89.516C277.231 89.026 276.608 88.781 275.81 88.781C274.984 88.781 274.326 89.04 273.836 89.558C273.346 90.076 273.101 90.832 273.101 91.826V98H270.161V91.574C270.161 90.678 269.93 89.992 269.468 89.516C269.02 89.026 268.397 88.781 267.599 88.781C266.773 88.781 266.115 89.04 265.625 89.558C265.135 90.076 264.89 90.832 264.89 91.826V98H261.929V86.366H264.89V88.571C265.198 87.815 265.681 87.234 266.339 86.828C267.011 86.408 267.788 86.198 268.67 86.198C269.608 86.198 270.42 86.422 271.106 86.87C271.806 87.318 272.331 87.962 272.681 88.802C273.045 88.004 273.584 87.374 274.298 86.912C275.026 86.436 275.838 86.198 276.734 86.198ZM289.289 86.219C290.423 86.219 291.438 86.457 292.334 86.933C293.244 87.409 293.958 88.102 294.476 89.012C294.994 89.908 295.253 90.965 295.253 92.183C295.253 93.401 294.994 94.458 294.476 95.354C293.958 96.25 293.244 96.943 292.334 97.433C291.438 97.909 290.423 98.147 289.289 98.147C288.155 98.147 287.133 97.909 286.223 97.433C285.327 96.943 284.62 96.25 284.102 95.354C283.584 94.458 283.325 93.401 283.325 92.183C283.325 90.965 283.584 89.908 284.102 89.012C284.62 88.102 285.327 87.409 286.223 86.933C287.133 86.457 288.155 86.219 289.289 86.219ZM289.289 88.781C288.463 88.781 287.763 89.075 287.189 89.663C286.615 90.237 286.328 91.077 286.328 92.183C286.328 93.289 286.615 94.136 287.189 94.724C287.763 95.298 288.463 95.585 289.289 95.585C290.115 95.585 290.815 95.298 291.389 94.724C291.963 94.136 292.25 93.289 292.25 92.183C292.25 91.077 291.963 90.237 291.389 89.663C290.815 89.075 290.115 88.781 289.289 88.781ZM304.276 86.198C305.62 86.198 306.691 86.639 307.489 87.521C308.287 88.403 308.686 89.642 308.686 91.238V98H305.746V91.574C305.746 90.65 305.508 89.936 305.032 89.432C304.556 88.914 303.905 88.655 303.079 88.655C302.239 88.655 301.567 88.928 301.063 89.474C300.559 90.02 300.307 90.804 300.307 91.826V98H297.346V86.366H300.307V88.697C300.615 87.913 301.119 87.304 301.819 86.87C302.533 86.422 303.352 86.198 304.276 86.198ZM317.507 95.459V98H315.953C314.651 98 313.65 97.685 312.95 97.055C312.264 96.425 311.921 95.375 311.921 93.905V88.865H310.304V86.366H311.921V83.489H314.882V86.366H317.486V88.865H314.882V93.947C314.882 94.507 314.994 94.899 315.218 95.123C315.442 95.347 315.82 95.459 316.352 95.459H317.507ZM326.568 86.198C327.912 86.198 328.983 86.639 329.781 87.521C330.579 88.403 330.978 89.642 330.978 91.238V98H328.038V91.574C328.038 90.65 327.8 89.936 327.324 89.432C326.848 88.914 326.197 88.655 325.371 88.655C324.531 88.655 323.859 88.928 323.355 89.474C322.851 90.02 322.599 90.804 322.599 91.826V98H319.638V82.46H322.599V88.697C322.907 87.913 323.411 87.304 324.111 86.87C324.825 86.422 325.644 86.198 326.568 86.198ZM336.544 82.46V98H333.583V82.46H336.544ZM341.218 86.366L344.389 94.262L347.329 86.366H350.584L343.465 103.544H340.189L342.814 97.664L337.921 86.366H341.218ZM360.563 86.219C361.977 86.219 363.111 86.576 363.965 87.29C364.819 88.004 365.351 88.956 365.561 90.146H362.789C362.677 89.586 362.425 89.138 362.033 88.802C361.641 88.466 361.13 88.298 360.5 88.298C359.996 88.298 359.604 88.417 359.324 88.655C359.044 88.893 358.904 89.215 358.904 89.621C358.904 89.943 359.016 90.202 359.24 90.398C359.464 90.594 359.744 90.748 360.08 90.86C360.416 90.972 360.899 91.105 361.529 91.259C362.411 91.455 363.125 91.665 363.671 91.889C364.231 92.099 364.707 92.442 365.099 92.918C365.505 93.38 365.708 94.01 365.708 94.808C365.708 95.802 365.316 96.607 364.532 97.223C363.762 97.839 362.719 98.147 361.403 98.147C359.891 98.147 358.68 97.811 357.77 97.139C356.86 96.453 356.307 95.48 356.111 94.22H358.946C359.016 94.794 359.268 95.249 359.702 95.585C360.136 95.907 360.703 96.068 361.403 96.068C361.907 96.068 362.292 95.949 362.558 95.711C362.824 95.459 362.957 95.137 362.957 94.745C362.957 94.409 362.838 94.136 362.6 93.926C362.376 93.716 362.089 93.555 361.739 93.443C361.403 93.331 360.92 93.198 360.29 93.044C359.422 92.848 358.715 92.652 358.169 92.456C357.637 92.246 357.175 91.917 356.783 91.469C356.405 91.021 356.216 90.405 356.216 89.621C356.216 88.613 356.601 87.794 357.371 87.164C358.141 86.534 359.205 86.219 360.563 86.219ZM374.129 95.459V98H372.575C371.273 98 370.272 97.685 369.572 97.055C368.886 96.425 368.543 95.375 368.543 93.905V88.865H366.926V86.366H368.543V83.489H371.504V86.366H374.108V88.865H371.504V93.947C371.504 94.507 371.616 94.899 371.84 95.123C372.064 95.347 372.442 95.459 372.974 95.459H374.129ZM380.817 86.219C381.797 86.219 382.637 86.45 383.337 86.912C384.037 87.374 384.534 87.997 384.828 88.781V86.366H387.768V98H384.828V95.564C384.534 96.348 384.037 96.978 383.337 97.454C382.637 97.916 381.797 98.147 380.817 98.147C379.837 98.147 378.955 97.909 378.171 97.433C377.387 96.957 376.771 96.271 376.323 95.375C375.889 94.465 375.672 93.401 375.672 92.183C375.672 90.965 375.889 89.908 376.323 89.012C376.771 88.102 377.387 87.409 378.171 86.933C378.955 86.457 379.837 86.219 380.817 86.219ZM381.741 88.802C380.817 88.802 380.075 89.103 379.515 89.705C378.955 90.307 378.675 91.133 378.675 92.183C378.675 93.233 378.955 94.059 379.515 94.661C380.075 95.249 380.817 95.543 381.741 95.543C382.637 95.543 383.372 95.242 383.946 94.64C384.534 94.024 384.828 93.205 384.828 92.183C384.828 91.147 384.534 90.328 383.946 89.726C383.372 89.11 382.637 88.802 381.741 88.802ZM396.667 95.459V98H395.113C393.811 98 392.81 97.685 392.11 97.055C391.424 96.425 391.081 95.375 391.081 93.905V88.865H389.464V86.366H391.081V83.489H394.042V86.366H396.646V88.865H394.042V93.947C394.042 94.507 394.154 94.899 394.378 95.123C394.602 95.347 394.98 95.459 395.512 95.459H396.667ZM409.928 86.366V98H406.967V95.648C406.659 96.432 406.148 97.048 405.434 97.496C404.734 97.93 403.922 98.147 402.998 98.147C401.654 98.147 400.583 97.706 399.785 96.824C398.987 95.942 398.588 94.71 398.588 93.128V86.366H401.528V92.792C401.528 93.716 401.766 94.437 402.242 94.955C402.718 95.459 403.362 95.711 404.174 95.711C405.028 95.711 405.707 95.438 406.211 94.892C406.715 94.346 406.967 93.562 406.967 92.54V86.366H409.928ZM416.631 86.219C418.045 86.219 419.179 86.576 420.033 87.29C420.887 88.004 421.419 88.956 421.629 90.146H418.857C418.745 89.586 418.493 89.138 418.101 88.802C417.709 88.466 417.198 88.298 416.568 88.298C416.064 88.298 415.672 88.417 415.392 88.655C415.112 88.893 414.972 89.215 414.972 89.621C414.972 89.943 415.084 90.202 415.308 90.398C415.532 90.594 415.812 90.748 416.148 90.86C416.484 90.972 416.967 91.105 417.597 91.259C418.479 91.455 419.193 91.665 419.739 91.889C420.299 92.099 420.775 92.442 421.167 92.918C421.573 93.38 421.776 94.01 421.776 94.808C421.776 95.802 421.384 96.607 420.6 97.223C419.83 97.839 418.787 98.147 417.471 98.147C415.959 98.147 414.748 97.811 413.838 97.139C412.928 96.453 412.375 95.48 412.179 94.22H415.014C415.084 94.794 415.336 95.249 415.77 95.585C416.204 95.907 416.771 96.068 417.471 96.068C417.975 96.068 418.36 95.949 418.626 95.711C418.892 95.459 419.025 95.137 419.025 94.745C419.025 94.409 418.906 94.136 418.668 93.926C418.444 93.716 418.157 93.555 417.807 93.443C417.471 93.331 416.988 93.198 416.358 93.044C415.49 92.848 414.783 92.652 414.237 92.456C413.705 92.246 413.243 91.917 412.851 91.469C412.473 91.021 412.284 90.405 412.284 89.621C412.284 88.613 412.669 87.794 413.439 87.164C414.209 86.534 415.273 86.219 416.631 86.219ZM443.36 86.198C444.774 86.198 445.887 86.639 446.699 87.521C447.525 88.389 447.938 89.628 447.938 91.238V98H444.998V91.574C444.998 90.678 444.767 89.992 444.305 89.516C443.857 89.026 443.234 88.781 442.436 88.781C441.61 88.781 440.952 89.04 440.462 89.558C439.972 90.076 439.727 90.832 439.727 91.826V98H436.787V91.574C436.787 90.678 436.556 89.992 436.094 89.516C435.646 89.026 435.023 88.781 434.225 88.781C433.399 88.781 432.741 89.04 432.251 89.558C431.761 90.076 431.516 90.832 431.516 91.826V98H428.555V86.366H431.516V88.571C431.824 87.815 432.307 87.234 432.965 86.828C433.637 86.408 434.414 86.198 435.296 86.198C436.234 86.198 437.046 86.422 437.732 86.87C438.432 87.318 438.957 87.962 439.307 88.802C439.671 88.004 440.21 87.374 440.924 86.912C441.652 86.436 442.464 86.198 443.36 86.198ZM461.48 91.742C461.48 92.036 461.445 92.372 461.375 92.75H452.849C452.891 93.786 453.171 94.549 453.689 95.039C454.207 95.529 454.851 95.774 455.621 95.774C456.307 95.774 456.874 95.606 457.322 95.27C457.784 94.934 458.078 94.479 458.204 93.905H461.333C461.179 94.717 460.85 95.445 460.346 96.089C459.842 96.733 459.191 97.237 458.393 97.601C457.609 97.965 456.734 98.147 455.768 98.147C454.634 98.147 453.626 97.909 452.744 97.433C451.862 96.943 451.176 96.25 450.686 95.354C450.196 94.458 449.951 93.401 449.951 92.183C449.951 90.965 450.196 89.908 450.686 89.012C451.176 88.102 451.862 87.409 452.744 86.933C453.626 86.457 454.634 86.219 455.768 86.219C456.916 86.219 457.917 86.457 458.771 86.933C459.639 87.409 460.304 88.067 460.766 88.907C461.242 89.733 461.48 90.678 461.48 91.742ZM458.498 91.448C458.54 90.496 458.288 89.775 457.742 89.285C457.21 88.795 456.552 88.55 455.768 88.55C454.97 88.55 454.298 88.795 453.752 89.285C453.206 89.775 452.905 90.496 452.849 91.448H458.498ZM474.523 91.742C474.523 92.036 474.488 92.372 474.418 92.75H465.892C465.934 93.786 466.214 94.549 466.732 95.039C467.25 95.529 467.894 95.774 468.664 95.774C469.35 95.774 469.917 95.606 470.365 95.27C470.827 94.934 471.121 94.479 471.247 93.905H474.376C474.222 94.717 473.893 95.445 473.389 96.089C472.885 96.733 472.234 97.237 471.436 97.601C470.652 97.965 469.777 98.147 468.811 98.147C467.677 98.147 466.669 97.909 465.787 97.433C464.905 96.943 464.219 96.25 463.729 95.354C463.239 94.458 462.994 93.401 462.994 92.183C462.994 90.965 463.239 89.908 463.729 89.012C464.219 88.102 464.905 87.409 465.787 86.933C466.669 86.457 467.677 86.219 468.811 86.219C469.959 86.219 470.96 86.457 471.814 86.933C472.682 87.409 473.347 88.067 473.809 88.907C474.285 89.733 474.523 90.678 474.523 91.742ZM471.541 91.448C471.583 90.496 471.331 89.775 470.785 89.285C470.253 88.795 469.595 88.55 468.811 88.55C468.013 88.55 467.341 88.795 466.795 89.285C466.249 89.775 465.948 90.496 465.892 91.448H471.541ZM482.841 95.459V98H481.287C479.985 98 478.984 97.685 478.284 97.055C477.598 96.425 477.255 95.375 477.255 93.905V88.865H475.638V86.366H477.255V83.489H480.216V86.366H482.82V88.865H480.216V93.947C480.216 94.507 480.328 94.899 480.552 95.123C480.776 95.347 481.154 95.459 481.686 95.459H482.841ZM484.636 83.027C484.636 82.551 484.804 82.166 485.14 81.872C485.476 81.564 485.917 81.41 486.463 81.41C487.009 81.41 487.45 81.564 487.786 81.872C488.122 82.166 488.29 82.551 488.29 83.027C488.29 83.489 488.122 83.874 487.786 84.182C487.45 84.476 487.009 84.623 486.463 84.623C485.917 84.623 485.476 84.476 485.14 84.182C484.804 83.874 484.636 83.489 484.636 83.027ZM487.933 86.366V98H484.972V86.366H487.933ZM497.542 86.198C498.886 86.198 499.957 86.639 500.755 87.521C501.553 88.403 501.952 89.642 501.952 91.238V98H499.012V91.574C499.012 90.65 498.774 89.936 498.298 89.432C497.822 88.914 497.171 88.655 496.345 88.655C495.505 88.655 494.833 88.928 494.329 89.474C493.825 90.02 493.573 90.804 493.573 91.826V98H490.612V86.366H493.573V88.697C493.881 87.913 494.385 87.304 495.085 86.87C495.799 86.422 496.618 86.198 497.542 86.198ZM509.114 86.219C510.094 86.219 510.934 86.45 511.634 86.912C512.334 87.374 512.831 87.997 513.125 88.781V86.366H516.065V98.042C516.065 99.12 515.848 100.086 515.414 100.94C514.994 101.808 514.357 102.487 513.503 102.977C512.663 103.467 511.641 103.712 510.437 103.712C508.757 103.712 507.399 103.313 506.363 102.515C505.327 101.717 504.697 100.632 504.473 99.26H507.392C507.56 99.848 507.882 100.303 508.358 100.625C508.848 100.961 509.471 101.129 510.227 101.129C511.095 101.129 511.795 100.87 512.327 100.352C512.859 99.848 513.125 99.078 513.125 98.042V95.564C512.831 96.348 512.334 96.978 511.634 97.454C510.934 97.916 510.094 98.147 509.114 98.147C508.134 98.147 507.252 97.909 506.468 97.433C505.684 96.957 505.068 96.271 504.62 95.375C504.186 94.465 503.969 93.401 503.969 92.183C503.969 90.965 504.186 89.908 504.62 89.012C505.068 88.102 505.684 87.409 506.468 86.933C507.252 86.457 508.134 86.219 509.114 86.219ZM510.038 88.802C509.114 88.802 508.372 89.103 507.812 89.705C507.252 90.307 506.972 91.133 506.972 92.183C506.972 93.233 507.252 94.059 507.812 94.661C508.372 95.249 509.114 95.543 510.038 95.543C510.934 95.543 511.669 95.242 512.243 94.64C512.831 94.024 513.125 93.205 513.125 92.183C513.125 91.147 512.831 90.328 512.243 89.726C511.669 89.11 510.934 88.802 510.038 88.802Z" fill="#303030"/>
<path d="M1258.5 116C1262.64 116 1266 112.642 1266 108.5C1266 104.358 1262.64 101 1258.5 101C1254.36 101 1251 104.358 1251 108.5C1251 112.642 1254.36 116 1258.5 116Z" fill="#FFFF35"/>
<path d="M1279.84 103.174V118H1277.45V103.174H1279.84ZM1289.21 106.24C1290.55 106.24 1291.63 106.674 1292.44 107.542C1293.25 108.41 1293.66 109.649 1293.66 111.259V118H1291.27V111.511C1291.27 110.475 1291 109.677 1290.47 109.117C1289.94 108.543 1289.21 108.256 1288.28 108.256C1287.33 108.256 1286.57 108.564 1286 109.18C1285.42 109.782 1285.13 110.671 1285.13 111.847V118H1282.74V106.429H1285.13V108.97C1285.44 108.102 1285.96 107.43 1286.69 106.954C1287.42 106.478 1288.26 106.24 1289.21 106.24ZM1308.02 106.282C1309.03 106.282 1309.92 106.52 1310.71 106.996C1311.5 107.472 1312.13 108.158 1312.57 109.054C1313.02 109.95 1313.25 111 1313.25 112.204C1313.25 113.422 1313.02 114.479 1312.57 115.375C1312.13 116.271 1311.5 116.957 1310.71 117.433C1309.92 117.909 1309.03 118.147 1308.02 118.147C1306.97 118.147 1306.07 117.888 1305.33 117.37C1304.59 116.852 1304.07 116.166 1303.78 115.312V123.502H1301.38V106.429H1303.78V109.117C1304.07 108.263 1304.59 107.577 1305.33 107.059C1306.07 106.541 1306.97 106.282 1308.02 106.282ZM1307.28 108.382C1306.61 108.382 1306.01 108.543 1305.48 108.865C1304.94 109.173 1304.52 109.621 1304.22 110.209C1303.91 110.783 1303.75 111.448 1303.75 112.204C1303.75 112.974 1303.91 113.646 1304.22 114.22C1304.52 114.794 1304.94 115.242 1305.48 115.564C1306.01 115.872 1306.61 116.026 1307.28 116.026C1308.35 116.026 1309.2 115.69 1309.84 115.018C1310.49 114.332 1310.81 113.394 1310.81 112.204C1310.81 111.028 1310.49 110.097 1309.84 109.411C1309.2 108.725 1308.35 108.382 1307.28 108.382ZM1317.95 108.697C1318.34 107.941 1318.9 107.346 1319.63 106.912C1320.35 106.464 1321.19 106.24 1322.15 106.24V108.844H1321.43C1320.38 108.844 1319.54 109.103 1318.89 109.621C1318.26 110.125 1317.95 110.965 1317.95 112.141V118H1315.55V106.429H1317.95V108.697ZM1329.23 106.282C1330.35 106.282 1331.36 106.52 1332.26 106.996C1333.15 107.472 1333.85 108.158 1334.36 109.054C1334.86 109.95 1335.11 111 1335.11 112.204C1335.11 113.422 1334.86 114.479 1334.36 115.375C1333.85 116.271 1333.15 116.957 1332.26 117.433C1331.36 117.909 1330.35 118.147 1329.23 118.147C1328.11 118.147 1327.1 117.909 1326.21 117.433C1325.33 116.957 1324.63 116.271 1324.11 115.375C1323.6 114.465 1323.35 113.408 1323.35 112.204C1323.35 111 1323.6 109.95 1324.11 109.054C1324.63 108.158 1325.33 107.472 1326.21 106.996C1327.1 106.52 1328.11 106.282 1329.23 106.282ZM1329.23 108.361C1328.62 108.361 1328.05 108.501 1327.53 108.781C1327.01 109.061 1326.59 109.495 1326.27 110.083C1325.96 110.657 1325.81 111.364 1325.81 112.204C1325.81 113.058 1325.96 113.772 1326.27 114.346C1326.59 114.92 1327.01 115.347 1327.53 115.627C1328.05 115.907 1328.62 116.047 1329.23 116.047C1329.85 116.047 1330.42 115.907 1330.93 115.627C1331.45 115.347 1331.86 114.92 1332.17 114.346C1332.49 113.772 1332.66 113.058 1332.66 112.204C1332.66 111.364 1332.49 110.657 1332.17 110.083C1331.86 109.495 1331.45 109.061 1330.93 108.781C1330.42 108.501 1329.85 108.361 1329.23 108.361ZM1342.05 106.282C1343.1 106.282 1344 106.541 1344.74 107.059C1345.48 107.577 1346.01 108.263 1346.32 109.117V106.429H1348.71V118.126C1348.71 119.204 1348.49 120.156 1348.04 120.982C1347.61 121.822 1346.98 122.48 1346.15 122.956C1345.32 123.432 1344.34 123.67 1343.21 123.67C1341.59 123.67 1340.27 123.285 1339.26 122.515C1338.27 121.745 1337.64 120.702 1337.39 119.386H1339.77C1339.96 120.072 1340.34 120.604 1340.9 120.982C1341.46 121.374 1342.17 121.57 1343.04 121.57C1343.99 121.57 1344.78 121.276 1345.39 120.688C1346.01 120.1 1346.32 119.246 1346.32 118.126V115.312C1346.01 116.166 1345.48 116.852 1344.74 117.37C1344 117.888 1343.1 118.147 1342.05 118.147C1341.05 118.147 1340.14 117.909 1339.35 117.433C1338.56 116.957 1337.95 116.271 1337.5 115.375C1337.05 114.479 1336.83 113.422 1336.83 112.204C1336.83 111 1337.05 109.95 1337.5 109.054C1337.95 108.158 1338.56 107.472 1339.35 106.996C1340.14 106.52 1341.05 106.282 1342.05 106.282ZM1342.79 108.382C1341.73 108.382 1340.87 108.725 1340.23 109.411C1339.6 110.083 1339.28 111.014 1339.28 112.204C1339.28 113.394 1339.6 114.332 1340.23 115.018C1340.87 115.69 1341.73 116.026 1342.79 116.026C1343.46 116.026 1344.06 115.872 1344.6 115.564C1345.13 115.242 1345.55 114.794 1345.86 114.22C1346.16 113.646 1346.32 112.974 1346.32 112.204C1346.32 111.448 1346.16 110.783 1345.86 110.209C1345.55 109.621 1345.13 109.173 1344.6 108.865C1344.06 108.543 1343.46 108.382 1342.79 108.382ZM1353.98 108.697C1354.37 107.941 1354.93 107.346 1355.66 106.912C1356.39 106.464 1357.23 106.24 1358.18 106.24V108.844H1357.46C1356.41 108.844 1355.57 109.103 1354.92 109.621C1354.29 110.125 1353.98 110.965 1353.98 112.141V118H1351.58V106.429H1353.98V108.697ZM1370.72 111.658C1370.72 112.05 1370.7 112.393 1370.64 112.687H1361.74C1361.78 113.877 1362.11 114.759 1362.72 115.333C1363.34 115.907 1364.1 116.194 1365.01 116.194C1365.81 116.194 1366.48 115.991 1367.03 115.585C1367.59 115.179 1367.93 114.64 1368.06 113.968H1370.62C1370.47 114.78 1370.14 115.501 1369.65 116.131C1369.16 116.761 1368.53 117.258 1367.74 117.622C1366.96 117.972 1366.08 118.147 1365.12 118.147C1364 118.147 1363 117.909 1362.14 117.433C1361.28 116.957 1360.61 116.271 1360.12 115.375C1359.63 114.479 1359.38 113.422 1359.38 112.204C1359.38 111 1359.63 109.95 1360.12 109.054C1360.61 108.158 1361.28 107.472 1362.14 106.996C1363 106.52 1364 106.282 1365.12 106.282C1366.25 106.282 1367.24 106.52 1368.08 106.996C1368.93 107.458 1369.58 108.102 1370.03 108.928C1370.49 109.74 1370.72 110.65 1370.72 111.658ZM1368.31 111.595C1368.34 110.839 1368.2 110.209 1367.91 109.705C1367.63 109.187 1367.24 108.809 1366.73 108.571C1366.24 108.319 1365.71 108.193 1365.12 108.193C1364.18 108.193 1363.4 108.48 1362.77 109.054C1362.14 109.628 1361.79 110.475 1361.74 111.595H1368.31ZM1376.84 106.282C1378.19 106.282 1379.28 106.632 1380.09 107.332C1380.92 108.018 1381.42 108.942 1381.6 110.104H1379.34C1379.24 109.474 1378.96 108.97 1378.52 108.592C1378.08 108.2 1377.5 108.004 1376.77 108.004C1376.17 108.004 1375.7 108.151 1375.37 108.445C1375.04 108.725 1374.88 109.11 1374.88 109.6C1374.88 109.964 1375 110.258 1375.24 110.482C1375.48 110.706 1375.77 110.881 1376.12 111.007C1376.49 111.133 1377 111.273 1377.66 111.427C1378.52 111.623 1379.22 111.826 1379.76 112.036C1380.3 112.246 1380.76 112.582 1381.14 113.044C1381.53 113.492 1381.73 114.108 1381.73 114.892C1381.73 115.858 1381.36 116.642 1380.62 117.244C1379.89 117.846 1378.9 118.147 1377.66 118.147C1376.21 118.147 1375.04 117.811 1374.15 117.139C1373.27 116.467 1372.73 115.529 1372.55 114.325H1374.88C1374.95 114.955 1375.23 115.466 1375.72 115.858C1376.21 116.25 1376.86 116.446 1377.66 116.446C1378.23 116.446 1378.68 116.299 1379 116.005C1379.34 115.697 1379.5 115.312 1379.5 114.85C1379.5 114.444 1379.38 114.122 1379.13 113.884C1378.87 113.646 1378.56 113.464 1378.18 113.338C1377.8 113.198 1377.28 113.058 1376.63 112.918C1375.79 112.722 1375.1 112.526 1374.57 112.33C1374.05 112.134 1373.6 111.819 1373.22 111.385C1372.86 110.937 1372.68 110.335 1372.68 109.579C1372.68 108.599 1373.04 107.808 1373.77 107.206C1374.51 106.59 1375.53 106.282 1376.84 106.282ZM1387.93 106.282C1389.29 106.282 1390.37 106.632 1391.19 107.332C1392.01 108.018 1392.52 108.942 1392.7 110.104H1390.43C1390.33 109.474 1390.06 108.97 1389.61 108.592C1389.18 108.2 1388.6 108.004 1387.87 108.004C1387.27 108.004 1386.8 108.151 1386.46 108.445C1386.14 108.725 1385.98 109.11 1385.98 109.6C1385.98 109.964 1386.1 110.258 1386.34 110.482C1386.57 110.706 1386.87 110.881 1387.22 111.007C1387.58 111.133 1388.09 111.273 1388.75 111.427C1389.62 111.623 1390.32 111.826 1390.85 112.036C1391.4 112.246 1391.86 112.582 1392.24 113.044C1392.63 113.492 1392.82 114.108 1392.82 114.892C1392.82 115.858 1392.45 116.642 1391.71 117.244C1390.98 117.846 1390 118.147 1388.75 118.147C1387.31 118.147 1386.14 117.811 1385.24 117.139C1384.36 116.467 1383.83 115.529 1383.65 114.325H1385.98C1386.05 114.955 1386.33 115.466 1386.82 115.858C1387.31 116.25 1387.95 116.446 1388.75 116.446C1389.32 116.446 1389.77 116.299 1390.09 116.005C1390.43 115.697 1390.6 115.312 1390.6 114.85C1390.6 114.444 1390.47 114.122 1390.22 113.884C1389.97 113.646 1389.65 113.464 1389.28 113.338C1388.9 113.198 1388.38 113.058 1387.72 112.918C1386.88 112.722 1386.2 112.526 1385.66 112.33C1385.15 112.134 1384.7 111.819 1384.32 111.385C1383.96 110.937 1383.77 110.335 1383.77 109.579C1383.77 108.599 1384.14 107.808 1384.87 107.206C1385.61 106.59 1386.63 106.282 1387.93 106.282Z" fill="#303030"/>
<path d="M166.342 132.706C166.342 133.306 166.198 133.864 165.91 134.38C165.622 134.896 165.184 135.316 164.596 135.64C164.008 135.964 163.282 136.126 162.418 136.126C161.578 136.126 160.828 135.976 160.168 135.676C159.52 135.364 158.998 134.944 158.602 134.416C158.218 133.876 157.996 133.264 157.936 132.58H159.682C159.718 132.94 159.838 133.294 160.042 133.642C160.258 133.978 160.558 134.26 160.942 134.488C161.338 134.704 161.812 134.812 162.364 134.812C163.084 134.812 163.636 134.62 164.02 134.236C164.404 133.852 164.596 133.36 164.596 132.76C164.596 132.244 164.458 131.824 164.182 131.5C163.918 131.176 163.588 130.924 163.192 130.744C162.796 130.552 162.256 130.348 161.572 130.132C160.768 129.868 160.12 129.622 159.628 129.394C159.148 129.154 158.734 128.8 158.386 128.332C158.05 127.864 157.882 127.246 157.882 126.478C157.882 125.818 158.038 125.236 158.35 124.732C158.674 124.228 159.13 123.838 159.718 123.562C160.318 123.286 161.02 123.148 161.824 123.148C163.072 123.148 164.062 123.454 164.794 124.066C165.526 124.666 165.952 125.434 166.072 126.37H164.308C164.212 125.866 163.954 125.422 163.534 125.038C163.114 124.654 162.544 124.462 161.824 124.462C161.164 124.462 160.636 124.636 160.24 124.984C159.844 125.32 159.646 125.8 159.646 126.424C159.646 126.916 159.772 127.318 160.024 127.63C160.288 127.93 160.612 128.17 160.996 128.35C161.38 128.518 161.908 128.71 162.58 128.926C163.396 129.19 164.05 129.442 164.542 129.682C165.046 129.922 165.472 130.288 165.82 130.78C166.168 131.26 166.342 131.902 166.342 132.706ZM172.918 125.992C174.178 125.992 175.222 126.328 176.05 127C176.878 127.672 177.388 128.572 177.58 129.7H175.852C175.732 128.992 175.402 128.44 174.862 128.044C174.334 127.636 173.674 127.432 172.882 127.432C172.306 127.432 171.778 127.564 171.298 127.828C170.83 128.092 170.452 128.5 170.164 129.052C169.876 129.592 169.732 130.264 169.732 131.068C169.732 131.872 169.876 132.55 170.164 133.102C170.452 133.642 170.83 134.044 171.298 134.308C171.778 134.572 172.306 134.704 172.882 134.704C173.674 134.704 174.334 134.5 174.862 134.092C175.402 133.684 175.732 133.126 175.852 132.418H177.58C177.388 133.558 176.878 134.464 176.05 135.136C175.222 135.796 174.178 136.126 172.918 136.126C171.97 136.126 171.13 135.922 170.398 135.514C169.666 135.106 169.09 134.524 168.67 133.768C168.262 133 168.058 132.1 168.058 131.068C168.058 130.036 168.262 129.136 168.67 128.368C169.09 127.6 169.666 127.012 170.398 126.604C171.13 126.196 171.97 125.992 172.918 125.992ZM184.926 125.956C186.078 125.956 187.008 126.328 187.716 127.072C188.424 127.804 188.778 128.866 188.778 130.258V136H187.14V130.402C187.14 129.418 186.888 128.662 186.384 128.134C185.88 127.606 185.196 127.342 184.332 127.342C183.432 127.342 182.712 127.636 182.172 128.224C181.632 128.8 181.362 129.646 181.362 130.762V136H179.724V122.68H181.362V128.458C181.614 127.654 182.058 127.036 182.694 126.604C183.342 126.172 184.086 125.956 184.926 125.956ZM200.381 130.51C200.381 130.858 200.357 131.158 200.309 131.41H192.407C192.443 132.538 192.761 133.384 193.361 133.948C193.973 134.512 194.717 134.794 195.593 134.794C196.385 134.794 197.045 134.596 197.573 134.2C198.113 133.792 198.443 133.252 198.563 132.58H200.309C200.189 133.264 199.919 133.876 199.499 134.416C199.091 134.956 198.557 135.376 197.897 135.676C197.237 135.976 196.493 136.126 195.665 136.126C194.717 136.126 193.877 135.922 193.145 135.514C192.413 135.106 191.837 134.524 191.417 133.768C191.009 133 190.805 132.1 190.805 131.068C190.805 130.036 191.009 129.136 191.417 128.368C191.837 127.6 192.413 127.012 193.145 126.604C193.877 126.196 194.717 125.992 195.665 125.992C196.625 125.992 197.459 126.196 198.167 126.604C198.887 127.012 199.433 127.558 199.805 128.242C200.189 128.926 200.381 129.682 200.381 130.51ZM198.725 130.618C198.761 129.886 198.641 129.274 198.365 128.782C198.089 128.29 197.711 127.924 197.231 127.684C196.751 127.444 196.229 127.324 195.665 127.324C194.765 127.324 194.009 127.606 193.397 128.17C192.785 128.722 192.455 129.538 192.407 130.618H198.725ZM206.573 125.992C207.533 125.992 208.343 126.232 209.003 126.712C209.675 127.192 210.143 127.834 210.407 128.638V122.68H212.045V136H210.407V133.48C210.143 134.284 209.675 134.926 209.003 135.406C208.343 135.886 207.533 136.126 206.573 136.126C205.697 136.126 204.917 135.922 204.233 135.514C203.549 135.106 203.009 134.524 202.613 133.768C202.229 133 202.037 132.1 202.037 131.068C202.037 130.036 202.229 129.136 202.613 128.368C203.009 127.6 203.549 127.012 204.233 126.604C204.917 126.196 205.697 125.992 206.573 125.992ZM207.041 127.45C206.033 127.45 205.223 127.774 204.611 128.422C204.011 129.058 203.711 129.94 203.711 131.068C203.711 132.196 204.011 133.084 204.611 133.732C205.223 134.368 206.033 134.686 207.041 134.686C207.689 134.686 208.265 134.536 208.769 134.236C209.285 133.936 209.687 133.516 209.975 132.976C210.263 132.424 210.407 131.788 210.407 131.068C210.407 130.348 210.263 129.712 209.975 129.16C209.687 128.608 209.285 128.188 208.769 127.9C208.265 127.6 207.689 127.45 207.041 127.45ZM223.436 126.118V136H221.798V133.678C221.546 134.482 221.096 135.1 220.448 135.532C219.812 135.952 219.068 136.162 218.216 136.162C217.076 136.162 216.152 135.796 215.444 135.064C214.736 134.32 214.382 133.258 214.382 131.878V126.118H216.02V131.716C216.02 132.7 216.272 133.462 216.776 134.002C217.28 134.53 217.964 134.794 218.828 134.794C219.728 134.794 220.448 134.506 220.988 133.93C221.528 133.342 221.798 132.49 221.798 131.374V126.118H223.436ZM227.698 122.68V136H226.06V122.68H227.698ZM239.422 130.51C239.422 130.858 239.398 131.158 239.35 131.41H231.448C231.484 132.538 231.802 133.384 232.402 133.948C233.014 134.512 233.758 134.794 234.634 134.794C235.426 134.794 236.086 134.596 236.614 134.2C237.154 133.792 237.484 133.252 237.604 132.58H239.35C239.23 133.264 238.96 133.876 238.54 134.416C238.132 134.956 237.598 135.376 236.938 135.676C236.278 135.976 235.534 136.126 234.706 136.126C233.758 136.126 232.918 135.922 232.186 135.514C231.454 135.106 230.878 134.524 230.458 133.768C230.05 133 229.846 132.1 229.846 131.068C229.846 130.036 230.05 129.136 230.458 128.368C230.878 127.6 231.454 127.012 232.186 126.604C232.918 126.196 233.758 125.992 234.706 125.992C235.666 125.992 236.5 126.196 237.208 126.604C237.928 127.012 238.474 127.558 238.846 128.242C239.23 128.926 239.422 129.682 239.422 130.51ZM237.766 130.618C237.802 129.886 237.682 129.274 237.406 128.782C237.13 128.29 236.752 127.924 236.272 127.684C235.792 127.444 235.27 127.324 234.706 127.324C233.806 127.324 233.05 127.606 232.438 128.17C231.826 128.722 231.496 129.538 231.448 130.618H237.766ZM250.727 134.56V136H249.503C248.495 136 247.739 135.76 247.235 135.28C246.743 134.8 246.497 133.996 246.497 132.868V127.54H245.021V126.118H246.497V123.652H248.153V126.118H250.709V127.54H248.153V132.904C248.153 133.54 248.267 133.978 248.495 134.218C248.735 134.446 249.143 134.56 249.719 134.56H250.727ZM257.928 125.956C259.08 125.956 260.01 126.328 260.718 127.072C261.426 127.804 261.78 128.866 261.78 130.258V136H260.142V130.402C260.142 129.418 259.89 128.662 259.386 128.134C258.882 127.606 258.198 127.342 257.334 127.342C256.434 127.342 255.714 127.636 255.174 128.224C254.634 128.8 254.364 129.646 254.364 130.762V136H252.726V122.68H254.364V128.458C254.616 127.654 255.06 127.036 255.696 126.604C256.344 126.172 257.088 125.956 257.928 125.956ZM273.383 130.51C273.383 130.858 273.359 131.158 273.311 131.41H265.409C265.445 132.538 265.763 133.384 266.363 133.948C266.975 134.512 267.719 134.794 268.595 134.794C269.387 134.794 270.047 134.596 270.575 134.2C271.115 133.792 271.445 133.252 271.565 132.58H273.311C273.191 133.264 272.921 133.876 272.501 134.416C272.093 134.956 271.559 135.376 270.899 135.676C270.239 135.976 269.495 136.126 268.667 136.126C267.719 136.126 266.879 135.922 266.147 135.514C265.415 135.106 264.839 134.524 264.419 133.768C264.011 133 263.807 132.1 263.807 131.068C263.807 130.036 264.011 129.136 264.419 128.368C264.839 127.6 265.415 127.012 266.147 126.604C266.879 126.196 267.719 125.992 268.667 125.992C269.627 125.992 270.461 126.196 271.169 126.604C271.889 127.012 272.435 127.558 272.807 128.242C273.191 128.926 273.383 129.682 273.383 130.51ZM271.727 130.618C271.763 129.886 271.643 129.274 271.367 128.782C271.091 128.29 270.713 127.924 270.233 127.684C269.753 127.444 269.231 127.324 268.667 127.324C267.767 127.324 267.011 127.606 266.399 128.17C265.787 128.722 265.457 129.538 265.409 130.618H271.727ZM292.122 125.956C293.274 125.956 294.198 126.328 294.894 127.072C295.602 127.804 295.956 128.866 295.956 130.258V136H294.318V130.402C294.318 129.43 294.078 128.686 293.598 128.17C293.13 127.654 292.482 127.396 291.654 127.396C290.79 127.396 290.094 127.684 289.566 128.26C289.05 128.824 288.792 129.658 288.792 130.762V136H287.154V130.402C287.154 129.43 286.914 128.686 286.434 128.17C285.954 127.654 285.306 127.396 284.49 127.396C283.614 127.396 282.912 127.684 282.384 128.26C281.868 128.824 281.61 129.658 281.61 130.762V136H279.972V126.118H281.61V128.368C281.85 127.588 282.276 126.994 282.888 126.586C283.512 126.166 284.226 125.956 285.03 125.956C285.87 125.956 286.596 126.172 287.208 126.604C287.832 127.024 288.276 127.648 288.54 128.476C288.816 127.672 289.278 127.054 289.926 126.622C290.574 126.178 291.306 125.956 292.122 125.956ZM307.59 130.51C307.59 130.858 307.566 131.158 307.518 131.41H299.616C299.652 132.538 299.97 133.384 300.57 133.948C301.182 134.512 301.926 134.794 302.802 134.794C303.594 134.794 304.254 134.596 304.782 134.2C305.322 133.792 305.652 133.252 305.772 132.58H307.518C307.398 133.264 307.128 133.876 306.708 134.416C306.3 134.956 305.766 135.376 305.106 135.676C304.446 135.976 303.702 136.126 302.874 136.126C301.926 136.126 301.086 135.922 300.354 135.514C299.622 135.106 299.046 134.524 298.626 133.768C298.218 133 298.014 132.1 298.014 131.068C298.014 130.036 298.218 129.136 298.626 128.368C299.046 127.6 299.622 127.012 300.354 126.604C301.086 126.196 301.926 125.992 302.874 125.992C303.834 125.992 304.668 126.196 305.376 126.604C306.096 127.012 306.642 127.558 307.014 128.242C307.398 128.926 307.59 129.682 307.59 130.51ZM305.934 130.618C305.97 129.886 305.85 129.274 305.574 128.782C305.298 128.29 304.92 127.924 304.44 127.684C303.96 127.444 303.438 127.324 302.874 127.324C301.974 127.324 301.218 127.606 300.606 128.17C299.994 128.722 299.664 129.538 299.616 130.618H305.934ZM318.822 130.51C318.822 130.858 318.798 131.158 318.75 131.41H310.848C310.884 132.538 311.202 133.384 311.802 133.948C312.414 134.512 313.158 134.794 314.034 134.794C314.826 134.794 315.486 134.596 316.014 134.2C316.554 133.792 316.884 133.252 317.004 132.58H318.75C318.63 133.264 318.36 133.876 317.94 134.416C317.532 134.956 316.998 135.376 316.338 135.676C315.678 135.976 314.934 136.126 314.106 136.126C313.158 136.126 312.318 135.922 311.586 135.514C310.854 135.106 310.278 134.524 309.858 133.768C309.45 133 309.246 132.1 309.246 131.068C309.246 130.036 309.45 129.136 309.858 128.368C310.278 127.6 310.854 127.012 311.586 126.604C312.318 126.196 313.158 125.992 314.106 125.992C315.066 125.992 315.9 126.196 316.608 126.604C317.328 127.012 317.874 127.558 318.246 128.242C318.63 128.926 318.822 129.682 318.822 130.51ZM317.166 130.618C317.202 129.886 317.082 129.274 316.806 128.782C316.53 128.29 316.152 127.924 315.672 127.684C315.192 127.444 314.67 127.324 314.106 127.324C313.206 127.324 312.45 127.606 311.838 128.17C311.226 128.722 310.896 129.538 310.848 130.618H317.166ZM325.68 134.56V136H324.456C323.448 136 322.692 135.76 322.188 135.28C321.696 134.8 321.45 133.996 321.45 132.868V127.54H319.974V126.118H321.45V123.652H323.106V126.118H325.662V127.54H323.106V132.904C323.106 133.54 323.22 133.978 323.448 134.218C323.688 134.446 324.096 134.56 324.672 134.56H325.68ZM327.391 123.22C327.391 122.92 327.493 122.68 327.697 122.5C327.901 122.308 328.171 122.212 328.507 122.212C328.843 122.212 329.113 122.308 329.317 122.5C329.521 122.68 329.623 122.92 329.623 123.22C329.623 123.52 329.521 123.766 329.317 123.958C329.113 124.138 328.843 124.228 328.507 124.228C328.171 124.228 327.901 124.138 327.697 123.958C327.493 123.766 327.391 123.52 327.391 123.22ZM329.317 126.118V136H327.679V126.118H329.317ZM337.153 125.956C338.305 125.956 339.235 126.328 339.943 127.072C340.651 127.804 341.005 128.866 341.005 130.258V136H339.367V130.402C339.367 129.418 339.115 128.662 338.611 128.134C338.107 127.606 337.423 127.342 336.559 127.342C335.659 127.342 334.939 127.636 334.399 128.224C333.859 128.8 333.589 129.646 333.589 130.762V136H331.951V126.118H333.589V128.458C333.841 127.654 334.285 127.036 334.921 126.604C335.569 126.172 336.313 125.956 337.153 125.956ZM347.567 125.992C348.527 125.992 349.337 126.232 349.997 126.712C350.669 127.192 351.137 127.834 351.401 128.638V126.118H353.039V136.162C353.039 137.074 352.847 137.884 352.463 138.592C352.079 139.3 351.539 139.852 350.843 140.248C350.147 140.644 349.337 140.842 348.413 140.842C347.081 140.842 345.995 140.518 345.155 139.87C344.315 139.234 343.781 138.37 343.553 137.278H345.173C345.365 137.938 345.725 138.454 346.253 138.826C346.793 139.21 347.483 139.402 348.323 139.402C349.211 139.402 349.943 139.114 350.519 138.538C351.107 137.974 351.401 137.182 351.401 136.162V133.48C351.137 134.284 350.669 134.926 349.997 135.406C349.337 135.886 348.527 136.126 347.567 136.126C346.691 136.126 345.911 135.922 345.227 135.514C344.543 135.106 344.003 134.524 343.607 133.768C343.223 133 343.031 132.1 343.031 131.068C343.031 130.036 343.223 129.136 343.607 128.368C344.003 127.6 344.543 127.012 345.227 126.604C345.911 126.196 346.691 125.992 347.567 125.992ZM348.035 127.45C347.027 127.45 346.217 127.774 345.605 128.422C345.005 129.058 344.705 129.94 344.705 131.068C344.705 132.196 345.005 133.084 345.605 133.732C346.217 134.368 347.027 134.686 348.035 134.686C348.683 134.686 349.259 134.536 349.763 134.236C350.279 133.936 350.681 133.516 350.969 132.976C351.257 132.424 351.401 131.788 351.401 131.068C351.401 130.348 351.257 129.712 350.969 129.16C350.681 128.608 350.279 128.188 349.763 127.9C349.259 127.6 348.683 127.45 348.035 127.45ZM373.665 126.118L370.821 136H369.057L366.339 127.954L363.603 136H361.821L359.013 126.118H360.669L362.775 134.434L365.511 126.118H367.221L369.975 134.416L372.099 126.118H373.665ZM374.905 123.22C374.905 122.92 375.007 122.68 375.211 122.5C375.415 122.308 375.685 122.212 376.021 122.212C376.357 122.212 376.627 122.308 376.831 122.5C377.035 122.68 377.137 122.92 377.137 123.22C377.137 123.52 377.035 123.766 376.831 123.958C376.627 124.138 376.357 124.228 376.021 124.228C375.685 124.228 375.415 124.138 375.211 123.958C375.007 123.766 374.905 123.52 374.905 123.22ZM376.831 126.118V136H375.193V126.118H376.831ZM384.18 134.56V136H382.956C381.948 136 381.192 135.76 380.688 135.28C380.196 134.8 379.95 133.996 379.95 132.868V127.54H378.474V126.118H379.95V123.652H381.606V126.118H384.162V127.54H381.606V132.904C381.606 133.54 381.72 133.978 381.948 134.218C382.188 134.446 382.596 134.56 383.172 134.56H384.18ZM391.381 125.956C392.533 125.956 393.463 126.328 394.171 127.072C394.879 127.804 395.233 128.866 395.233 130.258V136H393.595V130.402C393.595 129.418 393.343 128.662 392.839 128.134C392.335 127.606 391.651 127.342 390.787 127.342C389.887 127.342 389.167 127.636 388.627 128.224C388.087 128.8 387.817 129.646 387.817 130.762V136H386.179V122.68H387.817V128.458C388.069 127.654 388.513 127.036 389.149 126.604C389.797 126.172 390.541 125.956 391.381 125.956ZM406.909 134.56V136H405.685C404.677 136 403.921 135.76 403.417 135.28C402.925 134.8 402.679 133.996 402.679 132.868V127.54H401.203V126.118H402.679V123.652H404.335V126.118H406.891V127.54H404.335V132.904C404.335 133.54 404.449 133.978 404.677 134.218C404.917 134.446 405.325 134.56 405.901 134.56H406.909ZM417.998 130.51C417.998 130.858 417.974 131.158 417.926 131.41H410.024C410.06 132.538 410.378 133.384 410.978 133.948C411.59 134.512 412.334 134.794 413.21 134.794C414.002 134.794 414.662 134.596 415.19 134.2C415.73 133.792 416.06 133.252 416.18 132.58H417.926C417.806 133.264 417.536 133.876 417.116 134.416C416.708 134.956 416.174 135.376 415.514 135.676C414.854 135.976 414.11 136.126 413.282 136.126C412.334 136.126 411.494 135.922 410.762 135.514C410.03 135.106 409.454 134.524 409.034 133.768C408.626 133 408.422 132.1 408.422 131.068C408.422 130.036 408.626 129.136 409.034 128.368C409.454 127.6 410.03 127.012 410.762 126.604C411.494 126.196 412.334 125.992 413.282 125.992C414.242 125.992 415.076 126.196 415.784 126.604C416.504 127.012 417.05 127.558 417.422 128.242C417.806 128.926 417.998 129.682 417.998 130.51ZM416.342 130.618C416.378 129.886 416.258 129.274 415.982 128.782C415.706 128.29 415.328 127.924 414.848 127.684C414.368 127.444 413.846 127.324 413.282 127.324C412.382 127.324 411.626 127.606 411.014 128.17C410.402 128.722 410.072 129.538 410.024 130.618H416.342ZM424.19 125.992C425.15 125.992 425.96 126.232 426.62 126.712C427.292 127.192 427.76 127.834 428.024 128.638V126.118H429.662V136H428.024V133.48C427.76 134.284 427.292 134.926 426.62 135.406C425.96 135.886 425.15 136.126 424.19 136.126C423.314 136.126 422.534 135.922 421.85 135.514C421.166 135.106 420.626 134.524 420.23 133.768C419.846 133 419.654 132.1 419.654 131.068C419.654 130.036 419.846 129.136 420.23 128.368C420.626 127.6 421.166 127.012 421.85 126.604C422.534 126.196 423.314 125.992 424.19 125.992ZM424.658 127.45C423.65 127.45 422.84 127.774 422.228 128.422C421.628 129.058 421.328 129.94 421.328 131.068C421.328 132.196 421.628 133.084 422.228 133.732C422.84 134.368 423.65 134.686 424.658 134.686C425.306 134.686 425.882 134.536 426.386 134.236C426.902 133.936 427.304 133.516 427.592 132.976C427.88 132.424 428.024 131.788 428.024 131.068C428.024 130.348 427.88 129.712 427.592 129.16C427.304 128.608 426.902 128.188 426.386 127.9C425.882 127.6 425.306 127.45 424.658 127.45ZM444.419 125.956C445.571 125.956 446.495 126.328 447.191 127.072C447.899 127.804 448.253 128.866 448.253 130.258V136H446.615V130.402C446.615 129.43 446.375 128.686 445.895 128.17C445.427 127.654 444.779 127.396 443.951 127.396C443.087 127.396 442.391 127.684 441.863 128.26C441.347 128.824 441.089 129.658 441.089 130.762V136H439.451V130.402C439.451 129.43 439.211 128.686 438.731 128.17C438.251 127.654 437.603 127.396 436.787 127.396C435.911 127.396 435.209 127.684 434.681 128.26C434.165 128.824 433.907 129.658 433.907 130.762V136H432.269V126.118H433.907V128.368C434.147 127.588 434.573 126.994 435.185 126.586C435.809 126.166 436.523 125.956 437.327 125.956C438.167 125.956 438.893 126.172 439.505 126.604C440.129 127.024 440.573 127.648 440.837 128.476C441.113 127.672 441.575 127.054 442.223 126.622C442.871 126.178 443.603 125.956 444.419 125.956Z" fill="#303030"/>
<path d="M983.279 102.796C984.231 102.796 985.05 102.964 985.736 103.3C986.422 103.636 986.94 104.098 987.29 104.686C987.64 105.274 987.815 105.939 987.815 106.681C987.815 107.605 987.542 108.382 986.996 109.012C986.464 109.642 985.68 110.02 984.644 110.146V110.272C985.722 110.552 986.562 110.986 987.164 111.574C987.78 112.162 988.088 112.974 988.088 114.01C988.088 115.228 987.682 116.222 986.87 116.992C986.058 117.762 984.889 118.147 983.363 118.147C981.837 118.147 980.598 117.755 979.646 116.971C978.708 116.173 978.155 115.011 977.987 113.485H979.877C980.003 114.409 980.353 115.144 980.927 115.69C981.515 116.236 982.306 116.509 983.3 116.509C984.238 116.509 984.959 116.271 985.463 115.795C985.967 115.305 986.219 114.675 986.219 113.905C986.219 112.981 985.855 112.281 985.127 111.805C984.413 111.315 983.391 111.07 982.061 111.07H981.557V109.474H982.061C984.637 109.474 985.925 108.613 985.925 106.891C985.925 106.135 985.687 105.533 985.211 105.085C984.735 104.637 984.077 104.413 983.237 104.413C982.397 104.413 981.69 104.658 981.116 105.148C980.542 105.624 980.206 106.331 980.108 107.269H978.239C978.337 105.869 978.82 104.777 979.688 103.993C980.57 103.195 981.767 102.796 983.279 102.796ZM1000.81 106.324C1001.93 106.324 1002.88 106.604 1003.65 107.164C1004.43 107.724 1004.98 108.473 1005.29 109.411V102.46H1007.2V118H1005.29V115.06C1004.98 115.998 1004.43 116.747 1003.65 117.307C1002.88 117.867 1001.93 118.147 1000.81 118.147C999.791 118.147 998.881 117.909 998.083 117.433C997.285 116.957 996.655 116.278 996.193 115.396C995.745 114.5 995.521 113.45 995.521 112.246C995.521 111.042 995.745 109.992 996.193 109.096C996.655 108.2 997.285 107.514 998.083 107.038C998.881 106.562 999.791 106.324 1000.81 106.324ZM1001.36 108.025C1000.18 108.025 999.238 108.403 998.524 109.159C997.824 109.901 997.474 110.93 997.474 112.246C997.474 113.562 997.824 114.598 998.524 115.354C999.238 116.096 1000.18 116.467 1001.36 116.467C1002.11 116.467 1002.79 116.292 1003.37 115.942C1003.98 115.592 1004.45 115.102 1004.78 114.472C1005.12 113.828 1005.29 113.086 1005.29 112.246C1005.29 111.406 1005.12 110.664 1004.78 110.02C1004.45 109.376 1003.98 108.886 1003.37 108.55C1002.79 108.2 1002.11 108.025 1001.36 108.025ZM1014.96 106.324C1016.08 106.324 1017.03 106.604 1017.8 107.164C1018.58 107.724 1019.13 108.473 1019.44 109.411V106.471H1021.35V118H1019.44V115.06C1019.13 115.998 1018.58 116.747 1017.8 117.307C1017.03 117.867 1016.08 118.147 1014.96 118.147C1013.94 118.147 1013.03 117.909 1012.23 117.433C1011.44 116.957 1010.81 116.278 1010.34 115.396C1009.9 114.5 1009.67 113.45 1009.67 112.246C1009.67 111.042 1009.9 109.992 1010.34 109.096C1010.81 108.2 1011.44 107.514 1012.23 107.038C1013.03 106.562 1013.94 106.324 1014.96 106.324ZM1015.51 108.025C1014.33 108.025 1013.39 108.403 1012.67 109.159C1011.97 109.901 1011.62 110.93 1011.62 112.246C1011.62 113.562 1011.97 114.598 1012.67 115.354C1013.39 116.096 1014.33 116.467 1015.51 116.467C1016.27 116.467 1016.94 116.292 1017.53 115.942C1018.13 115.592 1018.6 115.102 1018.93 114.472C1019.27 113.828 1019.44 113.086 1019.44 112.246C1019.44 111.406 1019.27 110.664 1018.93 110.02C1018.6 109.376 1018.13 108.886 1017.53 108.55C1016.94 108.2 1016.27 108.025 1015.51 108.025ZM1025.19 106.471L1028.92 115.543L1032.39 106.471H1034.51L1027.66 123.46H1025.5L1027.9 117.811L1023.04 106.471H1025.19ZM1039.87 106.324C1041.18 106.324 1042.22 106.667 1043 107.353C1043.8 108.025 1044.28 108.935 1044.45 110.083H1042.63C1042.54 109.397 1042.25 108.837 1041.76 108.403C1041.29 107.955 1040.64 107.731 1039.83 107.731C1039.15 107.731 1038.61 107.899 1038.22 108.235C1037.84 108.557 1037.65 108.998 1037.65 109.558C1037.65 109.978 1037.77 110.321 1038.03 110.587C1038.29 110.839 1038.61 111.035 1038.99 111.175C1039.38 111.301 1039.92 111.441 1040.59 111.595C1041.44 111.791 1042.13 111.994 1042.65 112.204C1043.18 112.4 1043.63 112.722 1043.99 113.17C1044.37 113.618 1044.56 114.22 1044.56 114.976C1044.56 115.914 1044.2 116.677 1043.49 117.265C1042.79 117.853 1041.85 118.147 1040.67 118.147C1039.3 118.147 1038.18 117.818 1037.31 117.16C1036.44 116.502 1035.93 115.585 1035.78 114.409H1037.63C1037.7 115.109 1038 115.676 1038.53 116.11C1039.08 116.544 1039.79 116.761 1040.67 116.761C1041.33 116.761 1041.84 116.593 1042.21 116.257C1042.58 115.921 1042.77 115.48 1042.77 114.934C1042.77 114.486 1042.64 114.129 1042.37 113.863C1042.11 113.597 1041.78 113.394 1041.39 113.254C1040.99 113.114 1040.46 112.967 1039.77 112.813C1038.92 112.617 1038.23 112.421 1037.71 112.225C1037.21 112.029 1036.77 111.721 1036.41 111.301C1036.06 110.867 1035.88 110.286 1035.88 109.558C1035.88 108.592 1036.24 107.815 1036.96 107.227C1037.67 106.625 1038.64 106.324 1039.87 106.324ZM1057.8 116.32V118H1056.37C1055.2 118 1054.32 117.72 1053.73 117.16C1053.15 116.6 1052.87 115.662 1052.87 114.346V108.13H1051.14V106.471H1052.87V103.594H1054.8V106.471H1057.78V108.13H1054.8V114.388C1054.8 115.13 1054.93 115.641 1055.2 115.921C1055.48 116.187 1055.95 116.32 1056.63 116.32H1057.8ZM1065.36 106.324C1066.47 106.324 1067.46 106.562 1068.32 107.038C1069.21 107.514 1069.89 108.2 1070.38 109.096C1070.89 109.992 1071.14 111.042 1071.14 112.246C1071.14 113.45 1070.89 114.5 1070.38 115.396C1069.89 116.278 1069.21 116.957 1068.32 117.433C1067.46 117.909 1066.47 118.147 1065.36 118.147C1064.26 118.147 1063.26 117.909 1062.38 117.433C1061.51 116.957 1060.83 116.278 1060.32 115.396C1059.82 114.5 1059.57 113.45 1059.57 112.246C1059.57 111.042 1059.82 109.992 1060.32 109.096C1060.83 108.2 1061.51 107.514 1062.38 107.038C1063.26 106.562 1064.26 106.324 1065.36 106.324ZM1065.36 108.004C1064.68 108.004 1064.04 108.158 1063.45 108.466C1062.88 108.774 1062.41 109.25 1062.04 109.894C1061.69 110.524 1061.52 111.308 1061.52 112.246C1061.52 113.17 1061.69 113.954 1062.04 114.598C1062.41 115.228 1062.88 115.697 1063.45 116.005C1064.04 116.313 1064.68 116.467 1065.36 116.467C1066.05 116.467 1066.68 116.313 1067.25 116.005C1067.84 115.697 1068.31 115.228 1068.66 114.598C1069.02 113.954 1069.21 113.17 1069.21 112.246C1069.21 111.308 1069.02 110.524 1068.66 109.894C1068.31 109.25 1067.84 108.774 1067.25 108.466C1066.68 108.158 1066.05 108.004 1065.36 108.004ZM1083.54 106.324C1084.66 106.324 1085.61 106.604 1086.38 107.164C1087.16 107.724 1087.71 108.473 1088.01 109.411V102.46H1089.93V118H1088.01V115.06C1087.71 115.998 1087.16 116.747 1086.38 117.307C1085.61 117.867 1084.66 118.147 1083.54 118.147C1082.52 118.147 1081.61 117.909 1080.81 117.433C1080.01 116.957 1079.38 116.278 1078.92 115.396C1078.47 114.5 1078.25 113.45 1078.25 112.246C1078.25 111.042 1078.47 109.992 1078.92 109.096C1079.38 108.2 1080.01 107.514 1080.81 107.038C1081.61 106.562 1082.52 106.324 1083.54 106.324ZM1084.09 108.025C1082.91 108.025 1081.97 108.403 1081.25 109.159C1080.55 109.901 1080.2 110.93 1080.2 112.246C1080.2 113.562 1080.55 114.598 1081.25 115.354C1081.97 116.096 1082.91 116.467 1084.09 116.467C1084.84 116.467 1085.52 116.292 1086.1 115.942C1086.71 115.592 1087.17 115.102 1087.51 114.472C1087.85 113.828 1088.01 113.086 1088.01 112.246C1088.01 111.406 1087.85 110.664 1087.51 110.02C1087.17 109.376 1086.71 108.886 1086.1 108.55C1085.52 108.2 1084.84 108.025 1084.09 108.025ZM1103.57 111.595C1103.57 112.001 1103.54 112.351 1103.49 112.645H1094.27C1094.31 113.961 1094.68 114.948 1095.38 115.606C1096.1 116.264 1096.96 116.593 1097.99 116.593C1098.91 116.593 1099.68 116.362 1100.3 115.9C1100.93 115.424 1101.31 114.794 1101.45 114.01H1103.49C1103.35 114.808 1103.03 115.522 1102.54 116.152C1102.07 116.782 1101.44 117.272 1100.67 117.622C1099.9 117.972 1099.04 118.147 1098.07 118.147C1096.96 118.147 1095.98 117.909 1095.13 117.433C1094.28 116.957 1093.6 116.278 1093.11 115.396C1092.64 114.5 1092.4 113.45 1092.4 112.246C1092.4 111.042 1092.64 109.992 1093.11 109.096C1093.6 108.2 1094.28 107.514 1095.13 107.038C1095.98 106.562 1096.96 106.324 1098.07 106.324C1099.19 106.324 1100.16 106.562 1100.99 107.038C1101.83 107.514 1102.47 108.151 1102.9 108.949C1103.35 109.747 1103.57 110.629 1103.57 111.595ZM1101.64 111.721C1101.68 110.867 1101.54 110.153 1101.22 109.579C1100.9 109.005 1100.46 108.578 1099.9 108.298C1099.34 108.018 1098.73 107.878 1098.07 107.878C1097.02 107.878 1096.14 108.207 1095.42 108.865C1094.71 109.509 1094.32 110.461 1094.27 111.721H1101.64ZM1110.8 106.324C1111.92 106.324 1112.86 106.604 1113.63 107.164C1114.42 107.724 1114.96 108.473 1115.27 109.411V106.471H1117.18V118H1115.27V115.06C1114.96 115.998 1114.42 116.747 1113.63 117.307C1112.86 117.867 1111.92 118.147 1110.8 118.147C1109.77 118.147 1108.86 117.909 1108.07 117.433C1107.27 116.957 1106.64 116.278 1106.18 115.396C1105.73 114.5 1105.5 113.45 1105.5 112.246C1105.5 111.042 1105.73 109.992 1106.18 109.096C1106.64 108.2 1107.27 107.514 1108.07 107.038C1108.86 106.562 1109.77 106.324 1110.8 106.324ZM1111.34 108.025C1110.17 108.025 1109.22 108.403 1108.51 109.159C1107.81 109.901 1107.46 110.93 1107.46 112.246C1107.46 113.562 1107.81 114.598 1108.51 115.354C1109.22 116.096 1110.17 116.467 1111.34 116.467C1112.1 116.467 1112.77 116.292 1113.36 115.942C1113.96 115.592 1114.43 115.102 1114.77 114.472C1115.1 113.828 1115.27 113.086 1115.27 112.246C1115.27 111.406 1115.1 110.664 1114.77 110.02C1114.43 109.376 1113.96 108.886 1113.36 108.55C1112.77 108.2 1112.1 108.025 1111.34 108.025ZM1124.95 106.324C1126.07 106.324 1127.01 106.604 1127.78 107.164C1128.57 107.724 1129.11 108.473 1129.42 109.411V102.46H1131.33V118H1129.42V115.06C1129.11 115.998 1128.57 116.747 1127.78 117.307C1127.01 117.867 1126.07 118.147 1124.95 118.147C1123.92 118.147 1123.01 117.909 1122.22 117.433C1121.42 116.957 1120.79 116.278 1120.33 115.396C1119.88 114.5 1119.65 113.45 1119.65 112.246C1119.65 111.042 1119.88 109.992 1120.33 109.096C1120.79 108.2 1121.42 107.514 1122.22 107.038C1123.01 106.562 1123.92 106.324 1124.95 106.324ZM1125.49 108.025C1124.32 108.025 1123.37 108.403 1122.66 109.159C1121.96 109.901 1121.61 110.93 1121.61 112.246C1121.61 113.562 1121.96 114.598 1122.66 115.354C1123.37 116.096 1124.32 116.467 1125.49 116.467C1126.25 116.467 1126.92 116.292 1127.51 115.942C1128.11 115.592 1128.58 115.102 1128.92 114.472C1129.25 113.828 1129.42 113.086 1129.42 112.246C1129.42 111.406 1129.25 110.664 1128.92 110.02C1128.58 109.376 1128.11 108.886 1127.51 108.55C1126.92 108.2 1126.25 108.025 1125.49 108.025ZM1136.28 102.46V118H1134.37V102.46H1136.28ZM1139.02 103.09C1139.02 102.74 1139.14 102.46 1139.38 102.25C1139.61 102.026 1139.93 101.914 1140.32 101.914C1140.71 101.914 1141.03 102.026 1141.27 102.25C1141.5 102.46 1141.62 102.74 1141.62 103.09C1141.62 103.44 1141.5 103.727 1141.27 103.951C1141.03 104.161 1140.71 104.266 1140.32 104.266C1139.93 104.266 1139.61 104.161 1139.38 103.951C1139.14 103.727 1139.02 103.44 1139.02 103.09ZM1141.27 106.471V118H1139.36V106.471H1141.27ZM1150.41 106.282C1151.75 106.282 1152.84 106.716 1153.66 107.584C1154.49 108.438 1154.9 109.677 1154.9 111.301V118H1152.99V111.469C1152.99 110.321 1152.7 109.439 1152.11 108.823C1151.52 108.207 1150.72 107.899 1149.71 107.899C1148.66 107.899 1147.82 108.242 1147.19 108.928C1146.56 109.6 1146.25 110.587 1146.25 111.889V118H1144.34V106.471H1146.25V109.201C1146.54 108.263 1147.06 107.542 1147.8 107.038C1148.56 106.534 1149.43 106.282 1150.41 106.282ZM1168.44 111.595C1168.44 112.001 1168.41 112.351 1168.35 112.645H1159.13C1159.18 113.961 1159.55 114.948 1160.25 115.606C1160.96 116.264 1161.83 116.593 1162.85 116.593C1163.78 116.593 1164.55 116.362 1165.16 115.9C1165.79 115.424 1166.18 114.794 1166.32 114.01H1168.35C1168.21 114.808 1167.9 115.522 1167.41 116.152C1166.93 116.782 1166.31 117.272 1165.54 117.622C1164.77 117.972 1163.9 118.147 1162.94 118.147C1161.83 118.147 1160.85 117.909 1160 117.433C1159.14 116.957 1158.47 116.278 1157.98 115.396C1157.5 114.5 1157.27 113.45 1157.27 112.246C1157.27 111.042 1157.5 109.992 1157.98 109.096C1158.47 108.2 1159.14 107.514 1160 107.038C1160.85 106.562 1161.83 106.324 1162.94 106.324C1164.06 106.324 1165.03 106.562 1165.85 107.038C1166.69 107.514 1167.33 108.151 1167.77 108.949C1168.21 109.747 1168.44 110.629 1168.44 111.595ZM1166.51 111.721C1166.55 110.867 1166.41 110.153 1166.09 109.579C1165.76 109.005 1165.32 108.578 1164.76 108.298C1164.2 108.018 1163.59 107.878 1162.94 107.878C1161.89 107.878 1161 108.207 1160.29 108.865C1159.58 109.509 1159.19 110.461 1159.13 111.721H1166.51Z" fill="#303030"/>
<g clip-path="url(#clip0)">
<path d="M1418.14 109.05V116.072L1424.93 109.05H1418.14ZM1411.12 109.05L1418.14 116.072V109.05H1411.12Z" fill="#303030" stroke="#C3C3C3" stroke-width="0.1"/>
</g>
<path d="M1565.36 121.444C1565.36 122.85 1566.58 124 1568.07 124H1578.93C1580.42 124 1581.64 122.85 1581.64 121.444V106.111H1565.36V121.444ZM1583 102.278H1578.25L1576.89 101H1570.11L1568.75 102.278H1564V104.833H1583V102.278Z" fill="black" fill-opacity="0.22"/>
<path d="M1524 119.209V124H1528.79L1542.92 109.87L1538.13 105.079L1524 119.209ZM1546.63 106.165C1547.12 105.666 1547.12 104.862 1546.63 104.363L1543.64 101.374C1543.14 100.875 1542.33 100.875 1541.84 101.374L1539.5 103.712L1544.29 108.503L1546.63 106.165Z" fill="black" fill-opacity="0.18"/>
<path d="M104.5 142C124.106 142 140 126.33 140 107C140 87.67 124.106 72 104.5 72C84.8939 72 69 87.67 69 107C69 126.33 84.8939 142 104.5 142Z" fill="#DCE0EC"/>
<g clip-path="url(#clip1)">
<path d="M103.977 115.042C103.886 115.042 103.8 115.006 103.736 114.942C103.673 114.877 103.637 114.79 103.637 114.699V92.262C103.637 92.1709 103.673 92.0836 103.736 92.0192C103.8 91.9549 103.886 91.9187 103.977 91.9187C104.067 91.9187 104.153 91.9549 104.217 92.0192C104.281 92.0836 104.316 92.1709 104.316 92.262V114.699C104.316 114.79 104.281 114.877 104.217 114.942C104.153 115.006 104.067 115.042 103.977 115.042Z" fill="#007B7A"/>
<path d="M113.465 114.198L113.105 115.571L113.037 115.825L112.71 117.04L112.642 117.301L109.421 129.371L109.346 129.625L109.027 130.84L108.959 131.101L108.531 132.694C105.508 133.102 102.446 133.102 99.4235 132.694L99.0021 131.101L98.9341 130.84L98.6079 129.625L98.5399 129.371L95.3185 117.301L95.2437 117.04L94.9243 115.825L94.8563 115.571L94.4961 114.198H113.465Z" fill="#FF5177"/>
<path d="M113.104 115.543L113.036 115.797H94.9234L94.8555 115.543H113.104Z" fill="#DA234F"/>
<path d="M112.713 117.012L112.645 117.273H95.3209L95.2461 117.012H112.713Z" fill="#DA234F"/>
<path d="M109.42 129.343L109.345 129.597H98.607L98.5391 129.343H109.42Z" fill="#DA234F"/>
<path d="M109.026 130.812L108.958 131.073H99.0016L98.9336 130.812H109.026Z" fill="#DA234F"/>
<path d="M105.193 97.1571C105.066 97.1904 104.933 97.1972 104.803 97.1769C104.673 97.1565 104.549 97.1095 104.437 97.0388C104.326 96.9681 104.23 96.8751 104.155 96.7655C104.081 96.656 104.029 96.5322 104.004 96.4018C103.994 96.3313 103.994 96.2596 104.004 96.189C104.005 95.9575 104.087 95.7338 104.235 95.5574C105.533 93.9714 112.112 86.2819 115.197 89.495C118.895 93.3672 108.795 96.2783 105.193 97.1571Z" fill="#00C5BB"/>
<path d="M111.011 92.6807L104.16 96.8001C104.084 96.6886 104.03 96.5624 104.004 96.4294L110.8 92.3649C110.823 92.3496 110.848 92.339 110.874 92.3339C110.901 92.3288 110.928 92.3292 110.954 92.335C110.981 92.3409 111.006 92.3521 111.028 92.3681C111.049 92.384 111.068 92.4043 111.082 92.4277C111.096 92.451 111.105 92.477 111.108 92.5041C111.112 92.5311 111.11 92.5586 111.103 92.5848C111.096 92.6111 111.083 92.6356 111.066 92.6568C111.049 92.678 111.028 92.6955 111.004 92.7082L111.011 92.6807Z" fill="#009C97"/>
<path d="M103.978 99.9927C103.985 100.063 103.985 100.135 103.978 100.206C103.949 100.339 103.894 100.465 103.815 100.576C103.701 100.738 103.542 100.862 103.357 100.931C103.173 100.999 102.972 101.01 102.782 100.961C99.1865 100.082 89.0872 97.1847 92.8116 93.2987C95.8903 90.0856 102.469 97.7751 103.774 99.3611C103.91 99.5426 103.982 99.765 103.978 99.9927Z" fill="#00C5BB"/>
<path d="M103.956 100.233C103.927 100.366 103.871 100.493 103.793 100.604L96.9418 96.4844C96.8979 96.456 96.8664 96.4118 96.8537 96.3607C96.8411 96.3096 96.8483 96.2556 96.8739 96.2097C96.8865 96.1864 96.9037 96.1659 96.9245 96.1496C96.9454 96.1333 96.9693 96.1216 96.9949 96.1151C97.0204 96.1087 97.047 96.1076 97.073 96.1121C97.099 96.1166 97.1237 96.1264 97.1457 96.1411L103.956 100.233Z" fill="#009C97"/>
<path d="M104.719 92.2001C104.694 92.4297 104.59 92.6433 104.427 92.8043C104.375 92.8537 104.318 92.8974 104.257 92.9348C104.143 93.0065 104.016 93.0532 103.883 93.0721C103.688 93.0973 103.491 93.0647 103.315 92.978C103.138 92.8914 102.991 92.7547 102.891 92.5846C101.049 89.344 96.1485 79.9587 101.531 79.9999C105.942 80.0411 104.97 90.1542 104.719 92.2001Z" fill="#00C5BB"/>
<path d="M104.262 92.9347C104.148 93.0064 104.021 93.0532 103.888 93.072L102.094 85.2383C102.084 85.1865 102.093 85.1327 102.121 85.088C102.149 85.0433 102.193 85.0111 102.243 84.998C102.269 84.9919 102.295 84.991 102.321 84.9954C102.347 84.9997 102.371 85.0092 102.394 85.0232C102.416 85.0373 102.435 85.0556 102.45 85.0772C102.465 85.0989 102.476 85.1233 102.481 85.1491L104.262 92.9347Z" fill="#009C97"/>
<path d="M105.193 105.32C105.066 105.354 104.933 105.361 104.803 105.34C104.673 105.32 104.549 105.273 104.437 105.202C104.326 105.131 104.23 105.038 104.155 104.929C104.081 104.819 104.029 104.696 104.004 104.565C103.994 104.495 103.994 104.423 104.004 104.352C104.005 104.121 104.087 103.897 104.235 103.721C105.533 102.135 112.112 94.4452 115.197 97.6583C118.895 101.544 108.795 104.435 105.193 105.32Z" fill="#00C5BB"/>
<path d="M111.011 100.844L104.16 104.963C104.084 104.852 104.03 104.726 104.004 104.593L110.8 100.528C110.823 100.513 110.848 100.502 110.874 100.497C110.901 100.492 110.928 100.492 110.954 100.498C110.981 100.504 111.006 100.515 111.028 100.531C111.049 100.547 111.068 100.568 111.082 100.591C111.096 100.614 111.105 100.64 111.108 100.667C111.112 100.694 111.11 100.722 111.103 100.748C111.096 100.774 111.083 100.799 111.066 100.82C111.049 100.841 111.028 100.859 111.004 100.872L111.011 100.844Z" fill="#009C97"/>
<path d="M103.978 108.156C103.985 108.227 103.985 108.298 103.978 108.369C103.949 108.502 103.894 108.628 103.815 108.739C103.701 108.901 103.542 109.025 103.357 109.094C103.173 109.162 102.972 109.173 102.782 109.124C99.1865 108.245 89.0872 105.348 92.8116 101.462C95.8903 98.2487 102.469 105.938 103.774 107.524C103.91 107.706 103.982 107.928 103.978 108.156Z" fill="#00C5BB"/>
<path d="M103.958 108.369C103.929 108.502 103.873 108.628 103.795 108.739L96.9439 104.62C96.907 104.589 96.8822 104.545 96.874 104.497C96.8659 104.449 96.8748 104.4 96.8992 104.358C96.9237 104.316 96.9621 104.284 97.0076 104.268C97.0531 104.252 97.1027 104.253 97.1478 104.27L103.958 108.369Z" fill="#009C97"/>
<path d="M105.193 113.01C105.066 113.043 104.933 113.05 104.803 113.03C104.673 113.009 104.549 112.962 104.437 112.892C104.326 112.821 104.23 112.728 104.155 112.618C104.081 112.509 104.029 112.385 104.004 112.255C103.994 112.184 103.994 112.112 104.004 112.042C104.005 111.81 104.087 111.587 104.235 111.41C105.533 109.824 112.112 102.135 115.197 105.348C118.895 109.234 108.795 112.124 105.193 113.01Z" fill="#00C5BB"/>
<path d="M111.011 108.527L104.16 112.646C104.084 112.535 104.03 112.408 104.004 112.275L110.8 108.211C110.822 108.196 110.847 108.186 110.873 108.182C110.899 108.177 110.926 108.178 110.951 108.185C110.977 108.191 111.001 108.203 111.021 108.219C111.042 108.236 111.06 108.256 111.072 108.28C111.095 108.321 111.102 108.369 111.09 108.415C111.079 108.461 111.05 108.501 111.011 108.527Z" fill="#009C97"/>
</g>
<defs>
<filter id="filter0_d" x="0" y="0" width="1704" height="218" filterUnits="userSpaceOnUse" color-interpolation-filters="sRGB">
<feFlood flood-opacity="0" result="BackgroundImageFix"/>
<feColorMatrix in="SourceAlpha" type="matrix" values="0 0 0 0 0 0 0 0 0 0 0 0 0 0 0 0 0 0 127 0"/>
<feOffset/>
<feGaussianBlur stdDeviation="25"/>
<feColorMatrix type="matrix" values="0 0 0 0 0.501961 0 0 0 0 0.501961 0 0 0 0 0.501961 0 0 0 0.157 0"/>
<feBlend mode="normal" in2="BackgroundImageFix" result="effect1_dropShadow"/>
<feBlend mode="normal" in="SourceGraphic" in2="effect1_dropShadow" result="shape"/>
</filter>
<clipPath id="clip0">
<rect width="14.046" height="7.196" fill="white" transform="translate(1411 109)"/>
</clipPath>
<clipPath id="clip1">
<rect width="24" height="53" fill="white" transform="translate(92 80)"/>
</clipPath>
</defs>
</svg>
