<svg width="1412" height="321" viewBox="0 0 1412 321" fill="none" xmlns="http://www.w3.org/2000/svg">
<line x1="1405" y1="190" x2="1405" y2="319" stroke="#DEE5FF" stroke-width="4" stroke-linecap="round"/>
<line x1="467" y1="186" x2="1410" y2="186" stroke="#DEE5FF" stroke-width="4" stroke-linecap="round"/>
<g filter="url(#filter0_d)">
<path d="M533 3H18C14.6863 3 12 5.44119 12 8.45255V246.547C12 249.559 14.6863 252 18 252H533C536.314 252 539 249.559 539 246.547V8.45255C539 5.44119 536.314 3 533 3Z" fill="white"/>
<path d="M533 3.22705H18C14.8244 3.22705 12.25 5.56653 12.25 8.45242V246.547C12.25 249.433 14.8244 251.773 18 251.773H533C536.176 251.773 538.75 249.433 538.75 246.547V8.45242C538.75 5.56653 536.176 3.22705 533 3.22705Z" stroke="#E8E8E8" stroke-width="0.5" stroke-miterlimit="10"/>
</g>
<path d="M72.75 137H81.2656V137.5C81.2656 137.5 80.6339 137.5 79.75 137.5H72.75V137ZM91.75 137H100.266V137.5C100.266 137.5 99.6339 137.5 98.75 137.5H91.75V137ZM110.75 137H119.266V137.5C119.266 137.5 118.634 137.5 117.75 137.5H110.75V137ZM129.75 137H138.266V137.5C138.266 137.5 137.634 137.5 136.75 137.5H129.75V137ZM148.75 137H157.266V137.5C157.266 137.5 156.634 137.5 155.75 137.5H148.75V137ZM167.75 137H176.266V137.5C176.266 137.5 175.634 137.5 174.75 137.5H167.75V137ZM186.75 137H195.266V137.5C195.266 137.5 194.634 137.5 193.75 137.5H186.75V137ZM205.75 137H214.266V137.5C214.266 137.5 213.634 137.5 212.75 137.5H205.75V137ZM224.75 137H233.266V137.5C233.266 137.5 232.634 137.5 231.75 137.5H224.75V137ZM243.75 137H252.266V137.5C252.266 137.5 251.634 137.5 250.75 137.5H243.75V137ZM262.75 137H271.266V137.5C271.266 137.5 270.634 137.5 269.75 137.5H262.75V137ZM281.75 137H290.266V137.5C290.266 137.5 289.634 137.5 288.75 137.5H281.75V137ZM300.75 137H309.266V137.5C309.266 137.5 308.634 137.5 307.75 137.5H300.75V137ZM319.75 137H328.266V137.5C328.266 137.5 327.634 137.5 326.75 137.5H319.75V137ZM338.75 137H347.266V137.5C347.266 137.5 346.634 137.5 345.75 137.5H338.75V137ZM357.75 137H366.266V137.5C366.266 137.5 365.634 137.5 364.75 137.5H357.75V137ZM376.75 137H385.266V137.5C385.266 137.5 384.634 137.5 383.75 137.5H376.75V137ZM395.75 137H404.266V137.5C404.266 137.5 403.634 137.5 402.75 137.5H395.75V137ZM414.75 137H423.266V137.5C423.266 137.5 422.634 137.5 421.75 137.5H414.75V137ZM471.75 137H480.266V137.5C480.266 137.5 479.634 137.5 478.75 137.5H471.75V137ZM452.75 137H461.266V137.5C461.266 137.5 460.634 137.5 459.75 137.5H452.75V137ZM433.75 137H442.266V137.5C442.266 137.5 441.634 137.5 440.75 137.5H433.75V137Z" fill="#5C659D"/>
<path d="M72.75 173H81.2656V173.5C81.2656 173.5 80.6339 173.5 79.75 173.5H72.75V173ZM91.75 173H100.266V173.5C100.266 173.5 99.6339 173.5 98.75 173.5H91.75V173ZM110.75 173H119.266V173.5C119.266 173.5 118.634 173.5 117.75 173.5H110.75V173ZM129.75 173H138.266V173.5C138.266 173.5 137.634 173.5 136.75 173.5H129.75V173ZM148.75 173H157.266V173.5C157.266 173.5 156.634 173.5 155.75 173.5H148.75V173ZM167.75 173H176.266V173.5C176.266 173.5 175.634 173.5 174.75 173.5H167.75V173ZM186.75 173H195.266V173.5C195.266 173.5 194.634 173.5 193.75 173.5H186.75V173ZM205.75 173H214.266V173.5C214.266 173.5 213.634 173.5 212.75 173.5H205.75V173ZM224.75 173H233.266V173.5C233.266 173.5 232.634 173.5 231.75 173.5H224.75V173ZM243.75 173H252.266V173.5C252.266 173.5 251.634 173.5 250.75 173.5H243.75V173ZM262.75 173H271.266V173.5C271.266 173.5 270.634 173.5 269.75 173.5H262.75V173ZM281.75 173H290.266V173.5C290.266 173.5 289.634 173.5 288.75 173.5H281.75V173ZM300.75 173H309.266V173.5C309.266 173.5 308.634 173.5 307.75 173.5H300.75V173ZM319.75 173H328.266V173.5C328.266 173.5 327.634 173.5 326.75 173.5H319.75V173ZM338.75 173H347.266V173.5C347.266 173.5 346.634 173.5 345.75 173.5H338.75V173ZM357.75 173H366.266V173.5C366.266 173.5 365.634 173.5 364.75 173.5H357.75V173ZM376.75 173H385.266V173.5C385.266 173.5 384.634 173.5 383.75 173.5H376.75V173ZM395.75 173H404.266V173.5C404.266 173.5 403.634 173.5 402.75 173.5H395.75V173ZM414.75 173H423.266V173.5C423.266 173.5 422.634 173.5 421.75 173.5H414.75V173ZM471.75 173H480.266V173.5C480.266 173.5 479.634 173.5 478.75 173.5H471.75V173ZM452.75 173H461.266V173.5C461.266 173.5 460.634 173.5 459.75 173.5H452.75V173ZM433.75 173H442.266V173.5C442.266 173.5 441.634 173.5 440.75 173.5H433.75V173Z" fill="#5C659D"/>
<path d="M74.75 102H85.2656V102.5C85.2656 102.5 83.5051 102.5 81.75 102.5H74.75V102ZM93.75 102H104.266V102.5C104.266 102.5 102.505 102.5 100.75 102.5H93.75V102ZM112.75 102H123.266V102.5C123.266 102.5 121.505 102.5 119.75 102.5H112.75V102ZM131.75 102H142.266V102.5C142.266 102.5 140.505 102.5 138.75 102.5H131.75V102ZM150.75 102H161.266V102.5C161.266 102.5 159.505 102.5 157.75 102.5H150.75V102ZM169.75 102H180.266V102.5C180.266 102.5 178.505 102.5 176.75 102.5H169.75V102ZM188.75 102H199.266V102.5C199.266 102.5 197.505 102.5 195.75 102.5H188.75V102ZM207.75 102H218.266V102.5C218.266 102.5 216.505 102.5 214.75 102.5H207.75V102ZM226.75 102H237.266V102.5C237.266 102.5 235.505 102.5 233.75 102.5H226.75V102ZM245.75 102H256.266V102.5C256.266 102.5 254.505 102.5 252.75 102.5H245.75V102ZM264.75 102H275.266V102.5C275.266 102.5 273.505 102.5 271.75 102.5H264.75V102ZM283.75 102H294.266V102.5C294.266 102.5 292.505 102.5 290.75 102.5H283.75V102ZM302.75 102H313.266V102.5C313.266 102.5 311.505 102.5 309.75 102.5H302.75V102ZM321.75 102H332.266V102.5C332.266 102.5 330.505 102.5 328.75 102.5H321.75V102ZM340.75 102H351.266V102.5C351.266 102.5 349.505 102.5 347.75 102.5H340.75V102ZM359.75 102H370.266V102.5C370.266 102.5 368.505 102.5 366.75 102.5H359.75V102ZM378.75 102H389.266V102.5C389.266 102.5 387.505 102.5 385.75 102.5H378.75V102ZM397.75 102H408.266V102.5C408.266 102.5 406.505 102.5 404.75 102.5H397.75V102ZM416.75 102H427.266V102.5C427.266 102.5 425.505 102.5 423.75 102.5H416.75V102ZM473.75 102H484.266V102.5C484.266 102.5 482.505 102.5 480.75 102.5H473.75V102ZM454.75 102H465.266V102.5C465.266 102.5 463.505 102.5 461.75 102.5H454.75V102ZM435.75 102H446.266V102.5C446.266 102.5 444.505 102.5 442.75 102.5H435.75V102Z" fill="#5C659D"/>
<path d="M71.75 65H82.2656V65.5C82.2656 65.5 80.5051 65.5 78.75 65.5H71.75V65ZM90.75 65H101.266V65.5C101.266 65.5 99.5051 65.5 97.75 65.5H90.75V65ZM109.75 65H120.266V65.5C120.266 65.5 118.505 65.5 116.75 65.5H109.75V65ZM128.75 65H139.266V65.5C139.266 65.5 137.505 65.5 135.75 65.5H128.75V65ZM147.75 65H158.266V65.5C158.266 65.5 156.505 65.5 154.75 65.5H147.75V65ZM166.75 65H177.266V65.5C177.266 65.5 175.505 65.5 173.75 65.5H166.75V65ZM185.75 65H196.266V65.5C196.266 65.5 194.505 65.5 192.75 65.5H185.75V65ZM204.75 65H215.266V65.5C215.266 65.5 213.505 65.5 211.75 65.5H204.75V65ZM223.75 65H234.266V65.5C234.266 65.5 232.505 65.5 230.75 65.5H223.75V65ZM242.75 65H253.266V65.5C253.266 65.5 251.505 65.5 249.75 65.5H242.75V65ZM261.75 65H272.266V65.5C272.266 65.5 270.505 65.5 268.75 65.5H261.75V65ZM280.75 65H291.266V65.5C291.266 65.5 289.505 65.5 287.75 65.5H280.75V65ZM299.75 65H310.266V65.5C310.266 65.5 308.505 65.5 306.75 65.5H299.75V65ZM318.75 65H329.266V65.5C329.266 65.5 327.505 65.5 325.75 65.5H318.75V65ZM337.75 65H348.266V65.5C348.266 65.5 346.505 65.5 344.75 65.5H337.75V65ZM356.75 65H367.266V65.5C367.266 65.5 365.505 65.5 363.75 65.5H356.75V65ZM375.75 65H386.266V65.5C386.266 65.5 384.505 65.5 382.75 65.5H375.75V65ZM394.75 65H405.266V65.5C405.266 65.5 403.505 65.5 401.75 65.5H394.75V65ZM413.75 65H424.266V65.5C424.266 65.5 422.505 65.5 420.75 65.5H413.75V65ZM470.75 65H481.266V65.5C481.266 65.5 479.505 65.5 477.75 65.5H470.75V65ZM451.75 65H462.266V65.5C462.266 65.5 460.505 65.5 458.75 65.5H451.75V65ZM432.75 65H443.266V65.5C443.266 65.5 441.505 65.5 439.75 65.5H432.75V65Z" fill="#5C659D"/>
<path d="M475 215H68V215.5H475V215Z" fill="#5C659D"/>
<path d="M83.5 193C84.4283 193 85.3185 193.369 85.9749 194.025C86.6313 194.682 87 195.572 87 196.5V215H80V196.5C80 195.572 80.3687 194.682 81.0251 194.025C81.6815 193.369 82.5717 193 83.5 193V193Z" fill="url(#paint0_linear)"/>
<path d="M81.2836 224.528V230.672C81.2836 231.432 81.0716 232.024 80.6476 232.448C80.2236 232.872 79.6356 233.084 78.8836 233.084C78.0676 233.084 77.4276 232.848 76.9636 232.376C76.4996 231.904 76.2676 231.236 76.2676 230.372H77.6236C77.6236 230.836 77.7196 231.196 77.9116 231.452C78.1116 231.708 78.4156 231.836 78.8236 231.836C79.1996 231.836 79.4756 231.728 79.6516 231.512C79.8276 231.296 79.9156 231.016 79.9156 230.672V224.528H81.2836ZM85.5308 226.304C86.1308 226.304 86.6428 226.452 87.0668 226.748C87.4908 227.044 87.7908 227.436 87.9668 227.924V226.388H89.3348V233H87.9668V231.464C87.7908 231.952 87.4908 232.344 87.0668 232.64C86.6428 232.936 86.1308 233.084 85.5308 233.084C84.9548 233.084 84.4388 232.948 83.9828 232.676C83.5348 232.404 83.1828 232.012 82.9268 231.5C82.6708 230.988 82.5428 230.384 82.5428 229.688C82.5428 229 82.6708 228.4 82.9268 227.888C83.1828 227.376 83.5348 226.984 83.9828 226.712C84.4388 226.44 84.9548 226.304 85.5308 226.304ZM85.9508 227.504C85.3428 227.504 84.8548 227.7 84.4868 228.092C84.1268 228.476 83.9468 229.008 83.9468 229.688C83.9468 230.368 84.1268 230.904 84.4868 231.296C84.8548 231.68 85.3428 231.872 85.9508 231.872C86.3348 231.872 86.6788 231.784 86.9828 231.608C87.2868 231.424 87.5268 231.168 87.7028 230.84C87.8788 230.512 87.9668 230.128 87.9668 229.688C87.9668 229.256 87.8788 228.876 87.7028 228.548C87.5268 228.212 87.2868 227.956 86.9828 227.78C86.6788 227.596 86.3348 227.504 85.9508 227.504ZM94.6724 226.28C95.4404 226.28 96.0564 226.528 96.5204 227.024C96.9844 227.52 97.2164 228.228 97.2164 229.148V233H95.8484V229.292C95.8484 228.7 95.6964 228.244 95.3924 227.924C95.0884 227.596 94.6724 227.432 94.1444 227.432C93.6004 227.432 93.1644 227.608 92.8364 227.96C92.5084 228.304 92.3444 228.812 92.3444 229.484V233H90.9764V226.388H92.3444V227.84C92.5204 227.344 92.8164 226.96 93.2324 226.688C93.6484 226.416 94.1284 226.28 94.6724 226.28Z" fill="#303030"/>
<path d="M91.5 155C92.4283 155 93.3185 155.369 93.9749 156.025C94.6313 156.682 95 157.572 95 158.5V215H88V158.5C88 157.572 88.3687 156.682 89.0251 156.025C89.6815 155.369 90.5717 155 91.5 155V155Z" fill="url(#paint1_linear)"/>
<path d="M117.496 122C118.424 122 119.315 122.369 119.971 123.025C120.627 123.682 120.996 124.572 120.996 125.5V215H113.996V125.5C113.996 124.572 114.365 123.682 115.021 123.025C115.678 122.369 116.568 122 117.496 122V122Z" fill="url(#paint2_linear)"/>
<path d="M115.934 224.528V225.632H112.298V228.26H115.298V229.316H112.298V233H110.93V224.528H115.934ZM123.296 229.376C123.296 229.6 123.28 229.796 123.248 229.964H118.16C118.184 230.644 118.372 231.148 118.724 231.476C119.076 231.804 119.512 231.968 120.032 231.968C120.488 231.968 120.872 231.852 121.184 231.62C121.504 231.388 121.7 231.08 121.772 230.696H123.236C123.148 231.16 122.964 231.572 122.684 231.932C122.404 232.292 122.04 232.576 121.592 232.784C121.144 232.984 120.644 233.084 120.092 233.084C119.452 233.084 118.884 232.948 118.388 232.676C117.9 232.404 117.516 232.012 117.236 231.5C116.956 230.988 116.816 230.384 116.816 229.688C116.816 229 116.956 228.4 117.236 227.888C117.516 227.376 117.9 226.984 118.388 226.712C118.884 226.44 119.452 226.304 120.092 226.304C120.74 226.304 121.304 226.44 121.784 226.712C122.272 226.976 122.644 227.344 122.9 227.816C123.164 228.28 123.296 228.8 123.296 229.376ZM121.916 229.34C121.932 228.908 121.856 228.548 121.688 228.26C121.528 227.964 121.304 227.748 121.016 227.612C120.736 227.468 120.428 227.396 120.092 227.396C119.556 227.396 119.108 227.56 118.748 227.888C118.388 228.216 118.192 228.7 118.16 229.34H121.916ZM128.409 226.304C128.985 226.304 129.497 226.44 129.945 226.712C130.401 226.984 130.757 227.376 131.013 227.888C131.269 228.4 131.397 229 131.397 229.688C131.397 230.384 131.269 230.988 131.013 231.5C130.757 232.012 130.401 232.404 129.945 232.676C129.497 232.948 128.985 233.084 128.409 233.084C127.809 233.084 127.297 232.936 126.873 232.64C126.449 232.344 126.153 231.952 125.985 231.464V233H124.617V224.12H125.985V227.924C126.153 227.436 126.449 227.044 126.873 226.748C127.297 226.452 127.809 226.304 128.409 226.304ZM127.989 227.504C127.605 227.504 127.261 227.596 126.957 227.78C126.653 227.956 126.413 228.212 126.237 228.548C126.061 228.876 125.973 229.256 125.973 229.688C125.973 230.128 126.061 230.512 126.237 230.84C126.413 231.168 126.653 231.424 126.957 231.608C127.261 231.784 127.605 231.872 127.989 231.872C128.597 231.872 129.085 231.68 129.453 231.296C129.821 230.904 130.005 230.368 130.005 229.688C130.005 229.016 129.821 228.484 129.453 228.092C129.085 227.7 128.597 227.504 127.989 227.504Z" fill="#303030"/>
<path d="M125.496 89C126.424 89 127.315 89.3687 127.971 90.0251C128.627 90.6815 128.996 91.5717 128.996 92.5V215H121.996V92.5C121.996 91.5717 122.365 90.6815 123.021 90.0251C123.678 89.3687 124.568 89 125.496 89V89Z" fill="url(#paint3_linear)"/>
<path d="M151.5 193C152.428 193 153.318 193.369 153.975 194.025C154.631 194.682 155 195.572 155 196.5V215H148V196.5C148 195.572 148.369 194.682 149.025 194.025C149.682 193.369 150.572 193 151.5 193V193Z" fill="url(#paint4_linear)"/>
<path d="M152.956 224.66V233H151.576V226.748L149.164 233H147.964L145.54 226.748V233H144.172V224.66H145.828L148.588 231.32L151.3 224.66H152.956ZM157.253 226.304C157.853 226.304 158.365 226.452 158.789 226.748C159.213 227.044 159.513 227.436 159.689 227.924V226.388H161.057V233H159.689V231.464C159.513 231.952 159.213 232.344 158.789 232.64C158.365 232.936 157.853 233.084 157.253 233.084C156.677 233.084 156.161 232.948 155.705 232.676C155.257 232.404 154.905 232.012 154.649 231.5C154.393 230.988 154.265 230.384 154.265 229.688C154.265 229 154.393 228.4 154.649 227.888C154.905 227.376 155.257 226.984 155.705 226.712C156.161 226.44 156.677 226.304 157.253 226.304ZM157.673 227.504C157.065 227.504 156.577 227.7 156.209 228.092C155.849 228.476 155.669 229.008 155.669 229.688C155.669 230.368 155.849 230.904 156.209 231.296C156.577 231.68 157.065 231.872 157.673 231.872C158.057 231.872 158.401 231.784 158.705 231.608C159.009 231.424 159.249 231.168 159.425 230.84C159.601 230.512 159.689 230.128 159.689 229.688C159.689 229.256 159.601 228.876 159.425 228.548C159.249 228.212 159.009 227.956 158.705 227.78C158.401 227.596 158.057 227.504 157.673 227.504ZM164.067 227.684C164.291 227.252 164.611 226.912 165.027 226.664C165.443 226.408 165.923 226.28 166.467 226.28V227.768H166.059C165.459 227.768 164.975 227.916 164.607 228.212C164.247 228.5 164.067 228.98 164.067 229.652V233H162.699V226.388H164.067V227.684Z" fill="#303030"/>
<path d="M159.5 116C160.428 116 161.318 116.608 161.975 117.691C162.631 118.774 163 120.243 163 121.775V215H156V121.775C156 120.243 156.369 118.774 157.025 117.691C157.682 116.608 158.572 116 159.5 116V116Z" fill="url(#paint5_linear)"/>
<path d="M185.5 164C186.428 164 187.318 164.855 187.975 166.376C188.631 167.898 189 169.962 189 172.114V215H182V172.114C182 169.962 182.369 167.898 183.025 166.376C183.682 164.855 184.572 164 185.5 164V164Z" fill="url(#paint6_linear)"/>
<path d="M184.345 231.164H180.769L180.121 233H178.657L181.777 224.66H183.349L186.457 233H184.993L184.345 231.164ZM183.961 230.108L182.557 226.148L181.153 230.108H183.961ZM191.265 226.304C191.841 226.304 192.353 226.44 192.801 226.712C193.257 226.984 193.613 227.376 193.869 227.888C194.125 228.4 194.253 229 194.253 229.688C194.253 230.384 194.125 230.988 193.869 231.5C193.613 232.012 193.257 232.404 192.801 232.676C192.353 232.948 191.841 233.084 191.265 233.084C190.665 233.084 190.153 232.936 189.729 232.64C189.305 232.344 189.009 231.952 188.841 231.464V236.144H187.473V226.388H188.841V227.924C189.009 227.436 189.305 227.044 189.729 226.748C190.153 226.452 190.665 226.304 191.265 226.304ZM190.845 227.504C190.461 227.504 190.117 227.596 189.813 227.78C189.509 227.956 189.269 228.212 189.093 228.548C188.917 228.876 188.829 229.256 188.829 229.688C188.829 230.128 188.917 230.512 189.093 230.84C189.269 231.168 189.509 231.424 189.813 231.608C190.117 231.784 190.461 231.872 190.845 231.872C191.453 231.872 191.941 231.68 192.309 231.296C192.677 230.904 192.861 230.368 192.861 229.688C192.861 229.016 192.677 228.484 192.309 228.092C191.941 227.7 191.453 227.504 190.845 227.504ZM196.938 227.684C197.162 227.252 197.482 226.912 197.898 226.664C198.314 226.408 198.794 226.28 199.338 226.28V227.768H198.93C198.33 227.768 197.846 227.916 197.478 228.212C197.118 228.5 196.938 228.98 196.938 229.652V233H195.57V226.388H196.938V227.684Z" fill="#303030"/>
<path d="M193.5 116C194.428 116 195.318 116.608 195.975 117.691C196.631 118.774 197 120.243 197 121.775V215H190V121.775C190 120.243 190.369 118.774 191.025 117.691C191.682 116.608 192.572 116 193.5 116V116Z" fill="url(#paint7_linear)"/>
<path d="M219.5 193C220.428 193 221.318 193.369 221.975 194.025C222.631 194.682 223 195.572 223 196.5V215H216V196.5C216 195.572 216.369 194.682 217.025 194.025C217.682 193.369 218.572 193 219.5 193V193Z" fill="url(#paint8_linear)"/>
<path d="M219.839 224.66V233H218.459V226.748L216.047 233H214.847L212.423 226.748V233H211.055V224.66H212.711L215.471 231.32L218.183 224.66H219.839ZM224.136 226.304C224.736 226.304 225.248 226.452 225.672 226.748C226.096 227.044 226.396 227.436 226.572 227.924V226.388H227.94V233H226.572V231.464C226.396 231.952 226.096 232.344 225.672 232.64C225.248 232.936 224.736 233.084 224.136 233.084C223.56 233.084 223.044 232.948 222.588 232.676C222.14 232.404 221.788 232.012 221.532 231.5C221.276 230.988 221.148 230.384 221.148 229.688C221.148 229 221.276 228.4 221.532 227.888C221.788 227.376 222.14 226.984 222.588 226.712C223.044 226.44 223.56 226.304 224.136 226.304ZM224.556 227.504C223.948 227.504 223.46 227.7 223.092 228.092C222.732 228.476 222.552 229.008 222.552 229.688C222.552 230.368 222.732 230.904 223.092 231.296C223.46 231.68 223.948 231.872 224.556 231.872C224.94 231.872 225.284 231.784 225.588 231.608C225.892 231.424 226.132 231.168 226.308 230.84C226.484 230.512 226.572 230.128 226.572 229.688C226.572 229.256 226.484 228.876 226.308 228.548C226.132 228.212 225.892 227.956 225.588 227.78C225.284 227.596 224.94 227.504 224.556 227.504ZM230.362 226.388L232.342 231.248L234.178 226.388H235.702L231.706 236.144H230.182L231.61 232.844L228.826 226.388H230.362Z" fill="#303030"/>
<path d="M227.5 155C228.428 155 229.318 155.369 229.975 156.025C230.631 156.682 231 157.572 231 158.5V215H224V158.5C224 157.572 224.369 156.682 225.025 156.025C225.682 155.369 226.572 155 227.5 155V155Z" fill="url(#paint9_linear)"/>
<path d="M253.5 179C254.428 179 255.318 179.603 255.975 180.677C256.631 181.752 257 183.208 257 184.727V215H250V184.727C250 183.208 250.369 181.752 251.025 180.677C251.682 179.603 252.572 179 253.5 179V179Z" fill="url(#paint10_linear)"/>
<path d="M251.463 224.528V230.672C251.463 231.432 251.251 232.024 250.827 232.448C250.403 232.872 249.815 233.084 249.063 233.084C248.247 233.084 247.607 232.848 247.143 232.376C246.679 231.904 246.447 231.236 246.447 230.372H247.803C247.803 230.836 247.899 231.196 248.091 231.452C248.291 231.708 248.595 231.836 249.003 231.836C249.379 231.836 249.655 231.728 249.831 231.512C250.007 231.296 250.095 231.016 250.095 230.672V224.528H251.463ZM259.154 226.388V233H257.774V231.56C257.606 232.048 257.314 232.428 256.898 232.7C256.482 232.964 255.998 233.096 255.446 233.096C254.678 233.096 254.062 232.848 253.598 232.352C253.134 231.856 252.902 231.148 252.902 230.228V226.388H254.27V230.084C254.27 230.684 254.422 231.148 254.726 231.476C255.03 231.796 255.446 231.956 255.974 231.956C256.518 231.956 256.954 231.78 257.282 231.428C257.61 231.076 257.774 230.564 257.774 229.892V226.388H259.154ZM264.489 226.28C265.257 226.28 265.873 226.528 266.337 227.024C266.801 227.52 267.033 228.228 267.033 229.148V233H265.665V229.292C265.665 228.7 265.513 228.244 265.209 227.924C264.905 227.596 264.489 227.432 263.961 227.432C263.417 227.432 262.981 227.608 262.653 227.96C262.325 228.304 262.161 228.812 262.161 229.484V233H260.793V226.388H262.161V227.84C262.337 227.344 262.633 226.96 263.049 226.688C263.465 226.416 263.945 226.28 264.489 226.28Z" fill="#303030"/>
<path d="M261.5 155C262.428 155 263.318 155.369 263.975 156.025C264.631 156.682 265 157.572 265 158.5V215H258V158.5C258 157.572 258.369 156.682 259.025 156.025C259.682 155.369 260.572 155 261.5 155V155Z" fill="url(#paint11_linear)"/>
<path d="M287.5 188C288.428 188 289.318 188.453 289.975 189.258C290.631 190.064 291 191.156 291 192.295V215H284V192.295C284 191.156 284.369 190.064 285.025 189.258C285.682 188.453 286.572 188 287.5 188V188Z" fill="url(#paint12_linear)"/>
<path d="M287.87 224.528V230.672C287.87 231.432 287.658 232.024 287.234 232.448C286.81 232.872 286.222 233.084 285.47 233.084C284.654 233.084 284.014 232.848 283.55 232.376C283.086 231.904 282.854 231.236 282.854 230.372H284.21C284.21 230.836 284.306 231.196 284.498 231.452C284.698 231.708 285.002 231.836 285.41 231.836C285.786 231.836 286.062 231.728 286.238 231.512C286.414 231.296 286.502 231.016 286.502 230.672V224.528H287.87ZM295.561 226.388V233H294.181V231.56C294.013 232.048 293.721 232.428 293.305 232.7C292.889 232.964 292.405 233.096 291.853 233.096C291.085 233.096 290.469 232.848 290.005 232.352C289.541 231.856 289.309 231.148 289.309 230.228V226.388H290.677V230.084C290.677 230.684 290.829 231.148 291.133 231.476C291.437 231.796 291.853 231.956 292.381 231.956C292.925 231.956 293.361 231.78 293.689 231.428C294.017 231.076 294.181 230.564 294.181 229.892V226.388H295.561ZM298.567 224.12V233H297.199V224.12H298.567Z" fill="#303030"/>
<path d="M295.5 155C296.428 155 297.318 155.369 297.975 156.025C298.631 156.682 299 157.572 299 158.5V215H292V158.5C292 157.572 292.369 156.682 293.025 156.025C293.682 155.369 294.572 155 295.5 155V155Z" fill="url(#paint13_linear)"/>
<path d="M321.5 164C322.428 164 323.318 164.855 323.975 166.376C324.631 167.898 325 169.962 325 172.114V215H318V172.114C318 169.962 318.369 167.898 319.025 166.376C319.682 164.855 320.572 164 321.5 164V164Z" fill="url(#paint14_linear)"/>
<path d="M318.868 231.164H315.292L314.644 233H313.18L316.3 224.66H317.872L320.98 233H319.516L318.868 231.164ZM318.484 230.108L317.08 226.148L315.676 230.108H318.484ZM328.092 226.388V233H326.712V231.56C326.544 232.048 326.252 232.428 325.836 232.7C325.42 232.964 324.936 233.096 324.384 233.096C323.616 233.096 323 232.848 322.536 232.352C322.072 231.856 321.84 231.148 321.84 230.228V226.388H323.208V230.084C323.208 230.684 323.36 231.148 323.664 231.476C323.968 231.796 324.384 231.956 324.912 231.956C325.456 231.956 325.892 231.78 326.22 231.428C326.548 231.076 326.712 230.564 326.712 229.892V226.388H328.092ZM332.382 226.304C332.982 226.304 333.494 226.452 333.918 226.748C334.342 227.044 334.642 227.436 334.818 227.924V226.388H336.186V233.072C336.186 233.688 336.058 234.232 335.802 234.704C335.554 235.184 335.194 235.56 334.722 235.832C334.25 236.104 333.69 236.24 333.042 236.24C332.114 236.24 331.362 236.02 330.786 235.58C330.218 235.14 329.862 234.544 329.718 233.792H331.074C331.186 234.184 331.402 234.488 331.722 234.704C332.042 234.928 332.45 235.04 332.946 235.04C333.49 235.04 333.938 234.872 334.29 234.536C334.642 234.2 334.818 233.712 334.818 233.072V231.464C334.642 231.952 334.342 232.344 333.918 232.64C333.494 232.936 332.982 233.084 332.382 233.084C331.806 233.084 331.29 232.948 330.834 232.676C330.386 232.404 330.034 232.012 329.778 231.5C329.522 230.988 329.394 230.384 329.394 229.688C329.394 229 329.522 228.4 329.778 227.888C330.034 227.376 330.386 226.984 330.834 226.712C331.29 226.44 331.806 226.304 332.382 226.304ZM332.802 227.504C332.194 227.504 331.706 227.7 331.338 228.092C330.978 228.476 330.798 229.008 330.798 229.688C330.798 230.368 330.978 230.904 331.338 231.296C331.706 231.68 332.194 231.872 332.802 231.872C333.186 231.872 333.53 231.784 333.834 231.608C334.138 231.424 334.378 231.168 334.554 230.84C334.73 230.512 334.818 230.128 334.818 229.688C334.818 229.256 334.73 228.876 334.554 228.548C334.378 228.212 334.138 227.956 333.834 227.78C333.53 227.596 333.186 227.504 332.802 227.504Z" fill="#303030"/>
<path d="M329.5 116C330.428 116 331.318 116.608 331.975 117.691C332.631 118.774 333 120.243 333 121.775V215H326V121.775C326 120.243 326.369 118.774 327.025 117.691C327.682 116.608 328.572 116 329.5 116V116Z" fill="url(#paint15_linear)"/>
<path d="M355.5 193C356.428 193 357.318 193.369 357.975 194.025C358.631 194.682 359 195.572 359 196.5V215H352V196.5C352 195.572 352.369 194.682 353.025 194.025C353.682 193.369 354.572 193 355.5 193V193Z" fill="url(#paint16_linear)"/>
<path d="M354.146 230.744C354.146 231.16 354.046 231.548 353.846 231.908C353.646 232.26 353.342 232.544 352.934 232.76C352.526 232.976 352.026 233.084 351.434 233.084C350.858 233.084 350.342 232.984 349.886 232.784C349.43 232.576 349.066 232.288 348.794 231.92C348.522 231.552 348.366 231.128 348.326 230.648H349.79C349.83 231.016 349.986 231.332 350.258 231.596C350.538 231.86 350.91 231.992 351.374 231.992C351.79 231.992 352.11 231.88 352.334 231.656C352.566 231.432 352.682 231.144 352.682 230.792C352.682 230.488 352.598 230.24 352.43 230.048C352.262 229.848 352.054 229.692 351.806 229.58C351.558 229.468 351.218 229.34 350.786 229.196C350.258 229.028 349.826 228.86 349.49 228.692C349.162 228.524 348.882 228.28 348.65 227.96C348.418 227.64 348.302 227.22 348.302 226.7C348.302 226.244 348.414 225.844 348.638 225.5C348.862 225.156 349.182 224.892 349.598 224.708C350.014 224.516 350.494 224.42 351.038 224.42C351.902 224.42 352.586 224.628 353.09 225.044C353.602 225.46 353.894 226.004 353.966 226.676H352.49C352.434 226.356 352.282 226.084 352.034 225.86C351.794 225.628 351.462 225.512 351.038 225.512C350.654 225.512 350.346 225.612 350.114 225.812C349.882 226.004 349.766 226.284 349.766 226.652C349.766 226.94 349.846 227.18 350.006 227.372C350.166 227.556 350.366 227.704 350.606 227.816C350.854 227.92 351.19 228.044 351.614 228.188C352.15 228.356 352.586 228.528 352.922 228.704C353.266 228.872 353.554 229.12 353.786 229.448C354.026 229.776 354.146 230.208 354.146 230.744ZM361.66 229.376C361.66 229.6 361.644 229.796 361.612 229.964H356.524C356.548 230.644 356.736 231.148 357.088 231.476C357.44 231.804 357.876 231.968 358.396 231.968C358.852 231.968 359.236 231.852 359.548 231.62C359.868 231.388 360.064 231.08 360.136 230.696H361.6C361.512 231.16 361.328 231.572 361.048 231.932C360.768 232.292 360.404 232.576 359.956 232.784C359.508 232.984 359.008 233.084 358.456 233.084C357.816 233.084 357.248 232.948 356.752 232.676C356.264 232.404 355.88 232.012 355.6 231.5C355.32 230.988 355.18 230.384 355.18 229.688C355.18 229 355.32 228.4 355.6 227.888C355.88 227.376 356.264 226.984 356.752 226.712C357.248 226.44 357.816 226.304 358.456 226.304C359.104 226.304 359.668 226.44 360.148 226.712C360.636 226.976 361.008 227.344 361.264 227.816C361.528 228.28 361.66 228.8 361.66 229.376ZM360.28 229.34C360.296 228.908 360.22 228.548 360.052 228.26C359.892 227.964 359.668 227.748 359.38 227.612C359.1 227.468 358.792 227.396 358.456 227.396C357.92 227.396 357.472 227.56 357.112 227.888C356.752 228.216 356.556 228.7 356.524 229.34H360.28ZM366.772 226.304C367.348 226.304 367.86 226.44 368.308 226.712C368.764 226.984 369.12 227.376 369.376 227.888C369.632 228.4 369.76 229 369.76 229.688C369.76 230.384 369.632 230.988 369.376 231.5C369.12 232.012 368.764 232.404 368.308 232.676C367.86 232.948 367.348 233.084 366.772 233.084C366.172 233.084 365.66 232.936 365.236 232.64C364.812 232.344 364.516 231.952 364.348 231.464V236.144H362.98V226.388H364.348V227.924C364.516 227.436 364.812 227.044 365.236 226.748C365.66 226.452 366.172 226.304 366.772 226.304ZM366.352 227.504C365.968 227.504 365.624 227.596 365.32 227.78C365.016 227.956 364.776 228.212 364.6 228.548C364.424 228.876 364.336 229.256 364.336 229.688C364.336 230.128 364.424 230.512 364.6 230.84C364.776 231.168 365.016 231.424 365.32 231.608C365.624 231.784 365.968 231.872 366.352 231.872C366.96 231.872 367.448 231.68 367.816 231.296C368.184 230.904 368.368 230.368 368.368 229.688C368.368 229.016 368.184 228.484 367.816 228.092C367.448 227.7 366.96 227.504 366.352 227.504Z" fill="#303030"/>
<path d="M363.5 155C364.428 155 365.318 155.369 365.975 156.025C366.631 156.682 367 157.572 367 158.5V215H360V158.5C360 157.572 360.369 156.682 361.025 156.025C361.682 155.369 362.572 155 363.5 155V155Z" fill="url(#paint17_linear)"/>
<path d="M389.5 179C390.428 179 391.318 179.603 391.975 180.677C392.631 181.752 393 183.208 393 184.727V215H386V184.727C386 183.208 386.369 181.752 387.025 180.677C387.682 179.603 388.572 179 389.5 179V179Z" fill="url(#paint18_linear)"/>
<path d="M386.994 224.42C387.778 224.42 388.486 224.604 389.118 224.972C389.758 225.34 390.258 225.856 390.618 226.52C390.986 227.176 391.17 227.92 391.17 228.752C391.17 229.584 390.986 230.332 390.618 230.996C390.258 231.652 389.758 232.168 389.118 232.544C388.486 232.912 387.778 233.096 386.994 233.096C386.202 233.096 385.486 232.912 384.846 232.544C384.214 232.168 383.714 231.652 383.346 230.996C382.978 230.332 382.794 229.584 382.794 228.752C382.794 227.92 382.978 227.176 383.346 226.52C383.714 225.856 384.214 225.34 384.846 224.972C385.486 224.604 386.202 224.42 386.994 224.42ZM386.994 225.692C386.45 225.692 385.966 225.816 385.542 226.064C385.118 226.312 384.786 226.668 384.546 227.132C384.314 227.596 384.198 228.136 384.198 228.752C384.198 229.368 384.314 229.908 384.546 230.372C384.786 230.836 385.118 231.192 385.542 231.44C385.966 231.688 386.45 231.812 386.994 231.812C387.53 231.812 388.006 231.688 388.422 231.44C388.846 231.192 389.174 230.836 389.406 230.372C389.646 229.908 389.766 229.368 389.766 228.752C389.766 228.136 389.646 227.596 389.406 227.132C389.174 226.668 388.846 226.312 388.422 226.064C388.006 225.816 387.53 225.692 386.994 225.692ZM395.491 226.304C396.347 226.304 397.055 226.532 397.615 226.988C398.175 227.436 398.523 228.048 398.659 228.824H397.207C397.127 228.408 396.931 228.084 396.619 227.852C396.315 227.612 395.931 227.492 395.467 227.492C394.939 227.492 394.499 227.68 394.147 228.056C393.795 228.424 393.619 228.968 393.619 229.688C393.619 230.408 393.795 230.956 394.147 231.332C394.499 231.708 394.939 231.896 395.467 231.896C395.931 231.896 396.315 231.776 396.619 231.536C396.931 231.296 397.127 230.968 397.207 230.552H398.659C398.523 231.328 398.175 231.944 397.615 232.4C397.055 232.856 396.347 233.084 395.491 233.084C394.851 233.084 394.283 232.948 393.787 232.676C393.299 232.404 392.915 232.012 392.635 231.5C392.355 230.988 392.215 230.384 392.215 229.688C392.215 229 392.355 228.4 392.635 227.888C392.915 227.376 393.299 226.984 393.787 226.712C394.283 226.44 394.851 226.304 395.491 226.304ZM403.304 231.812V233H402.464C401.76 233 401.224 232.832 400.856 232.496C400.496 232.152 400.316 231.584 400.316 230.792V227.552H399.368V226.388H400.316V224.744H401.696V226.388H403.292V227.552H401.696V230.816C401.696 231.192 401.764 231.452 401.9 231.596C402.044 231.74 402.292 231.812 402.644 231.812H403.304Z" fill="#303030"/>
<path d="M397.5 155C398.428 155 399.318 155.369 399.975 156.025C400.631 156.682 401 157.572 401 158.5V215H394V158.5C394 157.572 394.369 156.682 395.025 156.025C395.682 155.369 396.572 155 397.5 155V155Z" fill="url(#paint19_linear)"/>
<path d="M423.5 197C424.428 197 425.318 197.302 425.975 197.839C426.631 198.376 427 199.104 427 199.864V215H420V199.864C420 199.104 420.369 198.376 421.025 197.839C421.682 197.302 422.572 197 423.5 197V197Z" fill="url(#paint20_linear)"/>
<path d="M423.047 233H421.679L417.563 226.748V233H416.195V224.54H417.563L421.679 230.816V224.54H423.047V233ZM427.727 226.304C428.367 226.304 428.943 226.44 429.455 226.712C429.967 226.984 430.367 227.376 430.655 227.888C430.943 228.4 431.087 229 431.087 229.688C431.087 230.384 430.943 230.988 430.655 231.5C430.367 232.012 429.967 232.404 429.455 232.676C428.943 232.948 428.367 233.084 427.727 233.084C427.087 233.084 426.511 232.948 425.999 232.676C425.495 232.404 425.095 232.012 424.799 231.5C424.511 230.98 424.367 230.376 424.367 229.688C424.367 229 424.511 228.4 424.799 227.888C425.095 227.376 425.495 226.984 425.999 226.712C426.511 226.44 427.087 226.304 427.727 226.304ZM427.727 227.492C427.375 227.492 427.051 227.572 426.755 227.732C426.459 227.892 426.219 228.14 426.035 228.476C425.859 228.804 425.771 229.208 425.771 229.688C425.771 230.176 425.859 230.584 426.035 230.912C426.219 231.24 426.459 231.484 426.755 231.644C427.051 231.804 427.375 231.884 427.727 231.884C428.079 231.884 428.403 231.804 428.699 231.644C428.995 231.484 429.231 231.24 429.407 230.912C429.591 230.584 429.683 230.176 429.683 229.688C429.683 229.208 429.591 228.804 429.407 228.476C429.231 228.14 428.995 227.892 428.699 227.732C428.403 227.572 428.079 227.492 427.727 227.492ZM435.114 231.584L436.986 226.388H438.45L435.93 233H434.274L431.754 226.388H433.218L435.114 231.584Z" fill="#303030"/>
<path d="M431.5 155C432.428 155 433.318 155.369 433.975 156.025C434.631 156.682 435 157.572 435 158.5V215H428V158.5C428 157.572 428.369 156.682 429.025 156.025C429.682 155.369 430.572 155 431.5 155V155Z" fill="url(#paint21_linear)"/>
<path d="M457.5 137C458.428 137 459.318 138.307 459.975 140.635C460.631 142.962 461 146.118 461 149.409V215H454V149.409C454 146.118 454.369 142.962 455.025 140.635C455.682 138.307 456.572 137 457.5 137V137Z" fill="url(#paint22_linear)"/>
<path d="M457.327 228.752C457.327 229.608 457.151 230.356 456.799 230.996C456.455 231.628 455.947 232.12 455.275 232.472C454.611 232.824 453.815 233 452.887 233H450.055V224.528H452.887C453.815 224.528 454.611 224.704 455.275 225.056C455.947 225.4 456.455 225.888 456.799 226.52C457.151 227.152 457.327 227.896 457.327 228.752ZM452.779 231.764C453.795 231.764 454.575 231.5 455.119 230.972C455.663 230.444 455.935 229.704 455.935 228.752C455.935 227.8 455.663 227.06 455.119 226.532C454.575 226.004 453.795 225.74 452.779 225.74H451.423V231.764H452.779ZM464.847 229.376C464.847 229.6 464.831 229.796 464.799 229.964H459.711C459.735 230.644 459.923 231.148 460.275 231.476C460.627 231.804 461.063 231.968 461.583 231.968C462.039 231.968 462.423 231.852 462.735 231.62C463.055 231.388 463.251 231.08 463.323 230.696H464.787C464.699 231.16 464.515 231.572 464.235 231.932C463.955 232.292 463.591 232.576 463.143 232.784C462.695 232.984 462.195 233.084 461.643 233.084C461.003 233.084 460.435 232.948 459.939 232.676C459.451 232.404 459.067 232.012 458.787 231.5C458.507 230.988 458.367 230.384 458.367 229.688C458.367 229 458.507 228.4 458.787 227.888C459.067 227.376 459.451 226.984 459.939 226.712C460.435 226.44 461.003 226.304 461.643 226.304C462.291 226.304 462.855 226.44 463.335 226.712C463.823 226.976 464.195 227.344 464.451 227.816C464.715 228.28 464.847 228.8 464.847 229.376ZM463.467 229.34C463.483 228.908 463.407 228.548 463.239 228.26C463.079 227.964 462.855 227.748 462.567 227.612C462.287 227.468 461.979 227.396 461.643 227.396C461.107 227.396 460.659 227.56 460.299 227.888C459.939 228.216 459.743 228.7 459.711 229.34H463.467ZM469.108 226.304C469.964 226.304 470.672 226.532 471.232 226.988C471.792 227.436 472.14 228.048 472.276 228.824H470.824C470.744 228.408 470.548 228.084 470.236 227.852C469.932 227.612 469.548 227.492 469.084 227.492C468.556 227.492 468.116 227.68 467.764 228.056C467.412 228.424 467.236 228.968 467.236 229.688C467.236 230.408 467.412 230.956 467.764 231.332C468.116 231.708 468.556 231.896 469.084 231.896C469.548 231.896 469.932 231.776 470.236 231.536C470.548 231.296 470.744 230.968 470.824 230.552H472.276C472.14 231.328 471.792 231.944 471.232 232.4C470.672 232.856 469.964 233.084 469.108 233.084C468.468 233.084 467.9 232.948 467.404 232.676C466.916 232.404 466.532 232.012 466.252 231.5C465.972 230.988 465.832 230.384 465.832 229.688C465.832 229 465.972 228.4 466.252 227.888C466.532 227.376 466.916 226.984 467.404 226.712C467.9 226.44 468.468 226.304 469.108 226.304Z" fill="#303030"/>
<path d="M465.5 116C466.428 116 467.318 116.608 467.975 117.691C468.631 118.774 469 120.243 469 121.775V215H462V121.775C462 120.243 462.369 118.774 463.025 117.691C463.682 116.608 464.572 116 465.5 116V116Z" fill="url(#paint23_linear)"/>
<path d="M37.9763 133.56V132.54H40.4003V141H39.2483V133.56H37.9763ZM41.9496 136.716C41.9496 138.076 42.1736 139.136 42.6216 139.896C43.0696 140.656 43.8456 141.036 44.9496 141.036C46.0536 141.036 46.8296 140.656 47.2776 139.896C47.7336 139.136 47.9616 138.076 47.9616 136.716C47.9616 135.372 47.7336 134.32 47.2776 133.56C46.8296 132.8 46.0536 132.42 44.9496 132.42C43.8456 132.42 43.0696 132.8 42.6216 133.56C42.1736 134.312 41.9496 135.364 41.9496 136.716ZM46.8816 136.716C46.8816 137.412 46.8296 137.996 46.7256 138.468C46.6296 138.932 46.4416 139.304 46.1616 139.584C45.8816 139.864 45.4776 140.004 44.9496 140.004C44.4296 140.004 44.0296 139.864 43.7496 139.584C43.4696 139.304 43.2776 138.932 43.1736 138.468C43.0776 137.996 43.0296 137.412 43.0296 136.716C43.0296 136.028 43.0776 135.452 43.1736 134.988C43.2776 134.524 43.4696 134.156 43.7496 133.884C44.0296 133.604 44.4296 133.464 44.9496 133.464C45.4776 133.464 45.8816 133.604 46.1616 133.884C46.4416 134.156 46.6296 134.524 46.7256 134.988C46.8296 135.452 46.8816 136.028 46.8816 136.716ZM49.3207 136.716C49.3207 138.076 49.5447 139.136 49.9927 139.896C50.4407 140.656 51.2167 141.036 52.3207 141.036C53.4247 141.036 54.2007 140.656 54.6487 139.896C55.1047 139.136 55.3327 138.076 55.3327 136.716C55.3327 135.372 55.1047 134.32 54.6487 133.56C54.2007 132.8 53.4247 132.42 52.3207 132.42C51.2167 132.42 50.4407 132.8 49.9927 133.56C49.5447 134.312 49.3207 135.364 49.3207 136.716ZM54.2527 136.716C54.2527 137.412 54.2007 137.996 54.0967 138.468C54.0007 138.932 53.8127 139.304 53.5327 139.584C53.2527 139.864 52.8487 140.004 52.3207 140.004C51.8007 140.004 51.4007 139.864 51.1207 139.584C50.8407 139.304 50.6487 138.932 50.5447 138.468C50.4487 137.996 50.4007 137.412 50.4007 136.716C50.4007 136.028 50.4487 135.452 50.5447 134.988C50.6487 134.524 50.8407 134.156 51.1207 133.884C51.4007 133.604 51.8007 133.464 52.3207 133.464C52.8487 133.464 53.2527 133.604 53.5327 133.884C53.8127 134.156 54.0007 134.524 54.0967 134.988C54.2007 135.452 54.2527 136.028 54.2527 136.716Z" fill="#A6A9B7"/>
<path d="M47.6262 169.404H43.2822V172.236C43.4822 171.964 43.7702 171.748 44.1462 171.588C44.5222 171.428 44.9342 171.348 45.3822 171.348C45.9822 171.348 46.4782 171.476 46.8702 171.732C47.2702 171.98 47.5622 172.312 47.7462 172.728C47.9382 173.136 48.0342 173.592 48.0342 174.096C48.0342 174.968 47.7902 175.68 47.3022 176.232C46.8142 176.784 46.0982 177.06 45.1542 177.06C44.3062 177.06 43.6142 176.832 43.0782 176.376C42.5422 175.912 42.2422 175.292 42.1782 174.516H43.2582C43.3462 175.012 43.5502 175.4 43.8702 175.68C44.1982 175.952 44.6102 176.088 45.1062 176.088C45.7222 176.088 46.1862 175.904 46.4982 175.536C46.8102 175.168 46.9662 174.684 46.9662 174.084C46.9662 173.5 46.8062 173.044 46.4862 172.716C46.1662 172.388 45.7142 172.224 45.1302 172.224C44.7142 172.224 44.3502 172.316 44.0382 172.5C43.7262 172.676 43.4902 172.916 43.3302 173.22H42.2742V168.432H47.6262V169.404ZM49.3207 172.716C49.3207 174.076 49.5447 175.136 49.9927 175.896C50.4407 176.656 51.2167 177.036 52.3207 177.036C53.4247 177.036 54.2007 176.656 54.6487 175.896C55.1047 175.136 55.3327 174.076 55.3327 172.716C55.3327 171.372 55.1047 170.32 54.6487 169.56C54.2007 168.8 53.4247 168.42 52.3207 168.42C51.2167 168.42 50.4407 168.8 49.9927 169.56C49.5447 170.312 49.3207 171.364 49.3207 172.716ZM54.2527 172.716C54.2527 173.412 54.2007 173.996 54.0967 174.468C54.0007 174.932 53.8127 175.304 53.5327 175.584C53.2527 175.864 52.8487 176.004 52.3207 176.004C51.8007 176.004 51.4007 175.864 51.1207 175.584C50.8407 175.304 50.6487 174.932 50.5447 174.468C50.4487 173.996 50.4007 173.412 50.4007 172.716C50.4007 172.028 50.4487 171.452 50.5447 170.988C50.6487 170.524 50.8407 170.156 51.1207 169.884C51.4007 169.604 51.8007 169.464 52.3207 169.464C52.8487 169.464 53.2527 169.604 53.5327 169.884C53.8127 170.156 54.0007 170.524 54.0967 170.988C54.2007 171.452 54.2527 172.028 54.2527 172.716Z" fill="#A6A9B7"/>
<path d="M34.9529 97.56V96.54H37.3769V105H36.2249V97.56H34.9529ZM44.6262 97.404H40.2822V100.236C40.4822 99.964 40.7702 99.748 41.1462 99.588C41.5222 99.428 41.9342 99.348 42.3822 99.348C42.9822 99.348 43.4782 99.476 43.8702 99.732C44.2702 99.98 44.5622 100.312 44.7462 100.728C44.9382 101.136 45.0342 101.592 45.0342 102.096C45.0342 102.968 44.7902 103.68 44.3022 104.232C43.8142 104.784 43.0982 105.06 42.1542 105.06C41.3062 105.06 40.6142 104.832 40.0782 104.376C39.5422 103.912 39.2422 103.292 39.1782 102.516H40.2582C40.3462 103.012 40.5502 103.4 40.8702 103.68C41.1982 103.952 41.6102 104.088 42.1062 104.088C42.7222 104.088 43.1862 103.904 43.4982 103.536C43.8102 103.168 43.9662 102.684 43.9662 102.084C43.9662 101.5 43.8062 101.044 43.4862 100.716C43.1662 100.388 42.7142 100.224 42.1302 100.224C41.7142 100.224 41.3502 100.316 41.0382 100.5C40.7262 100.676 40.4902 100.916 40.3302 101.22H39.2742V96.432H44.6262V97.404ZM46.3207 100.716C46.3207 102.076 46.5447 103.136 46.9927 103.896C47.4407 104.656 48.2167 105.036 49.3207 105.036C50.4247 105.036 51.2007 104.656 51.6487 103.896C52.1047 103.136 52.3327 102.076 52.3327 100.716C52.3327 99.372 52.1047 98.32 51.6487 97.56C51.2007 96.8 50.4247 96.42 49.3207 96.42C48.2167 96.42 47.4407 96.8 46.9927 97.56C46.5447 98.312 46.3207 99.364 46.3207 100.716ZM51.2527 100.716C51.2527 101.412 51.2007 101.996 51.0967 102.468C51.0007 102.932 50.8127 103.304 50.5327 103.584C50.2527 103.864 49.8487 104.004 49.3207 104.004C48.8007 104.004 48.4007 103.864 48.1207 103.584C47.8407 103.304 47.6487 102.932 47.5447 102.468C47.4487 101.996 47.4007 101.412 47.4007 100.716C47.4007 100.028 47.4487 99.452 47.5447 98.988C47.6487 98.524 47.8407 98.156 48.1207 97.884C48.4007 97.604 48.8007 97.464 49.3207 97.464C49.8487 97.464 50.2527 97.604 50.5327 97.884C50.8127 98.156 51.0007 98.524 51.0967 98.988C51.2007 99.452 51.2527 100.028 51.2527 100.716Z" fill="#A6A9B7"/>
<path d="M33.9649 68.16C35.3249 67.248 36.4129 66.344 37.2289 65.448C38.0449 64.544 38.4529 63.704 38.4529 62.928C38.4529 62.448 38.3289 62.064 38.0809 61.776C37.8409 61.48 37.4489 61.332 36.9049 61.332C36.3449 61.332 35.9209 61.512 35.6329 61.872C35.3449 62.224 35.1849 62.712 35.1529 63.336H34.0729C34.1289 62.392 34.4209 61.668 34.9489 61.164C35.4769 60.652 36.1569 60.396 36.9889 60.396C37.7809 60.396 38.4089 60.608 38.8729 61.032C39.3369 61.456 39.5689 62.056 39.5689 62.832C39.5689 63.472 39.3609 64.124 38.9449 64.788C38.5369 65.444 38.0209 66.056 37.3969 66.624C36.7809 67.184 36.1449 67.66 35.4889 68.052H39.7849V68.952H33.9649V68.16ZM40.9535 64.716C40.9535 66.076 41.1775 67.136 41.6255 67.896C42.0735 68.656 42.8495 69.036 43.9535 69.036C45.0575 69.036 45.8335 68.656 46.2815 67.896C46.7375 67.136 46.9655 66.076 46.9655 64.716C46.9655 63.372 46.7375 62.32 46.2815 61.56C45.8335 60.8 45.0575 60.42 43.9535 60.42C42.8495 60.42 42.0735 60.8 41.6255 61.56C41.1775 62.312 40.9535 63.364 40.9535 64.716ZM45.8855 64.716C45.8855 65.412 45.8335 65.996 45.7295 66.468C45.6335 66.932 45.4455 67.304 45.1655 67.584C44.8855 67.864 44.4815 68.004 43.9535 68.004C43.4335 68.004 43.0335 67.864 42.7535 67.584C42.4735 67.304 42.2815 66.932 42.1775 66.468C42.0815 65.996 42.0335 65.412 42.0335 64.716C42.0335 64.028 42.0815 63.452 42.1775 62.988C42.2815 62.524 42.4735 62.156 42.7535 61.884C43.0335 61.604 43.4335 61.464 43.9535 61.464C44.4815 61.464 44.8855 61.604 45.1655 61.884C45.4455 62.156 45.6335 62.524 45.7295 62.988C45.8335 63.452 45.8855 64.028 45.8855 64.716ZM48.3246 64.716C48.3246 66.076 48.5486 67.136 48.9966 67.896C49.4446 68.656 50.2206 69.036 51.3246 69.036C52.4286 69.036 53.2046 68.656 53.6526 67.896C54.1086 67.136 54.3366 66.076 54.3366 64.716C54.3366 63.372 54.1086 62.32 53.6526 61.56C53.2046 60.8 52.4286 60.42 51.3246 60.42C50.2206 60.42 49.4446 60.8 48.9966 61.56C48.5486 62.312 48.3246 63.364 48.3246 64.716ZM53.2566 64.716C53.2566 65.412 53.2046 65.996 53.1006 66.468C53.0046 66.932 52.8166 67.304 52.5366 67.584C52.2566 67.864 51.8526 68.004 51.3246 68.004C50.8046 68.004 50.4046 67.864 50.1246 67.584C49.8446 67.304 49.6526 66.932 49.5486 66.468C49.4526 65.996 49.4046 65.412 49.4046 64.716C49.4046 64.028 49.4526 63.452 49.5486 62.988C49.6526 62.524 49.8446 62.156 50.1246 61.884C50.4046 61.604 50.8046 61.464 51.3246 61.464C51.8526 61.464 52.2566 61.604 52.5366 61.884C52.8166 62.156 53.0046 62.524 53.1006 62.988C53.2046 63.452 53.2566 64.028 53.2566 64.716Z" fill="#A6A9B7"/>
<path d="M323 39C325.209 39 327 37.2091 327 35C327 32.7909 325.209 31 323 31C320.791 31 319 32.7909 319 35C319 37.2091 320.791 39 323 39Z" fill="#F07C5D"/>
<path d="M337.88 39.164H334.304L333.656 41H332.192L335.312 32.66H336.884L339.992 41H338.528L337.88 39.164ZM337.496 38.108L336.092 34.148L334.688 38.108H337.496ZM343.948 34.304C344.804 34.304 345.512 34.532 346.072 34.988C346.632 35.436 346.98 36.048 347.116 36.824H345.664C345.584 36.408 345.388 36.084 345.076 35.852C344.772 35.612 344.388 35.492 343.924 35.492C343.396 35.492 342.956 35.68 342.604 36.056C342.252 36.424 342.076 36.968 342.076 37.688C342.076 38.408 342.252 38.956 342.604 39.332C342.956 39.708 343.396 39.896 343.924 39.896C344.388 39.896 344.772 39.776 345.076 39.536C345.388 39.296 345.584 38.968 345.664 38.552H347.116C346.98 39.328 346.632 39.944 346.072 40.4C345.512 40.856 344.804 41.084 343.948 41.084C343.308 41.084 342.74 40.948 342.244 40.676C341.756 40.404 341.372 40.012 341.092 39.5C340.812 38.988 340.672 38.384 340.672 37.688C340.672 37 340.812 36.4 341.092 35.888C341.372 35.376 341.756 34.984 342.244 34.712C342.74 34.44 343.308 34.304 343.948 34.304ZM351.377 34.304C352.233 34.304 352.941 34.532 353.501 34.988C354.061 35.436 354.409 36.048 354.545 36.824H353.093C353.013 36.408 352.817 36.084 352.505 35.852C352.201 35.612 351.817 35.492 351.353 35.492C350.825 35.492 350.385 35.68 350.033 36.056C349.681 36.424 349.505 36.968 349.505 37.688C349.505 38.408 349.681 38.956 350.033 39.332C350.385 39.708 350.825 39.896 351.353 39.896C351.817 39.896 352.201 39.776 352.505 39.536C352.817 39.296 353.013 38.968 353.093 38.552H354.545C354.409 39.328 354.061 39.944 353.501 40.4C352.941 40.856 352.233 41.084 351.377 41.084C350.737 41.084 350.169 40.948 349.673 40.676C349.185 40.404 348.801 40.012 348.521 39.5C348.241 38.988 348.101 38.384 348.101 37.688C348.101 37 348.241 36.4 348.521 35.888C348.801 35.376 349.185 34.984 349.673 34.712C350.169 34.44 350.737 34.304 351.377 34.304ZM358.891 34.304C359.531 34.304 360.107 34.44 360.619 34.712C361.131 34.984 361.531 35.376 361.819 35.888C362.107 36.4 362.251 37 362.251 37.688C362.251 38.384 362.107 38.988 361.819 39.5C361.531 40.012 361.131 40.404 360.619 40.676C360.107 40.948 359.531 41.084 358.891 41.084C358.251 41.084 357.675 40.948 357.163 40.676C356.659 40.404 356.259 40.012 355.963 39.5C355.675 38.98 355.531 38.376 355.531 37.688C355.531 37 355.675 36.4 355.963 35.888C356.259 35.376 356.659 34.984 357.163 34.712C357.675 34.44 358.251 34.304 358.891 34.304ZM358.891 35.492C358.539 35.492 358.215 35.572 357.919 35.732C357.623 35.892 357.383 36.14 357.199 36.476C357.023 36.804 356.935 37.208 356.935 37.688C356.935 38.176 357.023 38.584 357.199 38.912C357.383 39.24 357.623 39.484 357.919 39.644C358.215 39.804 358.539 39.884 358.891 39.884C359.243 39.884 359.567 39.804 359.863 39.644C360.159 39.484 360.395 39.24 360.571 38.912C360.755 38.584 360.847 38.176 360.847 37.688C360.847 37.208 360.755 36.804 360.571 36.476C360.395 36.14 360.159 35.892 359.863 35.732C359.567 35.572 359.243 35.492 358.891 35.492ZM371.834 34.28C372.618 34.28 373.242 34.528 373.706 35.024C374.178 35.52 374.414 36.228 374.414 37.148V41H373.046V37.292C373.046 36.716 372.902 36.272 372.614 35.96C372.326 35.64 371.93 35.48 371.426 35.48C370.89 35.48 370.462 35.652 370.142 35.996C369.83 36.332 369.674 36.828 369.674 37.484V41H368.306V37.292C368.306 36.716 368.162 36.272 367.874 35.96C367.586 35.64 367.19 35.48 366.686 35.48C366.15 35.48 365.722 35.652 365.402 35.996C365.09 36.332 364.934 36.828 364.934 37.484V41H363.566V34.388H364.934V35.768C365.102 35.288 365.382 34.92 365.774 34.664C366.166 34.408 366.626 34.28 367.154 34.28C367.706 34.28 368.182 34.416 368.582 34.688C368.99 34.96 369.286 35.352 369.47 35.864C369.662 35.368 369.97 34.98 370.394 34.7C370.818 34.42 371.298 34.28 371.834 34.28ZM379.804 34.304C380.38 34.304 380.892 34.44 381.34 34.712C381.796 34.984 382.152 35.376 382.408 35.888C382.664 36.4 382.792 37 382.792 37.688C382.792 38.384 382.664 38.988 382.408 39.5C382.152 40.012 381.796 40.404 381.34 40.676C380.892 40.948 380.38 41.084 379.804 41.084C379.204 41.084 378.692 40.936 378.268 40.64C377.844 40.344 377.548 39.952 377.38 39.464V44.144H376.012V34.388H377.38V35.924C377.548 35.436 377.844 35.044 378.268 34.748C378.692 34.452 379.204 34.304 379.804 34.304ZM379.384 35.504C379 35.504 378.656 35.596 378.352 35.78C378.048 35.956 377.808 36.212 377.632 36.548C377.456 36.876 377.368 37.256 377.368 37.688C377.368 38.128 377.456 38.512 377.632 38.84C377.808 39.168 378.048 39.424 378.352 39.608C378.656 39.784 379 39.872 379.384 39.872C379.992 39.872 380.48 39.68 380.848 39.296C381.216 38.904 381.4 38.368 381.4 37.688C381.4 37.016 381.216 36.484 380.848 36.092C380.48 35.7 379.992 35.504 379.384 35.504ZM385.477 32.12V41H384.109V32.12H385.477ZM386.941 32.468C386.941 32.236 387.021 32.044 387.181 31.892C387.341 31.74 387.553 31.664 387.817 31.664C388.081 31.664 388.293 31.74 388.453 31.892C388.621 32.044 388.705 32.236 388.705 32.468C388.705 32.7 388.621 32.888 388.453 33.032C388.293 33.176 388.081 33.248 387.817 33.248C387.553 33.248 387.341 33.176 387.181 33.032C387.021 32.888 386.941 32.7 386.941 32.468ZM388.501 34.388V41H387.133V34.388H388.501ZM392.328 34.304C393.104 34.304 393.724 34.504 394.188 34.904C394.66 35.296 394.948 35.824 395.052 36.488H393.756C393.7 36.128 393.544 35.84 393.288 35.624C393.04 35.4 392.708 35.288 392.292 35.288C391.948 35.288 391.68 35.372 391.488 35.54C391.304 35.7 391.212 35.92 391.212 36.2C391.212 36.408 391.28 36.576 391.416 36.704C391.552 36.832 391.72 36.932 391.92 37.004C392.128 37.076 392.42 37.156 392.796 37.244C393.292 37.356 393.692 37.472 393.996 37.592C394.308 37.712 394.572 37.904 394.788 38.168C395.012 38.424 395.124 38.776 395.124 39.224C395.124 39.776 394.912 40.224 394.488 40.568C394.072 40.912 393.508 41.084 392.796 41.084C391.972 41.084 391.304 40.892 390.792 40.508C390.288 40.124 389.984 39.588 389.88 38.9H391.212C391.252 39.26 391.412 39.552 391.692 39.776C391.972 40 392.34 40.112 392.796 40.112C393.124 40.112 393.38 40.028 393.564 39.86C393.756 39.684 393.852 39.464 393.852 39.2C393.852 38.968 393.78 38.784 393.636 38.648C393.492 38.512 393.312 38.408 393.096 38.336C392.88 38.256 392.584 38.176 392.208 38.096C391.728 37.984 391.336 37.872 391.032 37.76C390.736 37.648 390.48 37.468 390.264 37.22C390.056 36.964 389.952 36.62 389.952 36.188C389.952 35.628 390.16 35.176 390.576 34.832C391 34.48 391.584 34.304 392.328 34.304ZM400.192 34.28C400.96 34.28 401.576 34.528 402.04 35.024C402.504 35.52 402.736 36.228 402.736 37.148V41H401.368V37.292C401.368 36.7 401.216 36.244 400.912 35.924C400.608 35.596 400.192 35.432 399.664 35.432C399.12 35.432 398.684 35.608 398.356 35.96C398.028 36.304 397.864 36.812 397.864 37.484V41H396.496V32.12H397.864V35.84C398.04 35.344 398.336 34.96 398.752 34.688C399.168 34.416 399.648 34.28 400.192 34.28ZM410.48 37.376C410.48 37.6 410.464 37.796 410.432 37.964H405.344C405.368 38.644 405.556 39.148 405.908 39.476C406.26 39.804 406.696 39.968 407.216 39.968C407.672 39.968 408.056 39.852 408.368 39.62C408.688 39.388 408.884 39.08 408.956 38.696H410.42C410.332 39.16 410.148 39.572 409.868 39.932C409.588 40.292 409.224 40.576 408.776 40.784C408.328 40.984 407.828 41.084 407.276 41.084C406.636 41.084 406.068 40.948 405.572 40.676C405.084 40.404 404.7 40.012 404.42 39.5C404.14 38.988 404 38.384 404 37.688C404 37 404.14 36.4 404.42 35.888C404.7 35.376 405.084 34.984 405.572 34.712C406.068 34.44 406.636 34.304 407.276 34.304C407.924 34.304 408.488 34.44 408.968 34.712C409.456 34.976 409.828 35.344 410.084 35.816C410.348 36.28 410.48 36.8 410.48 37.376ZM409.1 37.34C409.116 36.908 409.04 36.548 408.872 36.26C408.712 35.964 408.488 35.748 408.2 35.612C407.92 35.468 407.612 35.396 407.276 35.396C406.74 35.396 406.292 35.56 405.932 35.888C405.572 36.216 405.376 36.7 405.344 37.34H409.1ZM414.453 34.304C415.053 34.304 415.565 34.452 415.989 34.748C416.413 35.044 416.709 35.436 416.877 35.924V32.12H418.257V41H416.877V39.464C416.709 39.952 416.413 40.344 415.989 40.64C415.565 40.936 415.053 41.084 414.453 41.084C413.877 41.084 413.361 40.948 412.905 40.676C412.457 40.404 412.105 40.012 411.849 39.5C411.593 38.988 411.465 38.384 411.465 37.688C411.465 37 411.593 36.4 411.849 35.888C412.105 35.376 412.457 34.984 412.905 34.712C413.361 34.44 413.877 34.304 414.453 34.304ZM414.873 35.504C414.265 35.504 413.777 35.7 413.409 36.092C413.049 36.476 412.869 37.008 412.869 37.688C412.869 38.368 413.049 38.904 413.409 39.296C413.777 39.68 414.265 39.872 414.873 39.872C415.257 39.872 415.601 39.784 415.905 39.608C416.209 39.424 416.449 39.168 416.625 38.84C416.801 38.512 416.889 38.128 416.889 37.688C416.889 37.256 416.801 36.876 416.625 36.548C416.449 36.212 416.209 35.956 415.905 35.78C415.601 35.596 415.257 35.504 414.873 35.504Z" fill="#43424B"/>
<path d="M235 39C237.209 39 239 37.2091 239 35C239 32.7909 237.209 31 235 31C232.791 31 231 32.7909 231 35C231 37.2091 232.791 39 235 39Z" fill="url(#paint24_linear)"/>
<path d="M250.276 32.528V33.632H247.912V41H246.532V33.632H244.18V32.528H250.276ZM253.949 34.304C254.549 34.304 255.061 34.452 255.485 34.748C255.909 35.044 256.209 35.436 256.385 35.924V34.388H257.753V41H256.385V39.464C256.209 39.952 255.909 40.344 255.485 40.64C255.061 40.936 254.549 41.084 253.949 41.084C253.373 41.084 252.857 40.948 252.401 40.676C251.953 40.404 251.601 40.012 251.345 39.5C251.089 38.988 250.961 38.384 250.961 37.688C250.961 37 251.089 36.4 251.345 35.888C251.601 35.376 251.953 34.984 252.401 34.712C252.857 34.44 253.373 34.304 253.949 34.304ZM254.369 35.504C253.761 35.504 253.273 35.7 252.905 36.092C252.545 36.476 252.365 37.008 252.365 37.688C252.365 38.368 252.545 38.904 252.905 39.296C253.273 39.68 253.761 39.872 254.369 39.872C254.753 39.872 255.097 39.784 255.401 39.608C255.705 39.424 255.945 39.168 256.121 38.84C256.297 38.512 256.385 38.128 256.385 37.688C256.385 37.256 256.297 36.876 256.121 36.548C255.945 36.212 255.705 35.956 255.401 35.78C255.097 35.596 254.753 35.504 254.369 35.504ZM260.762 35.684C260.986 35.252 261.306 34.912 261.722 34.664C262.138 34.408 262.618 34.28 263.162 34.28V35.768H262.754C262.154 35.768 261.67 35.916 261.302 36.212C260.942 36.5 260.762 36.98 260.762 37.652V41H259.394V34.388H260.762V35.684ZM266.839 34.304C267.439 34.304 267.951 34.452 268.375 34.748C268.799 35.044 269.099 35.436 269.275 35.924V34.388H270.643V41.072C270.643 41.688 270.515 42.232 270.259 42.704C270.011 43.184 269.651 43.56 269.179 43.832C268.707 44.104 268.147 44.24 267.499 44.24C266.571 44.24 265.819 44.02 265.243 43.58C264.675 43.14 264.319 42.544 264.175 41.792H265.531C265.643 42.184 265.859 42.488 266.179 42.704C266.499 42.928 266.907 43.04 267.403 43.04C267.947 43.04 268.395 42.872 268.747 42.536C269.099 42.2 269.275 41.712 269.275 41.072V39.464C269.099 39.952 268.799 40.344 268.375 40.64C267.951 40.936 267.439 41.084 266.839 41.084C266.263 41.084 265.747 40.948 265.291 40.676C264.843 40.404 264.491 40.012 264.235 39.5C263.979 38.988 263.851 38.384 263.851 37.688C263.851 37 263.979 36.4 264.235 35.888C264.491 35.376 264.843 34.984 265.291 34.712C265.747 34.44 266.263 34.304 266.839 34.304ZM267.259 35.504C266.651 35.504 266.163 35.7 265.795 36.092C265.435 36.476 265.255 37.008 265.255 37.688C265.255 38.368 265.435 38.904 265.795 39.296C266.163 39.68 266.651 39.872 267.259 39.872C267.643 39.872 267.987 39.784 268.291 39.608C268.595 39.424 268.835 39.168 269.011 38.84C269.187 38.512 269.275 38.128 269.275 37.688C269.275 37.256 269.187 36.876 269.011 36.548C268.835 36.212 268.595 35.956 268.291 35.78C267.987 35.596 267.643 35.504 267.259 35.504ZM278.429 37.376C278.429 37.6 278.413 37.796 278.381 37.964H273.293C273.317 38.644 273.505 39.148 273.857 39.476C274.209 39.804 274.645 39.968 275.165 39.968C275.621 39.968 276.005 39.852 276.317 39.62C276.637 39.388 276.833 39.08 276.905 38.696H278.369C278.281 39.16 278.097 39.572 277.817 39.932C277.537 40.292 277.173 40.576 276.725 40.784C276.277 40.984 275.777 41.084 275.225 41.084C274.585 41.084 274.017 40.948 273.521 40.676C273.033 40.404 272.649 40.012 272.369 39.5C272.089 38.988 271.949 38.384 271.949 37.688C271.949 37 272.089 36.4 272.369 35.888C272.649 35.376 273.033 34.984 273.521 34.712C274.017 34.44 274.585 34.304 275.225 34.304C275.873 34.304 276.437 34.44 276.917 34.712C277.405 34.976 277.777 35.344 278.033 35.816C278.297 36.28 278.429 36.8 278.429 37.376ZM277.049 37.34C277.065 36.908 276.989 36.548 276.821 36.26C276.661 35.964 276.437 35.748 276.149 35.612C275.869 35.468 275.561 35.396 275.225 35.396C274.689 35.396 274.241 35.56 273.881 35.888C273.521 36.216 273.325 36.7 273.293 37.34H277.049ZM283.074 39.812V41H282.234C281.53 41 280.994 40.832 280.626 40.496C280.266 40.152 280.086 39.584 280.086 38.792V35.552H279.138V34.388H280.086V32.744H281.466V34.388H283.062V35.552H281.466V38.816C281.466 39.192 281.534 39.452 281.67 39.596C281.814 39.74 282.062 39.812 282.414 39.812H283.074Z" fill="#43424B"/>
<defs>
<filter id="filter0_d" x="0" y="0.977051" width="551" height="273.046" filterUnits="userSpaceOnUse" color-interpolation-filters="sRGB">
<feFlood flood-opacity="0" result="BackgroundImageFix"/>
<feColorMatrix in="SourceAlpha" type="matrix" values="0 0 0 0 0 0 0 0 0 0 0 0 0 0 0 0 0 0 127 0"/>
<feOffset dy="10"/>
<feGaussianBlur stdDeviation="6"/>
<feColorMatrix type="matrix" values="0 0 0 0 0 0 0 0 0 0 0 0 0 0 0 0 0 0 0.078 0"/>
<feBlend mode="normal" in2="BackgroundImageFix" result="effect1_dropShadow"/>
<feBlend mode="normal" in="SourceGraphic" in2="effect1_dropShadow" result="shape"/>
</filter>
<linearGradient id="paint0_linear" x1="83.5" y1="193" x2="83.5" y2="215" gradientUnits="userSpaceOnUse">
<stop stop-color="#00C6FF"/>
<stop offset="1" stop-color="#0072FF"/>
</linearGradient>
<linearGradient id="paint1_linear" x1="91.5" y1="155" x2="91.5" y2="215" gradientUnits="userSpaceOnUse">
<stop stop-color="#FEA859"/>
<stop offset="1" stop-color="#EE765E"/>
</linearGradient>
<linearGradient id="paint2_linear" x1="117.496" y1="122" x2="117.496" y2="215" gradientUnits="userSpaceOnUse">
<stop stop-color="#00C6FF"/>
<stop offset="1" stop-color="#0072FF"/>
</linearGradient>
<linearGradient id="paint3_linear" x1="125.496" y1="89" x2="125.496" y2="215" gradientUnits="userSpaceOnUse">
<stop stop-color="#FEA859"/>
<stop offset="1" stop-color="#EE765E"/>
</linearGradient>
<linearGradient id="paint4_linear" x1="151.5" y1="193" x2="151.5" y2="215" gradientUnits="userSpaceOnUse">
<stop stop-color="#00C6FF"/>
<stop offset="1" stop-color="#0072FF"/>
</linearGradient>
<linearGradient id="paint5_linear" x1="159.5" y1="116" x2="159.5" y2="215" gradientUnits="userSpaceOnUse">
<stop stop-color="#FEA859"/>
<stop offset="1" stop-color="#EE765E"/>
</linearGradient>
<linearGradient id="paint6_linear" x1="185.5" y1="164" x2="185.5" y2="215" gradientUnits="userSpaceOnUse">
<stop stop-color="#00C6FF"/>
<stop offset="1" stop-color="#0072FF"/>
</linearGradient>
<linearGradient id="paint7_linear" x1="193.5" y1="116" x2="193.5" y2="215" gradientUnits="userSpaceOnUse">
<stop stop-color="#FEA859"/>
<stop offset="1" stop-color="#EE765E"/>
</linearGradient>
<linearGradient id="paint8_linear" x1="219.5" y1="193" x2="219.5" y2="215" gradientUnits="userSpaceOnUse">
<stop stop-color="#00C6FF"/>
<stop offset="1" stop-color="#0072FF"/>
</linearGradient>
<linearGradient id="paint9_linear" x1="227.5" y1="155" x2="227.5" y2="215" gradientUnits="userSpaceOnUse">
<stop stop-color="#FEA859"/>
<stop offset="1" stop-color="#EE765E"/>
</linearGradient>
<linearGradient id="paint10_linear" x1="253.5" y1="179" x2="253.5" y2="215" gradientUnits="userSpaceOnUse">
<stop stop-color="#00C6FF"/>
<stop offset="1" stop-color="#0072FF"/>
</linearGradient>
<linearGradient id="paint11_linear" x1="261.5" y1="155" x2="261.5" y2="215" gradientUnits="userSpaceOnUse">
<stop stop-color="#FEA859"/>
<stop offset="1" stop-color="#EE765E"/>
</linearGradient>
<linearGradient id="paint12_linear" x1="287.5" y1="188" x2="287.5" y2="215" gradientUnits="userSpaceOnUse">
<stop stop-color="#00C6FF"/>
<stop offset="1" stop-color="#0072FF"/>
</linearGradient>
<linearGradient id="paint13_linear" x1="295.5" y1="155" x2="295.5" y2="215" gradientUnits="userSpaceOnUse">
<stop stop-color="#FEA859"/>
<stop offset="1" stop-color="#EE765E"/>
</linearGradient>
<linearGradient id="paint14_linear" x1="321.5" y1="164" x2="321.5" y2="215" gradientUnits="userSpaceOnUse">
<stop stop-color="#00C6FF"/>
<stop offset="1" stop-color="#0072FF"/>
</linearGradient>
<linearGradient id="paint15_linear" x1="329.5" y1="116" x2="329.5" y2="215" gradientUnits="userSpaceOnUse">
<stop stop-color="#FEA859"/>
<stop offset="1" stop-color="#EE765E"/>
</linearGradient>
<linearGradient id="paint16_linear" x1="355.5" y1="193" x2="355.5" y2="215" gradientUnits="userSpaceOnUse">
<stop stop-color="#00C6FF"/>
<stop offset="1" stop-color="#0072FF"/>
</linearGradient>
<linearGradient id="paint17_linear" x1="363.5" y1="155" x2="363.5" y2="215" gradientUnits="userSpaceOnUse">
<stop stop-color="#FEA859"/>
<stop offset="1" stop-color="#EE765E"/>
</linearGradient>
<linearGradient id="paint18_linear" x1="389.5" y1="179" x2="389.5" y2="215" gradientUnits="userSpaceOnUse">
<stop stop-color="#00C6FF"/>
<stop offset="1" stop-color="#0072FF"/>
</linearGradient>
<linearGradient id="paint19_linear" x1="397.5" y1="155" x2="397.5" y2="215" gradientUnits="userSpaceOnUse">
<stop stop-color="#FEA859"/>
<stop offset="1" stop-color="#EE765E"/>
</linearGradient>
<linearGradient id="paint20_linear" x1="423.5" y1="197" x2="423.5" y2="215" gradientUnits="userSpaceOnUse">
<stop stop-color="#00C6FF"/>
<stop offset="1" stop-color="#0072FF"/>
</linearGradient>
<linearGradient id="paint21_linear" x1="431.5" y1="155" x2="431.5" y2="215" gradientUnits="userSpaceOnUse">
<stop stop-color="#FEA859"/>
<stop offset="1" stop-color="#EE765E"/>
</linearGradient>
<linearGradient id="paint22_linear" x1="457.5" y1="137" x2="457.5" y2="215" gradientUnits="userSpaceOnUse">
<stop stop-color="#00C6FF"/>
<stop offset="1" stop-color="#0072FF"/>
</linearGradient>
<linearGradient id="paint23_linear" x1="465.5" y1="116" x2="465.5" y2="215" gradientUnits="userSpaceOnUse">
<stop stop-color="#FEA859"/>
<stop offset="1" stop-color="#EE765E"/>
</linearGradient>
<linearGradient id="paint24_linear" x1="235" y1="31" x2="235" y2="39" gradientUnits="userSpaceOnUse">
<stop stop-color="#00C6FF"/>
<stop offset="1" stop-color="#0072FF"/>
</linearGradient>
</defs>
</svg>
