<svg xmlns="http://www.w3.org/2000/svg" width="128.639" height="43" viewBox="0 0 128.639 43"><defs><style>.a{fill:#fecf00;}.b{fill:#fff;}</style></defs><g transform="translate(0 0)"><g transform="translate(0 0)"><path class="a" d="M118.395,0H10.25c-.394,0-.784,0-1.177,0-.329,0-.656.008-.988.014a14.206,14.206,0,0,0-2.154.19A7.165,7.165,0,0,0,3.887.88a6.921,6.921,0,0,0-1.74,1.267A6.728,6.728,0,0,0,.881,3.89,7.1,7.1,0,0,0,.209,5.936,13.968,13.968,0,0,0,.016,8.088c-.01.33-.011.66-.016.99V33.925c.005.334.006.657.016.991a13.967,13.967,0,0,0,.193,2.152,7.082,7.082,0,0,0,.672,2.047,6.673,6.673,0,0,0,1.267,1.735,6.745,6.745,0,0,0,1.74,1.267,7.2,7.2,0,0,0,2.043.678,14.464,14.464,0,0,0,2.154.19c.332.007.659.012.988.012.393,0,.783,0,1.177,0H118.395c.386,0,.779,0,1.165,0,.328,0,.663,0,.991-.012a14.275,14.275,0,0,0,2.15-.19,7.315,7.315,0,0,0,2.051-.678,6.748,6.748,0,0,0,1.738-1.267,6.875,6.875,0,0,0,1.27-1.735,7.1,7.1,0,0,0,.666-2.047,14.521,14.521,0,0,0,.2-2.152c0-.334,0-.657,0-.991.008-.391.008-.779.008-1.176v-22.5c0-.394,0-.784-.008-1.174,0-.33,0-.66,0-.99a14.52,14.52,0,0,0-.2-2.152,7.114,7.114,0,0,0-.666-2.046A6.951,6.951,0,0,0,124.752.88,7.275,7.275,0,0,0,122.7.206a14.022,14.022,0,0,0-2.15-.19C120.224.01,119.888,0,119.56,0c-.386,0-.779,0-1.165,0Z" transform="translate(0 0)"/><path class="a" d="M9.013,41.994c-.328,0-.647,0-.972-.012a13.639,13.639,0,0,1-2.009-.175,6.325,6.325,0,0,1-1.781-.589,5.811,5.811,0,0,1-1.5-1.093,5.72,5.72,0,0,1-1.1-1.5,6.151,6.151,0,0,1-.584-1.781,13.344,13.344,0,0,1-.179-2.016c-.007-.227-.016-.982-.016-.982V9.012s.01-.743.016-.962a13.3,13.3,0,0,1,.178-2.012,6.187,6.187,0,0,1,.584-1.787,5.777,5.777,0,0,1,1.091-1.5,5.983,5.983,0,0,1,1.508-1.1,6.26,6.26,0,0,1,1.777-.585A13.53,13.53,0,0,1,8.043.888l.97-.013H119.489l.982.014a13.314,13.314,0,0,1,2,.175,6.384,6.384,0,0,1,1.8.589,6.013,6.013,0,0,1,2.6,2.6,6.2,6.2,0,0,1,.575,1.773,13.969,13.969,0,0,1,.187,2.029c0,.3,0,.631,0,.957.008.4.008.787.008,1.174v22.5c0,.391,0,.772-.008,1.156,0,.35,0,.67,0,1a13.689,13.689,0,0,1-.184,1.993,6.169,6.169,0,0,1-.58,1.8,5.891,5.891,0,0,1-1.092,1.49,5.819,5.819,0,0,1-1.5,1.1,6.3,6.3,0,0,1-1.793.591,13.483,13.483,0,0,1-2.009.175c-.315.007-.645.012-.965.012l-1.165,0Z" transform="translate(0.065 0.066)"/><g transform="translate(10.719 9.374)"><path class="b" d="M25.879,20.775a5.32,5.32,0,0,1,2.533-4.463,5.446,5.446,0,0,0-4.29-2.319c-1.805-.189-3.555,1.08-4.475,1.08-.938,0-2.354-1.061-3.879-1.03a5.714,5.714,0,0,0-4.808,2.932c-2.079,3.6-.528,8.89,1.463,11.8,1,1.425,2.161,3.016,3.685,2.96,1.491-.062,2.048-.951,3.848-.951,1.783,0,2.306.951,3.86.915,1.6-.026,2.608-1.431,3.57-2.869A11.784,11.784,0,0,0,29.017,25.5a5.141,5.141,0,0,1-3.138-4.729Z" transform="translate(-9.972 -8.326)"/><path class="b" d="M22.281,12.473a5.238,5.238,0,0,0,1.2-3.752A5.329,5.329,0,0,0,20.031,10.5,4.984,4.984,0,0,0,18.8,14.118a4.406,4.406,0,0,0,3.48-1.645Z" transform="translate(-9.31 -8.72)"/><g transform="translate(26.29 9.837)"><path class="b" d="M42.893,27.819H37.8l-1.222,3.608H34.427l4.82-13.349h2.239l4.82,13.349H44.114Zm-4.561-1.665h4.033L40.377,20.3h-.056Z" transform="translate(-34.427 -17.855)"/><path class="b" d="M55.8,26.316c0,3.024-1.619,4.968-4.062,4.968a3.3,3.3,0,0,1-3.062-1.7h-.046V34.4h-2V21.45h1.934v1.619H48.6a3.452,3.452,0,0,1,3.1-1.721C54.171,21.348,55.8,23.3,55.8,26.316Zm-2.053,0c0-1.97-1.018-3.266-2.572-3.266-1.526,0-2.553,1.323-2.553,3.266,0,1.961,1.027,3.274,2.553,3.274,1.554,0,2.572-1.286,2.572-3.274Z" transform="translate(-33.512 -17.61)"/><path class="b" d="M65.764,26.316c0,3.024-1.619,4.968-4.062,4.968a3.3,3.3,0,0,1-3.062-1.7h-.046V34.4h-2V21.45H58.53v1.619h.037a3.452,3.452,0,0,1,3.1-1.721C64.136,21.348,65.764,23.3,65.764,26.316Zm-2.053,0c0-1.97-1.018-3.266-2.572-3.266-1.526,0-2.553,1.323-2.553,3.266,0,1.961,1.027,3.274,2.553,3.274,1.554,0,2.572-1.286,2.572-3.274Z" transform="translate(-32.765 -17.61)"/><path class="b" d="M71.853,27.723c.148,1.324,1.434,2.193,3.191,2.193,1.684,0,2.9-.869,2.9-2.063,0-1.036-.731-1.657-2.461-2.082l-1.73-.417c-2.451-.592-3.589-1.738-3.589-3.6,0-2.3,2.007-3.885,4.857-3.885,2.821,0,4.755,1.582,4.82,3.885H77.82C77.7,20.424,76.6,19.62,74.989,19.62s-2.711.814-2.711,2c0,.944.7,1.5,2.424,1.924l1.471.361c2.739.648,3.877,1.748,3.877,3.7,0,2.5-1.989,4.062-5.153,4.062-2.96,0-4.959-1.527-5.088-3.942Z" transform="translate(-31.774 -17.871)"/><path class="b" d="M83.585,19.3v2.3h1.851v1.582H83.585v5.366c0,.834.371,1.222,1.184,1.222a6.242,6.242,0,0,0,.657-.046V31.3a5.486,5.486,0,0,1-1.11.092c-1.97,0-2.739-.74-2.739-2.628V23.185H80.163V21.6h1.415V19.3Z" transform="translate(-30.997 -17.764)"/><path class="b" d="M86.065,26.318c0-3.062,1.8-4.987,4.616-4.987S95.3,23.255,95.3,26.318,93.512,31.3,90.681,31.3,86.065,29.388,86.065,26.318Zm7.2,0c0-2.1-.963-3.34-2.581-3.34s-2.58,1.249-2.58,3.34c0,2.109.962,3.339,2.58,3.339s2.581-1.23,2.581-3.339Z" transform="translate(-30.555 -17.612)"/><path class="b" d="M96.186,21.45h1.905v1.657h.046a2.321,2.321,0,0,1,2.341-1.758,3.081,3.081,0,0,1,.684.075v1.869a2.793,2.793,0,0,0-.9-.121,2.013,2.013,0,0,0-2.082,2.239v5.773h-2Z" transform="translate(-29.796 -17.61)"/><path class="b" d="M110,28.325c-.269,1.767-1.989,2.979-4.191,2.979-2.831,0-4.589-1.9-4.589-4.94s1.767-5.033,4.5-5.033c2.693,0,4.386,1.85,4.386,4.8v.684h-6.874v.121a2.535,2.535,0,0,0,2.618,2.757,2.2,2.2,0,0,0,2.248-1.369Zm-6.753-2.9h4.866a2.341,2.341,0,0,0-2.387-2.47,2.464,2.464,0,0,0-2.478,2.47Z" transform="translate(-29.418 -17.612)"/></g></g></g><g transform="translate(38.346 9.07)"><path class="b" d="M37.988,8.732a2.838,2.838,0,0,1,3.018,3.187c0,2.049-1.108,3.227-3.018,3.227H35.671V8.732Zm-1.321,5.507h1.209a2.017,2.017,0,0,0,2.115-2.307,2.022,2.022,0,0,0-2.115-2.294H36.667Z" transform="translate(-35.671 -8.415)"/><path class="b" d="M41.681,12.62a2.293,2.293,0,1,1,4.566,0,2.294,2.294,0,1,1-4.566,0Zm3.583,0c0-1.049-.471-1.663-1.3-1.663s-1.3.614-1.3,1.663.467,1.667,1.3,1.667S45.264,13.673,45.264,12.62Z" transform="translate(-35.221 -8.312)"/><path class="b" d="M51.949,15.036h-.991l-1-3.565h-.076l-1,3.565H47.9l-1.334-4.841h.969l.867,3.694h.071l1-3.694h.916l1,3.694h.076l.863-3.694h.955Z" transform="translate(-34.854 -8.305)"/><path class="b" d="M53.854,10.2h.92v.769h.071a1.449,1.449,0,0,1,1.445-.862,1.574,1.574,0,0,1,1.675,1.8v3.134h-.955V12.149c0-.778-.338-1.165-1.045-1.165a1.11,1.11,0,0,0-1.156,1.227v2.832h-.955Z" transform="translate(-34.307 -8.312)"/><path class="b" d="M59.094,8.437h.955v6.73h-.955Z" transform="translate(-33.914 -8.437)"/><path class="b" d="M61.219,12.62a2.293,2.293,0,1,1,4.566,0,2.294,2.294,0,1,1-4.566,0Zm3.583,0c0-1.049-.471-1.663-1.3-1.663s-1.3.614-1.3,1.663.467,1.667,1.3,1.667S64.8,13.673,64.8,12.62Z" transform="translate(-33.756 -8.312)"/><path class="b" d="M66.4,13.673c0-.871.649-1.374,1.8-1.445l1.311-.076v-.418c0-.511-.338-.8-.991-.8-.533,0-.9.2-1.009.538h-.925c.1-.831.88-1.365,1.978-1.365,1.214,0,1.9.6,1.9,1.627v3.307h-.92v-.68h-.076a1.629,1.629,0,0,1-1.454.76A1.462,1.462,0,0,1,66.4,13.673Zm3.112-.414v-.4l-1.182.076c-.667.045-.969.271-.969.7s.378.689.9.689a1.141,1.141,0,0,0,1.253-1.058Z" transform="translate(-33.366 -8.312)"/><path class="b" d="M71.348,12.745c0-1.53.786-2.5,2.009-2.5a1.6,1.6,0,0,1,1.484.849h.071V8.437h.955v6.73h-.915V14.4h-.076a1.68,1.68,0,0,1-1.52.845C72.126,15.247,71.348,14.278,71.348,12.745Zm.987,0c0,1.027.484,1.645,1.293,1.645s1.3-.627,1.3-1.64-.5-1.645-1.3-1.645-1.293.622-1.293,1.64Z" transform="translate(-32.995 -8.437)"/><path class="b" d="M79.231,12.62a2.293,2.293,0,1,1,4.566,0,2.294,2.294,0,1,1-4.566,0Zm3.583,0c0-1.049-.471-1.663-1.3-1.663s-1.3.614-1.3,1.663.467,1.667,1.3,1.667S82.814,13.673,82.814,12.62Z" transform="translate(-32.405 -8.312)"/><path class="b" d="M84.669,10.2h.92v.769h.071a1.449,1.449,0,0,1,1.445-.862,1.574,1.574,0,0,1,1.675,1.8v3.134h-.955V12.149c0-.778-.338-1.165-1.045-1.165a1.11,1.11,0,0,0-1.156,1.227v2.832h-.955Z" transform="translate(-31.996 -8.312)"/><path class="b" d="M93.636,9.074V10.3h1.049v.8H93.636v2.489c0,.507.209.729.684.729a3.189,3.189,0,0,0,.364-.022v.8a3.134,3.134,0,0,1-.52.049c-1.062,0-1.485-.374-1.485-1.307V11.106h-.768v-.8h.768V9.074Z" transform="translate(-31.453 -8.389)"/><path class="b" d="M95.7,8.437h.947V11.1h.076a1.49,1.49,0,0,1,1.476-.867,1.595,1.595,0,0,1,1.667,1.8v3.125h-.956v-2.89c0-.773-.36-1.165-1.035-1.165A1.131,1.131,0,0,0,96.66,12.34v2.827H95.7Z" transform="translate(-31.169 -8.437)"/><path class="b" d="M105.065,13.735a1.965,1.965,0,0,1-2.1,1.4,2.2,2.2,0,0,1-2.236-2.5,2.233,2.233,0,0,1,2.232-2.529c1.347,0,2.159.92,2.159,2.44v.333H101.7v.054a1.279,1.279,0,0,0,1.289,1.387,1.16,1.16,0,0,0,1.152-.587Zm-3.36-1.56h2.445a1.168,1.168,0,0,0-1.192-1.254,1.238,1.238,0,0,0-1.253,1.254Z" transform="translate(-30.793 -8.312)"/></g></g></svg>