<svg xmlns="http://www.w3.org/2000/svg" width="472" height="1200" viewBox="0 0 472 1200"><defs><style>.a{fill:#ffe6a9;opacity:0.19;}.b{fill:#453890;}.c{fill:#fafafa;}.d{fill:#b1a2fe;}.e{fill:#ffd000;}</style></defs><g transform="translate(-1248 -760)"><rect class="a" width="472" height="1200" rx="24" transform="translate(1248 760)"/><g transform="translate(1459 925)"><path class="b" d="M33.411,0A33.411,33.411,0,1,0,66.822,33.411,33.448,33.448,0,0,0,33.411,0Zm0,0"/><path class="c" d="M173.228,170.082l-18.1,18.1a2.782,2.782,0,0,1-3.937,0l-9.049-9.049a2.784,2.784,0,0,1,3.937-3.937l7.08,7.08,16.129-16.129a2.784,2.784,0,0,1,3.937,3.937Zm0,0" transform="translate(-122.883 -143.751)"/></g><g transform="translate(1464.178 1773.178)"><path class="b" d="M33.411,0A33.411,33.411,0,1,0,66.822,33.411,33.448,33.448,0,0,0,33.411,0Zm0,0"/><path class="c" d="M173.228,170.082l-18.1,18.1a2.782,2.782,0,0,1-3.937,0l-9.049-9.049a2.784,2.784,0,0,1,3.937-3.937l7.08,7.08,16.129-16.129a2.784,2.784,0,0,1,3.937,3.937Zm0,0" transform="translate(-122.883 -143.751)"/></g><g transform="translate(1464.178 1533.178)"><path class="b" d="M33.411,0A33.411,33.411,0,1,0,66.822,33.411,33.448,33.448,0,0,0,33.411,0Zm0,0"/><path class="c" d="M173.228,170.082l-18.1,18.1a2.782,2.782,0,0,1-3.937,0l-9.049-9.049a2.784,2.784,0,0,1,3.937-3.937l7.08,7.08,16.129-16.129a2.784,2.784,0,0,1,3.937,3.937Zm0,0" transform="translate(-122.883 -143.751)"/></g><g transform="translate(1464.178 1653.178)"><path class="b" d="M33.411,0A33.411,33.411,0,1,0,66.822,33.411,33.448,33.448,0,0,0,33.411,0Zm0,0"/><path class="c" d="M173.228,170.082l-18.1,18.1a2.782,2.782,0,0,1-3.937,0l-9.049-9.049a2.784,2.784,0,0,1,3.937-3.937l7.08,7.08,16.129-16.129a2.784,2.784,0,0,1,3.937,3.937Zm0,0" transform="translate(-122.883 -143.751)"/></g><rect class="d" width="37" height="4" rx="2" transform="translate(1474 1076)"/><rect class="d" width="37" height="4" rx="2" transform="translate(1474 1206)"/><rect class="d" width="37" height="4" rx="2" transform="translate(1474 1336)"/><rect class="d" width="37" height="4" rx="2" transform="translate(1474 1452)"/><rect class="e" width="367" height="6" rx="3" transform="translate(1317 872)"/></g></svg>