<svg xmlns="http://www.w3.org/2000/svg" width="1806.78" height="1556.231" viewBox="0 0 1806.78 1556.231"><defs><style>.a,.d{fill:#ffd000;}.b,.c{fill:none;}.b{stroke:#000;stroke-miterlimit:10;stroke-width:2.52px;}.c{stroke:#010101;stroke-linecap:round;stroke-linejoin:round;stroke-width:8px;}.d{fill-rule:evenodd;}</style></defs><g transform="translate(-5155.22 -5162.477)"><g transform="translate(4891 3227)"><path class="a" d="M1657.35,881.755a26.275,26.275,0,0,1,0,37.39l-37.75-37.39a26.872,26.872,0,0,1,37.75,0Z" transform="translate(-41 1061.467)"/><path class="b" d="M1636.92,936.505a26.277,26.277,0,0,1,0-37.39l37.74,37.39a26.86,26.86,0,0,1-37.74,0Z" transform="translate(-41 1061.467)"/></g><g transform="translate(4771 3375)"><path class="c" d="M1637.22,773.886a13,13,0,1,0-13-13A13,13,0,0,0,1637.22,773.886Z" transform="translate(-1236 2271.467)"/></g><path class="d" d="M49.049,57.358c6.92-1.892,14.257-4.573,20.91-1.889,7.35,2.965,15.359,8.885,16.01,16.784.664,8.057-9.625,12.422-13,19.769-2.751,5.992.835,15.1-4.673,18.721-5.56,3.658-12.675-1.944-19.249-2.984-5.225-.826-10.578-.057-15.281-2.478A32.058,32.058,0,0,1,21.05,93.346C17.2,87.025,10.712,79.495,14,72.859c3.408-6.888,14.048-4.742,21.076-7.85C40.051,62.807,43.8,58.794,49.049,57.358Z" transform="translate(6876 6606.74)"/></g></svg>