<svg width="67" height="67" viewBox="0 0 67 67" fill="none" xmlns="http://www.w3.org/2000/svg">
<g clip-path="url(#clip0)">
<path d="M33.411 0C26.8029 0 20.3433 1.95952 14.8489 5.63077C9.35445 9.30202 5.07208 14.5201 2.54328 20.6252C0.0144765 26.7302 -0.647173 33.4481 0.641998 39.9292C1.93117 46.4103 5.11326 52.3635 9.78587 57.0361C14.4585 61.7088 20.4118 64.8908 26.8929 66.18C33.374 67.4692 40.0918 66.8075 46.1968 64.2787C52.3019 61.7499 57.52 57.4676 61.1912 51.9732C64.8625 46.4787 66.822 40.0191 66.822 33.411C66.8122 24.5529 63.289 16.0603 57.0253 9.79667C50.7617 3.53302 42.2692 0.00979342 33.411 0V0Z" fill="white"/>
<path d="M50.3441 26.3308L32.2441 44.4308C31.9857 44.6895 31.6789 44.8948 31.3411 45.0348C31.0033 45.1749 30.6413 45.247 30.2756 45.247C29.91 45.247 29.5479 45.1749 29.2101 45.0348C28.8724 44.8948 28.5655 44.6895 28.3071 44.4308L19.2581 35.3818C18.744 34.8581 18.4576 34.1525 18.461 33.4187C18.4644 32.6848 18.7574 31.982 19.2764 31.463C19.7953 30.9441 20.4981 30.6511 21.232 30.6477C21.9658 30.6442 22.6714 30.9307 23.1951 31.4448L30.2751 38.5248L46.4041 22.3958C46.9278 21.8817 47.6334 21.5952 48.3672 21.5987C49.1011 21.6021 49.8039 21.8951 50.3229 22.414C50.8418 22.933 51.1348 23.6358 51.1383 24.3697C51.1417 25.1035 50.8552 25.8091 50.3411 26.3328L50.3441 26.3308Z" fill="#502EFF"/>
</g>
<defs>
<clipPath id="clip0">
<rect width="66.822" height="66.822" fill="white"/>
</clipPath>
</defs>
</svg>
