<svg xmlns="http://www.w3.org/2000/svg" width="31.954" height="17.988" viewBox="0 0 31.954 17.988"><defs><style>.a{fill:#453890;}</style></defs><g transform="translate(0 0)"><path class="a" d="M343.761,166.64h.528a1.565,1.565,0,0,1,1.564,1.564v2.457a.457.457,0,0,1-.209.385.631.631,0,0,0-.287.534v2.366a.75.75,0,0,0,.424.678,18.621,18.621,0,0,1,3.369,2.164.545.545,0,0,1,.2.424v1.681a.645.645,0,0,0,1.29,0v-1.681a1.821,1.821,0,0,0-.671-1.421,19.844,19.844,0,0,0-3.324-2.17v-1.74a1.754,1.754,0,0,0,.5-1.219V168.2a2.858,2.858,0,0,0-2.855-2.855h-.528A2.858,2.858,0,0,0,340.9,168.2v2.457a1.754,1.754,0,0,0,.5,1.219v.841a.645.645,0,1,0,1.29,0v-1.134a.647.647,0,0,0-.287-.534.457.457,0,0,1-.209-.385v-2.457A1.571,1.571,0,0,1,343.761,166.64Z" transform="translate(-318.683 -161.557)"/><path class="a" d="M.671,175.891A1.842,1.842,0,0,0,0,177.311v1.681a.645.645,0,0,0,1.29,0v-1.681a.555.555,0,0,1,.2-.424,19.02,19.02,0,0,1,3.369-2.164.75.75,0,0,0,.424-.678v-2.366a.647.647,0,0,0-.287-.534.457.457,0,0,1-.209-.385V168.3a1.565,1.565,0,0,1,1.564-1.564h.528A1.565,1.565,0,0,1,8.44,168.3v2.457a.457.457,0,0,1-.209.385.631.631,0,0,0-.287.534v1.186a.645.645,0,0,0,1.29,0v-.886a1.754,1.754,0,0,0,.5-1.219V168.3a2.858,2.858,0,0,0-2.855-2.855H6.348A2.858,2.858,0,0,0,3.493,168.3v2.457a1.754,1.754,0,0,0,.5,1.219v1.74A20.571,20.571,0,0,0,.671,175.891Z" transform="translate(0 -161.65)"/><path class="a" d="M133.3,125.138a.643.643,0,0,0,.645-.645v-2.177a2.168,2.168,0,0,0-.8-1.688,25.554,25.554,0,0,0-4.367-2.842v-2.451a2.079,2.079,0,0,0,.639-1.5v-3.18a3.512,3.512,0,0,0-3.506-3.506h-.684a3.512,3.512,0,0,0-3.506,3.506v3.18a2.08,2.08,0,0,0,.639,1.5v2.451A25.555,25.555,0,0,0,118,120.628a2.168,2.168,0,0,0-.8,1.688v2.177a.645.645,0,0,0,1.29,0v-2.177a.888.888,0,0,1,.326-.691,24.618,24.618,0,0,1,4.4-2.822.777.777,0,0,0,.443-.7v-3.063a.647.647,0,0,0-.287-.534.788.788,0,0,1-.352-.658v-3.18a2.218,2.218,0,0,1,2.216-2.216h.684a2.218,2.218,0,0,1,2.216,2.216v3.18a.8.8,0,0,1-.352.658.631.631,0,0,0-.287.534V118.1a.793.793,0,0,0,.443.71,24.618,24.618,0,0,1,4.4,2.822.887.887,0,0,1,.326.691V124.5A.622.622,0,0,0,133.3,125.138Z" transform="translate(-109.562 -107.15)"/></g></svg>