<svg xmlns="http://www.w3.org/2000/svg" width="33.79" height="22.268" viewBox="0 0 33.79 22.268"><defs><style>.a{fill:#453890;}</style></defs><g transform="translate(0 0)"><path class="a" d="M.068,95.063a.668.668,0,0,0,.393.345l4.318,1.483A.615.615,0,0,0,5,96.926a.688.688,0,0,0,.648-.462L9.035,86.58l.172.062a3.5,3.5,0,0,0,2.69-.152l.421-.207a2.116,2.116,0,0,1,1.614-.1L21.809,88.9a1.522,1.522,0,0,1-.517.848,1.627,1.627,0,0,1-1.448,0l-3.531-1.207a.683.683,0,0,0-.545.048.7.7,0,0,0-.338.428,4.7,4.7,0,0,1-2.035,2.662,4.419,4.419,0,0,1-3.587.048.685.685,0,1,0-.441,1.3,7.294,7.294,0,0,0,2.345.428,4.888,4.888,0,0,0,2.338-.572A5.748,5.748,0,0,0,16.5,90.063l2.9.993a2.881,2.881,0,0,0,2.669-.172,3.227,3.227,0,0,0,1.179-2.407.7.7,0,0,0-.462-.669l-8.415-2.9a3.5,3.5,0,0,0-2.662.166l-.421.207a2.136,2.136,0,0,1-1.635.1l-.7-.248a.457.457,0,0,0-.131-.062l-4.3-1.5a.683.683,0,0,0-.869.428L.034,94.546A.71.71,0,0,0,.068,95.063Zm4.663-9.987,3.021,1.035L4.579,95.374,1.558,94.339Z" transform="translate(0 -83.528)"/><path class="a" d="M96,102.145a2,2,0,0,0,1.731,1.117,2.058,2.058,0,0,0,.2.876,1.968,1.968,0,0,0,1.152,1.014,1.958,1.958,0,0,0,1.524-.1l.359-.179a2.07,2.07,0,0,0,.186.621,1.968,1.968,0,0,0,1.152,1.014,1.959,1.959,0,0,0,1.524-.1l7.842-3.842a20.192,20.192,0,0,0,4.8-3.276l1.752-1.607,4.007-1.959a.679.679,0,0,0,.31-.91L117.656,84.8a.685.685,0,0,0-.917-.31l-4.1,2.007a.679.679,0,0,0-.31.91l4.676,9.56L115.56,98.3a19.053,19.053,0,0,1-4.476,3.055l-7.842,3.842a.634.634,0,0,1-.49.028.65.65,0,0,1-.366-.324.634.634,0,0,1-.028-.49.65.65,0,0,1,.324-.366l4.387-2.145a.68.68,0,1,0-.6-1.221l-4.387,2.145h0l-2.069,1.014a.634.634,0,0,1-.49.028.65.65,0,0,1-.366-.324.634.634,0,0,1-.028-.49.65.65,0,0,1,.324-.366l6.29-3.076a.68.68,0,0,0-.6-1.221l-7.07,3.456a.648.648,0,0,1-.855-.29.634.634,0,0,1-.028-.49.65.65,0,0,1,.324-.366l2.786-1.366h0l3.621-1.773a.68.68,0,1,0-.6-1.221L97.689,99.1a.639.639,0,1,1-.566-1.145l2.993-1.462a.68.68,0,1,0-.6-1.221L96.523,96.73a2,2,0,0,0-.352,3.38A1.971,1.971,0,0,0,96,102.145Zm17.857-14.726,2.869-1.407,4.3,8.794-2.869,1.407Z" transform="translate(-88.82 -84.354)"/></g></svg>