<svg xmlns="http://www.w3.org/2000/svg" width="36.561" height="32.325" viewBox="0 0 36.561 32.325"><defs><style>.a{fill:#453890;}</style></defs><g transform="translate(0 0)"><path class="a" d="M148.938,39.752a2.029,2.029,0,0,0-.738,1.566v1.827a.738.738,0,0,0,1.477,0V41.318a.553.553,0,0,1,.2-.425,20.556,20.556,0,0,1,3.655-2.342.869.869,0,0,0,.485-.768V35.21a.74.74,0,0,0-.328-.612.478.478,0,0,1-.209-.388V31.54a1.665,1.665,0,0,1,1.663-1.663h.574a1.665,1.665,0,0,1,1.663,1.663v2.67a.459.459,0,0,1-.209.388.722.722,0,0,0-.328.612v2.573a.854.854,0,0,0,.477.768,20.839,20.839,0,0,1,3.655,2.342.553.553,0,0,1,.2.425v1.827a.738.738,0,1,0,1.477,0V41.318a2.007,2.007,0,0,0-.738-1.566,21.945,21.945,0,0,0-3.595-2.349V35.545a1.934,1.934,0,0,0,.537-1.343V31.54a3.145,3.145,0,0,0-3.14-3.14h-.574A3.145,3.145,0,0,0,152,31.54v2.67a1.934,1.934,0,0,0,.537,1.343V37.4A21.621,21.621,0,0,0,148.938,39.752Z" transform="translate(-137.147 -28.4)"/><path class="a" d="M310.209,269.591a.735.735,0,0,0,.738-.738v-1.827a2.007,2.007,0,0,0-.738-1.566,21.948,21.948,0,0,0-3.6-2.349v-1.857a1.934,1.934,0,0,0,.537-1.343v-2.67a3.145,3.145,0,0,0-3.14-3.14h-.574a3.145,3.145,0,0,0-3.14,3.14v2.67a1.934,1.934,0,0,0,.537,1.343v1.857a21.95,21.95,0,0,0-3.595,2.349,2.018,2.018,0,0,0-.738,1.566v1.827a.738.738,0,1,0,1.477,0v-1.827a.553.553,0,0,1,.2-.425,19.666,19.666,0,0,1,3.655-2.342.862.862,0,0,0,.477-.768v-2.573a.74.74,0,0,0-.328-.612.478.478,0,0,1-.209-.388v-2.67a1.665,1.665,0,0,1,1.663-1.663h.574a1.665,1.665,0,0,1,1.663,1.663v2.67a.459.459,0,0,1-.209.388.722.722,0,0,0-.328.612v2.573a.854.854,0,0,0,.477.768,20.843,20.843,0,0,1,3.655,2.342.553.553,0,0,1,.2.425v1.827A.74.74,0,0,0,310.209,269.591Z" transform="translate(-274.386 -237.266)"/><path class="a" d="M13.709,265.459a21.949,21.949,0,0,0-3.595-2.349v-1.857a1.934,1.934,0,0,0,.537-1.343v-2.67a3.145,3.145,0,0,0-3.14-3.14H6.936a3.145,3.145,0,0,0-3.14,3.14v2.67a1.934,1.934,0,0,0,.537,1.343v1.857a21.949,21.949,0,0,0-3.595,2.349A2.018,2.018,0,0,0,0,267.026v1.827a.738.738,0,1,0,1.477,0v-1.827a.553.553,0,0,1,.2-.425,19.665,19.665,0,0,1,3.655-2.342.862.862,0,0,0,.477-.768v-2.573a.74.74,0,0,0-.328-.612.478.478,0,0,1-.209-.388v-2.67a1.665,1.665,0,0,1,1.663-1.663h.574a1.665,1.665,0,0,1,1.663,1.663v2.67a.459.459,0,0,1-.209.388.722.722,0,0,0-.328.612v2.573a.854.854,0,0,0,.477.768,20.372,20.372,0,0,1,3.655,2.342.553.553,0,0,1,.2.425v1.827a.738.738,0,1,0,1.477,0v-1.827A2.007,2.007,0,0,0,13.709,265.459Z" transform="translate(0 -237.266)"/><path class="a" d="M184.931,233.289a.74.74,0,0,0,.738-1.283l-4.139-2.387v-4.781a.738.738,0,1,0-1.477,0v4.781l-4.139,2.394a.741.741,0,0,0,.373,1.38.707.707,0,0,0,.365-.1l4.139-2.394Z" transform="translate(-162.451 -209.504)"/></g></svg>