<svg xmlns="http://www.w3.org/2000/svg" width="26.202" height="26.056" viewBox="0 0 26.202 26.056"><defs><style>.a{fill:#453890;stroke:#453890;stroke-width:0.5px;}</style></defs><g transform="translate(0.25 0.25)"><g transform="translate(0 0)"><path class="a" d="M276.617,1.4a.515.515,0,0,0-.517.517V12.162a.515.515,0,0,0,.517.517h10.244a.515.515,0,0,0,.517-.517A10.759,10.759,0,0,0,276.617,1.4Zm.517,10.244V2.45a9.732,9.732,0,0,1,9.2,9.194Z" transform="translate(-261.676 -1.4)"/><path class="a" d="M23.179,58.392a.515.515,0,0,0-.517-.517H12.109V47.317a.515.515,0,0,0-.517-.517A11.592,11.592,0,1,0,23.179,58.392ZM11.592,68.95a10.559,10.559,0,0,1-.517-21.105V58.387a.515.515,0,0,0,.517.517H22.134A10.573,10.573,0,0,1,11.592,68.95Z" transform="translate(0 -44.428)"/></g></g></svg>