<svg xmlns="http://www.w3.org/2000/svg" width="35.486" height="24.133" viewBox="0 0 35.486 24.133"><defs><style>.a{fill:#453890;}</style></defs><g transform="translate(0 0)"><path class="a" d="M.717,3.684H2.049v20.8a1.907,1.907,0,0,0,1.9,1.9H31.671a1.907,1.907,0,0,0,1.9-1.9V3.684H34.77a.717.717,0,1,0,0-1.434H.717a.717.717,0,1,0,0,1.434Zm2.766,0H32.141v20.8a.47.47,0,0,1-.471.471H3.953a.47.47,0,0,1-.471-.471Z" transform="translate(0 -2.25)"/><path class="a" d="M388.916,142.873l-1.18,1.187a.717.717,0,1,0,1.014,1.014l1.687-1.7a.712.712,0,0,0,.21-.507.744.744,0,0,0-.21-.507l-1.7-1.687a.717.717,0,0,0-1.014,1.014Z" transform="translate(-359.454 -130.455)"/><path class="a" d="M64.9,145.032a.725.725,0,0,0,.507.21.738.738,0,0,0,.507-.21.712.712,0,0,0,0-1.014l-1.18-1.187,1.187-1.18a.717.717,0,1,0-1.014-1.014l-1.7,1.687a.717.717,0,0,0,0,1.014Z" transform="translate(-58.438 -130.42)"/><path class="a" d="M121.417,78.471H138a.714.714,0,0,0,.717-.717V63.867A.714.714,0,0,0,138,63.15H121.417a.714.714,0,0,0-.717.717V77.762A.712.712,0,0,0,121.417,78.471Zm.717-13.888h15.147v6.958l-3.454-3.454a.712.712,0,0,0-1.014,0L127.506,73.4l-1.644-1.636a.717.717,0,0,0-1.014,0l-2.715,2.715Zm0,11.918,3.222-3.222L127,74.923a.717.717,0,0,0,1.014,0l5.307-5.307,3.961,3.961v3.468H122.134Z" transform="translate(-111.961 -58.74)"/><path class="a" d="M172.617,105.358a2.208,2.208,0,1,0-2.208,2.208A2.213,2.213,0,0,0,172.617,105.358Zm-2.983,0a.775.775,0,1,1,.775.775A.776.776,0,0,1,169.634,105.358Z" transform="translate(-156.021 -95.844)"/></g></svg>