<svg xmlns="http://www.w3.org/2000/svg" width="26.577" height="30.396" viewBox="0 0 26.577 30.396"><defs><style>.a,.b{fill:#453890;}.a{stroke:#fbdfa9;stroke-width:0.5px;}.c,.d{stroke:none;}.d{fill:#fbdfa9;}</style></defs><g transform="translate(0 0)"><path class="a" d="M178.929,379.534l-5.424,5.424-2.036-2.036a.64.64,0,0,0-.9.905l2.489,2.489a.64.64,0,0,0,.905,0l5.876-5.876a.636.636,0,0,0,0-.905A.648.648,0,0,0,178.929,379.534Z" transform="translate(-161.829 -356.357)"/><g class="b" transform="translate(-296.5 -254.1)"><path class="c" d="M 321.7182312011719 282.347412109375 C 321.1071166992188 282.347412109375 320.6099243164063 281.8502197265625 320.6099243164063 281.2391052246094 L 320.6099243164063 277.8776245117188 C 320.6099243164063 277.4994506835938 320.4416809082031 277.14404296875 320.1483459472656 276.9025268554688 C 317.43994140625 274.6877136230469 314.5115966796875 273.1304321289063 313.3782653808594 272.5636901855469 C 312.9278564453125 272.3442687988281 312.6383056640625 271.8777465820313 312.6383056640625 271.3740844726563 L 312.6383056640625 266.6405334472656 C 312.6383056640625 266.2645263671875 312.8210754394531 265.9225463867188 313.1272277832031 265.7257385253906 C 313.4455871582031 265.5135498046875 313.6261901855469 265.1777038574219 313.6261901855469 264.802001953125 L 313.6261901855469 259.8900451660156 C 313.6261901855469 258.0650939941406 312.1414794921875 256.5803833007813 310.3164978027344 256.5803833007813 L 309.2600708007813 256.5803833007813 C 307.4350891113281 256.5803833007813 305.9503784179688 258.0650939941406 305.9503784179688 259.8900451660156 L 305.9503784179688 264.802001953125 C 305.9503784179688 265.1600646972656 306.133544921875 265.5031127929688 306.4403686523438 265.7196960449219 L 306.4430847167969 265.7216186523438 L 306.4458618164063 265.7234497070313 C 306.7495727539063 265.9259033203125 306.938232421875 266.2773132324219 306.938232421875 266.6405334472656 L 306.938232421875 271.3740844726563 C 306.938232421875 271.8700256347656 306.6418151855469 272.3476257324219 306.2006530761719 272.5625305175781 C 306.1698303222656 272.576904296875 302.7057800292969 274.2069396972656 299.4283447265625 276.9024353027344 C 299.1348876953125 277.1441040039063 298.9666748046875 277.49951171875 298.9666748046875 277.8776245117188 L 298.9666748046875 281.2391052246094 C 298.9666748046875 281.860595703125 298.4798278808594 282.347412109375 297.8583374023438 282.347412109375 C 297.2368469238281 282.347412109375 296.75 281.860595703125 296.75 281.2391052246094 L 296.75 277.8776245117188 C 296.75 276.8338928222656 297.2119750976563 275.8539428710938 298.0174865722656 275.1891174316406 C 300.5539855957031 273.1113586425781 303.222412109375 271.6074829101563 304.5871887207031 270.8960266113281 L 304.7216186523438 270.8259582519531 L 304.7216186523438 270.6743469238281 L 304.7216186523438 267.2579650878906 L 304.7216186523438 267.1575012207031 L 304.6521301269531 267.0849914550781 C 304.0598754882813 266.4669799804688 303.7337341308594 265.6513366699219 303.7337341308594 264.7882690429688 L 303.7337341308594 259.8763427734375 C 303.7337341308594 256.8291015625 306.2128295898438 254.3500061035156 309.2600708007813 254.3500061035156 L 310.3164978027344 254.3500061035156 C 313.3637390136719 254.3500061035156 315.8428649902344 256.8291015625 315.8428649902344 259.8763427734375 L 315.8428649902344 264.7882690429688 C 315.8428649902344 265.6513671875 315.5167236328125 266.4670104980469 314.9244689941406 267.0849914550781 L 314.85498046875 267.1575012207031 L 314.85498046875 267.2579650878906 L 314.85498046875 270.6743469238281 L 314.85498046875 270.8259582519531 L 314.9894104003906 270.8960266113281 C 316.3540344238281 271.6073608398438 319.0222473144531 273.1110534667969 321.559814453125 275.189697265625 C 322.3652648925781 275.8417358398438 322.8265991210938 276.8211059570313 322.8265991210938 277.8776245117188 L 322.8265991210938 281.2391052246094 C 322.8265991210938 281.860595703125 322.3397521972656 282.347412109375 321.7182312011719 282.347412109375 Z"/><path class="d" d="M 321.7182312011719 282.097412109375 C 322.1995544433594 282.097412109375 322.5765991210938 281.7203979492188 322.5765991210938 281.2391052246094 L 322.5765991210938 277.8776245117188 C 322.5765991210938 276.8969116210938 322.1490783691406 275.9883728027344 321.4013977050781 275.3831176757813 C 318.8811950683594 273.3186950683594 316.2299499511719 271.8245849609375 314.8738708496094 271.1177368164063 L 314.60498046875 270.9775695800781 L 314.60498046875 270.6743469238281 L 314.60498046875 267.2579650878906 L 314.60498046875 267.0570678710938 L 314.7439880371094 266.9120178222656 C 315.2914123535156 266.3407897949219 315.5928649902344 265.5865783691406 315.5928649902344 264.7882690429688 L 315.5928649902344 259.8763427734375 C 315.5928649902344 256.9669494628906 313.2258911132813 254.6000061035156 310.3164978027344 254.6000061035156 L 309.2600708007813 254.6000061035156 C 306.3506774902344 254.6000061035156 303.9837341308594 256.9669494628906 303.9837341308594 259.8763427734375 L 303.9837341308594 264.7882690429688 C 303.9837341308594 265.5865478515625 304.2852172851563 266.3407592773438 304.8326110839844 266.9120178222656 L 304.9716186523438 267.0570678710938 L 304.9716186523438 267.2579650878906 L 304.9716186523438 270.6743469238281 L 304.9716186523438 270.9775390625 L 304.7027587890625 271.1177062988281 C 303.3464965820313 271.82470703125 300.6950378417969 273.3189697265625 298.1766052246094 275.3819274902344 C 297.4288635253906 275.9991149902344 297 276.9087524414063 297 277.8776245117188 L 297 281.2391052246094 C 297 281.7203979492188 297.3770446777344 282.097412109375 297.8583374023438 282.097412109375 C 298.3396606445313 282.097412109375 298.7166748046875 281.7203979492188 298.7166748046875 281.2391052246094 L 298.7166748046875 277.8776245117188 C 298.7166748046875 277.4245300292969 298.9180908203125 276.998779296875 299.26953125 276.7093505859375 C 302.5134887695313 274.0414123535156 305.9419555664063 272.4081726074219 306.09375 272.3365478515625 C 306.4494323730469 272.1619262695313 306.688232421875 271.7755432128906 306.688232421875 271.3740844726563 L 306.688232421875 266.6405334472656 C 306.688232421875 266.3598327636719 306.542236328125 266.0881652832031 306.3071899414063 265.9314880371094 L 306.3016357421875 265.9277954101563 L 306.2962036132813 265.9239196777344 C 305.9231262207031 265.6605834960938 305.7003784179688 265.2411804199219 305.7003784179688 264.802001953125 L 305.7003784179688 259.8900451660156 C 305.7003784179688 257.92724609375 307.2972412109375 256.3303833007813 309.2600708007813 256.3303833007813 L 310.3164978027344 256.3303833007813 C 312.2793273925781 256.3303833007813 313.8761901855469 257.92724609375 313.8761901855469 259.8900451660156 L 313.8761901855469 264.802001953125 C 313.8761901855469 265.2627258300781 313.6549987792969 265.6744079589844 313.2693786621094 265.9314880371094 L 313.2658996582031 265.9338073730469 L 313.2624206542969 265.93603515625 C 313.0281677246094 266.0866088867188 312.8883056640625 266.3499755859375 312.8883056640625 266.6405334472656 L 312.8883056640625 271.3740844726563 C 312.8883056640625 271.7828063964844 313.1226806640625 272.1610717773438 313.4854431152344 272.3377990722656 L 313.4877624511719 272.3389282226563 L 313.4900817871094 272.340087890625 C 314.6308898925781 272.9105834960938 317.5787658691406 274.478271484375 320.3072509765625 276.7095336914063 C 320.6584777832031 276.9987182617188 320.8599243164063 277.4244689941406 320.8599243164063 277.8776245117188 L 320.8599243164063 281.2391052246094 C 320.8599243164063 281.7123718261719 321.2449645996094 282.097412109375 321.7182312011719 282.097412109375 M 321.7182312011719 282.597412109375 C 320.9773254394531 282.597412109375 320.3599243164063 281.9937438964844 320.3599243164063 281.2391052246094 L 320.3599243164063 277.8776245117188 C 320.3599243164063 277.5757446289063 320.2227172851563 277.28759765625 319.9894409179688 277.0955200195313 C 317.0532836914063 274.6944580078125 313.8701171875 273.0891723632813 313.2664489746094 272.7872924804688 C 312.7313537597656 272.526611328125 312.3883056640625 271.977783203125 312.3883056640625 271.3740844726563 L 312.3883056640625 266.6405334472656 C 312.3883056640625 266.1877746582031 312.6078796386719 265.7623901367188 312.9920349121094 265.5154418945313 C 313.2389831542969 265.350830078125 313.3761901855469 265.0901489257813 313.3761901855469 264.802001953125 L 313.3761901855469 259.8900451660156 C 313.3761901855469 258.2024536132813 312.004150390625 256.8303833007813 310.3164978027344 256.8303833007813 L 309.2600708007813 256.8303833007813 C 307.5724182128906 256.8303833007813 306.2003784179688 258.2024536132813 306.2003784179688 259.8900451660156 L 306.2003784179688 264.802001953125 C 306.2003784179688 265.0901489257813 306.351318359375 265.350830078125 306.5845336914063 265.5154418945313 C 306.9549865722656 265.7623901367188 307.188232421875 266.1877746582031 307.188232421875 266.6405334472656 L 307.188232421875 271.3740844726563 C 307.188232421875 271.9640502929688 306.84521484375 272.526611328125 306.3101501464844 272.7872924804688 C 305.6926879882813 273.075439453125 302.5232849121094 274.6807250976563 299.5871276855469 277.0955200195313 C 299.3538818359375 277.2876281738281 299.2166748046875 277.5757446289063 299.2166748046875 277.8776245117188 L 299.2166748046875 281.2391052246094 C 299.2166748046875 281.9937438964844 298.6129760742188 282.597412109375 297.8583374023438 282.597412109375 C 297.1036987304688 282.597412109375 296.5 281.9937438964844 296.5 281.2391052246094 L 296.5 277.8776245117188 C 296.5 276.7525024414063 296.9939270019531 275.7097778320313 297.8583374023438 274.9963073730469 C 300.4377746582031 272.8833618164063 303.1819152832031 271.3466491699219 304.4716186523438 270.6743469238281 L 304.4716186523438 267.2579650878906 C 303.8404846191406 266.599365234375 303.4837341308594 265.7212524414063 303.4837341308594 264.7882690429688 L 303.4837341308594 259.8763427734375 C 303.4837341308594 256.6931762695313 306.0768737792969 254.1000061035156 309.2600708007813 254.1000061035156 L 310.3164978027344 254.1000061035156 C 313.4996948242188 254.1000061035156 316.0928649902344 256.6931762695313 316.0928649902344 259.8763427734375 L 316.0928649902344 264.7882690429688 C 316.0928649902344 265.7212524414063 315.7361450195313 266.599365234375 315.10498046875 267.2579650878906 L 315.10498046875 270.6743469238281 C 316.3947448730469 271.3466491699219 319.1387939453125 272.8833618164063 321.7182312011719 274.9963073730469 C 322.5826416015625 275.696044921875 323.0765991210938 276.7525024414063 323.0765991210938 277.8776245117188 L 323.0765991210938 281.2391052246094 C 323.0765991210938 281.9937438964844 322.4728698730469 282.597412109375 321.7182312011719 282.597412109375 Z"/></g></g></svg>