<svg width="460" height="18" viewBox="0 0 460 18" fill="none" xmlns="http://www.w3.org/2000/svg">
<mask id="path-1-outside-1" maskUnits="userSpaceOnUse" x="0" y="0" width="460" height="18" fill="black">
<rect fill="white" width="460" height="18"/>
<path d="M2.67497 1.20021H1V13.3629H9.15875V11.9948H2.67497V1.20021Z"/>
<path d="M19.7956 12.5454C19.6335 12.5787 19.5615 12.5787 19.4714 12.5787C18.9491 12.5787 18.661 12.3285 18.661 11.8947V6.756C18.661 5.20438 17.4362 4.37018 15.1129 4.37018C13.7261 4.37018 12.6274 4.73723 11.9791 5.3879C11.5468 5.83837 11.3667 6.33889 11.3307 7.20647H12.8436C12.9696 6.13869 13.654 5.65485 15.0589 5.65485C16.4277 5.65485 17.1661 6.122 17.1661 6.9562V7.32325C17.1481 7.92388 16.8239 8.14077 15.5992 8.29093C13.4739 8.54119 13.1498 8.60792 12.5734 8.82482C11.4748 9.2586 10.9165 10.0261 10.9165 11.1606C10.9165 12.7456 12.1051 13.7466 14.0143 13.7466C15.2029 13.7466 16.1575 13.3629 17.2201 12.4619C17.3282 13.3629 17.7965 13.7466 18.769 13.7466C19.0932 13.7466 19.2913 13.7132 19.7956 13.5965V12.5454ZM17.1661 10.61C17.1661 11.0772 17.022 11.3608 16.5717 11.7445C15.9594 12.2617 15.221 12.5287 14.3384 12.5287C13.1678 12.5287 12.4834 12.0115 12.4834 11.1272C12.4834 10.2096 13.1317 9.74244 14.7527 9.52555C16.3556 9.32534 16.6618 9.2586 17.1661 9.04171V10.61Z"/>
<path d="M25.0893 4.62044H23.5404V2.21794H22.0455V4.62044H20.7668V5.75495H22.0455V12.3618C22.0455 13.2628 22.6939 13.7466 23.8646 13.7466C24.2608 13.7466 24.585 13.7132 25.0893 13.6298V12.4619C24.8732 12.512 24.675 12.5287 24.3689 12.5287C23.7205 12.5287 23.5404 12.3618 23.5404 11.7445V5.75495H25.0893V4.62044Z"/>
<path d="M35.0608 9.45881C35.0608 8.12409 34.9527 7.32325 34.6825 6.67258C34.0702 5.23775 32.6293 4.37018 30.8643 4.37018C28.2348 4.37018 26.5418 6.22211 26.5418 9.10845C26.5418 11.9948 28.1628 13.7466 30.8283 13.7466C32.9896 13.7466 34.4844 12.6121 34.8626 10.7101H33.3498C32.9355 11.8613 32.089 12.4619 30.8823 12.4619C29.9278 12.4619 29.1173 12.0615 28.613 11.3274C28.2528 10.8269 28.1267 10.3264 28.1087 9.45881H35.0608ZM28.1447 8.3243C28.2708 6.70594 29.3334 5.65485 30.8463 5.65485C32.3772 5.65485 33.4398 6.756 33.4398 8.3243H28.1447Z"/>
<path d="M44.1877 7.05631C44.1697 5.33785 42.945 4.37018 40.7657 4.37018C38.5684 4.37018 37.1456 5.42127 37.1456 7.03963C37.1456 8.40772 37.9021 9.05839 40.1354 9.55892L41.5402 9.87591C42.5848 10.1095 42.999 10.4599 42.999 11.0772C42.999 11.9114 42.1165 12.4619 40.8017 12.4619C39.9913 12.4619 39.3069 12.245 38.9286 11.878C38.6945 11.6277 38.5865 11.3775 38.4964 10.7602H36.9115C36.9835 12.7789 38.2082 13.7466 40.6757 13.7466C43.0531 13.7466 44.5659 12.6621 44.5659 10.9771C44.5659 9.6757 43.7735 8.95829 41.9004 8.54119L40.4595 8.22419C39.2348 7.95725 38.7125 7.5902 38.7125 6.97289C38.7125 6.15537 39.487 5.65485 40.7117 5.65485C41.9184 5.65485 42.5668 6.13869 42.6028 7.05631H44.1877Z"/>
<path d="M50.3666 4.62044H48.8177V2.21794H47.3228V4.62044H46.0441V5.75495H47.3228V12.3618C47.3228 13.2628 47.9712 13.7466 49.1419 13.7466C49.5381 13.7466 49.8623 13.7132 50.3666 13.6298V12.4619C50.1504 12.512 49.9523 12.5287 49.6461 12.5287C48.9978 12.5287 48.8177 12.3618 48.8177 11.7445V5.75495H50.3666V4.62044Z"/>
<path d="M68.5327 1.20021H66.9477V11.1439L60.0857 1.20021H58.2667V13.3629H59.8516V3.50261L66.6416 13.3629H68.5327V1.20021Z"/>
<path d="M79.6754 9.45881C79.6754 8.12409 79.5673 7.32325 79.2972 6.67258C78.6848 5.23775 77.244 4.37018 75.4789 4.37018C72.8494 4.37018 71.1564 6.22211 71.1564 9.10845C71.1564 11.9948 72.7774 13.7466 75.4429 13.7466C77.6042 13.7466 79.099 12.6121 79.4773 10.7101H77.9644C77.5501 11.8613 76.7037 12.4619 75.4969 12.4619C74.5424 12.4619 73.7319 12.0615 73.2276 11.3274C72.8674 10.8269 72.7413 10.3264 72.7233 9.45881H79.6754ZM72.7594 8.3243C72.8854 6.70594 73.948 5.65485 75.4609 5.65485C76.9918 5.65485 78.0544 6.756 78.0544 8.3243H72.7594Z"/>
<path d="M90.8036 13.3629L93.5772 4.62044H91.8842L90.0111 11.4275L88.1561 4.62044H86.319L84.5179 11.4275L82.5908 4.62044H80.9339L83.6714 13.3629H85.3644L87.1835 6.50574L89.0926 13.3629H90.8036Z"/>
<path d="M102.165 7.05631C102.147 5.33785 100.922 4.37018 98.7426 4.37018C96.5453 4.37018 95.1225 5.42127 95.1225 7.03963C95.1225 8.40772 95.8789 9.05839 98.1122 9.55892L99.517 9.87591C100.562 10.1095 100.976 10.4599 100.976 11.0772C100.976 11.9114 100.093 12.4619 98.7786 12.4619C97.9681 12.4619 97.2837 12.245 96.9055 11.878C96.6714 11.6277 96.5633 11.3775 96.4732 10.7602H94.8883C94.9604 12.7789 96.1851 13.7466 98.6525 13.7466C101.03 13.7466 102.543 12.6621 102.543 10.9771C102.543 9.6757 101.75 8.95829 99.8772 8.54119L98.4364 8.22419C97.2117 7.95725 96.6894 7.5902 96.6894 6.97289C96.6894 6.15537 97.4638 5.65485 98.6885 5.65485C99.8952 5.65485 100.544 6.13869 100.58 7.05631H102.165Z"/>
<path d="M112.076 4.62044H110.581V13.3629H112.076V4.62044ZM112.076 1.20021H110.563V2.95203H112.076V1.20021Z"/>
<path d="M115.168 4.62044V13.3629H116.681V8.54119C116.681 6.756 117.69 5.58811 119.238 5.58811C120.427 5.58811 121.184 6.25547 121.184 7.30657V13.3629H122.678V6.756C122.678 5.30448 121.508 4.37018 119.689 4.37018C118.284 4.37018 117.383 4.8707 116.555 6.08863V4.62044H115.168Z"/>
<path d="M136.384 2.5683H140.689V1.20021H130.387V2.5683H134.709V13.3629H136.384V2.5683Z"/>
<path d="M149.128 9.45881C149.128 8.12409 149.02 7.32325 148.749 6.67258C148.137 5.23775 146.696 4.37018 144.931 4.37018C142.302 4.37018 140.609 6.22211 140.609 9.10845C140.609 11.9948 142.23 13.7466 144.895 13.7466C147.056 13.7466 148.551 12.6121 148.929 10.7101H147.417C147.002 11.8613 146.156 12.4619 144.949 12.4619C143.995 12.4619 143.184 12.0615 142.68 11.3274C142.32 10.8269 142.194 10.3264 142.176 9.45881H149.128ZM142.212 8.3243C142.338 6.70594 143.4 5.65485 144.913 5.65485C146.444 5.65485 147.507 6.756 147.507 8.3243H142.212Z"/>
<path d="M158.919 7.55683C158.847 6.70594 158.649 6.15537 158.289 5.67153C157.64 4.85401 156.506 4.37018 155.191 4.37018C152.634 4.37018 150.995 6.23879 150.995 9.14181C150.995 11.9614 152.616 13.7466 155.173 13.7466C157.424 13.7466 158.847 12.4953 159.027 10.3597H157.514C157.262 11.7612 156.488 12.4619 155.209 12.4619C153.552 12.4619 152.562 11.2106 152.562 9.14181C152.562 6.9562 153.534 5.65485 155.173 5.65485C156.434 5.65485 157.226 6.33889 157.406 7.55683H158.919Z"/>
<path d="M161.243 1.20021V13.3629H162.737V8.54119C162.737 6.756 163.746 5.58811 165.295 5.58811C165.799 5.58811 166.267 5.72159 166.628 5.97185C167.06 6.27216 167.24 6.68926 167.24 7.30657V13.3629H168.735V6.756C168.735 5.2878 167.6 4.37018 165.763 4.37018C164.43 4.37018 163.62 4.75391 162.737 5.82169V1.20021H161.243Z"/>
<path d="M171.791 4.62044V13.3629H173.304V8.54119C173.304 6.756 174.312 5.58811 175.861 5.58811C177.05 5.58811 177.806 6.25547 177.806 7.30657V13.3629H179.301V6.756C179.301 5.30448 178.13 4.37018 176.311 4.37018C174.906 4.37018 174.006 4.8707 173.177 6.08863V4.62044H171.791Z"/>
<path d="M185.977 4.37018C183.311 4.37018 181.726 6.122 181.726 9.05839C181.726 12.0115 183.311 13.7466 185.995 13.7466C188.66 13.7466 190.263 11.9948 190.263 9.12513C190.263 6.08863 188.714 4.37018 185.977 4.37018ZM185.995 5.65485C187.688 5.65485 188.696 6.93952 188.696 9.10845C188.696 11.1773 187.652 12.4619 185.995 12.4619C184.32 12.4619 183.293 11.1773 183.293 9.05839C183.293 6.93952 184.32 5.65485 185.995 5.65485Z"/>
<path d="M194.364 1.20021H192.851V13.3629H194.364V1.20021Z"/>
<path d="M201.058 4.37018C198.392 4.37018 196.807 6.122 196.807 9.05839C196.807 12.0115 198.392 13.7466 201.076 13.7466C203.741 13.7466 205.344 11.9948 205.344 9.12513C205.344 6.08863 203.795 4.37018 201.058 4.37018ZM201.076 5.65485C202.769 5.65485 203.777 6.93952 203.777 9.10845C203.777 11.1773 202.733 12.4619 201.076 12.4619C199.401 12.4619 198.374 11.1773 198.374 9.05839C198.374 6.93952 199.401 5.65485 201.076 5.65485Z"/>
<path d="M213.983 4.62044V5.88843C213.227 4.83733 212.398 4.37018 211.21 4.37018C208.922 4.37018 207.337 6.33889 207.337 9.14181C207.337 10.61 207.716 11.6778 208.526 12.562C209.229 13.3295 210.129 13.7466 211.102 13.7466C212.236 13.7466 213.047 13.2795 213.839 12.1783V12.6288C213.839 14.9645 213.137 15.8321 211.264 15.8321C209.985 15.8321 209.319 15.365 209.174 14.3639H207.644C207.788 15.9823 209.174 17 211.228 17C212.614 17 213.767 16.5829 214.38 15.8822C215.1 15.0647 215.37 13.9802 215.37 11.9281V4.62044H213.983ZM211.354 5.65485C212.939 5.65485 213.839 6.88947 213.839 9.10845C213.839 11.2273 212.921 12.4619 211.354 12.4619C209.805 12.4619 208.904 11.2106 208.904 9.05839C208.904 6.92284 209.805 5.65485 211.354 5.65485Z"/>
<path d="M224.103 4.62044L221.491 11.4275L219.078 4.62044H217.475L220.662 13.3962L220.086 14.781C219.834 15.3983 219.51 15.6319 218.879 15.6319C218.627 15.6319 218.411 15.5985 218.087 15.5318V16.7831C218.393 16.9333 218.699 17 219.096 17C219.582 17 220.104 16.8498 220.5 16.5829C220.969 16.2659 221.239 15.8989 221.527 15.1981L225.723 4.62044H224.103Z"/>
<path d="M241.849 12.5454C241.686 12.5787 241.614 12.5787 241.524 12.5787C241.002 12.5787 240.714 12.3285 240.714 11.8947V6.756C240.714 5.20438 239.489 4.37018 237.166 4.37018C235.779 4.37018 234.68 4.73723 234.032 5.3879C233.6 5.83837 233.42 6.33889 233.384 7.20647H234.897C235.023 6.13869 235.707 5.65485 237.112 5.65485C238.481 5.65485 239.219 6.122 239.219 6.9562V7.32325C239.201 7.92388 238.877 8.14077 237.652 8.29093C235.527 8.54119 235.203 8.60792 234.626 8.82482C233.528 9.2586 232.969 10.0261 232.969 11.1606C232.969 12.7456 234.158 13.7466 236.067 13.7466C237.256 13.7466 238.21 13.3629 239.273 12.4619C239.381 13.3629 239.849 13.7466 240.822 13.7466C241.146 13.7466 241.344 13.7132 241.849 13.5965V12.5454ZM239.219 10.61C239.219 11.0772 239.075 11.3608 238.625 11.7445C238.012 12.2617 237.274 12.5287 236.391 12.5287C235.221 12.5287 234.536 12.0115 234.536 11.1272C234.536 10.2096 235.185 9.74244 236.806 9.52555C238.409 9.32534 238.715 9.2586 239.219 9.04171V10.61Z"/>
<path d="M244.022 4.62044V13.3629H245.535V8.54119C245.535 6.756 246.543 5.58811 248.092 5.58811C249.281 5.58811 250.037 6.25547 250.037 7.30657V13.3629H251.532V6.756C251.532 5.30448 250.361 4.37018 248.542 4.37018C247.138 4.37018 246.237 4.8707 245.409 6.08863V4.62044H244.022Z"/>
<path d="M262.224 1.20021H260.729V5.72159C260.099 4.83733 259.091 4.37018 257.83 4.37018C255.38 4.37018 253.777 6.18874 253.777 8.97497C253.777 11.9281 255.326 13.7466 257.884 13.7466C259.181 13.7466 260.081 13.2961 260.892 12.2117V13.3629H262.224V1.20021ZM258.082 5.67153C259.703 5.67153 260.729 6.98957 260.729 9.09176C260.729 11.1105 259.685 12.4453 258.1 12.4453C256.443 12.4453 255.344 11.0938 255.344 9.05839C255.344 7.02294 256.443 5.67153 258.082 5.67153Z"/>
<path d="M280.144 4.77059C280.144 3.93639 280.09 3.70282 279.802 3.13556C279.082 1.7341 277.551 1 275.336 1C272.454 1 270.671 2.36809 270.671 4.57039C270.671 6.05527 271.517 6.98957 273.246 7.40667L276.506 8.20751C278.181 8.60793 278.92 9.22523 278.92 10.1762C278.92 10.8269 278.542 11.4943 277.983 11.8613C277.461 12.2117 276.632 12.3785 275.57 12.3785C274.129 12.3785 273.174 12.0615 272.544 11.3608C272.058 10.8269 271.842 10.243 271.86 9.49218H270.275C270.293 10.61 270.527 11.3441 271.049 12.0115C271.95 13.1627 273.463 13.7466 275.462 13.7466C277.029 13.7466 278.307 13.4129 279.154 12.8123C280.036 12.1616 280.595 11.0772 280.595 10.0261C280.595 8.5245 279.586 7.42336 277.803 6.97289L274.507 6.15537C272.922 5.75495 272.346 5.2878 272.346 4.35349C272.346 3.11887 273.517 2.30136 275.282 2.30136C277.371 2.30136 278.542 3.16893 278.56 4.77059H280.144Z"/>
<path d="M291.476 12.5454C291.314 12.5787 291.242 12.5787 291.152 12.5787C290.629 12.5787 290.341 12.3285 290.341 11.8947V6.756C290.341 5.20438 289.116 4.37018 286.793 4.37018C285.406 4.37018 284.308 4.73723 283.659 5.3879C283.227 5.83837 283.047 6.33889 283.011 7.20647H284.524C284.65 6.13869 285.334 5.65485 286.739 5.65485C288.108 5.65485 288.846 6.122 288.846 6.9562V7.32325C288.828 7.92388 288.504 8.14077 287.279 8.29093C285.154 8.54119 284.83 8.60792 284.254 8.82482C283.155 9.2586 282.597 10.0261 282.597 11.1606C282.597 12.7456 283.785 13.7466 285.694 13.7466C286.883 13.7466 287.838 13.3629 288.9 12.4619C289.008 13.3629 289.477 13.7466 290.449 13.7466C290.773 13.7466 290.972 13.7132 291.476 13.5965V12.5454ZM288.846 10.61C288.846 11.0772 288.702 11.3608 288.252 11.7445C287.64 12.2617 286.901 12.5287 286.019 12.5287C284.848 12.5287 284.164 12.0115 284.164 11.1272C284.164 10.2096 284.812 9.74244 286.433 9.52555C288.036 9.32534 288.342 9.2586 288.846 9.04171V10.61Z"/>
<path d="M295.126 1.20021H293.613V13.3629H295.126V1.20021Z"/>
<path d="M306.161 9.45881C306.161 8.12409 306.053 7.32325 305.782 6.67258C305.17 5.23775 303.729 4.37018 301.964 4.37018C299.335 4.37018 297.642 6.22211 297.642 9.10845C297.642 11.9948 299.263 13.7466 301.928 13.7466C304.089 13.7466 305.584 12.6121 305.962 10.7101H304.45C304.035 11.8613 303.189 12.4619 301.982 12.4619C301.028 12.4619 300.217 12.0615 299.713 11.3274C299.353 10.8269 299.227 10.3264 299.209 9.45881H306.161ZM299.245 8.3243C299.371 6.70594 300.433 5.65485 301.946 5.65485C303.477 5.65485 304.54 6.756 304.54 8.3243H299.245Z"/>
<path d="M315.288 7.05631C315.27 5.33785 314.045 4.37018 311.866 4.37018C309.668 4.37018 308.245 5.42127 308.245 7.03963C308.245 8.40772 309.002 9.05839 311.235 9.55892L312.64 9.87591C313.685 10.1095 314.099 10.4599 314.099 11.0772C314.099 11.9114 313.216 12.4619 311.902 12.4619C311.091 12.4619 310.407 12.245 310.029 11.878C309.794 11.6277 309.686 11.3775 309.596 10.7602H308.011C308.083 12.7789 309.308 13.7466 311.776 13.7466C314.153 13.7466 315.666 12.6621 315.666 10.9771C315.666 9.6757 314.873 8.95829 313 8.54119L311.559 8.22419C310.335 7.95725 309.812 7.5902 309.812 6.97289C309.812 6.15537 310.587 5.65485 311.812 5.65485C313.018 5.65485 313.667 6.13869 313.703 7.05631H315.288Z"/>
<path d="M330.926 13.3629L334.619 3.16893V13.3629H336.203V1.20021H333.88L330.062 11.7946L326.172 1.20021H323.848V13.3629H325.433V3.16893L329.161 13.3629H330.926Z"/>
<path d="M347.676 12.5454C347.514 12.5787 347.442 12.5787 347.352 12.5787C346.83 12.5787 346.542 12.3285 346.542 11.8947V6.756C346.542 5.20438 345.317 4.37018 342.994 4.37018C341.607 4.37018 340.508 4.73723 339.86 5.3879C339.427 5.83837 339.247 6.33889 339.211 7.20647H340.724C340.85 6.13869 341.535 5.65485 342.94 5.65485C344.308 5.65485 345.047 6.122 345.047 6.9562V7.32325C345.029 7.92388 344.705 8.14077 343.48 8.29093C341.355 8.54119 341.03 8.60792 340.454 8.82482C339.355 9.2586 338.797 10.0261 338.797 11.1606C338.797 12.7456 339.986 13.7466 341.895 13.7466C343.084 13.7466 344.038 13.3629 345.101 12.4619C345.209 13.3629 345.677 13.7466 346.65 13.7466C346.974 13.7466 347.172 13.7132 347.676 13.5965V12.5454ZM345.047 10.61C345.047 11.0772 344.903 11.3608 344.452 11.7445C343.84 12.2617 343.102 12.5287 342.219 12.5287C341.048 12.5287 340.364 12.0115 340.364 11.1272C340.364 10.2096 341.012 9.74244 342.633 9.52555C344.236 9.32534 344.542 9.2586 345.047 9.04171V10.61Z"/>
<path d="M349.831 4.62044V13.3629H351.344V8.82482C351.362 6.72263 352.299 5.78832 354.37 5.83837V4.42023C354.118 4.38686 353.974 4.37018 353.794 4.37018C352.821 4.37018 352.083 4.90407 351.218 6.20542V4.62044H349.831Z"/>
<path d="M357.754 1.20021H356.259V13.3629H357.754V9.95933L359.213 8.62461L362.401 13.3629H364.256L360.402 7.64025L363.68 4.62044H361.752L357.754 8.3243V1.20021Z"/>
<path d="M373.613 9.45881C373.613 8.12409 373.505 7.32325 373.234 6.67258C372.622 5.23775 371.181 4.37018 369.416 4.37018C366.787 4.37018 365.094 6.22211 365.094 9.10845C365.094 11.9948 366.715 13.7466 369.38 13.7466C371.541 13.7466 373.036 12.6121 373.415 10.7101H371.902C371.487 11.8613 370.641 12.4619 369.434 12.4619C368.48 12.4619 367.669 12.0615 367.165 11.3274C366.805 10.8269 366.679 10.3264 366.661 9.45881H373.613ZM366.697 8.3243C366.823 6.70594 367.885 5.65485 369.398 5.65485C370.929 5.65485 371.992 6.756 371.992 8.3243H366.697Z"/>
<path d="M379.338 4.62044H377.789V2.21794H376.294V4.62044H375.015V5.75495H376.294V12.3618C376.294 13.2628 376.942 13.7466 378.113 13.7466C378.509 13.7466 378.833 13.7132 379.338 13.6298V12.4619C379.122 12.512 378.923 12.5287 378.617 12.5287C377.969 12.5287 377.789 12.3618 377.789 11.7445V5.75495H379.338V4.62044Z"/>
<path d="M382.93 4.62044H381.435V13.3629H382.93V4.62044ZM382.93 1.20021H381.417V2.95203H382.93V1.20021Z"/>
<path d="M386.022 4.62044V13.3629H387.535V8.54119C387.535 6.756 388.543 5.58811 390.092 5.58811C391.281 5.58811 392.037 6.25547 392.037 7.30657V13.3629H393.532V6.756C393.532 5.30448 392.361 4.37018 390.542 4.37018C389.138 4.37018 388.237 4.8707 387.409 6.08863V4.62044H386.022Z"/>
<path d="M402.585 4.62044V5.88843C401.829 4.83733 401 4.37018 399.812 4.37018C397.524 4.37018 395.939 6.33889 395.939 9.14181C395.939 10.61 396.318 11.6778 397.128 12.562C397.831 13.3295 398.731 13.7466 399.704 13.7466C400.838 13.7466 401.649 13.2795 402.441 12.1783V12.6288C402.441 14.9645 401.739 15.8321 399.866 15.8321C398.587 15.8321 397.921 15.365 397.777 14.3639H396.246C396.39 15.9823 397.777 17 399.83 17C401.217 17 402.369 16.5829 402.982 15.8822C403.702 15.0647 403.972 13.9802 403.972 11.9281V4.62044H402.585ZM399.956 5.65485C401.541 5.65485 402.441 6.88947 402.441 9.10845C402.441 11.2273 401.523 12.4619 399.956 12.4619C398.407 12.4619 397.506 11.2106 397.506 9.05839C397.506 6.92284 398.407 5.65485 399.956 5.65485Z"/>
<path d="M424.81 13.3629L428.142 1.20021H426.269L423.855 11.0772L420.866 1.20021H419.065L416.147 11.0772L413.679 1.20021H411.806L415.174 13.3629H417.011L419.947 3.36913L422.973 13.3629H424.81Z"/>
<path d="M433.365 4.37018C430.699 4.37018 429.114 6.122 429.114 9.05839C429.114 12.0115 430.699 13.7466 433.383 13.7466C436.048 13.7466 437.651 11.9948 437.651 9.12513C437.651 6.08863 436.102 4.37018 433.365 4.37018ZM433.383 5.65485C435.076 5.65485 436.084 6.93952 436.084 9.10845C436.084 11.1773 435.04 12.4619 433.383 12.4619C431.708 12.4619 430.681 11.1773 430.681 9.05839C430.681 6.93952 431.708 5.65485 433.383 5.65485Z"/>
<path d="M440.257 4.62044V13.3629H441.77V8.82482C441.788 6.72263 442.724 5.78832 444.795 5.83837V4.42023C444.543 4.38686 444.399 4.37018 444.219 4.37018C443.246 4.37018 442.508 4.90407 441.644 6.20542V4.62044H440.257Z"/>
<path d="M448.29 1.20021H446.777V13.3629H448.29V1.20021Z"/>
<path d="M459 1.20021H457.505V5.72159C456.875 4.83733 455.866 4.37018 454.605 4.37018C452.156 4.37018 450.553 6.18874 450.553 8.97497C450.553 11.9281 452.102 13.7466 454.659 13.7466C455.956 13.7466 456.857 13.2961 457.667 12.2117V13.3629H459V1.20021ZM454.858 5.67153C456.479 5.67153 457.505 6.98957 457.505 9.09176C457.505 11.1105 456.461 12.4453 454.876 12.4453C453.219 12.4453 452.12 11.0938 452.12 9.05839C452.12 7.02294 453.219 5.67153 454.858 5.67153Z"/>
</mask>
<path d="M2.67497 1.20021H1V13.3629H9.15875V11.9948H2.67497V1.20021Z" fill="#7282A8"/>
<path d="M19.7956 12.5454C19.6335 12.5787 19.5615 12.5787 19.4714 12.5787C18.9491 12.5787 18.661 12.3285 18.661 11.8947V6.756C18.661 5.20438 17.4362 4.37018 15.1129 4.37018C13.7261 4.37018 12.6274 4.73723 11.9791 5.3879C11.5468 5.83837 11.3667 6.33889 11.3307 7.20647H12.8436C12.9696 6.13869 13.654 5.65485 15.0589 5.65485C16.4277 5.65485 17.1661 6.122 17.1661 6.9562V7.32325C17.1481 7.92388 16.8239 8.14077 15.5992 8.29093C13.4739 8.54119 13.1498 8.60792 12.5734 8.82482C11.4748 9.2586 10.9165 10.0261 10.9165 11.1606C10.9165 12.7456 12.1051 13.7466 14.0143 13.7466C15.2029 13.7466 16.1575 13.3629 17.2201 12.4619C17.3282 13.3629 17.7965 13.7466 18.769 13.7466C19.0932 13.7466 19.2913 13.7132 19.7956 13.5965V12.5454ZM17.1661 10.61C17.1661 11.0772 17.022 11.3608 16.5717 11.7445C15.9594 12.2617 15.221 12.5287 14.3384 12.5287C13.1678 12.5287 12.4834 12.0115 12.4834 11.1272C12.4834 10.2096 13.1317 9.74244 14.7527 9.52555C16.3556 9.32534 16.6618 9.2586 17.1661 9.04171V10.61Z" fill="#7282A8"/>
<path d="M25.0893 4.62044H23.5404V2.21794H22.0455V4.62044H20.7668V5.75495H22.0455V12.3618C22.0455 13.2628 22.6939 13.7466 23.8646 13.7466C24.2608 13.7466 24.585 13.7132 25.0893 13.6298V12.4619C24.8732 12.512 24.675 12.5287 24.3689 12.5287C23.7205 12.5287 23.5404 12.3618 23.5404 11.7445V5.75495H25.0893V4.62044Z" fill="#7282A8"/>
<path d="M35.0608 9.45881C35.0608 8.12409 34.9527 7.32325 34.6825 6.67258C34.0702 5.23775 32.6293 4.37018 30.8643 4.37018C28.2348 4.37018 26.5418 6.22211 26.5418 9.10845C26.5418 11.9948 28.1628 13.7466 30.8283 13.7466C32.9896 13.7466 34.4844 12.6121 34.8626 10.7101H33.3498C32.9355 11.8613 32.089 12.4619 30.8823 12.4619C29.9278 12.4619 29.1173 12.0615 28.613 11.3274C28.2528 10.8269 28.1267 10.3264 28.1087 9.45881H35.0608ZM28.1447 8.3243C28.2708 6.70594 29.3334 5.65485 30.8463 5.65485C32.3772 5.65485 33.4398 6.756 33.4398 8.3243H28.1447Z" fill="#7282A8"/>
<path d="M44.1877 7.05631C44.1697 5.33785 42.945 4.37018 40.7657 4.37018C38.5684 4.37018 37.1456 5.42127 37.1456 7.03963C37.1456 8.40772 37.9021 9.05839 40.1354 9.55892L41.5402 9.87591C42.5848 10.1095 42.999 10.4599 42.999 11.0772C42.999 11.9114 42.1165 12.4619 40.8017 12.4619C39.9913 12.4619 39.3069 12.245 38.9286 11.878C38.6945 11.6277 38.5865 11.3775 38.4964 10.7602H36.9115C36.9835 12.7789 38.2082 13.7466 40.6757 13.7466C43.0531 13.7466 44.5659 12.6621 44.5659 10.9771C44.5659 9.6757 43.7735 8.95829 41.9004 8.54119L40.4595 8.22419C39.2348 7.95725 38.7125 7.5902 38.7125 6.97289C38.7125 6.15537 39.487 5.65485 40.7117 5.65485C41.9184 5.65485 42.5668 6.13869 42.6028 7.05631H44.1877Z" fill="#7282A8"/>
<path d="M50.3666 4.62044H48.8177V2.21794H47.3228V4.62044H46.0441V5.75495H47.3228V12.3618C47.3228 13.2628 47.9712 13.7466 49.1419 13.7466C49.5381 13.7466 49.8623 13.7132 50.3666 13.6298V12.4619C50.1504 12.512 49.9523 12.5287 49.6461 12.5287C48.9978 12.5287 48.8177 12.3618 48.8177 11.7445V5.75495H50.3666V4.62044Z" fill="#7282A8"/>
<path d="M68.5327 1.20021H66.9477V11.1439L60.0857 1.20021H58.2667V13.3629H59.8516V3.50261L66.6416 13.3629H68.5327V1.20021Z" fill="#7282A8"/>
<path d="M79.6754 9.45881C79.6754 8.12409 79.5673 7.32325 79.2972 6.67258C78.6848 5.23775 77.244 4.37018 75.4789 4.37018C72.8494 4.37018 71.1564 6.22211 71.1564 9.10845C71.1564 11.9948 72.7774 13.7466 75.4429 13.7466C77.6042 13.7466 79.099 12.6121 79.4773 10.7101H77.9644C77.5501 11.8613 76.7037 12.4619 75.4969 12.4619C74.5424 12.4619 73.7319 12.0615 73.2276 11.3274C72.8674 10.8269 72.7413 10.3264 72.7233 9.45881H79.6754ZM72.7594 8.3243C72.8854 6.70594 73.948 5.65485 75.4609 5.65485C76.9918 5.65485 78.0544 6.756 78.0544 8.3243H72.7594Z" fill="#7282A8"/>
<path d="M90.8036 13.3629L93.5772 4.62044H91.8842L90.0111 11.4275L88.1561 4.62044H86.319L84.5179 11.4275L82.5908 4.62044H80.9339L83.6714 13.3629H85.3644L87.1835 6.50574L89.0926 13.3629H90.8036Z" fill="#7282A8"/>
<path d="M102.165 7.05631C102.147 5.33785 100.922 4.37018 98.7426 4.37018C96.5453 4.37018 95.1225 5.42127 95.1225 7.03963C95.1225 8.40772 95.8789 9.05839 98.1122 9.55892L99.517 9.87591C100.562 10.1095 100.976 10.4599 100.976 11.0772C100.976 11.9114 100.093 12.4619 98.7786 12.4619C97.9681 12.4619 97.2837 12.245 96.9055 11.878C96.6714 11.6277 96.5633 11.3775 96.4732 10.7602H94.8883C94.9604 12.7789 96.1851 13.7466 98.6525 13.7466C101.03 13.7466 102.543 12.6621 102.543 10.9771C102.543 9.6757 101.75 8.95829 99.8772 8.54119L98.4364 8.22419C97.2117 7.95725 96.6894 7.5902 96.6894 6.97289C96.6894 6.15537 97.4638 5.65485 98.6885 5.65485C99.8952 5.65485 100.544 6.13869 100.58 7.05631H102.165Z" fill="#7282A8"/>
<path d="M112.076 4.62044H110.581V13.3629H112.076V4.62044ZM112.076 1.20021H110.563V2.95203H112.076V1.20021Z" fill="#7282A8"/>
<path d="M115.168 4.62044V13.3629H116.681V8.54119C116.681 6.756 117.69 5.58811 119.238 5.58811C120.427 5.58811 121.184 6.25547 121.184 7.30657V13.3629H122.678V6.756C122.678 5.30448 121.508 4.37018 119.689 4.37018C118.284 4.37018 117.383 4.8707 116.555 6.08863V4.62044H115.168Z" fill="#7282A8"/>
<path d="M136.384 2.5683H140.689V1.20021H130.387V2.5683H134.709V13.3629H136.384V2.5683Z" fill="#7282A8"/>
<path d="M149.128 9.45881C149.128 8.12409 149.02 7.32325 148.749 6.67258C148.137 5.23775 146.696 4.37018 144.931 4.37018C142.302 4.37018 140.609 6.22211 140.609 9.10845C140.609 11.9948 142.23 13.7466 144.895 13.7466C147.056 13.7466 148.551 12.6121 148.929 10.7101H147.417C147.002 11.8613 146.156 12.4619 144.949 12.4619C143.995 12.4619 143.184 12.0615 142.68 11.3274C142.32 10.8269 142.194 10.3264 142.176 9.45881H149.128ZM142.212 8.3243C142.338 6.70594 143.4 5.65485 144.913 5.65485C146.444 5.65485 147.507 6.756 147.507 8.3243H142.212Z" fill="#7282A8"/>
<path d="M158.919 7.55683C158.847 6.70594 158.649 6.15537 158.289 5.67153C157.64 4.85401 156.506 4.37018 155.191 4.37018C152.634 4.37018 150.995 6.23879 150.995 9.14181C150.995 11.9614 152.616 13.7466 155.173 13.7466C157.424 13.7466 158.847 12.4953 159.027 10.3597H157.514C157.262 11.7612 156.488 12.4619 155.209 12.4619C153.552 12.4619 152.562 11.2106 152.562 9.14181C152.562 6.9562 153.534 5.65485 155.173 5.65485C156.434 5.65485 157.226 6.33889 157.406 7.55683H158.919Z" fill="#7282A8"/>
<path d="M161.243 1.20021V13.3629H162.737V8.54119C162.737 6.756 163.746 5.58811 165.295 5.58811C165.799 5.58811 166.267 5.72159 166.628 5.97185C167.06 6.27216 167.24 6.68926 167.24 7.30657V13.3629H168.735V6.756C168.735 5.2878 167.6 4.37018 165.763 4.37018C164.43 4.37018 163.62 4.75391 162.737 5.82169V1.20021H161.243Z" fill="#7282A8"/>
<path d="M171.791 4.62044V13.3629H173.304V8.54119C173.304 6.756 174.312 5.58811 175.861 5.58811C177.05 5.58811 177.806 6.25547 177.806 7.30657V13.3629H179.301V6.756C179.301 5.30448 178.13 4.37018 176.311 4.37018C174.906 4.37018 174.006 4.8707 173.177 6.08863V4.62044H171.791Z" fill="#7282A8"/>
<path d="M185.977 4.37018C183.311 4.37018 181.726 6.122 181.726 9.05839C181.726 12.0115 183.311 13.7466 185.995 13.7466C188.66 13.7466 190.263 11.9948 190.263 9.12513C190.263 6.08863 188.714 4.37018 185.977 4.37018ZM185.995 5.65485C187.688 5.65485 188.696 6.93952 188.696 9.10845C188.696 11.1773 187.652 12.4619 185.995 12.4619C184.32 12.4619 183.293 11.1773 183.293 9.05839C183.293 6.93952 184.32 5.65485 185.995 5.65485Z" fill="#7282A8"/>
<path d="M194.364 1.20021H192.851V13.3629H194.364V1.20021Z" fill="#7282A8"/>
<path d="M201.058 4.37018C198.392 4.37018 196.807 6.122 196.807 9.05839C196.807 12.0115 198.392 13.7466 201.076 13.7466C203.741 13.7466 205.344 11.9948 205.344 9.12513C205.344 6.08863 203.795 4.37018 201.058 4.37018ZM201.076 5.65485C202.769 5.65485 203.777 6.93952 203.777 9.10845C203.777 11.1773 202.733 12.4619 201.076 12.4619C199.401 12.4619 198.374 11.1773 198.374 9.05839C198.374 6.93952 199.401 5.65485 201.076 5.65485Z" fill="#7282A8"/>
<path d="M213.983 4.62044V5.88843C213.227 4.83733 212.398 4.37018 211.21 4.37018C208.922 4.37018 207.337 6.33889 207.337 9.14181C207.337 10.61 207.716 11.6778 208.526 12.562C209.229 13.3295 210.129 13.7466 211.102 13.7466C212.236 13.7466 213.047 13.2795 213.839 12.1783V12.6288C213.839 14.9645 213.137 15.8321 211.264 15.8321C209.985 15.8321 209.319 15.365 209.174 14.3639H207.644C207.788 15.9823 209.174 17 211.228 17C212.614 17 213.767 16.5829 214.38 15.8822C215.1 15.0647 215.37 13.9802 215.37 11.9281V4.62044H213.983ZM211.354 5.65485C212.939 5.65485 213.839 6.88947 213.839 9.10845C213.839 11.2273 212.921 12.4619 211.354 12.4619C209.805 12.4619 208.904 11.2106 208.904 9.05839C208.904 6.92284 209.805 5.65485 211.354 5.65485Z" fill="#7282A8"/>
<path d="M224.103 4.62044L221.491 11.4275L219.078 4.62044H217.475L220.662 13.3962L220.086 14.781C219.834 15.3983 219.51 15.6319 218.879 15.6319C218.627 15.6319 218.411 15.5985 218.087 15.5318V16.7831C218.393 16.9333 218.699 17 219.096 17C219.582 17 220.104 16.8498 220.5 16.5829C220.969 16.2659 221.239 15.8989 221.527 15.1981L225.723 4.62044H224.103Z" fill="#7282A8"/>
<path d="M241.849 12.5454C241.686 12.5787 241.614 12.5787 241.524 12.5787C241.002 12.5787 240.714 12.3285 240.714 11.8947V6.756C240.714 5.20438 239.489 4.37018 237.166 4.37018C235.779 4.37018 234.68 4.73723 234.032 5.3879C233.6 5.83837 233.42 6.33889 233.384 7.20647H234.897C235.023 6.13869 235.707 5.65485 237.112 5.65485C238.481 5.65485 239.219 6.122 239.219 6.9562V7.32325C239.201 7.92388 238.877 8.14077 237.652 8.29093C235.527 8.54119 235.203 8.60792 234.626 8.82482C233.528 9.2586 232.969 10.0261 232.969 11.1606C232.969 12.7456 234.158 13.7466 236.067 13.7466C237.256 13.7466 238.21 13.3629 239.273 12.4619C239.381 13.3629 239.849 13.7466 240.822 13.7466C241.146 13.7466 241.344 13.7132 241.849 13.5965V12.5454ZM239.219 10.61C239.219 11.0772 239.075 11.3608 238.625 11.7445C238.012 12.2617 237.274 12.5287 236.391 12.5287C235.221 12.5287 234.536 12.0115 234.536 11.1272C234.536 10.2096 235.185 9.74244 236.806 9.52555C238.409 9.32534 238.715 9.2586 239.219 9.04171V10.61Z" fill="#7282A8"/>
<path d="M244.022 4.62044V13.3629H245.535V8.54119C245.535 6.756 246.543 5.58811 248.092 5.58811C249.281 5.58811 250.037 6.25547 250.037 7.30657V13.3629H251.532V6.756C251.532 5.30448 250.361 4.37018 248.542 4.37018C247.138 4.37018 246.237 4.8707 245.409 6.08863V4.62044H244.022Z" fill="#7282A8"/>
<path d="M262.224 1.20021H260.729V5.72159C260.099 4.83733 259.091 4.37018 257.83 4.37018C255.38 4.37018 253.777 6.18874 253.777 8.97497C253.777 11.9281 255.326 13.7466 257.884 13.7466C259.181 13.7466 260.081 13.2961 260.892 12.2117V13.3629H262.224V1.20021ZM258.082 5.67153C259.703 5.67153 260.729 6.98957 260.729 9.09176C260.729 11.1105 259.685 12.4453 258.1 12.4453C256.443 12.4453 255.344 11.0938 255.344 9.05839C255.344 7.02294 256.443 5.67153 258.082 5.67153Z" fill="#7282A8"/>
<path d="M280.144 4.77059C280.144 3.93639 280.09 3.70282 279.802 3.13556C279.082 1.7341 277.551 1 275.336 1C272.454 1 270.671 2.36809 270.671 4.57039C270.671 6.05527 271.517 6.98957 273.246 7.40667L276.506 8.20751C278.181 8.60793 278.92 9.22523 278.92 10.1762C278.92 10.8269 278.542 11.4943 277.983 11.8613C277.461 12.2117 276.632 12.3785 275.57 12.3785C274.129 12.3785 273.174 12.0615 272.544 11.3608C272.058 10.8269 271.842 10.243 271.86 9.49218H270.275C270.293 10.61 270.527 11.3441 271.049 12.0115C271.95 13.1627 273.463 13.7466 275.462 13.7466C277.029 13.7466 278.307 13.4129 279.154 12.8123C280.036 12.1616 280.595 11.0772 280.595 10.0261C280.595 8.5245 279.586 7.42336 277.803 6.97289L274.507 6.15537C272.922 5.75495 272.346 5.2878 272.346 4.35349C272.346 3.11887 273.517 2.30136 275.282 2.30136C277.371 2.30136 278.542 3.16893 278.56 4.77059H280.144Z" fill="#7282A8"/>
<path d="M291.476 12.5454C291.314 12.5787 291.242 12.5787 291.152 12.5787C290.629 12.5787 290.341 12.3285 290.341 11.8947V6.756C290.341 5.20438 289.116 4.37018 286.793 4.37018C285.406 4.37018 284.308 4.73723 283.659 5.3879C283.227 5.83837 283.047 6.33889 283.011 7.20647H284.524C284.65 6.13869 285.334 5.65485 286.739 5.65485C288.108 5.65485 288.846 6.122 288.846 6.9562V7.32325C288.828 7.92388 288.504 8.14077 287.279 8.29093C285.154 8.54119 284.83 8.60792 284.254 8.82482C283.155 9.2586 282.597 10.0261 282.597 11.1606C282.597 12.7456 283.785 13.7466 285.694 13.7466C286.883 13.7466 287.838 13.3629 288.9 12.4619C289.008 13.3629 289.477 13.7466 290.449 13.7466C290.773 13.7466 290.972 13.7132 291.476 13.5965V12.5454ZM288.846 10.61C288.846 11.0772 288.702 11.3608 288.252 11.7445C287.64 12.2617 286.901 12.5287 286.019 12.5287C284.848 12.5287 284.164 12.0115 284.164 11.1272C284.164 10.2096 284.812 9.74244 286.433 9.52555C288.036 9.32534 288.342 9.2586 288.846 9.04171V10.61Z" fill="#7282A8"/>
<path d="M295.126 1.20021H293.613V13.3629H295.126V1.20021Z" fill="#7282A8"/>
<path d="M306.161 9.45881C306.161 8.12409 306.053 7.32325 305.782 6.67258C305.17 5.23775 303.729 4.37018 301.964 4.37018C299.335 4.37018 297.642 6.22211 297.642 9.10845C297.642 11.9948 299.263 13.7466 301.928 13.7466C304.089 13.7466 305.584 12.6121 305.962 10.7101H304.45C304.035 11.8613 303.189 12.4619 301.982 12.4619C301.028 12.4619 300.217 12.0615 299.713 11.3274C299.353 10.8269 299.227 10.3264 299.209 9.45881H306.161ZM299.245 8.3243C299.371 6.70594 300.433 5.65485 301.946 5.65485C303.477 5.65485 304.54 6.756 304.54 8.3243H299.245Z" fill="#7282A8"/>
<path d="M315.288 7.05631C315.27 5.33785 314.045 4.37018 311.866 4.37018C309.668 4.37018 308.245 5.42127 308.245 7.03963C308.245 8.40772 309.002 9.05839 311.235 9.55892L312.64 9.87591C313.685 10.1095 314.099 10.4599 314.099 11.0772C314.099 11.9114 313.216 12.4619 311.902 12.4619C311.091 12.4619 310.407 12.245 310.029 11.878C309.794 11.6277 309.686 11.3775 309.596 10.7602H308.011C308.083 12.7789 309.308 13.7466 311.776 13.7466C314.153 13.7466 315.666 12.6621 315.666 10.9771C315.666 9.6757 314.873 8.95829 313 8.54119L311.559 8.22419C310.335 7.95725 309.812 7.5902 309.812 6.97289C309.812 6.15537 310.587 5.65485 311.812 5.65485C313.018 5.65485 313.667 6.13869 313.703 7.05631H315.288Z" fill="#7282A8"/>
<path d="M330.926 13.3629L334.619 3.16893V13.3629H336.203V1.20021H333.88L330.062 11.7946L326.172 1.20021H323.848V13.3629H325.433V3.16893L329.161 13.3629H330.926Z" fill="#7282A8"/>
<path d="M347.676 12.5454C347.514 12.5787 347.442 12.5787 347.352 12.5787C346.83 12.5787 346.542 12.3285 346.542 11.8947V6.756C346.542 5.20438 345.317 4.37018 342.994 4.37018C341.607 4.37018 340.508 4.73723 339.86 5.3879C339.427 5.83837 339.247 6.33889 339.211 7.20647H340.724C340.85 6.13869 341.535 5.65485 342.94 5.65485C344.308 5.65485 345.047 6.122 345.047 6.9562V7.32325C345.029 7.92388 344.705 8.14077 343.48 8.29093C341.355 8.54119 341.03 8.60792 340.454 8.82482C339.355 9.2586 338.797 10.0261 338.797 11.1606C338.797 12.7456 339.986 13.7466 341.895 13.7466C343.084 13.7466 344.038 13.3629 345.101 12.4619C345.209 13.3629 345.677 13.7466 346.65 13.7466C346.974 13.7466 347.172 13.7132 347.676 13.5965V12.5454ZM345.047 10.61C345.047 11.0772 344.903 11.3608 344.452 11.7445C343.84 12.2617 343.102 12.5287 342.219 12.5287C341.048 12.5287 340.364 12.0115 340.364 11.1272C340.364 10.2096 341.012 9.74244 342.633 9.52555C344.236 9.32534 344.542 9.2586 345.047 9.04171V10.61Z" fill="#7282A8"/>
<path d="M349.831 4.62044V13.3629H351.344V8.82482C351.362 6.72263 352.299 5.78832 354.37 5.83837V4.42023C354.118 4.38686 353.974 4.37018 353.794 4.37018C352.821 4.37018 352.083 4.90407 351.218 6.20542V4.62044H349.831Z" fill="#7282A8"/>
<path d="M357.754 1.20021H356.259V13.3629H357.754V9.95933L359.213 8.62461L362.401 13.3629H364.256L360.402 7.64025L363.68 4.62044H361.752L357.754 8.3243V1.20021Z" fill="#7282A8"/>
<path d="M373.613 9.45881C373.613 8.12409 373.505 7.32325 373.234 6.67258C372.622 5.23775 371.181 4.37018 369.416 4.37018C366.787 4.37018 365.094 6.22211 365.094 9.10845C365.094 11.9948 366.715 13.7466 369.38 13.7466C371.541 13.7466 373.036 12.6121 373.415 10.7101H371.902C371.487 11.8613 370.641 12.4619 369.434 12.4619C368.48 12.4619 367.669 12.0615 367.165 11.3274C366.805 10.8269 366.679 10.3264 366.661 9.45881H373.613ZM366.697 8.3243C366.823 6.70594 367.885 5.65485 369.398 5.65485C370.929 5.65485 371.992 6.756 371.992 8.3243H366.697Z" fill="#7282A8"/>
<path d="M379.338 4.62044H377.789V2.21794H376.294V4.62044H375.015V5.75495H376.294V12.3618C376.294 13.2628 376.942 13.7466 378.113 13.7466C378.509 13.7466 378.833 13.7132 379.338 13.6298V12.4619C379.122 12.512 378.923 12.5287 378.617 12.5287C377.969 12.5287 377.789 12.3618 377.789 11.7445V5.75495H379.338V4.62044Z" fill="#7282A8"/>
<path d="M382.93 4.62044H381.435V13.3629H382.93V4.62044ZM382.93 1.20021H381.417V2.95203H382.93V1.20021Z" fill="#7282A8"/>
<path d="M386.022 4.62044V13.3629H387.535V8.54119C387.535 6.756 388.543 5.58811 390.092 5.58811C391.281 5.58811 392.037 6.25547 392.037 7.30657V13.3629H393.532V6.756C393.532 5.30448 392.361 4.37018 390.542 4.37018C389.138 4.37018 388.237 4.8707 387.409 6.08863V4.62044H386.022Z" fill="#7282A8"/>
<path d="M402.585 4.62044V5.88843C401.829 4.83733 401 4.37018 399.812 4.37018C397.524 4.37018 395.939 6.33889 395.939 9.14181C395.939 10.61 396.318 11.6778 397.128 12.562C397.831 13.3295 398.731 13.7466 399.704 13.7466C400.838 13.7466 401.649 13.2795 402.441 12.1783V12.6288C402.441 14.9645 401.739 15.8321 399.866 15.8321C398.587 15.8321 397.921 15.365 397.777 14.3639H396.246C396.39 15.9823 397.777 17 399.83 17C401.217 17 402.369 16.5829 402.982 15.8822C403.702 15.0647 403.972 13.9802 403.972 11.9281V4.62044H402.585ZM399.956 5.65485C401.541 5.65485 402.441 6.88947 402.441 9.10845C402.441 11.2273 401.523 12.4619 399.956 12.4619C398.407 12.4619 397.506 11.2106 397.506 9.05839C397.506 6.92284 398.407 5.65485 399.956 5.65485Z" fill="#7282A8"/>
<path d="M424.81 13.3629L428.142 1.20021H426.269L423.855 11.0772L420.866 1.20021H419.065L416.147 11.0772L413.679 1.20021H411.806L415.174 13.3629H417.011L419.947 3.36913L422.973 13.3629H424.81Z" fill="#7282A8"/>
<path d="M433.365 4.37018C430.699 4.37018 429.114 6.122 429.114 9.05839C429.114 12.0115 430.699 13.7466 433.383 13.7466C436.048 13.7466 437.651 11.9948 437.651 9.12513C437.651 6.08863 436.102 4.37018 433.365 4.37018ZM433.383 5.65485C435.076 5.65485 436.084 6.93952 436.084 9.10845C436.084 11.1773 435.04 12.4619 433.383 12.4619C431.708 12.4619 430.681 11.1773 430.681 9.05839C430.681 6.93952 431.708 5.65485 433.383 5.65485Z" fill="#7282A8"/>
<path d="M440.257 4.62044V13.3629H441.77V8.82482C441.788 6.72263 442.724 5.78832 444.795 5.83837V4.42023C444.543 4.38686 444.399 4.37018 444.219 4.37018C443.246 4.37018 442.508 4.90407 441.644 6.20542V4.62044H440.257Z" fill="#7282A8"/>
<path d="M448.29 1.20021H446.777V13.3629H448.29V1.20021Z" fill="#7282A8"/>
<path d="M459 1.20021H457.505V5.72159C456.875 4.83733 455.866 4.37018 454.605 4.37018C452.156 4.37018 450.553 6.18874 450.553 8.97497C450.553 11.9281 452.102 13.7466 454.659 13.7466C455.956 13.7466 456.857 13.2961 457.667 12.2117V13.3629H459V1.20021ZM454.858 5.67153C456.479 5.67153 457.505 6.98957 457.505 9.09176C457.505 11.1105 456.461 12.4453 454.876 12.4453C453.219 12.4453 452.12 11.0938 452.12 9.05839C452.12 7.02294 453.219 5.67153 454.858 5.67153Z" fill="#7282A8"/>
<path d="M2.67497 1.20021H1V13.3629H9.15875V11.9948H2.67497V1.20021Z" stroke="#7282A8" stroke-width="0.4" mask="url(#path-1-outside-1)"/>
<path d="M19.7956 12.5454C19.6335 12.5787 19.5615 12.5787 19.4714 12.5787C18.9491 12.5787 18.661 12.3285 18.661 11.8947V6.756C18.661 5.20438 17.4362 4.37018 15.1129 4.37018C13.7261 4.37018 12.6274 4.73723 11.9791 5.3879C11.5468 5.83837 11.3667 6.33889 11.3307 7.20647H12.8436C12.9696 6.13869 13.654 5.65485 15.0589 5.65485C16.4277 5.65485 17.1661 6.122 17.1661 6.9562V7.32325C17.1481 7.92388 16.8239 8.14077 15.5992 8.29093C13.4739 8.54119 13.1498 8.60792 12.5734 8.82482C11.4748 9.2586 10.9165 10.0261 10.9165 11.1606C10.9165 12.7456 12.1051 13.7466 14.0143 13.7466C15.2029 13.7466 16.1575 13.3629 17.2201 12.4619C17.3282 13.3629 17.7965 13.7466 18.769 13.7466C19.0932 13.7466 19.2913 13.7132 19.7956 13.5965V12.5454ZM17.1661 10.61C17.1661 11.0772 17.022 11.3608 16.5717 11.7445C15.9594 12.2617 15.221 12.5287 14.3384 12.5287C13.1678 12.5287 12.4834 12.0115 12.4834 11.1272C12.4834 10.2096 13.1317 9.74244 14.7527 9.52555C16.3556 9.32534 16.6618 9.2586 17.1661 9.04171V10.61Z" stroke="#7282A8" stroke-width="0.4" mask="url(#path-1-outside-1)"/>
<path d="M25.0893 4.62044H23.5404V2.21794H22.0455V4.62044H20.7668V5.75495H22.0455V12.3618C22.0455 13.2628 22.6939 13.7466 23.8646 13.7466C24.2608 13.7466 24.585 13.7132 25.0893 13.6298V12.4619C24.8732 12.512 24.675 12.5287 24.3689 12.5287C23.7205 12.5287 23.5404 12.3618 23.5404 11.7445V5.75495H25.0893V4.62044Z" stroke="#7282A8" stroke-width="0.4" mask="url(#path-1-outside-1)"/>
<path d="M35.0608 9.45881C35.0608 8.12409 34.9527 7.32325 34.6825 6.67258C34.0702 5.23775 32.6293 4.37018 30.8643 4.37018C28.2348 4.37018 26.5418 6.22211 26.5418 9.10845C26.5418 11.9948 28.1628 13.7466 30.8283 13.7466C32.9896 13.7466 34.4844 12.6121 34.8626 10.7101H33.3498C32.9355 11.8613 32.089 12.4619 30.8823 12.4619C29.9278 12.4619 29.1173 12.0615 28.613 11.3274C28.2528 10.8269 28.1267 10.3264 28.1087 9.45881H35.0608ZM28.1447 8.3243C28.2708 6.70594 29.3334 5.65485 30.8463 5.65485C32.3772 5.65485 33.4398 6.756 33.4398 8.3243H28.1447Z" stroke="#7282A8" stroke-width="0.4" mask="url(#path-1-outside-1)"/>
<path d="M44.1877 7.05631C44.1697 5.33785 42.945 4.37018 40.7657 4.37018C38.5684 4.37018 37.1456 5.42127 37.1456 7.03963C37.1456 8.40772 37.9021 9.05839 40.1354 9.55892L41.5402 9.87591C42.5848 10.1095 42.999 10.4599 42.999 11.0772C42.999 11.9114 42.1165 12.4619 40.8017 12.4619C39.9913 12.4619 39.3069 12.245 38.9286 11.878C38.6945 11.6277 38.5865 11.3775 38.4964 10.7602H36.9115C36.9835 12.7789 38.2082 13.7466 40.6757 13.7466C43.0531 13.7466 44.5659 12.6621 44.5659 10.9771C44.5659 9.6757 43.7735 8.95829 41.9004 8.54119L40.4595 8.22419C39.2348 7.95725 38.7125 7.5902 38.7125 6.97289C38.7125 6.15537 39.487 5.65485 40.7117 5.65485C41.9184 5.65485 42.5668 6.13869 42.6028 7.05631H44.1877Z" stroke="#7282A8" stroke-width="0.4" mask="url(#path-1-outside-1)"/>
<path d="M50.3666 4.62044H48.8177V2.21794H47.3228V4.62044H46.0441V5.75495H47.3228V12.3618C47.3228 13.2628 47.9712 13.7466 49.1419 13.7466C49.5381 13.7466 49.8623 13.7132 50.3666 13.6298V12.4619C50.1504 12.512 49.9523 12.5287 49.6461 12.5287C48.9978 12.5287 48.8177 12.3618 48.8177 11.7445V5.75495H50.3666V4.62044Z" stroke="#7282A8" stroke-width="0.4" mask="url(#path-1-outside-1)"/>
<path d="M68.5327 1.20021H66.9477V11.1439L60.0857 1.20021H58.2667V13.3629H59.8516V3.50261L66.6416 13.3629H68.5327V1.20021Z" stroke="#7282A8" stroke-width="0.4" mask="url(#path-1-outside-1)"/>
<path d="M79.6754 9.45881C79.6754 8.12409 79.5673 7.32325 79.2972 6.67258C78.6848 5.23775 77.244 4.37018 75.4789 4.37018C72.8494 4.37018 71.1564 6.22211 71.1564 9.10845C71.1564 11.9948 72.7774 13.7466 75.4429 13.7466C77.6042 13.7466 79.099 12.6121 79.4773 10.7101H77.9644C77.5501 11.8613 76.7037 12.4619 75.4969 12.4619C74.5424 12.4619 73.7319 12.0615 73.2276 11.3274C72.8674 10.8269 72.7413 10.3264 72.7233 9.45881H79.6754ZM72.7594 8.3243C72.8854 6.70594 73.948 5.65485 75.4609 5.65485C76.9918 5.65485 78.0544 6.756 78.0544 8.3243H72.7594Z" stroke="#7282A8" stroke-width="0.4" mask="url(#path-1-outside-1)"/>
<path d="M90.8036 13.3629L93.5772 4.62044H91.8842L90.0111 11.4275L88.1561 4.62044H86.319L84.5179 11.4275L82.5908 4.62044H80.9339L83.6714 13.3629H85.3644L87.1835 6.50574L89.0926 13.3629H90.8036Z" stroke="#7282A8" stroke-width="0.4" mask="url(#path-1-outside-1)"/>
<path d="M102.165 7.05631C102.147 5.33785 100.922 4.37018 98.7426 4.37018C96.5453 4.37018 95.1225 5.42127 95.1225 7.03963C95.1225 8.40772 95.8789 9.05839 98.1122 9.55892L99.517 9.87591C100.562 10.1095 100.976 10.4599 100.976 11.0772C100.976 11.9114 100.093 12.4619 98.7786 12.4619C97.9681 12.4619 97.2837 12.245 96.9055 11.878C96.6714 11.6277 96.5633 11.3775 96.4732 10.7602H94.8883C94.9604 12.7789 96.1851 13.7466 98.6525 13.7466C101.03 13.7466 102.543 12.6621 102.543 10.9771C102.543 9.6757 101.75 8.95829 99.8772 8.54119L98.4364 8.22419C97.2117 7.95725 96.6894 7.5902 96.6894 6.97289C96.6894 6.15537 97.4638 5.65485 98.6885 5.65485C99.8952 5.65485 100.544 6.13869 100.58 7.05631H102.165Z" stroke="#7282A8" stroke-width="0.4" mask="url(#path-1-outside-1)"/>
<path d="M112.076 4.62044H110.581V13.3629H112.076V4.62044ZM112.076 1.20021H110.563V2.95203H112.076V1.20021Z" stroke="#7282A8" stroke-width="0.4" mask="url(#path-1-outside-1)"/>
<path d="M115.168 4.62044V13.3629H116.681V8.54119C116.681 6.756 117.69 5.58811 119.238 5.58811C120.427 5.58811 121.184 6.25547 121.184 7.30657V13.3629H122.678V6.756C122.678 5.30448 121.508 4.37018 119.689 4.37018C118.284 4.37018 117.383 4.8707 116.555 6.08863V4.62044H115.168Z" stroke="#7282A8" stroke-width="0.4" mask="url(#path-1-outside-1)"/>
<path d="M136.384 2.5683H140.689V1.20021H130.387V2.5683H134.709V13.3629H136.384V2.5683Z" stroke="#7282A8" stroke-width="0.4" mask="url(#path-1-outside-1)"/>
<path d="M149.128 9.45881C149.128 8.12409 149.02 7.32325 148.749 6.67258C148.137 5.23775 146.696 4.37018 144.931 4.37018C142.302 4.37018 140.609 6.22211 140.609 9.10845C140.609 11.9948 142.23 13.7466 144.895 13.7466C147.056 13.7466 148.551 12.6121 148.929 10.7101H147.417C147.002 11.8613 146.156 12.4619 144.949 12.4619C143.995 12.4619 143.184 12.0615 142.68 11.3274C142.32 10.8269 142.194 10.3264 142.176 9.45881H149.128ZM142.212 8.3243C142.338 6.70594 143.4 5.65485 144.913 5.65485C146.444 5.65485 147.507 6.756 147.507 8.3243H142.212Z" stroke="#7282A8" stroke-width="0.4" mask="url(#path-1-outside-1)"/>
<path d="M158.919 7.55683C158.847 6.70594 158.649 6.15537 158.289 5.67153C157.64 4.85401 156.506 4.37018 155.191 4.37018C152.634 4.37018 150.995 6.23879 150.995 9.14181C150.995 11.9614 152.616 13.7466 155.173 13.7466C157.424 13.7466 158.847 12.4953 159.027 10.3597H157.514C157.262 11.7612 156.488 12.4619 155.209 12.4619C153.552 12.4619 152.562 11.2106 152.562 9.14181C152.562 6.9562 153.534 5.65485 155.173 5.65485C156.434 5.65485 157.226 6.33889 157.406 7.55683H158.919Z" stroke="#7282A8" stroke-width="0.4" mask="url(#path-1-outside-1)"/>
<path d="M161.243 1.20021V13.3629H162.737V8.54119C162.737 6.756 163.746 5.58811 165.295 5.58811C165.799 5.58811 166.267 5.72159 166.628 5.97185C167.06 6.27216 167.24 6.68926 167.24 7.30657V13.3629H168.735V6.756C168.735 5.2878 167.6 4.37018 165.763 4.37018C164.43 4.37018 163.62 4.75391 162.737 5.82169V1.20021H161.243Z" stroke="#7282A8" stroke-width="0.4" mask="url(#path-1-outside-1)"/>
<path d="M171.791 4.62044V13.3629H173.304V8.54119C173.304 6.756 174.312 5.58811 175.861 5.58811C177.05 5.58811 177.806 6.25547 177.806 7.30657V13.3629H179.301V6.756C179.301 5.30448 178.13 4.37018 176.311 4.37018C174.906 4.37018 174.006 4.8707 173.177 6.08863V4.62044H171.791Z" stroke="#7282A8" stroke-width="0.4" mask="url(#path-1-outside-1)"/>
<path d="M185.977 4.37018C183.311 4.37018 181.726 6.122 181.726 9.05839C181.726 12.0115 183.311 13.7466 185.995 13.7466C188.66 13.7466 190.263 11.9948 190.263 9.12513C190.263 6.08863 188.714 4.37018 185.977 4.37018ZM185.995 5.65485C187.688 5.65485 188.696 6.93952 188.696 9.10845C188.696 11.1773 187.652 12.4619 185.995 12.4619C184.32 12.4619 183.293 11.1773 183.293 9.05839C183.293 6.93952 184.32 5.65485 185.995 5.65485Z" stroke="#7282A8" stroke-width="0.4" mask="url(#path-1-outside-1)"/>
<path d="M194.364 1.20021H192.851V13.3629H194.364V1.20021Z" stroke="#7282A8" stroke-width="0.4" mask="url(#path-1-outside-1)"/>
<path d="M201.058 4.37018C198.392 4.37018 196.807 6.122 196.807 9.05839C196.807 12.0115 198.392 13.7466 201.076 13.7466C203.741 13.7466 205.344 11.9948 205.344 9.12513C205.344 6.08863 203.795 4.37018 201.058 4.37018ZM201.076 5.65485C202.769 5.65485 203.777 6.93952 203.777 9.10845C203.777 11.1773 202.733 12.4619 201.076 12.4619C199.401 12.4619 198.374 11.1773 198.374 9.05839C198.374 6.93952 199.401 5.65485 201.076 5.65485Z" stroke="#7282A8" stroke-width="0.4" mask="url(#path-1-outside-1)"/>
<path d="M213.983 4.62044V5.88843C213.227 4.83733 212.398 4.37018 211.21 4.37018C208.922 4.37018 207.337 6.33889 207.337 9.14181C207.337 10.61 207.716 11.6778 208.526 12.562C209.229 13.3295 210.129 13.7466 211.102 13.7466C212.236 13.7466 213.047 13.2795 213.839 12.1783V12.6288C213.839 14.9645 213.137 15.8321 211.264 15.8321C209.985 15.8321 209.319 15.365 209.174 14.3639H207.644C207.788 15.9823 209.174 17 211.228 17C212.614 17 213.767 16.5829 214.38 15.8822C215.1 15.0647 215.37 13.9802 215.37 11.9281V4.62044H213.983ZM211.354 5.65485C212.939 5.65485 213.839 6.88947 213.839 9.10845C213.839 11.2273 212.921 12.4619 211.354 12.4619C209.805 12.4619 208.904 11.2106 208.904 9.05839C208.904 6.92284 209.805 5.65485 211.354 5.65485Z" stroke="#7282A8" stroke-width="0.4" mask="url(#path-1-outside-1)"/>
<path d="M224.103 4.62044L221.491 11.4275L219.078 4.62044H217.475L220.662 13.3962L220.086 14.781C219.834 15.3983 219.51 15.6319 218.879 15.6319C218.627 15.6319 218.411 15.5985 218.087 15.5318V16.7831C218.393 16.9333 218.699 17 219.096 17C219.582 17 220.104 16.8498 220.5 16.5829C220.969 16.2659 221.239 15.8989 221.527 15.1981L225.723 4.62044H224.103Z" stroke="#7282A8" stroke-width="0.4" mask="url(#path-1-outside-1)"/>
<path d="M241.849 12.5454C241.686 12.5787 241.614 12.5787 241.524 12.5787C241.002 12.5787 240.714 12.3285 240.714 11.8947V6.756C240.714 5.20438 239.489 4.37018 237.166 4.37018C235.779 4.37018 234.68 4.73723 234.032 5.3879C233.6 5.83837 233.42 6.33889 233.384 7.20647H234.897C235.023 6.13869 235.707 5.65485 237.112 5.65485C238.481 5.65485 239.219 6.122 239.219 6.9562V7.32325C239.201 7.92388 238.877 8.14077 237.652 8.29093C235.527 8.54119 235.203 8.60792 234.626 8.82482C233.528 9.2586 232.969 10.0261 232.969 11.1606C232.969 12.7456 234.158 13.7466 236.067 13.7466C237.256 13.7466 238.21 13.3629 239.273 12.4619C239.381 13.3629 239.849 13.7466 240.822 13.7466C241.146 13.7466 241.344 13.7132 241.849 13.5965V12.5454ZM239.219 10.61C239.219 11.0772 239.075 11.3608 238.625 11.7445C238.012 12.2617 237.274 12.5287 236.391 12.5287C235.221 12.5287 234.536 12.0115 234.536 11.1272C234.536 10.2096 235.185 9.74244 236.806 9.52555C238.409 9.32534 238.715 9.2586 239.219 9.04171V10.61Z" stroke="#7282A8" stroke-width="0.4" mask="url(#path-1-outside-1)"/>
<path d="M244.022 4.62044V13.3629H245.535V8.54119C245.535 6.756 246.543 5.58811 248.092 5.58811C249.281 5.58811 250.037 6.25547 250.037 7.30657V13.3629H251.532V6.756C251.532 5.30448 250.361 4.37018 248.542 4.37018C247.138 4.37018 246.237 4.8707 245.409 6.08863V4.62044H244.022Z" stroke="#7282A8" stroke-width="0.4" mask="url(#path-1-outside-1)"/>
<path d="M262.224 1.20021H260.729V5.72159C260.099 4.83733 259.091 4.37018 257.83 4.37018C255.38 4.37018 253.777 6.18874 253.777 8.97497C253.777 11.9281 255.326 13.7466 257.884 13.7466C259.181 13.7466 260.081 13.2961 260.892 12.2117V13.3629H262.224V1.20021ZM258.082 5.67153C259.703 5.67153 260.729 6.98957 260.729 9.09176C260.729 11.1105 259.685 12.4453 258.1 12.4453C256.443 12.4453 255.344 11.0938 255.344 9.05839C255.344 7.02294 256.443 5.67153 258.082 5.67153Z" stroke="#7282A8" stroke-width="0.4" mask="url(#path-1-outside-1)"/>
<path d="M280.144 4.77059C280.144 3.93639 280.09 3.70282 279.802 3.13556C279.082 1.7341 277.551 1 275.336 1C272.454 1 270.671 2.36809 270.671 4.57039C270.671 6.05527 271.517 6.98957 273.246 7.40667L276.506 8.20751C278.181 8.60793 278.92 9.22523 278.92 10.1762C278.92 10.8269 278.542 11.4943 277.983 11.8613C277.461 12.2117 276.632 12.3785 275.57 12.3785C274.129 12.3785 273.174 12.0615 272.544 11.3608C272.058 10.8269 271.842 10.243 271.86 9.49218H270.275C270.293 10.61 270.527 11.3441 271.049 12.0115C271.95 13.1627 273.463 13.7466 275.462 13.7466C277.029 13.7466 278.307 13.4129 279.154 12.8123C280.036 12.1616 280.595 11.0772 280.595 10.0261C280.595 8.5245 279.586 7.42336 277.803 6.97289L274.507 6.15537C272.922 5.75495 272.346 5.2878 272.346 4.35349C272.346 3.11887 273.517 2.30136 275.282 2.30136C277.371 2.30136 278.542 3.16893 278.56 4.77059H280.144Z" stroke="#7282A8" stroke-width="0.4" mask="url(#path-1-outside-1)"/>
<path d="M291.476 12.5454C291.314 12.5787 291.242 12.5787 291.152 12.5787C290.629 12.5787 290.341 12.3285 290.341 11.8947V6.756C290.341 5.20438 289.116 4.37018 286.793 4.37018C285.406 4.37018 284.308 4.73723 283.659 5.3879C283.227 5.83837 283.047 6.33889 283.011 7.20647H284.524C284.65 6.13869 285.334 5.65485 286.739 5.65485C288.108 5.65485 288.846 6.122 288.846 6.9562V7.32325C288.828 7.92388 288.504 8.14077 287.279 8.29093C285.154 8.54119 284.83 8.60792 284.254 8.82482C283.155 9.2586 282.597 10.0261 282.597 11.1606C282.597 12.7456 283.785 13.7466 285.694 13.7466C286.883 13.7466 287.838 13.3629 288.9 12.4619C289.008 13.3629 289.477 13.7466 290.449 13.7466C290.773 13.7466 290.972 13.7132 291.476 13.5965V12.5454ZM288.846 10.61C288.846 11.0772 288.702 11.3608 288.252 11.7445C287.64 12.2617 286.901 12.5287 286.019 12.5287C284.848 12.5287 284.164 12.0115 284.164 11.1272C284.164 10.2096 284.812 9.74244 286.433 9.52555C288.036 9.32534 288.342 9.2586 288.846 9.04171V10.61Z" stroke="#7282A8" stroke-width="0.4" mask="url(#path-1-outside-1)"/>
<path d="M295.126 1.20021H293.613V13.3629H295.126V1.20021Z" stroke="#7282A8" stroke-width="0.4" mask="url(#path-1-outside-1)"/>
<path d="M306.161 9.45881C306.161 8.12409 306.053 7.32325 305.782 6.67258C305.17 5.23775 303.729 4.37018 301.964 4.37018C299.335 4.37018 297.642 6.22211 297.642 9.10845C297.642 11.9948 299.263 13.7466 301.928 13.7466C304.089 13.7466 305.584 12.6121 305.962 10.7101H304.45C304.035 11.8613 303.189 12.4619 301.982 12.4619C301.028 12.4619 300.217 12.0615 299.713 11.3274C299.353 10.8269 299.227 10.3264 299.209 9.45881H306.161ZM299.245 8.3243C299.371 6.70594 300.433 5.65485 301.946 5.65485C303.477 5.65485 304.54 6.756 304.54 8.3243H299.245Z" stroke="#7282A8" stroke-width="0.4" mask="url(#path-1-outside-1)"/>
<path d="M315.288 7.05631C315.27 5.33785 314.045 4.37018 311.866 4.37018C309.668 4.37018 308.245 5.42127 308.245 7.03963C308.245 8.40772 309.002 9.05839 311.235 9.55892L312.64 9.87591C313.685 10.1095 314.099 10.4599 314.099 11.0772C314.099 11.9114 313.216 12.4619 311.902 12.4619C311.091 12.4619 310.407 12.245 310.029 11.878C309.794 11.6277 309.686 11.3775 309.596 10.7602H308.011C308.083 12.7789 309.308 13.7466 311.776 13.7466C314.153 13.7466 315.666 12.6621 315.666 10.9771C315.666 9.6757 314.873 8.95829 313 8.54119L311.559 8.22419C310.335 7.95725 309.812 7.5902 309.812 6.97289C309.812 6.15537 310.587 5.65485 311.812 5.65485C313.018 5.65485 313.667 6.13869 313.703 7.05631H315.288Z" stroke="#7282A8" stroke-width="0.4" mask="url(#path-1-outside-1)"/>
<path d="M330.926 13.3629L334.619 3.16893V13.3629H336.203V1.20021H333.88L330.062 11.7946L326.172 1.20021H323.848V13.3629H325.433V3.16893L329.161 13.3629H330.926Z" stroke="#7282A8" stroke-width="0.4" mask="url(#path-1-outside-1)"/>
<path d="M347.676 12.5454C347.514 12.5787 347.442 12.5787 347.352 12.5787C346.83 12.5787 346.542 12.3285 346.542 11.8947V6.756C346.542 5.20438 345.317 4.37018 342.994 4.37018C341.607 4.37018 340.508 4.73723 339.86 5.3879C339.427 5.83837 339.247 6.33889 339.211 7.20647H340.724C340.85 6.13869 341.535 5.65485 342.94 5.65485C344.308 5.65485 345.047 6.122 345.047 6.9562V7.32325C345.029 7.92388 344.705 8.14077 343.48 8.29093C341.355 8.54119 341.03 8.60792 340.454 8.82482C339.355 9.2586 338.797 10.0261 338.797 11.1606C338.797 12.7456 339.986 13.7466 341.895 13.7466C343.084 13.7466 344.038 13.3629 345.101 12.4619C345.209 13.3629 345.677 13.7466 346.65 13.7466C346.974 13.7466 347.172 13.7132 347.676 13.5965V12.5454ZM345.047 10.61C345.047 11.0772 344.903 11.3608 344.452 11.7445C343.84 12.2617 343.102 12.5287 342.219 12.5287C341.048 12.5287 340.364 12.0115 340.364 11.1272C340.364 10.2096 341.012 9.74244 342.633 9.52555C344.236 9.32534 344.542 9.2586 345.047 9.04171V10.61Z" stroke="#7282A8" stroke-width="0.4" mask="url(#path-1-outside-1)"/>
<path d="M349.831 4.62044V13.3629H351.344V8.82482C351.362 6.72263 352.299 5.78832 354.37 5.83837V4.42023C354.118 4.38686 353.974 4.37018 353.794 4.37018C352.821 4.37018 352.083 4.90407 351.218 6.20542V4.62044H349.831Z" stroke="#7282A8" stroke-width="0.4" mask="url(#path-1-outside-1)"/>
<path d="M357.754 1.20021H356.259V13.3629H357.754V9.95933L359.213 8.62461L362.401 13.3629H364.256L360.402 7.64025L363.68 4.62044H361.752L357.754 8.3243V1.20021Z" stroke="#7282A8" stroke-width="0.4" mask="url(#path-1-outside-1)"/>
<path d="M373.613 9.45881C373.613 8.12409 373.505 7.32325 373.234 6.67258C372.622 5.23775 371.181 4.37018 369.416 4.37018C366.787 4.37018 365.094 6.22211 365.094 9.10845C365.094 11.9948 366.715 13.7466 369.38 13.7466C371.541 13.7466 373.036 12.6121 373.415 10.7101H371.902C371.487 11.8613 370.641 12.4619 369.434 12.4619C368.48 12.4619 367.669 12.0615 367.165 11.3274C366.805 10.8269 366.679 10.3264 366.661 9.45881H373.613ZM366.697 8.3243C366.823 6.70594 367.885 5.65485 369.398 5.65485C370.929 5.65485 371.992 6.756 371.992 8.3243H366.697Z" stroke="#7282A8" stroke-width="0.4" mask="url(#path-1-outside-1)"/>
<path d="M379.338 4.62044H377.789V2.21794H376.294V4.62044H375.015V5.75495H376.294V12.3618C376.294 13.2628 376.942 13.7466 378.113 13.7466C378.509 13.7466 378.833 13.7132 379.338 13.6298V12.4619C379.122 12.512 378.923 12.5287 378.617 12.5287C377.969 12.5287 377.789 12.3618 377.789 11.7445V5.75495H379.338V4.62044Z" stroke="#7282A8" stroke-width="0.4" mask="url(#path-1-outside-1)"/>
<path d="M382.93 4.62044H381.435V13.3629H382.93V4.62044ZM382.93 1.20021H381.417V2.95203H382.93V1.20021Z" stroke="#7282A8" stroke-width="0.4" mask="url(#path-1-outside-1)"/>
<path d="M386.022 4.62044V13.3629H387.535V8.54119C387.535 6.756 388.543 5.58811 390.092 5.58811C391.281 5.58811 392.037 6.25547 392.037 7.30657V13.3629H393.532V6.756C393.532 5.30448 392.361 4.37018 390.542 4.37018C389.138 4.37018 388.237 4.8707 387.409 6.08863V4.62044H386.022Z" stroke="#7282A8" stroke-width="0.4" mask="url(#path-1-outside-1)"/>
<path d="M402.585 4.62044V5.88843C401.829 4.83733 401 4.37018 399.812 4.37018C397.524 4.37018 395.939 6.33889 395.939 9.14181C395.939 10.61 396.318 11.6778 397.128 12.562C397.831 13.3295 398.731 13.7466 399.704 13.7466C400.838 13.7466 401.649 13.2795 402.441 12.1783V12.6288C402.441 14.9645 401.739 15.8321 399.866 15.8321C398.587 15.8321 397.921 15.365 397.777 14.3639H396.246C396.39 15.9823 397.777 17 399.83 17C401.217 17 402.369 16.5829 402.982 15.8822C403.702 15.0647 403.972 13.9802 403.972 11.9281V4.62044H402.585ZM399.956 5.65485C401.541 5.65485 402.441 6.88947 402.441 9.10845C402.441 11.2273 401.523 12.4619 399.956 12.4619C398.407 12.4619 397.506 11.2106 397.506 9.05839C397.506 6.92284 398.407 5.65485 399.956 5.65485Z" stroke="#7282A8" stroke-width="0.4" mask="url(#path-1-outside-1)"/>
<path d="M424.81 13.3629L428.142 1.20021H426.269L423.855 11.0772L420.866 1.20021H419.065L416.147 11.0772L413.679 1.20021H411.806L415.174 13.3629H417.011L419.947 3.36913L422.973 13.3629H424.81Z" stroke="#7282A8" stroke-width="0.4" mask="url(#path-1-outside-1)"/>
<path d="M433.365 4.37018C430.699 4.37018 429.114 6.122 429.114 9.05839C429.114 12.0115 430.699 13.7466 433.383 13.7466C436.048 13.7466 437.651 11.9948 437.651 9.12513C437.651 6.08863 436.102 4.37018 433.365 4.37018ZM433.383 5.65485C435.076 5.65485 436.084 6.93952 436.084 9.10845C436.084 11.1773 435.04 12.4619 433.383 12.4619C431.708 12.4619 430.681 11.1773 430.681 9.05839C430.681 6.93952 431.708 5.65485 433.383 5.65485Z" stroke="#7282A8" stroke-width="0.4" mask="url(#path-1-outside-1)"/>
<path d="M440.257 4.62044V13.3629H441.77V8.82482C441.788 6.72263 442.724 5.78832 444.795 5.83837V4.42023C444.543 4.38686 444.399 4.37018 444.219 4.37018C443.246 4.37018 442.508 4.90407 441.644 6.20542V4.62044H440.257Z" stroke="#7282A8" stroke-width="0.4" mask="url(#path-1-outside-1)"/>
<path d="M448.29 1.20021H446.777V13.3629H448.29V1.20021Z" stroke="#7282A8" stroke-width="0.4" mask="url(#path-1-outside-1)"/>
<path d="M459 1.20021H457.505V5.72159C456.875 4.83733 455.866 4.37018 454.605 4.37018C452.156 4.37018 450.553 6.18874 450.553 8.97497C450.553 11.9281 452.102 13.7466 454.659 13.7466C455.956 13.7466 456.857 13.2961 457.667 12.2117V13.3629H459V1.20021ZM454.858 5.67153C456.479 5.67153 457.505 6.98957 457.505 9.09176C457.505 11.1105 456.461 12.4453 454.876 12.4453C453.219 12.4453 452.12 11.0938 452.12 9.05839C452.12 7.02294 453.219 5.67153 454.858 5.67153Z" stroke="#7282A8" stroke-width="0.4" mask="url(#path-1-outside-1)"/>
</svg>
