<svg xmlns="http://www.w3.org/2000/svg" xmlns:xlink="http://www.w3.org/1999/xlink" width="277" height="267" viewBox="0 0 277 267"><defs><style>.a,.p{fill:#fff;}.a{stroke:#707070;}.b{clip-path:url(#a);}.c{opacity:0.12;}.d{fill:#e0e0e0;}.e{fill:#263238;}.f{fill:#ffe6a9;}.g{opacity:0.41;}.h{fill:#ffd000;}.i{opacity:0.3;}.j{fill:#e8505b;}.k{fill:#f1d971;}.l{fill:#9578b1;}.m{opacity:0.1;}.n{fill:#9fbdfd;}.o{opacity:0.2;}.q{fill:#455a64;}.r{fill:#f5f5f5;}.s{fill:#b78876;}.t{fill:#a36957;}.u{fill:#420082;}.v{fill:#0029b7;}.w{fill:#84dbff;}</style><clipPath id="a"><rect class="a" width="277" height="267" transform="translate(-3727 365)"/></clipPath></defs><g class="b" transform="translate(3727 -365)"><g transform="translate(-3762.182 378.193)"><g class="c" transform="translate(53.741 0)"><g transform="translate(2.535)"><path class="d" d="M322.667,126.17s-.088-.285-.236-.845-.363-1.406-.645-2.493c-.559-2.206-1.378-5.437-2.432-9.6-2.094-8.35-5.12-20.412-8.857-35.313q-.7-2.8-1.431-5.724-.367-1.463-.74-2.958c-.123-.5-.245-1-.4-1.486a10.081,10.081,0,0,0-.533-1.445,12.49,12.49,0,0,0-13.249-7.266c-1.106.192-2.233.5-3.365.779l-6.9,1.721-14.408,3.592L205.3,81.1,141.12,97.04l-14.415,3.573-3.48.862a19.354,19.354,0,0,0-3.339,1.014,11.65,11.65,0,0,0-2.911,1.765,11.947,11.947,0,0,0-2.293,2.443,12.694,12.694,0,0,0-1.547,2.912,12.986,12.986,0,0,0-.712,3.16,19.5,19.5,0,0,0,.758,6.28l2.529,11.8c3.208,15.025,5.8,27.185,7.6,35.6.886,4.2,1.574,7.459,2.042,9.685q.34,1.649.52,2.521c.114.569.161.863.161.863s-.079-.287-.209-.852l-.566-2.511c-.49-2.221-1.208-5.476-2.131-9.665-1.833-8.409-4.48-20.559-7.752-35.569l-2.56-11.789a19.872,19.872,0,0,1-.78-6.4,13.352,13.352,0,0,1,.728-3.261,13.056,13.056,0,0,1,1.589-3.007,12.368,12.368,0,0,1,2.362-2.528,12.045,12.045,0,0,1,3-1.829,19.774,19.774,0,0,1,3.4-1.042l3.478-.867,14.411-3.592,64.176-15.973L269.358,64.7l14.413-3.573,6.905-1.711c1.135-.276,2.245-.581,3.4-.78a12.83,12.83,0,0,1,13.651,7.518,10.459,10.459,0,0,1,.545,1.489c.163.5.283,1.005.4,1.5q.369,1.5.732,2.961.724,2.929,1.416,5.728l8.708,35.35c1.016,4.168,1.8,7.408,2.344,9.618l.6,2.5C322.611,125.877,322.667,126.17,322.667,126.17Z" transform="translate(-111.976 -58.5)"/></g></g><g transform="translate(0 343.232)"><g transform="translate(0 0.242)"><line class="e" x2="355.332"/></g><path class="e" d="M403.326,448.975c0,.133-79.551.242-177.657.242-98.142,0-177.675-.109-177.675-.242s79.533-.242,177.675-.242C323.776,448.733,403.326,448.841,403.326,448.975Z" transform="translate(-47.994 -448.733)"/></g><g transform="translate(43.842 17.33)"><g transform="translate(87.437)"><path class="f" d="M234.593,82.122,225.9,88.744l.423,12.648-7.964-6.323-4.4,3.765L197.249,78.2Z" transform="translate(-197.249 -78.203)"/></g><g class="g" transform="translate(108.545 13.235)"><path class="h" d="M225.52,93.25c.013.387,3.692,9.955,3.692,9.955l-7.964-6.323Z" transform="translate(-221.248 -93.25)"/><g class="i"><path class="h" d="M225.52,93.25c.013.387,3.692,9.955,3.692,9.955l-7.964-6.323Z" transform="translate(-221.248 -93.25)"/></g></g><g transform="translate(87.437)"><path class="j" d="M197.249,78.2l25.38,13.235,3.692,9.955L225.9,88.744Z" transform="translate(-197.249 -78.203)"/><path class="k" d="M197.249,78.2l25.38,13.235,3.692,9.955L225.9,88.744Z" transform="translate(-197.249 -78.203)"/></g><g transform="translate(92.994 20.42)"><g transform="translate(60.297 149.081)"><g transform="translate(0 0)"><path class="e" d="M276.63,272.065a11.242,11.242,0,0,1-4.508-1.1,11.273,11.273,0,0,1,4.508,1.1Z" transform="translate(-272.121 -270.915)"/></g><g transform="translate(9.016 2.176)"><path class="e" d="M285.062,274.122c-.032.129-.66.088-1.4-.094s-1.318-.434-1.287-.563.659-.088,1.4.093S285.093,273.992,285.062,274.122Z" transform="translate(-282.372 -273.389)"/></g></g><g transform="translate(37.793)"><path class="e" d="M251.055,102.533a15.677,15.677,0,0,1-4.518-1.048,8.815,8.815,0,0,1,4.518,1.048Z" transform="translate(-246.537 -101.419)"/></g><g transform="translate(46.673 2.661)"><path class="e" d="M260.782,106.55a15.68,15.68,0,0,1-4.147-2.078,5.1,5.1,0,0,1,2.213.762C260,105.81,260.85,106.436,260.782,106.55Z" transform="translate(-256.633 -104.445)"/></g><g transform="translate(54.683 7.316)"><path class="e" d="M269.259,112.784c-.1.095-.9-.56-1.866-1.391s-1.729-1.534-1.649-1.643a5.054,5.054,0,0,1,1.965,1.276C268.689,111.871,269.352,112.691,269.259,112.784Z" transform="translate(-265.738 -109.737)"/></g><g transform="translate(61.265 13.828)"><path class="e" d="M275.788,121.019c-.119.065-.706-.79-1.407-1.85a6.966,6.966,0,0,1-1.145-2.022c.1-.082.837.675,1.549,1.756A4.944,4.944,0,0,1,275.788,121.019Z" transform="translate(-273.222 -117.141)"/></g><g transform="translate(65.73 21.92)"><path class="e" d="M279.595,130.8a7.025,7.025,0,0,1-.78-2.189,7,7,0,0,1-.483-2.273,8.335,8.335,0,0,1,1.263,4.462Z" transform="translate(-278.299 -126.341)"/></g><g transform="translate(67.383 30.984)"><path class="e" d="M280.293,141.282a7.058,7.058,0,0,1-.1-2.321,7.042,7.042,0,0,1,.209-2.315,8.3,8.3,0,0,1-.112,4.636Z" transform="translate(-280.179 -136.646)"/></g><g transform="translate(65.069 40.181)"><path class="e" d="M277.572,151.465a7.276,7.276,0,0,1,.653-2.228,7.175,7.175,0,0,1,.92-2.133,8.032,8.032,0,0,1-1.574,4.361Z" transform="translate(-277.547 -147.103)"/></g><g transform="translate(59.718 48.551)"><path class="e" d="M271.472,160.117c-.092-.1.6-.874,1.428-1.829s1.507-1.741,1.619-1.663a4.706,4.706,0,0,1-1.255,1.981C272.41,159.584,271.559,160.214,271.472,160.117Z" transform="translate(-271.464 -156.619)"/></g><g transform="translate(51.962 54.885)"><path class="e" d="M262.648,165.986a19.522,19.522,0,0,1,4.108-2.15c.073.108-.744.781-1.895,1.38A4.813,4.813,0,0,1,262.648,165.986Z" transform="translate(-262.646 -163.82)"/></g><g transform="translate(42.937 58.383)"><path class="e" d="M252.385,168.4a20.423,20.423,0,0,1,4.6-.552,7.814,7.814,0,0,1-4.6.552Z" transform="translate(-252.385 -167.797)"/></g><g transform="translate(33.881 57.253)"><path class="e" d="M242.091,166.538a7.929,7.929,0,0,1,2.249.566,7.8,7.8,0,0,1,2.186.78,4.62,4.62,0,0,1-2.326-.318A4.572,4.572,0,0,1,242.091,166.538Z" transform="translate(-242.088 -166.512)"/></g><g transform="translate(27.427 50.909)"><path class="e" d="M234.784,159.3a17.314,17.314,0,0,1,1.26,1.919c.712,1.027,1.413,1.788,1.317,1.892-.081.095-.96-.531-1.714-1.617A3.548,3.548,0,0,1,234.784,159.3Z" transform="translate(-234.751 -159.3)"/></g><g transform="translate(27.722 43.665)"><path class="e" d="M238.727,151.105c.038.141-.957.444-1.954,1.165s-1.539,1.6-1.666,1.53c-.121-.036.265-1.13,1.383-1.922A3.185,3.185,0,0,1,238.727,151.105Z" transform="translate(-235.086 -151.064)"/></g><g transform="translate(35.921 43.943)"><path class="e" d="M247.8,154.444c-.123.069-.684-.8-1.6-1.639s-1.85-1.264-1.8-1.4a3.147,3.147,0,0,1,2.126,1.042A3.421,3.421,0,0,1,247.8,154.444Z" transform="translate(-244.408 -151.379)"/></g><g transform="translate(39.588 51.455)"><path class="e" d="M248.605,164.452a11.34,11.34,0,0,1,.428-2.267,11.37,11.37,0,0,1,.434-2.266,5.779,5.779,0,0,1-.863,4.532Z" transform="translate(-248.576 -159.92)"/></g><g transform="translate(33.588 59.854)"><path class="e" d="M241.76,172.508c-.077-.113.721-.775,1.681-1.6s1.719-1.521,1.822-1.432-.516.954-1.507,1.8A4.682,4.682,0,0,1,241.76,172.508Z" transform="translate(-241.755 -169.469)"/></g><g transform="translate(25.364 65.204)"><path class="e" d="M232.408,177.511a11.259,11.259,0,0,1,4.219-1.935,11.26,11.26,0,0,1-4.219,1.935Z" transform="translate(-232.405 -175.552)"/></g><g transform="translate(17.096 69.064)"><path class="e" d="M223.009,182.245c-.075-.11.764-.739,1.873-1.4a5.172,5.172,0,0,1,2.167-.88c.065.133-.83.663-1.93,1.3A5.808,5.808,0,0,1,223.009,182.245Z" transform="translate(-223.005 -179.941)"/></g><g transform="translate(10.082 74.155)"><path class="e" d="M215.042,188.99c-.1-.086.511-.945,1.434-1.85s1.79-1.5,1.875-1.4-.63.852-1.537,1.745S215.143,189.08,215.042,188.99Z" transform="translate(-215.031 -185.729)"/></g><g transform="translate(4.76 81.046)"><path class="e" d="M209,197.52a5.1,5.1,0,0,1,.95-2.138c.676-1.1,1.372-1.891,1.479-1.814a6.705,6.705,0,0,1-1.068,2.066C209.7,196.718,209.12,197.583,209,197.52Z" transform="translate(-208.98 -193.563)"/></g><g transform="translate(1.354 89.211)"><path class="e" d="M205.152,207.26a8.809,8.809,0,0,1,1.435-4.411,15.72,15.72,0,0,1-1.435,4.411Z" transform="translate(-205.107 -202.847)"/></g><g transform="translate(0 98.177)"><path class="e" d="M203.757,217.664a8.649,8.649,0,0,1,.316-4.623,16.065,16.065,0,0,1-.316,4.623Z" transform="translate(-203.568 -213.041)"/></g><g transform="translate(0.403 107.428)"><path class="e" d="M205.023,228.107a5.743,5.743,0,0,1-.73-2.221,4.63,4.63,0,0,1-.189-2.328,7.721,7.721,0,0,1,.663,2.232A5.84,5.84,0,0,1,205.023,228.107Z" transform="translate(-204.026 -223.558)"/></g><g transform="translate(2.891 116.357)"><path class="e" d="M208.947,237.866a8.721,8.721,0,0,1-2.064-4.154,6.809,6.809,0,0,1,1.184,2A6.735,6.735,0,0,1,208.947,237.866Z" transform="translate(-206.855 -233.71)"/></g><g transform="translate(7.528 124.378)"><path class="e" d="M215.14,246.373c-.094.092-.9-.582-1.737-1.568a5.094,5.094,0,0,1-1.263-1.969c.109-.08.807.687,1.632,1.657S215.237,246.279,215.14,246.373Z" transform="translate(-212.127 -242.829)"/></g><g transform="translate(13.93 131.071)"><path class="e" d="M223.157,253.187a5.075,5.075,0,0,1-2.056-1.117c-1.043-.761-1.774-1.519-1.689-1.619a6.711,6.711,0,0,1,1.975,1.23C222.413,252.431,223.229,253.072,223.157,253.187Z" transform="translate(-219.405 -250.438)"/></g><g transform="translate(21.729 136.057)"><g transform="translate(0 0)"><path class="e" d="M232.578,257.864a8.658,8.658,0,0,1-4.3-1.732,6.748,6.748,0,0,1,2.214.712A6.831,6.831,0,0,1,232.578,257.864Z" transform="translate(-228.273 -256.108)"/></g></g><g transform="translate(30.517 138.74)"><path class="e" d="M238.439,259.41c-.024.132-.08.231-.126.223s-.062-.121-.039-.253.08-.23.126-.223S238.463,259.279,238.439,259.41Z" transform="translate(-238.264 -259.158)"/></g></g><g transform="translate(105.353 133.235)"><g transform="translate(0.002 0.002)"><rect class="l" width="10.121" height="6.296" transform="translate(1.965 0) rotate(18.185)"/></g><g transform="translate(1.962)"><path class="j" d="M229.471,232.842a38.809,38.809,0,0,1-5.575,2.292l-.168.062-.108-.143-.16-.211a41.139,41.139,0,0,1-3.6-5.158,41.055,41.055,0,0,1,3.99,4.866l.16.211-.275-.081A38.884,38.884,0,0,1,229.471,232.842Z" transform="translate(-219.85 -229.683)"/><g class="m"><path d="M229.471,232.842a38.809,38.809,0,0,1-5.575,2.292l-.168.062-.108-.143-.16-.211a41.139,41.139,0,0,1-3.6-5.158,41.055,41.055,0,0,1,3.99,4.866l.16.211-.275-.081A38.884,38.884,0,0,1,229.471,232.842Z" transform="translate(-219.85 -229.683)"/></g></g><g transform="translate(0 3.648)"><path class="j" d="M222.364,233.85a14.512,14.512,0,0,1-4.743,2.315,14.534,14.534,0,0,1,4.743-2.315Z" transform="translate(-217.619 -233.83)"/><g class="m"><path d="M222.364,233.85a14.512,14.512,0,0,1-4.743,2.315,14.534,14.534,0,0,1,4.743-2.315Z" transform="translate(-217.619 -233.83)"/></g></g><g transform="translate(7.726 4.551)"><path class="j" d="M228.47,239.505a7.156,7.156,0,0,1-1.232-2.228c-.584-1.312-.969-2.432-.79-2.421a7.529,7.529,0,0,1,1.232,2.228A6.857,6.857,0,0,1,228.47,239.505Z" transform="translate(-226.404 -234.857)"/><g class="m"><path d="M228.47,239.505a7.156,7.156,0,0,1-1.232-2.228c-.584-1.312-.969-2.432-.79-2.421a7.529,7.529,0,0,1,1.232,2.228A6.857,6.857,0,0,1,228.47,239.505Z" transform="translate(-226.404 -234.857)"/></g></g></g><g transform="translate(126.363 151.712)"><g transform="translate(0.001 0.001)"><rect class="l" width="26.037" height="16.198" transform="matrix(0.95, 0.312, -0.312, 0.95, 5.055, 0)"/></g><g transform="translate(5.054 0)"><path class="n" d="M271.99,258.817a5.963,5.963,0,0,1-1.1.5l-3.078,1.2c-2.611,1-6.24,2.353-10.291,3.834l-.167.062-.108-.142-.412-.543c-2.7-3.561-5.119-6.8-6.853-9.161l-2.032-2.809a6.478,6.478,0,0,1-.693-1.07,6.4,6.4,0,0,1,.843.957l2.155,2.717c1.8,2.306,4.267,5.514,6.965,9.075l.412.544-.275-.081c4.052-1.477,7.7-2.779,10.341-3.7l3.13-1.062A5.9,5.9,0,0,1,271.99,258.817Z" transform="translate(-247.252 -250.69)"/><g class="o"><path class="n" d="M271.99,258.817a5.963,5.963,0,0,1-1.1.5l-3.078,1.2c-2.611,1-6.24,2.353-10.291,3.834l-.167.062-.108-.142-.412-.543c-2.7-3.561-5.119-6.8-6.853-9.161l-2.032-2.809a6.478,6.478,0,0,1-.693-1.07,6.4,6.4,0,0,1,.843.957l2.155,2.717c1.8,2.306,4.267,5.514,6.965,9.075l.412.544-.275-.081c4.052-1.477,7.7-2.779,10.341-3.7l3.13-1.062A5.9,5.9,0,0,1,271.99,258.817Z" transform="translate(-247.252 -250.69)"/></g></g><g transform="translate(0 9.425)"><path class="n" d="M253.708,261.414a47.785,47.785,0,0,1-5.994,3.2,47.857,47.857,0,0,1-6.207,2.762,47.829,47.829,0,0,1,6-3.2A48.093,48.093,0,0,1,253.708,261.414Z" transform="translate(-241.506 -261.406)"/><g class="o"><path class="n" d="M253.708,261.414a47.785,47.785,0,0,1-5.994,3.2,47.857,47.857,0,0,1-6.207,2.762,47.829,47.829,0,0,1,6-3.2A48.093,48.093,0,0,1,253.708,261.414Z" transform="translate(-241.506 -261.406)"/></g></g><g transform="translate(19.977 11.705)"><path class="n" d="M269.43,275.956a44.257,44.257,0,0,1-2.823-5.882A44.321,44.321,0,0,1,264.228,264a44.11,44.11,0,0,1,2.822,5.883A44.318,44.318,0,0,1,269.43,275.956Z" transform="translate(-264.218 -263.998)"/><g class="o"><path class="n" d="M269.43,275.956a44.257,44.257,0,0,1-2.823-5.882A44.321,44.321,0,0,1,264.228,264a44.11,44.11,0,0,1,2.822,5.883A44.318,44.318,0,0,1,269.43,275.956Z" transform="translate(-264.218 -263.998)"/></g></g></g><g transform="translate(126.629 148.515)"><path class="e" d="M247.961,254.034a3.864,3.864,0,1,1,.827-5.4A3.863,3.863,0,0,1,247.961,254.034Z" transform="translate(-241.809 -247.056)"/><g transform="translate(1.85 2.972)"><path class="p" d="M248.363,250.621a17.811,17.811,0,0,1-2.594,1.607l-.62.344-.112.062-.061-.109a12.38,12.38,0,0,1-1.061-2.088A12.307,12.307,0,0,1,245.2,252.4l-.172-.047.617-.351A17.945,17.945,0,0,1,248.363,250.621Z" transform="translate(-243.912 -250.435)"/></g></g><g transform="translate(124.66 134.834)"><g transform="translate(0 0)"><rect class="l" width="13.641" height="8.486" transform="matrix(0.95, 0.312, -0.312, 0.95, 2.648, 0)"/></g><g transform="translate(2.648 0)"><path class="j" d="M255.54,235.758a3.135,3.135,0,0,1-.578.262l-1.613.631c-1.368.523-3.269,1.232-5.391,2.009l-.088.032-.057-.075-.215-.284c-1.413-1.866-2.682-3.563-3.589-4.8l-1.064-1.471a3.373,3.373,0,0,1-.363-.56,3.335,3.335,0,0,1,.442.5l1.128,1.423c.945,1.209,2.236,2.889,3.649,4.755l.215.285-.144-.043c2.123-.773,4.035-1.455,5.418-1.936l1.639-.556A3.066,3.066,0,0,1,255.54,235.758Z" transform="translate(-242.58 -231.501)"/><g class="o"><path class="j" d="M255.54,235.758a3.135,3.135,0,0,1-.578.262l-1.613.631c-1.368.523-3.269,1.232-5.391,2.009l-.088.032-.057-.075-.215-.284c-1.413-1.866-2.682-3.563-3.589-4.8l-1.064-1.471a3.373,3.373,0,0,1-.363-.56,3.335,3.335,0,0,1,.442.5l1.128,1.423c.945,1.209,2.236,2.889,3.649,4.755l.215.285-.144-.043c2.123-.773,4.035-1.455,5.418-1.936l1.639-.556A3.066,3.066,0,0,1,255.54,235.758Z" transform="translate(-242.58 -231.501)"/></g></g><g transform="translate(0 4.938)"><path class="j" d="M245.962,237.118a50.075,50.075,0,0,1-6.392,3.121,49.909,49.909,0,0,1,6.392-3.121Z" transform="translate(-239.569 -237.114)"/><g class="o"><path class="j" d="M245.962,237.118a50.075,50.075,0,0,1-6.392,3.121,49.909,49.909,0,0,1,6.392-3.121Z" transform="translate(-239.569 -237.114)"/></g></g><g transform="translate(10.466 6.131)"><path class="j" d="M254.2,244.737a46,46,0,0,1-2.726-6.265,46.283,46.283,0,0,1,2.726,6.265Z" transform="translate(-251.468 -238.472)"/><g class="o"><path class="j" d="M254.2,244.737a46,46,0,0,1-2.726-6.265,46.283,46.283,0,0,1,2.726,6.265Z" transform="translate(-251.468 -238.472)"/></g></g></g><g transform="translate(0 15.251)"><path class="h" d="M134.02,118.434a18.37,18.37,0,1,1-13.288-22.323A18.37,18.37,0,0,1,134.02,118.434Z" transform="translate(-97.839 -95.542)"/><g transform="translate(8.302 8.417)"><path class="p" d="M124.163,105.114c.32.125-1.771,6.274-4.668,13.733l-1.237,3.137-.222.561-.555-.214c-5.957-2.3-10.3-4.188-10.2-4.463s4.622,1.154,10.626,3.33l-.776.347,1.206-3.15C121.233,110.937,123.843,104.99,124.163,105.114Z" transform="translate(-107.278 -105.112)"/></g></g></g><g transform="translate(270.398 272.04)"><g transform="translate(31.533 41.775)"><path class="j" d="M395.124,416.868a17.024,17.024,0,0,1,10.564-1.283,8.777,8.777,0,0,1,5.218,2.329c1.3,1.44,1.552,3.974.054,5.211a5,5,0,0,1-3.29.835c-2.793-.033-5.891-.524-8.123,1.156-1.273.959-2.121,2.552-3.642,3.024a3.6,3.6,0,0,1-3.959-1.761,6.155,6.155,0,0,1-.448-4.539A6.93,6.93,0,0,1,395.124,416.868Z" transform="translate(-391.271 -415.287)"/><g class="o"><path class="p" d="M395.124,416.868a17.024,17.024,0,0,1,10.564-1.283,8.777,8.777,0,0,1,5.218,2.329c1.3,1.44,1.552,3.974.054,5.211a5,5,0,0,1-3.29.835c-2.793-.033-5.891-.524-8.123,1.156-1.273.959-2.121,2.552-3.642,3.024a3.6,3.6,0,0,1-3.959-1.761,6.155,6.155,0,0,1-.448-4.539A6.93,6.93,0,0,1,395.124,416.868Z" transform="translate(-391.271 -415.287)"/></g></g><g transform="translate(26.17)"><path class="j" d="M387.028,396.937c1.965,2.806,5.784,1.877,7.555.164s2.519-4.195,3.2-6.562c1.556-5.409,3.125-11.084,1.968-16.593a9.223,9.223,0,0,0-2.12-4.51,4.815,4.815,0,0,0-4.563-1.519c-1.925.509-3.122,2.4-3.987,4.188a39.553,39.553,0,0,0-3.909,16.974c-.01,2.734.313,5.6,1.855,7.859" transform="translate(-385.173 -367.791)"/></g><g transform="translate(0 9.03)"><path class="j" d="M378.049,402.2a10.214,10.214,0,0,0,1.588-9.4,18.114,18.114,0,0,0-5.566-8.073,29.959,29.959,0,0,0-9.966-5.88,10.622,10.622,0,0,0-4.481-.762,4.7,4.7,0,0,0-3.762,2.276c-1.049,2-.043,4.426,1.044,6.406a75.965,75.965,0,0,0,6.547,9.968c1.961,2.53,4.21,5.025,7.2,6.167s6.1,1.009,7.681-1.064" transform="translate(-355.42 -378.058)"/><g class="m"><path d="M378.049,402.2a10.214,10.214,0,0,0,1.588-9.4,18.114,18.114,0,0,0-5.566-8.073,29.959,29.959,0,0,0-9.966-5.88,10.622,10.622,0,0,0-4.481-.762,4.7,4.7,0,0,0-3.762,2.276c-1.049,2-.043,4.426,1.044,6.406a75.965,75.965,0,0,0,6.547,9.968c1.961,2.53,4.21,5.025,7.2,6.167s6.1,1.009,7.681-1.064" transform="translate(-355.42 -378.058)"/></g></g><g transform="translate(27.856 45.672)"><path class="e" d="M387.126,445.523a6.065,6.065,0,0,0,.178-1.275c.091-.928.2-2.093.339-3.48a50.333,50.333,0,0,1,.783-5.1,39.459,39.459,0,0,1,1.855-6.024,22.2,22.2,0,0,1,3.077-5.451,11.485,11.485,0,0,1,3.889-3.233,10.889,10.889,0,0,1,3.275-1.02,6.156,6.156,0,0,0,1.27-.184,6.009,6.009,0,0,0-1.292-.02,9.936,9.936,0,0,0-3.416.889,11.47,11.47,0,0,0-4.1,3.261,21.7,21.7,0,0,0-3.189,5.561,36.947,36.947,0,0,0-1.842,6.123,43.066,43.066,0,0,0-.678,5.169c-.111,1.478-.153,2.675-.173,3.5A5.927,5.927,0,0,0,387.126,445.523Z" transform="translate(-387.09 -419.717)"/></g><g transform="translate(27.856 11.276)"><path class="e" d="M387.366,438.136a2.592,2.592,0,0,0,.034-.592c0-.445,0-1-.005-1.692,0-1.468,0-3.593.076-6.218.13-5.247.581-12.492,1.455-20.455s2.044-15.13,3.107-20.271c.251-1.289.5-2.448.741-3.463s.421-1.9.608-2.605c.161-.668.291-1.212.4-1.645a2.507,2.507,0,0,0,.1-.583,2.5,2.5,0,0,0-.2.554l-.492,1.622c-.218.7-.442,1.574-.7,2.589s-.545,2.168-.82,3.454a192.063,192.063,0,0,0-3.266,20.29c-.875,7.979-1.268,15.245-1.3,20.507-.031,2.63.025,4.759.091,6.229.042.687.077,1.247.1,1.691A2.436,2.436,0,0,0,387.366,438.136Z" transform="translate(-387.09 -380.612)"/></g><g transform="translate(9.421 15.561)"><path class="e" d="M384.876,424.709a11.161,11.161,0,0,0-.011-1.768c-.066-1.136-.222-2.778-.542-4.788a62.911,62.911,0,0,0-1.558-6.978,61.814,61.814,0,0,0-2.917-8.256,43.964,43.964,0,0,0-8.568-13.341,21.616,21.616,0,0,0-2.016-1.873c-.309-.262-.582-.522-.861-.729l-.782-.539a11.14,11.14,0,0,0-1.488-.953,52.607,52.607,0,0,1,4.878,4.351,46.349,46.349,0,0,1,8.354,13.294,65.8,65.8,0,0,1,2.934,8.18,70.79,70.79,0,0,1,1.657,6.907c.365,1.99.576,3.616.7,4.742A11.526,11.526,0,0,0,384.876,424.709Z" transform="translate(-366.13 -385.483)"/></g></g><g transform="translate(164.794 170.13)"><path class="q" d="M235.354,292.673h36.821l14.587-40.746h-2.045l-14.461,38.757-34.9.2Z" transform="translate(-235.354 -251.927)"/></g><g transform="translate(113.81 210.876)"><g transform="translate(34.706 4.2)"><path class="e" d="M216.847,303.971l1.366,127.612h3.743l-1.522-128.556Z" transform="translate(-216.847 -303.027)"/></g><g transform="translate(113.488 3.902)"><path class="e" d="M306.463,302.689c-.5,2.436,3.378,129.15,3.378,129.15h3.536l-2.861-129.15Z" transform="translate(-306.417 -302.689)"/></g><path class="e" d="M333.977,298.252H177.388V304.7h12.922L181.9,430.6l3.678.2L194,304.7H320.8l6.146,126.147h3.687L324.488,304.7h9.49Z" transform="translate(-177.388 -298.252)"/></g><g transform="translate(40.099 88.716)"><g transform="translate(123.386 240.259)"><g transform="translate(0.252)"><path class="j" d="M252.442,442.385l.037-9.676-18.124-.185-.2,14.155,1.123.084c5,.329,25.437,1.319,28.791.34C267.806,446.009,252.442,442.385,252.442,442.385Z" transform="translate(-234.152 -432.524)"/><g transform="translate(0.021 8.818)"><path class="r" d="M240.728,447.811a6.284,6.284,0,0,0-2.274-3.888,6.1,6.1,0,0,0-4.223-1.361l-.055,5.065Z" transform="translate(-234.176 -442.549)"/></g></g><g transform="translate(0.252 11.9)"><path class="r" d="M259.947,446.053s5.381,1.612,4.7,2.494-21.375.658-30.493-.239l.033-.4,24.134.467S258.891,446.086,259.947,446.053Z" transform="translate(-234.152 -446.053)"/></g><g transform="translate(0 13.728)"><path class="e" d="M233.866,448.14a1.639,1.639,0,0,0,.311.037l.895.064,3.292.178c2.781.129,6.626.259,10.874.308s8.1.009,10.879-.057l3.3-.1.9-.043a1.623,1.623,0,0,0,.311-.03,1.707,1.707,0,0,0-.312-.014l-.9,0-3.3.032c-2.783.026-6.627.041-10.875-.007s-8.088-.154-10.87-.245l-3.294-.107-.9-.023A1.751,1.751,0,0,0,233.866,448.14Z" transform="translate(-233.866 -448.132)"/></g><g transform="translate(24.381 11.678)"><path class="e" d="M261.616,448.622a4.777,4.777,0,0,1,1.768-2.815,2.928,2.928,0,0,0-1.768,2.815Z" transform="translate(-261.586 -445.801)"/></g><g transform="translate(19.084 10.227)"><path class="e" d="M255.572,445.652c.051.033.31-.275.579-.689s.446-.776.395-.809-.31.275-.579.69S255.521,445.619,255.572,445.652Z" transform="translate(-255.563 -444.151)"/></g><g transform="translate(17.629 9.925)"><path class="e" d="M253.913,444.819c.04.046.328-.142.644-.42s.538-.538.5-.584-.328.142-.643.42S253.874,444.773,253.913,444.819Z" transform="translate(-253.909 -443.808)"/></g><g transform="translate(16.724 9.124)"><path class="e" d="M252.88,442.989a2.136,2.136,0,0,0,.945.131,2.112,2.112,0,0,0,.949-.09,4.148,4.148,0,0,0-1.894-.041Z" transform="translate(-252.88 -442.898)"/></g><g transform="translate(16.418 7.988)"><path class="e" d="M252.533,441.624a2.662,2.662,0,0,0,2.143.185,82.321,82.321,0,0,1-2.143-.185Z" transform="translate(-252.532 -441.606)"/></g><g transform="translate(19.724 8.549)"><path class="e" d="M256.291,443.848a3.377,3.377,0,0,0,1.165.005,6.913,6.913,0,0,0,1.243-.26,3.382,3.382,0,0,0,.712-.285.626.626,0,0,0,.292-.359.458.458,0,0,0-.172-.467,2.136,2.136,0,0,0-2.647.6,2.081,2.081,0,0,0-.389.773.645.645,0,0,0-.033.314,3.29,3.29,0,0,1,.542-.988,2.1,2.1,0,0,1,1-.636,1.8,1.8,0,0,1,1.387.11c.183.139.108.355-.1.476a3.466,3.466,0,0,1-.658.273,8,8,0,0,1-1.2.3C256.736,443.816,256.291,443.812,256.291,443.848Z" transform="translate(-256.291 -442.243)"/></g><g transform="translate(18.524 7.948)"><path class="e" d="M256.428,443.827a1.157,1.157,0,0,0,.142-.807,1.907,1.907,0,0,0-.309-.854,1.168,1.168,0,0,0-.963-.6.464.464,0,0,0-.365.534,1.275,1.275,0,0,0,.193.522,3.5,3.5,0,0,0,.543.711,1.675,1.675,0,0,0,.661.478c.02-.028-.23-.211-.547-.583a4.093,4.093,0,0,1-.48-.7c-.157-.248-.262-.691.031-.741.292-.026.587.268.762.5a1.906,1.906,0,0,1,.321.761A4.243,4.243,0,0,1,256.428,443.827Z" transform="translate(-254.927 -441.56)"/></g><g transform="translate(0.424 8.67)"><path class="e" d="M234.348,442.493c0,.041.52-.044,1.338.062a5.68,5.68,0,0,1,4.706,3.835c.268.78.289,1.3.331,1.3a1.052,1.052,0,0,0,0-.365,4.794,4.794,0,0,0-.187-.98A5.508,5.508,0,0,0,235.7,442.4a4.792,4.792,0,0,0-1,.015A1.048,1.048,0,0,0,234.348,442.493Z" transform="translate(-234.348 -442.381)"/></g><g transform="translate(2.156 1.26)"><path class="e" d="M236.545,433.956a63.375,63.375,0,0,0-.175,7.447,63.387,63.387,0,0,0,.175-7.447Z" transform="translate(-236.317 -433.956)"/></g><g transform="translate(9.124 12.318)"><path class="e" d="M244.239,446.548a14.885,14.885,0,0,0,5.3.107c-.005-.063-1.189,0-2.648-.036S244.247,446.485,244.239,446.548Z" transform="translate(-244.239 -446.529)"/></g><g transform="translate(5.563 12.287)"><path class="e" d="M240.2,446.5c-.045.044.094.252.212.525s.181.514.244.511.1-.286-.042-.6S240.239,446.457,240.2,446.5Z" transform="translate(-240.191 -446.493)"/></g><g transform="translate(4.242 10.605)"><path class="e" d="M238.7,444.59c-.043.042.071.232.257.424s.371.314.415.272-.071-.232-.257-.425S238.742,444.548,238.7,444.59Z" transform="translate(-238.689 -444.581)"/></g><g transform="translate(2.343 9.731)"><path class="e" d="M236.531,443.688c.012.062.253.062.518.158s.456.241.5.2-.1-.292-.43-.406S236.513,443.632,236.531,443.688Z" transform="translate(-236.53 -443.588)"/></g><g transform="translate(0.981 9.417)"><path class="e" d="M234.985,443.271c-.023.056.081.15.23.21s.289.062.312.007-.081-.151-.23-.211S235.007,443.215,234.985,443.271Z" transform="translate(-234.981 -443.231)"/></g></g><g transform="translate(157.067 231.516)"><g transform="translate(0)"><path class="j" d="M292.7,431.416l-3.947-8.833-16.6,7.288,5.639,12.985,1.058-.385c4.691-1.757,23.727-9.264,26.381-11.536C308.2,428.4,292.7,431.416,292.7,431.416Z" transform="translate(-272.16 -422.583)"/><g transform="translate(3.518 14.691)"><path class="r" d="M284.24,442.1a6.292,6.292,0,0,0-3.671-2.609,6.107,6.107,0,0,0-4.408.5l2.034,4.64Z" transform="translate(-276.16 -439.286)"/></g><g transform="translate(5.502 7.355)"><path class="r" d="M301.134,431.195s5.568-.745,5.309.34-19.21,9.395-27.891,12.328l-.136-.383,22.189-9.5S300.186,431.66,301.134,431.195Z" transform="translate(-278.416 -430.945)"/></g><g transform="translate(5.238 7.665)"><path class="e" d="M278.115,443.628a1.669,1.669,0,0,0,.3-.094l.842-.311,3.074-1.193c2.588-1.026,6.145-2.49,10.037-4.193s7.383-3.323,9.892-4.528l2.961-1.449.8-.407a1.563,1.563,0,0,0,.272-.156,1.674,1.674,0,0,0-.291.116l-.816.37-2.991,1.384c-2.526,1.169-6.024,2.764-9.914,4.468s-7.436,3.188-10.008,4.249l-3.047,1.258-.826.348A1.6,1.6,0,0,0,278.115,443.628Z" transform="translate(-278.115 -431.297)"/></g><g transform="translate(27.482 7.351)"><path class="e" d="M303.723,434.236a4.787,4.787,0,0,1,.455-3.293,2.93,2.93,0,0,0-.455,3.293Z" transform="translate(-303.406 -430.94)"/></g><g transform="translate(21.774 8.543)"><path class="e" d="M296.954,434.061c.061.01.17-.378.245-.866a1.894,1.894,0,0,0,.026-.9,3.695,3.695,0,0,0-.271,1.765Z" transform="translate(-296.916 -432.296)"/></g><g transform="translate(20.141 8.801)"><path class="e" d="M295.075,433.975c.055.026.241-.265.414-.646s.268-.712.214-.738-.241.265-.414.647S295.019,433.951,295.075,433.975Z" transform="translate(-295.059 -432.589)"/></g><g transform="translate(18.619 8.239)"><path class="e" d="M293.33,432.7a2.152,2.152,0,0,0,.915-.269c.481-.2.851-.416.828-.472a2.142,2.142,0,0,0-.914.27C293.677,432.437,293.306,432.648,293.33,432.7Z" transform="translate(-293.329 -431.95)"/></g><g transform="translate(17.844 7.295)"><path class="e" d="M292.447,431.6a2.664,2.664,0,0,0,2.03-.713,81.476,81.476,0,0,1-2.03.713Z" transform="translate(-292.447 -430.877)"/></g><g transform="translate(21.74 6.031)"><path class="e" d="M296.878,432.022a3.323,3.323,0,0,0,1.063-.474,6.8,6.8,0,0,0,1.026-.749,3.409,3.409,0,0,0,.533-.552.634.634,0,0,0,.119-.448.46.46,0,0,0-.349-.355,2.137,2.137,0,0,0-2.168,1.633,2.086,2.086,0,0,0-.035.864.649.649,0,0,0,.1.3,3.281,3.281,0,0,1,.087-1.123,2.1,2.1,0,0,1,.651-.991,1.807,1.807,0,0,1,1.31-.471c.224.051.245.28.106.474a3.479,3.479,0,0,1-.487.519,7.964,7.964,0,0,1-.973.768C297.269,431.81,296.863,431.99,296.878,432.022Z" transform="translate(-296.878 -429.44)"/></g><g transform="translate(19.887 6.852)"><path class="e" d="M296.923,432.067a1.151,1.151,0,0,0-.2-.8,1.915,1.915,0,0,0-.633-.651,1.169,1.169,0,0,0-1.127-.155.464.464,0,0,0-.113.637,1.275,1.275,0,0,0,.391.4,3.516,3.516,0,0,0,.786.425,1.691,1.691,0,0,0,.8.164c.007-.034-.3-.1-.739-.307a4.087,4.087,0,0,1-.727-.444c-.245-.162-.523-.522-.277-.689a1.042,1.042,0,0,1,.9.145,1.922,1.922,0,0,1,.606.561A4.18,4.18,0,0,1,296.923,432.067Z" transform="translate(-294.771 -430.374)"/></g><g transform="translate(3.585 14.347)"><path class="e" d="M276.236,439.852c.019.036.456-.253,1.245-.494a5.678,5.678,0,0,1,5.867,1.559c.566.6.8,1.068.835,1.047a1.033,1.033,0,0,0-.146-.335,4.751,4.751,0,0,0-.573-.815,5.509,5.509,0,0,0-6.03-1.6,4.761,4.761,0,0,0-.9.424C276.329,439.758,276.228,439.84,276.236,439.852Z" transform="translate(-276.236 -438.895)"/></g><g transform="translate(2.273 7.642)"><path class="e" d="M274.747,431.272a63.237,63.237,0,0,0,2.9,6.86,63.223,63.223,0,0,0-2.9-6.86Z" transform="translate(-274.744 -431.272)"/></g><g transform="translate(12.977 12.881)"><path class="e" d="M286.914,439.313a14.9,14.9,0,0,0,4.871-2.081c-.031-.056-1.085.486-2.428,1.056S286.9,439.252,286.914,439.313Z" transform="translate(-286.914 -437.228)"/></g><g transform="translate(9.72 16.367)"><path class="e" d="M283.213,441.212c-.022.058.19.19.41.391s.376.394.432.366-.029-.3-.285-.529S283.231,441.156,283.213,441.212Z" transform="translate(-283.211 -441.192)"/></g><g transform="translate(7.825 15.372)"><path class="e" d="M281.059,440.087c-.023.056.16.182.408.281s.468.133.49.077-.16-.182-.408-.281S281.081,440.031,281.059,440.087Z" transform="translate(-281.057 -440.06)"/></g><g transform="translate(5.762 15.181)"><path class="e" d="M278.716,440.133c.036.051.256-.048.537-.069s.514.032.541-.025-.212-.225-.56-.194S278.677,440.089,278.716,440.133Z" transform="translate(-278.712 -439.843)"/></g><g transform="translate(4.374 15.567)"><path class="e" d="M277.133,440.405c0,.061.135.1.3.1s.289-.062.287-.122-.135-.1-.3-.1S277.13,440.344,277.133,440.405Z" transform="translate(-277.133 -440.282)"/></g></g></g><g transform="translate(0 73.221)"><path class="f" d="M106.709,345.089l-13.087-97.8a4.128,4.128,0,0,1,4.439-4.661l31.543,2.664a5.976,5.976,0,0,1,5.451,5.46l7.68,92.6Z" transform="translate(-93.585 -242.612)"/></g><g transform="translate(39.935)"><g transform="translate(1.482)"><path class="e" d="M142.815,191.329c-.264-3.723-1.241-7.356-1.783-11.049s-.621-7.588.837-11.024a16.044,16.044,0,0,1,9.093-8.321,27.852,27.852,0,0,1,12.469-1.424,5.9,5.9,0,0,1,2.207.5,2.186,2.186,0,0,1,1.263,1.766A1.368,1.368,0,0,1,165.5,163.2a22.022,22.022,0,0,1,4.725,1.012,2.716,2.716,0,0,1,1.529,1.1,2.083,2.083,0,0,1-.211,2.074,6.145,6.145,0,0,1-1.584,1.493,1.458,1.458,0,0,1,1.71,1.155,2.8,2.8,0,0,1-.6,2.172c-.451.629-1.033,1.154-1.5,1.773-1.9,2.53-1.529,6.041-1.067,9.172" transform="translate(-140.672 -159.365)"/></g><g transform="translate(3.579 8.32)"><path class="s" d="M143.449,214.321,161.224,214c.237-2.058.583-10.057.583-10.057s7.43-.69,7.974-8.043.312-24.327.312-24.327h0a25.622,25.622,0,0,0-25.9,1.645l-1.142.772Z" transform="translate(-143.057 -168.824)"/><g transform="translate(22.731 12.555)"><g transform="translate(1.529 1.134)"><path class="e" d="M170.942,186.206a1.071,1.071,0,1,1,1.514.019A1.071,1.071,0,0,1,170.942,186.206Z" transform="translate(-170.638 -184.388)"/></g><path class="e" d="M172.621,184.264c-.123.121-.812-.48-1.824-.548s-1.781.412-1.885.274c-.052-.062.077-.284.413-.508a2.5,2.5,0,0,1,2.961.218C172.585,183.972,172.68,184.212,172.621,184.264Z" transform="translate(-168.9 -183.098)"/></g><g transform="translate(11.668 12.769)"><g transform="translate(1.366 0.921)"><path class="e" d="M159.562,184.583a1.07,1.07,0,1,1-1.491.259A1.07,1.07,0,0,1,159.562,184.583Z" transform="translate(-157.876 -184.388)"/></g><path class="e" d="M160.043,184.507c-.123.12-.811-.481-1.824-.548-1.011-.083-1.78.411-1.885.274-.051-.062.078-.284.414-.508a2.5,2.5,0,0,1,2.961.219C160.007,184.214,160.1,184.454,160.043,184.507Z" transform="translate(-156.323 -183.341)"/></g><g transform="translate(18.862 13.698)"><path class="e" d="M164.576,193.245a4.918,4.918,0,0,1,1.661-.246c.266-.012.478-.06.507-.2a1.453,1.453,0,0,0-.143-.771c-.22-.686-.442-1.381-.675-2.108a28.329,28.329,0,0,1-1.4-5.52,28.256,28.256,0,0,1,1.953,5.349c.217.733.426,1.432.631,2.122a1.691,1.691,0,0,1,.077,1.111.7.7,0,0,1-.483.395,1.686,1.686,0,0,1-.456.031A4.922,4.922,0,0,1,164.576,193.245Z" transform="translate(-164.502 -184.398)"/></g><g transform="translate(15.406 23.337)"><path class="p" d="M160.741,195.482c-1.017-.694,2.812,1.724,4.881,1.75a2.806,2.806,0,0,1-3.373.911C160.1,197.2,160.741,195.482,160.741,195.482Z" transform="translate(-160.572 -195.357)"/></g><g transform="translate(9.344 31.696)"><path class="t" d="M163.105,208.178a17.144,17.144,0,0,1-9.424-3.318s1.941,5.435,9.324,5.225Z" transform="translate(-153.681 -204.86)"/></g></g><g transform="translate(1.599 4.239)"><path class="e" d="M142.549,179.008l.383,9.542s3.347-1.017,3.572-1.114-.063-11.688-.063-11.688-.469-4.371,2.383-5.408c3-1.09,4.3,1.086,8.549,1.8,14.013,2.361,13.046-1.939,13.046-1.939s1.768-1.888-1.83-3.968c-3.717-2.147-12.6-2.777-17.528-1.081-9.7,3.339-10.256,6.649-10.256,9.579C140.806,178.831,142.549,179.008,142.549,179.008Z" transform="translate(-140.806 -164.184)"/></g><g transform="translate(0 19.963)"><path class="s" d="M143.979,182.113c-.159-.061-5.459-.749-4.958,5.508s6.655,3.683,6.651,3.5S143.979,182.113,143.979,182.113Z" transform="translate(-138.988 -182.062)"/><g transform="translate(1.599 2.159)"><path class="t" d="M143.8,189.377c-.029-.018-.1.085-.28.185a1.1,1.1,0,0,1-.814.082,2.706,2.706,0,0,1-1.442-2.32,3.608,3.608,0,0,1,.18-1.586,1.263,1.263,0,0,1,.753-.9.558.558,0,0,1,.668.248c.1.168.068.3.1.3.018.014.126-.116.055-.37a.7.7,0,0,0-.278-.372.828.828,0,0,0-.616-.112,1.538,1.538,0,0,0-1.061,1.062,3.713,3.713,0,0,0-.238,1.775,2.838,2.838,0,0,0,1.807,2.574,1.166,1.166,0,0,0,.983-.245C143.8,189.529,143.821,189.386,143.8,189.377Z" transform="translate(-140.806 -184.517)"/></g></g></g><g transform="translate(114.782 104.264)"><path class="s" d="M224.084,278.016s8.757-.419,10.582.376c3.049,1.33,12.1,15.531,11.648,15.534-1.367.007-4.19-.012-4.19-.012l-14.095-5.335-3.312.838Z" transform="translate(-224.084 -277.906)"/></g><g transform="translate(139.433 145.135)"><g transform="translate(0)"><path class="e" d="M265.275,324.374s26.343,91.163,26.381,90.695-23.589,11.372-23.589,11.372l-15.956-65.916Z" transform="translate(-252.111 -324.374)"/></g><g transform="translate(14.159 87.129)"><path class="q" d="M269.485,438.929l24.932-12.166-1.083-3.329-25.124,12.18Z" transform="translate(-268.209 -423.434)"/></g><g transform="translate(11.315 66.42)"><path class="q" d="M265.823,402.559c-.128.039-.407-.529-.624-1.266s-.289-1.366-.16-1.4.407.53.624,1.267S265.951,402.522,265.823,402.559Z" transform="translate(-264.976 -399.889)"/><g transform="translate(1.59 5.332)"><path class="q" d="M267.665,408.611c-.128.04-.414-.522-.641-1.257s-.308-1.362-.18-1.4.415.524.642,1.258S267.793,408.571,267.665,408.611Z" transform="translate(-266.783 -405.951)"/></g><g transform="translate(3.255 10.642)"><path class="q" d="M269.593,414.637c-.127.041-.422-.517-.66-1.249s-.327-1.357-.2-1.4.422.518.66,1.249S269.72,414.6,269.593,414.637Z" transform="translate(-268.676 -411.989)"/></g><g transform="translate(4.995 15.929)"><path class="q" d="M271.606,420.637c-.126.043-.429-.512-.676-1.239s-.347-1.353-.22-1.4.43.513.677,1.24S271.732,420.593,271.606,420.637Z" transform="translate(-270.654 -417.999)"/></g><g transform="translate(6.809 21.193)"><path class="q" d="M273.7,426.609c-.126.046-.436-.506-.695-1.23s-.365-1.348-.239-1.391.437.506.695,1.23S273.83,426.563,273.7,426.609Z" transform="translate(-272.717 -423.984)"/></g><g transform="translate(8.698 26.431)"><path class="q" d="M275.886,432.551c-.125.048-.444-.5-.712-1.221s-.384-1.343-.259-1.389.444.5.712,1.221S276.011,432.5,275.886,432.551Z" transform="translate(-274.864 -429.939)"/></g></g><g transform="translate(10.447 71.612)"><path class="q" d="M273.172,431.835a4.682,4.682,0,0,1-.527-.954c-.308-.629-.732-1.55-1.215-2.706-.978-2.305-2.185-5.549-3.4-9.168s-2.23-6.921-2.955-9.314l-.837-2.84a4.771,4.771,0,0,1-.246-1.061,4.73,4.73,0,0,1,.426,1c.244.655.579,1.61.982,2.793.826,2.475,1.9,5.7,3.089,9.264,1.209,3.614,2.361,6.865,3.255,9.2l1.07,2.757A4.786,4.786,0,0,1,273.172,431.835Z" transform="translate(-263.989 -405.792)"/></g></g><g transform="translate(29.823 131.357)"><path class="u" d="M127.491,316.152c.222-4.832-2.524,26.5,21.556,27.33,24.107.832,73.286.464,73.286.464l-5.761,79.449h28.889l6.037-84.487s3.075-24.486-13.676-27.612c-10.487-1.957-75.688-2.587-75.688-2.587Z" transform="translate(-127.491 -308.709)"/></g><g transform="translate(118.244 241.482)"><path class="q" d="M228.021,438.645h30.422v-4.732l-30.422.037Z" transform="translate(-228.021 -433.914)"/></g><g transform="translate(70.646 160.112)"><path class="q" d="M173.9,343.662a1.706,1.706,0,0,1,.31-.033l.911-.051,3.519-.157,13.057-.5,44.058-1.513.28-.01-.034.279c-.4,3.24-.73,6.656-1.011,10.136-.383,4.963-.756,9.809-1.117,14.49-.378,4.683-.887,9.184-1.325,13.474-.9,8.574-1.711,16.3-2.392,22.792-.7,6.467-1.26,11.709-1.654,15.362-.2,1.792-.362,3.193-.474,4.173l-.135,1.084a2.222,2.222,0,0,1-.062.368,2.205,2.205,0,0,1,.013-.373c.022-.268.051-.629.088-1.089.091-.982.219-2.387.384-4.183.356-3.657.869-8.9,1.5-15.377.652-6.5,1.428-14.225,2.289-22.8.427-4.293.925-8.792,1.3-13.467s.727-9.526,1.106-14.491c.282-3.483.617-6.906,1.019-10.156l.245.269-44.063,1.353-13.062.352-3.522.073-.912.008A1.558,1.558,0,0,1,173.9,343.662Z" transform="translate(-173.905 -341.402)"/></g><g transform="translate(70.646 157.309)"><g transform="translate(0 1.44)"><path class="q" d="M176.689,340.062c0,.134-.617.256-1.386.274s-1.394-.076-1.4-.208.617-.257,1.386-.274S176.685,339.929,176.689,340.062Z" transform="translate(-173.905 -339.851)"/></g><g transform="translate(5.568 1.309)"><path class="q" d="M183.019,339.913c0,.134-.617.257-1.386.274s-1.395-.076-1.4-.208.617-.256,1.386-.274S183.015,339.78,183.019,339.913Z" transform="translate(-180.235 -339.702)"/></g><g transform="translate(11.135 1.178)"><path class="q" d="M189.348,339.764c0,.134-.617.257-1.386.274s-1.394-.075-1.4-.208.617-.256,1.385-.274S189.345,339.631,189.348,339.764Z" transform="translate(-186.565 -339.553)"/></g><g transform="translate(16.702 1.047)"><path class="q" d="M195.678,339.616c0,.134-.617.256-1.386.274s-1.394-.076-1.4-.209.617-.256,1.386-.274S195.674,339.482,195.678,339.616Z" transform="translate(-192.894 -339.405)"/></g><g transform="translate(22.27 0.916)"><path class="q" d="M202.008,339.467c0,.134-.618.256-1.386.274s-1.395-.076-1.4-.209.617-.256,1.386-.274S202,339.333,202.008,339.467Z" transform="translate(-199.224 -339.256)"/></g><g transform="translate(27.836 0.785)"><path class="q" d="M208.337,339.318c0,.134-.617.257-1.386.274s-1.394-.076-1.4-.209.617-.256,1.386-.274S208.334,339.184,208.337,339.318Z" transform="translate(-205.553 -339.107)"/></g><g transform="translate(33.404 0.654)"><path class="q" d="M214.667,339.169c0,.134-.617.257-1.386.274s-1.394-.076-1.4-.208.617-.257,1.386-.274S214.663,339.036,214.667,339.169Z" transform="translate(-211.883 -338.958)"/></g><g transform="translate(38.971 0.523)"><path class="q" d="M221,339.021c0,.133-.617.256-1.385.274s-1.395-.075-1.4-.208.617-.256,1.386-.274S220.993,338.887,221,339.021Z" transform="translate(-218.213 -338.81)"/></g><g transform="translate(44.538 0.392)"><path class="q" d="M227.326,338.872c0,.133-.617.256-1.386.274s-1.394-.076-1.4-.209.617-.256,1.386-.274S227.322,338.738,227.326,338.872Z" transform="translate(-224.542 -338.661)"/></g><g transform="translate(50.106 0.261)"><path class="q" d="M233.656,338.723c0,.134-.617.256-1.386.274s-1.394-.076-1.4-.209.617-.256,1.386-.274S233.652,338.589,233.656,338.723Z" transform="translate(-230.872 -338.512)"/></g><g transform="translate(55.673 0.131)"><path class="q" d="M239.985,338.574c0,.134-.617.257-1.385.274s-1.395-.076-1.4-.209.617-.256,1.386-.274S239.982,338.44,239.985,338.574Z" transform="translate(-237.202 -338.363)"/></g><g transform="translate(61.24)"><path class="q" d="M246.315,338.425c0,.134-.617.257-1.386.274s-1.394-.075-1.4-.208.617-.257,1.386-.274S246.311,338.292,246.315,338.425Z" transform="translate(-243.531 -338.214)"/></g><g transform="translate(63.874 2.486)"><path class="q" d="M246.666,343.812c-.133-.013-.179-.644-.1-1.409s.244-1.375.376-1.362.18.644.1,1.409S246.8,343.825,246.666,343.812Z" transform="translate(-246.525 -341.041)"/></g><g transform="translate(63.33 8.028)"><path class="q" d="M246.048,350.113c-.133-.013-.179-.645-.1-1.41s.244-1.375.376-1.362.18.644.1,1.409S246.181,350.126,246.048,350.113Z" transform="translate(-245.907 -347.342)"/></g><g transform="translate(62.787 13.57)"><path class="q" d="M245.43,356.414c-.133-.013-.179-.645-.1-1.41s.244-1.375.376-1.362.179.644.1,1.409S245.563,356.428,245.43,356.414Z" transform="translate(-245.289 -353.643)"/></g><g transform="translate(62.243 19.112)"><path class="q" d="M244.812,362.715c-.133-.013-.179-.644-.1-1.409s.244-1.376.376-1.362.179.644.1,1.409S244.945,362.729,244.812,362.715Z" transform="translate(-244.671 -359.944)"/></g><g transform="translate(61.699 24.654)"><path class="q" d="M244.193,369.016c-.133-.013-.179-.644-.1-1.409s.244-1.376.376-1.362.179.644.1,1.41S244.327,369.03,244.193,369.016Z" transform="translate(-244.053 -366.245)"/></g><g transform="translate(61.155 30.197)"><path class="q" d="M243.575,375.318c-.133-.013-.179-.644-.1-1.409s.244-1.375.376-1.362.18.643.1,1.409S243.708,375.331,243.575,375.318Z" transform="translate(-243.434 -372.547)"/></g><g transform="translate(60.612 35.739)"><path class="q" d="M242.957,381.619c-.133-.013-.179-.644-.1-1.409s.244-1.375.376-1.362.179.644.1,1.409S243.09,381.632,242.957,381.619Z" transform="translate(-242.816 -378.848)"/></g><g transform="translate(60.068 41.281)"><path class="q" d="M242.339,387.92c-.133-.013-.179-.644-.1-1.409s.244-1.375.376-1.362.179.644.1,1.409S242.472,387.933,242.339,387.92Z" transform="translate(-242.198 -385.149)"/></g><g transform="translate(59.524 46.824)"><path class="q" d="M241.721,394.221c-.133-.012-.18-.644-.1-1.409s.244-1.375.376-1.362.179.644.1,1.409S241.854,394.234,241.721,394.221Z" transform="translate(-241.58 -391.45)"/></g><g transform="translate(58.98 52.366)"><path class="q" d="M241.1,400.522c-.133-.012-.179-.644-.1-1.408s.243-1.376.376-1.362.179.644.1,1.409S241.235,400.535,241.1,400.522Z" transform="translate(-240.962 -397.751)"/></g><g transform="translate(58.436 57.908)"><path class="q" d="M240.484,406.823c-.133-.013-.179-.644-.1-1.409s.244-1.376.376-1.362.179.644.1,1.409S240.617,406.836,240.484,406.823Z" transform="translate(-240.343 -404.052)"/></g><g transform="translate(57.893 63.45)"><path class="q" d="M239.866,413.124c-.133-.013-.179-.644-.1-1.409s.244-1.376.376-1.362.179.644.1,1.409S240,413.138,239.866,413.124Z" transform="translate(-239.725 -410.353)"/></g><g transform="translate(57.349 68.992)"><path class="q" d="M239.248,419.425c-.133-.013-.179-.644-.1-1.409s.244-1.375.376-1.362.179.644.1,1.41S239.381,419.439,239.248,419.425Z" transform="translate(-239.107 -416.654)"/></g><g transform="translate(56.805 74.535)"><path class="q" d="M238.63,425.727c-.133-.013-.18-.644-.1-1.409s.244-1.375.376-1.362.179.644.1,1.409S238.763,425.74,238.63,425.727Z" transform="translate(-238.489 -422.956)"/></g><g transform="translate(56.261 80.077)"><path class="q" d="M238.011,432.028c-.133-.013-.179-.644-.1-1.409s.244-1.375.376-1.362.18.644.1,1.409S238.144,432.041,238.011,432.028Z" transform="translate(-237.87 -429.257)"/></g><g transform="translate(55.882 85.616)"><path class="q" d="M237.671,435.723c-.133-.013-.237-.061-.232-.106s.115-.072.248-.059.237.061.232.106S237.8,435.736,237.671,435.723Z" transform="translate(-237.439 -435.554)"/></g></g><g transform="translate(124.484 162.883)"><path class="e" d="M239.238,344.561a16.2,16.2,0,0,1-4.116,3.768,16.278,16.278,0,0,1,4.116-3.768Z" transform="translate(-235.115 -344.552)"/></g><g transform="translate(124.19 163.945)"><path class="e" d="M241.194,345.777a25.708,25.708,0,0,1-6.412,2.879,25.671,25.671,0,0,1,6.412-2.879Z" transform="translate(-234.78 -345.76)"/></g><g transform="translate(27.978 46.93)"><path class="v" d="M169.264,266.706s-2.947-31.566-8.182-45.387l1.043-.785-1.559-5.439-19.579-2.375.3,4.247a13.945,13.945,0,0,0-6.7,6.364c-7.013,14.9-3.556,32.3-7.3,64.538,0,0-4.378,15.12.148,19.851l42.714-9.956-2.038-9.746c18.647-.356,49.307-3.784,49.307-3.784l-.855-17.64s-45.81.274-47.309.111" transform="translate(-125.394 -212.721)"/></g><g transform="translate(28.31 47.182)"><g transform="translate(34.666 2.095)"><path class="d" d="M165.323,215.391a15.2,15.2,0,0,1,1.414,3.538,6.714,6.714,0,0,1,.39,1.488,1.088,1.088,0,0,1-.251.736,1.328,1.328,0,0,1-.529.37c-.739.228-1.158.066-1.162.031-.017-.09.462-.079,1.019-.341a.8.8,0,0,0,.478-.778,9.124,9.124,0,0,0-.4-1.355A15.182,15.182,0,0,1,165.323,215.391Z" transform="translate(-165.185 -215.39)"/></g><g transform="translate(4.308 25.359)"><path class="p" d="M165.836,242.082c0,.134-7.873.242-17.582.242s-17.585-.108-17.585-.242,7.872-.242,17.585-.242S165.836,241.948,165.836,242.082Z" transform="translate(-130.669 -241.84)"/></g><g transform="translate(6.461 16.464)"><path class="p" d="M164.289,231.969c0,.133-6.978.241-15.585.241s-15.587-.108-15.587-.241,6.977-.242,15.587-.242S164.289,231.835,164.289,231.969Z" transform="translate(-133.117 -231.727)"/></g><g transform="translate(9.283 8.639)"><path class="p" d="M162.109,223.072c0,.134-5.773.242-12.891.242s-12.893-.108-12.893-.242,5.772-.242,12.893-.242S162.109,222.938,162.109,223.072Z" transform="translate(-136.325 -222.83)"/></g><g transform="translate(15.055 3.123)"><path class="p" d="M162.644,216.8c0,.134-4.423.242-9.877.242s-9.878-.108-9.878-.242,4.422-.242,9.878-.242S162.644,216.667,162.644,216.8Z" transform="translate(-142.888 -216.559)"/></g><g transform="translate(3.51 33.91)"><path class="p" d="M166.963,251.8c0,.133-8.329.241-18.6.241s-18.6-.108-18.6-.241,8.327-.242,18.6-.242S166.963,251.67,166.963,251.8Z" transform="translate(-129.762 -251.562)"/></g><g transform="translate(3.51 42.505)"><path class="p" d="M168.477,261.575c0,.134-8.667.242-19.356.242s-19.359-.108-19.359-.242,8.666-.242,19.359-.242S168.477,261.442,168.477,261.575Z" transform="translate(-129.762 -261.333)"/></g><g transform="translate(3.51 50.427)"><path class="p" d="M169.428,270.581c0,.134-8.88.242-19.832.242s-19.834-.108-19.834-.242,8.878-.241,19.834-.241S169.428,270.448,169.428,270.581Z" transform="translate(-129.762 -270.34)"/></g><g transform="translate(2.78 59.083)"><path class="p" d="M212.624,280.424c0,.134-18.736.242-41.844.242s-41.848-.108-41.848-.242,18.733-.242,41.848-.242S212.624,280.29,212.624,280.424Z" transform="translate(-128.932 -280.182)"/></g><g transform="translate(2.468 66.02)"><path class="p" d="M212.9,288.311c0,.134-18.878.242-42.161.242s-42.164-.108-42.164-.242,18.874-.242,42.164-.242S212.9,288.177,212.9,288.311Z" transform="translate(-128.577 -288.069)"/></g><g transform="translate(1.46 74.57)"><path class="p" d="M167.724,298.031c0,.134-9.021.242-20.145.242s-20.148-.108-20.148-.242,9.019-.242,20.148-.242S167.724,297.9,167.724,298.031Z" transform="translate(-127.431 -297.789)"/></g><g transform="translate(0 82.501)"><path class="e" d="M169.574,307.047c0,.134-9.806.242-21.9.242s-21.9-.108-21.9-.242,9.8-.241,21.9-.241S169.574,306.914,169.574,307.047Z" transform="translate(-125.771 -306.806)"/></g><g transform="translate(6.262 16.135)"><path class="p" d="M133.133,300.062c-.134,0-.242-15.383-.242-34.354s.108-34.356.242-34.356.242,15.379.242,34.356S133.267,300.062,133.133,300.062Z" transform="translate(-132.891 -231.352)"/></g><g transform="translate(16.834)"><path class="p" d="M145.152,297c-.134,0-.242-18.8-.242-42s.108-42,.242-42,.241,18.8.241,42S145.285,297,145.152,297Z" transform="translate(-144.91 -213.008)"/></g><g transform="translate(28.506 1.764)"><path class="p" d="M158.422,295.991c-.134,0-.242-18.129-.242-40.487s.108-40.49.242-40.49.241,18.125.241,40.49S158.555,295.991,158.422,295.991Z" transform="translate(-158.18 -215.014)"/></g><g transform="translate(38.309 21.255)"><path class="p" d="M169.568,300.735c-.134,0-.242-14.229-.242-31.779s.108-31.783.242-31.783.241,14.227.241,31.783S169.7,300.735,169.568,300.735Z" transform="translate(-169.326 -237.173)"/></g><g transform="translate(48.337 53.693)"><path class="p" d="M181.328,274.054a19.621,19.621,0,0,1,.1,3.091c0,1.907-.038,4.538-.107,7.444s-.159,5.537-.248,7.441a19.674,19.674,0,0,1-.245,3.083,19.383,19.383,0,0,1-.1-3.085c0-1.907.038-4.541.107-7.451s.159-5.542.249-7.446A19.353,19.353,0,0,1,181.328,274.054Z" transform="translate(-180.727 -274.054)"/></g><g transform="translate(59.402 54.062)"><path class="p" d="M193.88,274.473a17.171,17.171,0,0,1,.1,2.9c0,1.785-.031,4.251-.1,6.972s-.151,5.187-.237,6.971a17.227,17.227,0,0,1-.24,2.888,17.107,17.107,0,0,1-.1-2.89c0-1.786.031-4.254.1-6.98s.151-5.191.237-6.976A17.188,17.188,0,0,1,193.88,274.473Z" transform="translate(-193.307 -274.473)"/></g><g transform="translate(70.465 53.868)"><path class="p" d="M206.445,274.252a16.131,16.131,0,0,1,.1,2.808c0,1.732-.027,4.122-.091,6.759s-.147,5.028-.232,6.757a16.255,16.255,0,0,1-.237,2.8,15.981,15.981,0,0,1-.1-2.8c0-1.731.027-4.123.091-6.766s.147-5.033.232-6.762A16.193,16.193,0,0,1,206.445,274.252Z" transform="translate(-205.885 -274.252)"/></g><g transform="translate(81.529 53.554)"><path class="p" d="M219.014,273.895a15.223,15.223,0,0,1,.106,2.725c0,1.68-.025,4-.086,6.559s-.143,4.878-.228,6.556a15.249,15.249,0,0,1-.236,2.716,15.147,15.147,0,0,1-.106-2.719c0-1.68.025-4,.086-6.566s.143-4.883.228-6.561A15.259,15.259,0,0,1,219.014,273.895Z" transform="translate(-218.465 -273.895)"/></g><g transform="translate(16.993 11.943)"><g transform="translate(22.697 41.129)"><path class="p" d="M170.91,277.942a9.169,9.169,0,0,1,4.1-4.585,24.755,24.755,0,0,1-2.085,2.261A24.71,24.71,0,0,1,170.91,277.942Z" transform="translate(-170.897 -273.347)"/></g><g transform="translate(25.088 41.131)"><path class="p" d="M173.763,278.156a4.83,4.83,0,0,1,1.759-4.8c.106.1-.639.994-1.113,2.314C173.918,276.983,173.906,278.151,173.763,278.156Z" transform="translate(-173.615 -273.349)"/></g><g transform="translate(68.677 42.299)"><path class="p" d="M224.739,291.6a74.921,74.921,0,0,1-1.005-8.442,74.9,74.9,0,0,1-.523-8.486,74.886,74.886,0,0,1,1.005,8.443A75.133,75.133,0,0,1,224.739,291.6Z" transform="translate(-223.173 -274.677)"/></g><g transform="translate(70.188 45.425)"><path class="p" d="M225.542,278.435c.038.062-.246.236-.279.676a.834.834,0,0,0,.212.642.736.736,0,0,0,1.181-.512.83.83,0,0,0-.324-.594c-.344-.278-.665-.188-.684-.259-.048-.04.323-.315.87-.027a1.122,1.122,0,0,1,.582.85,1.149,1.149,0,0,1-1.951.846,1.121,1.121,0,0,1-.223-1.005C225.091,278.455,225.545,278.372,225.542,278.435Z" transform="translate(-224.891 -278.232)"/></g><path class="p" d="M171.578,268.29a1.044,1.044,0,0,1,.221.006l.648.05c.569.062,1.417.115,2.525.153,2.215.093,5.468.135,9.608.1,8.279-.057,20.107-.361,34.284-.923l.208-.008.01.208c.275,5.48.575,11.468.889,17.748l.011.2-.184.035c-2.253.427-4.524.6-6.857.838l-7.112.617c-4.821.392-9.79.762-14.855,1.121l-18.589,1.254h-.031a22.575,22.575,0,0,1-14.281-5.832,17.569,17.569,0,0,1-4.148-6.1,44.533,44.533,0,0,1-2.083-6.7c-2.173-8.831-3.54-16.807-4.612-23.455-.531-3.326-.978-6.324-1.362-8.949a54.668,54.668,0,0,1-.777-6.744,8.337,8.337,0,0,1,.864-4.151,4.177,4.177,0,0,1,.9-1.173,7.969,7.969,0,0,0-.821,1.214,8.447,8.447,0,0,0-.773,4.108,56.991,56.991,0,0,0,.849,6.709l1.427,8.936c1.113,6.638,2.515,14.6,4.71,23.4a44.079,44.079,0,0,0,2.08,6.635,17.135,17.135,0,0,0,4.06,5.941,22.14,22.14,0,0,0,14,5.685h-.03l18.584-1.264,14.85-1.114,7.107-.61c2.316-.232,4.629-.412,6.789-.816l-.174.234c-.3-6.281-.586-12.27-.848-17.75l.217.2c-14.185.521-26.016.763-34.3.749-4.142,0-7.4-.084-9.615-.218-1.108-.058-1.957-.131-2.526-.215l-.645-.084A1.13,1.13,0,0,1,171.578,268.29Z" transform="translate(-145.092 -226.586)"/><g transform="translate(17.862 5.852)"><path class="p" d="M174.024,269.092a8.465,8.465,0,0,1-.45-1.381c-.261-.9-.614-2.2-1.031-3.816-.837-3.232-1.893-7.722-3.015-12.686s-2.16-9.455-2.933-12.7c-.369-1.559-.675-2.852-.91-3.845a8.388,8.388,0,0,1-.279-1.425,8.267,8.267,0,0,1,.461,1.377c.268.895.629,2.2,1.06,3.808.858,3.226,1.949,7.708,3.072,12.675,1.114,4.923,2.121,9.377,2.876,12.712.358,1.561.654,2.857.881,3.851A8.342,8.342,0,0,1,174.024,269.092Z" transform="translate(-165.399 -233.24)"/></g></g><g transform="translate(15.505 2.463)"><path class="p" d="M162.755,215.808a3.753,3.753,0,0,1-.091.972c-.089.62-.234,1.514-.423,2.617a15.309,15.309,0,0,1-.37,1.825,1.315,1.315,0,0,1-.788.853,2.3,2.3,0,0,1-1.179-.036c-1.454-.3-3.039-.685-4.688-1.136-3.3-.907-6.24-1.859-8.377-2.516l-2.527-.791a3.851,3.851,0,0,1-.914-.341,3.754,3.754,0,0,1,.963.159c.612.136,1.492.354,2.573.645,2.165.573,5.123,1.475,8.409,2.378,1.642.449,3.215.847,4.654,1.167a1.954,1.954,0,0,0,.954.067.911.911,0,0,0,.545-.592,17.858,17.858,0,0,0,.409-1.746c.231-1.1.427-1.979.573-2.588A3.852,3.852,0,0,1,162.755,215.808Z" transform="translate(-143.399 -215.808)"/></g></g><g transform="translate(0.021 73.223)"><g transform="translate(3.035 98.189)"><g transform="translate(44.725)"><path class="e" d="M147.909,354.249l6.145,83.446,2.573-.6-.955-81.085Z" transform="translate(-147.909 -354.249)"/></g><g transform="translate(0 2.901)"><path class="e" d="M115.73,357.548,97.06,437.992h3.376l26.729-80.444Z" transform="translate(-97.06 -357.548)"/></g><g transform="translate(68.062 2.901)"><path class="e" d="M174.441,357.548l25.472,80.444h2.729L182.4,357.548Z" transform="translate(-174.441 -357.548)"/></g><g transform="translate(14.389 8.306)"><path class="e" d="M170.5,363.692l-57.084,37.3v2.047l58.676-39.344Z" transform="translate(-113.419 -363.692)"/></g><g transform="translate(23.031 6.486)"><path class="e" d="M123.245,363.443l61.86,41.619v-3.184l-60.04-40.254Z" transform="translate(-123.245 -361.624)"/></g></g><g transform="translate(11.973 91.739)"><path class="w" d="M108.425,357.652l73.549-1.333a4.7,4.7,0,0,0,4.584-5.25h0a4.7,4.7,0,0,0-4.745-4.152l-74.593,1.2Z" transform="translate(-107.221 -346.915)"/><g class="o"><path class="w" d="M108.425,357.652l73.549-1.333a4.7,4.7,0,0,0,4.584-5.25h0a4.7,4.7,0,0,0-4.745-4.152l-74.593,1.2Z" transform="translate(-107.221 -346.915)"/></g></g><path class="h" d="M99.294,288.235l7.418,56.855,57.994-1.384-.149-34.531a9.682,9.682,0,0,0-10.551-9.777l-44.224,3.99-5.82-60.261-5.876-.5a4.128,4.128,0,0,0-4.436,4.677Z" transform="translate(-93.609 -242.614)"/></g></g></g></g></svg>