<svg xmlns="http://www.w3.org/2000/svg" xmlns:xlink="http://www.w3.org/1999/xlink" width="480" height="435" viewBox="0 0 480 435">
  <defs>
    <filter id="Rectangle_2415" x="0" y="0" width="480" height="435" filterUnits="userSpaceOnUse">
      <feOffset input="SourceAlpha"/>
      <feGaussianBlur stdDeviation="20" result="blur"/>
      <feFlood flood-opacity="0.102"/>
      <feComposite operator="in" in2="blur"/>
      <feComposite in="SourceGraphic"/>
    </filter>
  </defs>
  <g id="Group_4198" data-name="Group 4198" transform="translate(-243 -1621)">
    <g transform="matrix(1, 0, 0, 1, 243, 1621)" filter="url(#Rectangle_2415)">
      <rect id="Rectangle_2415-2" data-name="Rectangle 2415" width="360" height="315" rx="19" transform="translate(60 60)" fill="#fbdfa9"/>
    </g>
    <g id="Group_3628" data-name="Group 3628" transform="translate(138.176 1598.146)">
      <g id="Pointer" transform="translate(450.269 252.033)">
        <g id="Group_3506" data-name="Group 3506">
          <g id="Group_3497" data-name="Group 3497" transform="translate(14.329 13.845)">
            <path id="Path_7381" data-name="Path 7381" d="M542.569,309.846l10.622,27.272,4.429-7.154,6.135,8.056,7.318-6.959-6.973-6.718,6.435-4.353Z" transform="translate(-542.569 -309.846)" fill="#f1d971"/>
          </g>
          <g id="Group_3499" data-name="Group 3499" transform="translate(2.378 17.871)">
            <g id="Group_3498" data-name="Group 3498">
              <path id="Path_7382" data-name="Path 7382" d="M534.563,315.227a56.908,56.908,0,0,1-7.951,5.043,56.9,56.9,0,0,1,7.951-5.043Z" transform="translate(-526.611 -315.222)" fill="#263238"/>
            </g>
          </g>
          <g id="Group_3501" data-name="Group 3501" transform="translate(0 7.937)">
            <g id="Group_3500" data-name="Group 3500">
              <path id="Path_7383" data-name="Path 7383" d="M534.591,306.4a7.479,7.479,0,0,1-1.707-.45c-1.036-.332-2.455-.837-3.994-1.461s-2.912-1.238-3.9-1.7a7.858,7.858,0,0,1-1.558-.828,8.043,8.043,0,0,1,1.668.574l3.933,1.592,3.94,1.563A8.471,8.471,0,0,1,534.591,306.4Z" transform="translate(-523.435 -301.957)" fill="#263238"/>
            </g>
          </g>
          <g id="Group_3503" data-name="Group 3503" transform="translate(14.339)">
            <g id="Group_3502" data-name="Group 3502">
              <path id="Path_7384" data-name="Path 7384" d="M542.6,291.359a5.947,5.947,0,0,1,.386,1.5c.184.939.4,2.244.58,3.694s.3,2.767.348,3.724a5.919,5.919,0,0,1,0,1.553,50.887,50.887,0,0,1-.732-5.228A51.077,51.077,0,0,1,542.6,291.359Z" transform="translate(-542.583 -291.359)" fill="#263238"/>
            </g>
          </g>
          <g id="Group_3505" data-name="Group 3505" transform="translate(20.886 6.094)">
            <g id="Group_3504" data-name="Group 3504">
              <path id="Path_7385" data-name="Path 7385" d="M559.5,299.5c.045.109-1.922.956-4.137,2.375s-3.968,2.66-4.04,2.56a5,5,0,0,1,1.056-.935c.685-.532,1.651-1.248,2.776-1.956A14.511,14.511,0,0,1,559.5,299.5Z" transform="translate(-551.324 -299.496)" fill="#263238"/>
            </g>
          </g>
        </g>
      </g>
      <g id="Search_Engine" data-name="Search Engine" transform="translate(232.056 211.657)">
        <g id="Group_3575" data-name="Group 3575" transform="translate(0)">
          <g id="Group_3525" data-name="Group 3525" transform="translate(152.193 37.581)">
            <g id="Group_3515" data-name="Group 3515">
              <g id="Group_3514" data-name="Group 3514">
                <path id="Path_7389" data-name="Path 7389" d="M476.972,352.825c-.091.058-9.5-14.491-21.01-32.492s-20.773-32.648-20.682-32.706,9.5,14.488,21.011,32.5S477.062,352.767,476.972,352.825Z" transform="translate(-435.279 -287.627)" fill="#54349f"/>
              </g>
            </g>
            <g id="Group_3524" data-name="Group 3524" transform="translate(23.944 53.146)">
              <g id="Group_3519" data-name="Group 3519">
                <g id="Group_3516" data-name="Group 3516" transform="translate(0.004 0.162)">
                  <circle id="Ellipse_552" data-name="Ellipse 552" cx="21.83" cy="21.83" r="21.83" fill="#54349f"/>
                </g>
                <g id="Group_3518" data-name="Group 3518">
                  <g id="Group_3517" data-name="Group 3517">
                    <path id="Path_7390" data-name="Path 7390" d="M467.256,380.584s-.008-.12,0-.354c.008-.251.019-.6.033-1.04.009-.23.019-.486.029-.767s.079-.586.123-.917a15.646,15.646,0,0,1,.426-2.27,20.68,20.68,0,0,1,2.383-5.855,21.955,21.955,0,0,1,14.779-10.4,20.375,20.375,0,0,1,2.78-.33c.474-.018.952-.065,1.433-.059l1.456.071a9.591,9.591,0,0,1,1.469.157c.49.08.988.136,1.481.237a23.278,23.278,0,0,1,2.937.854,22.889,22.889,0,0,1,2.873,1.257c.465.251.911.544,1.372.816a11.2,11.2,0,0,1,1.33.913,20.146,20.146,0,0,1,4.661,4.669,21.312,21.312,0,0,1,3.153,6.065,21.8,21.8,0,0,1,0,13.9,21.3,21.3,0,0,1-3.153,6.067,20.151,20.151,0,0,1-4.662,4.67,11.182,11.182,0,0,1-1.33.913c-.461.273-.907.565-1.372.817a22.915,22.915,0,0,1-2.874,1.257,23.293,23.293,0,0,1-2.937.854c-.493.1-.991.157-1.481.237a9.59,9.59,0,0,1-1.469.156l-1.456.071c-.482.006-.959-.041-1.433-.059a20.449,20.449,0,0,1-2.78-.33,21.96,21.96,0,0,1-14.779-10.4,20.683,20.683,0,0,1-2.382-5.855,15.52,15.52,0,0,1-.426-2.27c-.044-.332-.1-.637-.123-.917s-.02-.536-.029-.767c-.014-.443-.025-.789-.033-1.039-.005-.234,0-.353,0-.353s.019.119.037.353c.017.25.041.594.072,1.036l.048.762c.03.279.091.582.141.911a15.849,15.849,0,0,0,.458,2.25,20.855,20.855,0,0,0,2.423,5.78,21.8,21.8,0,0,0,14.651,10.192,20.23,20.23,0,0,0,2.74.316c.467.016.938.061,1.412.053l1.433-.075a9.292,9.292,0,0,0,1.446-.158c.482-.08.972-.137,1.457-.237a22.88,22.88,0,0,0,2.887-.849,22.584,22.584,0,0,0,2.823-1.242c.457-.248.895-.537,1.347-.805a11.06,11.06,0,0,0,1.306-.9,19.826,19.826,0,0,0,4.576-4.6,20.96,20.96,0,0,0,3.092-5.963,21.445,21.445,0,0,0,0-13.655,20.963,20.963,0,0,0-3.092-5.96,19.791,19.791,0,0,0-4.575-4.6,11.025,11.025,0,0,0-1.305-.9c-.453-.269-.891-.558-1.348-.806a22.657,22.657,0,0,0-2.823-1.242,23.032,23.032,0,0,0-2.886-.849c-.485-.1-.975-.156-1.457-.237a9.288,9.288,0,0,0-1.445-.159l-1.433-.075c-.474-.008-.945.037-1.412.054a20.01,20.01,0,0,0-2.74.315,21.79,21.79,0,0,0-14.651,10.192,20.82,20.82,0,0,0-2.423,5.78,15.78,15.78,0,0,0-.458,2.25c-.05.329-.111.631-.141.911s-.034.533-.048.762c-.031.442-.055.786-.072,1.036C467.275,380.464,467.256,380.584,467.256,380.584Z" transform="translate(-467.251 -358.592)" fill="#54349f"/>
                  </g>
                </g>
              </g>
              <g id="Group_3523" data-name="Group 3523" transform="translate(12.892 10.209)">
                <g id="Group_3520" data-name="Group 3520" transform="translate(0 3.761)">
                  <path id="Path_7391" data-name="Path 7391" d="M487.455,377.247l-2.989,17.079,8.942-1.23,8.942,1.23-3.6-17.079Z" transform="translate(-484.466 -377.247)" fill="#b1a2fe"/>
                </g>
                <g id="Group_3522" data-name="Group 3522" transform="translate(5.154)">
                  <g id="Group_3521" data-name="Group 3521">
                    <path id="Path_7392" data-name="Path 7392" d="M498.913,376.21c-.064.021-.244-.607-.717-1.514a4.761,4.761,0,0,0-1.074-1.385,3.307,3.307,0,0,0-.873-.508,3.523,3.523,0,0,0-1.071-.186,3.7,3.7,0,0,0-2.038.493,3.25,3.25,0,0,0-1.117,1.306c-.448.914-.6,1.555-.664,1.534a4.133,4.133,0,0,1,.415-1.653,3.355,3.355,0,0,1,1.168-1.488,3.9,3.9,0,0,1,2.241-.583,3.742,3.742,0,0,1,1.2.219,3.559,3.559,0,0,1,.973.594,4.625,4.625,0,0,1,1.087,1.536A4.264,4.264,0,0,1,498.913,376.21Z" transform="translate(-491.348 -372.225)" fill="#b1a2fe"/>
                  </g>
                </g>
              </g>
            </g>
          </g>
          <g id="Group_3534" data-name="Group 3534" transform="translate(88.581 37.094)">
            <g id="Group_3527" data-name="Group 3527" transform="translate(22.085)">
              <g id="Group_3526" data-name="Group 3526">
                <path id="Path_7393" data-name="Path 7393" d="M380.022,354.124c-.108,0-.2-15.033-.2-33.573s.088-33.575.2-33.575.195,15.03.195,33.575S380.13,354.124,380.022,354.124Z" transform="translate(-379.827 -286.976)" fill="#54349f"/>
              </g>
            </g>
            <g id="Group_3533" data-name="Group 3533" transform="translate(0 54.121)">
              <g id="Group_3531" data-name="Group 3531">
                <g id="Group_3528" data-name="Group 3528" transform="translate(0.004 0.162)">
                  <circle id="Ellipse_553" data-name="Ellipse 553" cx="21.83" cy="21.83" r="21.83" fill="#54349f"/>
                </g>
                <g id="Group_3530" data-name="Group 3530">
                  <g id="Group_3529" data-name="Group 3529">
                    <path id="Path_7394" data-name="Path 7394" d="M350.342,381.234s-.008-.119,0-.354c.008-.251.019-.6.033-1.04.009-.23.019-.486.029-.767s.079-.586.124-.917a15.529,15.529,0,0,1,.425-2.27,20.7,20.7,0,0,1,2.383-5.855,21.955,21.955,0,0,1,14.779-10.4,20.328,20.328,0,0,1,2.779-.33c.474-.018.953-.065,1.434-.059l1.456.071a9.584,9.584,0,0,1,1.469.157c.49.08.989.136,1.481.237a23.287,23.287,0,0,1,2.936.854,22.851,22.851,0,0,1,2.873,1.257c.465.251.912.544,1.373.816a11.24,11.24,0,0,1,1.329.913,20.1,20.1,0,0,1,4.661,4.669,21.3,21.3,0,0,1,3.153,6.065,21.8,21.8,0,0,1,0,13.9,21.312,21.312,0,0,1-3.153,6.068,20.172,20.172,0,0,1-4.661,4.67,11.362,11.362,0,0,1-1.331.914c-.461.272-.907.565-1.372.816a22.912,22.912,0,0,1-2.874,1.257,23.28,23.28,0,0,1-2.937.854c-.493.1-.991.157-1.481.237a9.565,9.565,0,0,1-1.469.156l-1.456.071c-.482.006-.959-.041-1.433-.059a20.441,20.441,0,0,1-2.78-.33,21.96,21.96,0,0,1-14.779-10.4,20.686,20.686,0,0,1-2.382-5.855,15.646,15.646,0,0,1-.426-2.27c-.043-.332-.1-.637-.123-.917s-.02-.536-.029-.767c-.014-.443-.025-.789-.033-1.039-.005-.234,0-.354,0-.354s.019.12.037.353c.017.25.041.594.072,1.035.014.229.031.484.048.762s.091.582.141.911a15.854,15.854,0,0,0,.458,2.25,20.814,20.814,0,0,0,2.422,5.779,21.8,21.8,0,0,0,14.651,10.193,20.148,20.148,0,0,0,2.74.315c.467.016.938.061,1.412.054l1.433-.075a9.29,9.29,0,0,0,1.446-.159c.482-.08.972-.136,1.457-.237a23.019,23.019,0,0,0,2.887-.848,22.618,22.618,0,0,0,2.823-1.242c.457-.248.895-.537,1.348-.806a11.027,11.027,0,0,0,1.306-.9,19.8,19.8,0,0,0,4.575-4.6,20.966,20.966,0,0,0,3.092-5.963,21.444,21.444,0,0,0,0-13.655,20.933,20.933,0,0,0-3.092-5.96,19.793,19.793,0,0,0-4.575-4.6,10.954,10.954,0,0,0-1.305-.9c-.452-.269-.89-.558-1.348-.806a22.552,22.552,0,0,0-2.823-1.242,22.868,22.868,0,0,0-2.886-.849c-.484-.1-.975-.157-1.457-.237a9.377,9.377,0,0,0-1.446-.158l-1.433-.075c-.474-.008-.944.037-1.412.053a20.241,20.241,0,0,0-2.74.315,21.793,21.793,0,0,0-14.651,10.192,20.842,20.842,0,0,0-2.423,5.78,15.854,15.854,0,0,0-.458,2.25c-.05.329-.111.631-.141.911s-.034.533-.048.762c-.031.442-.055.786-.072,1.036C350.361,381.115,350.342,381.234,350.342,381.234Z" transform="translate(-350.337 -359.243)" fill="#54349f"/>
                  </g>
                </g>
              </g>
              <g id="Group_3532" data-name="Group 3532" transform="translate(12.363 12.214)">
                <path id="Path_7395" data-name="Path 7395" d="M376.316,375.553l-9.47,8.6v10.91h7.375v-6.537h4.693v6.537h6.872v-10.91Z" transform="translate(-366.846 -375.553)" fill="#b1a2fe"/>
              </g>
            </g>
          </g>
          <g id="Group_3561" data-name="Group 3561" transform="translate(0.797 37.371)">
            <g id="Group_3536" data-name="Group 3536" transform="translate(25.559)">
              <g id="Group_3535" data-name="Group 3535">
                <path id="Path_7396" data-name="Path 7396" d="M267.251,353.516c-.091-.058,9.308-14.919,20.991-33.189s21.231-33.04,21.322-32.981-9.307,14.916-20.993,33.192S267.341,353.574,267.251,353.516Z" transform="translate(-267.25 -287.346)" fill="#54349f"/>
              </g>
            </g>
            <g id="Group_3560" data-name="Group 3560" transform="translate(0 53.567)">
              <g id="Group_3540" data-name="Group 3540">
                <g id="Group_3537" data-name="Group 3537" transform="translate(0.195 0.162)">
                  <circle id="Ellipse_554" data-name="Ellipse 554" cx="21.83" cy="21.83" r="21.83" fill="#54349f"/>
                </g>
                <g id="Group_3539" data-name="Group 3539">
                  <g id="Group_3538" data-name="Group 3538">
                    <path id="Path_7397" data-name="Path 7397" d="M276.975,380.865s-.019-.12-.038-.354c-.017-.25-.04-.594-.071-1.036-.014-.229-.031-.483-.048-.762s-.091-.581-.141-.911a16,16,0,0,0-.458-2.25,20.844,20.844,0,0,0-2.423-5.78,21.8,21.8,0,0,0-14.651-10.192,20.115,20.115,0,0,0-2.74-.315c-.467-.016-.938-.061-1.412-.054l-1.433.075a9.29,9.29,0,0,0-1.445.159c-.482.08-.972.136-1.457.237a23,23,0,0,0-2.886.848,22.725,22.725,0,0,0-2.823,1.242c-.457.249-.895.537-1.347.806a11.054,11.054,0,0,0-1.306.9,19.81,19.81,0,0,0-4.574,4.6,20.96,20.96,0,0,0-3.093,5.961,21.456,21.456,0,0,0,0,13.654,20.961,20.961,0,0,0,3.093,5.963,19.777,19.777,0,0,0,4.575,4.6,10.978,10.978,0,0,0,1.306.9c.452.269.891.557,1.348.806a22.559,22.559,0,0,0,2.823,1.242,22.826,22.826,0,0,0,2.887.848c.485.1.974.157,1.457.237a9.281,9.281,0,0,0,1.445.158l1.434.075c.474.008.944-.037,1.412-.053a20.132,20.132,0,0,0,2.74-.316A21.795,21.795,0,0,0,273.8,391.956a20.818,20.818,0,0,0,2.422-5.78,15.865,15.865,0,0,0,.458-2.249c.05-.329.11-.632.141-.911l.048-.762c.031-.442.054-.786.071-1.036.019-.233.038-.353.038-.353s.008.12,0,.353c-.008.251-.019.6-.034,1.039q-.012.346-.029.767c-.024.282-.079.586-.123.917a15.531,15.531,0,0,1-.425,2.271,20.68,20.68,0,0,1-2.382,5.854,21.955,21.955,0,0,1-14.779,10.4,20.315,20.315,0,0,1-2.78.33c-.474.018-.952.065-1.434.059l-1.456-.071a9.5,9.5,0,0,1-1.469-.156c-.49-.079-.988-.136-1.481-.237a23.155,23.155,0,0,1-2.937-.854,22.921,22.921,0,0,1-2.874-1.257c-.465-.252-.912-.544-1.373-.816a11.413,11.413,0,0,1-1.33-.914,20.129,20.129,0,0,1-4.661-4.67,21.306,21.306,0,0,1-3.153-6.067,21.8,21.8,0,0,1,0-13.9,21.293,21.293,0,0,1,3.153-6.065,20.164,20.164,0,0,1,4.66-4.669,11.52,11.52,0,0,1,1.33-.913c.461-.273.907-.565,1.373-.816a22.865,22.865,0,0,1,2.873-1.257,23.285,23.285,0,0,1,2.936-.854c.493-.1.991-.157,1.481-.237a9.5,9.5,0,0,1,1.469-.157l1.456-.071c.482-.006.959.041,1.433.059a20.558,20.558,0,0,1,2.78.33,21.96,21.96,0,0,1,14.779,10.4,20.685,20.685,0,0,1,2.382,5.855,15.427,15.427,0,0,1,.426,2.271c.044.331.1.636.123.917s.021.536.029.767c.014.443.025.789.034,1.04C276.982,380.745,276.975,380.865,276.975,380.865Z" transform="translate(-233.121 -358.873)" fill="#54349f"/>
                  </g>
                </g>
              </g>
              <g id="Group_3559" data-name="Group 3559" transform="translate(13.327 10.627)">
                <g id="Group_3541" data-name="Group 3541">
                  <rect id="Rectangle_2474" data-name="Rectangle 2474" width="17.139" height="22.729" fill="#b1a2fe"/>
                </g>
                <g id="Group_3558" data-name="Group 3558" transform="translate(3.109 3.435)">
                  <g id="Group_3543" data-name="Group 3543" transform="translate(0.667)">
                    <g id="Group_3542" data-name="Group 3542">
                      <path id="Path_7398" data-name="Path 7398" d="M261.587,377.846a20.438,20.438,0,0,1-5.629,0,20.356,20.356,0,0,1,5.629,0Z" transform="translate(-255.958 -377.651)" fill="#455a64"/>
                    </g>
                  </g>
                  <g id="Group_3545" data-name="Group 3545" transform="translate(0 3.197)">
                    <g id="Group_3544" data-name="Group 3544">
                      <path id="Path_7399" data-name="Path 7399" d="M266.325,382.115a40.708,40.708,0,0,1-5.628.2,40.706,40.706,0,0,1-5.629-.2,40.92,40.92,0,0,1,5.629-.195A40.922,40.922,0,0,1,266.325,382.115Z" transform="translate(-255.068 -381.92)" fill="#455a64"/>
                    </g>
                  </g>
                  <g id="Group_3547" data-name="Group 3547" transform="translate(0 5.14)">
                    <g id="Group_3546" data-name="Group 3546">
                      <path id="Path_7400" data-name="Path 7400" d="M266.325,384.71a40.69,40.69,0,0,1-5.628.2,40.688,40.688,0,0,1-5.629-.2,40.793,40.793,0,0,1,5.629-.195A40.8,40.8,0,0,1,266.325,384.71Z" transform="translate(-255.068 -384.515)" fill="#455a64"/>
                    </g>
                  </g>
                  <g id="Group_3549" data-name="Group 3549" transform="translate(0 7.084)">
                    <g id="Group_3548" data-name="Group 3548">
                      <path id="Path_7401" data-name="Path 7401" d="M266.325,387.3a40.69,40.69,0,0,1-5.628.2,40.688,40.688,0,0,1-5.629-.2,40.793,40.793,0,0,1,5.629-.195A40.8,40.8,0,0,1,266.325,387.3Z" transform="translate(-255.068 -387.11)" fill="#455a64"/>
                    </g>
                  </g>
                  <g id="Group_3551" data-name="Group 3551" transform="translate(0 9.027)">
                    <g id="Group_3550" data-name="Group 3550">
                      <path id="Path_7402" data-name="Path 7402" d="M266.325,389.9a40.772,40.772,0,0,1-5.628.195,40.77,40.77,0,0,1-5.629-.195,40.775,40.775,0,0,1,5.629-.195A40.777,40.777,0,0,1,266.325,389.9Z" transform="translate(-255.068 -389.705)" fill="#455a64"/>
                    </g>
                  </g>
                  <g id="Group_3553" data-name="Group 3553" transform="translate(0 10.971)">
                    <g id="Group_3552" data-name="Group 3552">
                      <path id="Path_7403" data-name="Path 7403" d="M266.325,392.495a40.784,40.784,0,0,1-5.628.195,40.781,40.781,0,0,1-5.629-.195,40.775,40.775,0,0,1,5.629-.195A40.777,40.777,0,0,1,266.325,392.495Z" transform="translate(-255.068 -392.3)" fill="#455a64"/>
                    </g>
                  </g>
                  <g id="Group_3555" data-name="Group 3555" transform="translate(0 12.913)">
                    <g id="Group_3554" data-name="Group 3554">
                      <path id="Path_7404" data-name="Path 7404" d="M266.325,395.089a40.784,40.784,0,0,1-5.628.195,40.781,40.781,0,0,1-5.629-.195,40.706,40.706,0,0,1,5.629-.2A40.708,40.708,0,0,1,266.325,395.089Z" transform="translate(-255.068 -394.894)" fill="#455a64"/>
                    </g>
                  </g>
                  <g id="Group_3557" data-name="Group 3557" transform="translate(0 14.857)">
                    <g id="Group_3556" data-name="Group 3556">
                      <path id="Path_7405" data-name="Path 7405" d="M266.325,397.685a40.813,40.813,0,0,1-5.628.195,40.811,40.811,0,0,1-5.629-.195,40.688,40.688,0,0,1,5.629-.2A40.69,40.69,0,0,1,266.325,397.685Z" transform="translate(-255.068 -397.489)" fill="#455a64"/>
                    </g>
                  </g>
                </g>
              </g>
            </g>
          </g>
          <g id="Group_3574" data-name="Group 3574">
            <g id="Group_3571" data-name="Group 3571" transform="translate(0.196)">
              <g id="Group_3569" data-name="Group 3569">
                <g id="Group_3562" data-name="Group 3562" transform="translate(0 0.341)">
                  <path id="Path_23063" data-name="Path 23063" d="M18.793,0H210.109a18.793,18.793,0,1,1,0,37.587H18.793A18.793,18.793,0,0,1,18.793,0Z" fill="#ffd000"/>
                </g>
                <g id="Group_3563" data-name="Group 3563" transform="translate(178.188)">
                  <path id="Path_7406" data-name="Path 7406" d="M470.251,237.445v37.928h31.98a18.963,18.963,0,0,0,18.964-18.964h0a18.964,18.964,0,0,0-18.964-18.964Z" transform="translate(-470.251 -237.445)" fill="#9578b1"/>
                </g>
                <g id="Group_3568" data-name="Group 3568" transform="translate(191.74 9.745)">
                  <g id="Group_3565" data-name="Group 3565">
                    <g id="Group_3564" data-name="Group 3564">
                      <path id="Path_7407" data-name="Path 7407" d="M504.555,258.623a16.935,16.935,0,0,0-.323-1.936,7.985,7.985,0,0,0-2.922-4.319,7.85,7.85,0,0,0-7.427-1.1A7.858,7.858,0,0,0,490.255,254a7.788,7.788,0,0,0,0,9.238,7.853,7.853,0,0,0,3.628,2.732,7.845,7.845,0,0,0,7.428-1.1,7.984,7.984,0,0,0,2.921-4.318,16.928,16.928,0,0,0,.323-1.937,6.2,6.2,0,0,1-.177,1.973,7.971,7.971,0,0,1-2.9,4.5,8.053,8.053,0,0,1-3.421,1.549,8.168,8.168,0,0,1-4.3-.335,8.176,8.176,0,0,1-3.813-2.844,8.137,8.137,0,0,1,0-9.691,8.177,8.177,0,0,1,3.813-2.844,8.175,8.175,0,0,1,4.3-.335,8.051,8.051,0,0,1,3.42,1.55,7.969,7.969,0,0,1,2.9,4.5A6.2,6.2,0,0,1,504.555,258.623Z" transform="translate(-488.347 -250.457)" fill="#fff"/>
                    </g>
                  </g>
                  <g id="Group_3567" data-name="Group 3567" transform="translate(14.642 12.917)">
                    <g id="Group_3566" data-name="Group 3566">
                      <path id="Path_7408" data-name="Path 7408" d="M516.9,274.155a78.5,78.5,0,0,1-9-6.446,78.77,78.77,0,0,1,9,6.446Z" transform="translate(-507.898 -267.706)" fill="#fff"/>
                    </g>
                  </g>
                </g>
              </g>
              <g id="Group_3570" data-name="Group 3570" transform="translate(21.766 15.614)">
                <rect id="Rectangle_2476" data-name="Rectangle 2476" width="139.93" height="8.045" fill="#f1d971"/>
              </g>
            </g>
            <g id="Group_3573" data-name="Group 3573" transform="translate(0 0.146)">
              <g id="Group_3572" data-name="Group 3572">
                <path id="Path_7409" data-name="Path 7409" d="M443.338,275.422s.438-.036,1.293-.085a11.756,11.756,0,0,0,1.582-.2,16.372,16.372,0,0,0,2.147-.488,18.14,18.14,0,0,0,5.486-2.754l.745-.56c.24-.205.474-.428.717-.648a14.745,14.745,0,0,0,1.42-1.457c.485-.508.871-1.128,1.33-1.716l.589-.973.3-.5.255-.531a17.2,17.2,0,0,0,1.57-4.734q.1-.652.2-1.318.035-.673.071-1.362c.04-.917.031-1.871,0-2.832a17.7,17.7,0,0,0-17.156-17.282c-5.111-.05-10.527-.005-16.208-.013l-177.6.057a17.73,17.73,0,0,0-11.687,4.447,17.438,17.438,0,0,0-5.785,10.9,12.059,12.059,0,0,0-.127,1.558c-.037.518-.043,1.043-.037,1.57a30.371,30.371,0,0,0,.125,3.122,17.048,17.048,0,0,0,1.772,5.9,17.5,17.5,0,0,0,14.552,9.643c1,.071,2.009.062,3.017.06h3.017l11.921,0,23.08.007,79.844.042,53.828.062,14.634.037,3.806.019c.858.007,1.3.02,1.3.02s-.44.013-1.3.02l-3.806.019L423.6,275.5l-53.828.062-79.844.042-23.08.007-11.921,0h-3.017c-1.008,0-2.017.013-3.043-.06A17.874,17.874,0,0,1,234,265.7a17.439,17.439,0,0,1-1.813-6.029,30.932,30.932,0,0,1-.127-3.166c-.006-.525,0-1.052.036-1.586a12.447,12.447,0,0,1,.13-1.592,17.829,17.829,0,0,1,5.911-11.144,18.122,18.122,0,0,1,11.946-4.546l177.6.058c5.683.016,11.09-.019,16.215.041a17.909,17.909,0,0,1,17.335,17.526c.026.971.034,1.911-.01,2.841q-.038.7-.076,1.375-.1.673-.205,1.33a17.364,17.364,0,0,1-1.6,4.772c-.087.179-.174.357-.259.535l-.3.5-.6.978c-.465.591-.856,1.214-1.347,1.724a14.839,14.839,0,0,1-1.436,1.461c-.246.22-.483.443-.725.649l-.753.56a18.121,18.121,0,0,1-5.533,2.736,16.282,16.282,0,0,1-2.161.471,11.3,11.3,0,0,1-1.588.178C443.776,275.413,443.338,275.422,443.338,275.422Z" transform="translate(-232.056 -237.64)" fill="#54349f"/>
              </g>
            </g>
          </g>
        </g>
      </g>
      <g id="Character" transform="translate(270.4 134.746)">
        <g id="Group_3626" data-name="Group 3626">
          <g id="Group_3582" data-name="Group 3582" transform="translate(58.401 84.665)">
            <g id="Group_3577" data-name="Group 3577">
              <g id="Group_3576" data-name="Group 3576">
                <path id="Path_7410" data-name="Path 7410" d="M376.6,254.6c-.682-.794-.75-1.466.783-1.6,3.379-.3,5.868-1.779,6.261-2.633s-.679-1.689-1.594-1.176a12.653,12.653,0,0,1-3.291.932,8.259,8.259,0,0,1-2.742.037c-.787-.124-1.478-.256-2.1-.387,0,0-3.576-.771-5.12-1.976l-7.562,8.083,3.547,4.008a5.386,5.386,0,0,0,4.737,2.232c3.044-.3,7.135-2.485,7.135-2.485.553-.85,5.453,2.172,7.031,3.3,1.558,1.12,2.744.848,2.685-.242-.041-.742-4.788-4.325-6.375-5.41a19.9,19.9,0,0,1-3.4-2.686" transform="translate(-361.239 -247.799)" fill="#ffbe9d"/>
              </g>
            </g>
            <g id="Group_3579" data-name="Group 3579" transform="translate(7.933 11.603)">
              <g id="Group_3578" data-name="Group 3578">
                <path id="Path_7411" data-name="Path 7411" d="M374.816,265.518c.008.046-.218.143-.609.133a2.606,2.606,0,0,1-2.295-1.736c-.117-.373-.085-.617-.039-.622.108-.025.293.89,1.16,1.524A5.132,5.132,0,0,0,374.816,265.518Z" transform="translate(-371.832 -263.292)" fill="#eb996e"/>
              </g>
            </g>
            <g id="Group_3581" data-name="Group 3581" transform="translate(11.063 10.461)">
              <g id="Group_3580" data-name="Group 3580">
                <path id="Path_7412" data-name="Path 7412" d="M378.862,263.955c.005.047-.215.129-.588.1a2.582,2.582,0,0,1-2.181-1.7c-.115-.356-.09-.589-.043-.6.109-.026.309.836,1.126,1.452A5.8,5.8,0,0,0,378.862,263.955Z" transform="translate(-376.011 -261.767)" fill="#eb996e"/>
              </g>
            </g>
          </g>
          <g id="Group_3583" data-name="Group 3583" transform="translate(45.691 13.243)">
            <path id="Path_7413" data-name="Path 7413" d="M379.045,152.429c.316,6.637,8.41,15.728,14.43,17.2,3.165.773,6.807.409,9.314,2.535,4.3,3.647,1.785,11.207,4.687,16.1,1.784,3.008,5.325,4.483,7.332,7.338,3.333,4.746,1.1,11.919-3.453,15.453s-10.609,4.21-16.31,4.063c-12.541-.324-25.384-4.31-34.449-13.2-4.259-4.175-20.921-17.07-15.111-47.628" transform="translate(-344.269 -152.429)" fill="#263238"/>
          </g>
          <g id="Group_3600" data-name="Group 3600" transform="translate(0 44.38)">
            <path id="Path_7414" data-name="Path 7414" d="M408.992,210.388l-47.683-14.156a30.241,30.241,0,0,0-6.945-2.09l-16.1.108a15.651,15.651,0,0,0-6.175,1.292l-43.4,14.416a8.29,8.29,0,0,0-5.431,8.063h0c0,4.625,3.335,8.375,7.448,8.375h20.042c-.057.189-.088.294-.088.294l69.711.261v-.027l26.606.06c4.113,0,7.447-3.786,7.447-8.456A8.369,8.369,0,0,0,408.992,210.388Z" transform="translate(-283.257 -194.04)" fill="#54349f"/>
            <g id="Group_3585" data-name="Group 3585" transform="translate(73.953 19.823)">
              <g id="Group_3584" data-name="Group 3584">
                <path id="Path_7415" data-name="Path 7415" d="M424.232,222.154a1.768,1.768,0,0,1-.433-.022l-1.228-.139c-1.064-.135-2.607-.307-4.515-.49a135.962,135.962,0,0,0-29.894.392c-1.9.234-3.44.446-4.5.608l-1.224.171a1.827,1.827,0,0,1-.431.034,1.8,1.8,0,0,1,.418-.111l1.212-.244c1.054-.209,2.588-.463,4.49-.732a119.84,119.84,0,0,1,29.957-.392c1.909.219,3.449.433,4.508.614l1.218.212A1.845,1.845,0,0,1,424.232,222.154Z" transform="translate(-382.006 -220.476)" fill="#263238"/>
              </g>
            </g>
            <g id="Group_3587" data-name="Group 3587" transform="translate(32.691 7.061)" opacity="0.6">
              <g id="Group_3586" data-name="Group 3586">
                <path id="Path_7416" data-name="Path 7416" d="M399.208,206.29a.781.781,0,0,1-.133.16l-.42.443c-.376.383-.932.947-1.686,1.635a27.137,27.137,0,0,1-2.9,2.334,14.345,14.345,0,0,1-4.452,2.122,11.363,11.363,0,0,1-5.958-.118,29.537,29.537,0,0,1-6.273-2.771,38.119,38.119,0,0,0-6.793-3.184,10.479,10.479,0,0,0-7.767.4c-2.509,1.131-4.644,2.856-6.977,4.1-.577.322-1.188.57-1.78.837a18.728,18.728,0,0,1-1.83.61,17.777,17.777,0,0,1-3.673.634,18.922,18.922,0,0,1-12.2-3.355,33.293,33.293,0,0,1-3.685-3.272,17.953,17.953,0,0,0-2.853-2.332,7.918,7.918,0,0,0-2.922-1.1,4.48,4.48,0,0,1,.814.1,6.874,6.874,0,0,1,2.187.869,17.5,17.5,0,0,1,2.924,2.3,34.2,34.2,0,0,0,3.694,3.205,18.749,18.749,0,0,0,12.015,3.222,17.429,17.429,0,0,0,3.6-.634,18.664,18.664,0,0,0,1.79-.6c.578-.264,1.174-.506,1.74-.824,2.292-1.224,4.425-2.956,7-4.119a10.849,10.849,0,0,1,8.037-.409,38.058,38.058,0,0,1,6.852,3.234,29.531,29.531,0,0,0,6.187,2.775,11.137,11.137,0,0,0,5.8.163,14.3,14.3,0,0,0,4.4-2.035,28.767,28.767,0,0,0,2.918-2.266c.767-.668,1.338-1.214,1.732-1.578l.446-.415A.886.886,0,0,1,399.208,206.29Z" transform="translate(-326.909 -203.435)" fill="#fff"/>
              </g>
            </g>
            <g id="Group_3588" data-name="Group 3588" transform="translate(30.894 21.406)" opacity="0.2">
              <path id="Path_7417" data-name="Path 7417" d="M324.51,222.589l30.14,5.682-3.481,5.671-.917.014Z" transform="translate(-324.51 -222.589)"/>
            </g>
            <g id="Group_3590" data-name="Group 3590" transform="translate(86.59 15.45)" opacity="0.6">
              <g id="Group_3589" data-name="Group 3589">
                <path id="Path_7418" data-name="Path 7418" d="M434.421,214.637a2.065,2.065,0,0,1,.015.462,10.076,10.076,0,0,1-.133,1.319,11.427,11.427,0,0,1-7.507,8.877,11.6,11.6,0,0,1-4.242.663,19.315,19.315,0,0,1-4.522-.827c-1.51-.425-2.96-.895-4.391-1.184a12.752,12.752,0,0,0-4.165-.216,13.3,13.3,0,0,0-6.5,2.662,13.059,13.059,0,0,0-3.228,3.528l-.39.65-.249.5a2.118,2.118,0,0,1-.228.4,2.011,2.011,0,0,1,.156-.434l.218-.518.362-.674a12.559,12.559,0,0,1,3.191-3.669,13.381,13.381,0,0,1,6.625-2.8,12.963,12.963,0,0,1,4.284.2c1.461.29,2.922.761,4.421,1.183a19.255,19.255,0,0,0,4.43.82,11.419,11.419,0,0,0,9.692-4.8,11.858,11.858,0,0,0,1.894-4.382C434.382,215.273,434.382,214.634,434.421,214.637Z" transform="translate(-398.88 -214.637)" fill="#fff"/>
              </g>
            </g>
            <g id="Group_3598" data-name="Group 3598" transform="translate(4.867 16.752)">
              <g id="Group_3591" data-name="Group 3591" transform="translate(0.604)">
                <path id="Path_7419" data-name="Path 7419" d="M290.563,231.011s54.488,24.043,54.207,23.5,8.651-16.315,8.651-16.315l-44.147-21.818Z" transform="translate(-290.563 -216.375)" fill="#54349f"/>
              </g>
              <g id="Group_3593" data-name="Group 3593" transform="translate(25.616 3.111)">
                <g id="Group_3592" data-name="Group 3592">
                  <path id="Path_7420" data-name="Path 7420" d="M323.961,220.531a7.281,7.281,0,0,1,1.123.47l3,1.413c2.525,1.208,6,2.9,9.829,4.794s7.287,3.625,9.781,4.9l2.945,1.525a7.338,7.338,0,0,1,1.057.607,7.165,7.165,0,0,1-1.122-.47l-3-1.413c-2.524-1.208-6-2.9-9.831-4.794s-7.285-3.625-9.78-4.9l-2.945-1.524A7.194,7.194,0,0,1,323.961,220.531Z" transform="translate(-323.961 -220.529)" fill="#263238"/>
                </g>
              </g>
              <g id="Group_3595" data-name="Group 3595" transform="translate(0 9.933)" opacity="0.6">
                <g id="Group_3594" data-name="Group 3594">
                  <path id="Path_7421" data-name="Path 7421" d="M327.338,230.112a4.684,4.684,0,0,1-.507,1.616,7.629,7.629,0,0,1-3.249,3.248,9.981,9.981,0,0,1-3.026,1.078,11.931,11.931,0,0,1-3.685.043,27.843,27.843,0,0,1-7.947-2.666,41.521,41.521,0,0,0-7.728-3.048,13.9,13.9,0,0,0-3.569-.413,11.136,11.136,0,0,0-3.082.521,8.417,8.417,0,0,0-3.8,2.381,15.53,15.53,0,0,0-.987,1.355,5.046,5.046,0,0,1,.871-1.453,8.3,8.3,0,0,1,3.832-2.546,11.225,11.225,0,0,1,3.157-.582,13.988,13.988,0,0,1,3.662.387,40.223,40.223,0,0,1,7.81,3.044,28.225,28.225,0,0,0,7.83,2.664,11.792,11.792,0,0,0,3.581-.006,9.855,9.855,0,0,0,2.951-1,7.7,7.7,0,0,0,3.246-3.075A12.865,12.865,0,0,0,327.338,230.112Z" transform="translate(-289.756 -229.639)" fill="#fff"/>
                </g>
              </g>
              <g id="Group_3597" data-name="Group 3597" transform="translate(40.553 26.423)" opacity="0.6">
                <g id="Group_3596" data-name="Group 3596">
                  <path id="Path_7422" data-name="Path 7422" d="M364.069,252.122c-.011.073-1.209-.127-3.155-.159a26.447,26.447,0,0,0-3.407.173,26.054,26.054,0,0,0-8,2.267,26.585,26.585,0,0,0-2.993,1.64c-1.641,1.047-2.555,1.846-2.6,1.789a3.562,3.562,0,0,1,.609-.6,17.7,17.7,0,0,1,1.841-1.422,23.3,23.3,0,0,1,2.99-1.734,24.246,24.246,0,0,1,8.12-2.3,23.154,23.154,0,0,1,3.455-.091,17.525,17.525,0,0,1,2.314.245A3.523,3.523,0,0,1,364.069,252.122Z" transform="translate(-343.907 -251.658)" fill="#fff"/>
                </g>
              </g>
            </g>
            <g id="Group_3599" data-name="Group 3599" transform="translate(72.009)" opacity="0.2">
              <path id="Path_7423" data-name="Path 7423" d="M379.7,194.006c-.9,2.521.452,5.236,1.764,7.569a20.558,20.558,0,0,0,3.16,4.585,6.918,6.918,0,0,0,4.955,2.227c2.446-.08,4.636-1.886,7.08-1.746a9.386,9.386,0,0,1,4.5,2.009,35.617,35.617,0,0,0,7.553,4.184,13.564,13.564,0,0,0,8.491.533,8.466,8.466,0,0,0,5.876-5.817" transform="translate(-379.411 -194.006)"/>
            </g>
          </g>
          <g id="Group_3623" data-name="Group 3623" transform="translate(46.908)">
            <g id="Group_3616" data-name="Group 3616">
              <g id="Group_3615" data-name="Group 3615">
                <g id="Group_3601" data-name="Group 3601" transform="translate(7.288 2.683)">
                  <path id="Path_7424" data-name="Path 7424" d="M373.936,179.33c.125-2.933.283-5.588.283-5.588s6.556-.827,6.839-7.518-.383-22.1-.383-22.1l-12.067-5.795-12.982,10.459,2.036,30.733a8.149,8.149,0,0,0,8.508,7.6h0A8.151,8.151,0,0,0,373.936,179.33Z" transform="translate(-355.625 -138.328)" fill="#ffbe9d"/>
                </g>
                <g id="Group_3605" data-name="Group 3605" transform="translate(28.716 17.783)">
                  <g id="Group_3602" data-name="Group 3602" transform="translate(0.823 1.953)">
                    <path id="Path_7425" data-name="Path 7425" d="M387,161.941a.834.834,0,1,1-.849-.842A.845.845,0,0,1,387,161.941Z" transform="translate(-385.337 -161.099)" fill="#263238"/>
                  </g>
                  <g id="Group_3604" data-name="Group 3604">
                    <g id="Group_3603" data-name="Group 3603">
                      <path id="Path_7426" data-name="Path 7426" d="M387.538,159.5c-.106.112-.73-.415-1.629-.449s-1.565.422-1.66.3c-.047-.054.061-.26.352-.473a2.168,2.168,0,0,1,2.626.118C387.5,159.234,387.589,159.449,387.538,159.5Z" transform="translate(-384.238 -158.491)" fill="#263238"/>
                    </g>
                  </g>
                </g>
                <g id="Group_3609" data-name="Group 3609" transform="translate(18.767 17.956)">
                  <g id="Group_3606" data-name="Group 3606" transform="translate(0.823 1.78)">
                    <path id="Path_7427" data-name="Path 7427" d="M373.719,161.941a.834.834,0,1,1-.849-.842A.845.845,0,0,1,373.719,161.941Z" transform="translate(-372.052 -161.099)" fill="#263238"/>
                  </g>
                  <g id="Group_3608" data-name="Group 3608">
                    <g id="Group_3607" data-name="Group 3607">
                      <path id="Path_7428" data-name="Path 7428" d="M374.253,159.729c-.106.112-.731-.414-1.629-.448s-1.565.421-1.66.3c-.047-.054.061-.26.352-.473a2.171,2.171,0,0,1,2.626.118C374.213,159.464,374.3,159.679,374.253,159.729Z" transform="translate(-370.953 -158.722)" fill="#263238"/>
                    </g>
                  </g>
                </g>
                <g id="Group_3611" data-name="Group 3611" transform="translate(25.144 18.654)">
                  <g id="Group_3610" data-name="Group 3610">
                    <path id="Path_7429" data-name="Path 7429" d="M379.764,167.688a5.463,5.463,0,0,1,1.463-.223c.23-.016.448-.056.49-.222a1.349,1.349,0,0,0-.142-.735l-.649-1.9a34.532,34.532,0,0,1-1.447-4.955,34.3,34.3,0,0,1,1.814,4.827c.216.666.423,1.3.62,1.908a1.524,1.524,0,0,1,.1.968.571.571,0,0,1-.383.345,1.439,1.439,0,0,1-.391.042A5.5,5.5,0,0,1,379.764,167.688Z" transform="translate(-379.468 -159.654)" fill="#263238"/>
                  </g>
                </g>
                <g id="Group_3612" data-name="Group 3612" transform="translate(22.337 27.5)">
                  <path id="Path_7430" data-name="Path 7430" d="M375.873,171.576c-.919-.6,2.535,1.49,4.366,1.458a2.454,2.454,0,0,1-2.96.917A1.946,1.946,0,0,1,375.873,171.576Z" transform="translate(-375.72 -171.467)" fill="#fff"/>
                </g>
                <g id="Group_3613" data-name="Group 3613" transform="translate(17.201 35.254)">
                  <path id="Path_7431" data-name="Path 7431" d="M377.542,184.663a15.966,15.966,0,0,1-8.681-2.842s2.041,4.875,8.567,4.484Z" transform="translate(-368.861 -181.821)" fill="#eb996e"/>
                </g>
                <g id="Group_3614" data-name="Group 3614">
                  <path id="Path_7432" data-name="Path 7432" d="M346.14,154.482h0c-.023,5.792-1.54,21.107,9.017,23.231l-.383-21.092s10.222-4.82,11.949-14.86l.062.058c.655,1.515,1.821,4.77,1.113,7.42l9.572,2.359,1.1,1.008A13.172,13.172,0,0,0,375.4,138.36c-6.577-6.775-12.2-1.866-15.722-2.289-2.345-.282-10.476-.227-13.788,13.776Z" transform="translate(-345.893 -134.746)" fill="#263238"/>
                </g>
              </g>
            </g>
            <g id="Group_3622" data-name="Group 3622" transform="translate(5.339 21.867)">
              <g id="Group_3620" data-name="Group 3620">
                <g id="Group_3617" data-name="Group 3617">
                  <path id="Path_7433" data-name="Path 7433" d="M356.826,164.188a2.353,2.353,0,0,0-2.82.675,3.846,3.846,0,0,0,3.828,6.314" transform="translate(-353.022 -163.945)" fill="#ffbe9d"/>
                </g>
                <g id="Group_3619" data-name="Group 3619" transform="translate(1.347 1.967)">
                  <g id="Group_3618" data-name="Group 3618">
                    <path id="Path_7434" data-name="Path 7434" d="M357.072,169.832c0,.047-.3.1-.767-.027a2.02,2.02,0,0,1-1.4-1.242,1.492,1.492,0,0,1,.04-1.092,1.578,1.578,0,0,1,.571-.665c.421-.272.741-.252.746-.209.016.06-.262.142-.577.427a1.3,1.3,0,0,0-.409,1.415,1.991,1.991,0,0,0,1.123,1.107C356.8,169.723,357.078,169.773,357.072,169.832Z" transform="translate(-354.82 -166.572)" fill="#eb996e"/>
                  </g>
                </g>
              </g>
              <g id="Group_3621" data-name="Group 3621" transform="translate(2.158 6.534)">
                <path id="Path_7435" data-name="Path 7435" d="M356.47,172.682a.76.76,0,1,0,.289-.012" transform="translate(-355.903 -172.67)" fill="#e8505b"/>
              </g>
            </g>
          </g>
          <g id="Group_3624" data-name="Group 3624" transform="translate(57.738 66.324)">
            <path id="Path_7436" data-name="Path 7436" d="M376.987,234.307v-11s-16.334,3.389-16.633,10.868Z" transform="translate(-360.354 -223.308)" fill="#ffbe9d"/>
          </g>
          <g id="Group_3625" data-name="Group 3625" transform="translate(72.671 41.828)">
            <path id="Path_7437" data-name="Path 7437" d="M380.294,191.3a13.686,13.686,0,0,0,13.4,12.593c2.411.043,4.954-.531,7.155.455,1.914.856,3.146,2.712,4.654,4.17a13.81,13.81,0,0,0,13.694,3.1c1.978-.664,5.121-2.085,5.489-4.138.28-1.564-1.632-3.119-2.759-4.24a13.941,13.941,0,0,0-4.022-2.515c-11.635-5.465-24.125-9.44-36.961-10.119" transform="translate(-380.294 -190.599)" fill="#263238"/>
          </g>
        </g>
      </g>
    </g>
  </g>
</svg>
