<svg xmlns="http://www.w3.org/2000/svg" width="248" height="55.688" viewBox="0 0 248 55.688"><defs><style>.a{fill:#57b7dd;}.a,.b,.c,.d,.e,.f,.g{fill-rule:evenodd;}.b{fill:#f99132;}.c{fill:#a98bbc;}.d{fill:#ff6d56;}.e{fill:#8ac539;}.f{fill:#ffbe0a;}.g{fill:#fff;}</style></defs><g transform="translate(-0.5 -0.888)"><path class="a" d="M.528,18.586V33.213L17.645,41.3,35.153,22.865,23.686,2a6.148,6.148,0,0,0-1.091.475L3.577,13.411A5.985,5.985,0,0,0,.5,18.586" transform="translate(0 -0.801)"/><path class="b" d="M61.8,95.031l20.641,9.733,9.342-5.4L79.309,76.6Z" transform="translate(-44.155 -54.537)"/><path class="c" d="M105.176,11.267,88.395,1.674A6.041,6.041,0,0,0,83.5,1.2L94.967,22.091l10.265-10.768Z" transform="translate(-59.786 0)"/><path class="d" d="M136.874,71.635h.056a5.985,5.985,0,0,0,2.993-5.174V44.589a5.977,5.977,0,0,0-2.993-5.2L134.665,38.1,124.4,48.868l12.5,22.795Z" transform="translate(-89.247 -26.805)"/><path class="e" d="M.6,113.6v7.244a6.017,6.017,0,0,0,3.021,5.174l6.433,3.72,7.663-8.055Z" transform="translate(-0.072 -81.188)"/><path class="f" d="M34.5,150.555l12.586,7.216a6.041,6.041,0,0,0,6.041,0l9.649-5.538L42.135,142.5Z" transform="translate(-24.491 -102.005)"/><g transform="translate(67.429 14.792)"><path class="g" d="M367.674,70.71c0,2.909-2.377,3.916-4.391,3.916-3.608,0-4-1.818-4-2.6a2.5,2.5,0,0,1,1.035-2.154c.839-.559,2.154-.615,3.86-.615h3.468V70.71Zm-7.663-7.188a2.154,2.154,0,0,1,.867-1.482,5.607,5.607,0,0,1,5.9,0,2.991,2.991,0,0,1,.895,2.321v1.175h-3.552c-2.1,0-4.307.112-6.041,1.37a6,6,0,0,0-2.461,5.034c0,3.888,3.021,6.377,7.663,6.377a7.616,7.616,0,0,0,5.034-1.818l.084,1.482h2.909V64.389a6.363,6.363,0,0,0-2.182-5.146,8.111,8.111,0,0,0-5.314-1.734,7.992,7.992,0,0,0-5.314,1.734,5.535,5.535,0,0,0-2.07,3.972l3.58.28ZM283.543,70.71c0,2.909-2.349,3.916-4.363,3.916-3.636,0-4-1.818-4-2.6a2.471,2.471,0,0,1,1.007-2.154c.867-.559,2.154-.615,3.86-.615h3.5Zm-7.663-7.188a2.154,2.154,0,0,1,.867-1.482,4.588,4.588,0,0,1,2.937-.839,4.465,4.465,0,0,1,2.965.839,2.9,2.9,0,0,1,.895,2.321v1.175h-3.524c-2.126,0-4.307.112-6.069,1.37a5.981,5.981,0,0,0-2.433,5.034c0,3.888,2.993,6.377,7.663,6.377a7.672,7.672,0,0,0,5.034-1.818l.084,1.482h2.909V64.389a6.363,6.363,0,0,0-2.182-5.146,9.052,9.052,0,0,0-10.656,0,5.4,5.4,0,0,0-2.042,3.972l3.552.28ZM322.5,67.829a8.909,8.909,0,0,1-1.2,5.2,3.938,3.938,0,0,1-3.44,1.594,3.99,3.99,0,0,1-3.468-1.594,9.034,9.034,0,0,1-1.287-5.2,8.429,8.429,0,0,1,1.287-5.034,3.99,3.99,0,0,1,3.468-1.594,3.905,3.905,0,0,1,3.44,1.594A8.25,8.25,0,0,1,322.5,67.829ZM321.945,50.6v8.447a5.846,5.846,0,0,0-4.055-1.538h-.056a7.552,7.552,0,0,0-6.209,2.937,11.383,11.383,0,0,0-2.182,7.384c0,3.216.7,5.706,2.182,7.552a7.552,7.552,0,0,0,6.209,2.937h.056a6.834,6.834,0,0,0,4.7-2.042l.112,1.706h2.909V50.6h-3.664Zm76.97,20.445A3.349,3.349,0,0,1,397.8,73.59a4.528,4.528,0,0,1-3.049,1.035,3.99,3.99,0,0,1-3.468-1.594,8.586,8.586,0,0,1-1.315-5.118,8.589,8.589,0,0,1,1.315-5.118,3.99,3.99,0,0,1,3.468-1.594,4.653,4.653,0,0,1,3.077,1.035,3.337,3.337,0,0,1,1.119,2.517l3.552-.2A6.666,6.666,0,0,0,400.2,59.41a8.2,8.2,0,0,0-5.454-1.9,7.552,7.552,0,0,0-6.265,2.937,11.719,11.719,0,0,0-2.154,7.468,11.739,11.739,0,0,0,2.154,7.468,7.552,7.552,0,0,0,6.265,2.937,8.2,8.2,0,0,0,5.454-1.9,6.732,6.732,0,0,0,2.293-5.174Zm-15.467,3.44a1.933,1.933,0,0,1-2.349-.056,2.548,2.548,0,0,1-.979-2.154V61.536h3.552V57.844H380.12V54.068h-3.692v3.8H374.3v3.692h2.126V72.3A5.894,5.894,0,0,0,379.5,77.9a5.678,5.678,0,0,0,6.013-.643l.112-.112-2.042-2.769Zm-36.388-2.8-3.916-13.817H339.7l-3.916,13.817-3.972-13.817h-3.524l5.762,20.11h3.412l3.944-13.845,3.944,13.817h3.412l5.762-20.138H351Zm-94.479-12.5a3.2,3.2,0,0,1-1.063,2.685,6.68,6.68,0,0,1-3.916.923h-4.2V55.523h4.055c5.118.084,5.118,2.6,5.118,3.636m-.14,14.012a5.427,5.427,0,0,1-3.72,1.119h-5.314V66.458h5.678a5.341,5.341,0,0,1,3.44,1.147,3.2,3.2,0,0,1,1.119,2.573,3.687,3.687,0,0,1-1.175,2.993m1.762-8.81a6.992,6.992,0,0,0,2.042-5.118,6.712,6.712,0,0,0-2.461-5.538,10.293,10.293,0,0,0-6.517-1.846h-7.5V77.982h8.866a9.05,9.05,0,0,0,6.265-2.07,7.349,7.349,0,0,0,2.377-5.762,6.919,6.919,0,0,0-1.818-4.671,9.482,9.482,0,0,0-1.259-1.119m44.359-6.852c-4.755,0-7.608,3.077-7.608,8.223v12.25h3.692V65.7c0-1.343.392-4.475,3.972-4.475s3.944,3.133,3.944,4.475V78.009h3.664V65.731c0-5.146-2.853-8.223-7.608-8.223m115.036,0a6.83,6.83,0,0,0-4.475,1.51V50.628h-3.636V77.982h3.636V65.787a4.256,4.256,0,0,1,4.2-4.587c2.6,0,3.776,2.321,3.776,4.475V77.982h3.692V66.011c0-8.083-5.985-8.5-7.188-8.5m-145.494,0c-4.755,0-7.635,3.077-7.635,8.223v12.25h3.664V65.7c0-1.343.392-4.475,3.972-4.475a4.435,4.435,0,0,1,1.342.168l.951-3.608a9.789,9.789,0,0,0-2.293-.28" transform="translate(-239.8 -50.6)"/></g></g></svg>