<svg xmlns="http://www.w3.org/2000/svg" width="191.931" height="50.599" viewBox="0 0 191.931 50.599"><defs><style>.a{fill:#fff;}</style></defs><path class="a" d="M166.632,7.539a25.308,25.308,0,0,0-24.8,20.264V7.539l-25.372,25.3-25.3-25.3V27.8a25.3,25.3,0,0,0-49.594,0,25.313,25.313,0,0,0-24.8-20.26H0v50.6H16.772a25.314,25.314,0,0,0,24.8-20.26,25.3,25.3,0,0,0,49.594,0V58.138h8.385V27.881L116.462,44.8,133.3,27.881V58.138h8.53V37.874a25.3,25.3,0,1,0,24.8-30.335ZM17.871,49.68H8.385V16h9.493a16.878,16.878,0,0,1-.006,33.684Zm48.494.04A16.882,16.882,0,1,1,83.247,32.838,16.882,16.882,0,0,1,66.365,49.72Zm100.267,0a16.882,16.882,0,1,1,16.882-16.882A16.882,16.882,0,0,1,166.632,49.72Z" transform="translate(0 -7.539)"/></svg>