<svg xmlns="http://www.w3.org/2000/svg" width="178.458" height="58.528" viewBox="0 0 178.458 58.528"><defs><style>.a{fill:#fff;}.b{fill:#59c384;}</style></defs><g transform="translate(-0.9 -1.4)"><g transform="translate(0.9 1.4)"><path class="a" d="M106.948,10.106C101.095,4.767,92.264,2.2,83.126,2.2H78.3V15.343h4.826s18.482-.513,18.482,15.4c0,15.71-18.482,15.4-18.482,15.4H78.3V59.393h4.826c9.139,0,17.969-2.67,23.822-8.009s8.83-12.219,8.83-20.639C115.778,22.223,112.8,15.343,106.948,10.106Z" transform="translate(1.174 -1.379)"/><path class="b" d="M78.662,12.776V2.2L64.8,12.776V59.29H78.662Z" transform="translate(0.813 -1.379)"/><path class="a" d="M166.848,10.106C160.995,4.767,152.164,2.2,143.026,2.2H138.2V15.343h4.826s18.482-.513,18.482,15.4-18.482,15.4-18.482,15.4H138.2V59.393h4.826c9.139,0,17.969-2.67,23.822-8.009s8.83-12.219,8.83-20.639C175.576,22.223,172.7,15.343,166.848,10.106Z" transform="translate(2.78 -1.379)"/><path class="b" d="M138.564,48.714V59.29L124.6,48.714V2.2h13.964Z" transform="translate(2.415 -1.379)"/><path class="b" d="M41.513,23.6H25.7V37.462H55.683Z" transform="translate(-0.235 -0.805)"/><path class="a" d="M42.485,38.057h0a12.305,12.305,0,0,1-4.21,6.674A12.729,12.729,0,0,1,30.164,47.2c-4.621,0-8.317-1.54-10.987-4.518C16.4,39.7,15.07,35.7,15.07,30.664S16.4,21.731,19.177,18.65c2.772-2.978,6.469-4.518,11.295-4.518a11.008,11.008,0,0,1,8.83,3.9l9.857-7.393a23.048,23.048,0,0,0-19-9.241A29.158,29.158,0,0,0,9.32,9.614,29.12,29.12,0,0,0,.9,30.767c0,8.42,2.875,15.5,8.522,20.947,5.647,5.545,12.63,8.214,20.844,8.214A27.6,27.6,0,0,0,40.74,57.874a24.67,24.67,0,0,0,8.317-5.339A29.87,29.87,0,0,0,56.45,37.954H42.485Z" transform="translate(-0.9 -1.4)"/></g></g></svg>