<svg xmlns="http://www.w3.org/2000/svg" width="248" height="30.607" viewBox="0 0 248 30.607"><defs><style>.a{fill:#fff;}</style></defs><g transform="translate(-248.402 -1017.844)"><path class="a" d="M812.848,984.648a56.039,56.039,0,0,1-11.068-12.094c-.933-1.417-.942-1.453-.559-2.257,1.32-2.768,7.773-9.982,11.792-13.183l1.775-1.413,5.508.067,5.507.067-1.934,1.3a58.749,58.749,0,0,0-8.781,7.287c-3.215,3.208-5.467,5.907-5.467,6.551,0,.691,2.218,3.3,5.765,6.782A55.594,55.594,0,0,0,824,984.907a14.639,14.639,0,0,1,1.788,1.3c0,.057-2.438.1-5.417.1h-5.418Zm22.538,1.411A14.38,14.38,0,0,1,827,981.572a15.183,15.183,0,0,1,7.168-25.393,15.344,15.344,0,0,1,11.5,1.715,15.588,15.588,0,0,1,6.682,8.3,11.144,11.144,0,0,1,.654,4.685,11.4,11.4,0,0,1-.682,4.851,16.218,16.218,0,0,1-6.685,8.406A17.182,17.182,0,0,1,835.387,986.059Zm5.86-9.584c3.249-2.284,4.022-6.111,1.867-9.238a6.648,6.648,0,0,0-6.755-2.6,6.473,6.473,0,0,0-3.28,10.661c2.353,2.21,5.913,2.749,8.168,1.181Zm8.674,9.714a20.272,20.272,0,0,1,2.229-1.617,58.162,58.162,0,0,0,9.344-7.993c3.388-3.5,4.6-4.978,4.6-5.62,0-1.042-6.367-7.743-10.452-11-1.3-1.037-3.144-2.39-4.093-3.006l-1.727-1.119,5.537-.067,5.538-.067,1.913,1.559A53.207,53.207,0,0,1,873.487,968.8c1.606,2.413,1.635,2.138-.557,5.19a54.857,54.857,0,0,1-10.676,11.13l-1.512,1.18-5.41,0c-2.976,0-5.411-.051-5.411-.116Z" transform="translate(-552.581 62.144)"/><g transform="translate(328.816 1019.103)"><path class="a" d="M703.809,1774.16a9.835,9.835,0,0,0-2.659-5.969c-3.319-3.141-9.564-2.819-12.418.641a11.012,11.012,0,0,0-1.875,9.255,10.1,10.1,0,0,0,5.826,6.2h0c1.61.6,6.089.275,7.729-.559s2.839-1.855,2.839-2.426c0-.221-.483-.771-1.074-1.222l-1.074-.819-1.475,1.04a4.637,4.637,0,0,1-3.6,1.04,4.888,4.888,0,0,1-3.4-.84,6.147,6.147,0,0,1-2.457-3.656l-.214-.709h14.009Zm-8.611-1.177h-4.9l.452-.867a6.664,6.664,0,0,1,2.62-2.563,5.5,5.5,0,0,1,4.44.274,6.119,6.119,0,0,1,2.283,2.919A25.561,25.561,0,0,1,695.2,1772.983Z" transform="translate(-657.194 -1757.052)"/><path class="a" d="M1107.569,1695.653h-3.786v5.047h-2.523v3.156h2.461l.119,5.441c.093,4.262.23,5.647.632,6.389a7.041,7.041,0,0,0,2.94,2.788c1.052.555,5.358.726,5.667.224a4.013,4.013,0,0,0-.176-1.735l-.362-1.436h-1.712c-1.4,0-1.854-.142-2.486-.774-.758-.758-.774-.883-.774-5.835v-5.062h5.678V1700.7h-5.678Z" transform="translate(-1044.162 -1691.394)"/><path class="a" d="M1766.426,1766.475c0,.79.02.792-1.765-.157a9.614,9.614,0,0,0-7.977.041,9.589,9.589,0,0,0,1.067,17.411,12.042,12.042,0,0,0,7.028-.5c1.642-.861,1.646-.861,1.646-.078,0,.554.21.631,1.735.631h1.735v-17.981h-1.735C1766.636,1765.844,1766.426,1765.92,1766.426,1766.475Zm-2.59,13.6a6.166,6.166,0,0,1-6.67-.94,6.563,6.563,0,0,1-1.354-6.759,7.187,7.187,0,0,1,3.537-3.251,10.389,10.389,0,0,1,2.521-.057,4.56,4.56,0,0,1,2.9,1.1l1.18.955.089,3.557C1766.143,1778.658,1766.02,1778.959,1763.835,1780.073Z" transform="translate(-1650.969 -1756.537)"/><path class="a" d="M2082.927,1695.653h-3.785v5.047h-2.524v3.154h2.524v4.811a39.03,39.03,0,0,0,.332,6,7.183,7.183,0,0,0,3.288,3.9,9.265,9.265,0,0,0,3.318.348l2.366-.073-.067-.947c-.16-2.247-.269-2.366-2.161-2.366-1.43,0-1.883-.139-2.518-.774-.758-.758-.774-.883-.774-5.835v-5.062h5.678V1700.7h-5.678Z" transform="translate(-1954.221 -1691.394)"/><path class="a" d="M2303.521,1774.063a9.72,9.72,0,0,0-5.108-7.768,9.452,9.452,0,0,0-9.848,1.973,10.156,10.156,0,0,0-1.636,10.687,9.011,9.011,0,0,0,5.639,5.066h0a14.945,14.945,0,0,0,2.916.268,9.125,9.125,0,0,0,6.445-2.234l1.052-1.019-1.009-1.041c-1.137-1.173-1.563-1.273-2.188-.518a6.886,6.886,0,0,1-4.219,1.671,6.035,6.035,0,0,1-5.715-4.35l-.2-1H2303.7Zm-8.742-1.419a21.242,21.242,0,0,1-4.731-.268,4.837,4.837,0,0,1,.709-1.309,5.062,5.062,0,0,1,6.208-1.747c1.05.543,2.545,2.233,2.545,2.875C2299.51,1772.564,2298.662,1772.643,2294.779,1772.643Z" transform="translate(-2149.669 -1756.714)"/><path class="a" d="M271.622,1638.78l-5.036,7.983a80.392,80.392,0,0,1-5.081,7.571s-2.874-3.854-5.519-8.062l-4.809-7.649H248.4v26.813h3.776l.084-8.911.084-8.911,3.9,6.072,3.9,6.073H262.8l3.762-5.906,3.763-5.905.157,8.666.158,8.666,1.972.094,1.972.094v-26.879l-1.481.1Z" transform="translate(-248.402 -1638.149)"/><path class="a" d="M1001.134,1632.034h-3.47l-.083,13.644-.082,13.643h3.8l-.083-13.643Z" transform="translate(-947.349 -1632.034)"/><path class="a" d="M1337.4,1770.814l-1.926.094-2.371,5.93c-1.3,3.26-2.416,5.884-2.472,5.828s-1.16-2.724-2.455-5.929l-2.353-5.828-1.372-.09-1.372-.089-2.362,5.977a49.619,49.619,0,0,1-2.54,5.866c-.1-.061-1.224-2.745-2.5-5.967l-2.325-5.856h-1.872c-1.648,0-1.848.066-1.675.552.108.3,1.721,4.353,3.583,9l3.385,8.446,1.371-.087,1.372-.087,2.414-6.083c1.648-4.153,2.5-5.949,2.689-5.66.152.234,1.295,2.971,2.541,6.083l2.265,5.659h2.728l3.588-8.814c1.973-4.848,3.587-8.866,3.587-8.927A8.337,8.337,0,0,0,1337.4,1770.814Z" transform="translate(-1238.699 -1761.444)"/><path class="a" d="M2603.635,1766.33c-1.72,0-3.958.793-4.441,1.573-.361.584-.791.33-.791-.469,0-.746-.095-.789-1.735-.789h-1.734v17.981h3.785v-12.179l1.025-.97a4.639,4.639,0,0,1,3.844-1.678c1.306,0,1.44-.069,1.44-.749a10.9,10.9,0,0,1,.2-1.735l.2-.985Z" transform="translate(-2437.836 -1757.339)"/></g></g></svg>