<svg xmlns="http://www.w3.org/2000/svg" xmlns:xlink="http://www.w3.org/1999/xlink" width="191.862" height="58.042" viewBox="0 0 191.862 58.042"><defs><style>.a{fill:#fff;}.b{fill:url(#a);}.c{fill:url(#b);}.d{opacity:0.3;fill:url(#c);}</style><linearGradient id="a" x1="0.38" y1="10.063" x2="0.531" y2="10.754" gradientUnits="objectBoundingBox"><stop offset="0.011" stop-color="#e67417"/><stop offset="0.999" stop-color="#e62f17"/></linearGradient><linearGradient id="b" x1="0.498" y1="11.865" x2="0.498" y2="12.831" gradientUnits="objectBoundingBox"><stop offset="0" stop-color="#f2bb30"/><stop offset="0.309" stop-color="#e67417"/><stop offset="1" stop-color="#e62f17"/></linearGradient><linearGradient id="c" x1="0.414" y1="32.413" x2="0.555" y2="31.528" gradientUnits="objectBoundingBox"><stop offset="0" stop-color="#fff"/><stop offset="1" stop-color="#fff" stop-opacity="0"/></linearGradient></defs><g transform="translate(-1.5 -1.475)"><g transform="translate(66.55 7.878)"><path class="a" d="M74.6,22.163c2.416-2.416,4.833-3.963,7.926-3.963,3.576,0,6.089,1.353,7.153,4.543,3.19-3.286,5.7-4.543,8.7-4.543,5.123,0,7.732,2.9,7.732,9.569V43.234h-5.9V29.315c0-3.866-.677-5.606-3.48-5.606-1.933,0-4.06,1.16-6.379,3.673V43.137h-5.8V29.315c0-3.866-.87-5.606-3.576-5.606-2.126,0-4.35,1.353-6.379,3.77V43.234H68.8V18.683h5.8Z" transform="translate(-68.8 -8.438)"/><path class="a" d="M134.737,31.155c0,7.636-4.833,12.565-12.469,12.565S109.8,38.791,109.8,31.155c0-7.926,4.833-12.855,12.469-12.855C129.9,18.2,134.737,23.229,134.737,31.155Zm-5.7,0c0-5.123-2.61-8.022-6.766-8.022-4.06,0-6.669,2.9-6.669,8.022,0,4.929,2.61,7.732,6.669,7.732,4.156,0,6.766-2.8,6.766-7.732Z" transform="translate(-70.171 -8.441)"/><path class="a" d="M138,42.94V9.4h5.8V42.94Z" transform="translate(-71.114 -8.143)"/><path class="a" d="M164.2,41.983a16.829,16.829,0,0,1-6.186,1.257c-5.413,0-7.636-2.513-7.636-8.6V23.425H146.8V18.5h3.576V12.6h5.9v5.9h6.766v4.929h-6.766V34.541c0,2.9,1.063,3.77,3.77,3.77,1.16,0,2.32-.1,3.48-.193Z" transform="translate(-71.408 -8.25)"/><path class="a" d="M170.583,8.1a3.093,3.093,0,0,1,3.383,3.19c0,2.126-1.643,3.093-3.383,3.093a3.15,3.15,0,1,1,0-6.283Zm-2.9,34.8V18.346h5.8V42.8Z" transform="translate(-72.09 -8.1)"/><path class="a" d="M182.5,22.166c2.706-2.416,5.219-3.866,8.7-3.866,5.413,0,8.022,2.9,8.022,9.569V43.334h-5.8V29.319c0-3.963-.58-5.606-3.866-5.606-2.61,0-4.929,1.45-7.056,3.77V43.141h-5.8V18.687h5.8Z" transform="translate(-72.408 -8.441)"/></g><g transform="translate(1.5 1.475)"><path class="a" d="M51.375,15.418,27.694,1.692a1.846,1.846,0,0,0-1.74,0L2.37,15.418a1.8,1.8,0,0,0-.87,1.45V44.221a1.6,1.6,0,0,0,.87,1.45L26.051,59.3a1.846,1.846,0,0,0,1.74,0L51.471,45.671a1.8,1.8,0,0,0,.87-1.45V16.867A1.9,1.9,0,0,0,51.375,15.418Z" transform="translate(-1.5 -1.475)"/><path class="b" d="M5.767,44.476A1.993,1.993,0,0,1,4.8,42.833V28.914a15.6,15.6,0,0,1,.677-4.736,9.133,9.133,0,0,1,5.606-5.606c6.089-2.416,12.082.87,15.465,5.7a30.7,30.7,0,0,0,8.119,8.409c3.19,2.416,13.145,6.766,14.6-1.933V42.736a1.871,1.871,0,0,1-.967,1.643L28,56.074a1.756,1.756,0,0,1-1.933,0Z" transform="translate(-1.61 -2.02)"/><path class="c" d="M5.769,44.676l20.3,11.7a1.756,1.756,0,0,0,1.933,0l20.3-11.7a1.993,1.993,0,0,0,.967-1.643V31.048c0-8.892-9.859-9.569-14.982-2.513-4.06,5.606-5.8,7.539-11.212,9.569-6.283,2.32-11.985,1.063-15.272-2.126a9.438,9.438,0,0,1-2.9-6.766V43.13A1.655,1.655,0,0,0,5.769,44.676Z" transform="translate(-1.613 -2.22)"/><path class="d" d="M50.115,31.048c0-8.892-9.859-9.569-14.982-2.513-.677.967-1.353,1.836-1.933,2.61.677.58,1.45,1.16,2.32,1.836C38.709,35.4,48.665,39.747,50.115,31.048Z" transform="translate(-2.56 -2.22)"/></g></g></svg>