<svg xmlns="http://www.w3.org/2000/svg" width="249.001" height="65.95" viewBox="0 0 249.001 65.95"><defs><style>.a,.b{fill:#fff;}.b{stroke:#fff;stroke-width:2px;}</style></defs><g transform="translate(-720.272 -285.962)"><g transform="translate(827.183 333.303)"><g transform="translate(0 0.266)"><path class="a" d="M685.176,804.888h-5.327v15.738h-1.307V804.888h-5.327v-1.211h11.961Z" transform="translate(-673.215 -803.677)"/></g><g transform="translate(42.478 0.266)"><path class="a" d="M853.291,819.415v-6.731h-7.748v-1.211h7.748v-6.586h-8.353v-1.211h9.637v16.949h-9.758v-1.211Z" transform="translate(-844.817 -803.677)"/></g><g transform="translate(82.753 0)"><path class="a" d="M1007.518,811.342a8.588,8.588,0,0,1,8.813-8.741,8.27,8.27,0,0,1,7.264,4.068l-1.138.653a6.905,6.905,0,0,0-6.126-3.487,7.506,7.506,0,1,0,0,15.012,6.92,6.92,0,0,0,6.174-3.559l1.138.654a8.276,8.276,0,0,1-7.312,4.14A8.588,8.588,0,0,1,1007.518,811.342Z" transform="translate(-1007.518 -802.602)"/></g><g transform="translate(129.396 0.266)"><path class="a" d="M1208.365,803.677v16.949h-1.283v-8.111h-9.855v8.111h-1.283V803.677h1.283V811.3h9.855v-7.627Z" transform="translate(-1195.944 -803.677)"/></g></g><g transform="translate(726.915 292.186)"><path class="b" d="M781.5,398.419l-69.7-.089.07-54.407,34.814,26.031,34.881-25.942Zm-68.989-.793,68.286.088.067-52.3-34.176,25.417-34.11-25.5Z" transform="translate(-711.804 -343.922)"/></g><g transform="translate(732.55 296.414)"><path class="b" d="M821.476,428.419l-69.7-.089.07-54.407,34.814,26.031,34.881-25.942Zm-68.989-.793,68.286.088.067-52.3-34.176,25.417-34.11-25.5Z" transform="translate(-751.781 -373.922)"/></g><g transform="translate(721.273 287.957)"><path class="b" d="M741.476,368.419l-69.7-.089.07-54.407,34.814,26.031,34.881-25.942Zm-68.99-.793,68.286.088.067-52.3-34.175,25.417-34.11-25.5Z" transform="translate(-671.781 -313.922)"/></g><g transform="translate(827.074 287.778)"><path class="a" d="M688.092,206.778v16.939H686.81V208.665l-6.267,10.405h-.218l-6.267-10.406v15.052h-1.282V206.778h1.615l6.044,10.035,6.044-10.035Z" transform="translate(-672.775 -206.778)"/><g transform="translate(45.923)"><path class="a" d="M871.918,206.778l-6.17,9.969v6.97h-1.283v-6.97l-6.171-9.969h1.452l5.374,8.728,5.346-8.728Z" transform="translate(-858.295 -206.778)"/></g><g transform="translate(90.153)"><path class="a" d="M1036.972,223.717l4.211-7.115a4.974,4.974,0,0,1-2.674-1.766,5.009,5.009,0,0,1,3.956-8.058h6.679v16.939h-1.282v-6.945h-5.331l-4.083,6.945Zm5.493-15.729a3.555,3.555,0,0,0-2.638,1.113,3.7,3.7,0,0,0-1.089,2.686,3.661,3.661,0,0,0,1.089,2.674,3.572,3.572,0,0,0,2.638,1.1h5.4v-7.574Z" transform="translate(-1036.972 -206.778)"/></g><g transform="translate(132.931)"><path class="a" d="M1211.067,222.507h7.986v1.21h-9.268V206.778h1.283Z" transform="translate(-1209.784 -206.778)"/></g></g></g></svg>