<svg xmlns="http://www.w3.org/2000/svg" width="248" height="25.823" viewBox="0 0 248 25.823"><defs><style>.a{fill:#fff;}</style></defs><g transform="translate(-42.185 -590.369)"><path class="a" d="M1008.651,605.753c.1.822.413,1.6.44,2.447a7.041,7.041,0,0,1-3.748,6.8c-.172.146-.41.188-.567.358-5.261,2.2-10.671,1.781-16.106.916-.362-.164-.787-.114-1.135-.329a21.494,21.494,0,0,1-4.606-2.081c-.167-.155-.406-.2-.57-.359-1.362-1.008-1.361-1.007-.312-2.371.47-.61.951-1.213,1.4-1.84a.829.829,0,0,1,1.3-.264,20.816,20.816,0,0,0,16.352,2.4,3.685,3.685,0,0,0,2.051-1.5c.817-1.328.035-2.888-1.706-3.241a34.19,34.19,0,0,0-4.121-.569,72.738,72.738,0,0,1-9.563-.962,8.194,8.194,0,0,1-4.49-2.4,1.284,1.284,0,0,1-.369-.725c-.2-.213-.22-.514-.377-.747A6.513,6.513,0,0,1,986,593.035a16.6,16.6,0,0,1,6.21-1.6,25.21,25.21,0,0,1,10.378,1.1c.549.189,1.092.4,1.638.6a4.021,4.021,0,0,1,.581.336,15.732,15.732,0,0,1,2.815,1.551c.376.228.352.5.072.813-.82.915-1.629,1.839-2.441,2.761a.785.785,0,0,1-1.086.112,20.1,20.1,0,0,0-6.036-2.148,17.349,17.349,0,0,0-5.775-.255c-.547.075-1.1.114-1.65.169-.281.225-.682.1-.962.324a3.3,3.3,0,0,0-1.443.627c-.27.243-.335.617-.564.886.021,1.118.812,1.785,2.289,2.027,2.369.387,4.77.4,7.147.636,2.729.273,5.52.393,8.049,1.69a7.453,7.453,0,0,1,3.069,2.521C1008.467,605.336,1008.5,605.578,1008.651,605.753Z" transform="translate(-765.004 -0.778)"/><path class="a" d="M53.64,600.647q4.877,5.237,9.764,10.464c.273.29.519.9.979.689.425-.192.192-.786.194-1.2.014-4.911.03-9.823-.01-14.735-.007-.918.229-1.285,1.193-1.214,1.075.079,2.161.039,3.242.012.594-.015.82.21.819.81q-.018,11.445,0,22.89c0,.583-.195.844-.8.835-1.451-.023-2.9-.017-4.355,0a1.291,1.291,0,0,1-1.031-.488c-3.888-4.164-7.824-8.283-11.672-12.483-1.221-1.333-2.53-2.585-3.692-3.973-.191-.229-.409-.575-.732-.45-.3.115-.138.5-.138.757q-.013,7.692-.007,15.383c0,1.243,0,1.245-1.216,1.248-.989,0-1.979-.037-2.965.012-.789.039-1.035-.313-1.022-1.042.024-1.39.006-2.78.006-4.17q0-8.989,0-17.978c0-1.342,0-1.343,1.382-1.343,1.266,0,2.533.012,3.8-.006a1.369,1.369,0,0,1,1.133.474c1.515,1.66,3.057,3.3,4.589,4.939A1.687,1.687,0,0,1,53.64,600.647Z" transform="translate(0 -3.484)"/><path class="a" d="M1186.987,662.561c-3.892,0-7.783-.021-11.675.016-.877.008-1.191-.252-1.183-1.156q.057-6.208,0-12.416c-.007-.844.254-1.127,1.111-1.122q8.385.046,16.771,0c.831,0,1.089.265,1.036,1.066a20.093,20.093,0,0,0,0,2.685c.056.827-.191,1.122-1.072,1.111-3.8-.047-7.6,0-11.4-.038-.845-.009-1.159.224-1.095,1.087a20.97,20.97,0,0,1,0,2.778c-.044.76.21,1.016.99,1.01,4.231-.032,8.463-.015,12.694-.015,1.915,0,3.831.032,5.745-.015.784-.02,1.029.258.991,1.014a30.5,30.5,0,0,0,0,3.056c.037.743-.253.957-.968.953C1194.955,662.548,1190.971,662.561,1186.987,662.561Z" transform="translate(-922.086 -46.85)"/><path class="a" d="M258.45,662.57c-3.859,0-7.719-.022-11.577.017-.87.009-1.186-.229-1.177-1.141q.063-6.251,0-12.5c-.007-.822.265-1.055,1.068-1.05q8.336.043,16.671,0c.786,0,1.134.2,1.081,1.039a25.366,25.366,0,0,0,0,2.87c.037.742-.254.95-.971.944-3.828-.028-7.657.015-11.485-.034-.914-.011-1.2.282-1.126,1.16a15.971,15.971,0,0,1,0,2.591c-.078.926.3,1.132,1.167,1.127,5.927-.032,11.855-.017,17.783-.017,1.459,0,1.459,0,1.459,1.446,0,.834-.044,1.67.012,2.5.055.807-.228,1.074-1.049,1.066C266.354,662.55,262.4,662.57,258.45,662.57Z" transform="translate(-165.781 -46.858)"/><path class="a" d="M430.093,609.469c0,2.936-.017,5.871.012,8.806.007.706-.188,1.011-.94.978-1.141-.05-2.288-.05-3.429,0-.776.034-1.007-.258-1-1.017.024-5.778.013-11.556.013-17.334,0-1.318,0-1.319-1.315-1.32-2.874,0-5.748-.026-8.621.016-.827.012-1.1-.273-1.048-1.073a22.751,22.751,0,0,0,0-2.779c-.053-.838.293-1.049,1.081-1.042,3.924.032,7.848.014,11.772.014,4.449,0,8.9.018,13.348-.016.836-.006,1.179.222,1.117,1.095a22.634,22.634,0,0,0,0,2.779c.04.755-.218,1.03-1,1.021-2.966-.036-5.933.013-8.9-.032-.849-.013-1.118.242-1.1,1.1C430.122,603.6,430.093,606.534,430.093,609.469Z" transform="translate(-302.682 -3.529)"/><path class="a" d="M809.656,610.41a5.675,5.675,0,0,1-2.98-2.4,1.633,1.633,0,0,0-.531-.592c-2.763-2.946-5.545-5.874-8.273-8.852-.619-.676-.98-.674-1.595-.007-3.3,3.575-6.678,7.072-9.9,10.717a3.279,3.279,0,0,1-3.951,1.081c-.274-.079-.4-.333-.6-.5a2.286,2.286,0,0,1-.195-3.052c.265-.405.546-.8.82-1.2.159-.21.4-.35.514-.6,3.138-3.71,6.411-7.3,9.766-10.814a13.8,13.8,0,0,1,2.848-2.707,3.291,3.291,0,0,1,2.962-.008,22.8,22.8,0,0,1,3.924,3.852c3.226,3.436,6.437,6.89,9.385,10.575a8.884,8.884,0,0,1,.83,1.206,2.147,2.147,0,0,1-1.517,3.308A1.71,1.71,0,0,1,809.656,610.41Z" transform="translate(-601.956 -0.623)"/><path class="a" d="M1184.3,599.54c-3.579,0-7.157.008-10.736-.005a2.476,2.476,0,0,1-2.446-1.863,2.515,2.515,0,0,1,1.317-2.784,2.37,2.37,0,0,1,1.251-.235q10.6-.009,21.194,0a2.321,2.321,0,0,1,2.51,2.446,2.377,2.377,0,0,1-2.54,2.437C1191.334,599.549,1187.818,599.54,1184.3,599.54Z" transform="translate(-919.575 -3.485)"/><path class="a" d="M255.745,594.646q5.323,0,10.646,0a2.468,2.468,0,0,1,1.95,3.918,2.632,2.632,0,0,1-2.267.985c-5.462-.02-10.924-.01-16.386-.01-1.543,0-3.086.012-4.629-.005a2.334,2.334,0,0,1-2.479-2.38,2.258,2.258,0,0,1,2.425-2.5C248.586,594.631,252.166,594.646,255.745,594.646Z" transform="translate(-163.244 -3.48)"/><path class="a" d="M1358.5,596.869a4.623,4.623,0,0,0-.388.337c-.732.9-.732.906-1.474.031-.113-.133-.183-.359-.415-.264-.169.069-.132.262-.136.409-.011.431,0,.863-.017,1.295-.01.325-.159.52-.516.5-.327-.018-.409-.239-.41-.506q-.007-1.711,0-3.422c0-.229.065-.442.33-.484a.916.916,0,0,1,.871.149,2.345,2.345,0,0,1,.253.384c.714,1.093.727,1.1,1.495.018a1.067,1.067,0,0,1,1.24-.555c.554.161.349.656.36,1.019.027.862.018,1.727,0,2.59-.008.362,0,.806-.536.8-.525-.008-.644-.4-.654-.833S1358.5,597.483,1358.5,596.869Z" transform="translate(-1069.54 -3.54)"/><path class="a" d="M1335.029,595.242c.025.443-.276.518-.6.491-.669-.056-.857.27-.823.883.036.644.01,1.292,0,1.938,0,.349-.008.708-.512.689-.448-.017-.445-.349-.449-.66-.008-.646-.026-1.293,0-1.938.025-.579-.088-.971-.792-.912-.315.026-.643-.016-.636-.464s.33-.467.648-.469q1.292-.009,2.584,0C1334.743,594.805,1335.014,594.862,1335.029,595.242Z" transform="translate(-1050.052 -3.607)"/><path class="a" d="M861.982,590.859a4.844,4.844,0,0,0-2.962.008A2.468,2.468,0,0,1,861.982,590.859Z" transform="translate(-665.397)"/><path class="a" d="M934.948,695.109l1.507.012A.927.927,0,0,1,934.948,695.109Z" transform="translate(-727.249 -85.322)"/><path class="a" d="M1014.953,724.049a1.414,1.414,0,0,1,1.135.329C1015.667,724.415,1015.246,724.452,1014.953,724.049Z" transform="translate(-792.421 -108.886)"/><path class="a" d="M1026.844,619.35c.215-.422.6-.334.962-.324A.878.878,0,0,1,1026.844,619.35Z" transform="translate(-802.107 -23.333)"/><path class="a" d="M749.521,676.963a2.425,2.425,0,0,1-.349-1.143C749.67,676.084,749.482,676.558,749.521,676.963Z" transform="translate(-575.915 -69.609)"/><path class="a" d="M1016.018,625.106a1.035,1.035,0,0,1,.564-.887A1.325,1.325,0,0,1,1016.018,625.106Z" transform="translate(-793.289 -27.574)"/><path class="a" d="M916.011,678.992a.558.558,0,0,1,.531.592C916.206,679.529,916.164,679.211,916.011,678.992Z" transform="translate(-711.822 -72.193)"/><path class="a" d="M784.835,692.133a1.127,1.127,0,0,1,.6.5A.572.572,0,0,1,784.835,692.133Z" transform="translate(-604.966 -82.897)"/><path class="a" d="M1127.253,666.644a.547.547,0,0,1-.362-.571A.547.547,0,0,1,1127.253,666.644Z" transform="translate(-883.606 -61.669)"/><path class="a" d="M788.722,665.983a.649.649,0,0,1-.514.6A.868.868,0,0,1,788.722,665.983Z" transform="translate(-607.714 -61.596)"/><path class="a" d="M987.932,645.021a1.011,1.011,0,0,1,.377.747A.773.773,0,0,1,987.932,645.021Z" transform="translate(-770.409 -44.52)"/><path class="a" d="M101.576,624.521a1.166,1.166,0,0,1-.546-.568A.6.6,0,0,1,101.576,624.521Z" transform="translate(-47.936 -27.359)"/><path class="a" d="M1107.948,719.359a.489.489,0,0,1,.567-.358A.626.626,0,0,1,1107.948,719.359Z" transform="translate(-868.175 -104.783)"/><path class="a" d="M987.036,710.947c.259.01.484.075.57.359A.59.59,0,0,1,987.036,710.947Z" transform="translate(-769.68 -98.223)"/><path class="a" d="M1105.534,601.4a.63.63,0,0,1-.581-.336C1105.224,601.043,1105.446,601.105,1105.534,601.4Z" transform="translate(-865.735 -8.709)"/><g transform="translate(145.031 591.183)"><path class="a" d="M625.523,610.932c-.205-.354-.025-.825-.349-1.143a4.713,4.713,0,0,0-1.983-2.9c-.306-.242-.6-.433-.168-.865,2.78-2.8,2.047-8.3-1.78-10.286a.531.531,0,0,1-.578-.35h0c-.9-.083-1.693-.6-2.607-.6q-10.146-.013-20.291-.029c-.615,0-.807.259-.79.839a24.38,24.38,0,0,1-.011,2.87c-.087.978.308,1.183,1.214,1.178,6.084-.035,12.169-.017,18.253-.02a4.1,4.1,0,0,1,1.891.347,2.277,2.277,0,0,1-.41,4.116c-.324.471-.822.357-1.271.357q-9.035.009-18.069.005c-1.236,0-1.239,0-1.24,1.219,0,4.108.02,8.216-.017,12.324-.008.853.26,1.113,1.11,1.108,5.93-.031,11.861,0,17.791-.032,1.38-.009,2.758-.215,4.137-.33h0l.339-.027c.327-.469.864-.411,1.331-.53h0a4.49,4.49,0,0,0,2.166-1.474A6.5,6.5,0,0,0,625.523,610.932Zm-6.847,2.987h0a.942.942,0,0,1-.957.328q-7.31.023-14.621.052c-.57,0-.758-.227-.746-.772.024-1.141.021-2.283,0-3.424-.009-.532.176-.816.74-.807,5.025.078,10.054-.193,15.075.15a2.325,2.325,0,0,1,2.129,2.285A2.2,2.2,0,0,1,618.676,613.918Z" transform="translate(-596.947 -594.761)"/><path class="a" d="M598.132,660.2c-.747,0-1.028-.18-1.022-.971.031-4.294.011-8.589.018-12.883,0-.989.014-.992,1.067-.992q9.129,0,18.258,0a2.685,2.685,0,0,0,1.436-.264,14.215,14.215,0,0,1-3.221.189q-8.286,0-16.573-.005c-.688,0-1.177.038-1.17.963.036,4.382.026,8.765.005,13.147,0,.671.214.932.9.93,6.481-.023,12.962,0,19.442-.057a5.9,5.9,0,0,0,3.053-.515,14.779,14.779,0,0,1-3.939.424C610.3,660.205,604.218,660.171,598.132,660.2Z" transform="translate(-596.926 -635.759)"/><path class="a" d="M617,660.072c-5.93.037-11.861,0-17.791.032-.851,0-1.118-.255-1.11-1.108.037-4.108.016-8.216.017-12.324,0-1.215,0-1.218,1.24-1.219q9.035,0,18.069-.005c.449,0,.947.114,1.271-.357a2.685,2.685,0,0,1-1.436.264q-9.129-.007-18.258,0c-1.053,0-1.066,0-1.067.992-.006,4.294.014,8.589-.018,12.883-.006.792.276.975,1.022.971,6.086-.027,12.172.007,18.258-.032a14.779,14.779,0,0,0,3.939-.424h0C619.761,659.856,618.383,660.063,617,660.072Z" transform="translate(-597.735 -635.759)"/><path class="a" d="M726.328,721.119c-.4.284-.926.255-1.33.529A1.9,1.9,0,0,0,726.328,721.119Z" transform="translate(-701.254 -697.693)"/><path class="a" d="M725,721.645c.4-.274.93-.245,1.33-.529h0C725.862,721.233,725.325,721.176,725,721.645Z" transform="translate(-701.254 -697.689)"/><path class="a" d="M724.851,598.152h0c.177.142.41.193.578.35A.576.576,0,0,0,724.851,598.152Z" transform="translate(-701.134 -597.522)"/><path class="a" d="M725.43,598.51c-.169-.157-.4-.208-.578-.35A.531.531,0,0,0,725.43,598.51Z" transform="translate(-701.135 -597.53)"/><path class="a" d="M709.921,698.095c-.281.218-.683.088-.957.328A.942.942,0,0,0,709.921,698.095Z" transform="translate(-688.193 -678.937)"/></g></g></svg>