<svg xmlns="http://www.w3.org/2000/svg" width="248" height="28.005" viewBox="0 0 248 28.005"><defs><style>.a{fill:#fff;}.b{opacity:0.5;}</style></defs><g transform="translate(0.009 -4.1)"><g transform="translate(-0.009 4.144)"><g transform="translate(0 0)"><path class="a" d="M25.728,15.017V4.636a.437.437,0,0,0-.436-.436H.431a.431.431,0,0,0-.174.829L5.49,7.253h0l19.5,8.243A.531.531,0,0,0,25.728,15.017Z" transform="translate(0.009 -4.2)"/></g><g class="b" transform="translate(17.899 10.843)"><path class="a" d="M48.649,32.131a.328.328,0,0,1,.218.305v13.3a.431.431,0,0,1-.829.174l-6.978-16.4c-.131-.262.174-.523.436-.436Z" transform="translate(-41.028 -29.061)"/></g></g><g transform="translate(33.579 4.1)"><g transform="translate(0 0)"><path class="a" d="M85.679,32.057a.366.366,0,0,1-.393-.393V7.764a.231.231,0,0,0-.262-.262H77.393A.366.366,0,0,1,77,7.109V4.493a.366.366,0,0,1,.393-.393H96.845a.366.366,0,0,1,.393.393V7.109a.366.366,0,0,1-.393.393H89.169a.231.231,0,0,0-.262.262v23.9a.366.366,0,0,1-.393.393H85.679Z" transform="translate(-77 -4.1)"/><path class="a" d="M154.781,32.057c-.305,0-.393-.131-.523-.393l-5.583-11.427h-6.193a.231.231,0,0,0-.262.262V31.708a.366.366,0,0,1-.393.393h-2.835a.366.366,0,0,1-.393-.393V4.493a.366.366,0,0,1,.393-.393h10.119c5.234,0,8.767,3.228,8.767,8.069a7.654,7.654,0,0,1-5.5,7.633l5.975,11.82c.174.262.044.48-.262.48h-3.315Zm-.567-19.889c0-2.922-1.919-4.667-5.19-4.667h-6.542a.231.231,0,0,0-.262.262v8.81a.231.231,0,0,0,.262.262h6.542C152.3,16.792,154.214,15.091,154.214,12.169Z" transform="translate(-111.733 -4.1)"/><path class="a" d="M199.5,4.493a.366.366,0,0,1,.393-.393h16.835a.366.366,0,0,1,.393.393V7.109a.366.366,0,0,1-.393.393H203.382a.231.231,0,0,0-.262.262v8.243a.231.231,0,0,0,.262.262h11.3a.366.366,0,0,1,.393.393v2.573a.366.366,0,0,1-.393.393h-11.3a.231.231,0,0,0-.262.262v8.5a.231.231,0,0,0,.262.262h13.346a.366.366,0,0,1,.393.393v2.573a.366.366,0,0,1-.393.393H199.893a.366.366,0,0,1-.393-.393Z" transform="translate(-146.071 -4.1)"/><path class="a" d="M255.9,4.493a.366.366,0,0,1,.393-.393h2.617a.674.674,0,0,1,.7.393L272.3,25.471h.174V4.493a.366.366,0,0,1,.393-.393h2.573a.366.366,0,0,1,.393.393V31.665a.366.366,0,0,1-.393.393h-2.617a.708.708,0,0,1-.7-.393L259.433,10.773H259.3V31.665a.366.366,0,0,1-.393.393h-2.573a.366.366,0,0,1-.393-.393V4.493Z" transform="translate(-177.872 -4.1)"/><path class="a" d="M319.2,4.493a.366.366,0,0,1,.393-.393h9.421c4.754,0,7.851,2.006,9.116,5.975.48,1.527.741,3.053.741,8.025s-.262,6.5-.741,8.025c-1.265,3.969-4.405,5.975-9.116,5.975h-9.421a.366.366,0,0,1-.393-.393Zm3.925,24.163h5.147c3.358,0,5.452-1.09,6.368-3.838.349-1.047.567-2.4.567-6.76s-.218-5.714-.567-6.76c-.916-2.7-3.009-3.838-6.368-3.838h-5.147a.231.231,0,0,0-.262.262V28.394A.231.231,0,0,0,323.125,28.655Z" transform="translate(-213.564 -4.1)"/><path class="a" d="M381,4.493a.366.366,0,0,1,.393-.393h2.835a.366.366,0,0,1,.393.393V19.06L396.527,4.449a.646.646,0,0,1,.654-.349h3.358c.262,0,.349.262.174.48l-8.723,10.511,9.6,16.53c.174.262.044.436-.262.436h-3.271c-.305,0-.393-.087-.567-.349l-7.851-13.782-4.972,6.019v7.72a.366.366,0,0,1-.393.393h-2.835a.366.366,0,0,1-.393-.393V4.493Z" transform="translate(-248.41 -4.1)"/><path class="a" d="M442.5,4.493a.366.366,0,0,1,.393-.393h2.835a.366.366,0,0,1,.393.393V31.665a.366.366,0,0,1-.393.393h-2.835a.366.366,0,0,1-.393-.393Z" transform="translate(-283.086 -4.1)"/><path class="a" d="M475.323,32.057a.366.366,0,0,1-.393-.393V7.764a.231.231,0,0,0-.262-.262h-7.676a.366.366,0,0,1-.393-.393V4.493a.366.366,0,0,1,.393-.393h19.452a.366.366,0,0,1,.393.393V7.109a.366.366,0,0,1-.393.393h-7.633a.231.231,0,0,0-.262.262v23.9a.366.366,0,0,1-.393.393h-2.835Z" transform="translate(-296.675 -4.1)"/><path class="a" d="M528.2,4.493a.366.366,0,0,1,.393-.393h16.835a.366.366,0,0,1,.393.393V7.109a.366.366,0,0,1-.393.393H532.082a.231.231,0,0,0-.262.262v8.243a.231.231,0,0,0,.262.262h11.3a.366.366,0,0,1,.393.393v2.573a.366.366,0,0,1-.393.393h-11.3a.231.231,0,0,0-.262.262v8.5a.231.231,0,0,0,.262.262h13.346a.366.366,0,0,1,.393.393v2.573a.366.366,0,0,1-.393.393H528.593a.366.366,0,0,1-.393-.393Z" transform="translate(-331.408 -4.1)"/></g></g></g></svg>