<svg xmlns="http://www.w3.org/2000/svg" width="191.053" height="55.293" viewBox="0 0 191.053 55.293"><defs><style>.a{fill:#fff;fill-rule:evenodd;}</style></defs><g transform="translate(-16.953 4.17)"><path class="a" d="M211.063,46.955h5.589l9.67-24.508h-5.532l-4,12.206-4.211-12.206h-6.174l7.353,17.7Zm-27.742-18.69V40.828h-5.64V22.447h3.963l1.177,1.605a7.748,7.748,0,0,1,5.068-2.034c2.534,0,4.461.75,5.64,2.606a8.449,8.449,0,0,1,5.854-2.606c4.353,0,6.888,2.25,6.888,8.352V40.828h-5.646V31.013c0-2.819-1.143-3.641-2.963-3.641a5.176,5.176,0,0,0-2.962.928,18.431,18.431,0,0,1,.108,2.07V40.826h-5.64V31.011c0-2.819-1.143-3.641-3-3.641a4.825,4.825,0,0,0-2.856.893Zm-19.667,1.57H170.9c-.392-2.391-1.677-3.534-3.6-3.534-1.643,0-3.212.965-3.641,3.534Zm4.034,11.35c-5.425,0-9.78-2.677-9.78-9.743,0-6.6,4.213-9.458,9.066-9.458,5.853,0,8.458,4.1,8.458,10.564H163.618c.393,3.176,2.356,4.105,4.962,4.105a10.518,10.518,0,0,0,6.016-1.648l-.765,4.473c-1.457,1.133-3.2,1.7-6.143,1.7Zm-21-4.747a4.937,4.937,0,0,0,3.247-.963V27.481a5.523,5.523,0,0,0-3.069-.785c-2.748,0-4.319,1.855-4.319,4.96,0,3.034,1.606,4.784,4.14,4.784Zm4.353,3.034a8.628,8.628,0,0,1-5.532,1.784c-5.033,0-8.672-3.1-8.672-9.494,0-6.352,4.175-9.779,9.529-9.779a9.783,9.783,0,0,1,3.56.607v-7.8h5.64V40.83H152Zm-38.1-9.53V16.319H118.8V29.835c0,4.854,2.185,5.853,5.175,5.853,3.248,0,4.926-1.427,4.926-5.853V16.319h5.889V29.941c0,8.031-3.5,11.385-11.1,11.385-7.067,0-10.744-2.89-10.744-11.385Z" transform="translate(-18.316 -3.618)"/><path class="a" d="M83.452,27.345a1.81,1.81,0,0,0-.8-.374A37.9,37.9,0,0,1,76.984,31.7a5.247,5.247,0,0,1-2.653.855c-1.645,0-2.36-1.57-2.575-4.062-.286-3.35-.479-7.361-.479-13.562,0-6.36-1.444-10.683-5.288-11.021q-.248-.023-.5-.024c-2.36,0-3.5,1.211-5.006,4.276C59.2,10.8,57.2,14.644,53.478,21.913a97.265,97.265,0,0,1-9.87,15.68,10.653,10.653,0,0,1-2.169,2.217,2.257,2.257,0,0,1-1.262.421c-1.214,0-2.1-1.024-2.4-3.41a15.8,15.8,0,0,1-.108-1.936c0-4.917,1.861-12.9,5.078-24.658,2.359-8.554,1.357-14.4-3.793-14.4H38.9A4.893,4.893,0,0,0,35.835-3a11.26,11.26,0,0,0-2.691,4.378c-.965,2.361-6.838,14.14-16.184,20.208-.11,2.306,1.2,4.612,3.842,4.855,2.409.228,4.119-.787,6.322-2.266l-.874,3.953-.307,1.4a39.359,39.359,0,0,0-.666,4C23.957,45.31,29.418,51.123,35.812,51.123a12.847,12.847,0,0,0,3.178-.394c7.045-1.786,13.827-9.866,21.854-28.467a51.8,51.8,0,0,0-.047,5.667C61.335,38.6,65.542,41.8,71.5,41.8a13.951,13.951,0,0,0,10.871-5.273,10.415,10.415,0,0,0,2.217-6.129,3.873,3.873,0,0,0-1.136-3.047"/></g></svg>