<svg xmlns="http://www.w3.org/2000/svg" xmlns:xlink="http://www.w3.org/1999/xlink" width="414" height="237" viewBox="0 0 414 237"><defs><style>.a{fill:#fff;stroke:#707070;}.b{fill:none;}.c{clip-path:url(#a);}.d{fill:#453890;}.e{clip-path:url(#b);}.f{fill:#5e5ee6;}</style><clipPath id="a"><rect class="a" width="414" height="237" transform="translate(0 2226)"/></clipPath><clipPath id="b"><rect class="b" width="223" height="500"/></clipPath></defs><g class="c" transform="translate(0 -2226)"><g transform="translate(-95.447 1111.065)"><path class="d" d="M0,87.294,886.14,0V530.745L0,618.039Z" transform="translate(0 1080)"/><g class="e" transform="translate(662.447 1139.935)"><g transform="translate(-945 -1296)"><path class="f" d="M30,15A15,15,0,1,1,14.994,0,15,15,0,0,1,30,15" transform="translate(945 1296)"/></g><g transform="translate(-844 -1296)"><path class="f" d="M30,15A15,15,0,1,1,14.994,0,15,15,0,0,1,30,15" transform="translate(945 1296)"/></g><g transform="translate(-743 -1296)"><path class="f" d="M30,15A15,15,0,1,1,14.994,0,15,15,0,0,1,30,15" transform="translate(945 1296)"/></g><g transform="translate(-945 -1202)"><path class="f" d="M30,15A15,15,0,1,1,14.994,0,15,15,0,0,1,30,15" transform="translate(945 1296)"/></g><g transform="translate(-844 -1202)"><path class="f" d="M30,15A15,15,0,1,1,14.994,0,15,15,0,0,1,30,15" transform="translate(945 1296)"/></g><g transform="translate(-743 -1202)"><path class="f" d="M30,15A15,15,0,1,1,14.994,0,15,15,0,0,1,30,15" transform="translate(945 1296)"/></g><g transform="translate(-945 -1108)"><path class="f" d="M30,15A15,15,0,1,1,14.994,0,15,15,0,0,1,30,15" transform="translate(945 1296)"/></g><g transform="translate(-844 -1108)"><path class="f" d="M30,15A15,15,0,1,1,14.994,0,15,15,0,0,1,30,15" transform="translate(945 1296)"/></g><g transform="translate(-743 -1108)"><path class="f" d="M30,15A15,15,0,1,1,14.994,0,15,15,0,0,1,30,15" transform="translate(945 1296)"/></g><g transform="translate(-945 -1014)"><path class="f" d="M30,15A15,15,0,1,1,14.994,0,15,15,0,0,1,30,15" transform="translate(945 1296)"/></g><g transform="translate(-844 -1014)"><path class="f" d="M30,15A15,15,0,1,1,14.994,0,15,15,0,0,1,30,15" transform="translate(945 1296)"/></g><g transform="translate(-743 -1014)"><path class="f" d="M30,15A15,15,0,1,1,14.994,0,15,15,0,0,1,30,15" transform="translate(945 1296)"/></g><g transform="translate(-945 -920)"><path class="f" d="M30,15A15,15,0,1,1,14.994,0,15,15,0,0,1,30,15" transform="translate(945 1296)"/></g><g transform="translate(-844 -920)"><path class="f" d="M30,15A15,15,0,1,1,14.994,0,15,15,0,0,1,30,15" transform="translate(945 1296)"/></g><g transform="translate(-743 -920)"><path class="f" d="M30,15A15,15,0,1,1,14.994,0,15,15,0,0,1,30,15" transform="translate(945 1296)"/></g><g transform="translate(-945 -826)"><path class="f" d="M30,15A15,15,0,1,1,14.994,0,15,15,0,0,1,30,15" transform="translate(945 1296)"/></g><g transform="translate(-844 -826)"><path class="f" d="M30,15A15,15,0,1,1,14.994,0,15,15,0,0,1,30,15" transform="translate(945 1296)"/></g><g transform="translate(-743 -826)"><path class="f" d="M30,15A15,15,0,1,1,14.994,0,15,15,0,0,1,30,15" transform="translate(945 1296)"/></g></g></g></g></svg>