<svg width="83" height="83" viewBox="0 0 83 83" fill="none" xmlns="http://www.w3.org/2000/svg">
<path d="M76.3796 38.5256L76.4191 38.9826H76.8778H82.5V44.0174H76.8778H76.4193L76.3796 44.4742C74.9137 61.3753 61.461 74.9138 44.4744 76.3796L44.0174 76.4191V76.8778V82.5H38.9826V76.8778V76.4193L38.5258 76.3796C21.6247 74.9137 8.08623 61.461 6.62038 44.4744L6.58095 44.0174H6.12223H0.5V38.9826H6.12223H6.58074L6.62036 38.5258C8.08628 21.6247 21.539 8.08623 38.5256 6.62038L38.9826 6.58095V6.12223V0.5H44.0174V6.12223V6.58074L44.4742 6.62036C61.3753 8.08628 74.9138 21.539 76.3796 38.5256ZM38.8952 70.9305V65.5706H43.8425V70.9305V71.4808L44.3903 71.4282C49.0177 70.9832 53.2891 69.4702 57.025 67.1575L57.2619 67.0109V66.7324V65.5954C57.2619 56.8356 50.1286 49.7023 41.3688 49.7023C32.609 49.7023 25.4758 56.8356 25.4758 65.5954V66.7324V67.02L25.7245 67.1646C29.5322 69.3784 33.7118 70.9824 38.3473 71.4282L38.8952 71.4808V70.9305ZM62.1282 62.1771L62.2886 63.1642L62.982 62.4436C67.5146 57.7333 70.6266 51.511 71.4271 44.6629L71.4923 44.1048H70.9305H65.5706V39.0701H70.9305H71.4836L71.4279 38.5197C70.0046 24.4646 58.7103 13.1703 44.6552 11.747L44.1048 11.6913V12.2445V17.6043H39.0701V12.2445V11.6913L38.5197 11.747C24.4646 13.1703 13.1703 24.4646 11.747 38.5197L11.6913 39.0701H12.2445H17.6043V44.1048H12.2445H11.6898L11.7471 44.6565C12.4587 51.5056 15.4832 57.7325 20.1088 62.4471L20.8008 63.1524L20.9593 62.1771C22.0699 55.3425 26.4262 49.6208 32.4889 46.7176L33.1259 46.4125L32.6265 45.913C30.3547 43.6413 28.9247 40.4433 28.9247 36.9958C28.9247 30.0127 34.5606 24.3767 41.5437 24.3767C48.5268 24.3767 54.1628 30.0127 54.1628 36.9958C54.1628 40.4433 52.7328 43.6413 50.461 45.913L49.9645 46.4096L50.5961 46.7164C56.5762 49.621 61.018 55.3455 62.1282 62.1771ZM41.4563 29.4115C37.2444 29.4115 33.872 32.7839 33.872 36.9958C33.872 41.2076 37.2444 44.5801 41.4563 44.5801C45.6681 44.5801 49.0406 41.2076 49.0406 36.9958C49.0406 32.7839 45.6681 29.4115 41.4563 29.4115Z" fill="#19009C" stroke="#E8EDFD"/>
</svg>
