<svg width="83" height="83" viewBox="0 0 83 83" fill="none" xmlns="http://www.w3.org/2000/svg">
<path fill-rule="evenodd" clip-rule="evenodd" d="M11.121 23.6203V3.32C11.121 1.48638 12.6155 0 14.4593 0H68.5407C70.3844 0 71.879 1.48638 71.879 3.32V23.6203L81.2806 32.4471C82.1441 33.3677 83 34.102 83 35.3512V76.5014C83 80.0908 80.0748 83 76.4657 83H6.5343C2.92523 83 0 80.0908 0 76.5014V35.3512C0 34.102 0.815829 33.41 1.71937 32.4471L11.121 23.6203ZM3.33826 36.996V76.5014C3.33826 78.2571 4.76894 79.68 6.5343 79.68H76.4657C78.231 79.68 79.6617 78.2571 79.6617 76.5014V37.1137L42.3431 58.8301C41.821 59.1333 41.1747 59.1324 40.6535 58.8275L3.33826 36.996ZM68.5407 39.7384V3.32H14.4593V39.6503L41.5025 55.472L68.5407 39.7384ZM41.9266 16.7965L50.9936 9.88039C52.0019 9.11052 53.3627 8.97755 54.5022 9.53653C55.6425 10.0964 56.3638 11.2507 56.3638 12.5144V37.7015C56.3638 38.9651 55.6425 40.1195 54.5022 40.6785C53.3627 41.2383 52.0019 41.1053 50.9936 40.3355L41.9266 33.4194C41.7819 33.438 41.6337 33.4482 41.483 33.4482H40.7957L41.1687 34.1901C41.9735 35.7899 41.8875 37.6905 40.9422 39.2116C39.9961 40.7335 38.3261 41.6592 36.5275 41.6592H36.5258C34.568 41.6592 32.7779 40.5591 31.9025 38.8177C30.7997 36.625 28.2807 31.6128 28.2807 31.6128C28.147 31.3477 28.0516 31.0691 27.9937 30.7854C27.1174 29.6302 26.6362 28.2166 26.6362 26.7539V23.4619C26.6362 21.6867 27.3456 19.9844 28.6077 18.7284C29.8697 17.4732 31.5823 16.7677 33.3672 16.7677H41.483C41.6337 16.7677 41.7819 16.7779 41.9266 16.7965ZM32.9278 33.4338L34.8882 37.3331C35.1982 37.9496 35.8326 38.3392 36.5258 38.3392H36.5275C37.1688 38.3392 37.7649 38.0089 38.1021 37.466C38.4394 36.924 38.47 36.2456 38.183 35.6748L37.0632 33.4482H33.3672C33.2208 33.4482 33.0734 33.4431 32.9278 33.4338ZM71.879 28.1861V37.7955L78.1978 34.1189L71.879 28.1861ZM44.6134 18.9316C44.748 19.2916 44.8212 19.6812 44.8212 20.0877V30.1282C44.8212 30.5347 44.748 30.9243 44.6134 31.2842L53.0255 37.7015V12.5144L44.6134 18.9316ZM4.87965 34.0461L11.121 37.6972V28.1861L4.87965 34.0461ZM41.483 20.0877H33.3672C32.468 20.0877 31.6044 20.4434 30.9683 21.0761C30.3322 21.7087 29.9745 22.5675 29.9745 23.4619V26.7539C29.9745 27.6483 30.3322 28.5071 30.9683 29.1398C31.6044 29.7724 32.468 30.1282 33.3672 30.1282H41.483V20.0877Z" fill="#19009C"/>
</svg>
