<svg width="85" height="85" viewBox="0 0 85 85" fill="none" xmlns="http://www.w3.org/2000/svg">
<mask id="path-1-outside-1" maskUnits="userSpaceOnUse" x="0" y="0" width="85" height="85" fill="black">
<rect fill="white" width="85" height="85"/>
<path d="M74.3485 1H10.6496C5.32823 1 1 5.32823 1 10.6496V74.3485C1 79.6699 5.32823 84 10.6496 84H74.3485C79.6699 84 84 79.6699 84 74.3485V10.6496C84 5.32823 79.6699 1 74.3485 1ZM81.1785 10.6496V41.1109H66.9918C66.9843 41.1109 66.9787 41.1146 66.973 41.1146C66.7981 41.1165 66.6325 41.1504 66.4708 41.2162C66.4538 41.2237 66.435 41.2294 66.42 41.2369C66.2846 41.299 66.1623 41.3817 66.0494 41.4871C66.0174 41.5172 65.9892 41.5454 65.9591 41.5755C65.9178 41.6225 65.8595 41.6545 65.8237 41.709C65.7842 41.7655 65.7786 41.8275 65.7485 41.8877C65.7184 41.9479 65.6939 42.0081 65.6713 42.0721C65.6375 42.1793 65.6168 42.2827 65.6074 42.3918C65.6036 42.4351 65.5811 42.4746 65.5811 42.5198C65.5811 42.5649 65.6036 42.6025 65.6074 42.6458C65.6168 42.7285 65.6337 42.8057 65.6544 42.8865C65.6864 43.0013 65.7259 43.1047 65.7823 43.2044C65.8068 43.2439 65.8331 43.2816 65.8613 43.3211C65.9497 43.4452 66.0532 43.5506 66.1755 43.6408C66.1867 43.6484 66.1905 43.6596 66.2018 43.6672C68.0207 44.8974 69.1061 46.9383 69.1061 49.1297C69.1061 52.76 66.1529 55.7132 62.5225 55.7132C58.8921 55.7132 55.9389 52.76 55.9389 49.1297C55.9389 46.9458 57.0187 44.9086 58.8263 43.6803C58.8564 43.6596 58.8677 43.6314 58.8959 43.6089C58.9862 43.5393 59.0614 43.4603 59.131 43.37C59.1781 43.3079 59.2213 43.2496 59.2571 43.1819C59.3022 43.0991 59.3342 43.0107 59.3624 42.9185C59.3906 42.8282 59.4094 42.7398 59.417 42.6458C59.4226 42.6044 59.4433 42.5668 59.4433 42.5235C59.4433 42.4784 59.4207 42.4389 59.417 42.3956C59.4075 42.294 59.3869 42.2 59.3568 42.1003C59.3304 42.0175 59.3003 41.9423 59.2589 41.8652C59.2326 41.8181 59.227 41.7673 59.1987 41.7222C59.1687 41.6789 59.1254 41.6564 59.0915 41.6169C59.0426 41.5567 58.9881 41.5059 58.9279 41.457C58.8414 41.3817 58.7511 41.3197 58.6514 41.2689C58.5987 41.2425 58.5423 41.2218 58.484 41.203C58.3636 41.1617 58.2432 41.1353 58.1153 41.1278C58.0852 41.1259 58.0626 41.1109 58.0325 41.1109H43.9098V30.2818C45.4316 31.2919 47.2298 31.86 49.109 31.86C54.2949 31.86 58.5141 27.6409 58.5141 22.4549C58.5141 17.2689 54.2949 13.0498 49.109 13.0498C47.2279 13.0498 45.4316 13.6179 43.9098 14.628V3.82153H74.3485C78.1143 3.82153 81.1785 6.88383 81.1785 10.6496ZM10.6496 3.82153H41.0883V17.9856C41.0883 17.9931 41.0921 18.0007 41.0921 18.0082C41.0939 18.1794 41.1278 18.3411 41.1918 18.501C41.1993 18.5217 41.2068 18.5405 41.2162 18.5593C41.2783 18.6948 41.361 18.8133 41.4645 18.9261C41.4946 18.9581 41.5228 18.9882 41.5529 19.0164C41.6018 19.0597 41.6319 19.1161 41.6883 19.1537C41.7448 19.1913 41.8068 19.1989 41.8652 19.2271C41.9272 19.2591 41.9874 19.2835 42.0533 19.3061C42.1586 19.3399 42.2602 19.3606 42.3674 19.37C42.4125 19.3738 42.452 19.3964 42.4991 19.3964C42.5442 19.3964 42.5837 19.3738 42.6288 19.37C42.7097 19.3625 42.785 19.3456 42.864 19.323C42.9787 19.291 43.0822 19.2515 43.1838 19.1951C43.2251 19.1707 43.2628 19.1424 43.3023 19.1142C43.4226 19.0277 43.5261 18.9261 43.6145 18.8076C43.6239 18.7944 43.6371 18.7888 43.6465 18.7756C44.8748 16.9567 46.9157 15.8713 49.1071 15.8713C52.7375 15.8713 55.6907 18.8245 55.6907 22.4549C55.6907 26.0853 52.7375 29.0385 49.1071 29.0385C46.9232 29.0385 44.8861 27.9588 43.6578 26.1511C43.6371 26.1229 43.6089 26.1079 43.5863 26.0815C43.5167 25.9931 43.4377 25.9179 43.3474 25.8464C43.2853 25.7994 43.227 25.7542 43.1574 25.7185C43.0728 25.6733 42.9862 25.6395 42.8922 25.6131C42.8019 25.5849 42.7154 25.568 42.6213 25.5586C42.5781 25.5548 42.5404 25.5341 42.4972 25.5341C42.452 25.5341 42.4125 25.5567 42.3674 25.5605C42.2677 25.568 42.1718 25.5887 42.074 25.6188C41.9931 25.6451 41.9178 25.6752 41.8426 25.7166C41.7956 25.7411 41.7429 25.7467 41.6977 25.7768C41.6545 25.8069 41.63 25.852 41.5924 25.8859C41.5322 25.9367 41.4814 25.9893 41.4325 26.0495C41.3592 26.1361 41.299 26.2226 41.2501 26.3223C41.22 26.3806 41.1993 26.4389 41.1786 26.501C41.1391 26.6176 41.1146 26.7324 41.1071 26.8546C41.1052 26.8866 41.0883 26.9129 41.0883 26.9449V41.0883H30.2818C31.2919 39.5666 31.86 37.7683 31.86 35.8892C31.86 30.7032 27.6409 26.4841 22.4549 26.4841C17.2689 26.4841 13.0498 30.7032 13.0498 35.8892C13.0498 37.7702 13.6179 39.5666 14.628 41.0883H3.82153V10.6496C3.82153 6.88383 6.88383 3.82153 10.6496 3.82153ZM3.82153 74.3485V43.9098H17.8351C17.8859 43.9155 17.9348 43.9324 17.9856 43.9324C18.1681 43.9324 18.3411 43.8741 18.5104 43.8045C18.5198 43.8007 18.5292 43.8026 18.5386 43.7988C18.6496 43.7518 18.738 43.6747 18.8339 43.5995C18.9092 43.543 18.9788 43.4847 19.0409 43.4151C19.0747 43.3756 19.1255 43.3568 19.1556 43.3117C19.1932 43.2552 19.2007 43.1932 19.2308 43.133C19.2628 43.0728 19.2854 43.0126 19.308 42.9486C19.3437 42.8414 19.3644 42.7379 19.3738 42.6288C19.3776 42.5837 19.4001 42.5461 19.4001 42.4991C19.4001 42.4539 19.3776 42.4163 19.3738 42.3712C19.3644 42.2903 19.3493 42.2131 19.3268 42.1341C19.2948 42.0194 19.2553 41.9141 19.197 41.8125C19.1725 41.773 19.1481 41.7354 19.1199 41.6977C19.0315 41.5736 18.928 41.4683 18.8057 41.378C18.7963 41.3704 18.7907 41.3592 18.7794 41.3516C16.9605 40.1214 15.8751 38.0787 15.8751 35.8892C15.8751 32.2588 18.8283 29.3056 22.4587 29.3056C26.089 29.3056 29.0422 32.2588 29.0422 35.8892C29.0422 38.073 27.9625 40.1102 26.1549 41.3385C26.1267 41.3573 26.1135 41.3874 26.0872 41.4081C25.9969 41.4795 25.9198 41.5604 25.8483 41.6526C25.8031 41.7128 25.7617 41.7711 25.726 41.8351C25.679 41.9216 25.647 42.01 25.6169 42.1078C25.5906 42.1962 25.5736 42.2809 25.5642 42.373C25.5605 42.4163 25.5379 42.4539 25.5379 42.4991C25.5379 42.5461 25.5605 42.5856 25.5642 42.6307C25.5718 42.7304 25.5925 42.8245 25.6225 42.9204C25.6489 43.0032 25.6809 43.0803 25.7222 43.1574C25.7467 43.2026 25.7523 43.2552 25.7824 43.2985C25.8107 43.3399 25.8558 43.3643 25.8878 43.4019C25.9404 43.464 25.995 43.5167 26.0552 43.5675C26.1398 43.6371 26.2264 43.6973 26.3242 43.7481C26.3825 43.7782 26.4427 43.7988 26.5047 43.8195C26.6233 43.859 26.738 43.8835 26.8603 43.891C26.8904 43.8929 26.9167 43.9098 26.9487 43.9098H41.0714V54.7163C39.5496 53.7062 37.7514 53.1381 35.8722 53.1381C30.6863 53.1381 26.4671 57.3572 26.4671 62.5432C26.4671 67.7292 30.6863 71.9483 35.8722 71.9483C37.7532 71.9483 39.5496 71.3784 41.0714 70.3683V81.1766H10.6496C6.88383 81.1785 3.82153 78.1143 3.82153 74.3485ZM74.3485 81.1785H43.8873V67.0144C43.8873 67.0088 43.8835 67.0031 43.8835 66.9956C43.8816 66.8206 43.8459 66.6551 43.7819 66.4933C43.7744 66.4745 43.7687 66.4595 43.7612 66.4444C43.6992 66.3071 43.6164 66.1849 43.5092 66.072C43.4791 66.04 43.4527 66.0118 43.4226 65.9817C43.3737 65.9403 43.3436 65.882 43.2872 65.8463C43.2308 65.8068 43.1668 65.8011 43.1085 65.771C43.0483 65.7409 42.99 65.7165 42.926 65.6939C42.817 65.6582 42.7135 65.6375 42.6025 65.63C42.5593 65.6262 42.5216 65.6036 42.4765 65.6036C42.4332 65.6036 42.3956 65.6243 42.3542 65.63C42.2677 65.6375 42.1887 65.6563 42.1059 65.6789C41.9949 65.7108 41.8953 65.7485 41.7974 65.803C41.7542 65.8293 41.7147 65.8557 41.6733 65.8877C41.551 65.9742 41.4476 66.0776 41.3592 66.198C41.3516 66.2074 41.3404 66.2131 41.3328 66.2244C40.1026 68.0433 38.0599 69.1287 35.8703 69.1287C32.24 69.1287 29.2868 66.1755 29.2868 62.5451C29.2868 58.9147 32.24 55.9615 35.8703 55.9615C38.0542 55.9615 40.0914 57.0412 41.3197 58.8489C41.3385 58.8771 41.3686 58.8903 41.3911 58.9185C41.4626 59.0088 41.5435 59.0859 41.6338 59.1555C41.694 59.2006 41.7523 59.2439 41.8162 59.2778C41.9028 59.3248 41.9912 59.3568 42.0871 59.3869C42.1755 59.4151 42.2639 59.432 42.3561 59.4395C42.3994 59.4452 42.4351 59.4659 42.4784 59.4659C42.5235 59.4659 42.5611 59.4433 42.6044 59.4395C42.7079 59.4301 42.8038 59.4094 42.9054 59.3793C42.9862 59.353 43.0615 59.3229 43.1348 59.2815C43.1819 59.2552 43.2327 59.2514 43.2778 59.2213C43.3211 59.1912 43.3436 59.148 43.3813 59.1141C43.4415 59.0633 43.4941 59.0088 43.5449 58.9486C43.6164 58.862 43.6785 58.7755 43.7274 58.6758C43.7575 58.6194 43.7782 58.5611 43.7988 58.499C43.8383 58.3805 43.8628 58.2658 43.8703 58.1416C43.8722 58.1096 43.8891 58.0852 43.8891 58.0532V43.9305H54.6956C53.6855 45.4523 53.1174 47.2505 53.1174 49.1297C53.1174 54.3156 57.3365 58.5348 62.5225 58.5348C67.7085 58.5348 71.9276 54.3156 71.9276 49.1297C71.9276 47.2505 71.3577 45.4523 70.3476 43.9305H81.1785V74.3466C81.1785 78.1143 78.1143 81.1785 74.3485 81.1785Z"/>
</mask>
<path d="M74.3485 1H10.6496C5.32823 1 1 5.32823 1 10.6496V74.3485C1 79.6699 5.32823 84 10.6496 84H74.3485C79.6699 84 84 79.6699 84 74.3485V10.6496C84 5.32823 79.6699 1 74.3485 1ZM81.1785 10.6496V41.1109H66.9918C66.9843 41.1109 66.9787 41.1146 66.973 41.1146C66.7981 41.1165 66.6325 41.1504 66.4708 41.2162C66.4538 41.2237 66.435 41.2294 66.42 41.2369C66.2846 41.299 66.1623 41.3817 66.0494 41.4871C66.0174 41.5172 65.9892 41.5454 65.9591 41.5755C65.9178 41.6225 65.8595 41.6545 65.8237 41.709C65.7842 41.7655 65.7786 41.8275 65.7485 41.8877C65.7184 41.9479 65.6939 42.0081 65.6713 42.0721C65.6375 42.1793 65.6168 42.2827 65.6074 42.3918C65.6036 42.4351 65.5811 42.4746 65.5811 42.5198C65.5811 42.5649 65.6036 42.6025 65.6074 42.6458C65.6168 42.7285 65.6337 42.8057 65.6544 42.8865C65.6864 43.0013 65.7259 43.1047 65.7823 43.2044C65.8068 43.2439 65.8331 43.2816 65.8613 43.3211C65.9497 43.4452 66.0532 43.5506 66.1755 43.6408C66.1867 43.6484 66.1905 43.6596 66.2018 43.6672C68.0207 44.8974 69.1061 46.9383 69.1061 49.1297C69.1061 52.76 66.1529 55.7132 62.5225 55.7132C58.8921 55.7132 55.9389 52.76 55.9389 49.1297C55.9389 46.9458 57.0187 44.9086 58.8263 43.6803C58.8564 43.6596 58.8677 43.6314 58.8959 43.6089C58.9862 43.5393 59.0614 43.4603 59.131 43.37C59.1781 43.3079 59.2213 43.2496 59.2571 43.1819C59.3022 43.0991 59.3342 43.0107 59.3624 42.9185C59.3906 42.8282 59.4094 42.7398 59.417 42.6458C59.4226 42.6044 59.4433 42.5668 59.4433 42.5235C59.4433 42.4784 59.4207 42.4389 59.417 42.3956C59.4075 42.294 59.3869 42.2 59.3568 42.1003C59.3304 42.0175 59.3003 41.9423 59.2589 41.8652C59.2326 41.8181 59.227 41.7673 59.1987 41.7222C59.1687 41.6789 59.1254 41.6564 59.0915 41.6169C59.0426 41.5567 58.9881 41.5059 58.9279 41.457C58.8414 41.3817 58.7511 41.3197 58.6514 41.2689C58.5987 41.2425 58.5423 41.2218 58.484 41.203C58.3636 41.1617 58.2432 41.1353 58.1153 41.1278C58.0852 41.1259 58.0626 41.1109 58.0325 41.1109H43.9098V30.2818C45.4316 31.2919 47.2298 31.86 49.109 31.86C54.2949 31.86 58.5141 27.6409 58.5141 22.4549C58.5141 17.2689 54.2949 13.0498 49.109 13.0498C47.2279 13.0498 45.4316 13.6179 43.9098 14.628V3.82153H74.3485C78.1143 3.82153 81.1785 6.88383 81.1785 10.6496ZM10.6496 3.82153H41.0883V17.9856C41.0883 17.9931 41.0921 18.0007 41.0921 18.0082C41.0939 18.1794 41.1278 18.3411 41.1918 18.501C41.1993 18.5217 41.2068 18.5405 41.2162 18.5593C41.2783 18.6948 41.361 18.8133 41.4645 18.9261C41.4946 18.9581 41.5228 18.9882 41.5529 19.0164C41.6018 19.0597 41.6319 19.1161 41.6883 19.1537C41.7448 19.1913 41.8068 19.1989 41.8652 19.2271C41.9272 19.2591 41.9874 19.2835 42.0533 19.3061C42.1586 19.3399 42.2602 19.3606 42.3674 19.37C42.4125 19.3738 42.452 19.3964 42.4991 19.3964C42.5442 19.3964 42.5837 19.3738 42.6288 19.37C42.7097 19.3625 42.785 19.3456 42.864 19.323C42.9787 19.291 43.0822 19.2515 43.1838 19.1951C43.2251 19.1707 43.2628 19.1424 43.3023 19.1142C43.4226 19.0277 43.5261 18.9261 43.6145 18.8076C43.6239 18.7944 43.6371 18.7888 43.6465 18.7756C44.8748 16.9567 46.9157 15.8713 49.1071 15.8713C52.7375 15.8713 55.6907 18.8245 55.6907 22.4549C55.6907 26.0853 52.7375 29.0385 49.1071 29.0385C46.9232 29.0385 44.8861 27.9588 43.6578 26.1511C43.6371 26.1229 43.6089 26.1079 43.5863 26.0815C43.5167 25.9931 43.4377 25.9179 43.3474 25.8464C43.2853 25.7994 43.227 25.7542 43.1574 25.7185C43.0728 25.6733 42.9862 25.6395 42.8922 25.6131C42.8019 25.5849 42.7154 25.568 42.6213 25.5586C42.5781 25.5548 42.5404 25.5341 42.4972 25.5341C42.452 25.5341 42.4125 25.5567 42.3674 25.5605C42.2677 25.568 42.1718 25.5887 42.074 25.6188C41.9931 25.6451 41.9178 25.6752 41.8426 25.7166C41.7956 25.7411 41.7429 25.7467 41.6977 25.7768C41.6545 25.8069 41.63 25.852 41.5924 25.8859C41.5322 25.9367 41.4814 25.9893 41.4325 26.0495C41.3592 26.1361 41.299 26.2226 41.2501 26.3223C41.22 26.3806 41.1993 26.4389 41.1786 26.501C41.1391 26.6176 41.1146 26.7324 41.1071 26.8546C41.1052 26.8866 41.0883 26.9129 41.0883 26.9449V41.0883H30.2818C31.2919 39.5666 31.86 37.7683 31.86 35.8892C31.86 30.7032 27.6409 26.4841 22.4549 26.4841C17.2689 26.4841 13.0498 30.7032 13.0498 35.8892C13.0498 37.7702 13.6179 39.5666 14.628 41.0883H3.82153V10.6496C3.82153 6.88383 6.88383 3.82153 10.6496 3.82153ZM3.82153 74.3485V43.9098H17.8351C17.8859 43.9155 17.9348 43.9324 17.9856 43.9324C18.1681 43.9324 18.3411 43.8741 18.5104 43.8045C18.5198 43.8007 18.5292 43.8026 18.5386 43.7988C18.6496 43.7518 18.738 43.6747 18.8339 43.5995C18.9092 43.543 18.9788 43.4847 19.0409 43.4151C19.0747 43.3756 19.1255 43.3568 19.1556 43.3117C19.1932 43.2552 19.2007 43.1932 19.2308 43.133C19.2628 43.0728 19.2854 43.0126 19.308 42.9486C19.3437 42.8414 19.3644 42.7379 19.3738 42.6288C19.3776 42.5837 19.4001 42.5461 19.4001 42.4991C19.4001 42.4539 19.3776 42.4163 19.3738 42.3712C19.3644 42.2903 19.3493 42.2131 19.3268 42.1341C19.2948 42.0194 19.2553 41.9141 19.197 41.8125C19.1725 41.773 19.1481 41.7354 19.1199 41.6977C19.0315 41.5736 18.928 41.4683 18.8057 41.378C18.7963 41.3704 18.7907 41.3592 18.7794 41.3516C16.9605 40.1214 15.8751 38.0787 15.8751 35.8892C15.8751 32.2588 18.8283 29.3056 22.4587 29.3056C26.089 29.3056 29.0422 32.2588 29.0422 35.8892C29.0422 38.073 27.9625 40.1102 26.1549 41.3385C26.1267 41.3573 26.1135 41.3874 26.0872 41.4081C25.9969 41.4795 25.9198 41.5604 25.8483 41.6526C25.8031 41.7128 25.7617 41.7711 25.726 41.8351C25.679 41.9216 25.647 42.01 25.6169 42.1078C25.5906 42.1962 25.5736 42.2809 25.5642 42.373C25.5605 42.4163 25.5379 42.4539 25.5379 42.4991C25.5379 42.5461 25.5605 42.5856 25.5642 42.6307C25.5718 42.7304 25.5925 42.8245 25.6225 42.9204C25.6489 43.0032 25.6809 43.0803 25.7222 43.1574C25.7467 43.2026 25.7523 43.2552 25.7824 43.2985C25.8107 43.3399 25.8558 43.3643 25.8878 43.4019C25.9404 43.464 25.995 43.5167 26.0552 43.5675C26.1398 43.6371 26.2264 43.6973 26.3242 43.7481C26.3825 43.7782 26.4427 43.7988 26.5047 43.8195C26.6233 43.859 26.738 43.8835 26.8603 43.891C26.8904 43.8929 26.9167 43.9098 26.9487 43.9098H41.0714V54.7163C39.5496 53.7062 37.7514 53.1381 35.8722 53.1381C30.6863 53.1381 26.4671 57.3572 26.4671 62.5432C26.4671 67.7292 30.6863 71.9483 35.8722 71.9483C37.7532 71.9483 39.5496 71.3784 41.0714 70.3683V81.1766H10.6496C6.88383 81.1785 3.82153 78.1143 3.82153 74.3485ZM74.3485 81.1785H43.8873V67.0144C43.8873 67.0088 43.8835 67.0031 43.8835 66.9956C43.8816 66.8206 43.8459 66.6551 43.7819 66.4933C43.7744 66.4745 43.7687 66.4595 43.7612 66.4444C43.6992 66.3071 43.6164 66.1849 43.5092 66.072C43.4791 66.04 43.4527 66.0118 43.4226 65.9817C43.3737 65.9403 43.3436 65.882 43.2872 65.8463C43.2308 65.8068 43.1668 65.8011 43.1085 65.771C43.0483 65.7409 42.99 65.7165 42.926 65.6939C42.817 65.6582 42.7135 65.6375 42.6025 65.63C42.5593 65.6262 42.5216 65.6036 42.4765 65.6036C42.4332 65.6036 42.3956 65.6243 42.3542 65.63C42.2677 65.6375 42.1887 65.6563 42.1059 65.6789C41.9949 65.7108 41.8953 65.7485 41.7974 65.803C41.7542 65.8293 41.7147 65.8557 41.6733 65.8877C41.551 65.9742 41.4476 66.0776 41.3592 66.198C41.3516 66.2074 41.3404 66.2131 41.3328 66.2244C40.1026 68.0433 38.0599 69.1287 35.8703 69.1287C32.24 69.1287 29.2868 66.1755 29.2868 62.5451C29.2868 58.9147 32.24 55.9615 35.8703 55.9615C38.0542 55.9615 40.0914 57.0412 41.3197 58.8489C41.3385 58.8771 41.3686 58.8903 41.3911 58.9185C41.4626 59.0088 41.5435 59.0859 41.6338 59.1555C41.694 59.2006 41.7523 59.2439 41.8162 59.2778C41.9028 59.3248 41.9912 59.3568 42.0871 59.3869C42.1755 59.4151 42.2639 59.432 42.3561 59.4395C42.3994 59.4452 42.4351 59.4659 42.4784 59.4659C42.5235 59.4659 42.5611 59.4433 42.6044 59.4395C42.7079 59.4301 42.8038 59.4094 42.9054 59.3793C42.9862 59.353 43.0615 59.3229 43.1348 59.2815C43.1819 59.2552 43.2327 59.2514 43.2778 59.2213C43.3211 59.1912 43.3436 59.148 43.3813 59.1141C43.4415 59.0633 43.4941 59.0088 43.5449 58.9486C43.6164 58.862 43.6785 58.7755 43.7274 58.6758C43.7575 58.6194 43.7782 58.5611 43.7988 58.499C43.8383 58.3805 43.8628 58.2658 43.8703 58.1416C43.8722 58.1096 43.8891 58.0852 43.8891 58.0532V43.9305H54.6956C53.6855 45.4523 53.1174 47.2505 53.1174 49.1297C53.1174 54.3156 57.3365 58.5348 62.5225 58.5348C67.7085 58.5348 71.9276 54.3156 71.9276 49.1297C71.9276 47.2505 71.3577 45.4523 70.3476 43.9305H81.1785V74.3466C81.1785 78.1143 78.1143 81.1785 74.3485 81.1785Z" fill="#19009C"/>
<path d="M74.3485 1H10.6496C5.32823 1 1 5.32823 1 10.6496V74.3485C1 79.6699 5.32823 84 10.6496 84H74.3485C79.6699 84 84 79.6699 84 74.3485V10.6496C84 5.32823 79.6699 1 74.3485 1ZM81.1785 10.6496V41.1109H66.9918C66.9843 41.1109 66.9787 41.1146 66.973 41.1146C66.7981 41.1165 66.6325 41.1504 66.4708 41.2162C66.4538 41.2237 66.435 41.2294 66.42 41.2369C66.2846 41.299 66.1623 41.3817 66.0494 41.4871C66.0174 41.5172 65.9892 41.5454 65.9591 41.5755C65.9178 41.6225 65.8595 41.6545 65.8237 41.709C65.7842 41.7655 65.7786 41.8275 65.7485 41.8877C65.7184 41.9479 65.6939 42.0081 65.6713 42.0721C65.6375 42.1793 65.6168 42.2827 65.6074 42.3918C65.6036 42.4351 65.5811 42.4746 65.5811 42.5198C65.5811 42.5649 65.6036 42.6025 65.6074 42.6458C65.6168 42.7285 65.6337 42.8057 65.6544 42.8865C65.6864 43.0013 65.7259 43.1047 65.7823 43.2044C65.8068 43.2439 65.8331 43.2816 65.8613 43.3211C65.9497 43.4452 66.0532 43.5506 66.1755 43.6408C66.1867 43.6484 66.1905 43.6596 66.2018 43.6672C68.0207 44.8974 69.1061 46.9383 69.1061 49.1297C69.1061 52.76 66.1529 55.7132 62.5225 55.7132C58.8921 55.7132 55.9389 52.76 55.9389 49.1297C55.9389 46.9458 57.0187 44.9086 58.8263 43.6803C58.8564 43.6596 58.8677 43.6314 58.8959 43.6089C58.9862 43.5393 59.0614 43.4603 59.131 43.37C59.1781 43.3079 59.2213 43.2496 59.2571 43.1819C59.3022 43.0991 59.3342 43.0107 59.3624 42.9185C59.3906 42.8282 59.4094 42.7398 59.417 42.6458C59.4226 42.6044 59.4433 42.5668 59.4433 42.5235C59.4433 42.4784 59.4207 42.4389 59.417 42.3956C59.4075 42.294 59.3869 42.2 59.3568 42.1003C59.3304 42.0175 59.3003 41.9423 59.2589 41.8652C59.2326 41.8181 59.227 41.7673 59.1987 41.7222C59.1687 41.6789 59.1254 41.6564 59.0915 41.6169C59.0426 41.5567 58.9881 41.5059 58.9279 41.457C58.8414 41.3817 58.7511 41.3197 58.6514 41.2689C58.5987 41.2425 58.5423 41.2218 58.484 41.203C58.3636 41.1617 58.2432 41.1353 58.1153 41.1278C58.0852 41.1259 58.0626 41.1109 58.0325 41.1109H43.9098V30.2818C45.4316 31.2919 47.2298 31.86 49.109 31.86C54.2949 31.86 58.5141 27.6409 58.5141 22.4549C58.5141 17.2689 54.2949 13.0498 49.109 13.0498C47.2279 13.0498 45.4316 13.6179 43.9098 14.628V3.82153H74.3485C78.1143 3.82153 81.1785 6.88383 81.1785 10.6496ZM10.6496 3.82153H41.0883V17.9856C41.0883 17.9931 41.0921 18.0007 41.0921 18.0082C41.0939 18.1794 41.1278 18.3411 41.1918 18.501C41.1993 18.5217 41.2068 18.5405 41.2162 18.5593C41.2783 18.6948 41.361 18.8133 41.4645 18.9261C41.4946 18.9581 41.5228 18.9882 41.5529 19.0164C41.6018 19.0597 41.6319 19.1161 41.6883 19.1537C41.7448 19.1913 41.8068 19.1989 41.8652 19.2271C41.9272 19.2591 41.9874 19.2835 42.0533 19.3061C42.1586 19.3399 42.2602 19.3606 42.3674 19.37C42.4125 19.3738 42.452 19.3964 42.4991 19.3964C42.5442 19.3964 42.5837 19.3738 42.6288 19.37C42.7097 19.3625 42.785 19.3456 42.864 19.323C42.9787 19.291 43.0822 19.2515 43.1838 19.1951C43.2251 19.1707 43.2628 19.1424 43.3023 19.1142C43.4226 19.0277 43.5261 18.9261 43.6145 18.8076C43.6239 18.7944 43.6371 18.7888 43.6465 18.7756C44.8748 16.9567 46.9157 15.8713 49.1071 15.8713C52.7375 15.8713 55.6907 18.8245 55.6907 22.4549C55.6907 26.0853 52.7375 29.0385 49.1071 29.0385C46.9232 29.0385 44.8861 27.9588 43.6578 26.1511C43.6371 26.1229 43.6089 26.1079 43.5863 26.0815C43.5167 25.9931 43.4377 25.9179 43.3474 25.8464C43.2853 25.7994 43.227 25.7542 43.1574 25.7185C43.0728 25.6733 42.9862 25.6395 42.8922 25.6131C42.8019 25.5849 42.7154 25.568 42.6213 25.5586C42.5781 25.5548 42.5404 25.5341 42.4972 25.5341C42.452 25.5341 42.4125 25.5567 42.3674 25.5605C42.2677 25.568 42.1718 25.5887 42.074 25.6188C41.9931 25.6451 41.9178 25.6752 41.8426 25.7166C41.7956 25.7411 41.7429 25.7467 41.6977 25.7768C41.6545 25.8069 41.63 25.852 41.5924 25.8859C41.5322 25.9367 41.4814 25.9893 41.4325 26.0495C41.3592 26.1361 41.299 26.2226 41.2501 26.3223C41.22 26.3806 41.1993 26.4389 41.1786 26.501C41.1391 26.6176 41.1146 26.7324 41.1071 26.8546C41.1052 26.8866 41.0883 26.9129 41.0883 26.9449V41.0883H30.2818C31.2919 39.5666 31.86 37.7683 31.86 35.8892C31.86 30.7032 27.6409 26.4841 22.4549 26.4841C17.2689 26.4841 13.0498 30.7032 13.0498 35.8892C13.0498 37.7702 13.6179 39.5666 14.628 41.0883H3.82153V10.6496C3.82153 6.88383 6.88383 3.82153 10.6496 3.82153ZM3.82153 74.3485V43.9098H17.8351C17.8859 43.9155 17.9348 43.9324 17.9856 43.9324C18.1681 43.9324 18.3411 43.8741 18.5104 43.8045C18.5198 43.8007 18.5292 43.8026 18.5386 43.7988C18.6496 43.7518 18.738 43.6747 18.8339 43.5995C18.9092 43.543 18.9788 43.4847 19.0409 43.4151C19.0747 43.3756 19.1255 43.3568 19.1556 43.3117C19.1932 43.2552 19.2007 43.1932 19.2308 43.133C19.2628 43.0728 19.2854 43.0126 19.308 42.9486C19.3437 42.8414 19.3644 42.7379 19.3738 42.6288C19.3776 42.5837 19.4001 42.5461 19.4001 42.4991C19.4001 42.4539 19.3776 42.4163 19.3738 42.3712C19.3644 42.2903 19.3493 42.2131 19.3268 42.1341C19.2948 42.0194 19.2553 41.9141 19.197 41.8125C19.1725 41.773 19.1481 41.7354 19.1199 41.6977C19.0315 41.5736 18.928 41.4683 18.8057 41.378C18.7963 41.3704 18.7907 41.3592 18.7794 41.3516C16.9605 40.1214 15.8751 38.0787 15.8751 35.8892C15.8751 32.2588 18.8283 29.3056 22.4587 29.3056C26.089 29.3056 29.0422 32.2588 29.0422 35.8892C29.0422 38.073 27.9625 40.1102 26.1549 41.3385C26.1267 41.3573 26.1135 41.3874 26.0872 41.4081C25.9969 41.4795 25.9198 41.5604 25.8483 41.6526C25.8031 41.7128 25.7617 41.7711 25.726 41.8351C25.679 41.9216 25.647 42.01 25.6169 42.1078C25.5906 42.1962 25.5736 42.2809 25.5642 42.373C25.5605 42.4163 25.5379 42.4539 25.5379 42.4991C25.5379 42.5461 25.5605 42.5856 25.5642 42.6307C25.5718 42.7304 25.5925 42.8245 25.6225 42.9204C25.6489 43.0032 25.6809 43.0803 25.7222 43.1574C25.7467 43.2026 25.7523 43.2552 25.7824 43.2985C25.8107 43.3399 25.8558 43.3643 25.8878 43.4019C25.9404 43.464 25.995 43.5167 26.0552 43.5675C26.1398 43.6371 26.2264 43.6973 26.3242 43.7481C26.3825 43.7782 26.4427 43.7988 26.5047 43.8195C26.6233 43.859 26.738 43.8835 26.8603 43.891C26.8904 43.8929 26.9167 43.9098 26.9487 43.9098H41.0714V54.7163C39.5496 53.7062 37.7514 53.1381 35.8722 53.1381C30.6863 53.1381 26.4671 57.3572 26.4671 62.5432C26.4671 67.7292 30.6863 71.9483 35.8722 71.9483C37.7532 71.9483 39.5496 71.3784 41.0714 70.3683V81.1766H10.6496C6.88383 81.1785 3.82153 78.1143 3.82153 74.3485ZM74.3485 81.1785H43.8873V67.0144C43.8873 67.0088 43.8835 67.0031 43.8835 66.9956C43.8816 66.8206 43.8459 66.6551 43.7819 66.4933C43.7744 66.4745 43.7687 66.4595 43.7612 66.4444C43.6992 66.3071 43.6164 66.1849 43.5092 66.072C43.4791 66.04 43.4527 66.0118 43.4226 65.9817C43.3737 65.9403 43.3436 65.882 43.2872 65.8463C43.2308 65.8068 43.1668 65.8011 43.1085 65.771C43.0483 65.7409 42.99 65.7165 42.926 65.6939C42.817 65.6582 42.7135 65.6375 42.6025 65.63C42.5593 65.6262 42.5216 65.6036 42.4765 65.6036C42.4332 65.6036 42.3956 65.6243 42.3542 65.63C42.2677 65.6375 42.1887 65.6563 42.1059 65.6789C41.9949 65.7108 41.8953 65.7485 41.7974 65.803C41.7542 65.8293 41.7147 65.8557 41.6733 65.8877C41.551 65.9742 41.4476 66.0776 41.3592 66.198C41.3516 66.2074 41.3404 66.2131 41.3328 66.2244C40.1026 68.0433 38.0599 69.1287 35.8703 69.1287C32.24 69.1287 29.2868 66.1755 29.2868 62.5451C29.2868 58.9147 32.24 55.9615 35.8703 55.9615C38.0542 55.9615 40.0914 57.0412 41.3197 58.8489C41.3385 58.8771 41.3686 58.8903 41.3911 58.9185C41.4626 59.0088 41.5435 59.0859 41.6338 59.1555C41.694 59.2006 41.7523 59.2439 41.8162 59.2778C41.9028 59.3248 41.9912 59.3568 42.0871 59.3869C42.1755 59.4151 42.2639 59.432 42.3561 59.4395C42.3994 59.4452 42.4351 59.4659 42.4784 59.4659C42.5235 59.4659 42.5611 59.4433 42.6044 59.4395C42.7079 59.4301 42.8038 59.4094 42.9054 59.3793C42.9862 59.353 43.0615 59.3229 43.1348 59.2815C43.1819 59.2552 43.2327 59.2514 43.2778 59.2213C43.3211 59.1912 43.3436 59.148 43.3813 59.1141C43.4415 59.0633 43.4941 59.0088 43.5449 58.9486C43.6164 58.862 43.6785 58.7755 43.7274 58.6758C43.7575 58.6194 43.7782 58.5611 43.7988 58.499C43.8383 58.3805 43.8628 58.2658 43.8703 58.1416C43.8722 58.1096 43.8891 58.0852 43.8891 58.0532V43.9305H54.6956C53.6855 45.4523 53.1174 47.2505 53.1174 49.1297C53.1174 54.3156 57.3365 58.5348 62.5225 58.5348C67.7085 58.5348 71.9276 54.3156 71.9276 49.1297C71.9276 47.2505 71.3577 45.4523 70.3476 43.9305H81.1785V74.3466C81.1785 78.1143 78.1143 81.1785 74.3485 81.1785Z" stroke="#B8C7F7" stroke-width="1.2" mask="url(#path-1-outside-1)"/>
</svg>
