<svg width="89" height="89" viewBox="0 0 89 89" fill="none" xmlns="http://www.w3.org/2000/svg">
<rect width="89" height="89" rx="9" fill="#D1C7FF"/>
<path d="M33.2172 56.3732L33.2066 56.3611L33.1953 56.3498C32.8163 55.9708 32.1131 55.7748 31.6015 56.2864C31.2255 56.6625 31.0296 57.3577 31.5264 57.8683C35.103 61.8945 40.238 64.2333 45.6351 64.2333C56.0445 64.2333 64.5017 55.7761 64.5017 45.3667C64.5017 34.9572 56.0445 26.5 45.6351 26.5H45.6328H45.6306H45.6284H45.6262H45.624H45.6217H45.6195H45.6173H45.6151H45.6129H45.6107H45.6085H45.6063H45.604H45.6018H45.5996H45.5974H45.5952H45.593H45.5908H45.5886H45.5864H45.5842H45.582H45.5799H45.5777H45.5755H45.5733H45.5711H45.5689H45.5667H45.5646H45.5624H45.5602H45.558H45.5558H45.5537H45.5515H45.5493H45.5471H45.545H45.5428H45.5406H45.5385H45.5363H45.5341H45.532H45.5298H45.5277H45.5255H45.5233H45.5212H45.519H45.5169H45.5147H45.5126H45.5104H45.5083H45.5061H45.504H45.5018H45.4997H45.4976H45.4954H45.4933H45.4911H45.489H45.4869H45.4847H45.4826H45.4805H45.4783H45.4762H45.4741H45.472H45.4698H45.4677H45.4656H45.4635H45.4613H45.4592H45.4571H45.455H45.4529H45.4508H45.4487H45.4465H45.4444H45.4423H45.4402H45.4381H45.436H45.4339H45.4318H45.4297H45.4276H45.4255H45.4234H45.4213H45.4192H45.4171H45.415H45.4129H45.4108H45.4087H45.4066H45.4046H45.4025H45.4004H45.3983H45.3962H45.3941H45.392H45.39H45.3879H45.3858H45.3837H45.3817H45.3796H45.3775H45.3754H45.3734H45.3713H45.3692H45.3672H45.3651H45.363H45.361H45.3589H45.3568H45.3548H45.3527H45.3507H45.3486H45.3465H45.3445H45.3424H45.3404H45.3383H45.3363H45.3342H45.3322H45.3301H45.3281H45.326H45.324H45.3219H45.3199H45.3178H45.3158H45.3138H45.3117H45.3097H45.3076H45.3056H45.3036H45.3015H45.2995H45.2975H45.2954H45.2934H45.2914H45.2894H45.2873H45.2853H45.2833H45.2813H45.2792H45.2772H45.2752H45.2732H45.2711H45.2691H45.2671H45.2651H45.2631H45.2611H45.259H45.257H45.255H45.253H45.251H45.249H45.247H45.245H45.243H45.241H45.239H45.237H45.235H45.233H45.231H45.229H45.227H45.225H45.223H45.221H45.219H45.217H45.215H45.213H45.211H45.209H45.207H45.205H45.203H45.201H45.1991H45.1971H45.1951H45.1931H45.1911H45.1891H45.1872H45.1852H45.1832H45.1812H45.1792H45.1773H45.1753H45.1733H45.1713H45.1694H45.1674H45.1654H45.1634H45.1615H45.1595H45.1575H45.1556H45.1536H45.1516H45.1497H45.1477H45.1457H45.1438H45.1418H45.1398H45.1379H45.1359H45.134H45.132H45.13H45.1281H45.1261H45.1242H45.1222H45.1203H45.1183H45.1164H45.1144H45.1125H45.1105H45.1086H45.1066H45.1047H45.1027H45.1008H45.0988H45.0969H45.0949H45.093H45.091H45.0891H45.0872H45.0852H45.0833H45.0813H45.0794H45.0775H45.0755H45.0736H45.0716H45.0697H45.0678H45.0658H45.0639H45.062H45.06H45.0581H45.0562H45.0542H45.0523H45.0504H45.0485H45.0465H45.0446H45.0427H45.0407H45.0388H45.0369H45.035H45.033H45.0311H45.0292H45.0273H45.0254H45.0234H45.0215H45.0196H45.0177H45.0158H45.0138H45.0119H45.01H45.0081H45.0062H45.0043H45.0023H45.0004H44.9985H44.9966H44.9947H44.9928H44.9909H44.989H44.9871H44.9851H44.9832H44.9813H44.9794H44.9775H44.9756H44.9737H44.9718H44.9699H44.968H44.9661H44.9642H44.9623H44.9604H44.9585H44.9566H44.9547H44.9528H44.9509H44.949H44.9471H44.9452H44.9433H44.9414H44.9395H44.9376H44.9357H44.9338H44.9319H44.93H44.9281H44.9262H44.9243H44.9224H44.9205H44.9187H44.9168H44.9149H44.913H44.9111H44.9092H44.9073H44.9054H44.9035H44.9017H44.8998H44.8979H44.896H44.8941H44.8922H44.8903H44.8885H44.8866H44.8847H44.8828H44.8809H44.879H44.8772H44.8753H44.8734H44.8715H44.8696H44.8677H44.8659H44.864H44.8621H44.8602H44.8584H44.8565H44.8546H44.8527H44.8508H44.849H44.8471H44.8452H44.8433H44.8415H44.8396H44.8377H44.8358H44.834H44.8321H44.8302H44.8283H44.8265H44.8246H44.8227H44.8209H44.819H44.8171H44.8152H44.8134H44.8115H44.8096H44.8078H44.8059H44.804H44.8022H44.8003H44.7984H44.7965H44.7947H44.7928H44.7909H44.7891H44.7872H44.7853H44.7835H44.7816H44.7797H44.7779H44.776H44.7742H44.7723H44.7704H44.7686H44.7667H44.7648H44.763H44.7611H44.7592H44.7574H44.7555H44.7536H44.7518H44.7499H44.7481H44.7462H44.7443H44.7425H44.7406H44.7388H44.7369H44.735H44.7332H44.7313H44.7295H44.7276H44.7257H44.7239H44.722H44.7202H44.7183H44.7164H44.7146H44.7127H44.7109H44.709H44.7071H44.7053H44.7034H44.7016H44.6997H44.6978H44.696H44.6941H44.6923H44.6904H44.6886H44.6867H44.6848H44.683H44.6811H44.6793H44.6774H44.6756H44.6737H44.6718H44.67H44.6681H44.6663H44.6644H44.6626H44.6607H44.6589H44.657H44.6551H44.6533H44.6514H44.6496H44.6477H44.6459H44.644H44.6422H44.6403H44.6384H44.6366H44.6347H44.6329H44.631H44.6292H44.6273H44.6255H44.6236H44.6217C43.9264 26.5 43.4671 27.0901 43.5524 27.7379C43.5752 28.4082 44.1514 28.8471 44.7843 28.7667H44.7855H44.7874H44.7892H44.7911H44.7929H44.7948H44.7966H44.7985H44.8004H44.8022H44.8041H44.8059H44.8078H44.8096H44.8115H44.8133H44.8152H44.8171H44.8189H44.8208H44.8226H44.8245H44.8263H44.8282H44.83H44.8319H44.8338H44.8356H44.8375H44.8393H44.8412H44.843H44.8449H44.8467H44.8486H44.8505H44.8523H44.8542H44.856H44.8579H44.8597H44.8616H44.8634H44.8653H44.8672H44.869H44.8709H44.8727H44.8746H44.8764H44.8783H44.8801H44.882H44.8839H44.8857H44.8876H44.8894H44.8913H44.8931H44.895H44.8968H44.8987H44.9006H44.9024H44.9043H44.9061H44.908H44.9098H44.9117H44.9135H44.9154H44.9173H44.9191H44.921H44.9228H44.9247H44.9265H44.9284H44.9302H44.9321H44.934H44.9358H44.9377H44.9395H44.9414H44.9432H44.9451H44.9469H44.9488H44.9507H44.9525H44.9544H44.9562H44.9581H44.9599H44.9618H44.9636H44.9655H44.9674H44.9692H44.9711H44.9729H44.9748H44.9766H44.9785H44.9803H44.9822H44.9841H44.9859H44.9878H44.9896H44.9915H44.9933H44.9952H44.997H44.9989H45.0008H45.0026H45.0045H45.0063H45.0082H45.01H45.0119H45.0137H45.0156H45.0175H45.0193H45.0212H45.023H45.0249H45.0267H45.0286H45.0304H45.0323H45.0341H45.036H45.0379H45.0397H45.0416H45.0434H45.0453H45.0471H45.049H45.0508H45.0527H45.0546H45.0564H45.0583H45.0601H45.062H45.0638H45.0657H45.0675H45.0694H45.0713H45.0731H45.075H45.0768H45.0787H45.0805H45.0824H45.0842H45.0861H45.088H45.0898H45.0917H45.0935H45.0954H45.0972H45.0991H45.1009H45.1028H45.1047H45.1065H45.1084H45.1102H45.1121H45.1139H45.1158H45.1176H45.1195H45.1214H45.1232H45.1251H45.1269H45.1288H45.1306H45.1325H45.1343H45.1362H45.1381H45.1399H45.1418H45.1436H45.1455H45.1473H45.1492H45.151H45.1529H45.1548H45.1566H45.1585H45.1603H45.1622H45.164H45.1659H45.1677H45.1696H45.1715H45.1733H45.1752H45.177H45.1789H45.1807H45.1826H45.1844H45.1863H45.1882H45.19H45.1919H45.1937H45.1956H45.1974H45.1993H45.2011H45.203H45.2049H45.2067H45.2086H45.2104H45.2123H45.2141H45.216H45.2178H45.2197H45.2216H45.2234H45.2253H45.2271H45.229H45.2308H45.2327H45.2345H45.2364H45.2383H45.2401H45.242H45.2438H45.2457H45.2475H45.2494H45.2512H45.2531H45.255H45.2568H45.2587H45.2605H45.2624H45.2642H45.2661H45.2679H45.2698H45.2716H45.2735H45.2754H45.2772H45.2791H45.2809H45.2828H45.2846H45.2865H45.2883H45.2902H45.2921H45.2939H45.2958H45.2976H45.2995H45.3013H45.3032H45.305H45.3069H45.3088H45.3106H45.3125H45.3143H45.3162H45.318H45.3199H45.3217H45.3236H45.3255H45.3273H45.3292H45.331H45.3329H45.3347H45.3366H45.3384H45.3403H45.3422H45.344H45.3459H45.3477H45.3496H45.3514H45.3533H45.3551H45.357H45.3589H45.3607H45.3626H45.3644H45.3663H45.3681H45.37H45.3718H45.3737H45.3756H45.3774H45.3793H45.3811H45.383H45.3848H45.3867H45.3885H45.3904H45.3923H45.3941H45.396H45.3978H45.3997H45.4015H45.4034H45.4052H45.4071H45.409H45.4108H45.4127H45.4145H45.4164H45.4182H45.4201H45.4219H45.4238H45.4257H45.4275H45.4294H45.4312H45.4331H45.4349H45.4368H45.4386H45.4405H45.4424H45.4442H45.4461H45.4479H45.4498H45.4516H45.4535H45.4553H45.4572H45.4591H45.4609H45.4628H45.4646H45.4665H45.4683H45.4702H45.472H45.4739H45.4758H45.4776H45.4795H45.4813H45.4832H45.485H45.4869H45.4887H45.4906H45.4924H45.4943H45.4962H45.498H45.4999H45.5017H45.5036H45.5054H45.5073H45.5091H45.511H45.5129H45.5147H45.5166H45.5184H45.5203H45.5221H45.524H45.5258H45.5277H45.5296H45.5314H45.5333H45.5351H45.537H45.5388H45.5407H45.5425H45.5444H45.5463H45.5481H45.55H45.5518H45.5537H45.5555H45.5574H45.5592H45.5611H45.563H45.5648H45.5667H45.5685H45.5704H45.5722H45.5741H45.5759H45.5778H45.5797H45.5815H45.5834H45.5852H45.5871H45.5889H45.5908H45.5926H45.5945H45.5964H45.5982H45.6001H45.6019H45.6038H45.6056H45.6075H45.6093H45.6112H45.6131H45.6149H45.6168H45.6186H45.6205H45.6223H45.6242H45.626H45.6279H45.6298H45.6316H45.6335H45.6353H45.6372H45.639H45.6409H45.6427H45.6446H45.6465H45.6483H45.6502H45.652H45.6539H45.6557H45.6576H45.6594H45.6613H45.6632H45.665H45.6669H45.6687H45.6706H45.6724H45.6743H45.6761H45.678H45.6799H45.6817H45.6836H45.6854H45.6873H45.6891H45.691H45.6928H45.6947H45.6966H45.6984C54.8589 28.7667 62.2984 36.2061 62.2984 45.3667C62.2984 54.5248 54.798 61.9667 45.6351 61.9667C40.9003 61.9667 36.3511 59.9372 33.2172 56.3732Z" fill="white" stroke="white"/>
<path d="M38.5044 53.1304C38.731 53.3569 39.051 53.4668 39.3013 53.4668C39.5517 53.4668 39.8716 53.3569 40.0982 53.1304L46.4315 46.7971C46.5244 46.7042 46.6139 46.5915 46.6774 46.4486C46.7418 46.3036 46.768 46.1535 46.768 46.0002V33.9668C46.768 33.6632 46.6646 33.3713 46.4474 33.1541C46.2301 32.9369 45.9383 32.8335 45.6346 32.8335C45.331 32.8335 45.0391 32.9369 44.8219 33.1541C44.6047 33.3713 44.5013 33.6632 44.5013 33.9668V45.5397L38.5044 51.5366C38.0558 51.9852 38.0558 52.6818 38.5044 53.1304Z" fill="white" stroke="white"/>
<path d="M38.0328 31.3C39.3583 31.3 40.4328 30.2255 40.4328 28.9C40.4328 27.5745 39.3583 26.5 38.0328 26.5C36.7073 26.5 35.6328 27.5745 35.6328 28.9C35.6328 30.2255 36.7073 31.3 38.0328 31.3Z" fill="white" stroke="white"/>
<path d="M31.068 37.6335C32.3935 37.6335 33.468 36.559 33.468 35.2335C33.468 33.908 32.3935 32.8335 31.068 32.8335C29.7425 32.8335 28.668 33.908 28.668 35.2335C28.668 36.559 29.7425 37.6335 31.068 37.6335Z" fill="white" stroke="white"/>
<path d="M27.9 45.8669C29.2255 45.8669 30.3 44.7924 30.3 43.4669C30.3 42.1414 29.2255 41.0669 27.9 41.0669C26.5745 41.0669 25.5 42.1414 25.5 43.4669C25.5 44.7924 26.5745 45.8669 27.9 45.8669Z" fill="white" stroke="white"/>
<path d="M29.1656 54.0998C30.4911 54.0998 31.5656 53.0253 31.5656 51.6998C31.5656 50.3743 30.4911 49.2998 29.1656 49.2998C27.8401 49.2998 26.7656 50.3743 26.7656 51.6998C26.7656 53.0253 27.8401 54.0998 29.1656 54.0998Z" fill="white" stroke="white"/>
</svg>
