<svg width="47" height="16" viewBox="0 0 47 16" fill="none" xmlns="http://www.w3.org/2000/svg">
<path d="M1.58594 10.9866C7.93926 8.6639 14.577 6.26731 21.2772 5.2947C24.6635 4.80315 28.0152 4.28089 31.4031 3.68801C33.4991 3.32122 35.5787 3.1251 37.6804 2.86598C39.4035 2.65354 41.0998 2.01904 42.8368 2.01904" stroke="#FFD000" stroke-width="3" stroke-linecap="round"/>
<path d="M10.3281 14.1254C13.0571 13.143 16.0363 12.8833 18.8722 12.3319C22.4094 11.6441 25.99 11.2283 29.5461 10.6504C31.4653 10.3386 33.2734 9.76754 35.2256 9.64159C36.4922 9.55988 37.7775 9.38973 39.0119 9.08112C40.7672 8.6423 42.8825 8.07227 44.6291 8.07227" stroke="#FFD000" stroke-width="3" stroke-linecap="round"/>
</svg>
