<svg width="141" height="29" viewBox="0 0 141 29" fill="none" xmlns="http://www.w3.org/2000/svg">
<path d="M2 7.16176C10.5556 14.0441 20.9259 14.0441 29.4815 7.16176C38.037 0.279412 48.4074 0.279412 56.963 7.16176C65.5185 14.0441 75.8889 14.0441 84.4444 7.16176C93 0.279412 103.37 0.279412 111.926 7.16176C120.481 14.0441 130.852 14.0441 139.407 7.16176" stroke="#FFD000" stroke-width="3" stroke-miterlimit="10" stroke-linecap="round" stroke-linejoin="round"/>
<path d="M2 22.1618C10.5556 29.0441 20.9259 29.0441 29.4815 22.1618C38.037 15.2794 48.4074 15.2794 56.963 22.1618C65.5185 29.0441 75.8889 29.0441 84.4444 22.1618C93 15.2794 103.37 15.2794 111.926 22.1618C120.481 29.0441 130.852 29.0441 139.407 22.1618" stroke="#FFD000" stroke-width="3" stroke-miterlimit="10" stroke-linecap="round" stroke-linejoin="round"/>
</svg>
