<svg xmlns="http://www.w3.org/2000/svg" width="472" height="1716" viewBox="0 0 472 1716">
  <g id="Affinity" transform="translate(-1208 -884)">
    <g id="Rectangle_2861" data-name="Rectangle 2861" transform="translate(1208 884)" fill="#fff" stroke="#707070" stroke-width="1" opacity="0">
      <rect width="472" height="1716" stroke="none"/>
      <rect x="0.5" y="0.5" width="471" height="1715" fill="none"/>
    </g>
    <g id="Group_4327" data-name="Group 4327" transform="translate(7 4)">
      <g id="check" transform="translate(1404 1771)">
        <path id="Path_23263" data-name="Path 23263" d="M33.411,0A33.411,33.411,0,1,0,66.822,33.411,33.448,33.448,0,0,0,33.411,0Zm0,0" fill="#453890"/>
        <path id="Path_23264" data-name="Path 23264" d="M173.228,170.082l-18.1,18.1a2.782,2.782,0,0,1-3.937,0l-9.049-9.049a2.784,2.784,0,0,1,3.937-3.937l7.08,7.08,16.129-16.129a2.784,2.784,0,0,1,3.937,3.937Zm0,0" transform="translate(-122.883 -143.751)" fill="#fafafa"/>
      </g>
      <g id="check-2" data-name="check" transform="translate(1404 1886)">
        <path id="Path_23263-2" data-name="Path 23263" d="M33.411,0A33.411,33.411,0,1,0,66.822,33.411,33.448,33.448,0,0,0,33.411,0Zm0,0" fill="#453890"/>
        <path id="Path_23264-2" data-name="Path 23264" d="M173.228,170.082l-18.1,18.1a2.782,2.782,0,0,1-3.937,0l-9.049-9.049a2.784,2.784,0,0,1,3.937-3.937l7.08,7.08,16.129-16.129a2.784,2.784,0,0,1,3.937,3.937Zm0,0" transform="translate(-122.883 -143.751)" fill="#fafafa"/>
      </g>
      <g id="check-3" data-name="check" transform="translate(1404 2110)">
        <path id="Path_23263-3" data-name="Path 23263" d="M33.411,0A33.411,33.411,0,1,0,66.822,33.411,33.448,33.448,0,0,0,33.411,0Zm0,0" fill="#453890"/>
        <path id="Path_23264-3" data-name="Path 23264" d="M173.228,170.082l-18.1,18.1a2.782,2.782,0,0,1-3.937,0l-9.049-9.049a2.784,2.784,0,0,1,3.937-3.937l7.08,7.08,16.129-16.129a2.784,2.784,0,0,1,3.937,3.937Zm0,0" transform="translate(-122.883 -143.751)" fill="#fafafa"/>
      </g>
      <g id="check-4" data-name="check" transform="translate(1404 2224)">
        <path id="Path_23263-4" data-name="Path 23263" d="M33.411,0A33.411,33.411,0,1,0,66.822,33.411,33.448,33.448,0,0,0,33.411,0Zm0,0" fill="#453890"/>
        <path id="Path_23264-4" data-name="Path 23264" d="M173.228,170.082l-18.1,18.1a2.782,2.782,0,0,1-3.937,0l-9.049-9.049a2.784,2.784,0,0,1,3.937-3.937l7.08,7.08,16.129-16.129a2.784,2.784,0,0,1,3.937,3.937Zm0,0" transform="translate(-122.883 -143.751)" fill="#fafafa"/>
      </g>
      <g id="check-5" data-name="check" transform="translate(1404 1061)">
        <path id="Path_23263-5" data-name="Path 23263" d="M33.411,0A33.411,33.411,0,1,0,66.822,33.411,33.448,33.448,0,0,0,33.411,0Zm0,0" fill="#453890"/>
        <path id="Path_23264-5" data-name="Path 23264" d="M173.228,170.082l-18.1,18.1a2.782,2.782,0,0,1-3.937,0l-9.049-9.049a2.784,2.784,0,0,1,3.937-3.937l7.08,7.08,16.129-16.129a2.784,2.784,0,0,1,3.937,3.937Zm0,0" transform="translate(-122.883 -143.751)" fill="#fafafa"/>
      </g>
      <g id="check-6" data-name="check" transform="translate(1404 1176)">
        <path id="Path_23263-6" data-name="Path 23263" d="M33.411,0A33.411,33.411,0,1,0,66.822,33.411,33.448,33.448,0,0,0,33.411,0Zm0,0" fill="#453890"/>
        <path id="Path_23264-6" data-name="Path 23264" d="M173.228,170.082l-18.1,18.1a2.782,2.782,0,0,1-3.937,0l-9.049-9.049a2.784,2.784,0,0,1,3.937-3.937l7.08,7.08,16.129-16.129a2.784,2.784,0,0,1,3.937,3.937Zm0,0" transform="translate(-122.883 -143.751)" fill="#fafafa"/>
      </g>
      <rect id="Rectangle_2785" data-name="Rectangle 2785" width="37" height="4" rx="2" transform="translate(1419 1327)" fill="#b1a2fe"/>
      <rect id="Rectangle_2786" data-name="Rectangle 2786" width="37" height="4" rx="2" transform="translate(1419 1445)" fill="#b1a2fe"/>
      <rect id="Rectangle_2787" data-name="Rectangle 2787" width="37" height="4" rx="2" transform="translate(1419 1561)" fill="#b1a2fe"/>
      <rect id="Rectangle_2788" data-name="Rectangle 2788" width="37" height="4" rx="2" transform="translate(1419 1678)" fill="#b1a2fe"/>
      <rect id="Rectangle_2789" data-name="Rectangle 2789" width="37" height="4" rx="2" transform="translate(1419 2028)" fill="#b1a2fe"/>
      <rect id="Rectangle_2821" data-name="Rectangle 2821" width="37" height="4" rx="2" transform="translate(1419 2364)" fill="#b1a2fe"/>
      <rect id="Rectangle_2822" data-name="Rectangle 2822" width="37" height="4" rx="2" transform="translate(1419 2479)" fill="#b1a2fe"/>
      <rect id="Rectangle_2783" data-name="Rectangle 2783" width="367" height="6" rx="3" transform="translate(1254 1004)" fill="#ffd000"/>
    </g>
  </g>
</svg>
