<svg xmlns="http://www.w3.org/2000/svg" width="472" height="1716" viewBox="0 0 472 1716">
  <g id="Apollo.io" transform="translate(-1264 -825)">
    <g id="Rectangle_2860" data-name="Rectangle 2860" transform="translate(1264 825)" fill="#fff" stroke="#707070" stroke-width="1" opacity="0">
      <rect width="472" height="1716" stroke="none"/>
      <rect x="0.5" y="0.5" width="471" height="1715" fill="none"/>
    </g>
    <g id="Group_4321" data-name="Group 4321" transform="translate(8)">
      <g id="check" transform="translate(1459 1713)">
        <path id="Path_23263" data-name="Path 23263" d="M33.411,0A33.411,33.411,0,1,0,66.822,33.411,33.448,33.448,0,0,0,33.411,0Zm0,0" fill="#453890"/>
        <path id="Path_23264" data-name="Path 23264" d="M173.228,170.082l-18.1,18.1a2.782,2.782,0,0,1-3.937,0l-9.049-9.049a2.784,2.784,0,0,1,3.937-3.937l7.08,7.08,16.129-16.129a2.784,2.784,0,0,1,3.937,3.937Zm0,0" transform="translate(-122.883 -143.751)" fill="#fafafa"/>
      </g>
      <g id="check-2" data-name="check" transform="translate(1459 1127)">
        <path id="Path_23263-2" data-name="Path 23263" d="M33.411,0A33.411,33.411,0,1,0,66.822,33.411,33.448,33.448,0,0,0,33.411,0Zm0,0" fill="#453890"/>
        <path id="Path_23264-2" data-name="Path 23264" d="M173.228,170.082l-18.1,18.1a2.782,2.782,0,0,1-3.937,0l-9.049-9.049a2.784,2.784,0,0,1,3.937-3.937l7.08,7.08,16.129-16.129a2.784,2.784,0,0,1,3.937,3.937Zm0,0" transform="translate(-122.883 -143.751)" fill="#fafafa"/>
      </g>
      <g id="check-3" data-name="check" transform="translate(1459 1826)">
        <path id="Path_23263-3" data-name="Path 23263" d="M33.411,0A33.411,33.411,0,1,0,66.822,33.411,33.448,33.448,0,0,0,33.411,0Zm0,0" fill="#453890"/>
        <path id="Path_23264-3" data-name="Path 23264" d="M173.228,170.082l-18.1,18.1a2.782,2.782,0,0,1-3.937,0l-9.049-9.049a2.784,2.784,0,0,1,3.937-3.937l7.08,7.08,16.129-16.129a2.784,2.784,0,0,1,3.937,3.937Zm0,0" transform="translate(-122.883 -143.751)" fill="#fafafa"/>
      </g>
      <g id="check-4" data-name="check" transform="translate(1459 2052)">
        <path id="Path_23263-4" data-name="Path 23263" d="M33.411,0A33.411,33.411,0,1,0,66.822,33.411,33.448,33.448,0,0,0,33.411,0Zm0,0" fill="#453890"/>
        <path id="Path_23264-4" data-name="Path 23264" d="M173.228,170.082l-18.1,18.1a2.782,2.782,0,0,1-3.937,0l-9.049-9.049a2.784,2.784,0,0,1,3.937-3.937l7.08,7.08,16.129-16.129a2.784,2.784,0,0,1,3.937,3.937Zm0,0" transform="translate(-122.883 -143.751)" fill="#fafafa"/>
      </g>
      <g id="check-5" data-name="check" transform="translate(1459 1003)">
        <path id="Path_23263-5" data-name="Path 23263" d="M33.411,0A33.411,33.411,0,1,0,66.822,33.411,33.448,33.448,0,0,0,33.411,0Zm0,0" fill="#453890"/>
        <path id="Path_23264-5" data-name="Path 23264" d="M173.228,170.082l-18.1,18.1a2.782,2.782,0,0,1-3.937,0l-9.049-9.049a2.784,2.784,0,0,1,3.937-3.937l7.08,7.08,16.129-16.129a2.784,2.784,0,0,1,3.937,3.937Zm0,0" transform="translate(-122.883 -143.751)" fill="#fafafa"/>
      </g>
      <rect id="Rectangle_2785" data-name="Rectangle 2785" width="37" height="4" rx="2" transform="translate(1474 1269)" fill="#b1a2fe"/>
      <rect id="Rectangle_2786" data-name="Rectangle 2786" width="37" height="4" rx="2" transform="translate(1474 1387)" fill="#b1a2fe"/>
      <rect id="Rectangle_2813" data-name="Rectangle 2813" width="37" height="4" rx="2" transform="translate(1474 2197)" fill="#b1a2fe"/>
      <rect id="Rectangle_2814" data-name="Rectangle 2814" width="37" height="4" rx="2" transform="translate(1474 1970)" fill="#b1a2fe"/>
      <rect id="Rectangle_2787" data-name="Rectangle 2787" width="37" height="4" rx="2" transform="translate(1474 1503)" fill="#b1a2fe"/>
      <rect id="Rectangle_2812" data-name="Rectangle 2812" width="37" height="4" rx="2" transform="translate(1474 2306)" fill="#b1a2fe"/>
      <rect id="Rectangle_2788" data-name="Rectangle 2788" width="37" height="4" rx="2" transform="translate(1474 1620)" fill="#b1a2fe"/>
      <rect id="Rectangle_2811" data-name="Rectangle 2811" width="37" height="4" rx="2" transform="translate(1474 2421)" fill="#b1a2fe"/>
      <rect id="Rectangle_2783" data-name="Rectangle 2783" width="367" height="6" rx="3" transform="translate(1309 946)" fill="#ffd000"/>
    </g>
  </g>
</svg>
