<svg xmlns="http://www.w3.org/2000/svg" width="472" height="1716" viewBox="0 0 472 1716">
  <g id="Close.io" transform="translate(-1288 -800)">
    <g id="Rectangle_2860" data-name="Rectangle 2860" transform="translate(1288 800)" fill="#fff" stroke="#707070" stroke-width="1" opacity="0">
      <rect width="472" height="1716" stroke="none"/>
      <rect x="0.5" y="0.5" width="471" height="1715" fill="none"/>
    </g>
    <g id="Group_4314" data-name="Group 4314" transform="translate(-2)">
      <g id="check" transform="translate(1493 1678)">
        <path id="Path_23263" data-name="Path 23263" d="M33.411,0A33.411,33.411,0,1,0,66.822,33.411,33.448,33.448,0,0,0,33.411,0Zm0,0" fill="#453890"/>
        <path id="Path_23264" data-name="Path 23264" d="M173.228,170.082l-18.1,18.1a2.782,2.782,0,0,1-3.937,0l-9.049-9.049a2.784,2.784,0,0,1,3.937-3.937l7.08,7.08,16.129-16.129a2.784,2.784,0,0,1,3.937,3.937Zm0,0" transform="translate(-122.883 -143.751)" fill="#fafafa"/>
      </g>
      <g id="check-2" data-name="check" transform="translate(1493 1791)">
        <path id="Path_23263-2" data-name="Path 23263" d="M33.411,0A33.411,33.411,0,1,0,66.822,33.411,33.448,33.448,0,0,0,33.411,0Zm0,0" fill="#453890"/>
        <path id="Path_23264-2" data-name="Path 23264" d="M173.228,170.082l-18.1,18.1a2.782,2.782,0,0,1-3.937,0l-9.049-9.049a2.784,2.784,0,0,1,3.937-3.937l7.08,7.08,16.129-16.129a2.784,2.784,0,0,1,3.937,3.937Zm0,0" transform="translate(-122.883 -143.751)" fill="#fafafa"/>
      </g>
      <g id="check-3" data-name="check" transform="translate(1493 2123)">
        <path id="Path_23263-3" data-name="Path 23263" d="M33.411,0A33.411,33.411,0,1,0,66.822,33.411,33.448,33.448,0,0,0,33.411,0Zm0,0" fill="#453890"/>
        <path id="Path_23264-3" data-name="Path 23264" d="M173.228,170.082l-18.1,18.1a2.782,2.782,0,0,1-3.937,0l-9.049-9.049a2.784,2.784,0,0,1,3.937-3.937l7.08,7.08,16.129-16.129a2.784,2.784,0,0,1,3.937,3.937Zm0,0" transform="translate(-122.883 -143.751)" fill="#fafafa"/>
      </g>
      <g id="check-4" data-name="check" transform="translate(1493 968)">
        <path id="Path_23263-4" data-name="Path 23263" d="M33.411,0A33.411,33.411,0,1,0,66.822,33.411,33.448,33.448,0,0,0,33.411,0Zm0,0" fill="#453890"/>
        <path id="Path_23264-4" data-name="Path 23264" d="M173.228,170.082l-18.1,18.1a2.782,2.782,0,0,1-3.937,0l-9.049-9.049a2.784,2.784,0,0,1,3.937-3.937l7.08,7.08,16.129-16.129a2.784,2.784,0,0,1,3.937,3.937Zm0,0" transform="translate(-122.883 -143.751)" fill="#fafafa"/>
      </g>
      <g id="check-5" data-name="check" transform="translate(1493 1085)">
        <path id="Path_23263-5" data-name="Path 23263" d="M33.411,0A33.411,33.411,0,1,0,66.822,33.411,33.448,33.448,0,0,0,33.411,0Zm0,0" fill="#453890"/>
        <path id="Path_23264-5" data-name="Path 23264" d="M173.228,170.082l-18.1,18.1a2.782,2.782,0,0,1-3.937,0l-9.049-9.049a2.784,2.784,0,0,1,3.937-3.937l7.08,7.08,16.129-16.129a2.784,2.784,0,0,1,3.937,3.937Zm0,0" transform="translate(-122.883 -143.751)" fill="#fafafa"/>
      </g>
      <rect id="Rectangle_2773" data-name="Rectangle 2773" width="37" height="4" rx="2" transform="translate(1508 1234)" fill="#b1a2fe"/>
      <rect id="Rectangle_2774" data-name="Rectangle 2774" width="37" height="4" rx="2" transform="translate(1508 1352)" fill="#b1a2fe"/>
      <rect id="Rectangle_2775" data-name="Rectangle 2775" width="37" height="4" rx="2" transform="translate(1508 1468)" fill="#b1a2fe"/>
      <rect id="Rectangle_2776" data-name="Rectangle 2776" width="37" height="4" rx="2" transform="translate(1508 1585)" fill="#b1a2fe"/>
      <rect id="Rectangle_2771" data-name="Rectangle 2771" width="367" height="6" rx="3" transform="translate(1343 911)" fill="#ffd000"/>
      <rect id="Rectangle_2800" data-name="Rectangle 2800" width="37" height="4" rx="2" transform="translate(1508 1935)" fill="#b1a2fe"/>
      <rect id="Rectangle_2801" data-name="Rectangle 2801" width="37" height="4" rx="2" transform="translate(1508 2048)" fill="#b1a2fe"/>
      <rect id="Rectangle_2802" data-name="Rectangle 2802" width="37" height="4" rx="2" transform="translate(1508 2386)" fill="#b1a2fe"/>
      <rect id="Rectangle_2803" data-name="Rectangle 2803" width="37" height="4" rx="2" transform="translate(1508 2271)" fill="#b1a2fe"/>
    </g>
  </g>
</svg>
