<svg xmlns="http://www.w3.org/2000/svg" width="472" height="1716" viewBox="0 0 472 1716">
  <g id="easyleadz" transform="translate(-1304 -837)">
    <g id="Rectangle_2862" data-name="Rectangle 2862" transform="translate(1304 837)" fill="#fff" stroke="#707070" stroke-width="1" opacity="0">
      <rect width="472" height="1716" stroke="none"/>
      <rect x="0.5" y="0.5" width="471" height="1715" fill="none"/>
    </g>
    <g id="Group_4367" data-name="Group 4367" transform="translate(70)">
      <g id="check" transform="translate(1437 1721)">
        <path id="Path_23263" data-name="Path 23263" d="M33.411,0A33.411,33.411,0,1,0,66.822,33.411,33.448,33.448,0,0,0,33.411,0Zm0,0" fill="#453890"/>
        <path id="Path_23264" data-name="Path 23264" d="M173.228,170.082l-18.1,18.1a2.782,2.782,0,0,1-3.937,0l-9.049-9.049a2.784,2.784,0,0,1,3.937-3.937l7.08,7.08,16.129-16.129a2.784,2.784,0,0,1,3.937,3.937Zm0,0" transform="translate(-122.883 -143.751)" fill="#fafafa"/>
      </g>
      <g id="check-2" data-name="check" transform="translate(1437 1954)">
        <path id="Path_23263-2" data-name="Path 23263" d="M33.411,0A33.411,33.411,0,1,0,66.822,33.411,33.448,33.448,0,0,0,33.411,0Zm0,0" fill="#453890"/>
        <path id="Path_23264-2" data-name="Path 23264" d="M173.228,170.082l-18.1,18.1a2.782,2.782,0,0,1-3.937,0l-9.049-9.049a2.784,2.784,0,0,1,3.937-3.937l7.08,7.08,16.129-16.129a2.784,2.784,0,0,1,3.937,3.937Zm0,0" transform="translate(-122.883 -143.751)" fill="#fafafa"/>
      </g>
      <g id="check-3" data-name="check" transform="translate(1437 1011)">
        <path id="Path_23263-3" data-name="Path 23263" d="M33.411,0A33.411,33.411,0,1,0,66.822,33.411,33.448,33.448,0,0,0,33.411,0Zm0,0" fill="#453890"/>
        <path id="Path_23264-3" data-name="Path 23264" d="M173.228,170.082l-18.1,18.1a2.782,2.782,0,0,1-3.937,0l-9.049-9.049a2.784,2.784,0,0,1,3.937-3.937l7.08,7.08,16.129-16.129a2.784,2.784,0,0,1,3.937,3.937Zm0,0" transform="translate(-122.883 -143.751)" fill="#fafafa"/>
      </g>
      <rect id="Rectangle_2784" data-name="Rectangle 2784" width="37" height="4" rx="2" transform="translate(1452 1161)" fill="#b1a2fe"/>
      <rect id="Rectangle_2785" data-name="Rectangle 2785" width="37" height="4" rx="2" transform="translate(1452 1277)" fill="#b1a2fe"/>
      <rect id="Rectangle_2786" data-name="Rectangle 2786" width="37" height="4" rx="2" transform="translate(1452 1394)" fill="#b1a2fe"/>
      <rect id="Rectangle_2787" data-name="Rectangle 2787" width="37" height="4" rx="2" transform="translate(1452 1510)" fill="#b1a2fe"/>
      <rect id="Rectangle_2788" data-name="Rectangle 2788" width="37" height="4" rx="2" transform="translate(1452 1627)" fill="#b1a2fe"/>
      <rect id="Rectangle_2789" data-name="Rectangle 2789" width="37" height="4" rx="2" transform="translate(1452 1865)" fill="#b1a2fe"/>
      <rect id="Rectangle_2849" data-name="Rectangle 2849" width="37" height="4" rx="2" transform="translate(1452 2091)" fill="#b1a2fe"/>
      <rect id="Rectangle_2850" data-name="Rectangle 2850" width="37" height="4" rx="2" transform="translate(1452 2205)" fill="#b1a2fe"/>
      <rect id="Rectangle_2851" data-name="Rectangle 2851" width="37" height="4" rx="2" transform="translate(1452 2314)" fill="#b1a2fe"/>
      <rect id="Rectangle_2852" data-name="Rectangle 2852" width="37" height="4" rx="2" transform="translate(1452 2429)" fill="#b1a2fe"/>
      <rect id="Rectangle_2783" data-name="Rectangle 2783" width="367" height="6" rx="3" transform="translate(1287 954)" fill="#ffd000"/>
    </g>
  </g>
</svg>
