<svg xmlns="http://www.w3.org/2000/svg" xmlns:xlink="http://www.w3.org/1999/xlink" width="622" height="1866" viewBox="0 0 622 1866"><defs><style>.a{fill:#ffe6a9;opacity:0.42;}.b{fill:#453890;}.c{fill:#fafafa;}.d{fill:#b1a2fe;}.e{fill:#ffd000;}.f{filter:url(#a);}</style><filter id="a" x="0" y="0" width="622" height="1866" filterUnits="userSpaceOnUse"><feOffset input="SourceAlpha"/><feGaussianBlur stdDeviation="25" result="b"/><feFlood flood-color="#4b4b4b" flood-opacity="0.078"/><feComposite operator="in" in2="b"/><feComposite in="SourceGraphic"/></filter></defs><g transform="translate(-1173 -685)"><g class="f" transform="matrix(1, 0, 0, 1, 1173, 685)"><rect class="a" width="472" height="1716" rx="24" transform="translate(75 75)"/></g><g transform="translate(1451 2092)"><path class="b" d="M33.411,0A33.411,33.411,0,1,0,66.822,33.411,33.448,33.448,0,0,0,33.411,0Zm0,0"/><path class="c" d="M173.228,170.082l-18.1,18.1a2.782,2.782,0,0,1-3.937,0l-9.049-9.049a2.784,2.784,0,0,1,3.937-3.937l7.08,7.08,16.129-16.129a2.784,2.784,0,0,1,3.937,3.937Zm0,0" transform="translate(-122.883 -143.751)"/></g><g transform="translate(1451 929)"><path class="b" d="M33.411,0A33.411,33.411,0,1,0,66.822,33.411,33.448,33.448,0,0,0,33.411,0Zm0,0"/><path class="c" d="M173.228,170.082l-18.1,18.1a2.782,2.782,0,0,1-3.937,0l-9.049-9.049a2.784,2.784,0,0,1,3.937-3.937l7.08,7.08,16.129-16.129a2.784,2.784,0,0,1,3.937,3.937Zm0,0" transform="translate(-122.883 -143.751)"/></g><rect class="d" width="37" height="4" rx="2" transform="translate(1466 1080)"/><rect class="d" width="37" height="4" rx="2" transform="translate(1466 1195)"/><rect class="d" width="37" height="4" rx="2" transform="translate(1466 1300)"/><rect class="d" width="37" height="4" rx="2" transform="translate(1466 1426)"/><rect class="d" width="37" height="4" rx="2" transform="translate(1466 1546)"/><rect class="d" width="37" height="4" rx="2" transform="translate(1466 1657)"/><rect class="d" width="37" height="4" rx="2" transform="translate(1466 1776)"/><rect class="d" width="37" height="4" rx="2" transform="translate(1466 1895)"/><rect class="d" width="37" height="4" rx="2" transform="translate(1466 2009)"/><rect class="d" width="37" height="4" rx="2" transform="translate(1466 2232)"/><rect class="d" width="37" height="4" rx="2" transform="translate(1466 2347)"/><rect class="e" width="367" height="6" rx="3" transform="translate(1301 872)"/></g></svg>