<svg xmlns="http://www.w3.org/2000/svg" width="476" height="1716" viewBox="0 0 476 1716">
  <g id="Group_4372" data-name="Group 4372" transform="translate(-1280 -760)">
    <g id="Rectangle_2858" data-name="Rectangle 2858" transform="translate(1280 760)" fill="#fff" stroke="#707070" stroke-width="1" opacity="0">
      <rect width="476" height="1716" stroke="none"/>
      <rect x="0.5" y="0.5" width="475" height="1715" fill="none"/>
    </g>
    <g id="Group_4310" data-name="Group 4310" transform="translate(34)">
      <g id="check" transform="translate(1451 2092)">
        <path id="Path_23263" data-name="Path 23263" d="M33.411,0A33.411,33.411,0,1,0,66.822,33.411,33.448,33.448,0,0,0,33.411,0Zm0,0" fill="#453890"/>
        <path id="Path_23264" data-name="Path 23264" d="M173.228,170.082l-18.1,18.1a2.782,2.782,0,0,1-3.937,0l-9.049-9.049a2.784,2.784,0,0,1,3.937-3.937l7.08,7.08,16.129-16.129a2.784,2.784,0,0,1,3.937,3.937Zm0,0" transform="translate(-122.883 -143.751)" fill="#fafafa"/>
      </g>
      <g id="check-2" data-name="check" transform="translate(1451 929)">
        <path id="Path_23263-2" data-name="Path 23263" d="M33.411,0A33.411,33.411,0,1,0,66.822,33.411,33.448,33.448,0,0,0,33.411,0Zm0,0" fill="#453890"/>
        <path id="Path_23264-2" data-name="Path 23264" d="M173.228,170.082l-18.1,18.1a2.782,2.782,0,0,1-3.937,0l-9.049-9.049a2.784,2.784,0,0,1,3.937-3.937l7.08,7.08,16.129-16.129a2.784,2.784,0,0,1,3.937,3.937Zm0,0" transform="translate(-122.883 -143.751)" fill="#fafafa"/>
      </g>
      <rect id="Rectangle_2705" data-name="Rectangle 2705" width="37" height="4" rx="2" transform="translate(1466 1080)" fill="#b1a2fe"/>
      <rect id="Rectangle_2720" data-name="Rectangle 2720" width="37" height="4" rx="2" transform="translate(1466 1195)" fill="#b1a2fe"/>
      <rect id="Rectangle_2721" data-name="Rectangle 2721" width="37" height="4" rx="2" transform="translate(1466 1300)" fill="#b1a2fe"/>
      <rect id="Rectangle_2722" data-name="Rectangle 2722" width="37" height="4" rx="2" transform="translate(1466 1426)" fill="#b1a2fe"/>
      <rect id="Rectangle_2709" data-name="Rectangle 2709" width="37" height="4" rx="2" transform="translate(1466 1546)" fill="#b1a2fe"/>
      <rect id="Rectangle_2795" data-name="Rectangle 2795" width="37" height="4" rx="2" transform="translate(1466 1657)" fill="#b1a2fe"/>
      <rect id="Rectangle_2711" data-name="Rectangle 2711" width="37" height="4" rx="2" transform="translate(1466 1776)" fill="#b1a2fe"/>
      <rect id="Rectangle_2796" data-name="Rectangle 2796" width="37" height="4" rx="2" transform="translate(1466 1895)" fill="#b1a2fe"/>
      <rect id="Rectangle_2797" data-name="Rectangle 2797" width="37" height="4" rx="2" transform="translate(1466 2009)" fill="#b1a2fe"/>
      <rect id="Rectangle_2798" data-name="Rectangle 2798" width="37" height="4" rx="2" transform="translate(1466 2232)" fill="#b1a2fe"/>
      <rect id="Rectangle_2799" data-name="Rectangle 2799" width="37" height="4" rx="2" transform="translate(1466 2347)" fill="#b1a2fe"/>
      <rect id="Rectangle_2701" data-name="Rectangle 2701" width="367" height="6" rx="3" transform="translate(1301 872)" fill="#ffd000"/>
    </g>
  </g>
</svg>
