<svg xmlns="http://www.w3.org/2000/svg" width="472" height="1716" viewBox="0 0 472 1716">
  <g id="SAlesforce" transform="translate(-1280 -880)">
    <g id="Rectangle_2861" data-name="Rectangle 2861" transform="translate(1280 880)" fill="#fff" stroke="#707070" stroke-width="1" opacity="0">
      <rect width="472" height="1716" stroke="none"/>
      <rect x="0.5" y="0.5" width="471" height="1715" fill="none"/>
    </g>
    <g id="check" transform="translate(1483 1761)">
      <path id="Path_23263" data-name="Path 23263" d="M33.411,0A33.411,33.411,0,1,0,66.822,33.411,33.448,33.448,0,0,0,33.411,0Zm0,0" fill="#453890"/>
      <path id="Path_23264" data-name="Path 23264" d="M173.228,170.082l-18.1,18.1a2.782,2.782,0,0,1-3.937,0l-9.049-9.049a2.784,2.784,0,0,1,3.937-3.937l7.08,7.08,16.129-16.129a2.784,2.784,0,0,1,3.937,3.937Zm0,0" transform="translate(-122.883 -143.751)" fill="#fafafa"/>
    </g>
    <g id="check-2" data-name="check" transform="translate(1483 1876)">
      <path id="Path_23263-2" data-name="Path 23263" d="M33.411,0A33.411,33.411,0,1,0,66.822,33.411,33.448,33.448,0,0,0,33.411,0Zm0,0" fill="#453890"/>
      <path id="Path_23264-2" data-name="Path 23264" d="M173.228,170.082l-18.1,18.1a2.782,2.782,0,0,1-3.937,0l-9.049-9.049a2.784,2.784,0,0,1,3.937-3.937l7.08,7.08,16.129-16.129a2.784,2.784,0,0,1,3.937,3.937Zm0,0" transform="translate(-122.883 -143.751)" fill="#fafafa"/>
    </g>
    <g id="check-3" data-name="check" transform="translate(1483 2214)">
      <path id="Path_23263-3" data-name="Path 23263" d="M33.411,0A33.411,33.411,0,1,0,66.822,33.411,33.448,33.448,0,0,0,33.411,0Zm0,0" fill="#453890"/>
      <path id="Path_23264-3" data-name="Path 23264" d="M173.228,170.082l-18.1,18.1a2.782,2.782,0,0,1-3.937,0l-9.049-9.049a2.784,2.784,0,0,1,3.937-3.937l7.08,7.08,16.129-16.129a2.784,2.784,0,0,1,3.937,3.937Zm0,0" transform="translate(-122.883 -143.751)" fill="#fafafa"/>
    </g>
    <g id="check-4" data-name="check" transform="translate(1483 2326)">
      <path id="Path_23263-4" data-name="Path 23263" d="M33.411,0A33.411,33.411,0,1,0,66.822,33.411,33.448,33.448,0,0,0,33.411,0Zm0,0" fill="#453890"/>
      <path id="Path_23264-4" data-name="Path 23264" d="M173.228,170.082l-18.1,18.1a2.782,2.782,0,0,1-3.937,0l-9.049-9.049a2.784,2.784,0,0,1,3.937-3.937l7.08,7.08,16.129-16.129a2.784,2.784,0,0,1,3.937,3.937Zm0,0" transform="translate(-122.883 -143.751)" fill="#fafafa"/>
    </g>
    <g id="check-5" data-name="check" transform="translate(1483 2441)">
      <path id="Path_23263-5" data-name="Path 23263" d="M33.411,0A33.411,33.411,0,1,0,66.822,33.411,33.448,33.448,0,0,0,33.411,0Zm0,0" fill="#453890"/>
      <path id="Path_23264-5" data-name="Path 23264" d="M173.228,170.082l-18.1,18.1a2.782,2.782,0,0,1-3.937,0l-9.049-9.049a2.784,2.784,0,0,1,3.937-3.937l7.08,7.08,16.129-16.129a2.784,2.784,0,0,1,3.937,3.937Zm0,0" transform="translate(-122.883 -143.751)" fill="#fafafa"/>
    </g>
    <g id="check-6" data-name="check" transform="translate(1483 1051)">
      <path id="Path_23263-6" data-name="Path 23263" d="M33.411,0A33.411,33.411,0,1,0,66.822,33.411,33.448,33.448,0,0,0,33.411,0Zm0,0" fill="#453890"/>
      <path id="Path_23264-6" data-name="Path 23264" d="M173.228,170.082l-18.1,18.1a2.782,2.782,0,0,1-3.937,0l-9.049-9.049a2.784,2.784,0,0,1,3.937-3.937l7.08,7.08,16.129-16.129a2.784,2.784,0,0,1,3.937,3.937Zm0,0" transform="translate(-122.883 -143.751)" fill="#fafafa"/>
    </g>
    <g id="check-7" data-name="check" transform="translate(1483 1166)">
      <path id="Path_23263-7" data-name="Path 23263" d="M33.411,0A33.411,33.411,0,1,0,66.822,33.411,33.448,33.448,0,0,0,33.411,0Zm0,0" fill="#453890"/>
      <path id="Path_23264-7" data-name="Path 23264" d="M173.228,170.082l-18.1,18.1a2.782,2.782,0,0,1-3.937,0l-9.049-9.049a2.784,2.784,0,0,1,3.937-3.937l7.08,7.08,16.129-16.129a2.784,2.784,0,0,1,3.937,3.937Zm0,0" transform="translate(-122.883 -143.751)" fill="#fafafa"/>
    </g>
    <g id="check-8" data-name="check" transform="translate(1483 1283)">
      <path id="Path_23263-8" data-name="Path 23263" d="M33.411,0A33.411,33.411,0,1,0,66.822,33.411,33.448,33.448,0,0,0,33.411,0Zm0,0" fill="#453890"/>
      <path id="Path_23264-8" data-name="Path 23264" d="M173.228,170.082l-18.1,18.1a2.782,2.782,0,0,1-3.937,0l-9.049-9.049a2.784,2.784,0,0,1,3.937-3.937l7.08,7.08,16.129-16.129a2.784,2.784,0,0,1,3.937,3.937Zm0,0" transform="translate(-122.883 -143.751)" fill="#fafafa"/>
    </g>
    <g id="check-9" data-name="check" transform="translate(1483 1405)">
      <path id="Path_23263-9" data-name="Path 23263" d="M33.411,0A33.411,33.411,0,1,0,66.822,33.411,33.448,33.448,0,0,0,33.411,0Zm0,0" fill="#453890"/>
      <path id="Path_23264-9" data-name="Path 23264" d="M173.228,170.082l-18.1,18.1a2.782,2.782,0,0,1-3.937,0l-9.049-9.049a2.784,2.784,0,0,1,3.937-3.937l7.08,7.08,16.129-16.129a2.784,2.784,0,0,1,3.937,3.937Zm0,0" transform="translate(-122.883 -143.751)" fill="#fafafa"/>
    </g>
    <g id="check-10" data-name="check" transform="translate(1483 1528)">
      <path id="Path_23263-10" data-name="Path 23263" d="M33.411,0A33.411,33.411,0,1,0,66.822,33.411,33.448,33.448,0,0,0,33.411,0Zm0,0" fill="#453890"/>
      <path id="Path_23264-10" data-name="Path 23264" d="M173.228,170.082l-18.1,18.1a2.782,2.782,0,0,1-3.937,0l-9.049-9.049a2.784,2.784,0,0,1,3.937-3.937l7.08,7.08,16.129-16.129a2.784,2.784,0,0,1,3.937,3.937Zm0,0" transform="translate(-122.883 -143.751)" fill="#fafafa"/>
    </g>
    <g id="check-11" data-name="check" transform="translate(1483 1643)">
      <path id="Path_23263-11" data-name="Path 23263" d="M33.411,0A33.411,33.411,0,1,0,66.822,33.411,33.448,33.448,0,0,0,33.411,0Zm0,0" fill="#453890"/>
      <path id="Path_23264-11" data-name="Path 23264" d="M173.228,170.082l-18.1,18.1a2.782,2.782,0,0,1-3.937,0l-9.049-9.049a2.784,2.784,0,0,1,3.937-3.937l7.08,7.08,16.129-16.129a2.784,2.784,0,0,1,3.937,3.937Zm0,0" transform="translate(-122.883 -143.751)" fill="#fafafa"/>
    </g>
    <rect id="Rectangle_2788" data-name="Rectangle 2788" width="37" height="4" rx="2" transform="translate(1498 2131)" fill="#b1a2fe"/>
    <rect id="Rectangle_2789" data-name="Rectangle 2789" width="37" height="4" rx="2" transform="translate(1498 2018)" fill="#b1a2fe"/>
    <rect id="Rectangle_2783" data-name="Rectangle 2783" width="367" height="6" rx="3" transform="translate(1333 994)" fill="#ffd000"/>
  </g>
</svg>
