<svg xmlns="http://www.w3.org/2000/svg" width="472" height="1716" viewBox="0 0 472 1716">
  <g id="Salesflare" transform="translate(-1280 -800)">
    <g id="Rectangle_2859" data-name="Rectangle 2859" transform="translate(1280 800)" fill="#fff" stroke="#707070" stroke-width="1" opacity="0">
      <rect width="472" height="1716" stroke="none"/>
      <rect x="0.5" y="0.5" width="471" height="1715" fill="none"/>
    </g>
    <g id="check" transform="translate(1483 1673)">
      <path id="Path_23263" data-name="Path 23263" d="M33.411,0A33.411,33.411,0,1,0,66.822,33.411,33.448,33.448,0,0,0,33.411,0Zm0,0" fill="#453890"/>
      <path id="Path_23264" data-name="Path 23264" d="M173.228,170.082l-18.1,18.1a2.782,2.782,0,0,1-3.937,0l-9.049-9.049a2.784,2.784,0,0,1,3.937-3.937l7.08,7.08,16.129-16.129a2.784,2.784,0,0,1,3.937,3.937Zm0,0" transform="translate(-122.883 -143.751)" fill="#fafafa"/>
    </g>
    <g id="check-2" data-name="check" transform="translate(1483 1787)">
      <path id="Path_23263-2" data-name="Path 23263" d="M33.411,0A33.411,33.411,0,1,0,66.822,33.411,33.448,33.448,0,0,0,33.411,0Zm0,0" fill="#453890"/>
      <path id="Path_23264-2" data-name="Path 23264" d="M173.228,170.082l-18.1,18.1a2.782,2.782,0,0,1-3.937,0l-9.049-9.049a2.784,2.784,0,0,1,3.937-3.937l7.08,7.08,16.129-16.129a2.784,2.784,0,0,1,3.937,3.937Zm0,0" transform="translate(-122.883 -143.751)" fill="#fafafa"/>
    </g>
    <g id="check-3" data-name="check" transform="translate(1483 2120)">
      <path id="Path_23263-3" data-name="Path 23263" d="M33.411,0A33.411,33.411,0,1,0,66.822,33.411,33.448,33.448,0,0,0,33.411,0Zm0,0" fill="#453890"/>
      <path id="Path_23264-3" data-name="Path 23264" d="M173.228,170.082l-18.1,18.1a2.782,2.782,0,0,1-3.937,0l-9.049-9.049a2.784,2.784,0,0,1,3.937-3.937l7.08,7.08,16.129-16.129a2.784,2.784,0,0,1,3.937,3.937Zm0,0" transform="translate(-122.883 -143.751)" fill="#fafafa"/>
    </g>
    <g id="check-4" data-name="check" transform="translate(1483 964)">
      <path id="Path_23263-4" data-name="Path 23263" d="M33.411,0A33.411,33.411,0,1,0,66.822,33.411,33.448,33.448,0,0,0,33.411,0Zm0,0" fill="#453890"/>
      <path id="Path_23264-4" data-name="Path 23264" d="M173.228,170.082l-18.1,18.1a2.782,2.782,0,0,1-3.937,0l-9.049-9.049a2.784,2.784,0,0,1,3.937-3.937l7.08,7.08,16.129-16.129a2.784,2.784,0,0,1,3.937,3.937Zm0,0" transform="translate(-122.883 -143.751)" fill="#fafafa"/>
    </g>
    <g id="check-5" data-name="check" transform="translate(1483 1079)">
      <path id="Path_23263-5" data-name="Path 23263" d="M33.411,0A33.411,33.411,0,1,0,66.822,33.411,33.448,33.448,0,0,0,33.411,0Zm0,0" fill="#453890"/>
      <path id="Path_23264-5" data-name="Path 23264" d="M173.228,170.082l-18.1,18.1a2.782,2.782,0,0,1-3.937,0l-9.049-9.049a2.784,2.784,0,0,1,3.937-3.937l7.08,7.08,16.129-16.129a2.784,2.784,0,0,1,3.937,3.937Zm0,0" transform="translate(-122.883 -143.751)" fill="#fafafa"/>
    </g>
    <rect id="Rectangle_2764" data-name="Rectangle 2764" width="37" height="4" rx="2" transform="translate(1498 1230)" fill="#b1a2fe"/>
    <rect id="Rectangle_2765" data-name="Rectangle 2765" width="37" height="4" rx="2" transform="translate(1498 1348)" fill="#b1a2fe"/>
    <rect id="Rectangle_2766" data-name="Rectangle 2766" width="37" height="4" rx="2" transform="translate(1498 1464)" fill="#b1a2fe"/>
    <rect id="Rectangle_2767" data-name="Rectangle 2767" width="37" height="4" rx="2" transform="translate(1498 1581)" fill="#b1a2fe"/>
    <rect id="Rectangle_2800" data-name="Rectangle 2800" width="37" height="4" rx="2" transform="translate(1498 1931)" fill="#b1a2fe"/>
    <rect id="Rectangle_2801" data-name="Rectangle 2801" width="37" height="4" rx="2" transform="translate(1498 2044)" fill="#b1a2fe"/>
    <rect id="Rectangle_2802" data-name="Rectangle 2802" width="37" height="4" rx="2" transform="translate(1498 2382)" fill="#b1a2fe"/>
    <rect id="Rectangle_2803" data-name="Rectangle 2803" width="37" height="4" rx="2" transform="translate(1498 2267)" fill="#b1a2fe"/>
    <rect id="Rectangle_2762" data-name="Rectangle 2762" width="367" height="6" rx="3" transform="translate(1333 907)" fill="#ffd000"/>
  </g>
</svg>
