<svg xmlns="http://www.w3.org/2000/svg" width="472" height="1716" viewBox="0 0 472 1716">
  <g id="Skrapp" transform="translate(-1288 -764)">
    <g id="Rectangle_2860" data-name="Rectangle 2860" transform="translate(1288 764)" fill="#fff" stroke="#707070" stroke-width="1" opacity="0">
      <rect width="472" height="1716" stroke="none"/>
      <rect x="0.5" y="0.5" width="471" height="1715" fill="none"/>
    </g>
    <g id="Group_4320" data-name="Group 4320" transform="translate(32)">
      <g id="check" transform="translate(1459 1673)">
        <path id="Path_23263" data-name="Path 23263" d="M33.411,0A33.411,33.411,0,1,0,66.822,33.411,33.448,33.448,0,0,0,33.411,0Zm0,0" fill="#453890"/>
        <path id="Path_23264" data-name="Path 23264" d="M173.228,170.082l-18.1,18.1a2.782,2.782,0,0,1-3.937,0l-9.049-9.049a2.784,2.784,0,0,1,3.937-3.937l7.08,7.08,16.129-16.129a2.784,2.784,0,0,1,3.937,3.937Zm0,0" transform="translate(-122.883 -143.751)" fill="#fafafa"/>
      </g>
      <g id="check-2" data-name="check" transform="translate(1459 1899)">
        <path id="Path_23263-2" data-name="Path 23263" d="M33.411,0A33.411,33.411,0,1,0,66.822,33.411,33.448,33.448,0,0,0,33.411,0Zm0,0" fill="#453890"/>
        <path id="Path_23264-2" data-name="Path 23264" d="M173.228,170.082l-18.1,18.1a2.782,2.782,0,0,1-3.937,0l-9.049-9.049a2.784,2.784,0,0,1,3.937-3.937l7.08,7.08,16.129-16.129a2.784,2.784,0,0,1,3.937,3.937Zm0,0" transform="translate(-122.883 -143.751)" fill="#fafafa"/>
      </g>
      <g id="check-3" data-name="check" transform="translate(1459 963)">
        <path id="Path_23263-3" data-name="Path 23263" d="M33.411,0A33.411,33.411,0,1,0,66.822,33.411,33.448,33.448,0,0,0,33.411,0Zm0,0" fill="#453890"/>
        <path id="Path_23264-3" data-name="Path 23264" d="M173.228,170.082l-18.1,18.1a2.782,2.782,0,0,1-3.937,0l-9.049-9.049a2.784,2.784,0,0,1,3.937-3.937l7.08,7.08,16.129-16.129a2.784,2.784,0,0,1,3.937,3.937Zm0,0" transform="translate(-122.883 -143.751)" fill="#fafafa"/>
      </g>
      <rect id="Rectangle_2784" data-name="Rectangle 2784" width="37" height="4" rx="2" transform="translate(1474 1113)" fill="#b1a2fe"/>
      <rect id="Rectangle_2785" data-name="Rectangle 2785" width="37" height="4" rx="2" transform="translate(1474 1229)" fill="#b1a2fe"/>
      <rect id="Rectangle_2786" data-name="Rectangle 2786" width="37" height="4" rx="2" transform="translate(1474 1347)" fill="#b1a2fe"/>
      <rect id="Rectangle_2787" data-name="Rectangle 2787" width="37" height="4" rx="2" transform="translate(1474 1463)" fill="#b1a2fe"/>
      <rect id="Rectangle_2788" data-name="Rectangle 2788" width="37" height="4" rx="2" transform="translate(1474 1580)" fill="#b1a2fe"/>
      <rect id="Rectangle_2789" data-name="Rectangle 2789" width="37" height="4" rx="2" transform="translate(1474 1817)" fill="#b1a2fe"/>
      <rect id="Rectangle_2807" data-name="Rectangle 2807" width="37" height="4" rx="2" transform="translate(1474 2043)" fill="#b1a2fe"/>
      <rect id="Rectangle_2808" data-name="Rectangle 2808" width="37" height="4" rx="2" transform="translate(1474 2157)" fill="#b1a2fe"/>
      <rect id="Rectangle_2809" data-name="Rectangle 2809" width="37" height="4" rx="2" transform="translate(1474 2266)" fill="#b1a2fe"/>
      <rect id="Rectangle_2810" data-name="Rectangle 2810" width="37" height="4" rx="2" transform="translate(1474 2381)" fill="#b1a2fe"/>
      <rect id="Rectangle_2783" data-name="Rectangle 2783" width="367" height="6" rx="3" transform="translate(1309 906)" fill="#ffd000"/>
    </g>
  </g>
</svg>
