<svg xmlns="http://www.w3.org/2000/svg" xmlns:xlink="http://www.w3.org/1999/xlink" width="94.242" height="18.853" viewBox="0 0 94.242 18.853"><defs><style>.a,.b,.c,.d,.e{opacity:0.5;}.a{fill:url(#a);}.b{fill:url(#b);}.c{fill:url(#c);}.d{fill:url(#d);}.e{fill:url(#e);}.f{fill:url(#f);}</style><linearGradient id="a" x1="0.949" y1="-0.049" x2="0" y2="1" gradientUnits="objectBoundingBox"><stop offset="0" stop-color="#d1c7ff"/><stop offset="1" stop-color="#502eff"/></linearGradient><linearGradient id="b" x1="1.036" y1="-0.043" xlink:href="#a"/><linearGradient id="c" x1="1.129" y1="-0.143" xlink:href="#a"/><linearGradient id="d" x1="1.394" y1="-0.283" xlink:href="#a"/><linearGradient id="e" x1="1.963" y1="-0.777" xlink:href="#a"/><linearGradient id="f" x1="0.168" y1="1" x2="0.195" y2="-0.797" gradientUnits="objectBoundingBox"><stop offset="0" stop-color="#502eff"/><stop offset="1" stop-color="#d1c7ff"/></linearGradient></defs><g transform="translate(-161 -36.212)"><g transform="translate(161 36.212)"><path class="a" d="M685.867,57.853h-7.342V39h7.342a9.427,9.427,0,0,1,9.427,9.427h0A9.427,9.427,0,0,1,685.867,57.853Z" transform="translate(-678.525 -39)"/><path class="b" d="M685.314,71.432h-6.789V54h6.789a8.716,8.716,0,0,1,8.716,8.716h0A8.716,8.716,0,0,1,685.314,71.432Z" transform="translate(-678.525 -52.579)"/><path class="c" d="M684.7,86.514h-6.174V70.66H684.7a7.927,7.927,0,0,1,7.927,7.927h0A7.927,7.927,0,0,1,684.7,86.514Z" transform="translate(-678.525 -67.661)"/><path class="d" d="M684.023,103.116h-5.5V89h5.5a7.058,7.058,0,0,1,7.058,7.058h0A7.058,7.058,0,0,1,684.023,103.116Z" transform="translate(-678.525 -84.263)"/><path class="e" d="M683.376,118.972h-4.851V106.515h4.851a6.228,6.228,0,0,1,6.228,6.228h0A6.229,6.229,0,0,1,683.376,118.972Z" transform="translate(-678.525 -100.119)"/><path class="f" d="M1.43-29.5A5.618,5.618,0,0,1,3.011-33.57,5.345,5.345,0,0,1,7.024-35.2a5.345,5.345,0,0,1,4.013,1.634A5.618,5.618,0,0,1,12.618-29.5a5.618,5.618,0,0,1-1.581,4.066A5.345,5.345,0,0,1,7.024-23.8a5.338,5.338,0,0,1-4.013-1.638A5.621,5.621,0,0,1,1.43-29.5Zm5.6,3.572a3.039,3.039,0,0,0,2.409-1.026,3.73,3.73,0,0,0,.9-2.546,3.73,3.73,0,0,0-.9-2.546,3.056,3.056,0,0,0-2.425-1.026A3.039,3.039,0,0,0,4.607-32.05a3.73,3.73,0,0,0-.9,2.546,3.73,3.73,0,0,0,.9,2.546A3.056,3.056,0,0,0,7.031-25.931ZM14.419-23.8V-35.2h.76L20.1-29.23,25.067-35.2h.76v11.4h-2.28l-.008-6.118L20.1-26.075l-3.4-3.846V-23.8ZM27.948-35.166h2.3V-23.8H27.978ZM32.66-23.8V-35.2h.76l7.145,8.019V-35.2h2.28v11.4l-2.257.023-5.754-5.252.106,5.229Zm11.948,0,9.052-11.31h2.075l.061,11.3-2.219.008.015-1.748-5.275.053L46.9-23.78Zm9.06-8.155-3.413,4.165h3.39Zm13.1-3.268V-33.1l-3.565.023V-23.8h-2.28v-9.273L57.377-33.1v-2.128Zm1.9,9.28,8.361.015V-23.8H68.672Zm0-2.584v-2.128l6.848.015v2.121Zm0-4.545V-35.2l8.376-.008v2.128Z" transform="translate(17.194 41.246)"/></g></g></svg>